<svg width="216" height="256" viewBox="0 0 216 256" fill="none" xmlns="http://www.w3.org/2000/svg">
<g clip-path="url(#clip0_3153_30746)">
<path d="M208 16H176V8C176 3.58 172.42 0 168 0H48C43.58 0 40 3.58 40 8V16H8C3.58 16 0 19.58 0 24V72C0 94.092 17.908 112 40 112H41.12C45.628 137.016 63.712 157.428 88 164.92L84.32 208H131.68L128 164.92C152.288 157.428 170.372 137.016 174.88 112H176C198.092 112 216 94.092 216 72V24C216 19.58 212.42 16 208 16ZM40 48V96C26.744 96 16 85.256 16 72V32H40V48ZM200 72C200 85.256 189.256 96 176 96V32H200V72Z" fill="#FCD063"/>
<path d="M56 240H160C162.208 240 164 241.792 164 244V252C164 254.208 162.208 256 160 256H56C53.792 256 52 254.208 52 252V244C52 241.792 53.792 240 56 240Z" fill="#82A7C4"/>
<path d="M156 216C156 211.58 152.42 208 148 208H68C63.58 208 60 211.58 60 216V240H156V216Z" fill="#C9D5E3"/>
<path d="M40 100V96C37.272 95.992 34.568 95.516 32 94.6C31.984 97.692 29.468 100.188 26.372 100.172C25.384 100.168 24.412 99.9 23.56 99.4C13.924 93.632 8.02 83.232 8 72C8 69.792 6.208 68 4 68C1.792 68 8.96888e-07 69.792 8.96888e-07 72C-0.0039991 91.012 13.372 107.396 32 111.2C34.632 111.732 37.312 112 40 112H41.12C40.392 108.04 40.016 104.024 40 100Z" fill="#F6B545"/>
<path d="M132 216H84V232H132V216Z" fill="#E2E7F0"/>
<path d="M192 24C187.58 24 184 20.42 184 16H176V32H200C200 27.58 196.42 24 192 24Z" fill="#F6B545"/>
<path d="M24 24C28.42 24 32 20.42 32 16H40V32H16C16 27.58 19.58 24 24 24Z" fill="#F6B545"/>
<path d="M212 40C214.208 40 216 41.792 216 44V72H208V44C208 41.792 209.792 40 212 40Z" fill="#F6B545"/>
<path d="M48 0H168C168 4.42 164.42 8 160 8H56C51.58 8 48 4.42 48 0Z" fill="#FFE27A"/>
<path d="M59.56 74.2C55.604 76.168 50.8 74.552 48.836 70.596C48.288 69.492 48 68.272 48 67.04V24C48 19.58 44.42 16 40 16V100L176 32V16L59.56 74.2Z" fill="#FFE27A"/>
<path d="M48 132L176 68V40L40.48 107.76C41.432 116.244 43.984 124.468 48 132Z" fill="#FFE27A"/>
<path d="M128.84 108C128.544 107.968 128.256 107.872 128 107.72L108 96.8L87.9999 107.72C87.2839 108.188 86.3559 108.188 85.6399 107.72C84.9399 107.172 84.5999 106.276 84.7599 105.4L88.5599 82.28L72.5599 65.92C71.8759 65.24 71.6559 64.22 71.9999 63.32C72.2479 62.488 72.9439 61.868 73.7999 61.72L95.9999 58.36L106 37.32C106.356 36.532 107.136 36.016 108 36C108.864 36.016 109.644 36.532 110 37.32L120 58.36L142.16 61.72C143.016 61.868 143.712 62.488 143.96 63.32C144.228 64.176 144.012 65.108 143.4 65.76L127.4 82.12L131.16 105.24C131.32 106.116 130.98 107.012 130.28 107.56C129.872 107.876 129.356 108.036 128.84 108Z" fill="#E78825"/>
<path d="M96.0799 58.36L89.1999 59.4L73.9199 67.04L84.4399 77.76L122.48 58.76L119.92 58.36L114.48 46.76L97.5599 55.24L96.0799 58.36Z" fill="#F19920"/>
<path d="M84.9199 105.24C84.7599 106.116 85.0999 107.012 85.7999 107.56C86.5159 108.028 87.4439 108.028 88.1599 107.56L108.16 96.6401L113.08 99.3601L129.08 91.3601L127.52 81.9201L143.52 65.5601C144.036 64.9361 144.216 64.1001 144 63.3201C143.752 62.4881 143.056 61.8681 142.2 61.7201L134.88 60.6001L88.4399 83.8001L84.9199 105.24Z" fill="#F19920"/>
<path d="M168 44V72L176 68V40L168 44Z" fill="#FCD063"/>
<path d="M212 68C209.792 68 208 69.792 208 72C207.98 83.232 202.076 93.632 192.44 99.4C189.776 100.968 186.344 100.08 184.772 97.412C184.272 96.56 184.004 95.588 184 94.6C181.432 95.516 178.728 95.992 176 96V40C176 37.792 174.208 36 172 36C169.792 36 168 37.792 168 40V100C168 133.136 141.136 160 108 160C105.792 160 104 161.792 104 164C104 166.208 105.792 168 108 168C101.216 167.98 94.4761 166.944 88.0001 164.92L87.3601 172.92C94.0401 175.004 101.004 176.04 108 176H111.76C116.176 175.868 119.864 179.34 119.996 183.756C120 183.836 120 183.92 120 184V208H131.68L128.76 172.76L128.12 164.76C152.316 157.256 170.34 136.924 174.88 112H176C178.688 112 181.368 111.732 184 111.2C202.628 107.396 216.004 91.012 216 72C216 69.792 214.208 68 212 68Z" fill="#F6B545"/>
</g>
<defs>
<clipPath id="clip0_3153_30746">
<rect width="216" height="256" fill="white"/>
</clipPath>
</defs>
</svg>
