<svg width="64" height="64" viewBox="0 0 64 64" fill="none" xmlns="http://www.w3.org/2000/svg">
<path d="M58.4 8.53317H49.6V5.59984C49.6 4.82187 49.291 4.07576 48.7409 3.52566C48.1908 2.97555 47.4447 2.6665 46.6667 2.6665H17.3334C16.5554 2.6665 15.8093 2.97555 15.2592 3.52566C14.7091 4.07576 14.4 4.82187 14.4 5.59984V8.53317H5.60002C4.82205 8.53317 4.07595 8.84222 3.52584 9.39232C2.97573 9.94243 2.66669 10.6885 2.66669 11.4665V20.2665C2.66669 32.9092 7.94669 40.5358 16.8054 40.7998C18.0979 43.0349 19.8664 44.9582 21.9853 46.4334C24.1043 47.9086 26.5219 48.8995 29.0667 49.3358V55.4665H23.2V61.3332H40.8V55.4665H34.9334V49.3358C37.4781 48.8995 39.8957 47.9086 42.0147 46.4334C44.1337 44.9582 45.9021 43.0349 47.1947 40.7998C55.9947 40.5065 61.3334 32.8798 61.3334 20.2665V11.4665C61.3334 10.6885 61.0243 9.94243 60.4742 9.39232C59.9241 8.84222 59.178 8.53317 58.4 8.53317ZM8.53335 20.2665V14.3998H14.4V34.4345C9.17869 32.2345 8.53335 24.0798 8.53335 20.2665ZM49.6 34.4345V14.3998H55.4667V20.2665C55.4667 24.0798 54.8214 32.2345 49.6 34.4345Z" fill="#B3BAC5"/>
</svg>
