<svg width="64" height="64" viewBox="0 0 64 64" fill="none" xmlns="http://www.w3.org/2000/svg">
<path d="M32 61.091C43.2262 61.091 52.3636 51.9535 52.3636 40.7274C52.3636 29.5012 43.2262 20.3637 32 20.3637C20.7709 20.3637 11.6364 29.5012 11.6364 40.7274C11.6364 51.9535 20.7709 61.091 32 61.091ZM32 26.1819C40.0204 26.1819 46.5454 32.707 46.5454 40.7274C46.5454 48.7477 40.0204 55.2728 32 55.2728C23.9796 55.2728 17.4545 48.7477 17.4545 40.7274C17.4545 32.707 23.9796 26.1819 32 26.1819ZM29.0909 2.90918H17.4545V18.9615C20.9358 16.632 24.9273 15.1761 29.0909 14.7172V2.90918ZM46.5454 2.90918H34.9091V14.7172C39.0726 15.1761 43.0642 16.632 46.5454 18.9615V2.90918Z" fill="#B3BAC5"/>
<path d="M26.237 43.0865L24.8756 51.0166L31.9999 47.2726L39.1243 51.0166L37.7628 43.0865L43.5287 37.4661L35.5636 36.3083L31.9999 29.0908L28.4363 36.3083L20.4712 37.4661L26.237 43.0865Z" fill="#3F5876"/>
</svg>
