<svg width="64" height="64" viewBox="0 0 64 64" fill="none" xmlns="http://www.w3.org/2000/svg">
<path d="M42 28C42 29.104 41.106 30 40 30H34V48C34 49.104 33.106 50 32 50H24C22.894 50 22 49.104 22 48C22 46.896 22.894 46 24 46H30V10H24C22.894 10 22 9.104 22 8C22 6.896 22.894 6 24 6H32C33.106 6 34 6.896 34 8V26H40C41.106 26 42 26.896 42 28Z" fill="#B3BAC5"/>
<path d="M24 14H4C2.894 14 2 13.104 2 12V4C2 2.896 2.894 2 4 2H24C25.106 2 26 2.896 26 4V12C26 13.104 25.106 14 24 14ZM6 10H22V6H6V10Z" fill="#B3BAC5"/>
<path d="M60 34H40C38.894 34 38 33.104 38 32V24C38 22.896 38.894 22 40 22H60C61.106 22 62 22.896 62 24V32C62 33.104 61.106 34 60 34ZM42 30H58V26H42V30Z" fill="#1F2D3D"/>
<path d="M24 54H4C2.894 54 2 53.104 2 52V44C2 42.896 2.894 42 4 42H24C25.106 42 26 42.896 26 44V52C26 53.104 25.106 54 24 54ZM6 50H22V46H6V50Z" fill="#1F2D3D"/>
<path d="M60 62H44C42.894 62 42 61.104 42 60C42 58.896 42.894 58 44 58H60C61.106 58 62 58.896 62 60C62 61.104 61.106 62 60 62ZM40 60C40 58.896 39.106 58 38 58H34C32.894 58 32 58.896 32 60C32 61.104 32.894 62 34 62H38C39.106 62 40 61.104 40 60ZM30 60C30 58.896 29.106 58 28 58H4C2.894 58 2 58.896 2 60C2 61.104 2.894 62 4 62H28C29.106 62 30 61.104 30 60Z" fill="#3F5876"/>
</svg>
