<svg width="568" height="408" viewBox="0 0 568 408" fill="none" xmlns="http://www.w3.org/2000/svg">
<g clip-path="url(#clip0_573_9980)">
<path d="M198.068 179.981C243.542 179.981 280.407 143.117 280.407 97.642C280.407 52.1674 243.542 15.303 198.068 15.303C152.593 15.303 115.729 52.1674 115.729 97.642C115.729 143.117 152.593 179.981 198.068 179.981Z" fill="#DBE8EC"/>
<path d="M144.297 70.789H176.6" stroke="#B9D4DB" stroke-width="3" stroke-miterlimit="10" stroke-linecap="round"/>
<path d="M144.297 80.1H176.6" stroke="#B9D4DB" stroke-width="3" stroke-miterlimit="10" stroke-linecap="round"/>
<path d="M144.297 89.41H176.6" stroke="#B9D4DB" stroke-width="3" stroke-miterlimit="10" stroke-linecap="round"/>
<path d="M567.904 217.613V199.422C567.904 195.953 566.526 192.626 564.073 190.173C561.62 187.72 558.293 186.342 554.825 186.342H508.659C506.941 186.342 505.24 186.004 503.653 185.347C502.066 184.689 500.625 183.726 499.41 182.511C498.195 181.297 497.232 179.855 496.575 178.268C495.917 176.681 495.579 174.98 495.579 173.263V155.072C495.579 153.354 495.917 151.653 496.575 150.066C497.232 148.479 498.195 147.038 499.41 145.823C500.625 144.608 502.066 143.645 503.653 142.988C505.24 142.33 506.941 141.992 508.659 141.992H510.116C513.585 141.992 516.912 140.614 519.365 138.161C521.818 135.708 523.196 132.382 523.196 128.913V110.722C523.196 107.253 521.818 103.926 519.365 101.473C516.912 99.0201 513.585 97.6421 510.116 97.6421H88.209C84.7402 97.6421 81.4133 99.0201 78.9605 101.473C76.5076 103.926 75.1296 107.253 75.1296 110.722V128.913C75.1296 132.382 76.5076 135.708 78.9605 138.161C81.4133 140.614 84.7402 141.992 88.209 141.992C91.6779 141.992 95.0047 143.37 97.4576 145.823C99.9105 148.276 101.288 151.603 101.288 155.072V173.263C101.288 176.732 99.9105 180.058 97.4576 182.511C95.0047 184.964 91.6779 186.342 88.209 186.342H37.6297C34.1608 186.342 30.834 187.72 28.3811 190.173C25.9282 192.626 24.5502 195.953 24.5502 199.422V217.613C24.5502 221.082 25.9282 224.409 28.3811 226.861C30.834 229.314 34.1608 230.692 37.6297 230.692H57.4762C60.9451 230.692 64.2719 232.07 66.7248 234.523C69.1777 236.976 70.5557 240.303 70.5557 243.772V261.963C70.5557 265.432 69.1777 268.759 66.7248 271.212C64.2719 273.664 60.9451 275.042 57.4762 275.042H57.4282C53.9594 275.042 50.6326 276.42 48.1797 278.873C45.7269 281.326 44.3489 284.653 44.3489 288.122V306.313C44.3489 309.782 45.7269 313.109 48.1797 315.562C50.6326 318.014 53.9594 319.392 57.4283 319.392H60.2997C62.0173 319.392 63.7181 319.731 65.305 320.388C66.8919 321.045 68.3337 322.009 69.5483 323.223C70.7628 324.438 71.7262 325.88 72.3835 327.467C73.0408 329.053 73.3791 330.754 73.3791 332.472V350.663C73.3791 352.381 73.0408 354.082 72.3835 355.668C71.7262 357.255 70.7628 358.697 69.5483 359.912C68.3337 361.126 66.8919 362.09 65.305 362.747C63.7181 363.404 62.0173 363.743 60.2997 363.743H13.1752C9.70628 363.743 6.37948 365.121 3.92661 367.573C1.47373 370.026 0.095719 373.353 0.0957031 376.822V395.013C0.0957005 396.731 0.434006 398.432 1.09131 400.018C1.74861 401.605 2.71204 403.047 3.92657 404.262C5.14111 405.476 6.58298 406.44 8.16986 407.097C9.75673 407.754 11.4575 408.093 13.1752 408.093H517.138C520.607 408.093 523.934 406.715 526.387 404.262C528.84 401.809 530.218 398.482 530.218 395.013V376.822C530.218 373.353 528.84 370.026 526.387 367.573C523.934 365.121 520.607 363.743 517.138 363.743H505.798C504.08 363.743 502.379 363.404 500.792 362.747C499.205 362.09 497.764 361.126 496.549 359.912C495.335 358.697 494.371 357.255 493.714 355.668C493.056 354.082 492.718 352.381 492.718 350.663V332.472C492.718 330.754 493.056 329.053 493.714 327.467C494.371 325.88 495.335 324.438 496.549 323.223C497.764 322.009 499.205 321.045 500.792 320.388C502.379 319.731 504.08 319.392 505.798 319.392H532.538C536.006 319.392 539.333 318.014 541.786 315.562C544.239 313.109 545.617 309.782 545.617 306.313V288.122C545.617 286.404 545.279 284.703 544.621 283.117C543.964 281.53 543.001 280.088 541.786 278.873C540.572 277.659 539.13 276.695 537.543 276.038C535.956 275.381 534.255 275.042 532.538 275.042H524.426C520.957 275.042 517.63 273.664 515.177 271.212C512.724 268.759 511.346 265.432 511.346 261.963V243.772C511.346 240.303 512.724 236.976 515.177 234.523C517.63 232.07 520.957 230.692 524.426 230.692H554.825C558.293 230.692 561.62 229.314 564.073 226.861C566.526 224.409 567.904 221.082 567.904 217.613Z" fill="#DBE8EC"/>
<path d="M427.557 -0.0930176H176.484C171.514 -0.0930176 167.484 3.93642 167.484 8.90698V385.467C167.484 390.438 171.514 394.467 176.484 394.467H427.557C432.528 394.467 436.557 390.438 436.557 385.467V8.90698C436.557 3.93642 432.528 -0.0930176 427.557 -0.0930176Z" fill="#3086A3"/>
<path d="M411.305 19.213H192.735C187.765 19.213 183.735 23.2424 183.735 28.213V366.162C183.735 371.133 187.765 375.162 192.735 375.162H411.305C416.276 375.162 420.305 371.133 420.305 366.162V28.213C420.305 23.2424 416.276 19.213 411.305 19.213Z" fill="#DBE8EC"/>
<path d="M302.021 160.562C326.511 160.562 346.364 140.709 346.364 116.219C346.364 91.729 326.511 71.876 302.021 71.876C277.531 71.876 257.678 91.729 257.678 116.219C257.678 140.709 277.531 160.562 302.021 160.562Z" fill="#F9AE2B"/>
<path d="M294.569 112.352V103.131C294.569 102.207 294.753 101.291 295.109 100.438C295.464 99.5847 295.986 98.8103 296.643 98.1596C297.3 97.5089 298.079 96.9948 298.936 96.647C299.792 96.2992 300.709 96.1246 301.634 96.1333H302.403C303.327 96.1243 304.245 96.2987 305.101 96.6463C305.958 96.994 306.738 97.5081 307.394 98.1588C308.051 98.8096 308.573 99.5841 308.929 100.438C309.284 101.291 309.467 102.207 309.467 103.131V106.237C309.469 106.446 309.552 106.645 309.699 106.793C309.846 106.94 310.045 107.025 310.253 107.027L313.973 107.044C314.077 107.045 314.18 107.025 314.276 106.985C314.373 106.946 314.46 106.887 314.534 106.814C314.608 106.741 314.666 106.653 314.706 106.557C314.746 106.461 314.767 106.358 314.767 106.254V103.645C314.768 102.045 314.452 100.46 313.84 98.9813C313.227 97.5027 312.329 96.1594 311.196 95.0283C310.064 93.8972 308.72 93.0005 307.24 92.3894C305.761 91.7783 304.176 91.465 302.575 91.4672H301.461C299.861 91.4658 298.276 91.7797 296.798 92.3911C295.319 93.0025 293.975 93.8993 292.843 95.0303C291.711 96.1613 290.814 97.5043 290.201 98.9825C289.588 100.461 289.273 102.045 289.273 103.645V112.598L294.569 112.352Z" fill="#409CB5"/>
<path d="M316.528 138.865C317.459 138.863 318.351 138.492 319.01 137.833C319.668 137.175 320.039 136.283 320.041 135.351V115.367C320.039 114.436 319.668 113.544 319.01 112.885C318.351 112.227 317.459 111.856 316.528 111.854H287.514C286.583 111.856 285.69 112.227 285.032 112.885C284.373 113.544 284.002 114.436 284 115.367V135.351C284.002 136.283 284.373 137.175 285.032 137.833C285.69 138.492 286.583 138.863 287.514 138.865L316.528 138.865Z" fill="#3086A3"/>
<path d="M302.02 118.708C301.023 118.712 300.067 119.11 299.362 119.815C298.657 120.521 298.259 121.476 298.256 122.474C298.273 123.04 298.42 123.595 298.685 124.096C298.951 124.597 299.327 125.03 299.786 125.362V129.781C299.786 130.373 300.022 130.941 300.441 131.36C300.86 131.779 301.428 132.015 302.02 132.015C302.613 132.015 303.181 131.779 303.6 131.36C304.019 130.941 304.254 130.373 304.254 129.781V125.362C304.713 125.029 305.089 124.596 305.354 124.095C305.619 123.595 305.767 123.04 305.785 122.474C305.782 121.476 305.384 120.521 304.679 119.815C303.974 119.11 303.018 118.712 302.02 118.708V118.708ZM183.735 325.521V367.62C183.735 368.611 183.93 369.591 184.309 370.506C184.688 371.421 185.244 372.253 185.944 372.953C186.644 373.653 187.476 374.209 188.391 374.588C189.306 374.967 190.286 375.162 191.277 375.162H412.764C413.755 375.162 414.735 374.967 415.65 374.588C416.565 374.209 417.396 373.653 418.097 372.953C418.797 372.253 419.352 371.421 419.731 370.506C420.11 369.591 420.305 368.611 420.305 367.62V325.521H183.735ZM420.305 26.7544C420.305 25.764 420.11 24.7834 419.731 23.8684C419.352 22.9535 418.797 22.1221 418.097 21.4219C417.396 20.7216 416.565 20.1661 415.65 19.7871C414.735 19.4081 413.755 19.2131 412.764 19.2131H191.277C190.286 19.2131 189.306 19.4081 188.391 19.7871C187.476 20.1661 186.644 20.7216 185.944 21.4219C185.244 22.1221 184.688 22.9535 184.309 23.8684C183.93 24.7834 183.735 25.764 183.735 26.7544V41.8369H420.305V26.7544Z" fill="#409CB5"/>
<path d="M302.021 31.882C309.017 31.882 314.69 26.2099 314.69 19.213C314.69 12.2161 309.017 6.54401 302.021 6.54401C295.024 6.54401 289.352 12.2161 289.352 19.213C289.352 26.2099 295.024 31.882 302.021 31.882Z" fill="#F9AE2B"/>
<path d="M302.021 363.01C309.017 363.01 314.69 357.338 314.69 350.341C314.69 343.344 309.017 337.672 302.021 337.672C295.024 337.672 289.352 343.344 289.352 350.341C289.352 357.338 295.024 363.01 302.021 363.01Z" fill="#F9AE2B"/>
<path d="M279.112 176.072H212.112C210.455 176.072 209.112 177.415 209.112 179.072V198.553C209.112 200.21 210.455 201.553 212.112 201.553H279.112C280.769 201.553 282.112 200.21 282.112 198.553V179.072C282.112 177.415 280.769 176.072 279.112 176.072Z" fill="#F9AE2B"/>
<path d="M392.533 176.072H309.847C308.19 176.072 306.847 177.415 306.847 179.072V290.172C306.847 291.829 308.19 293.172 309.847 293.172H392.533C394.19 293.172 395.533 291.829 395.533 290.172V179.072C395.533 177.415 394.19 176.072 392.533 176.072Z" fill="#EE781D"/>
<path d="M279.112 221.881H212.112C210.455 221.881 209.112 223.224 209.112 224.881V244.362C209.112 246.019 210.455 247.362 212.112 247.362H279.112C280.769 247.362 282.112 246.019 282.112 244.362V224.881C282.112 223.224 280.769 221.881 279.112 221.881Z" fill="#F9AE2B"/>
<path d="M279.112 267.691H212.112C210.455 267.691 209.112 269.034 209.112 270.691V290.172C209.112 291.829 210.455 293.172 212.112 293.172H279.112C280.769 293.172 282.112 291.829 282.112 290.172V270.691C282.112 269.034 280.769 267.691 279.112 267.691Z" fill="#F9AE2B"/>
<path d="M351.189 259.563H325.635C325.141 259.563 324.657 259.433 324.229 259.187C323.802 258.94 323.447 258.585 323.201 258.158C322.954 257.731 322.824 257.246 322.824 256.753C322.824 256.26 322.954 255.775 323.201 255.348L335.978 233.217L348.756 211.085C349.002 210.658 349.357 210.303 349.784 210.057C350.212 209.81 350.696 209.68 351.189 209.68C351.683 209.68 352.167 209.81 352.595 210.057C353.022 210.303 353.377 210.658 353.623 211.085L366.401 233.217L379.178 255.348C379.425 255.775 379.555 256.26 379.555 256.753C379.555 257.246 379.425 257.731 379.178 258.158C378.932 258.585 378.577 258.94 378.15 259.187C377.722 259.433 377.238 259.563 376.744 259.563H351.189Z" fill="#F9AE2B"/>
<path d="M352.596 222.784C352.596 222.007 351.967 221.378 351.19 221.378C350.414 221.378 349.784 222.007 349.784 222.784V243.742C349.784 244.519 350.414 245.148 351.19 245.148C351.967 245.148 352.596 244.519 352.596 243.742V222.784Z" fill="#409CB5"/>
<path d="M354.536 251.716C354.719 249.868 353.369 248.221 351.521 248.038C349.673 247.855 348.026 249.205 347.843 251.054C347.66 252.902 349.01 254.549 350.858 254.732C352.707 254.915 354.353 253.565 354.536 251.716Z" fill="#409CB5"/>
<path d="M133.053 326.793V303.258C133.053 300.898 133.521 298.562 134.429 296.384C135.338 294.205 136.669 292.229 138.345 290.568C140.022 288.907 142.011 287.595 144.197 286.707C146.384 285.82 148.725 285.374 151.084 285.396H153.047C155.407 285.373 157.748 285.818 159.935 286.705C162.122 287.593 164.112 288.905 165.788 290.566C167.465 292.227 168.796 294.204 169.704 296.382C170.612 298.561 171.079 300.898 171.079 303.258V311.186C171.083 311.718 171.295 312.227 171.67 312.604C172.045 312.981 172.553 313.196 173.084 313.203L182.58 313.246C182.846 313.247 183.109 313.195 183.354 313.095C183.6 312.994 183.824 312.845 184.012 312.658C184.2 312.471 184.35 312.248 184.452 312.003C184.554 311.758 184.607 311.495 184.607 311.229V304.57C184.608 300.485 183.804 296.439 182.24 292.665C180.676 288.891 178.383 285.463 175.493 282.575C172.602 279.688 169.171 277.399 165.395 275.84C161.619 274.28 157.573 273.48 153.488 273.486H150.644C146.559 273.482 142.515 274.284 138.74 275.844C134.966 277.405 131.536 279.694 128.647 282.581C125.758 285.467 123.466 288.895 121.903 292.668C120.339 296.442 119.535 300.486 119.535 304.57V327.422L133.053 326.793Z" fill="#EE781D"/>
<path d="M189.099 394.467C191.476 394.461 193.753 393.515 195.434 391.834C197.115 390.153 198.062 387.875 198.068 385.499V334.49C198.062 332.113 197.115 329.835 195.434 328.155C193.753 326.474 191.476 325.527 189.099 325.521H115.042C112.665 325.527 110.387 326.474 108.707 328.155C107.026 329.835 106.079 332.113 106.073 334.49V385.499C106.079 387.875 107.026 390.153 108.707 391.834C110.387 393.515 112.665 394.461 115.042 394.467H189.099Z" fill="#F9AE2B"/>
<path d="M152.071 343.018C149.524 343.027 147.085 344.042 145.285 345.843C143.485 347.643 142.47 350.083 142.462 352.629C142.506 354.075 142.881 355.491 143.558 356.769C144.235 358.047 145.197 359.153 146.368 360.001V371.279C146.37 372.79 146.972 374.239 148.041 375.306C149.11 376.374 150.56 376.974 152.071 376.974C153.582 376.974 155.031 376.374 156.1 375.306C157.169 374.239 157.771 372.79 157.773 371.279V360.001C158.943 359.151 159.903 358.045 160.58 356.768C161.257 355.49 161.633 354.074 161.679 352.629C161.671 350.083 160.656 347.644 158.856 345.843C157.056 344.042 154.617 343.027 152.071 343.018Z" fill="#EE781D"/>
<path d="M21.0508 376.996H53.3538" stroke="#B9D4DB" stroke-width="3" stroke-miterlimit="10" stroke-linecap="round"/>
<path d="M21.0508 386.306H53.3538" stroke="#B9D4DB" stroke-width="3" stroke-miterlimit="10" stroke-linecap="round"/>
<path d="M21.0508 395.617H53.3538" stroke="#B9D4DB" stroke-width="3" stroke-miterlimit="10" stroke-linecap="round"/>
<path d="M451.833 232.036H484.136" stroke="#B9D4DB" stroke-width="3" stroke-miterlimit="10" stroke-linecap="round"/>
<path d="M451.833 241.346H484.136" stroke="#B9D4DB" stroke-width="3" stroke-miterlimit="10" stroke-linecap="round"/>
<path d="M451.833 250.657H484.136" stroke="#B9D4DB" stroke-width="3" stroke-miterlimit="10" stroke-linecap="round"/>
<path d="M95.3792 268.346C104.452 268.346 111.807 260.991 111.807 251.918C111.807 242.845 104.452 235.49 95.3792 235.49C86.3062 235.49 78.9512 242.845 78.9512 251.918C78.9512 260.991 86.3062 268.346 95.3792 268.346Z" fill="#B9D4DB"/>
<path d="M96.0463 226.98C100.772 226.98 104.603 223.149 104.603 218.423C104.603 213.697 100.772 209.866 96.0463 209.866C91.3204 209.866 87.4893 213.697 87.4893 218.423C87.4893 223.149 91.3204 226.98 96.0463 226.98Z" fill="#B9D4DB"/>
<path d="M153.04 230.829C157.13 230.829 160.446 227.513 160.446 223.423C160.446 219.333 157.13 216.017 153.04 216.017C148.95 216.017 145.634 219.333 145.634 223.423C145.634 227.513 148.95 230.829 153.04 230.829Z" fill="#B9D4DB"/>
<path d="M126.096 221.162C128.822 221.162 131.032 218.952 131.032 216.226C131.032 213.5 128.822 211.29 126.096 211.29C123.37 211.29 121.16 213.5 121.16 216.226C121.16 218.952 123.37 221.162 126.096 221.162Z" fill="#B9D4DB"/>
<path d="M131.833 255.001C138.368 255.001 143.666 249.703 143.666 243.168C143.666 236.633 138.368 231.335 131.833 231.335C125.298 231.335 120 236.633 120 243.168C120 249.703 125.298 255.001 131.833 255.001Z" fill="#B9D4DB"/>
<path d="M490.923 390.3C499.996 390.3 507.351 382.945 507.351 373.872C507.351 364.799 499.996 357.444 490.923 357.444C481.85 357.444 474.495 364.799 474.495 373.872C474.495 382.945 481.85 390.3 490.923 390.3Z" fill="#B9D4DB"/>
<path d="M456.151 390.525C460.877 390.525 464.708 386.694 464.708 381.968C464.708 377.242 460.877 373.411 456.151 373.411C451.425 373.411 447.594 377.242 447.594 381.968C447.594 386.694 451.425 390.525 456.151 390.525Z" fill="#B9D4DB"/>
<path d="M456.151 359.162C462.687 359.162 467.984 353.864 467.984 347.329C467.984 340.794 462.687 335.496 456.151 335.496C449.616 335.496 444.318 340.794 444.318 347.329C444.318 353.864 449.616 359.162 456.151 359.162Z" fill="#B9D4DB"/>
<path d="M492.263 98.954C501.336 98.954 508.691 91.599 508.691 82.526C508.691 73.4531 501.336 66.098 492.263 66.098C483.19 66.098 475.835 73.4531 475.835 82.526C475.835 91.599 483.19 98.954 492.263 98.954Z" fill="#B9D4DB"/>
<path d="M459.676 106.36C463.766 106.36 467.082 103.044 467.082 98.954C467.082 94.8637 463.766 91.548 459.676 91.548C455.585 91.548 452.27 94.8637 452.27 98.954C452.27 103.044 455.585 106.36 459.676 106.36Z" fill="#B9D4DB"/>
<path d="M450.597 82.526C457.132 82.526 462.43 77.2282 462.43 70.693C462.43 64.1578 457.132 58.86 450.597 58.86C444.061 58.86 438.764 64.1578 438.764 70.693C438.764 77.2282 444.061 82.526 450.597 82.526Z" fill="#B9D4DB"/>
</g>
<defs>
<clipPath id="clip0_573_9980">
<rect width="568" height="408" fill="white"/>
</clipPath>
</defs>
</svg>
