<svg width="300" height="228" viewBox="0 0 300 228" fill="none" xmlns="http://www.w3.org/2000/svg">
<path d="M277.345 114.537C277.194 110.119 276.924 105.701 276.533 101.253C274.249 76.6083 267.727 51.9034 255.074 31.0454C254.142 29.5126 253.181 27.9798 252.159 26.5072C243.593 13.794 231.181 3.45522 216.754 0.720243C204.763 -1.53386 192.53 1.71205 181.831 7.54266C171.071 13.4033 162.896 22.2995 153.099 29.5727C126.2 49.5591 89.3525 49.9198 63.5356 71.499C38.1995 92.6575 29.2432 132.27 39.8525 164.729C50.1011 196.466 71.4099 218.166 99.5711 227.813H187.872C245.156 213.477 262.558 176.029 268.509 161.212C274.369 146.666 277.856 130.256 277.345 114.537Z" fill="#CCE9FF"/>
<path d="M136.959 31.5263C137.56 26.6875 141.708 22.9307 146.697 22.9307C147.388 22.9307 148.079 22.9908 148.741 23.1411C149.612 15.3569 156.194 9.31592 164.219 9.31592C172.364 9.31592 179.036 15.5673 179.727 23.5318C180.448 23.3815 181.23 23.3214 181.981 23.3214C184.626 23.3214 187.06 24.193 189.014 25.6657C190.968 22.1793 194.694 19.805 198.992 19.805C205.304 19.805 210.413 24.9143 210.413 31.2258C210.413 31.316 210.413 31.4061 210.413 31.5263H136.959Z" fill="#0B4870" stroke="white" stroke-width="0.5" stroke-miterlimit="10"/>
<path d="M157.066 37.3269C157.667 32.4881 161.814 28.7312 166.803 28.7312C167.495 28.7312 168.186 28.7913 168.847 28.9416C169.719 21.1574 176.301 15.1165 184.325 15.1165C192.47 15.1165 199.142 21.3678 199.834 29.3323C200.555 29.1821 201.336 29.1219 202.088 29.1219C204.732 29.1219 207.167 29.9935 209.12 31.4662C211.074 27.9799 214.801 25.6055 219.099 25.6055C225.41 25.6055 230.519 30.7148 230.519 37.0263C230.519 37.1165 230.519 37.2067 230.519 37.3269H157.066ZM62.1831 203.079C62.7842 198.3 66.8416 194.633 71.7706 194.633C72.4618 194.633 73.123 194.693 73.7842 194.844C74.6257 187.18 81.1176 181.229 89.0219 181.229C97.0465 181.229 103.629 187.39 104.29 195.234C105.011 195.084 105.762 195.024 106.514 195.024C109.129 195.024 111.503 195.895 113.456 197.338C115.38 193.912 119.047 191.568 123.284 191.568C129.506 191.568 134.525 196.617 134.525 202.808C134.525 202.898 134.525 202.988 134.525 203.109H62.1831V203.079Z" fill="#2A94F4"/>
<path d="M36.246 209.27C36.8471 204.521 40.9044 200.824 45.8334 200.824C46.5247 200.824 47.1859 200.884 47.817 201.035C48.6586 193.401 55.1504 187.45 63.0247 187.45C71.0193 187.45 77.6012 193.611 78.2624 201.425C78.9838 201.275 79.7351 201.215 80.4865 201.215C83.0712 201.215 85.4756 202.087 87.3991 203.529C89.3226 200.103 92.9892 197.759 97.1969 197.759C103.388 197.759 108.437 202.778 108.437 208.999C108.437 209.089 108.437 209.179 108.437 209.27H36.246Z" fill="#0B4870" stroke="white" stroke-width="0.5" stroke-miterlimit="10"/>
<path d="M81.7487 125.387C81.2979 125.387 67.0219 127.581 52.3853 118.895C37.7487 110.18 20.4372 98.338 13.3743 97.797C6.31148 97.226 0 99.9008 0 99.9008C0 99.9008 33.4809 144.742 33.8416 144.772C34.1722 144.803 62.7542 140.956 64.0165 140.144C65.2788 139.333 79.4045 133.322 79.4045 133.322L81.7487 125.387Z" fill="#FFBE55"/>
<path d="M204.011 104.89C204.011 104.89 161.935 85.805 147.298 90.4335C137.079 93.2286 130.708 94.9717 130.708 94.9717L165.601 115.379L204.011 104.89Z" fill="white"/>
<path d="M212.066 121.029C217.776 118.985 301.629 100.532 299.976 87.4581C298.353 74.3843 270.132 73.2723 237.432 82.1985C204.732 91.1247 110 117.032 80.3361 125.147C50.6722 133.261 14.5164 151.234 14.5164 151.234L15.6885 155.502C15.6885 155.502 77.0902 156.945 103.929 149.611C130.798 142.278 212.066 121.029 212.066 121.029Z" fill="#F7F7F7"/>
<path d="M77.5712 153.759C81.3581 138.701 113.156 119.376 154.571 108.046C200.224 95.5729 240.708 97.3762 246.599 111.893C229.528 116.671 214.38 120.218 212.066 121.029C212.066 121.029 130.798 142.278 103.929 149.611C96.9264 151.535 87.5794 152.857 77.5712 153.759Z" fill="#FFBE55"/>
<path d="M35.1039 147.748L70.8088 136.988C70.8088 136.988 69.9974 146.185 66.3908 154.6C55.7815 155.232 45.1722 155.502 36.4263 155.592L35.1039 147.748Z" fill="#D3D3D3"/>
<path d="M70.8088 136.988C70.8088 136.988 56.1421 161.693 40.8743 163.857C28.8224 164.909 29.3934 163.707 29.3934 163.707L34.653 147.598L70.8088 136.988Z" fill="#FFBE55"/>
<path d="M27.1994 155.622C20.1366 155.622 15.6885 155.502 15.6885 155.502L14.5164 151.234C14.5164 151.234 18.3934 149.311 24.6748 146.425L27.1994 155.622Z" fill="#D3D3D3"/>
<path d="M212.487 124.936C213.238 124.335 210.864 111.802 209.782 110.48C208.7 109.158 197.249 107.835 179.907 118.655C178.375 119.917 177.232 120.819 176.451 121.42C175.73 121.991 175.399 122.953 175.64 123.824L178.254 133.352C178.555 134.434 179.607 135.155 180.749 135.035C186.61 134.313 204.041 131.729 212.487 124.936Z" fill="white"/>
<path d="M176.481 121.39C177.263 120.789 178.405 119.887 179.937 118.625C190.937 111.772 199.563 109.789 204.672 109.608C203.711 112.884 200.555 122.863 195.866 132.179C189.645 133.802 183.724 134.644 180.749 134.975C179.607 135.095 178.555 134.404 178.254 133.291L175.64 123.764C175.429 122.923 175.76 121.961 176.481 121.39Z" fill="#D3D3D3"/>
<path d="M176.09 131.308L181.801 130.917C182.823 130.857 183.514 129.865 183.243 128.873L182.372 125.748C182.101 124.756 180.989 124.275 180.088 124.726L174.948 127.31C174.257 127.641 173.926 128.423 174.107 129.174L174.377 130.136C174.618 130.887 175.309 131.368 176.09 131.308Z" fill="url(#paint0_linear_693_14748)"/>
<path d="M294.596 80.1249L280.32 84.032C279.899 84.1522 279.449 84.0921 279.058 83.8817L276.533 82.4691C275.812 82.0784 275.962 81.0265 276.744 80.7861L288.074 77.6904C290.599 78.2915 292.793 79.103 294.596 80.1249Z" fill="#0B4870" stroke="white" stroke-width="0.5" stroke-miterlimit="10"/>
<path d="M263.97 93.4389C263.49 93.1684 263.129 92.7176 262.979 92.1766L260.574 83.4307C260.424 82.8897 260.484 82.3186 260.785 81.8378C261.055 81.3569 261.506 80.9962 262.047 80.846L267.006 79.4935C267.547 79.3432 268.118 79.4033 268.599 79.7039C269.08 79.9744 269.44 80.4252 269.591 80.9662L271.995 89.7121C272.296 90.8241 271.634 91.9662 270.522 92.2968L265.563 93.6493C265.383 93.7094 265.203 93.7094 265.022 93.7094C264.662 93.7094 264.301 93.6192 263.97 93.4389ZM270.252 91.305C270.823 91.1547 271.153 90.5536 271.003 89.9826L268.599 81.2367C268.509 80.9662 268.358 80.7257 268.088 80.6055C267.847 80.4552 267.547 80.4252 267.276 80.5153L262.317 81.8678C261.746 82.0181 261.416 82.6192 261.566 83.1902L263.97 91.9361C264.061 92.2066 264.211 92.4471 264.481 92.5673C264.722 92.7176 265.022 92.7476 265.293 92.6574L270.252 91.305ZM218.708 105.821C218.227 105.551 217.866 105.1 217.716 104.559L215.312 95.8132C215.162 95.2722 215.222 94.7012 215.522 94.2203C215.793 93.7394 216.244 93.3788 216.785 93.2285L221.744 91.876C222.285 91.7258 222.856 91.7859 223.336 92.0864C223.817 92.3569 224.178 92.8077 224.328 93.3487L226.733 102.095C226.883 102.636 226.823 103.207 226.522 103.688C226.252 104.168 225.801 104.529 225.26 104.679L220.301 106.032C220.121 106.092 219.94 106.092 219.76 106.092C219.369 106.092 219.039 106.002 218.708 105.821ZM224.989 103.657C225.26 103.597 225.5 103.417 225.621 103.147C225.771 102.906 225.801 102.606 225.711 102.335L223.306 93.5891C223.216 93.3186 223.066 93.0782 222.795 92.958C222.555 92.8077 222.254 92.7777 221.984 92.8678L217.025 94.2203C216.454 94.3706 216.123 94.9717 216.274 95.5427L218.678 104.289C218.768 104.559 218.918 104.8 219.189 104.92C219.429 105.07 219.73 105.1 220 105.01L224.989 103.657Z" fill="#D3D3D3"/>
<path d="M132.09 129.505C131.61 129.234 131.249 128.783 131.099 128.242L128.694 119.496C128.394 118.384 129.055 117.242 130.167 116.912L135.126 115.559C135.667 115.409 136.238 115.469 136.719 115.77C137.2 116.04 137.56 116.491 137.711 117.032L140.115 125.778C140.265 126.319 140.205 126.89 139.905 127.371C139.634 127.852 139.183 128.212 138.642 128.363L133.683 129.715C133.503 129.775 133.323 129.775 133.142 129.775C132.782 129.775 132.421 129.685 132.09 129.505ZM138.372 127.341C138.642 127.251 138.883 127.1 139.003 126.83C139.153 126.589 139.183 126.289 139.093 126.018L136.689 117.272C136.629 117.002 136.448 116.761 136.178 116.641C135.937 116.491 135.637 116.461 135.366 116.551L130.407 117.904C129.836 118.054 129.506 118.655 129.656 119.226L132.06 127.972C132.12 128.242 132.301 128.483 132.571 128.603C132.812 128.753 133.112 128.783 133.383 128.693L138.372 127.341ZM256.246 89.9828C256.787 89.8325 257.118 89.2614 256.968 88.7205L256.607 87.368C256.457 86.827 255.886 86.4964 255.345 86.6467C254.804 86.797 254.473 87.368 254.623 87.909L254.984 89.2614C255.134 89.8024 255.675 90.133 256.246 89.9828ZM252.88 90.9144C253.421 90.7642 253.752 90.1931 253.602 89.6521L253.241 88.2997C253.091 87.7587 252.52 87.4281 251.979 87.5784C251.438 87.7286 251.107 88.2997 251.257 88.8407L251.618 90.1931C251.738 90.7341 252.309 91.0647 252.88 90.9144Z" fill="white"/>
<path d="M252.88 90.9144C253.421 90.7641 253.752 90.1931 253.602 89.6521L253.241 88.2996C253.091 87.7586 252.52 87.428 251.979 87.5783C251.438 87.7286 251.107 88.2996 251.257 88.8406L251.618 90.1931C251.738 90.7341 252.309 91.0647 252.88 90.9144ZM249.484 91.816C250.025 91.6658 250.356 91.0947 250.205 90.5537L249.845 89.2013C249.694 88.6603 249.123 88.3297 248.582 88.48C248.041 88.6302 247.711 89.2013 247.861 89.7423L248.222 91.0947C248.372 91.6658 248.943 91.9663 249.484 91.816ZM246.118 92.7477C246.659 92.5975 246.989 92.0264 246.839 91.4854L246.479 90.133C246.328 89.592 245.757 89.2614 245.216 89.4117C244.675 89.5619 244.345 90.133 244.495 90.674L244.856 92.0264C245.006 92.5674 245.577 92.898 246.118 92.7477ZM242.752 93.6794C243.293 93.5291 243.623 92.9581 243.473 92.4171L243.112 91.0647C242.962 90.5237 242.391 90.1931 241.85 90.3434C241.309 90.4936 240.979 91.0647 241.129 91.6056L241.489 92.9581C241.64 93.4991 242.211 93.8297 242.752 93.6794ZM239.386 94.5811C239.927 94.4308 240.257 93.8597 240.107 93.3188L239.746 91.9663C239.596 91.4253 239.025 91.0947 238.484 91.245C237.943 91.3953 237.612 91.9663 237.763 92.5073L238.123 93.8597C238.274 94.4308 238.845 94.7313 239.386 94.5811ZM236.02 95.5128C236.56 95.3625 236.891 94.7914 236.741 94.2505L236.38 92.898C236.23 92.357 235.659 92.0264 235.118 92.1767C234.577 92.327 234.246 92.898 234.397 93.439L234.757 94.7914C234.907 95.3324 235.479 95.663 236.02 95.5128ZM232.653 96.4444C233.194 96.2942 233.525 95.7231 233.375 95.1822L233.014 93.8297C232.864 93.2887 232.293 92.9581 231.752 93.1084C231.211 93.2587 230.88 93.8297 231.03 94.3707L231.391 95.7231C231.541 96.2641 232.112 96.5947 232.653 96.4444ZM212.968 101.824C213.509 101.674 213.839 101.103 213.689 100.562L213.328 99.2095C213.178 98.6685 212.607 98.3379 212.066 98.4882C211.525 98.6384 211.194 99.2095 211.345 99.7505L211.705 101.103C211.856 101.644 212.427 101.975 212.968 101.824ZM209.601 102.726C210.142 102.576 210.473 102.005 210.323 101.464L209.962 100.111C209.812 99.5701 209.241 99.2395 208.7 99.3898C208.159 99.5401 207.828 100.111 207.978 100.652L208.339 102.005C208.489 102.576 209.03 102.876 209.601 102.726Z" fill="white"/>
<path d="M209.601 102.726C210.142 102.576 210.473 102.005 210.323 101.464L209.962 100.111C209.812 99.5702 209.241 99.2396 208.7 99.3898C208.159 99.5401 207.828 100.111 207.978 100.652L208.339 102.005C208.489 102.576 209.03 102.876 209.601 102.726ZM206.235 103.658C206.776 103.507 207.107 102.936 206.957 102.395L206.596 101.043C206.446 100.502 205.875 100.171 205.334 100.322C204.793 100.472 204.462 101.043 204.612 101.584L204.973 102.936C205.093 103.477 205.664 103.808 206.235 103.658ZM202.839 104.589C203.38 104.439 203.711 103.868 203.56 103.327L203.2 101.975C203.049 101.434 202.478 101.103 201.937 101.253C201.396 101.403 201.066 101.975 201.216 102.516L201.577 103.868C201.727 104.409 202.298 104.74 202.839 104.589ZM199.473 105.491C200.014 105.341 200.345 104.77 200.194 104.229L199.834 102.876C199.683 102.335 199.112 102.005 198.571 102.155C198.03 102.305 197.7 102.876 197.85 103.417L198.211 104.77C198.361 105.341 198.932 105.641 199.473 105.491ZM196.107 106.423C196.648 106.272 196.978 105.701 196.828 105.16L196.468 103.808C196.317 103.267 195.746 102.936 195.205 103.087C194.664 103.237 194.334 103.808 194.484 104.349L194.845 105.701C194.995 106.242 195.566 106.573 196.107 106.423ZM192.741 107.354C193.282 107.204 193.612 106.633 193.462 106.092L193.101 104.74C192.951 104.199 192.38 103.868 191.839 104.018C191.298 104.169 190.968 104.74 191.118 105.281L191.478 106.633C191.629 107.174 192.2 107.505 192.741 107.354ZM189.375 108.256C189.916 108.106 190.246 107.535 190.096 106.994L189.735 105.641C189.585 105.1 189.014 104.77 188.473 104.92C187.932 105.07 187.601 105.641 187.752 106.182L188.112 107.535C188.263 108.106 188.834 108.406 189.375 108.256Z" fill="white"/>
<path d="M189.345 108.256C189.886 108.106 190.216 107.535 190.066 106.994L189.705 105.641C189.555 105.1 188.984 104.77 188.443 104.92C187.902 105.07 187.571 105.641 187.722 106.182L188.082 107.535C188.233 108.106 188.804 108.406 189.345 108.256ZM185.978 109.188C186.519 109.037 186.85 108.466 186.7 107.925L186.339 106.573C186.189 106.032 185.618 105.701 185.077 105.852C184.536 106.002 184.205 106.573 184.355 107.114L184.716 108.466C184.866 109.007 185.437 109.338 185.978 109.188Z" fill="white"/>
<path d="M185.978 109.188C186.519 109.037 186.85 108.466 186.7 107.925L186.339 106.573C186.189 106.032 185.618 105.701 185.077 105.852C184.536 106.002 184.205 106.573 184.355 107.114L184.716 108.466C184.866 109.007 185.437 109.338 185.978 109.188ZM182.612 110.119C183.153 109.969 183.484 109.398 183.334 108.857L182.973 107.505C182.823 106.964 182.252 106.633 181.711 106.783C181.17 106.934 180.839 107.505 180.989 108.046L181.35 109.398C181.5 109.939 182.071 110.27 182.612 110.119ZM179.246 111.021C179.787 110.871 180.118 110.3 179.967 109.759L179.607 108.406C179.457 107.865 178.885 107.535 178.344 107.685C177.804 107.835 177.473 108.406 177.623 108.947L177.984 110.3C178.134 110.871 178.705 111.171 179.246 111.021ZM175.88 111.953C176.421 111.802 176.752 111.231 176.601 110.69L176.241 109.338C176.09 108.797 175.519 108.466 174.978 108.617C174.437 108.767 174.107 109.338 174.257 109.879L174.618 111.231C174.768 111.772 175.309 112.103 175.88 111.953ZM172.514 112.884C173.055 112.734 173.385 112.163 173.235 111.622L172.875 110.27C172.724 109.729 172.153 109.398 171.612 109.548C171.071 109.699 170.741 110.27 170.891 110.811L171.252 112.163C171.372 112.704 171.943 113.035 172.514 112.884ZM169.118 113.786C169.659 113.636 169.989 113.065 169.839 112.524L169.478 111.171C169.328 110.63 168.757 110.3 168.216 110.45C167.675 110.6 167.344 111.171 167.495 111.712L167.855 113.065C168.006 113.636 168.577 113.936 169.118 113.786ZM165.752 114.718C166.293 114.567 166.623 113.996 166.473 113.455L166.112 112.103C165.962 111.562 165.391 111.231 164.85 111.382C164.309 111.532 163.978 112.103 164.129 112.644L164.489 113.996C164.64 114.537 165.211 114.868 165.752 114.718ZM189.345 108.256C189.886 108.106 190.216 107.535 190.066 106.994L189.705 105.641C189.555 105.1 188.984 104.77 188.443 104.92C187.902 105.07 187.571 105.641 187.722 106.182L188.082 107.535C188.233 108.106 188.804 108.406 189.345 108.256Z" fill="white"/>
<path d="M185.978 109.188C186.519 109.037 186.85 108.466 186.7 107.925L186.339 106.573C186.189 106.032 185.618 105.701 185.077 105.852C184.536 106.002 184.205 106.573 184.355 107.114L184.716 108.466C184.866 109.007 185.437 109.338 185.978 109.188Z" fill="white"/>
<path d="M185.978 109.188C186.519 109.037 186.85 108.466 186.7 107.925L186.339 106.573C186.189 106.032 185.618 105.701 185.077 105.852C184.536 106.002 184.205 106.573 184.355 107.114L184.716 108.466C184.866 109.007 185.437 109.338 185.978 109.188ZM182.612 110.119C183.153 109.969 183.484 109.398 183.334 108.857L182.973 107.505C182.823 106.964 182.252 106.633 181.711 106.783C181.17 106.933 180.839 107.505 180.989 108.046L181.35 109.398C181.5 109.939 182.071 110.27 182.612 110.119ZM179.246 111.021C179.787 110.871 180.118 110.3 179.967 109.759L179.607 108.406C179.456 107.865 178.885 107.535 178.344 107.685C177.803 107.835 177.473 108.406 177.623 108.947L177.984 110.3C178.134 110.871 178.705 111.171 179.246 111.021ZM175.88 111.953C176.421 111.802 176.752 111.231 176.601 110.69L176.241 109.338C176.09 108.797 175.519 108.466 174.978 108.617C174.437 108.767 174.107 109.338 174.257 109.879L174.618 111.231C174.768 111.772 175.309 112.103 175.88 111.953ZM172.514 112.884C173.055 112.734 173.385 112.163 173.235 111.622L172.875 110.27C172.724 109.729 172.153 109.398 171.612 109.548C171.071 109.699 170.741 110.27 170.891 110.811L171.252 112.163C171.372 112.704 171.943 113.035 172.514 112.884ZM169.118 113.786C169.659 113.636 169.989 113.065 169.839 112.524L169.478 111.171C169.328 110.63 168.757 110.3 168.216 110.45C167.675 110.6 167.344 111.171 167.495 111.712L167.855 113.065C168.006 113.636 168.577 113.936 169.118 113.786ZM165.752 114.718C166.293 114.567 166.623 113.996 166.473 113.455L166.112 112.103C165.962 111.562 165.391 111.231 164.85 111.382C164.309 111.532 163.978 112.103 164.129 112.644L164.489 113.996C164.64 114.537 165.211 114.868 165.752 114.718Z" fill="white"/>
<path d="M165.752 114.718C166.293 114.567 166.623 113.996 166.473 113.455L166.082 112.103C165.932 111.562 165.361 111.231 164.82 111.382C164.279 111.532 163.948 112.103 164.099 112.644L164.459 113.996C164.61 114.537 165.181 114.868 165.752 114.718ZM162.355 115.649C162.896 115.499 163.227 114.928 163.077 114.387L162.716 113.035C162.566 112.494 161.995 112.163 161.454 112.313C160.913 112.464 160.582 113.035 160.732 113.576L161.093 114.928C161.243 115.469 161.814 115.8 162.355 115.649Z" fill="white"/>
<path d="M162.355 115.649C162.896 115.499 163.227 114.928 163.077 114.387L162.716 113.035C162.566 112.494 161.995 112.163 161.454 112.313C160.913 112.464 160.582 113.035 160.732 113.576L161.093 114.928C161.243 115.469 161.814 115.8 162.355 115.649ZM158.989 116.581C159.53 116.431 159.861 115.86 159.711 115.319L159.35 113.966C159.2 113.425 158.629 113.095 158.088 113.245C157.547 113.395 157.216 113.966 157.366 114.507L157.727 115.86C157.877 116.401 158.448 116.731 158.989 116.581ZM155.623 117.483C156.164 117.333 156.495 116.762 156.344 116.221L155.984 114.868C155.833 114.327 155.262 113.996 154.721 114.147C154.18 114.297 153.85 114.868 154 115.409L154.361 116.762C154.511 117.302 155.082 117.633 155.623 117.483ZM152.257 118.415C152.798 118.264 153.129 117.693 152.978 117.152L152.618 115.8C152.467 115.259 151.896 114.928 151.355 115.078C150.814 115.229 150.484 115.8 150.634 116.341L150.995 117.693C151.145 118.234 151.716 118.565 152.257 118.415ZM148.891 119.316C149.432 119.166 149.762 118.595 149.612 118.054L149.252 116.701C149.101 116.16 148.53 115.83 147.989 115.98C147.448 116.13 147.118 116.701 147.268 117.242L147.629 118.595C147.779 119.166 148.35 119.466 148.891 119.316ZM145.525 120.248C146.066 120.098 146.396 119.527 146.246 118.986L145.885 117.633C145.735 117.092 145.164 116.762 144.623 116.912C144.082 117.062 143.752 117.633 143.902 118.174L144.262 119.527C144.413 120.068 144.984 120.398 145.525 120.248ZM142.159 121.18C142.7 121.029 143.03 120.458 142.88 119.917L142.519 118.565C142.369 118.024 141.798 117.693 141.257 117.843C140.716 117.994 140.385 118.565 140.536 119.106L140.896 120.458C141.047 120.999 141.588 121.33 142.159 121.18ZM126.35 125.507C126.891 125.357 127.221 124.786 127.071 124.245L126.711 122.893C126.56 122.352 125.989 122.021 125.448 122.171C124.907 122.322 124.577 122.893 124.727 123.434L125.088 124.786C125.238 125.327 125.809 125.658 126.35 125.507ZM122.984 126.409C123.525 126.259 123.855 125.688 123.705 125.147L123.344 123.794C123.194 123.253 122.623 122.923 122.082 123.073C121.541 123.223 121.211 123.794 121.361 124.335L121.721 125.688C121.872 126.229 122.413 126.559 122.984 126.409Z" fill="white"/>
<path d="M122.984 126.409C123.525 126.259 123.855 125.688 123.705 125.147L123.344 123.794C123.194 123.253 122.623 122.923 122.082 123.073C121.541 123.223 121.211 123.794 121.361 124.335L121.721 125.688C121.872 126.229 122.413 126.559 122.984 126.409ZM119.618 127.341C120.159 127.19 120.489 126.619 120.339 126.078L119.978 124.726C119.828 124.185 119.257 123.854 118.716 124.005C118.175 124.155 117.844 124.726 117.995 125.267L118.355 126.619C118.476 127.16 119.047 127.491 119.618 127.341ZM116.221 128.272C116.762 128.122 117.093 127.551 116.943 127.01L116.582 125.658C116.432 125.117 115.861 124.786 115.32 124.936C114.779 125.087 114.448 125.658 114.598 126.199L114.959 127.551C115.109 128.092 115.68 128.423 116.221 128.272ZM112.855 129.174C113.396 129.024 113.727 128.453 113.577 127.912L113.216 126.559C113.066 126.018 112.495 125.688 111.954 125.838C111.413 125.988 111.082 126.559 111.232 127.1L111.593 128.453C111.743 128.994 112.314 129.324 112.855 129.174ZM109.489 130.106C110.03 129.955 110.361 129.384 110.21 128.843L109.85 127.491C109.7 126.95 109.129 126.619 108.588 126.77C108.047 126.92 107.716 127.491 107.866 128.032L108.227 129.384C108.377 129.925 108.948 130.256 109.489 130.106ZM106.123 131.007C106.664 130.857 106.995 130.286 106.844 129.745L106.484 128.393C106.333 127.852 105.762 127.521 105.221 127.671C104.68 127.822 104.35 128.393 104.5 128.934L104.861 130.286C105.011 130.857 105.582 131.158 106.123 131.007ZM102.757 131.939C103.298 131.789 103.629 131.218 103.478 130.677L103.118 129.324C102.967 128.783 102.396 128.453 101.855 128.603C101.314 128.753 100.984 129.324 101.134 129.865L101.495 131.218C101.645 131.759 102.216 132.089 102.757 131.939Z" fill="white"/>
<path d="M102.727 131.939C103.268 131.789 103.599 131.218 103.448 130.677L103.088 129.324C102.937 128.783 102.366 128.453 101.825 128.603C101.284 128.753 100.954 129.324 101.104 129.865L101.465 131.218C101.615 131.789 102.186 132.089 102.727 131.939ZM99.3608 132.871C99.9018 132.72 100.232 132.149 100.082 131.608L99.7215 130.256C99.5712 129.715 99.0002 129.384 98.4592 129.535C97.9182 129.685 97.5876 130.256 97.7379 130.797L98.0985 132.149C98.2488 132.69 98.8198 133.021 99.3608 132.871Z" fill="white"/>
<path d="M99.3608 132.871C99.9018 132.72 100.232 132.149 100.082 131.608L99.7215 130.256C99.5712 129.715 99.0002 129.384 98.4592 129.535C97.9182 129.685 97.5876 130.256 97.7379 130.797L98.0985 132.149C98.2488 132.69 98.8199 133.021 99.3608 132.871ZM95.9947 133.802C96.5357 133.652 96.8663 133.081 96.716 132.54L96.3554 131.188C96.2051 130.647 95.6341 130.316 95.0931 130.466C94.5521 130.617 94.2215 131.188 94.3718 131.729L94.7324 133.081C94.8827 133.622 95.4537 133.953 95.9947 133.802ZM92.6286 134.704C93.1696 134.554 93.5002 133.983 93.3499 133.442L92.9892 132.089C92.839 131.548 92.2679 131.218 91.727 131.368C91.186 131.518 90.8554 132.089 91.0056 132.63L91.3663 133.983C91.5166 134.554 92.0876 134.854 92.6286 134.704ZM89.2625 135.636C89.8035 135.485 90.1341 134.914 89.9838 134.373L89.6231 133.021C89.4729 132.48 88.9018 132.149 88.3608 132.3C87.8198 132.45 87.4892 133.021 87.6395 133.562L88.0002 134.914C88.1504 135.455 88.6914 135.786 89.2625 135.636ZM85.8963 136.567C86.4373 136.417 86.7679 135.846 86.6177 135.305L86.257 133.953C86.1067 133.412 85.5357 133.081 84.9947 133.231C84.4537 133.382 84.1231 133.953 84.2734 134.494L84.634 135.846C84.7543 136.387 85.3253 136.718 85.8963 136.567ZM102.727 131.939C103.268 131.789 103.599 131.218 103.448 130.677L103.088 129.324C102.937 128.783 102.366 128.453 101.825 128.603C101.284 128.753 100.954 129.324 101.104 129.865L101.465 131.218C101.615 131.789 102.186 132.089 102.727 131.939Z" fill="white"/>
<path d="M99.3608 132.871C99.9018 132.72 100.232 132.149 100.082 131.608L99.7215 130.256C99.5712 129.715 99.0002 129.384 98.4592 129.535C97.9182 129.685 97.5876 130.256 97.7379 130.797L98.0985 132.149C98.2488 132.69 98.8198 133.021 99.3608 132.871Z" fill="white"/>
<path d="M99.3608 132.871C99.9018 132.72 100.232 132.149 100.082 131.608L99.7215 130.256C99.5712 129.715 99.0002 129.384 98.4592 129.535C97.9182 129.685 97.5876 130.256 97.7379 130.797L98.0985 132.149C98.2488 132.69 98.8199 133.021 99.3608 132.871ZM95.9947 133.802C96.5357 133.652 96.8663 133.081 96.716 132.54L96.3554 131.188C96.2051 130.647 95.6341 130.316 95.0931 130.466C94.5521 130.617 94.2215 131.188 94.3718 131.729L94.7324 133.081C94.8827 133.622 95.4537 133.953 95.9947 133.802ZM92.6286 134.704C93.1696 134.554 93.5002 133.983 93.3499 133.442L92.9892 132.089C92.839 131.548 92.2679 131.218 91.727 131.368C91.186 131.518 90.8554 132.089 91.0056 132.63L91.3663 133.983C91.5166 134.554 92.0876 134.854 92.6286 134.704ZM89.2625 135.636C89.8035 135.485 90.1341 134.914 89.9838 134.373L89.6231 133.021C89.4729 132.48 88.9018 132.149 88.3608 132.3C87.8198 132.45 87.4892 133.021 87.6395 133.562L88.0002 134.914C88.1504 135.455 88.6914 135.786 89.2625 135.636ZM85.8963 136.567C86.4373 136.417 86.7679 135.846 86.6177 135.305L86.257 133.953C86.1067 133.412 85.5357 133.081 84.9947 133.231C84.4537 133.382 84.1231 133.953 84.2734 134.494L84.634 135.846C84.7543 136.387 85.3253 136.718 85.8963 136.567Z" fill="white"/>
<path d="M75.828 144.862C75.3472 144.592 74.9865 144.141 74.8362 143.6L72.4318 134.854C72.2816 134.313 72.3417 133.742 72.6422 133.261C72.9127 132.78 73.3635 132.42 73.9045 132.27L78.8635 130.917C79.4045 130.767 79.9756 130.827 80.4564 131.127C80.9373 131.398 81.298 131.849 81.4482 132.39L83.8526 141.136C84.0029 141.677 83.9428 142.248 83.6422 142.729C83.3718 143.209 82.9209 143.57 82.3799 143.72L77.4209 145.073C77.2406 145.133 77.0603 145.133 76.8799 145.133C76.4892 145.133 76.1586 145.043 75.828 144.862ZM82.1095 142.729C82.6805 142.578 83.0111 141.977 82.8608 141.406L80.4564 132.66C80.3663 132.39 80.216 132.149 79.9455 132.029C79.7051 131.879 79.4045 131.849 79.134 131.939L74.175 133.291C73.604 133.442 73.2734 134.043 73.4237 134.614L75.828 143.36C75.9182 143.63 76.0685 143.871 76.339 143.991C76.5794 144.141 76.8799 144.171 77.1504 144.081L82.1095 142.729Z" fill="#CDD5D7"/>
<path d="M205.003 108.496C205.003 108.496 178.465 146.335 163.528 149.791C153.309 152.587 146.937 154.33 146.937 154.33L166.563 119.015L205.003 108.496Z" fill="white"/>
<path d="M259.252 128.333L220.631 138.401" stroke="#2A94F4" stroke-width="3" stroke-miterlimit="10"/>
<path d="M249.935 136.447L218.227 144.712" stroke="#2A94F4" stroke-width="3" stroke-miterlimit="10"/>
<path d="M266.164 121.42L234.457 129.685" stroke="#2A94F4" stroke-width="3" stroke-miterlimit="10"/>
<path d="M217.175 139.152L209.812 141.106" stroke="#2A94F4" stroke-width="3" stroke-miterlimit="10"/>
<path d="M129.115 75.7368L90.4948 85.8051" stroke="#2A94F4" stroke-width="3" stroke-miterlimit="10"/>
<path d="M119.798 83.8516L88.0903 92.1166" stroke="#2A94F4" stroke-width="3" stroke-miterlimit="10"/>
<path d="M136.028 68.8242L104.32 77.0893" stroke="#2A94F4" stroke-width="3" stroke-miterlimit="10"/>
<path d="M87.0384 86.5564L79.675 88.5099" stroke="#2A94F4" stroke-width="3" stroke-miterlimit="10"/>
<defs>
<linearGradient id="paint0_linear_693_14748" x1="182.805" y1="127.335" x2="174.274" y2="129.668" gradientUnits="userSpaceOnUse">
<stop stop-color="white"/>
<stop offset="1" stop-color="#D1DAFF"/>
</linearGradient>
</defs>
</svg>
