<svg width="56" height="57" viewBox="0 0 56 57" fill="none" xmlns="http://www.w3.org/2000/svg">
<path d="M28 49.1646C39.598 49.1646 49 39.7453 49 28.1259C49 16.5065 39.598 7.08716 28 7.08716C16.402 7.08716 7 16.5065 7 28.1259C7 39.7453 16.402 49.1646 28 49.1646Z" fill="white"/>
<path d="M28 28.1259V7.08716C32.1503 7.08717 36.2075 8.31923 39.6594 10.6278C43.1112 12.9363 45.8028 16.2178 47.3944 20.0578C48.986 23.8979 49.4061 28.1243 48.6018 32.2034C47.7974 36.2825 45.8046 40.0314 42.875 42.9766L28 28.1259Z" fill="white"/>
<path d="M41.9458 12.4006C45.4836 16.4139 47.361 21.6275 47.1955 26.9792C47.03 32.331 44.8339 37.4181 41.0548 41.2042C37.2757 44.9903 32.1979 47.1904 26.856 47.3562C21.5141 47.5221 16.3101 45.6412 12.3043 42.0968C14.2023 44.2499 16.5203 45.9908 19.1155 47.2121C21.7107 48.4335 24.5281 49.1095 27.394 49.1985C30.2599 49.2875 33.1136 48.7875 35.7793 47.7295C38.445 46.6714 40.8662 45.0777 42.8937 43.0465C44.9212 41.0153 46.512 38.5896 47.5681 35.919C48.6242 33.2484 49.1232 30.3894 49.0344 27.5182C48.9456 24.647 48.2708 21.8245 47.0517 19.2245C45.8325 16.6245 44.0949 14.3022 41.9458 12.4006V12.4006Z" fill="#F8F8F8"/>
<path d="M7.875 37.7686H2.625V53.5476H7.875V37.7686Z" fill="#FFB142"/>
<path d="M16.625 35.1387H11.375V49.1645H16.625V35.1387Z" fill="#FFB142"/>
<path d="M25.375 30.7556H20.125V41.275H25.375V30.7556Z" fill="#FFB142"/>
<path d="M28 28.1259V2.7041C34.7299 2.7041 41.1841 5.38246 45.9428 10.15C50.7016 14.9175 53.375 21.3836 53.375 28.1259H28Z" fill="#3867D6"/>
<path d="M28 28.1258H21.875C21.875 26.4984 22.5203 24.9376 23.669 23.7868C24.8176 22.636 26.3755 21.9895 28 21.9895V28.1258Z" fill="white"/>
<path d="M28 1.82739C27.7679 1.82739 27.5454 1.91975 27.3813 2.08415C27.2172 2.24854 27.125 2.47151 27.125 2.70401V6.23238C23.0221 6.3926 19.0472 7.70759 15.6559 10.0267C12.2645 12.3457 9.5939 15.5751 7.95004 19.3446C6.30618 23.1142 5.75557 27.2715 6.36132 31.3401C6.96707 35.4087 8.70467 39.224 11.375 42.3489V39.4727C9.35385 36.5057 8.16121 33.0513 7.9206 29.4672C7.68 25.8832 8.40018 22.2999 10.0066 19.0885C11.6129 15.877 14.0471 13.1542 17.0569 11.2021C20.0667 9.24994 23.5428 8.13944 27.125 7.98561V28.1258C27.1247 28.2412 27.1473 28.3554 27.1915 28.462C27.2357 28.5685 27.3005 28.6652 27.3823 28.7465V28.7465L41.6159 42.9572C38.27 46.05 33.9741 47.9117 29.4332 48.2368C24.8923 48.5619 20.3759 47.3311 16.625 44.7464V46.838C19.877 48.825 23.5907 49.9263 27.3983 50.0328C31.2059 50.1392 34.9752 49.2472 38.3328 47.445C41.6903 45.6428 44.5196 42.993 46.5403 39.7581C48.561 36.5232 49.703 32.8156 49.8531 29.0024H53.375C53.6071 29.0024 53.8296 28.9101 53.9937 28.7457C54.1578 28.5813 54.25 28.3583 54.25 28.1258C54.2421 21.1535 51.474 14.4689 46.5529 9.53873C41.6317 4.60853 34.9595 1.83528 28 1.82739V1.82739ZM42.8523 41.7133L30.1175 29.0024H48.1031C47.9009 33.7265 46.0414 38.2277 42.8523 41.7133ZM28.875 27.2492V3.5964C35.0637 3.82522 40.937 6.39065 45.3161 10.7778C49.6951 15.1649 52.2559 21.0491 52.4843 27.2492H28.875Z" fill="#FFB142"/>
</svg>
