<svg width="651" height="592" viewBox="0 0 651 592" fill="none" xmlns="http://www.w3.org/2000/svg">
<g clip-path="url(#clip0_531_8574)">
<path d="M354.428 7.10603C269.802 17.113 278.006 123.254 250.718 183.008H250.716C234.716 218.042 206.878 265.277 150.373 286.099C95.527 306.309 61.908 320.665 40.368 337.19C-56.449 411.481 31.101 653.479 196.511 555.62C302.889 492.682 306.134 467.202 392.922 511.61C479.712 556.021 555.458 578.652 598.608 505.61C641.757 432.568 650.352 332.655 590.653 252.679C530.956 172.705 495.093 221.7 473.063 157.114C460.841 121.286 456.322 87.056 441.802 59.614C426.315 30.351 391.808 6.72303 361.099 6.72103C358.849 6.71903 356.626 6.84603 354.428 7.10603Z" fill="#CCE9FF"/>
<path d="M226.204 191.151C222.616 191.151 219.707 188.242 219.707 184.654V6.09502C219.707 2.50702 222.616 -0.401978 226.204 -0.401978H394.11H449.224C452.812 -0.401978 455.721 2.50702 455.721 6.09502V184.654C455.721 188.242 452.812 191.151 449.224 191.151H226.204Z" fill="#2B94F4"/>
<path d="M429.355 174.785H246.073C246.073 169.262 241.596 164.785 236.073 164.785V25.964C241.596 25.964 246.073 21.487 246.073 15.964H429.356C429.356 21.487 433.833 25.964 439.356 25.964V164.785C433.832 164.785 429.355 169.262 429.355 174.785Z" fill="#CCE9FF"/>
<path d="M376.795 103.565L376.711 165.586L390.351 152.001L403.945 165.631L404.029 103.601L376.795 103.565Z" fill="#2B94F3"/>
<path d="M402.43 120.943L402.375 161.828L390.352 149.772L378.296 161.789L378.352 120.91L379.979 120.913L379.929 157.857L390.355 147.466L400.747 157.892L400.796 120.941L402.43 120.943Z" fill="#CCE9FF"/>
<path d="M365.218 96.013C365.187 97.491 364.56 98.894 363.48 99.903C363.085 100.272 362.697 100.65 362.317 101.036C362.099 101.258 361.883 101.482 361.671 101.71C360.145 103.34 359.667 105.717 360.564 107.762C360.81 108.324 361.075 108.865 361.354 109.385C362.139 110.844 362.14 112.582 361.481 114.102C361.393 114.304 361.308 114.508 361.225 114.713C360.232 117.16 361.097 119.971 363.306 121.419C363.383 121.469 363.46 121.519 363.537 121.569C365.047 122.535 365.986 124.184 366.07 125.974C366.071 125.998 366.072 126.022 366.073 126.046C366.202 128.658 368.17 130.812 370.756 131.206C370.86 131.222 370.964 131.237 371.068 131.252C372.833 131.501 374.366 132.607 375.167 134.2C375.208 134.281 375.249 134.362 375.291 134.444C376.467 136.725 379.056 137.898 381.547 137.278C381.637 137.255 381.728 137.233 381.817 137.209C383.542 136.761 385.384 137.184 386.735 138.347C386.815 138.416 386.896 138.485 386.977 138.553C388.977 140.235 391.891 140.297 393.94 138.674C393.96 138.659 393.979 138.643 393.999 138.627C395.401 137.51 397.26 137.133 398.98 137.634C399.066 137.659 399.153 137.684 399.239 137.708C401.784 138.42 404.474 137.219 405.66 134.857C405.748 134.682 405.834 134.507 405.917 134.331C406.643 132.807 407.978 131.647 409.624 131.271C410.173 131.146 410.727 130.997 411.285 130.824C413.419 130.161 414.898 128.232 415.115 126.008C415.209 125.04 415.266 124.072 415.285 123.106C415.315 121.595 415.958 120.156 417.064 119.126C417.771 118.468 418.455 117.779 419.113 117.063C420.626 115.417 421.076 113.029 420.146 110.997C419.903 110.466 419.644 109.954 419.371 109.461C418.553 107.984 418.527 106.216 419.178 104.658C419.253 104.478 419.327 104.297 419.398 104.115C420.366 101.656 419.466 98.851 417.237 97.43C417.161 97.382 417.085 97.334 417.009 97.286C415.488 96.339 414.529 94.702 414.426 92.913C414.424 92.888 414.423 92.863 414.422 92.838C414.263 90.23 412.274 88.099 409.687 87.732C409.582 87.717 409.477 87.703 409.372 87.689C407.605 87.458 406.061 86.369 405.244 84.784C405.201 84.702 405.158 84.619 405.115 84.537C403.915 82.268 401.314 81.122 398.83 81.768C398.742 81.791 398.654 81.814 398.566 81.838C396.845 82.304 394.999 81.9 393.635 80.751C393.555 80.683 393.474 80.616 393.393 80.549C391.375 78.886 388.457 78.856 386.425 80.503C386.406 80.518 386.388 80.533 386.369 80.549C384.98 81.682 383.125 82.081 381.398 81.601C381.31 81.576 381.221 81.552 381.133 81.529C378.581 80.849 375.91 82.08 374.749 84.452C374.652 84.651 374.557 84.85 374.465 85.05C373.773 86.555 372.477 87.713 370.866 88.102C370.292 88.241 369.713 88.405 369.13 88.596C367.008 89.292 365.557 91.234 365.361 93.458C365.334 93.768 365.31 94.079 365.29 94.389C365.252 94.931 365.23 95.472 365.218 96.013Z" fill="#C68F30"/>
<path d="M402.427 93.5531C403.266 93.3911 403.948 92.8801 404.353 92.2011C403.724 91.7211 402.9 91.5011 402.062 91.6621C401.224 91.8241 400.542 92.3351 400.136 93.0141C400.765 93.4941 401.588 93.7151 402.427 93.5531Z" fill="#FEBF55"/>
<path d="M403.006 90.2671C403.168 91.1051 403.679 91.7871 404.358 92.1931C404.838 91.5641 405.058 90.7401 404.897 89.9021C404.735 89.0631 404.225 88.3811 403.545 87.9761C403.064 88.6051 402.844 89.4281 403.006 90.2671Z" fill="#FEBF55"/>
<path d="M376.694 129.21C376.532 128.372 376.753 127.548 377.233 126.919C377.913 127.325 378.424 128.007 378.585 128.845C378.747 129.683 378.526 130.507 378.046 131.136C377.367 130.731 376.856 130.049 376.694 129.21Z" fill="#FEBF55"/>
<path d="M379.529 127.45C378.691 127.612 377.867 127.392 377.238 126.911C377.644 126.231 378.326 125.72 379.164 125.559C380.003 125.397 380.826 125.617 381.455 126.098C381.05 126.778 380.368 127.288 379.529 127.45Z" fill="#FEBF55"/>
<path d="M405.02 95.804C405.874 95.79 406.634 95.406 407.152 94.807C406.616 94.225 405.843 93.865 404.989 93.879C404.135 93.893 403.375 94.277 402.857 94.876C403.394 95.458 404.167 95.818 405.02 95.804Z" fill="#FEBF55"/>
<path d="M406.162 92.668C406.176 93.522 406.56 94.282 407.159 94.8C407.741 94.264 408.101 93.491 408.087 92.637C408.073 91.783 407.689 91.023 407.09 90.505C406.508 91.042 406.148 91.815 406.162 92.668Z" fill="#FEBF55"/>
<path d="M373.503 126.475C373.489 125.621 373.849 124.849 374.431 124.312C375.03 124.829 375.415 125.59 375.428 126.444C375.442 127.298 375.082 128.07 374.5 128.607C373.902 128.089 373.517 127.328 373.503 126.475Z" fill="#FEBF55"/>
<path d="M376.601 125.233C375.747 125.247 374.975 124.887 374.438 124.305C374.955 123.706 375.716 123.321 376.57 123.308C377.424 123.294 378.196 123.654 378.733 124.236C378.215 124.835 377.454 125.22 376.601 125.233Z" fill="#FEBF55"/>
<path d="M407.185 98.477C408.028 98.612 408.844 98.365 409.457 97.865C409.03 97.199 408.332 96.71 407.488 96.575C406.645 96.44 405.829 96.687 405.216 97.187C405.644 97.853 406.342 98.342 407.185 98.477Z" fill="#FEBF55"/>
<path d="M408.853 95.587C408.718 96.43 408.965 97.246 409.465 97.859C410.132 97.432 410.62 96.733 410.755 95.89C410.89 95.047 410.643 94.231 410.143 93.618C409.476 94.045 408.988 94.743 408.853 95.587Z" fill="#FEBF55"/>
<path d="M370.836 123.222C370.971 122.379 371.459 121.681 372.126 121.253C372.626 121.867 372.873 122.682 372.738 123.525C372.603 124.368 372.115 125.066 371.448 125.494C370.948 124.881 370.702 124.065 370.836 123.222Z" fill="#FEBF55"/>
<path d="M374.102 122.537C373.259 122.402 372.561 121.914 372.134 121.247C372.748 120.747 373.563 120.5 374.406 120.635C375.249 120.77 375.947 121.258 376.374 121.925C375.761 122.425 374.945 122.672 374.102 122.537Z" fill="#FEBF55"/>
<path d="M408.852 101.488C409.659 101.767 410.505 101.666 411.196 101.28C410.891 100.55 410.288 99.947 409.481 99.668C408.674 99.389 407.828 99.49 407.137 99.876C407.442 100.607 408.045 101.209 408.852 101.488Z" fill="#FEBF55"/>
<path d="M410.996 98.932C410.717 99.739 410.818 100.585 411.204 101.276C411.934 100.971 412.537 100.368 412.816 99.561C413.095 98.754 412.994 97.908 412.608 97.217C411.878 97.522 411.275 98.125 410.996 98.932Z" fill="#FEBF55"/>
<path d="M368.775 119.551C369.054 118.744 369.656 118.141 370.387 117.836C370.773 118.527 370.874 119.373 370.595 120.18C370.316 120.987 369.714 121.59 368.983 121.895C368.597 121.204 368.496 120.358 368.775 119.551Z" fill="#FEBF55"/>
<path d="M372.11 119.444C371.303 119.165 370.7 118.562 370.395 117.832C371.086 117.446 371.932 117.345 372.739 117.624C373.546 117.903 374.149 118.505 374.454 119.236C373.763 119.622 372.917 119.723 372.11 119.444Z" fill="#FEBF55"/>
<path d="M409.971 104.748C410.717 105.163 411.568 105.21 412.316 104.95C412.143 104.178 411.653 103.48 410.907 103.065C410.161 102.65 409.31 102.603 408.562 102.863C408.736 103.636 409.225 104.333 409.971 104.748Z" fill="#FEBF55"/>
<path d="M412.527 102.603C412.112 103.349 412.065 104.2 412.325 104.948C413.097 104.775 413.795 104.285 414.21 103.539C414.625 102.793 414.672 101.942 414.412 101.194C413.64 101.368 412.942 101.857 412.527 102.603Z" fill="#FEBF55"/>
<path d="M367.381 115.573C367.796 114.827 368.494 114.338 369.266 114.164C369.526 114.912 369.479 115.762 369.064 116.509C368.649 117.255 367.951 117.744 367.179 117.918C366.919 117.17 366.966 116.319 367.381 115.573Z" fill="#FEBF55"/>
<path d="M370.684 116.047C369.938 115.632 369.449 114.934 369.275 114.162C370.023 113.902 370.873 113.949 371.62 114.364C372.366 114.779 372.855 115.477 373.029 116.249C372.281 116.509 371.43 116.462 370.684 116.047Z" fill="#FEBF55"/>
<path d="M410.509 108.158C411.172 108.696 412.002 108.891 412.783 108.764C412.746 107.973 412.386 107.201 411.723 106.663C411.06 106.125 410.23 105.931 409.449 106.057C409.486 106.847 409.846 107.62 410.509 108.158Z" fill="#FEBF55"/>
<path d="M413.398 106.489C412.86 107.152 412.666 107.982 412.792 108.763C413.583 108.726 414.355 108.366 414.893 107.703C415.431 107.04 415.625 106.21 415.499 105.429C414.709 105.466 413.937 105.826 413.398 106.489Z" fill="#FEBF55"/>
<path d="M366.698 111.409C367.236 110.746 368.008 110.386 368.799 110.349C368.926 111.13 368.731 111.96 368.193 112.623C367.655 113.286 366.883 113.646 366.092 113.683C365.965 112.902 366.159 112.072 366.698 111.409Z" fill="#FEBF55"/>
<path d="M369.869 112.45C369.206 111.912 368.846 111.139 368.809 110.349C369.59 110.223 370.42 110.417 371.083 110.955C371.746 111.493 372.106 112.265 372.143 113.056C371.362 113.182 370.532 112.988 369.869 112.45Z" fill="#FEBF55"/>
<path d="M410.449 111.612C411.008 112.257 411.792 112.593 412.583 112.604C412.684 111.819 412.463 110.996 411.904 110.351C411.345 109.706 410.561 109.37 409.77 109.359C409.669 110.144 409.89 110.967 410.449 111.612Z" fill="#FEBF55"/>
<path d="M413.584 110.471C412.939 111.03 412.603 111.814 412.592 112.605C413.377 112.706 414.2 112.485 414.845 111.926C415.49 111.367 415.826 110.583 415.837 109.792C415.053 109.691 414.23 109.911 413.584 110.471Z" fill="#FEBF55"/>
<path d="M366.745 107.186C367.39 106.627 368.213 106.406 368.998 106.507C368.987 107.298 368.651 108.082 368.006 108.641C367.361 109.2 366.538 109.421 365.753 109.32C365.765 108.529 366.1 107.746 366.745 107.186Z" fill="#FEBF55"/>
<path d="M369.687 108.761C369.128 108.116 368.907 107.293 369.008 106.508C369.8 106.519 370.583 106.855 371.142 107.5C371.701 108.145 371.922 108.968 371.821 109.753C371.03 109.742 370.246 109.406 369.687 108.761Z" fill="#FEBF55"/>
<path d="M409.793 115.008C410.232 115.74 410.945 116.207 411.723 116.355C411.959 115.599 411.884 114.75 411.445 114.018C411.006 113.286 410.293 112.819 409.515 112.671C409.28 113.426 409.354 114.275 409.793 115.008Z" fill="#FEBF55"/>
<path d="M413.078 114.428C412.346 114.867 411.879 115.58 411.731 116.358C412.487 116.594 413.336 116.519 414.068 116.081C414.8 115.642 415.267 114.929 415.415 114.151C414.659 113.915 413.811 113.989 413.078 114.428Z" fill="#FEBF55"/>
<path d="M367.522 103.032C368.254 102.593 369.103 102.519 369.859 102.755C369.711 103.532 369.244 104.246 368.512 104.685C367.78 105.124 366.931 105.198 366.175 104.962C366.324 104.184 366.79 103.471 367.522 103.032Z" fill="#FEBF55"/>
<path d="M370.146 105.094C369.707 104.362 369.633 103.513 369.869 102.757C370.646 102.906 371.36 103.372 371.799 104.104C372.238 104.836 372.312 105.685 372.076 106.441C371.298 106.293 370.585 105.827 370.146 105.094Z" fill="#FEBF55"/>
<path d="M408.56 118.24C408.865 119.038 409.486 119.621 410.226 119.902C410.589 119.199 410.663 118.35 410.359 117.552C410.054 116.755 409.433 116.171 408.693 115.89C408.329 116.594 408.255 117.443 408.56 118.24Z" fill="#FEBF55"/>
<path d="M411.897 118.24C411.099 118.545 410.516 119.166 410.235 119.906C410.938 120.27 411.787 120.344 412.585 120.039C413.382 119.734 413.966 119.113 414.247 118.373C413.543 118.009 412.694 117.935 411.897 118.24Z" fill="#FEBF55"/>
<path d="M369.006 99.074C369.804 98.769 370.653 98.843 371.356 99.207C371.075 99.947 370.492 100.568 369.694 100.873C368.897 101.178 368.048 101.104 367.345 100.74C367.625 100 368.208 99.378 369.006 99.074Z" fill="#FEBF55"/>
<path d="M371.23 101.56C370.925 100.762 370.999 99.913 371.363 99.21C372.103 99.491 372.724 100.074 373.029 100.872C373.334 101.669 373.26 102.518 372.896 103.222C372.157 102.94 371.535 102.357 371.23 101.56Z" fill="#FEBF55"/>
<path d="M406.799 121.187C406.961 122.025 407.471 122.708 408.151 123.113C408.631 122.484 408.851 121.66 408.69 120.822C408.528 119.984 408.018 119.302 407.338 118.896C406.857 119.526 406.637 120.349 406.799 121.187Z" fill="#FEBF55"/>
<path d="M410.085 121.766C409.246 121.928 408.564 122.439 408.159 123.118C408.788 123.598 409.612 123.818 410.45 123.657C411.288 123.495 411.97 122.984 412.376 122.305C411.747 121.825 410.923 121.604 410.085 121.766Z" fill="#FEBF55"/>
<path d="M371.141 95.455C371.979 95.293 372.803 95.514 373.432 95.994C373.027 96.674 372.344 97.185 371.506 97.346C370.668 97.507 369.844 97.287 369.215 96.807C369.621 96.128 370.303 95.617 371.141 95.455Z" fill="#FEBF55"/>
<path d="M372.901 98.29C372.739 97.452 372.96 96.628 373.44 95.999C374.12 96.404 374.631 97.087 374.792 97.925C374.954 98.763 374.733 99.587 374.253 100.216C373.574 99.81 373.063 99.128 372.901 98.29Z" fill="#FEBF55"/>
<path d="M404.547 123.782C404.561 124.636 404.945 125.396 405.544 125.914C406.126 125.378 406.486 124.605 406.472 123.751C406.458 122.897 406.074 122.137 405.475 121.619C404.893 122.156 404.534 122.928 404.547 123.782Z" fill="#FEBF55"/>
<path d="M407.683 124.923C406.829 124.937 406.069 125.321 405.551 125.92C406.087 126.502 406.86 126.862 407.714 126.848C408.568 126.834 409.328 126.45 409.846 125.851C409.309 125.269 408.537 124.909 407.683 124.923Z" fill="#FEBF55"/>
<path d="M373.877 92.2641C374.731 92.2501 375.503 92.6101 376.04 93.1921C375.523 93.7911 374.762 94.1761 373.908 94.1891C373.054 94.2031 372.282 93.8431 371.745 93.2611C372.263 92.6621 373.023 92.2771 373.877 92.2641Z" fill="#FEBF55"/>
<path d="M375.119 95.3611C375.105 94.5071 375.465 93.7351 376.047 93.1981C376.646 93.7151 377.03 94.476 377.044 95.33C377.058 96.184 376.698 96.9561 376.116 97.4931C375.517 96.9751 375.133 96.2151 375.119 95.3611Z" fill="#FEBF55"/>
<path d="M401.874 125.946C401.739 126.789 401.986 127.605 402.486 128.218C403.152 127.791 403.641 127.093 403.776 126.249C403.911 125.406 403.664 124.59 403.164 123.977C402.497 124.404 402.009 125.103 401.874 125.946Z" fill="#FEBF55"/>
<path d="M404.764 127.614C403.921 127.479 403.105 127.726 402.492 128.226C402.919 128.893 403.617 129.381 404.461 129.516C405.304 129.651 406.12 129.404 406.733 128.904C406.305 128.237 405.607 127.748 404.764 127.614Z" fill="#FEBF55"/>
<path d="M377.13 89.597C377.973 89.732 378.671 90.22 379.099 90.887C378.486 91.387 377.67 91.634 376.827 91.499C375.984 91.364 375.286 90.876 374.859 90.209C375.471 89.709 376.287 89.462 377.13 89.597Z" fill="#FEBF55"/>
<path d="M377.814 92.863C377.949 92.02 378.437 91.322 379.104 90.895C379.604 91.508 379.851 92.324 379.716 93.167C379.581 94.01 379.093 94.708 378.426 95.136C377.926 94.521 377.68 93.706 377.814 92.863Z" fill="#FEBF55"/>
<path d="M398.863 127.613C398.584 128.42 398.685 129.266 399.071 129.957C399.801 129.652 400.404 129.049 400.683 128.242C400.962 127.435 400.861 126.589 400.475 125.898C399.745 126.203 399.142 126.806 398.863 127.613Z" fill="#FEBF55"/>
<path d="M401.42 129.757C400.613 129.478 399.767 129.579 399.076 129.965C399.381 130.695 399.984 131.298 400.791 131.577C401.598 131.856 402.444 131.755 403.135 131.369C402.829 130.638 402.226 130.036 401.42 129.757Z" fill="#FEBF55"/>
<path d="M380.801 87.535C381.608 87.814 382.211 88.416 382.516 89.147C381.825 89.533 380.979 89.634 380.172 89.355C379.365 89.076 378.762 88.474 378.457 87.743C379.148 87.357 379.994 87.256 380.801 87.535Z" fill="#FEBF55"/>
<path d="M380.908 90.87C381.187 90.063 381.789 89.46 382.52 89.155C382.906 89.846 383.007 90.692 382.728 91.499C382.449 92.306 381.847 92.909 381.116 93.214C380.73 92.523 380.629 91.677 380.908 90.87Z" fill="#FEBF55"/>
<path d="M395.603 128.732C395.188 129.478 395.141 130.329 395.401 131.077C396.173 130.904 396.871 130.415 397.286 129.668C397.701 128.922 397.748 128.071 397.488 127.323C396.716 127.497 396.018 127.985 395.603 128.732Z" fill="#FEBF55"/>
<path d="M397.748 131.288C397.002 130.873 396.151 130.826 395.403 131.086C395.576 131.858 396.066 132.556 396.812 132.971C397.558 133.386 398.409 133.433 399.157 133.173C398.984 132.4 398.494 131.702 397.748 131.288Z" fill="#FEBF55"/>
<path d="M384.779 86.1411C385.525 86.5561 386.014 87.254 386.188 88.026C385.44 88.286 384.59 88.2391 383.843 87.8241C383.097 87.4091 382.608 86.7111 382.434 85.9391C383.182 85.6791 384.032 85.7271 384.779 86.1411Z" fill="#FEBF55"/>
<path d="M384.304 89.444C384.719 88.698 385.417 88.209 386.189 88.035C386.449 88.783 386.402 89.633 385.987 90.38C385.572 91.126 384.874 91.615 384.102 91.789C383.842 91.042 383.889 90.191 384.304 89.444Z" fill="#FEBF55"/>
<path d="M392.194 129.27C391.656 129.933 391.462 130.763 391.588 131.544C392.379 131.507 393.151 131.147 393.689 130.484C394.227 129.821 394.421 128.991 394.295 128.21C393.504 128.246 392.732 128.607 392.194 129.27Z" fill="#FEBF55"/>
<path d="M393.863 132.159C393.2 131.621 392.37 131.427 391.589 131.553C391.626 132.344 391.986 133.116 392.649 133.654C393.312 134.192 394.142 134.387 394.923 134.26C394.886 133.469 394.525 132.697 393.863 132.159Z" fill="#FEBF55"/>
<path d="M388.942 85.458C389.605 85.996 389.965 86.768 390.002 87.559C389.221 87.685 388.391 87.491 387.728 86.953C387.065 86.415 386.705 85.643 386.668 84.852C387.45 84.726 388.28 84.92 388.942 85.458Z" fill="#FEBF55"/>
<path d="M387.902 88.6281C388.44 87.9651 389.212 87.6051 390.003 87.5681C390.129 88.3491 389.935 89.1791 389.397 89.8421C388.859 90.5051 388.087 90.8651 387.296 90.9021C387.17 90.1211 387.364 89.2911 387.902 88.6281Z" fill="#FEBF55"/>
<path d="M388.739 129.21C388.094 129.769 387.758 130.553 387.747 131.344C388.532 131.445 389.355 131.224 390 130.665C390.645 130.106 390.981 129.322 390.992 128.531C390.207 128.43 389.384 128.65 388.739 129.21Z" fill="#FEBF55"/>
<path d="M389.881 132.345C389.322 131.7 388.538 131.364 387.747 131.353C387.646 132.138 387.867 132.961 388.426 133.606C388.985 134.251 389.769 134.587 390.56 134.598C390.661 133.813 390.44 132.99 389.881 132.345Z" fill="#FEBF55"/>
<path d="M393.165 85.506C393.724 86.151 393.945 86.974 393.844 87.759C393.052 87.748 392.269 87.412 391.71 86.767C391.151 86.122 390.93 85.299 391.031 84.514C391.823 84.525 392.606 84.861 393.165 85.506Z" fill="#FEBF55"/>
<path d="M391.591 88.447C392.236 87.888 393.059 87.667 393.844 87.768C393.833 88.559 393.497 89.343 392.852 89.902C392.207 90.461 391.384 90.682 390.599 90.581C390.61 89.79 390.945 89.007 391.591 88.447Z" fill="#FEBF55"/>
<path d="M385.344 128.554C384.611 128.993 384.145 129.706 383.997 130.484C384.753 130.72 385.602 130.645 386.334 130.207C387.067 129.768 387.533 129.055 387.681 128.277C386.925 128.04 386.076 128.115 385.344 128.554Z" fill="#FEBF55"/>
<path d="M385.924 131.84C385.485 131.108 384.772 130.641 383.994 130.493C383.758 131.249 383.833 132.098 384.272 132.83C384.711 133.562 385.424 134.029 386.202 134.177C386.437 133.421 386.363 132.572 385.924 131.84Z" fill="#FEBF55"/>
<path d="M397.319 86.283C397.758 87.015 397.832 87.864 397.597 88.62C396.819 88.471 396.106 88.005 395.667 87.273C395.228 86.541 395.154 85.692 395.39 84.936C396.167 85.084 396.881 85.55 397.319 86.283Z" fill="#FEBF55"/>
<path d="M395.258 88.906C395.99 88.467 396.839 88.3931 397.595 88.6291C397.446 89.4061 396.98 90.12 396.248 90.559C395.515 90.998 394.667 91.072 393.911 90.836C394.059 90.058 394.525 89.345 395.258 88.906Z" fill="#FEBF55"/>
<path d="M382.111 127.321C381.314 127.626 380.73 128.247 380.449 128.987C381.152 129.351 382.001 129.424 382.799 129.12C383.597 128.815 384.18 128.194 384.461 127.454C383.758 127.091 382.909 127.017 382.111 127.321Z" fill="#FEBF55"/>
<path d="M382.112 130.658C381.807 129.861 381.186 129.277 380.446 128.996C380.083 129.699 380.008 130.548 380.313 131.346C380.618 132.144 381.239 132.727 381.979 133.008C382.343 132.305 382.417 131.456 382.112 130.658Z" fill="#FEBF55"/>
<path d="M401.277 87.766C401.582 88.563 401.508 89.413 401.144 90.116C400.404 89.835 399.783 89.251 399.478 88.454C399.173 87.656 399.247 86.808 399.611 86.104C400.351 86.386 400.972 86.969 401.277 87.766Z" fill="#FEBF55"/>
<path d="M398.792 89.992C399.589 89.687 400.438 89.761 401.142 90.125C400.861 90.865 400.278 91.486 399.48 91.791C398.682 92.096 397.833 92.022 397.13 91.658C397.411 90.918 397.994 90.297 398.792 89.992Z" fill="#FEBF55"/>
<path d="M382.664 101.455C384.632 100.488 386.186 99.936 388.706 96.932H394.852V116.474H398.063V121.066H384.253V116.474H387.705V103.665L384.253 105.288L382.664 101.455Z" fill="#FEBF55"/>
<path d="M395.165 34.819H280.264V48.699H395.165V34.819Z" fill="#0F538C"/>
<path d="M370.048 55.459H305.38V63.271H370.048V55.459Z" fill="#0F538C"/>
<path d="M341.957 90.958H262.369V98.77H341.957V90.958Z" fill="#0F538C"/>
<path d="M341.957 130.86H262.369V138.672H341.957V130.86Z" fill="#0F538C"/>
<path d="M341.957 110.909H262.369V118.721H341.957V110.909Z" fill="#0F538C"/>
<path d="M284.882 377.444C211.237 314.824 189.101 256.703 199.834 226.881C203.529 216.613 211.303 210.408 220.631 210.28C231.634 210.12 241.472 214.133 249.3 221.854C260.334 232.737 266.921 250.797 266.921 270.162H251.217C251.217 255.137 246.257 240.91 238.272 233.034C233.435 228.262 227.543 225.944 220.847 225.982C217.524 226.028 215.622 229.388 214.611 232.199C207.424 252.169 222.917 304.142 295.055 365.48L284.882 377.444Z" fill="#FEBF55"/>
<path d="M398.263 377.444L388.091 365.48C460.229 304.142 475.722 252.167 468.536 232.199C467.524 229.388 465.621 226.028 462.299 225.982C455.566 225.935 449.711 228.263 444.874 233.034C436.889 240.91 431.929 255.137 431.929 270.162H416.225C416.225 250.797 422.812 232.737 433.846 221.854C441.674 214.131 451.62 210.086 462.515 210.28C471.844 210.408 479.618 216.614 483.313 226.88C494.044 256.703 471.91 314.825 398.263 377.444Z" fill="#FEBF55"/>
<path d="M365.403 420.166C365.403 434.898 368.743 448.849 374.735 461.303H308.41C314.403 448.849 317.742 434.898 317.742 420.166C317.742 405.434 314.402 391.482 308.41 379.029H374.735C368.743 391.482 365.403 405.434 365.403 420.166Z" fill="#E1AD3D"/>
<path d="M251.338 232.84V306.48C251.338 356.315 291.737 396.715 341.573 396.715C391.409 396.715 431.808 356.315 431.808 306.48V232.84H251.338Z" fill="#FEBF55"/>
<path d="M391.849 497.965C391.849 470.199 369.339 447.689 341.573 447.689C313.806 447.689 291.297 470.199 291.297 497.965H391.849Z" fill="#E1AD3D"/>
<path d="M439.198 567.286H243.948V592.408H439.198V567.286Z" fill="#0F538C"/>
<path d="M418.34 492.827H264.805V567.286H418.34V492.827Z" fill="#FEBF55"/>
<path d="M381.902 553.393H301.244C301.244 547.899 296.79 543.446 291.297 543.446V516.667C296.791 516.667 301.244 512.214 301.244 506.72H381.902C381.902 512.214 386.356 516.667 391.849 516.667V530.057V543.446C386.355 543.446 381.902 547.899 381.902 553.393Z" fill="#C68F30"/>
<path d="M128.043 275.01L128.071 275.019L128.043 274.979V275.01Z" fill="#FEBF55"/>
<path d="M128.043 217.48L111.135 251.738L128.043 274.979V217.48Z" fill="#FEBF55"/>
<path d="M128.043 275.028L128.071 275.019L128.043 275.01V275.028Z" fill="#FEBF55"/>
<path d="M128.071 275.019L144.95 251.738L128.043 217.48V274.979L128.071 275.019Z" fill="#C68F30"/>
<path d="M128.043 275.058L128.071 275.019L128.043 275.028V275.058Z" fill="#FEBF55"/>
<path d="M182.757 257.232L144.95 251.738L128.071 275.019L182.757 257.232Z" fill="#FEBF55"/>
<path d="M155.4 283.898L182.757 257.232L128.071 275.019L155.4 283.898Z" fill="#C68F30"/>
<path d="M128.043 275.058V303.774L161.858 321.552L128.071 275.019L128.043 275.058Z" fill="#FEBF55"/>
<path d="M128.071 275.019L161.858 321.552L155.4 283.898L128.071 275.019Z" fill="#C68F30"/>
<path d="M128.043 274.979L111.135 251.738L73.3291 257.232L128.043 275.01V274.979Z" fill="#FEBF55"/>
<path opacity="0.25" d="M128.043 274.979L111.135 251.738L73.3291 257.232L128.043 275.01V274.979Z" fill="#FEBF55"/>
<path d="M94.2285 321.552L128.044 303.774V275.058L94.2285 321.552Z" fill="#C68F30"/>
<path d="M128.044 275.028L100.687 283.898L94.2285 321.552L128.044 275.058V275.028Z" fill="#FEBF55"/>
<path d="M128.043 275.01L73.3291 257.232L100.686 283.898L128.043 275.028V275.01Z" fill="#C68F30"/>
<path d="M132.941 221.419H123.145C118.469 221.419 114.665 217.615 114.665 212.939V206.344C114.665 201.668 118.469 197.864 123.145 197.864H132.941C137.617 197.864 141.421 201.668 141.421 206.344V212.939C141.421 217.615 137.617 221.419 132.941 221.419ZM123.145 205.778C122.844 205.778 122.58 206.042 122.58 206.343V212.938C122.58 213.239 122.844 213.503 123.145 213.503H132.941C133.242 213.503 133.506 213.239 133.506 212.938V206.343C133.506 206.042 133.242 205.778 132.941 205.778H123.145Z" fill="#C68F30"/>
<path d="M132.599 214.015H123.486V220.945H132.599V214.015Z" fill="#E1AD3D"/>
<path d="M92.8105 127.927V181.236L106.577 195.002V127.927H92.8105Z" fill="#CCE9FF"/>
<path d="M149.508 127.927V195.002L163.274 181.236V127.927H149.508Z" fill="#CCE9FF"/>
<path d="M84.8779 127.927V173.303L90.0109 178.436V127.927H84.8779Z" fill="#0F538C"/>
<path d="M166.074 127.927V178.436L171.207 173.303V127.927H166.074Z" fill="#0F538C"/>
<path d="M90.0107 127.927V178.436L92.8107 181.236V127.927H90.0107Z" fill="#2B94F3"/>
<path d="M163.274 127.927V181.236L166.074 178.436V127.927H163.274Z" fill="#2B94F3"/>
<path d="M122.21 127.927H106.577V195.002L122.21 210.635V127.927Z" fill="#2B94F3"/>
<path d="M133.876 127.927V210.635L149.508 195.002V127.927H133.876Z" fill="#2B94F3"/>
<path d="M133.876 127.93H122.208V210.638H133.876V127.93Z" fill="#0F538C"/>
<path d="M651.393 177.115L651.384 177.124H488.945L488.936 177.115L510.604 137.009H629.687L629.705 137.047L640.432 156.856L642.404 160.501L651.393 177.115Z" fill="#0F538C"/>
<path d="M588.706 256.092L570.16 268.251L555.154 278.085L488.947 177.124L488.935 177.113L496.705 162.764L497.93 160.496L499.892 156.855L501.117 154.586L510.622 137.05L536.904 177.124L570.16 227.826L588.706 256.092Z" fill="#2B94F4"/>
<path d="M572.939 263.782L566.032 268.342L496.705 162.764L497.93 160.496L499.892 156.855L501.117 154.586L572.939 263.782Z" fill="#CCE9FF"/>
<path d="M551.623 256.092L570.168 268.251L585.174 278.085L651.382 177.124L651.393 177.113L643.623 162.764L642.398 160.496L640.436 156.855L639.211 154.586L629.706 137.05L603.425 177.124L570.168 227.826L551.623 256.092Z" fill="#2B94F4"/>
<path d="M567.389 263.782L574.297 268.342L643.623 162.764L642.398 160.496L640.436 156.855L639.211 154.586L567.389 263.782Z" fill="#CCE9FF"/>
<path d="M618.707 298.651C624.914 271.848 608.218 245.088 581.415 238.881C554.612 232.675 527.853 249.371 521.646 276.174C515.439 302.976 532.135 329.736 558.938 335.943C585.741 342.15 612.5 325.453 618.707 298.651Z" fill="#FEBF55"/>
<path d="M556.991 257.436C555.758 256.856 554.902 255.793 554.539 254.574C555.697 254.071 557.054 254.05 558.287 254.63C559.52 255.21 560.376 256.273 560.739 257.492C559.58 257.995 558.223 258.016 556.991 257.436Z" fill="#C68F30"/>
<path d="M557.369 252.086C556.794 253.33 555.741 254.194 554.533 254.56C554.035 253.391 554.014 252.021 554.588 250.777C555.163 249.533 556.216 248.669 557.424 248.303C557.923 249.472 557.944 250.842 557.369 252.086Z" fill="#C68F30"/>
<path d="M552.107 259.939C550.794 259.584 549.767 258.687 549.2 257.55C550.254 256.852 551.587 256.593 552.901 256.948C554.215 257.303 555.241 258.2 555.808 259.336C554.753 260.035 553.42 260.294 552.107 259.939Z" fill="#C68F30"/>
<path d="M551.56 254.604C551.208 255.93 550.319 256.965 549.193 257.538C548.502 256.474 548.245 255.129 548.597 253.803C548.949 252.477 549.838 251.442 550.964 250.869C551.655 251.933 551.912 253.278 551.56 254.604Z" fill="#C68F30"/>
<path d="M547.726 263.267C546.371 263.147 545.207 262.444 544.452 261.424C545.37 260.552 546.638 260.063 547.993 260.183C549.348 260.303 550.513 261.006 551.267 262.026C550.349 262.897 549.081 263.386 547.726 263.267Z" fill="#C68F30"/>
<path d="M546.269 258.108C546.15 259.475 545.453 260.651 544.443 261.412C543.579 260.485 543.095 259.206 543.213 257.838C543.331 256.471 544.029 255.295 545.039 254.534C545.904 255.461 546.388 256.741 546.269 258.108Z" fill="#C68F30"/>
<path d="M543.979 267.317C542.624 267.437 541.356 266.948 540.438 266.076C541.192 265.056 542.357 264.353 543.712 264.233C545.067 264.113 546.335 264.602 547.253 265.474C546.499 266.494 545.334 267.198 543.979 267.317Z" fill="#C68F30"/>
<path d="M541.658 262.493C541.776 263.86 541.292 265.14 540.428 266.067C539.418 265.306 538.721 264.13 538.602 262.763C538.483 261.396 538.968 260.116 539.832 259.189C540.842 259.95 541.539 261.125 541.658 262.493Z" fill="#C68F30"/>
<path d="M540.983 271.968C539.669 272.323 538.336 272.064 537.282 271.366C537.849 270.23 538.875 269.333 540.189 268.977C541.503 268.622 542.835 268.881 543.89 269.579C543.322 270.716 542.296 271.613 540.983 271.968Z" fill="#C68F30"/>
<path d="M537.865 267.624C538.217 268.95 537.96 270.295 537.269 271.359C536.143 270.787 535.254 269.751 534.902 268.425C534.55 267.099 534.807 265.754 535.498 264.69C536.624 265.263 537.513 266.298 537.865 267.624Z" fill="#C68F30"/>
<path d="M538.825 277.078C537.592 277.658 536.235 277.637 535.077 277.134C535.44 275.915 536.296 274.852 537.529 274.272C538.761 273.692 540.119 273.713 541.277 274.216C540.914 275.434 540.057 276.498 538.825 277.078Z" fill="#C68F30"/>
<path d="M535.007 273.346C535.582 274.59 535.56 275.96 535.063 277.129C533.856 276.762 532.802 275.899 532.227 274.655C531.652 273.411 531.673 272.041 532.171 270.872C533.379 271.238 534.433 272.102 535.007 273.346Z" fill="#C68F30"/>
<path d="M537.573 282.491C536.459 283.278 535.119 283.495 533.891 283.203C534.039 281.939 534.699 280.742 535.813 279.955C536.927 279.168 538.267 278.951 539.495 279.243C539.347 280.507 538.687 281.704 537.573 282.491Z" fill="#C68F30"/>
<path d="M533.171 279.485C533.951 280.609 534.166 281.962 533.877 283.2C532.625 283.051 531.439 282.385 530.659 281.26C529.879 280.136 529.664 278.783 529.953 277.545C531.205 277.694 532.391 278.36 533.171 279.485Z" fill="#C68F30"/>
<path d="M537.264 288.043C536.302 289.014 535.019 289.462 533.76 289.389C533.688 288.119 534.133 286.824 535.095 285.854C536.057 284.883 537.338 284.435 538.597 284.508C538.669 285.778 538.226 287.073 537.264 288.043Z" fill="#C68F30"/>
<path d="M532.412 285.854C533.374 286.825 533.818 288.119 533.746 289.389C532.487 289.461 531.205 289.013 530.243 288.043C529.281 287.073 528.837 285.778 528.909 284.508C530.167 284.435 531.45 284.884 532.412 285.854Z" fill="#C68F30"/>
<path d="M537.911 293.524C537.131 294.648 535.945 295.315 534.693 295.464C534.404 294.225 534.618 292.873 535.399 291.748C536.179 290.624 537.365 289.958 538.617 289.808C538.906 291.047 538.692 292.4 537.911 293.524Z" fill="#C68F30"/>
<path d="M532.756 292.219C533.87 293.006 534.53 294.203 534.678 295.467C533.451 295.759 532.11 295.542 530.996 294.755C529.882 293.968 529.222 292.771 529.074 291.507C530.302 291.215 531.642 291.431 532.756 292.219Z" fill="#C68F30"/>
<path d="M539.5 298.809C538.925 300.053 537.872 300.917 536.664 301.283C536.166 300.114 536.145 298.744 536.72 297.5C537.295 296.256 538.348 295.392 539.555 295.026C540.054 296.195 540.075 297.565 539.5 298.809Z" fill="#C68F30"/>
<path d="M534.198 298.426C535.431 299.006 536.287 300.069 536.65 301.288C535.492 301.791 534.134 301.812 532.902 301.232C531.669 300.652 530.813 299.589 530.45 298.37C531.608 297.868 532.966 297.846 534.198 298.426Z" fill="#C68F30"/>
<path d="M541.98 303.737C541.628 305.063 540.739 306.098 539.613 306.671C538.921 305.607 538.665 304.262 539.017 302.936C539.369 301.61 540.258 300.575 541.384 300.002C542.076 301.066 542.333 302.411 541.98 303.737Z" fill="#C68F30"/>
<path d="M536.693 304.289C538.007 304.644 539.033 305.541 539.6 306.678C538.546 307.376 537.213 307.635 535.899 307.28C534.585 306.925 533.559 306.028 532.992 304.892C534.046 304.193 535.379 303.934 536.693 304.289Z" fill="#C68F30"/>
<path d="M545.276 308.158C545.158 309.525 544.46 310.701 543.45 311.462C542.586 310.535 542.102 309.256 542.22 307.888C542.339 306.521 543.036 305.345 544.046 304.584C544.911 305.511 545.395 306.791 545.276 308.158Z" fill="#C68F30"/>
<path d="M540.165 309.629C541.52 309.749 542.684 310.452 543.439 311.472C542.521 312.344 541.253 312.833 539.898 312.713C538.543 312.593 537.378 311.89 536.624 310.87C537.542 309.998 538.81 309.509 540.165 309.629Z" fill="#C68F30"/>
<path d="M549.29 311.939C549.409 313.306 548.924 314.586 548.06 315.513C547.05 314.752 546.353 313.577 546.234 312.209C546.116 310.842 546.6 309.562 547.464 308.635C548.474 309.396 549.172 310.572 549.29 311.939Z" fill="#C68F30"/>
<path d="M544.51 314.283C545.865 314.163 547.133 314.652 548.051 315.524C547.297 316.544 546.132 317.247 544.777 317.367C543.422 317.487 542.154 316.998 541.236 316.126C541.99 315.106 543.155 314.402 544.51 314.283Z" fill="#C68F30"/>
<path d="M553.897 314.964C554.249 316.29 553.992 317.635 553.301 318.699C552.175 318.126 551.286 317.091 550.934 315.765C550.582 314.439 550.839 313.094 551.53 312.03C552.657 312.603 553.546 313.638 553.897 314.964Z" fill="#C68F30"/>
<path d="M549.594 318.11C550.908 317.755 552.239 318.014 553.294 318.712C552.727 319.848 551.702 320.745 550.388 321.1C549.074 321.455 547.741 321.196 546.687 320.498C547.254 319.362 548.28 318.465 549.594 318.11Z" fill="#C68F30"/>
<path d="M558.962 317.142C559.537 318.386 559.515 319.756 559.017 320.925C557.809 320.559 556.756 319.695 556.181 318.451C555.606 317.207 555.628 315.837 556.126 314.668C557.333 315.034 558.387 315.898 558.962 317.142Z" fill="#C68F30"/>
<path d="M555.264 320.994C556.497 320.414 557.854 320.436 559.012 320.938C558.649 322.156 557.793 323.22 556.56 323.8C555.327 324.38 553.97 324.359 552.812 323.856C553.175 322.638 554.031 321.575 555.264 320.994Z" fill="#C68F30"/>
<path d="M563.44 252.886C562.162 253.356 560.812 253.215 559.701 252.612C560.168 251.43 561.112 250.446 562.391 249.977C563.669 249.507 565.019 249.648 566.13 250.251C565.662 251.433 564.718 252.417 563.44 252.886Z" fill="#C68F30"/>
<path d="M575.314 329.455L574.913 329.859C573.353 328.476 571.75 327.305 570.169 326.327C569.979 326.221 569.81 326.114 569.642 326.008C565.551 323.54 561.651 322.22 558.91 321.284C558.488 321.135 558.109 321.007 557.771 320.88C557.497 320.774 557.223 320.689 556.949 320.561C555.642 320.093 554.398 319.518 553.196 318.901C552.627 318.624 552.078 318.326 551.551 318.007C550.961 317.667 550.391 317.326 549.843 316.943C549.189 316.539 548.557 316.092 547.945 315.624C547.502 315.305 547.059 314.964 546.617 314.603C546.617 314.603 546.617 314.603 546.596 314.603C545.457 313.645 544.361 312.645 543.349 311.56C542.97 311.177 542.59 310.773 542.232 310.368C541.241 309.219 540.292 308.006 539.47 306.751C539.133 306.261 538.816 305.793 538.521 305.283C537.741 304.027 537.045 302.708 536.434 301.368C536.181 300.772 535.928 300.176 535.696 299.581C535.19 298.262 534.747 296.9 534.41 295.516C534.241 294.835 534.094 294.154 533.946 293.473C533.693 292.132 533.524 290.771 533.419 289.387C533.377 288.664 533.334 287.961 533.334 287.238V286.919C533.334 285.642 533.397 284.387 533.545 283.131C533.608 282.408 533.714 281.705 533.84 281.003C534.072 279.662 534.388 278.322 534.768 277.024C534.958 276.343 535.19 275.683 535.422 275.024C535.886 273.726 536.434 272.47 537.045 271.236C537.34 270.64 537.635 270.066 537.973 269.491C538.669 268.257 539.428 267.086 540.271 265.959C540.629 265.47 540.988 265.002 541.367 264.533C542.295 263.384 543.286 262.299 544.34 261.277C544.741 260.894 545.162 260.489 545.605 260.106C546.701 259.127 547.882 258.212 549.105 257.382C549.611 257.041 550.117 256.701 550.644 256.382C550.644 256.382 550.644 256.361 550.665 256.361C551.888 255.616 553.153 254.935 554.46 254.339C555.071 254.041 555.704 253.764 556.337 253.509C557.476 253.062 558.635 252.658 559.837 252.317C560.828 252.019 561.84 251.785 562.852 251.572L562.978 252.104C562.008 252.296 561.059 252.53 560.132 252.806C558.761 253.189 557.433 253.657 556.147 254.189C555.641 254.402 555.135 254.615 554.65 254.87C553.364 255.445 552.141 256.104 550.96 256.849C550.433 257.168 549.906 257.509 549.4 257.892C548.261 258.658 547.165 259.509 546.132 260.424C545.626 260.828 545.162 261.275 544.698 261.722C543.686 262.701 542.737 263.744 541.852 264.829C541.451 265.318 541.072 265.808 540.713 266.319C539.849 267.489 539.047 268.702 538.351 269.979C538.056 270.49 537.803 271 537.55 271.511C536.854 272.894 536.264 274.299 535.758 275.767C535.589 276.235 535.442 276.725 535.315 277.214C534.872 278.704 534.535 280.214 534.303 281.768C534.219 282.258 534.155 282.747 534.113 283.236C533.965 284.449 533.902 285.683 533.902 286.917C533.902 287.257 533.902 287.598 533.923 287.938C533.923 288.427 533.965 288.917 533.986 289.385C534.091 290.896 534.302 292.386 534.619 293.833C534.724 294.365 534.83 294.897 534.977 295.429C535.314 296.812 535.757 298.174 536.284 299.493C536.495 300.068 536.727 300.621 536.98 301.174C537.549 302.451 538.203 303.685 538.92 304.877C539.236 305.43 539.574 305.941 539.932 306.473C540.712 307.601 541.535 308.707 542.441 309.75C542.863 310.239 543.306 310.729 543.748 311.197C544.697 312.197 545.709 313.133 546.763 314.006C547.248 314.41 547.754 314.815 548.281 315.219C548.787 315.581 549.314 315.942 549.841 316.304C550.495 316.751 551.169 317.155 551.886 317.581C552.392 317.858 552.919 318.156 553.446 318.432C554.795 319.113 556.208 319.73 557.684 320.262C557.768 320.283 557.853 320.326 557.937 320.347C558.296 320.475 558.654 320.602 559.076 320.751H559.097C561.901 321.709 565.95 323.092 570.167 325.667C570.336 325.774 570.504 325.88 570.694 326.008C572.235 326.966 573.796 328.115 575.314 329.455Z" fill="#C68F30"/>
<path d="M583.338 257.436C584.571 256.856 585.427 255.793 585.79 254.574C584.632 254.071 583.275 254.05 582.042 254.63C580.809 255.21 579.953 256.273 579.59 257.492C580.748 257.995 582.106 258.016 583.338 257.436Z" fill="#C68F30"/>
<path d="M582.96 252.086C583.535 253.33 584.588 254.194 585.795 254.56C586.293 253.391 586.314 252.021 585.739 250.777C585.164 249.533 584.111 248.669 582.904 248.303C582.406 249.472 582.385 250.842 582.96 252.086Z" fill="#C68F30"/>
<path d="M588.221 259.939C589.535 259.584 590.561 258.687 591.128 257.55C590.074 256.852 588.741 256.593 587.427 256.948C586.113 257.303 585.087 258.2 584.52 259.336C585.574 260.035 586.907 260.294 588.221 259.939Z" fill="#C68F30"/>
<path d="M588.769 254.604C589.121 255.93 590.01 256.965 591.136 257.538C591.828 256.474 592.084 255.129 591.732 253.803C591.38 252.477 590.491 251.442 589.365 250.869C588.673 251.933 588.417 253.278 588.769 254.604Z" fill="#C68F30"/>
<path d="M592.602 263.267C593.957 263.147 595.121 262.444 595.876 261.424C594.958 260.552 593.69 260.063 592.335 260.183C590.98 260.303 589.816 261.006 589.061 262.026C589.979 262.897 591.247 263.386 592.602 263.267Z" fill="#C68F30"/>
<path d="M594.059 258.108C594.177 259.475 594.875 260.651 595.885 261.412C596.749 260.485 597.233 259.206 597.115 257.838C596.996 256.471 596.299 255.295 595.289 254.534C594.425 255.461 593.941 256.741 594.059 258.108Z" fill="#C68F30"/>
<path d="M596.348 267.317C597.703 267.437 598.971 266.948 599.889 266.076C599.135 265.056 597.97 264.353 596.615 264.233C595.26 264.113 593.992 264.602 593.074 265.474C593.829 266.494 594.994 267.198 596.348 267.317Z" fill="#C68F30"/>
<path d="M598.671 262.493C598.552 263.86 599.037 265.14 599.901 266.067C600.911 265.306 601.608 264.13 601.727 262.763C601.845 261.396 601.361 260.116 600.497 259.189C599.487 259.95 598.79 261.125 598.671 262.493Z" fill="#C68F30"/>
<path d="M599.345 271.968C600.659 272.323 601.991 272.064 603.046 271.366C602.479 270.23 601.453 269.333 600.139 268.977C598.825 268.622 597.492 268.881 596.438 269.579C597.005 270.716 598.031 271.613 599.345 271.968Z" fill="#C68F30"/>
<path d="M602.464 267.624C602.112 268.95 602.369 270.295 603.06 271.359C604.186 270.787 605.075 269.751 605.427 268.425C605.779 267.099 605.522 265.754 604.831 264.69C603.704 265.263 602.816 266.298 602.464 267.624Z" fill="#C68F30"/>
<path d="M601.504 277.078C602.737 277.658 604.094 277.637 605.252 277.134C604.889 275.915 604.033 274.852 602.8 274.272C601.567 273.692 600.21 273.713 599.052 274.216C599.415 275.434 600.271 276.498 601.504 277.078Z" fill="#C68F30"/>
<path d="M605.321 273.346C604.746 274.59 604.768 275.96 605.266 277.129C606.473 276.762 607.527 275.899 608.102 274.655C608.677 273.411 608.655 272.041 608.157 270.872C606.949 271.238 605.896 272.102 605.321 273.346Z" fill="#C68F30"/>
<path d="M602.756 282.491C603.87 283.278 605.21 283.495 606.438 283.203C606.29 281.939 605.63 280.742 604.516 279.955C603.402 279.168 602.062 278.951 600.835 279.243C600.982 280.507 601.642 281.704 602.756 282.491Z" fill="#C68F30"/>
<path d="M607.158 279.485C606.378 280.609 606.163 281.962 606.452 283.2C607.704 283.051 608.89 282.385 609.67 281.26C610.45 280.136 610.665 278.783 610.376 277.545C609.124 277.694 607.938 278.36 607.158 279.485Z" fill="#C68F30"/>
<path d="M603.065 288.043C604.027 289.014 605.309 289.462 606.568 289.389C606.64 288.119 606.196 286.824 605.234 285.854C604.272 284.883 602.99 284.435 601.731 284.508C601.659 285.778 602.103 287.073 603.065 288.043Z" fill="#C68F30"/>
<path d="M607.917 285.854C606.955 286.825 606.511 288.119 606.583 289.389C607.842 289.461 609.125 289.013 610.086 288.043C611.048 287.073 611.492 285.778 611.42 284.508C610.161 284.435 608.879 284.884 607.917 285.854Z" fill="#C68F30"/>
<path d="M602.417 293.524C603.197 294.648 604.383 295.315 605.635 295.464C605.924 294.225 605.71 292.873 604.929 291.748C604.149 290.624 602.963 289.958 601.711 289.808C601.422 291.047 601.637 292.4 602.417 293.524Z" fill="#C68F30"/>
<path d="M607.571 292.219C606.457 293.006 605.797 294.203 605.649 295.467C606.876 295.759 608.217 295.542 609.331 294.755C610.445 293.968 611.105 292.771 611.253 291.507C610.026 291.215 608.685 291.431 607.571 292.219Z" fill="#C68F30"/>
<path d="M600.829 298.809C601.404 300.053 602.457 300.917 603.665 301.283C604.163 300.114 604.184 298.744 603.61 297.5C603.035 296.256 601.982 295.392 600.774 295.026C600.276 296.195 600.255 297.565 600.829 298.809Z" fill="#C68F30"/>
<path d="M606.13 298.426C604.898 299.006 604.041 300.069 603.678 301.288C604.836 301.791 606.194 301.812 607.426 301.232C608.659 300.652 609.515 299.589 609.878 298.37C608.72 297.868 607.363 297.846 606.13 298.426Z" fill="#C68F30"/>
<path d="M598.349 303.737C598.701 305.063 599.59 306.098 600.716 306.671C601.407 305.607 601.664 304.262 601.312 302.936C600.96 301.61 600.071 300.575 598.945 300.002C598.254 301.066 597.997 302.411 598.349 303.737Z" fill="#C68F30"/>
<path d="M603.635 304.289C602.321 304.644 601.296 305.541 600.729 306.678C601.783 307.376 603.116 307.635 604.43 307.28C605.744 306.925 606.77 306.028 607.337 304.892C606.282 304.193 604.948 303.934 603.635 304.289Z" fill="#C68F30"/>
<path d="M595.052 308.158C595.17 309.525 595.868 310.701 596.878 311.462C597.742 310.535 598.226 309.256 598.108 307.888C597.989 306.521 597.292 305.345 596.282 304.584C595.418 305.511 594.934 306.791 595.052 308.158Z" fill="#C68F30"/>
<path d="M600.163 309.629C598.808 309.749 597.643 310.452 596.889 311.472C597.807 312.344 599.075 312.833 600.43 312.713C601.785 312.593 602.95 311.89 603.704 310.87C602.786 309.998 601.518 309.509 600.163 309.629Z" fill="#C68F30"/>
<path d="M591.039 311.939C590.92 313.306 591.405 314.586 592.269 315.513C593.279 314.752 593.976 313.577 594.095 312.209C594.214 310.842 593.729 309.562 592.865 308.635C591.854 309.396 591.157 310.572 591.039 311.939Z" fill="#C68F30"/>
<path d="M595.819 314.283C594.464 314.163 593.196 314.652 592.278 315.524C593.032 316.544 594.197 317.247 595.552 317.367C596.907 317.487 598.175 316.998 599.093 316.126C598.339 315.106 597.174 314.402 595.819 314.283Z" fill="#C68F30"/>
<path d="M586.43 314.964C586.078 316.29 586.335 317.635 587.026 318.699C588.152 318.126 589.041 317.091 589.393 315.765C589.745 314.439 589.488 313.094 588.797 312.03C587.671 312.603 586.782 313.638 586.43 314.964Z" fill="#C68F30"/>
<path d="M590.734 318.11C589.42 317.755 588.088 318.014 587.033 318.712C587.6 319.848 588.626 320.745 589.94 321.1C591.254 321.455 592.587 321.196 593.641 320.498C593.073 319.362 592.047 318.465 590.734 318.11Z" fill="#C68F30"/>
<path d="M581.366 317.142C580.791 318.386 580.813 319.756 581.311 320.925C582.518 320.559 583.573 319.695 584.147 318.451C584.722 317.207 584.699 315.837 584.202 314.668C582.994 315.034 581.941 315.898 581.366 317.142Z" fill="#C68F30"/>
<path d="M585.064 320.994C583.831 320.414 582.474 320.436 581.316 320.938C581.679 322.156 582.535 323.22 583.768 323.8C585.001 324.38 586.358 324.359 587.516 323.856C587.153 322.638 586.297 321.575 585.064 320.994Z" fill="#C68F30"/>
<path d="M576.889 252.886C578.167 253.356 579.517 253.215 580.628 252.612C580.161 251.43 579.216 250.446 577.938 249.977C576.66 249.507 575.31 249.648 574.199 250.251C574.666 251.433 575.611 252.417 576.889 252.886Z" fill="#C68F30"/>
<path d="M606.984 286.918V287.28C606.984 287.982 606.942 288.684 606.9 289.387C606.795 290.77 606.626 292.153 606.352 293.494V293.515C606.226 294.196 606.078 294.856 605.909 295.515C605.572 296.898 605.129 298.26 604.623 299.58C604.391 300.176 604.138 300.772 603.885 301.367C603.274 302.708 602.599 304.006 601.819 305.261C601.819 305.261 601.819 305.282 601.798 305.282C601.524 305.793 601.208 306.282 600.87 306.771C600.026 308.005 599.12 309.197 598.129 310.325C597.77 310.751 597.391 311.155 596.99 311.559C595.978 312.623 594.903 313.644 593.764 314.581C593.321 314.943 592.857 315.304 592.393 315.624H592.372C591.739 316.113 591.128 316.56 590.453 316.986C589.926 317.348 589.357 317.688 588.787 318.007C588.26 318.326 587.712 318.624 587.142 318.901C585.94 319.518 584.717 320.093 583.41 320.582H583.389C583.115 320.688 582.841 320.773 582.566 320.88C582.208 321.008 581.849 321.135 581.427 321.284H581.406C578.686 322.22 574.785 323.54 570.695 326.008C570.526 326.093 570.358 326.199 570.168 326.327C568.587 327.306 566.963 328.455 565.403 329.859L565.002 329.455C566.52 328.114 568.08 326.965 569.641 326.008C569.81 325.88 569.978 325.774 570.168 325.667C574.385 323.092 578.433 321.709 581.238 320.751C581.66 320.602 582.039 320.474 582.377 320.347C582.482 320.304 582.567 320.283 582.672 320.241C584.127 319.709 585.518 319.113 586.868 318.432C587.416 318.134 587.943 317.857 588.471 317.538C588.492 317.538 588.492 317.517 588.492 317.517C589.167 317.134 589.82 316.73 590.453 316.304C590.98 315.963 591.507 315.602 592.013 315.219C592.54 314.836 593.046 314.432 593.552 314.006C594.606 313.134 595.618 312.197 596.567 311.197C597.031 310.708 597.452 310.239 597.895 309.729L597.916 309.708C598.802 308.665 599.624 307.58 600.383 306.474C600.762 305.942 601.1 305.389 601.437 304.814C602.154 303.644 602.786 302.431 603.356 301.175C603.588 300.643 603.82 300.132 604.031 299.579V299.558C604.558 298.217 605.001 296.834 605.359 295.43C605.507 294.898 605.612 294.366 605.718 293.834C605.718 293.813 605.718 293.813 605.718 293.791C606.034 292.365 606.245 290.876 606.35 289.386C606.371 288.939 606.392 288.492 606.413 288.024V288.003C606.434 287.641 606.434 287.301 606.434 286.918C606.434 285.684 606.371 284.449 606.223 283.237C606.181 282.769 606.118 282.301 606.054 281.833C605.822 280.258 605.485 278.726 605.021 277.215C604.894 276.726 604.747 276.236 604.578 275.768C604.072 274.3 603.481 272.895 602.786 271.512C602.554 271.001 602.28 270.512 602.006 270.022C601.289 268.745 600.509 267.511 599.623 266.319C599.265 265.808 598.885 265.319 598.484 264.829C597.598 263.744 596.65 262.701 595.638 261.722C595.174 261.275 594.71 260.828 594.204 260.424L594.183 260.403C593.15 259.488 592.075 258.658 590.936 257.892C590.43 257.509 589.903 257.169 589.376 256.849C588.195 256.104 586.972 255.444 585.686 254.87C585.201 254.615 584.716 254.402 584.21 254.21L584.189 254.189C582.903 253.657 581.574 253.189 580.204 252.806C579.276 252.529 578.327 252.295 577.357 252.104L577.463 251.572C578.496 251.785 579.508 252.04 580.499 252.338C581.701 252.657 582.86 253.061 583.999 253.53H584.02C584.653 253.785 585.264 254.062 585.876 254.339C587.204 254.956 588.491 255.658 589.734 256.424C590.24 256.722 590.725 257.062 591.21 257.382C592.454 258.254 593.635 259.148 594.752 260.148L594.773 260.169C595.174 260.531 595.574 260.914 595.975 261.297C597.05 262.318 598.041 263.404 598.969 264.574C599.349 265.021 599.707 265.489 600.044 265.957C600.887 267.085 601.646 268.255 602.342 269.489V269.51C602.679 270.063 602.996 270.638 603.27 271.234C603.902 272.468 604.451 273.745 604.893 275.064V275.085C605.146 275.745 605.357 276.383 605.547 277.043C605.948 278.341 606.243 279.682 606.475 281.022C606.601 281.724 606.707 282.426 606.77 283.129C606.921 284.385 606.984 285.641 606.984 286.918Z" fill="#C68F30"/>
<path d="M556.926 274.405C560.198 272.798 562.782 271.879 566.972 266.884H577.191V299.377H582.53V307.012H559.567V299.377H565.308V278.079L559.567 280.777L556.926 274.405Z" fill="#C68F30"/>
<path opacity="0.5" d="M405.551 251.738C386.567 257.469 399.2 291.707 384.46 319.605C369.721 347.503 369.678 358.503 380.449 357.003C391.22 355.503 408.516 334.482 413.368 297.992C418.22 261.502 411.622 249.906 405.551 251.738Z" fill="white"/>
<path opacity="0.5" d="M362.71 374.58C367.723 374.58 371.787 370.516 371.787 365.503C371.787 360.49 367.723 356.426 362.71 356.426C357.697 356.426 353.633 360.49 353.633 365.503C353.633 370.516 357.697 374.58 362.71 374.58Z" fill="white"/>
</g>
<defs>
<clipPath id="clip0_531_8574">
<rect width="651" height="592" fill="white"/>
</clipPath>
</defs>
</svg>
