<svg width="1019" height="1055" viewBox="0 0 1019 1055" fill="none" xmlns="http://www.w3.org/2000/svg">
<g clip-path="url(#clip0_457_6688)">
<path opacity="0.11" d="M501.198 1053.53C728.204 1053.53 912.229 1042.21 912.229 1028.23C912.229 1014.26 728.204 1002.93 501.198 1002.93C274.192 1002.93 90.167 1014.26 90.167 1028.23C90.167 1042.21 274.192 1053.53 501.198 1053.53Z" fill="#2A94F4"/>
<path opacity="0.11" d="M188.031 1011.53C188.031 1011.53 15.3978 982.518 0.815973 708.706C-13.7659 434.894 165.62 306.145 331.011 362.9C387.381 382.242 446.393 330.274 372.408 251.246C292.257 165.674 402.844 -81.6648 811.428 27.3519C1122.93 110.482 1020.86 328.222 910.565 487.254C810.352 631.632 1029.18 588.651 1014.2 842.437C997.078 1133.83 188.031 1011.53 188.031 1011.53Z" fill="#2A94F4"/>
<path d="M346.473 599.787H127.159L131.367 347.759H343.341L346.473 599.787Z" fill="#F7F7F7"/>
<path d="M588.689 599.787H115.905V631.633H588.689V599.787Z" fill="#606060"/>
<path d="M435.921 720.038H268.573V738.598H435.921V720.038Z" fill="#606060"/>
<path d="M115.905 1032.14L319.562 612.681L340.896 623.036L142.133 1032.24L115.905 1032.14Z" fill="#606060"/>
<path d="M588.591 1032.14L384.934 612.682L363.698 623.036L562.363 1032.24L588.591 1032.14Z" fill="#606060"/>
<path d="M238.528 550.065C284.524 550.065 321.811 515.82 321.811 473.577C321.811 431.334 284.524 397.09 238.528 397.09C192.533 397.09 155.246 431.334 155.246 473.577C155.246 515.82 192.533 550.065 238.528 550.065Z" fill="#2A94F4"/>
<path d="M238.528 473.577H321.811C321.811 489.695 316.233 505.423 305.957 518.415C295.681 531.505 281.099 541.175 264.462 546.157L238.528 473.577Z" fill="#CCE9FF"/>
<path d="M238.529 473.577L182.941 416.627C198.208 404.123 217.977 397.09 238.529 397.09C284.231 397.09 321.811 431.572 321.811 473.577C321.811 473.675 321.811 473.87 321.811 473.968L238.529 473.577Z" fill="#0B4870"/>
<path d="M556.589 599.787H371.332L374.855 468.693H553.849L556.589 599.787Z" fill="#F7F7F7"/>
<path d="M441.794 507.181H421.634V584.157H441.794V507.181Z" fill="#0B4870"/>
<path d="M476.34 516.364H456.18V584.255H476.34V516.364Z" fill="#0B4870"/>
<path d="M510.789 497.413H490.629V584.157H510.789V497.413Z" fill="#FFBE55"/>
<path d="M406.759 488.915H404.606V585.232H406.759V488.915Z" fill="#0B4870"/>
<path d="M539.17 584.157H404.606V585.818H539.17V584.157Z" fill="#0B4870"/>
<path d="M151.919 557.88H144.58V565.207H151.919V557.88Z" fill="#0B4870"/>
<path d="M184.312 560.42H156.029V562.764H184.312V560.42Z" fill="#0B4870"/>
<path d="M184.312 573.021H156.029V575.365H184.312V573.021Z" fill="#0B4870"/>
<path d="M184.312 585.721H156.029V588.065H184.312V585.721Z" fill="#0B4870"/>
<path d="M151.919 570.579H144.58V577.906H151.919V570.579Z" fill="#2A94F4"/>
<path d="M151.919 583.181H144.58V590.508H151.919V583.181Z" fill="#CCE9FF"/>
<path d="M681.465 219.987L553.654 179.936C574.695 112.826 645.451 73.1658 713.858 90.163C785.202 107.844 829.241 181.01 811.527 252.223C793.814 323.435 720.513 367.393 649.17 349.712C634.392 346.098 620.398 339.944 607.675 331.543L681.465 219.987Z" fill="#FFBE55"/>
<path d="M648.19 233.076L572.932 347.758C548.075 331.543 529.187 307.61 519.009 279.77C508.929 251.832 508.146 221.452 516.856 193.025L648.19 233.076Z" fill="#FFBE55"/>
<path d="M730.005 547.33L705.343 529.161L898.919 267.169C902.736 261.992 910.076 260.819 915.36 264.727L921.134 269.025C926.321 272.835 927.495 280.161 923.581 285.436L730.005 547.33Z" fill="#F2F2F2"/>
<path d="M742.434 559.15L718.849 539.515L927.789 289.539C931.9 284.557 939.337 283.873 944.328 288.073L949.809 292.664C954.8 296.767 955.485 304.191 951.277 309.173L742.434 559.15Z" fill="#F7F7F7"/>
<path d="M924.345 278.778C925.685 276.751 922.236 272.122 916.641 268.438C911.047 264.754 905.426 263.41 904.087 265.436C902.747 267.463 906.197 272.092 911.791 275.776C917.385 279.46 923.006 280.804 924.345 278.778Z" fill="#D3D3D3"/>
<path d="M952.273 302.832C953.613 300.805 950.163 296.176 944.569 292.492C938.975 288.808 933.354 287.464 932.015 289.491C930.675 291.517 934.124 296.146 939.719 299.831C945.313 303.515 950.934 304.858 952.273 302.832Z" fill="#D3D3D3"/>
<path d="M815.049 982.712L818.279 1002.74C819.551 1010.75 814.853 1018.47 807.122 1021.01L772.674 1032.34H853.021L843.332 982.712H815.049Z" fill="#FCD2B1"/>
<path d="M850.965 1021L811.232 1018.95C811.232 1018.95 761.223 1026.67 760.93 1037.51H860.067L850.965 1021Z" fill="#0E538C"/>
<path d="M601.704 982.712L593.484 1007.82C591.722 1013.29 587.318 1017.59 581.838 1019.44L542.79 1032.34H623.137L634.489 982.712H601.704Z" fill="#FCD2B1"/>
<path d="M624.702 1021L581.25 1018.95C581.25 1018.95 531.241 1026.67 530.948 1037.51H630.085L624.702 1021Z" fill="#0E538C"/>
<path d="M804.283 519.587C804.283 519.587 823.856 532.579 829.532 582.398C835.208 632.218 827.281 668.361 831.783 697.471C836.285 726.582 845.093 991.113 845.093 991.113H802.424L731.276 519.88L804.283 519.587Z" fill="#FFBE55"/>
<path d="M711.411 514.215H786.962C786.962 514.215 796.259 570.384 779.916 603.206C763.475 636.028 754.667 644.82 749.969 663.868C745.272 682.917 631.553 991.114 631.553 991.114H595.147L711.411 514.215Z" fill="#FFBE55"/>
<path d="M820.333 355.964C820.333 355.964 896.276 464.004 887.566 493.212C878.856 522.419 791.659 490.086 791.659 490.086V471.916L851.356 479.438L806.045 402.071L820.333 355.964Z" fill="#FCD2B1"/>
<path d="M691.053 412.426C695.555 389.177 722.566 354.401 722.566 354.401H829.531L801.347 500.831C799.487 510.209 822.779 519.978 797.628 519.978H710.333C706.027 519.978 702.601 516.559 702.601 512.26V459.51C702.601 452.477 700.644 445.444 696.632 439.583C689.977 429.521 689.781 418.971 691.053 412.426Z" fill="#2A94F4"/>
<path d="M739.791 274.69L730.2 297.353C730.2 297.353 724.524 314.155 727.851 324.021C731.668 335.352 748.697 335.255 748.697 335.255L743.608 362.9H786.962V275.471L739.791 274.69Z" fill="#FFE3CA"/>
<path d="M742.238 283.97C734.409 278.695 732.941 267.95 739.008 260.721C747.522 250.659 762.202 238.547 783.047 240.012C803.599 241.477 823.368 254.078 823.857 283.482C824.15 303.116 829.044 316.695 842.94 341.311C855.956 364.463 835.111 390.545 838.047 411.938C840.983 433.331 844.506 432.94 845.093 451.5C847.344 524.471 776.882 521.931 741.063 519.391C705.93 516.852 692.914 444.467 717.087 416.627C741.259 388.786 733.136 356.941 735.583 343.851C741.455 312.103 756.526 305.852 754.177 289.929C749.773 288.561 745.663 286.315 742.238 283.97Z" fill="#0E538C"/>
<path d="M532.024 242.551C531.828 220.475 549.835 229.169 550.814 233.467C551.01 234.346 553.163 234.932 554.044 241.379C554.924 247.729 559.622 256.423 560.503 254.176C562.264 249.682 564.417 243.138 565.983 244.603C570.876 249.487 568.136 258.67 565.69 264.335C564.319 267.559 564.809 271.271 566.962 274.006L631.455 354.401H721.294C739.791 358.015 730.689 396.503 708.474 395.624C688.999 394.843 638.599 392.694 616.579 378.92C594.56 365.049 546.802 269.317 546.802 269.317C537.015 261.893 532.024 244.31 532.024 242.551Z" fill="#FCD2B1"/>
</g>
<defs>
<clipPath id="clip0_457_6688">
<rect width="1019" height="1055" fill="white"/>
</clipPath>
</defs>
</svg>
