<svg width="56" height="56" viewBox="0 0 56 56" fill="none" xmlns="http://www.w3.org/2000/svg">
<g clip-path="url(#clip0_674_14197)">
<path d="M21 27.9407H10.5V31.3844H21V27.9407Z" fill="#FFB142"/>
<path d="M28 21.0532H10.5V24.4969H28V21.0532Z" fill="white"/>
<path d="M28 14.1658H10.5V17.6095H28V14.1658Z" fill="#FFB142"/>
<path d="M24.5 45.1592H7V10.722H49V27.9406H52.5V10.722C52.5 9.8087 52.1313 8.93278 51.4749 8.28696C50.8185 7.64114 49.9283 7.27832 49 7.27832H7C6.07174 7.27832 5.1815 7.64114 4.52513 8.28696C3.86875 8.93278 3.5 9.8087 3.5 10.722V45.1592C3.5 46.0725 3.86875 46.9484 4.52513 47.5942C5.1815 48.2401 6.07174 48.6029 7 48.6029H24.5V45.1592Z" fill="#FFB142"/>
<path d="M38.5 44.4532L33.9675 39.9936L31.5 42.4214L38.5 49.3089L52.5 35.534L50.0325 33.1062L38.5 44.4532Z" fill="white"/>
</g>
<defs>
<clipPath id="clip0_674_14197">
<rect width="56" height="55.0994" fill="white" transform="translate(0 0.390869)"/>
</clipPath>
</defs>
</svg>
