<svg width="858" height="747" viewBox="0 0 858 747" fill="none" xmlns="http://www.w3.org/2000/svg">
<circle cx="2" cy="2" r="2" fill="#E0E0E0"/>
<circle cx="34" cy="2" r="2" fill="#E0E0E0"/>
<circle cx="66" cy="2" r="2" fill="#E0E0E0"/>
<circle cx="98" cy="2" r="2" fill="#E0E0E0"/>
<circle cx="130" cy="2" r="2" fill="#E0E0E0"/>
<circle cx="162" cy="2" r="2" fill="#E0E0E0"/>
<circle cx="194" cy="2" r="2" fill="#E0E0E0"/>
<circle cx="226" cy="2" r="2" fill="#E0E0E0"/>
<circle cx="258" cy="2" r="2" fill="#E0E0E0"/>
<circle cx="290" cy="2" r="2" fill="#E0E0E0"/>
<circle cx="322" cy="2" r="2" fill="#E0E0E0"/>
<circle cx="354" cy="2" r="2" fill="#E0E0E0"/>
<circle cx="386" cy="2" r="2" fill="#E0E0E0"/>
<circle cx="418" cy="2" r="2" fill="#E0E0E0"/>
<circle cx="450" cy="2" r="2" fill="#E0E0E0"/>
<circle cx="482" cy="2" r="2" fill="#E0E0E0"/>
<circle cx="514" cy="2" r="2" fill="#E0E0E0"/>
<circle cx="546" cy="2" r="2" fill="#E0E0E0"/>
<circle cx="578" cy="2" r="2" fill="#E0E0E0"/>
<circle cx="610" cy="2" r="2" fill="#E0E0E0"/>
<circle cx="642" cy="2" r="2" fill="#E0E0E0"/>
<circle cx="674" cy="2" r="2" fill="#E0E0E0"/>
<circle cx="706" cy="2" r="2" fill="#E0E0E0"/>
<circle cx="738" cy="2" r="2" fill="#E0E0E0"/>
<circle cx="770" cy="2" r="2" fill="#E0E0E0"/>
<circle cx="802" cy="2" r="2" fill="#E0E0E0"/>
<circle cx="834" cy="2" r="2" fill="#E0E0E0"/>
<circle cx="2" cy="34" r="2" fill="#E0E0E0"/>
<circle cx="34" cy="34" r="2" fill="#E0E0E0"/>
<circle cx="66" cy="34" r="2" fill="#E0E0E0"/>
<circle cx="98" cy="34" r="2" fill="#E0E0E0"/>
<circle cx="130" cy="34" r="2" fill="#E0E0E0"/>
<circle cx="162" cy="34" r="2" fill="#E0E0E0"/>
<circle cx="194" cy="34" r="2" fill="#E0E0E0"/>
<circle cx="226" cy="34" r="2" fill="#E0E0E0"/>
<circle cx="258" cy="34" r="2" fill="#E0E0E0"/>
<circle cx="290" cy="34" r="2" fill="#E0E0E0"/>
<circle cx="322" cy="34" r="2" fill="#E0E0E0"/>
<circle cx="354" cy="34" r="2" fill="#E0E0E0"/>
<circle cx="386" cy="34" r="2" fill="#E0E0E0"/>
<circle cx="418" cy="34" r="2" fill="#E0E0E0"/>
<circle cx="450" cy="34" r="2" fill="#E0E0E0"/>
<circle cx="482" cy="34" r="2" fill="#E0E0E0"/>
<circle cx="514" cy="34" r="2" fill="#E0E0E0"/>
<circle cx="546" cy="34" r="2" fill="#E0E0E0"/>
<circle cx="578" cy="34" r="2" fill="#E0E0E0"/>
<circle cx="610" cy="34" r="2" fill="#E0E0E0"/>
<circle cx="642" cy="34" r="2" fill="#E0E0E0"/>
<circle cx="674" cy="34" r="2" fill="#E0E0E0"/>
<circle cx="706" cy="34" r="2" fill="#E0E0E0"/>
<circle cx="738" cy="34" r="2" fill="#E0E0E0"/>
<circle cx="770" cy="34" r="2" fill="#E0E0E0"/>
<circle cx="802" cy="34" r="2" fill="#E0E0E0"/>
<circle cx="834" cy="34" r="2" fill="#E0E0E0"/>
<circle cx="2" cy="66" r="2" fill="#E0E0E0"/>
<circle cx="34" cy="66" r="2" fill="#E0E0E0"/>
<circle cx="66" cy="66" r="2" fill="#E0E0E0"/>
<circle cx="98" cy="66" r="2" fill="#E0E0E0"/>
<circle cx="130" cy="66" r="2" fill="#E0E0E0"/>
<circle cx="162" cy="66" r="2" fill="#E0E0E0"/>
<circle cx="194" cy="66" r="2" fill="#E0E0E0"/>
<circle cx="226" cy="66" r="2" fill="#E0E0E0"/>
<circle cx="258" cy="66" r="2" fill="#E0E0E0"/>
<circle cx="290" cy="66" r="2" fill="#E0E0E0"/>
<circle cx="322" cy="66" r="2" fill="#E0E0E0"/>
<circle cx="354" cy="66" r="2" fill="#E0E0E0"/>
<circle cx="386" cy="66" r="2" fill="#E0E0E0"/>
<circle cx="418" cy="66" r="2" fill="#E0E0E0"/>
<circle cx="450" cy="66" r="2" fill="#E0E0E0"/>
<circle cx="482" cy="66" r="2" fill="#E0E0E0"/>
<circle cx="514" cy="66" r="2" fill="#E0E0E0"/>
<circle cx="546" cy="66" r="2" fill="#E0E0E0"/>
<circle cx="578" cy="66" r="2" fill="#E0E0E0"/>
<circle cx="610" cy="66" r="2" fill="#E0E0E0"/>
<circle cx="642" cy="66" r="2" fill="#E0E0E0"/>
<circle cx="674" cy="66" r="2" fill="#E0E0E0"/>
<circle cx="706" cy="66" r="2" fill="#E0E0E0"/>
<circle cx="738" cy="66" r="2" fill="#E0E0E0"/>
<circle cx="770" cy="66" r="2" fill="#E0E0E0"/>
<circle cx="802" cy="66" r="2" fill="#E0E0E0"/>
<circle cx="834" cy="66" r="2" fill="#E0E0E0"/>
<circle cx="2" cy="98" r="2" fill="#E0E0E0"/>
<circle cx="34" cy="98" r="2" fill="#E0E0E0"/>
<circle cx="66" cy="98" r="2" fill="#E0E0E0"/>
<circle cx="98" cy="98" r="2" fill="#E0E0E0"/>
<circle cx="130" cy="98" r="2" fill="#E0E0E0"/>
<circle cx="162" cy="98" r="2" fill="#E0E0E0"/>
<circle cx="194" cy="98" r="2" fill="#E0E0E0"/>
<circle cx="226" cy="98" r="2" fill="#E0E0E0"/>
<circle cx="258" cy="98" r="2" fill="#E0E0E0"/>
<circle cx="290" cy="98" r="2" fill="#E0E0E0"/>
<circle cx="322" cy="98" r="2" fill="#E0E0E0"/>
<circle cx="354" cy="98" r="2" fill="#E0E0E0"/>
<circle cx="386" cy="98" r="2" fill="#E0E0E0"/>
<circle cx="418" cy="98" r="2" fill="#E0E0E0"/>
<circle cx="450" cy="98" r="2" fill="#E0E0E0"/>
<circle cx="482" cy="98" r="2" fill="#E0E0E0"/>
<circle cx="514" cy="98" r="2" fill="#E0E0E0"/>
<circle cx="546" cy="98" r="2" fill="#E0E0E0"/>
<circle cx="578" cy="98" r="2" fill="#E0E0E0"/>
<circle cx="610" cy="98" r="2" fill="#E0E0E0"/>
<circle cx="642" cy="98" r="2" fill="#E0E0E0"/>
<circle cx="674" cy="98" r="2" fill="#E0E0E0"/>
<circle cx="706" cy="98" r="2" fill="#E0E0E0"/>
<circle cx="738" cy="98" r="2" fill="#E0E0E0"/>
<circle cx="770" cy="98" r="2" fill="#E0E0E0"/>
<circle cx="802" cy="98" r="2" fill="#E0E0E0"/>
<circle cx="834" cy="98" r="2" fill="#E0E0E0"/>
<circle cx="2" cy="130" r="2" fill="#E0E0E0"/>
<circle cx="34" cy="130" r="2" fill="#E0E0E0"/>
<circle cx="66" cy="130" r="2" fill="#E0E0E0"/>
<circle cx="98" cy="130" r="2" fill="#E0E0E0"/>
<circle cx="130" cy="130" r="2" fill="#E0E0E0"/>
<circle cx="162" cy="130" r="2" fill="#E0E0E0"/>
<circle cx="194" cy="130" r="2" fill="#E0E0E0"/>
<circle cx="226" cy="130" r="2" fill="#E0E0E0"/>
<circle cx="258" cy="130" r="2" fill="#E0E0E0"/>
<circle cx="290" cy="130" r="2" fill="#E0E0E0"/>
<circle cx="322" cy="130" r="2" fill="#E0E0E0"/>
<circle cx="354" cy="130" r="2" fill="#E0E0E0"/>
<circle cx="386" cy="130" r="2" fill="#E0E0E0"/>
<circle cx="418" cy="130" r="2" fill="#E0E0E0"/>
<circle cx="450" cy="130" r="2" fill="#E0E0E0"/>
<circle cx="482" cy="130" r="2" fill="#E0E0E0"/>
<circle cx="514" cy="130" r="2" fill="#E0E0E0"/>
<circle cx="546" cy="130" r="2" fill="#E0E0E0"/>
<circle cx="578" cy="130" r="2" fill="#E0E0E0"/>
<circle cx="610" cy="130" r="2" fill="#E0E0E0"/>
<circle cx="642" cy="130" r="2" fill="#E0E0E0"/>
<circle cx="674" cy="130" r="2" fill="#E0E0E0"/>
<circle cx="706" cy="130" r="2" fill="#E0E0E0"/>
<circle cx="738" cy="130" r="2" fill="#E0E0E0"/>
<circle cx="770" cy="130" r="2" fill="#E0E0E0"/>
<circle cx="802" cy="130" r="2" fill="#E0E0E0"/>
<circle cx="834" cy="130" r="2" fill="#E0E0E0"/>
<circle cx="2" cy="162" r="2" fill="#E0E0E0"/>
<circle cx="34" cy="162" r="2" fill="#E0E0E0"/>
<circle cx="66" cy="162" r="2" fill="#E0E0E0"/>
<circle cx="98" cy="162" r="2" fill="#E0E0E0"/>
<circle cx="130" cy="162" r="2" fill="#E0E0E0"/>
<circle cx="162" cy="162" r="2" fill="#E0E0E0"/>
<circle cx="194" cy="162" r="2" fill="#E0E0E0"/>
<circle cx="226" cy="162" r="2" fill="#E0E0E0"/>
<circle cx="258" cy="162" r="2" fill="#E0E0E0"/>
<circle cx="290" cy="162" r="2" fill="#E0E0E0"/>
<circle cx="322" cy="162" r="2" fill="#E0E0E0"/>
<circle cx="354" cy="162" r="2" fill="#E0E0E0"/>
<circle cx="386" cy="162" r="2" fill="#E0E0E0"/>
<circle cx="418" cy="162" r="2" fill="#E0E0E0"/>
<circle cx="450" cy="162" r="2" fill="#E0E0E0"/>
<circle cx="482" cy="162" r="2" fill="#E0E0E0"/>
<circle cx="514" cy="162" r="2" fill="#E0E0E0"/>
<circle cx="546" cy="162" r="2" fill="#E0E0E0"/>
<circle cx="578" cy="162" r="2" fill="#E0E0E0"/>
<circle cx="610" cy="162" r="2" fill="#E0E0E0"/>
<circle cx="642" cy="162" r="2" fill="#E0E0E0"/>
<circle cx="674" cy="162" r="2" fill="#E0E0E0"/>
<circle cx="706" cy="162" r="2" fill="#E0E0E0"/>
<circle cx="738" cy="162" r="2" fill="#E0E0E0"/>
<circle cx="770" cy="162" r="2" fill="#E0E0E0"/>
<circle cx="802" cy="162" r="2" fill="#E0E0E0"/>
<circle cx="834" cy="162" r="2" fill="#E0E0E0"/>
<circle cx="2" cy="194" r="2" fill="#E0E0E0"/>
<circle cx="34" cy="194" r="2" fill="#E0E0E0"/>
<circle cx="66" cy="194" r="2" fill="#E0E0E0"/>
<circle cx="98" cy="194" r="2" fill="#E0E0E0"/>
<circle cx="130" cy="194" r="2" fill="#E0E0E0"/>
<circle cx="162" cy="194" r="2" fill="#E0E0E0"/>
<circle cx="194" cy="194" r="2" fill="#E0E0E0"/>
<circle cx="226" cy="194" r="2" fill="#E0E0E0"/>
<circle cx="258" cy="194" r="2" fill="#E0E0E0"/>
<circle cx="290" cy="194" r="2" fill="#E0E0E0"/>
<circle cx="322" cy="194" r="2" fill="#E0E0E0"/>
<circle cx="354" cy="194" r="2" fill="#E0E0E0"/>
<circle cx="386" cy="194" r="2" fill="#E0E0E0"/>
<circle cx="418" cy="194" r="2" fill="#E0E0E0"/>
<circle cx="450" cy="194" r="2" fill="#E0E0E0"/>
<circle cx="482" cy="194" r="2" fill="#E0E0E0"/>
<circle cx="514" cy="194" r="2" fill="#E0E0E0"/>
<circle cx="546" cy="194" r="2" fill="#E0E0E0"/>
<circle cx="578" cy="194" r="2" fill="#E0E0E0"/>
<circle cx="610" cy="194" r="2" fill="#E0E0E0"/>
<circle cx="642" cy="194" r="2" fill="#E0E0E0"/>
<circle cx="674" cy="194" r="2" fill="#E0E0E0"/>
<circle cx="706" cy="194" r="2" fill="#E0E0E0"/>
<circle cx="738" cy="194" r="2" fill="#E0E0E0"/>
<circle cx="770" cy="194" r="2" fill="#E0E0E0"/>
<circle cx="802" cy="194" r="2" fill="#E0E0E0"/>
<circle cx="834" cy="194" r="2" fill="#E0E0E0"/>
<circle cx="2" cy="226" r="2" fill="#E0E0E0"/>
<circle cx="34" cy="226" r="2" fill="#E0E0E0"/>
<circle cx="66" cy="226" r="2" fill="#E0E0E0"/>
<circle cx="98" cy="226" r="2" fill="#E0E0E0"/>
<circle cx="130" cy="226" r="2" fill="#E0E0E0"/>
<circle cx="162" cy="226" r="2" fill="#E0E0E0"/>
<circle cx="194" cy="226" r="2" fill="#E0E0E0"/>
<circle cx="226" cy="226" r="2" fill="#E0E0E0"/>
<circle cx="258" cy="226" r="2" fill="#E0E0E0"/>
<circle cx="290" cy="226" r="2" fill="#E0E0E0"/>
<circle cx="322" cy="226" r="2" fill="#E0E0E0"/>
<circle cx="354" cy="226" r="2" fill="#E0E0E0"/>
<circle cx="386" cy="226" r="2" fill="#E0E0E0"/>
<circle cx="418" cy="226" r="2" fill="#E0E0E0"/>
<circle cx="450" cy="226" r="2" fill="#E0E0E0"/>
<circle cx="482" cy="226" r="2" fill="#E0E0E0"/>
<circle cx="514" cy="226" r="2" fill="#E0E0E0"/>
<circle cx="546" cy="226" r="2" fill="#E0E0E0"/>
<circle cx="578" cy="226" r="2" fill="#E0E0E0"/>
<circle cx="610" cy="226" r="2" fill="#E0E0E0"/>
<circle cx="642" cy="226" r="2" fill="#E0E0E0"/>
<circle cx="674" cy="226" r="2" fill="#E0E0E0"/>
<circle cx="706" cy="226" r="2" fill="#E0E0E0"/>
<circle cx="738" cy="226" r="2" fill="#E0E0E0"/>
<circle cx="770" cy="226" r="2" fill="#E0E0E0"/>
<circle cx="802" cy="226" r="2" fill="#E0E0E0"/>
<circle cx="834" cy="226" r="2" fill="#E0E0E0"/>
<circle cx="2" cy="258" r="2" fill="#E0E0E0"/>
<circle cx="34" cy="258" r="2" fill="#E0E0E0"/>
<circle cx="66" cy="258" r="2" fill="#E0E0E0"/>
<circle cx="98" cy="258" r="2" fill="#E0E0E0"/>
<circle cx="130" cy="258" r="2" fill="#E0E0E0"/>
<circle cx="162" cy="258" r="2" fill="#E0E0E0"/>
<circle cx="194" cy="258" r="2" fill="#E0E0E0"/>
<circle cx="226" cy="258" r="2" fill="#E0E0E0"/>
<circle cx="258" cy="258" r="2" fill="#E0E0E0"/>
<circle cx="290" cy="258" r="2" fill="#E0E0E0"/>
<circle cx="322" cy="258" r="2" fill="#E0E0E0"/>
<circle cx="354" cy="258" r="2" fill="#E0E0E0"/>
<circle cx="386" cy="258" r="2" fill="#E0E0E0"/>
<circle cx="418" cy="258" r="2" fill="#E0E0E0"/>
<circle cx="450" cy="258" r="2" fill="#E0E0E0"/>
<circle cx="482" cy="258" r="2" fill="#E0E0E0"/>
<circle cx="514" cy="258" r="2" fill="#E0E0E0"/>
<circle cx="546" cy="258" r="2" fill="#E0E0E0"/>
<circle cx="578" cy="258" r="2" fill="#E0E0E0"/>
<circle cx="610" cy="258" r="2" fill="#E0E0E0"/>
<circle cx="642" cy="258" r="2" fill="#E0E0E0"/>
<circle cx="674" cy="258" r="2" fill="#E0E0E0"/>
<circle cx="706" cy="258" r="2" fill="#E0E0E0"/>
<circle cx="738" cy="258" r="2" fill="#E0E0E0"/>
<circle cx="770" cy="258" r="2" fill="#E0E0E0"/>
<circle cx="802" cy="258" r="2" fill="#E0E0E0"/>
<circle cx="834" cy="258" r="2" fill="#E0E0E0"/>
<circle cx="2" cy="290" r="2" fill="#E0E0E0"/>
<circle cx="34" cy="290" r="2" fill="#E0E0E0"/>
<circle cx="66" cy="290" r="2" fill="#E0E0E0"/>
<circle cx="98" cy="290" r="2" fill="#E0E0E0"/>
<circle cx="130" cy="290" r="2" fill="#E0E0E0"/>
<circle cx="162" cy="290" r="2" fill="#E0E0E0"/>
<circle cx="194" cy="290" r="2" fill="#E0E0E0"/>
<circle cx="226" cy="290" r="2" fill="#E0E0E0"/>
<circle cx="258" cy="290" r="2" fill="#E0E0E0"/>
<circle cx="290" cy="290" r="2" fill="#E0E0E0"/>
<circle cx="322" cy="290" r="2" fill="#E0E0E0"/>
<circle cx="354" cy="290" r="2" fill="#E0E0E0"/>
<circle cx="386" cy="290" r="2" fill="#E0E0E0"/>
<circle cx="418" cy="290" r="2" fill="#E0E0E0"/>
<circle cx="450" cy="290" r="2" fill="#E0E0E0"/>
<circle cx="482" cy="290" r="2" fill="#E0E0E0"/>
<circle cx="514" cy="290" r="2" fill="#E0E0E0"/>
<circle cx="546" cy="290" r="2" fill="#E0E0E0"/>
<circle cx="578" cy="290" r="2" fill="#E0E0E0"/>
<circle cx="610" cy="290" r="2" fill="#E0E0E0"/>
<circle cx="642" cy="290" r="2" fill="#E0E0E0"/>
<circle cx="674" cy="290" r="2" fill="#E0E0E0"/>
<circle cx="706" cy="290" r="2" fill="#E0E0E0"/>
<circle cx="738" cy="290" r="2" fill="#E0E0E0"/>
<circle cx="770" cy="290" r="2" fill="#E0E0E0"/>
<circle cx="802" cy="290" r="2" fill="#E0E0E0"/>
<circle cx="834" cy="290" r="2" fill="#E0E0E0"/>
<circle cx="2" cy="322" r="2" fill="#E0E0E0"/>
<circle cx="34" cy="322" r="2" fill="#E0E0E0"/>
<circle cx="66" cy="322" r="2" fill="#E0E0E0"/>
<circle cx="98" cy="322" r="2" fill="#E0E0E0"/>
<circle cx="130" cy="322" r="2" fill="#E0E0E0"/>
<circle cx="162" cy="322" r="2" fill="#E0E0E0"/>
<circle cx="194" cy="322" r="2" fill="#E0E0E0"/>
<circle cx="226" cy="322" r="2" fill="#E0E0E0"/>
<circle cx="258" cy="322" r="2" fill="#E0E0E0"/>
<circle cx="290" cy="322" r="2" fill="#E0E0E0"/>
<circle cx="322" cy="322" r="2" fill="#E0E0E0"/>
<circle cx="354" cy="322" r="2" fill="#E0E0E0"/>
<circle cx="386" cy="322" r="2" fill="#E0E0E0"/>
<circle cx="418" cy="322" r="2" fill="#E0E0E0"/>
<circle cx="450" cy="322" r="2" fill="#E0E0E0"/>
<circle cx="482" cy="322" r="2" fill="#E0E0E0"/>
<circle cx="514" cy="322" r="2" fill="#E0E0E0"/>
<circle cx="546" cy="322" r="2" fill="#E0E0E0"/>
<circle cx="578" cy="322" r="2" fill="#E0E0E0"/>
<circle cx="610" cy="322" r="2" fill="#E0E0E0"/>
<circle cx="642" cy="322" r="2" fill="#E0E0E0"/>
<circle cx="674" cy="322" r="2" fill="#E0E0E0"/>
<circle cx="706" cy="322" r="2" fill="#E0E0E0"/>
<circle cx="738" cy="322" r="2" fill="#E0E0E0"/>
<circle cx="770" cy="322" r="2" fill="#E0E0E0"/>
<circle cx="802" cy="322" r="2" fill="#E0E0E0"/>
<circle cx="834" cy="322" r="2" fill="#E0E0E0"/>
<circle cx="2" cy="354" r="2" fill="#E0E0E0"/>
<circle cx="34" cy="354" r="2" fill="#E0E0E0"/>
<circle cx="66" cy="354" r="2" fill="#E0E0E0"/>
<circle cx="98" cy="354" r="2" fill="#E0E0E0"/>
<circle cx="130" cy="354" r="2" fill="#E0E0E0"/>
<circle cx="162" cy="354" r="2" fill="#E0E0E0"/>
<circle cx="194" cy="354" r="2" fill="#E0E0E0"/>
<circle cx="226" cy="354" r="2" fill="#E0E0E0"/>
<circle cx="258" cy="354" r="2" fill="#E0E0E0"/>
<circle cx="290" cy="354" r="2" fill="#E0E0E0"/>
<circle cx="322" cy="354" r="2" fill="#E0E0E0"/>
<circle cx="354" cy="354" r="2" fill="#E0E0E0"/>
<circle cx="386" cy="354" r="2" fill="#E0E0E0"/>
<circle cx="418" cy="354" r="2" fill="#E0E0E0"/>
<circle cx="450" cy="354" r="2" fill="#E0E0E0"/>
<circle cx="482" cy="354" r="2" fill="#E0E0E0"/>
<circle cx="514" cy="354" r="2" fill="#E0E0E0"/>
<circle cx="546" cy="354" r="2" fill="#E0E0E0"/>
<circle cx="578" cy="354" r="2" fill="#E0E0E0"/>
<circle cx="610" cy="354" r="2" fill="#E0E0E0"/>
<circle cx="642" cy="354" r="2" fill="#E0E0E0"/>
<circle cx="674" cy="354" r="2" fill="#E0E0E0"/>
<circle cx="706" cy="354" r="2" fill="#E0E0E0"/>
<circle cx="738" cy="354" r="2" fill="#E0E0E0"/>
<circle cx="770" cy="354" r="2" fill="#E0E0E0"/>
<circle cx="802" cy="354" r="2" fill="#E0E0E0"/>
<circle cx="834" cy="354" r="2" fill="#E0E0E0"/>
<circle cx="2" cy="386" r="2" fill="#E0E0E0"/>
<circle cx="34" cy="386" r="2" fill="#E0E0E0"/>
<circle cx="66" cy="386" r="2" fill="#E0E0E0"/>
<circle cx="98" cy="386" r="2" fill="#E0E0E0"/>
<circle cx="130" cy="386" r="2" fill="#E0E0E0"/>
<circle cx="162" cy="386" r="2" fill="#E0E0E0"/>
<circle cx="194" cy="386" r="2" fill="#E0E0E0"/>
<circle cx="226" cy="386" r="2" fill="#E0E0E0"/>
<circle cx="258" cy="386" r="2" fill="#E0E0E0"/>
<circle cx="290" cy="386" r="2" fill="#E0E0E0"/>
<circle cx="322" cy="386" r="2" fill="#E0E0E0"/>
<circle cx="354" cy="386" r="2" fill="#E0E0E0"/>
<circle cx="386" cy="386" r="2" fill="#E0E0E0"/>
<circle cx="418" cy="386" r="2" fill="#E0E0E0"/>
<circle cx="450" cy="386" r="2" fill="#E0E0E0"/>
<circle cx="482" cy="386" r="2" fill="#E0E0E0"/>
<circle cx="514" cy="386" r="2" fill="#E0E0E0"/>
<circle cx="546" cy="386" r="2" fill="#E0E0E0"/>
<circle cx="578" cy="386" r="2" fill="#E0E0E0"/>
<circle cx="610" cy="386" r="2" fill="#E0E0E0"/>
<circle cx="642" cy="386" r="2" fill="#E0E0E0"/>
<circle cx="674" cy="386" r="2" fill="#E0E0E0"/>
<circle cx="706" cy="386" r="2" fill="#E0E0E0"/>
<circle cx="738" cy="386" r="2" fill="#E0E0E0"/>
<circle cx="770" cy="386" r="2" fill="#E0E0E0"/>
<circle cx="802" cy="386" r="2" fill="#E0E0E0"/>
<circle cx="834" cy="386" r="2" fill="#E0E0E0"/>
<circle cx="2" cy="418" r="2" fill="#E0E0E0"/>
<circle cx="34" cy="418" r="2" fill="#E0E0E0"/>
<circle cx="66" cy="418" r="2" fill="#E0E0E0"/>
<circle cx="98" cy="418" r="2" fill="#E0E0E0"/>
<circle cx="130" cy="418" r="2" fill="#E0E0E0"/>
<circle cx="162" cy="418" r="2" fill="#E0E0E0"/>
<circle cx="194" cy="418" r="2" fill="#E0E0E0"/>
<circle cx="226" cy="418" r="2" fill="#E0E0E0"/>
<circle cx="258" cy="418" r="2" fill="#E0E0E0"/>
<circle cx="290" cy="418" r="2" fill="#E0E0E0"/>
<circle cx="322" cy="418" r="2" fill="#E0E0E0"/>
<circle cx="354" cy="418" r="2" fill="#E0E0E0"/>
<circle cx="386" cy="418" r="2" fill="#E0E0E0"/>
<circle cx="418" cy="418" r="2" fill="#E0E0E0"/>
<circle cx="450" cy="418" r="2" fill="#E0E0E0"/>
<circle cx="482" cy="418" r="2" fill="#E0E0E0"/>
<circle cx="514" cy="418" r="2" fill="#E0E0E0"/>
<circle cx="546" cy="418" r="2" fill="#E0E0E0"/>
<circle cx="578" cy="418" r="2" fill="#E0E0E0"/>
<circle cx="610" cy="418" r="2" fill="#E0E0E0"/>
<circle cx="642" cy="418" r="2" fill="#E0E0E0"/>
<circle cx="674" cy="418" r="2" fill="#E0E0E0"/>
<circle cx="706" cy="418" r="2" fill="#E0E0E0"/>
<circle cx="738" cy="418" r="2" fill="#E0E0E0"/>
<circle cx="770" cy="418" r="2" fill="#E0E0E0"/>
<circle cx="802" cy="418" r="2" fill="#E0E0E0"/>
<circle cx="834" cy="418" r="2" fill="#E0E0E0"/>
<circle cx="2" cy="450" r="2" fill="#E0E0E0"/>
<circle cx="34" cy="450" r="2" fill="#E0E0E0"/>
<circle cx="66" cy="450" r="2" fill="#E0E0E0"/>
<circle cx="98" cy="450" r="2" fill="#E0E0E0"/>
<circle cx="130" cy="450" r="2" fill="#E0E0E0"/>
<circle cx="162" cy="450" r="2" fill="#E0E0E0"/>
<circle cx="194" cy="450" r="2" fill="#E0E0E0"/>
<circle cx="226" cy="450" r="2" fill="#E0E0E0"/>
<circle cx="258" cy="450" r="2" fill="#E0E0E0"/>
<circle cx="290" cy="450" r="2" fill="#E0E0E0"/>
<circle cx="322" cy="450" r="2" fill="#E0E0E0"/>
<circle cx="354" cy="450" r="2" fill="#E0E0E0"/>
<circle cx="386" cy="450" r="2" fill="#E0E0E0"/>
<circle cx="418" cy="450" r="2" fill="#E0E0E0"/>
<circle cx="450" cy="450" r="2" fill="#E0E0E0"/>
<circle cx="482" cy="450" r="2" fill="#E0E0E0"/>
<circle cx="514" cy="450" r="2" fill="#E0E0E0"/>
<circle cx="546" cy="450" r="2" fill="#E0E0E0"/>
<circle cx="578" cy="450" r="2" fill="#E0E0E0"/>
<circle cx="610" cy="450" r="2" fill="#E0E0E0"/>
<circle cx="642" cy="450" r="2" fill="#E0E0E0"/>
<circle cx="674" cy="450" r="2" fill="#E0E0E0"/>
<circle cx="706" cy="450" r="2" fill="#E0E0E0"/>
<circle cx="738" cy="450" r="2" fill="#E0E0E0"/>
<circle cx="770" cy="450" r="2" fill="#E0E0E0"/>
<circle cx="802" cy="450" r="2" fill="#E0E0E0"/>
<circle cx="834" cy="450" r="2" fill="#E0E0E0"/>
<circle cx="2" cy="482" r="2" fill="#E0E0E0"/>
<circle cx="34" cy="482" r="2" fill="#E0E0E0"/>
<circle cx="66" cy="482" r="2" fill="#E0E0E0"/>
<circle cx="98" cy="482" r="2" fill="#E0E0E0"/>
<circle cx="130" cy="482" r="2" fill="#E0E0E0"/>
<circle cx="162" cy="482" r="2" fill="#E0E0E0"/>
<circle cx="194" cy="482" r="2" fill="#E0E0E0"/>
<circle cx="226" cy="482" r="2" fill="#E0E0E0"/>
<circle cx="258" cy="482" r="2" fill="#E0E0E0"/>
<circle cx="290" cy="482" r="2" fill="#E0E0E0"/>
<circle cx="322" cy="482" r="2" fill="#E0E0E0"/>
<circle cx="354" cy="482" r="2" fill="#E0E0E0"/>
<circle cx="386" cy="482" r="2" fill="#E0E0E0"/>
<circle cx="418" cy="482" r="2" fill="#E0E0E0"/>
<circle cx="450" cy="482" r="2" fill="#E0E0E0"/>
<circle cx="482" cy="482" r="2" fill="#E0E0E0"/>
<circle cx="514" cy="482" r="2" fill="#E0E0E0"/>
<circle cx="546" cy="482" r="2" fill="#E0E0E0"/>
<circle cx="578" cy="482" r="2" fill="#E0E0E0"/>
<circle cx="610" cy="482" r="2" fill="#E0E0E0"/>
<circle cx="642" cy="482" r="2" fill="#E0E0E0"/>
<circle cx="674" cy="482" r="2" fill="#E0E0E0"/>
<circle cx="706" cy="482" r="2" fill="#E0E0E0"/>
<circle cx="738" cy="482" r="2" fill="#E0E0E0"/>
<circle cx="770" cy="482" r="2" fill="#E0E0E0"/>
<circle cx="802" cy="482" r="2" fill="#E0E0E0"/>
<circle cx="834" cy="482" r="2" fill="#E0E0E0"/>
<circle cx="2" cy="514" r="2" fill="#E0E0E0"/>
<circle cx="34" cy="514" r="2" fill="#E0E0E0"/>
<circle cx="66" cy="514" r="2" fill="#E0E0E0"/>
<circle cx="98" cy="514" r="2" fill="#E0E0E0"/>
<circle cx="130" cy="514" r="2" fill="#E0E0E0"/>
<circle cx="162" cy="514" r="2" fill="#E0E0E0"/>
<circle cx="194" cy="514" r="2" fill="#E0E0E0"/>
<circle cx="226" cy="514" r="2" fill="#E0E0E0"/>
<circle cx="258" cy="514" r="2" fill="#E0E0E0"/>
<circle cx="290" cy="514" r="2" fill="#E0E0E0"/>
<circle cx="322" cy="514" r="2" fill="#E0E0E0"/>
<circle cx="354" cy="514" r="2" fill="#E0E0E0"/>
<circle cx="386" cy="514" r="2" fill="#E0E0E0"/>
<circle cx="418" cy="514" r="2" fill="#E0E0E0"/>
<circle cx="450" cy="514" r="2" fill="#E0E0E0"/>
<circle cx="482" cy="514" r="2" fill="#E0E0E0"/>
<circle cx="514" cy="514" r="2" fill="#E0E0E0"/>
<circle cx="546" cy="514" r="2" fill="#E0E0E0"/>
<circle cx="578" cy="514" r="2" fill="#E0E0E0"/>
<circle cx="610" cy="514" r="2" fill="#E0E0E0"/>
<circle cx="642" cy="514" r="2" fill="#E0E0E0"/>
<circle cx="674" cy="514" r="2" fill="#E0E0E0"/>
<circle cx="706" cy="514" r="2" fill="#E0E0E0"/>
<circle cx="738" cy="514" r="2" fill="#E0E0E0"/>
<circle cx="770" cy="514" r="2" fill="#E0E0E0"/>
<circle cx="802" cy="514" r="2" fill="#E0E0E0"/>
<circle cx="834" cy="514" r="2" fill="#E0E0E0"/>
<circle cx="2" cy="546" r="2" fill="#E0E0E0"/>
<circle cx="34" cy="546" r="2" fill="#E0E0E0"/>
<circle cx="66" cy="546" r="2" fill="#E0E0E0"/>
<circle cx="98" cy="546" r="2" fill="#E0E0E0"/>
<circle cx="130" cy="546" r="2" fill="#E0E0E0"/>
<circle cx="162" cy="546" r="2" fill="#E0E0E0"/>
<circle cx="194" cy="546" r="2" fill="#E0E0E0"/>
<circle cx="226" cy="546" r="2" fill="#E0E0E0"/>
<circle cx="258" cy="546" r="2" fill="#E0E0E0"/>
<circle cx="290" cy="546" r="2" fill="#E0E0E0"/>
<circle cx="322" cy="546" r="2" fill="#E0E0E0"/>
<circle cx="354" cy="546" r="2" fill="#E0E0E0"/>
<circle cx="386" cy="546" r="2" fill="#E0E0E0"/>
<circle cx="418" cy="546" r="2" fill="#E0E0E0"/>
<circle cx="450" cy="546" r="2" fill="#E0E0E0"/>
<circle cx="482" cy="546" r="2" fill="#E0E0E0"/>
<circle cx="514" cy="546" r="2" fill="#E0E0E0"/>
<circle cx="546" cy="546" r="2" fill="#E0E0E0"/>
<circle cx="578" cy="546" r="2" fill="#E0E0E0"/>
<circle cx="610" cy="546" r="2" fill="#E0E0E0"/>
<circle cx="642" cy="546" r="2" fill="#E0E0E0"/>
<circle cx="674" cy="546" r="2" fill="#E0E0E0"/>
<circle cx="706" cy="546" r="2" fill="#E0E0E0"/>
<circle cx="738" cy="546" r="2" fill="#E0E0E0"/>
<circle cx="770" cy="546" r="2" fill="#E0E0E0"/>
<circle cx="802" cy="546" r="2" fill="#E0E0E0"/>
<circle cx="834" cy="546" r="2" fill="#E0E0E0"/>
<circle cx="2" cy="578" r="2" fill="#E0E0E0"/>
<circle cx="34" cy="578" r="2" fill="#E0E0E0"/>
<circle cx="66" cy="578" r="2" fill="#E0E0E0"/>
<circle cx="98" cy="578" r="2" fill="#E0E0E0"/>
<circle cx="130" cy="578" r="2" fill="#E0E0E0"/>
<circle cx="162" cy="578" r="2" fill="#E0E0E0"/>
<circle cx="194" cy="578" r="2" fill="#E0E0E0"/>
<circle cx="226" cy="578" r="2" fill="#E0E0E0"/>
<circle cx="258" cy="578" r="2" fill="#E0E0E0"/>
<circle cx="290" cy="578" r="2" fill="#E0E0E0"/>
<circle cx="322" cy="578" r="2" fill="#E0E0E0"/>
<circle cx="354" cy="578" r="2" fill="#E0E0E0"/>
<circle cx="386" cy="578" r="2" fill="#E0E0E0"/>
<circle cx="418" cy="578" r="2" fill="#E0E0E0"/>
<circle cx="450" cy="578" r="2" fill="#E0E0E0"/>
<circle cx="482" cy="578" r="2" fill="#E0E0E0"/>
<circle cx="514" cy="578" r="2" fill="#E0E0E0"/>
<circle cx="546" cy="578" r="2" fill="#E0E0E0"/>
<circle cx="578" cy="578" r="2" fill="#E0E0E0"/>
<circle cx="610" cy="578" r="2" fill="#E0E0E0"/>
<circle cx="642" cy="578" r="2" fill="#E0E0E0"/>
<circle cx="674" cy="578" r="2" fill="#E0E0E0"/>
<circle cx="706" cy="578" r="2" fill="#E0E0E0"/>
<circle cx="738" cy="578" r="2" fill="#E0E0E0"/>
<circle cx="770" cy="578" r="2" fill="#E0E0E0"/>
<circle cx="802" cy="578" r="2" fill="#E0E0E0"/>
<circle cx="834" cy="578" r="2" fill="#E0E0E0"/>
<circle cx="2" cy="610" r="2" fill="#E0E0E0"/>
<circle cx="34" cy="610" r="2" fill="#E0E0E0"/>
<circle cx="66" cy="610" r="2" fill="#E0E0E0"/>
<circle cx="98" cy="610" r="2" fill="#E0E0E0"/>
<circle cx="130" cy="610" r="2" fill="#E0E0E0"/>
<circle cx="162" cy="610" r="2" fill="#E0E0E0"/>
<circle cx="194" cy="610" r="2" fill="#E0E0E0"/>
<circle cx="226" cy="610" r="2" fill="#E0E0E0"/>
<circle cx="258" cy="610" r="2" fill="#E0E0E0"/>
<circle cx="290" cy="610" r="2" fill="#E0E0E0"/>
<circle cx="322" cy="610" r="2" fill="#E0E0E0"/>
<circle cx="354" cy="610" r="2" fill="#E0E0E0"/>
<circle cx="386" cy="610" r="2" fill="#E0E0E0"/>
<circle cx="418" cy="610" r="2" fill="#E0E0E0"/>
<circle cx="450" cy="610" r="2" fill="#E0E0E0"/>
<circle cx="482" cy="610" r="2" fill="#E0E0E0"/>
<circle cx="514" cy="610" r="2" fill="#E0E0E0"/>
<circle cx="546" cy="610" r="2" fill="#E0E0E0"/>
<circle cx="578" cy="610" r="2" fill="#E0E0E0"/>
<circle cx="610" cy="610" r="2" fill="#E0E0E0"/>
<circle cx="642" cy="610" r="2" fill="#E0E0E0"/>
<circle cx="674" cy="610" r="2" fill="#E0E0E0"/>
<circle cx="706" cy="610" r="2" fill="#E0E0E0"/>
<circle cx="738" cy="610" r="2" fill="#E0E0E0"/>
<circle cx="770" cy="610" r="2" fill="#E0E0E0"/>
<circle cx="802" cy="610" r="2" fill="#E0E0E0"/>
<circle cx="834" cy="610" r="2" fill="#E0E0E0"/>
<circle cx="2" cy="642" r="2" fill="#E0E0E0"/>
<circle cx="34" cy="642" r="2" fill="#E0E0E0"/>
<circle cx="66" cy="642" r="2" fill="#E0E0E0"/>
<circle cx="98" cy="642" r="2" fill="#E0E0E0"/>
<circle cx="130" cy="642" r="2" fill="#E0E0E0"/>
<circle cx="162" cy="642" r="2" fill="#E0E0E0"/>
<circle cx="194" cy="642" r="2" fill="#E0E0E0"/>
<circle cx="226" cy="642" r="2" fill="#E0E0E0"/>
<circle cx="258" cy="642" r="2" fill="#E0E0E0"/>
<circle cx="290" cy="642" r="2" fill="#E0E0E0"/>
<circle cx="322" cy="642" r="2" fill="#E0E0E0"/>
<circle cx="354" cy="642" r="2" fill="#E0E0E0"/>
<circle cx="386" cy="642" r="2" fill="#E0E0E0"/>
<circle cx="418" cy="642" r="2" fill="#E0E0E0"/>
<circle cx="450" cy="642" r="2" fill="#E0E0E0"/>
<circle cx="482" cy="642" r="2" fill="#E0E0E0"/>
<circle cx="514" cy="642" r="2" fill="#E0E0E0"/>
<circle cx="546" cy="642" r="2" fill="#E0E0E0"/>
<circle cx="578" cy="642" r="2" fill="#E0E0E0"/>
<circle cx="610" cy="642" r="2" fill="#E0E0E0"/>
<circle cx="642" cy="642" r="2" fill="#E0E0E0"/>
<circle cx="674" cy="642" r="2" fill="#E0E0E0"/>
<circle cx="706" cy="642" r="2" fill="#E0E0E0"/>
<circle cx="738" cy="642" r="2" fill="#E0E0E0"/>
<circle cx="770" cy="642" r="2" fill="#E0E0E0"/>
<circle cx="802" cy="642" r="2" fill="#E0E0E0"/>
<circle cx="834" cy="642" r="2" fill="#E0E0E0"/>
<circle cx="2" cy="674" r="2" fill="#E0E0E0"/>
<circle cx="34" cy="674" r="2" fill="#E0E0E0"/>
<circle cx="66" cy="674" r="2" fill="#E0E0E0"/>
<circle cx="98" cy="674" r="2" fill="#E0E0E0"/>
<circle cx="130" cy="674" r="2" fill="#E0E0E0"/>
<circle cx="162" cy="674" r="2" fill="#E0E0E0"/>
<circle cx="194" cy="674" r="2" fill="#E0E0E0"/>
<circle cx="226" cy="674" r="2" fill="#E0E0E0"/>
<circle cx="258" cy="674" r="2" fill="#E0E0E0"/>
<circle cx="290" cy="674" r="2" fill="#E0E0E0"/>
<circle cx="322" cy="674" r="2" fill="#E0E0E0"/>
<circle cx="354" cy="674" r="2" fill="#E0E0E0"/>
<circle cx="386" cy="674" r="2" fill="#E0E0E0"/>
<circle cx="418" cy="674" r="2" fill="#E0E0E0"/>
<circle cx="450" cy="674" r="2" fill="#E0E0E0"/>
<circle cx="482" cy="674" r="2" fill="#E0E0E0"/>
<circle cx="514" cy="674" r="2" fill="#E0E0E0"/>
<circle cx="546" cy="674" r="2" fill="#E0E0E0"/>
<circle cx="578" cy="674" r="2" fill="#E0E0E0"/>
<circle cx="610" cy="674" r="2" fill="#E0E0E0"/>
<circle cx="642" cy="674" r="2" fill="#E0E0E0"/>
<circle cx="674" cy="674" r="2" fill="#E0E0E0"/>
<circle cx="706" cy="674" r="2" fill="#E0E0E0"/>
<circle cx="738" cy="674" r="2" fill="#E0E0E0"/>
<circle cx="770" cy="674" r="2" fill="#E0E0E0"/>
<circle cx="802" cy="674" r="2" fill="#E0E0E0"/>
<circle cx="834" cy="674" r="2" fill="#E0E0E0"/>
<circle cx="2" cy="706" r="2" fill="#E0E0E0"/>
<circle cx="34" cy="706" r="2" fill="#E0E0E0"/>
<circle cx="66" cy="706" r="2" fill="#E0E0E0"/>
<circle cx="98" cy="706" r="2" fill="#E0E0E0"/>
<circle cx="130" cy="706" r="2" fill="#E0E0E0"/>
<circle cx="162" cy="706" r="2" fill="#E0E0E0"/>
<circle cx="194" cy="706" r="2" fill="#E0E0E0"/>
<circle cx="226" cy="706" r="2" fill="#E0E0E0"/>
<circle cx="258" cy="706" r="2" fill="#E0E0E0"/>
<circle cx="290" cy="706" r="2" fill="#E0E0E0"/>
<circle cx="322" cy="706" r="2" fill="#E0E0E0"/>
<circle cx="354" cy="706" r="2" fill="#E0E0E0"/>
<circle cx="386" cy="706" r="2" fill="#E0E0E0"/>
<circle cx="418" cy="706" r="2" fill="#E0E0E0"/>
<circle cx="450" cy="706" r="2" fill="#E0E0E0"/>
<circle cx="482" cy="706" r="2" fill="#E0E0E0"/>
<circle cx="514" cy="706" r="2" fill="#E0E0E0"/>
<circle cx="546" cy="706" r="2" fill="#E0E0E0"/>
<circle cx="578" cy="706" r="2" fill="#E0E0E0"/>
<circle cx="610" cy="706" r="2" fill="#E0E0E0"/>
<circle cx="642" cy="706" r="2" fill="#E0E0E0"/>
<circle cx="674" cy="706" r="2" fill="#E0E0E0"/>
<circle cx="706" cy="706" r="2" fill="#E0E0E0"/>
<circle cx="738" cy="706" r="2" fill="#E0E0E0"/>
<circle cx="770" cy="706" r="2" fill="#E0E0E0"/>
<circle cx="802" cy="706" r="2" fill="#E0E0E0"/>
<circle cx="834" cy="706" r="2" fill="#E0E0E0"/>
<circle cx="2" cy="738" r="2" fill="#E0E0E0"/>
<circle cx="34" cy="738" r="2" fill="#E0E0E0"/>
<circle cx="66" cy="738" r="2" fill="#E0E0E0"/>
<circle cx="98" cy="738" r="2" fill="#E0E0E0"/>
<circle cx="130" cy="738" r="2" fill="#E0E0E0"/>
<circle cx="162" cy="738" r="2" fill="#E0E0E0"/>
<circle cx="194" cy="738" r="2" fill="#E0E0E0"/>
<circle cx="226" cy="738" r="2" fill="#E0E0E0"/>
<circle cx="258" cy="738" r="2" fill="#E0E0E0"/>
<circle cx="290" cy="738" r="2" fill="#E0E0E0"/>
<circle cx="322" cy="738" r="2" fill="#E0E0E0"/>
<circle cx="354" cy="738" r="2" fill="#E0E0E0"/>
<circle cx="386" cy="738" r="2" fill="#E0E0E0"/>
<circle cx="418" cy="738" r="2" fill="#E0E0E0"/>
<circle cx="450" cy="738" r="2" fill="#E0E0E0"/>
<circle cx="482" cy="738" r="2" fill="#E0E0E0"/>
<circle cx="514" cy="738" r="2" fill="#E0E0E0"/>
<circle cx="546" cy="738" r="2" fill="#E0E0E0"/>
<circle cx="578" cy="738" r="2" fill="#E0E0E0"/>
<circle cx="610" cy="738" r="2" fill="#E0E0E0"/>
<circle cx="642" cy="738" r="2" fill="#E0E0E0"/>
<circle cx="674" cy="738" r="2" fill="#E0E0E0"/>
<circle cx="706" cy="738" r="2" fill="#E0E0E0"/>
<circle cx="738" cy="738" r="2" fill="#E0E0E0"/>
<circle cx="770" cy="738" r="2" fill="#E0E0E0"/>
<circle cx="802" cy="738" r="2" fill="#E0E0E0"/>
<circle cx="834" cy="738" r="2" fill="#E0E0E0"/>
</svg>
