<svg width="232" height="150" viewBox="0 0 232 150" fill="none" xmlns="http://www.w3.org/2000/svg">
<g clip-path="url(#clip0_74_369)">
<path d="M211.017 149.556L204.409 129.616C204.409 129.616 211.677 136.884 211.677 142.847L210.373 129.057C210.373 129.057 214.1 134.089 213.727 141.729C213.354 149.37 211.017 149.556 211.017 149.556Z" fill="#E6E6E6"/>
<path d="M69.1187 131.4L62.6699 111.939C62.6699 111.939 69.7632 119.032 69.7632 124.852L68.49 111.393C68.49 111.393 72.1276 116.304 71.7639 123.761C71.4001 131.218 69.1187 131.4 69.1187 131.4Z" fill="#E6E6E6"/>
<path d="M169.772 140.38C169.783 153.182 144.393 149.244 113.308 149.271C82.2239 149.298 57.2171 153.279 57.2061 140.477C57.195 127.675 82.5766 124.869 113.661 124.842C144.745 124.816 169.761 127.578 169.772 140.38Z" fill="#E6E6E6"/>
<path d="M231.351 149.263H0V149.849H231.351V149.263Z" fill="#3F3D56"/>
<path d="M147.987 123.091H143.923L141.989 107.416H147.987V123.091Z" fill="#A0616A"/>
<path d="M140.569 121.93H148.858V126.865H136.086V126.413C136.086 125.224 136.558 124.084 137.399 123.243C138.24 122.403 139.38 121.93 140.569 121.93Z" fill="#2F2E41"/>
<path d="M177.858 146.226H173.794L171.86 130.552H177.858V146.226Z" fill="#A0616A"/>
<path d="M170.44 145.065H178.729V150H165.957V149.549C165.957 148.36 166.429 147.219 167.27 146.378C168.111 145.538 169.251 145.065 170.44 145.065Z" fill="#2F2E41"/>
<path d="M196.603 99.6594C196.884 99.3187 197.087 98.9205 197.197 98.4928C197.307 98.0652 197.323 97.6186 197.242 97.1844C197.161 96.7502 196.986 96.339 196.729 95.9798C196.472 95.6206 196.139 95.3221 195.755 95.1053L186.316 56.6562L180.281 59.2528L191.508 96.4298C191.186 97.1003 191.122 97.8655 191.327 98.5802C191.533 99.2949 191.993 99.9096 192.621 100.308C193.249 100.706 194.001 100.86 194.735 100.74C195.469 100.621 196.133 100.236 196.603 99.6594Z" fill="#A0616A"/>
<path d="M189.242 21.9531C188.905 21.6009 188.495 21.3269 188.041 21.1504C187.587 20.9738 187.1 20.899 186.613 20.9312C186.127 20.9633 185.654 21.1017 185.227 21.3366C184.8 21.5715 184.43 21.8971 184.142 22.2906L169.533 23.9677L171.756 29.6026L185.041 27.116C185.734 27.5552 186.564 27.7249 187.374 27.593C188.184 27.4611 188.917 27.0368 189.435 26.4004C189.953 25.764 190.219 24.9597 190.184 24.1401C190.148 23.3204 189.813 22.5422 189.242 21.9531Z" fill="#A0616A"/>
<path d="M165.167 95.672L171.542 143.516L179.476 141.883C179.476 141.883 178.309 107.039 182.276 102.838C186.244 98.6378 177.174 91.2792 177.174 91.2792L165.167 95.672Z" fill="#2F2E41"/>
<path d="M167.803 82.4937L164.875 86.8865C164.875 86.8865 142.325 77.5155 142.325 92.4506C142.325 107.386 141.035 117.521 140.568 118.221C140.102 118.922 145.968 120.738 148.768 120.271C148.768 120.271 152.223 96.1936 151.989 94.7934C151.989 94.7934 174.109 105.639 178.31 104.705C182.51 103.772 183.503 100.467 184.203 98.6005C184.903 96.7336 183.91 81.908 183.91 81.908L169.909 77.6353L167.803 82.4937Z" fill="#2F2E41"/>
<path d="M168.198 56.1195L167.363 55.1179C167.363 55.1179 158.014 34.083 161.687 28.407C165.36 22.7309 181.386 21.8962 181.887 22.2301C182.388 22.5639 180.691 26.8989 181.86 28.9022C181.86 28.9022 169.444 31.5939 168.61 31.9278C167.775 32.2616 175.042 44.6004 175.042 44.6004L174.208 52.1129L168.198 56.1195Z" fill="#CCCCCC"/>
<path d="M184.559 45.7691C184.559 45.7691 175.878 46.7707 175.544 46.7707C175.21 46.7707 175.043 44.6005 175.043 44.6005L167.364 55.1179C167.364 55.1179 163.58 85.6302 164.582 85.1294C165.584 84.6285 184.058 87.5049 184.225 86.1693C184.392 84.8338 184.058 78.156 184.559 77.8222C185.06 77.4883 193.24 56.7873 193.24 56.7873C193.24 56.7873 192.405 52.4468 189.567 50.9443C186.729 49.4418 184.559 45.7691 184.559 45.7691Z" fill="#CCCCCC"/>
<path d="M190.568 53.9493L193.24 56.7874C193.24 56.7874 197.208 89.3991 195.038 90.4007C192.868 91.4024 188.595 91.2793 188.595 91.2793L184.392 75.8189L190.568 53.9493Z" fill="#CCCCCC"/>
<path d="M176.216 43.7039C180.46 43.7039 183.9 40.2636 183.9 36.0198C183.9 31.7761 180.46 28.3358 176.216 28.3358C171.972 28.3358 168.532 31.7761 168.532 36.0198C168.532 40.2636 171.972 43.7039 176.216 43.7039Z" fill="#A0616A"/>
<path d="M174.413 37.2188C174.309 35.6244 172.298 35.5698 170.7 35.5547C169.102 35.5396 167.192 35.5966 166.288 34.2792C165.691 33.4086 165.805 32.1999 166.298 31.2664C166.792 30.333 167.604 29.615 168.403 28.9244C170.465 27.1413 172.59 25.3723 175.066 24.231C177.541 23.0897 180.442 22.6285 183.01 23.5447C186.164 24.6701 190.428 30.4635 190.796 33.792C191.164 37.1205 189.834 40.5137 187.591 43.0009C185.349 45.4882 180.217 44.4847 176.987 45.3695C178.951 42.5905 177.656 37.5409 174.511 36.2431L174.413 37.2188Z" fill="#2F2E41"/>
<path d="M105.93 136.613C116.117 136.613 124.376 128.354 124.376 118.166C124.376 107.979 116.117 99.7198 105.93 99.7198C95.7421 99.7198 87.4834 107.979 87.4834 118.166C87.4834 128.354 95.7421 136.613 105.93 136.613Z" fill="#8854D0"/>
<path d="M93.6114 98.4091C91.0548 98.4093 88.5531 97.6684 86.4088 96.2762C84.2646 94.884 82.5699 92.9002 81.5298 90.5648L52.2588 24.6467C51.2892 22.4632 50.7764 20.1044 50.7519 17.7154C50.7274 15.3264 51.1918 12.9576 52.1164 10.7546C53.0411 8.55168 54.4065 6.56111 56.1288 4.90526C57.851 3.24942 59.8937 1.96329 62.1313 1.12593C64.3689 0.288575 66.7541 -0.0823219 69.1404 0.0360438C71.5266 0.154409 73.8633 0.759535 76.0071 1.81422C78.1508 2.86891 80.0562 4.35089 81.6062 6.16905C83.1561 7.98721 84.3178 10.1031 85.0199 12.3868L106.216 81.3272C106.822 83.3005 106.958 85.3886 106.611 87.4238C106.265 89.459 105.446 91.3846 104.22 93.0458C102.994 94.707 101.396 96.0576 99.5535 96.989C97.7111 97.9205 95.6759 98.4069 93.6114 98.4091H93.6114Z" fill="#8854D0"/>
</g>
<defs>
<clipPath id="clip0_74_369">
<rect width="231.351" height="150" fill="white"/>
</clipPath>
</defs>
</svg>
