<svg width="1162" height="977" viewBox="0 0 1162 977" fill="none" xmlns="http://www.w3.org/2000/svg">
<g clip-path="url(#clip0_3150_25332)">
<path opacity="0.18" d="M1143.95 685.964C1121.47 724.485 1078.45 741.901 1037.56 752.897C932.687 781.025 831.399 768.752 725.713 771.555C679.893 772.76 637.938 799.576 602.118 830.613C566.299 861.65 534.025 898.007 494.766 923.617C410.537 978.702 306.341 978.383 208.067 976.397C182.639 975.936 156.891 975.368 132.208 968.664C66.3848 950.929 14.0741 886.727 2.97353 814.013C2.72528 812.487 2.51248 810.962 2.33516 809.472C2.15784 807.983 2.05144 807.309 1.90958 806.209C1.90027 805.47 1.81711 804.733 1.66133 804.01C1.46673 803.149 1.3833 802.267 1.41308 801.385C1.41308 800.498 1.12935 798.654 1.05842 797.271C0.98749 795.887 0.774711 793.724 0.668316 791.737C0.668316 789.964 0.490987 788.19 0.455522 786.381V778.719V769.604C0.402475 767.034 0.509076 764.463 0.774707 761.906C0.810071 761.541 0.810071 761.173 0.774707 760.807C0.774707 758.608 1.05843 756.409 1.23575 754.209V752.258C1.29378 750.834 1.42398 749.413 1.62587 748.002C1.87413 745.306 2.19331 742.611 2.5125 739.915C2.79621 737.857 3.04447 735.765 3.32819 733.743L3.54097 732.111C3.82469 730.054 4.14388 728.068 4.46306 726.01C4.78225 723.953 5.20783 721.399 5.59794 718.916C5.98805 716.433 6.41363 714.305 6.83921 711.822C7.69037 707.211 8.61246 702.529 9.57001 697.918C10.0665 695.577 10.5276 693.271 11.0241 690.824L12.5845 683.729C13.1165 681.388 13.613 679.083 14.1804 676.635C16.4502 666.704 18.8973 656.807 21.2734 646.876C22.2665 642.867 23.2595 638.859 24.217 634.851C24.5717 633.432 24.8909 631.978 25.2455 630.595L27.1606 622.401C28.4728 617.009 29.7141 611.547 30.9199 606.084C31.5228 603.389 32.0902 600.658 32.6577 597.926C33.2251 595.195 33.7571 592.499 34.3245 589.768L35.4594 583.809L36.3106 579.021C37.5873 571.926 38.6749 564.927 39.5733 558.022C39.8571 555.965 40.1053 553.907 40.3536 551.85C40.3891 551.425 40.3891 550.998 40.3536 550.573C40.4253 549.289 40.5673 548.01 40.7791 546.742C40.9565 544.898 41.1338 543.195 41.2757 541.28C41.3111 540.819 41.3111 540.357 41.2757 539.897C41.2757 537.91 41.5948 535.853 41.7367 533.796V531.419C41.7367 529.61 41.9495 527.872 41.985 526.028C42.2923 518.011 42.2923 509.983 41.985 501.943C42.0435 500.056 41.9248 498.168 41.6303 496.303C40.0961 478.702 37.203 461.246 32.9769 444.091C29.7141 430.257 25.8839 416.282 21.8409 402.306C6.87467 349.916 -9.82931 296.994 -3.72934 245.704C6.91014 163.483 65.1081 89.4209 130.186 49.6585C202.464 5.53314 288.395 -5.74648 371.348 2.58909C377.696 3.22756 384.044 3.97243 390.357 4.82373C417.758 8.09913 444.639 14.8084 470.366 24.7936C510.867 41.3938 546.403 69.3801 582.116 95.9475C625.951 128.58 671.168 159.794 720.429 181.077C787.812 210.056 860.977 219.669 930.913 240.703C1000.85 261.737 1071.43 297.456 1111.78 363.076C1122.25 380.447 1130.58 399.013 1136.61 418.374C1151.12 463.351 1155.76 512.762 1159.45 560.718C1163.03 603.282 1165.16 649.678 1143.95 685.964Z" fill="#FFB142"/>
<path opacity="0.48" d="M1143.95 685.964C1121.47 724.485 1078.45 741.901 1037.56 752.897C932.687 781.025 831.399 768.752 725.713 771.554C679.893 772.76 637.938 799.576 602.118 830.613C566.298 861.65 534.025 898.007 494.766 923.617C410.536 978.702 306.34 978.383 208.067 976.397C182.639 975.936 156.891 975.368 132.208 968.664C120.495 965.459 109.207 960.862 98.5868 954.972C68.0399 937.636 42.9446 912.107 26.132 881.265C14.4643 860.357 6.62173 837.535 2.97337 813.871C2.72511 812.346 2.51232 810.82 2.335 809.331C2.15767 807.841 2.05128 807.167 1.90942 806.067C1.90011 805.328 1.81695 804.591 1.66117 803.868C1.46657 803.007 1.38314 802.125 1.41292 801.243C1.41292 800.357 1.12919 798.512 1.05826 797.129C0.987329 795.745 0.77455 793.582 0.668155 791.595C0.668155 789.822 0.490826 788.048 0.455361 786.239V769.426C0.402314 766.856 0.508915 764.286 0.774546 761.729C0.809909 761.363 0.809909 760.995 0.774546 760.629C0.774546 758.43 1.05827 756.231 1.23559 754.032V752.046C1.29362 750.621 1.42382 749.201 1.62571 747.789C1.87396 745.093 2.19315 742.398 2.51233 739.702C2.79605 737.645 3.04431 735.552 3.32803 733.53L3.54081 731.898C3.82453 729.841 4.14372 727.855 4.4629 725.797C4.78209 723.74 5.20767 721.186 5.59778 718.703C5.98789 716.22 6.41347 714.092 6.83905 711.609C7.65474 706.963 8.57683 702.316 9.56985 697.705C10.0664 695.364 10.5274 693.058 11.0239 690.611L12.5844 683.517C13.1163 681.176 13.6128 678.87 14.1803 676.423C16.45 666.491 18.8971 656.594 21.2733 646.663C22.2663 642.655 23.2239 638.646 24.2169 634.638C24.5715 633.219 24.8907 631.765 25.2454 630.382L27.1605 622.188C28.4727 616.797 29.7139 611.334 30.9197 605.872C31.5226 603.176 32.0901 600.445 32.6575 597.713C33.225 594.982 33.7569 592.251 34.3244 589.555L35.4592 583.596L36.3104 578.808C37.5872 571.714 38.6747 564.714 39.5732 557.809C39.8569 555.752 40.1052 553.695 40.3534 551.637C40.3889 551.212 40.3889 550.785 40.3534 550.36C40.4251 549.077 40.5672 547.798 40.779 546.53C40.9563 544.685 41.1336 542.982 41.2755 541.067C41.3109 540.607 41.3109 540.144 41.2755 539.684C41.2755 537.662 41.5947 535.64 41.7365 533.583V531.206C41.7365 529.433 41.9493 527.659 41.9848 525.815C42.2922 517.798 42.2922 509.77 41.9848 501.73C43.151 501.452 44.3365 501.262 45.5313 501.163C61.4332 502.848 77.4776 502.669 93.338 500.631C94.6742 500.561 96.0026 500.383 97.3101 500.099C119.202 496.934 140.444 490.276 160.225 480.377C169.446 475.73 178.596 470.339 188.81 469.204C199.024 468.069 209.592 471.403 220.019 470.694C238.07 469.523 252.647 456.754 268.748 448.205C270.698 447.141 272.649 446.148 274.67 445.261C275.793 444.702 276.986 444.296 278.217 444.055C278.931 443.914 279.666 443.914 280.38 444.055C284.53 444.623 286.622 449.234 289.849 451.859C293.953 454.45 298.765 455.69 303.61 455.406C313.469 455.831 323.364 456.186 333.294 456.399C349.111 456.777 364.94 456.872 380.781 456.683C386.775 456.683 392.768 456.683 398.762 456.363C427.752 455.926 456.639 452.791 485.048 446.999C501.504 443.452 520.229 438.876 534.025 448.524C536.93 451.032 540.078 453.242 543.424 455.122C550.126 457.96 557.61 455.335 564.703 453.561C600.167 444.694 640.172 459.485 672.622 442.92L675.282 450.404L682.375 449.376C760.398 437.919 830.264 433.485 909.067 429.654C925.168 440.295 946.092 438.557 965.279 436.464L1137.11 418.375C1151.61 463.351 1156.26 512.762 1159.95 560.718C1163.03 603.282 1165.16 649.678 1143.95 685.964Z" fill="#FFB142"/>
<path d="M864.027 723.208L1088.84 693.023C1093.05 692.886 1097.11 691.421 1100.44 688.837C1102.46 686.282 1104.22 683.524 1105.68 680.608C1110.93 672.947 1121.11 670.96 1130.05 668.335C1138.99 665.711 1148.85 659.929 1149.13 650.6C1090.86 648.153 1033.41 685.29 976.911 670.925C966.272 668.158 955.313 663.512 944.248 664.93C930.24 666.704 919.423 677.664 906.407 683.269C897.585 686.604 888.351 688.728 878.957 689.582C864.771 691.533 804.162 690.327 802.601 710.474C800.722 732.289 852.075 723.208 864.027 723.208Z" fill="url(#paint0_linear_3150_25332)"/>
<path d="M489.872 634.993L714.648 604.843C718.859 604.706 722.918 603.241 726.245 600.657C728.296 598.111 730.067 595.352 731.53 592.428C736.743 584.731 746.957 582.78 755.859 580.12C764.76 577.46 774.655 571.714 774.939 562.385C716.67 559.937 659.252 597.11 602.721 582.709C592.081 579.978 581.123 575.332 570.058 576.75C555.872 578.524 545.232 589.449 532.217 595.053C523.401 598.419 514.165 600.555 504.767 601.402C490.581 603.353 429.971 602.112 428.411 622.259C426.744 644.073 478.062 634.993 489.872 634.993Z" fill="url(#paint1_linear_3150_25332)"/>
<path d="M538.707 294.086C530.018 301.712 521.79 311.254 509.838 310.934C500.476 310.686 490.794 312.53 481.254 312.353C471.13 312.165 461.042 311.085 451.108 309.125C450.111 308.775 449.049 308.644 447.996 308.742C446.943 308.84 445.924 309.164 445.008 309.693C443.377 311.041 443.271 313.24 442.739 315.404C442.207 317.567 440.327 319.625 438.412 318.951C436.497 318.277 436.497 315.404 434.865 313.914C434.018 313.338 433.001 313.063 431.978 313.134C430.956 313.204 429.987 313.617 429.226 314.304C427.595 315.545 426.425 317.319 424.793 318.56C423.067 319.88 420.925 320.54 418.755 320.42C416.585 320.299 414.53 319.408 412.959 317.905C411.389 316.403 410.406 314.389 410.19 312.226C409.973 310.063 410.536 307.894 411.778 306.11C415.324 301.038 422.595 300.896 428.624 299.548C437.596 297.526 445.434 291.887 454.371 289.794C461.464 288.127 469.018 288.801 476.253 287.807C488.382 286.14 499.199 280.039 510.725 276.386C514.981 275.038 519.378 275.18 523.563 274.009C528.422 272.662 532.465 268.724 537.04 266.596C557.29 257.232 538.707 294.086 538.707 294.086Z" fill="#FCB787"/>
<path d="M511.505 599.026C513.527 613.214 502.391 619.492 494.553 621.018C486.715 622.543 481.36 617.471 470.614 623.607C464.867 627.002 458.315 628.793 451.64 628.793C444.966 628.793 438.414 627.002 432.667 623.607C420.679 616.052 426.709 611.37 439.44 607.326C454.012 602.682 468.235 597.004 481.998 590.336C493.737 584.128 493.312 582.745 498.525 585.228C509.696 590.69 509.377 584.767 511.505 599.026Z" fill="#505365"/>
<path d="M556.049 393.687C552.751 393.155 477.601 439.799 469.408 450.44C461.216 461.081 472.352 472.609 477.14 516.699C481.927 560.789 483.098 589.839 484.481 595.372C485.864 600.906 501.433 601.012 504.058 595.089C506.682 589.165 506.895 568.982 509.555 547.452C513.314 516.699 519.981 523.651 501.291 474.95L570.306 444.694L556.049 393.687Z" fill="#FCB787"/>
<path d="M484.552 433.024C483.416 433.868 482.572 435.046 482.14 436.394C482.03 438.065 482.563 439.714 483.63 441.005C494.375 458.037 507.704 473.294 523.138 486.23L562.929 452.604C565.027 451.014 566.869 449.112 568.391 446.964C570.201 443.683 571.301 440.057 571.618 436.323C574.278 418.587 576.548 399.54 568.497 383.543C567.707 381.701 566.491 380.072 564.951 378.79C563.212 377.739 561.242 377.132 559.214 377.021C557.186 376.909 555.161 377.297 553.318 378.151C540.835 382.762 530.904 393.155 520.797 401.526C508.455 411.6 496.373 422.099 484.552 433.024Z" fill="#505365"/>
<path d="M719.826 520.139C729.118 516.592 736.566 515.918 743.304 520.139C750.042 524.36 750.397 531.809 762.561 534.611C774.726 537.413 783.308 548.799 786.855 562.385C790.401 575.97 782.812 575.402 770.754 569.656C758.696 563.91 742.382 553.978 731.742 550.999C718.94 547.451 712.13 540.96 710.002 535.604C705.392 524.112 719.826 520.139 719.826 520.139Z" fill="#505365"/>
<path d="M569.171 430.364C567.859 433.45 579.066 511.946 587.365 522.587C595.663 533.228 623.681 528.511 667.586 534.399C711.492 540.287 718.62 542.983 724.224 542.983C729.827 542.983 732.345 530.603 728.409 525.46C724.472 520.317 714.01 518.366 693.618 510.988C663.26 499.921 673.048 493.253 621.269 499.567L619.638 420.716L569.171 430.364Z" fill="#FCB787"/>
<path d="M551.403 380.314C558.496 399.646 572.682 470.551 573.214 481.015C573.746 491.479 627.05 481.299 632.441 478.071C632.441 478.071 624.142 451.22 627.724 439.94C631.306 428.661 644.924 389.998 628.398 380.314H551.403Z" fill="#505365"/>
<path d="M657.621 240.029C669.466 245.03 705.498 263.688 711.421 264.149C717.344 264.61 725.997 263.688 751.532 276.918C777.066 290.149 784.62 299.584 794.09 299.584C803.559 299.584 828.916 312.885 830.122 320.866C830.619 324.023 826.008 321.469 820.582 320.866C812.46 320.015 800.438 313.311 798.629 313.134C792.919 312.566 807.815 325.867 804.162 325.867C800.509 325.867 795.969 321.824 788.061 316.361C780.152 310.899 781.322 305.72 756.887 300.719C719.507 293.235 715.428 284.19 710.57 282.984C705.711 281.778 650.279 273.265 650.279 273.265L657.621 240.029Z" fill="#FCB787"/>
<path opacity="0.3" d="M595.38 214.171C593.673 217.752 593.394 221.848 594.599 225.628C587.045 236.056 571.795 253.508 559.134 247.3C559.134 242.831 558.638 238.397 558.07 233.963C555.482 217.221 595.38 214.171 595.38 214.171Z" fill="#FCB787"/>
<path d="M563.603 147.983H563.177C559.045 148.829 554.961 149.895 550.942 151.175C544.807 153.161 538.175 156.354 536.295 162.526C535.734 164.725 535.542 167.003 535.728 169.265C536.075 180.065 537.261 190.821 539.274 201.437C541.012 210.446 548.743 217.54 555.907 222.506C558.57 224.001 561.63 224.633 564.667 224.315C567.185 224.315 570.554 223.109 572.398 225.521C572.952 226.456 573.229 227.529 573.198 228.615C573.166 229.701 572.828 230.756 572.221 231.658C571.157 233.573 569.561 235.205 568.462 236.978C567.822 237.863 567.437 238.906 567.349 239.995C567.261 241.083 567.475 242.175 567.965 243.15C568.792 244.055 569.831 244.74 570.989 245.143C572.147 245.545 573.387 245.653 574.597 245.456C580.381 245.387 586.026 243.678 590.876 240.525C593.307 238.945 595.369 236.86 596.923 234.412C598.478 231.964 599.487 229.21 599.884 226.337C600.026 225.539 600.026 224.723 599.884 223.925C599.722 223.329 599.484 222.757 599.174 222.222C596.523 217.952 595.043 213.058 594.883 208.034C594.883 202.714 596.089 197.393 596.479 192.214C597.401 181.112 596.692 167.172 588.854 158.482C585.453 155.114 581.508 152.344 577.186 150.288C574.953 148.898 572.492 147.914 569.916 147.38C567.793 147.242 565.661 147.445 563.603 147.983Z" fill="#FCB787"/>
<g opacity="0.3">
<path d="M566.121 418.836C566.084 418.108 566.156 417.379 566.334 416.672C566.76 415.927 566.653 416.885 566.121 418.836Z" fill="#FFB142"/>
<path d="M569.065 450.759C557.264 459.164 544.825 466.635 531.862 473.106C531.862 473.106 529.982 470.126 526.152 463.599L524.875 458.492L555.34 442.778C560.624 440.047 564.951 425.043 566.263 418.978C566.121 426.604 569.065 450.546 569.065 450.759Z" fill="#FFB142"/>
</g>
<path d="M1099.97 619.528C1100.01 627.936 1099.27 636.33 1097.78 644.605C1095.44 655.247 1095.19 663.121 1090.97 670.925C1086.75 678.728 1090.33 689.085 1099.76 687.667C1109.2 686.248 1116.82 673.478 1121.04 666.704C1125.26 659.929 1131.68 639.001 1132.92 635.419C1134.16 631.836 1139.2 617.293 1137.46 613.214C1135.72 609.135 1117.64 605.198 1111.32 603.672C1105.01 602.147 1099.97 619.528 1099.97 619.528Z" fill="#505365"/>
<path opacity="0.5" d="M1137.32 613.214C1136.54 612.117 1135.47 611.258 1134.23 610.731C1133.41 617.323 1131.79 623.791 1129.41 629.992C1128.06 633.539 1121.61 654.467 1117.53 661.241C1113.45 668.016 1105.79 680.786 1096.25 682.24C1095.07 682.448 1093.86 682.411 1092.69 682.13C1091.53 681.849 1090.43 681.331 1089.48 680.608C1089.84 682.843 1091.08 684.843 1092.91 686.171C1094.74 687.5 1097.03 688.05 1099.27 687.702H1099.66C1109.05 686.284 1116.71 673.514 1120.93 666.739C1125.16 659.965 1131.57 639.037 1132.82 635.454C1134.06 631.872 1139.06 617.471 1137.32 613.214Z" fill="#505365"/>
<path d="M861.508 682.772C854.569 687.515 847.209 691.611 839.52 695.009C829.271 699.124 822.745 703.238 813.914 704.125C805.084 705.012 798.523 713.773 804.977 720.796C811.432 727.819 826.256 726.968 834.2 726.542C842.145 726.117 863.033 719.767 866.757 718.845C870.481 717.923 885.27 713.879 887.682 710.155C890.093 706.43 886.369 688.873 884.135 682.949C881.901 677.025 861.508 682.772 861.508 682.772Z" fill="#505365"/>
<path opacity="0.5" d="M887.788 701.819C885.306 706.147 870.056 710.9 866.155 711.964C862.253 713.028 840.655 720.442 832.498 720.938C824.341 721.435 809.233 722.357 802.495 714.447C802.457 715.618 802.658 716.785 803.085 717.876C803.512 718.968 804.155 719.961 804.978 720.796C811.432 727.89 826.256 726.968 834.201 726.542C842.145 726.117 863.034 719.768 866.757 718.845C870.481 717.923 885.27 713.879 887.682 710.155C888.643 707.112 888.778 703.868 888.072 700.755C888.028 701.122 887.932 701.48 887.788 701.819Z" fill="#505365"/>
<path d="M1111.75 606.83C1099.19 601.19 1080.82 588.03 1060.89 575.367C1042.24 563.556 1013.62 560.647 1007.7 557.384C1001.77 554.12 961.874 463.245 960.491 461.862C959.108 460.478 889.278 475.234 889.278 475.234C894.846 484.172 962.903 563.272 970.847 571.217C978.791 579.163 979.571 586.15 993.048 588.952C1006.52 591.755 1102.35 625.239 1105.19 626.196C1108.03 627.154 1117.81 609.383 1111.75 606.83Z" fill="#FCB787"/>
<path d="M889.171 475.056C889.171 475.056 945.064 574.126 947.866 573.239C950.668 572.352 988.934 553.021 996.417 538.229L960.385 461.684L889.171 475.056Z" fill="#A2B650"/>
<path d="M889.171 475.056C889.171 475.056 945.064 574.126 947.866 573.239C950.668 572.352 988.934 553.021 996.417 538.229L960.385 461.684L889.171 475.056Z" fill="#505365"/>
<path d="M968.896 542.983C968.808 540.664 968.34 538.375 967.513 536.208C965.706 532.803 963.147 529.855 960.03 527.588C959.224 526.694 958.24 525.979 957.14 525.49C956.04 525.002 954.85 524.75 953.646 524.751C950.1 525.283 948.788 529.646 946.553 532.341C942.262 537.094 934.318 536.314 929.247 540.216C934.85 530.887 939.886 521.275 944.78 511.485C946.419 507.768 948.389 504.207 950.667 500.844C953.358 497.455 956.415 494.374 959.782 491.657L971.45 481.512C971.592 481.374 971.761 481.265 971.946 481.193C972.478 481.193 972.797 481.76 972.939 482.292C973.83 487.357 975.135 492.339 976.84 497.19C979.181 502.44 983.366 506.661 985.919 511.768C989.466 518.614 989.75 526.879 994.396 533.051C995.282 533.981 995.927 535.113 996.275 536.35C996.294 537.233 996.12 538.109 995.764 538.918C995.409 539.727 994.881 540.448 994.218 541.032C987.547 548.058 980.03 554.229 971.84 559.405C970.81 560.24 969.593 560.812 968.293 561.072C968.145 558.118 968.407 555.158 969.074 552.276C969.227 549.178 969.168 546.073 968.896 542.983Z" fill="url(#paint2_linear_3150_25332)"/>
<path d="M983.224 447.425C988.402 456.363 993.296 469.31 980.21 481.76C967.123 494.21 946.979 520.104 900.804 550.467C902.689 570.385 901.154 590.479 896.264 609.88C890.512 633.923 886.447 658.339 884.1 682.949C884.1 687.135 866.155 686.496 861.509 682.772C861.509 682.772 864.772 575.119 863.388 558.27C861.225 532.27 861.225 532.27 879.915 516.131C898.605 499.992 926.374 466.472 926.374 466.472L983.224 447.425Z" fill="#FCB787"/>
<path d="M869.169 521.7C869.169 521.7 889.171 547.558 919.423 556.178C919.423 556.178 947.546 518.26 958.044 510.066C968.542 501.872 1006.42 477.327 983.224 447.141L919.635 461.932L869.169 521.7Z" fill="#505365"/>
<path d="M1076.82 388.437C1066.18 379.073 1062.06 381.343 1053.3 369.39C1044.54 357.436 1014.65 318.028 1007.69 316.61C1000.74 315.191 951.625 320.866 935.985 319.837C924.035 319.383 912.189 322.204 901.726 327.996C898.349 329.873 894.435 330.548 890.625 329.911C871.687 333.742 864.913 330.975 846.649 351.193C834.943 364.724 824.161 379.027 814.376 394.006C808.311 403.016 804.942 406.066 797.104 396.454C790.963 388.928 785.581 380.813 781.039 372.227C780.362 371.162 779.971 369.941 779.904 368.68C779.904 366.836 781.606 365.488 782.564 363.927C785.436 359.352 783.45 353.286 781.393 348.427C780.386 344.863 778.198 341.749 775.187 339.594C773.493 338.894 771.67 338.557 769.837 338.606C768.004 338.655 766.202 339.088 764.547 339.878C762.383 340.635 760.389 341.81 758.679 343.338C756.969 344.865 755.577 346.715 754.582 348.781C751.709 355.875 755.539 363.431 758.944 370.064C764.382 380.814 768.936 391.988 772.562 403.477C776.109 414.579 778.946 426.462 786.748 435.01C789.321 438.166 792.95 440.282 796.962 440.969C799.422 440.988 801.861 440.518 804.138 439.586C806.415 438.654 808.484 437.28 810.226 435.542C818.986 428.058 824.873 417.807 831.505 408.407C835.296 402.627 839.84 397.379 845.017 392.8C849.025 389.466 855.089 387.728 858.175 383.578C859.883 400.911 864.865 417.762 872.857 433.237C885.234 457.427 881.901 471.332 883.745 472.751C885.589 474.17 900.413 480.306 919.955 474.844C939.496 469.381 964.57 467.749 974.358 464.522C981.256 461.979 987.479 457.89 992.551 452.568C993.935 451.185 978.365 424.582 967.265 411.99C956.164 399.398 943.964 354.244 942.12 350.98C942.12 350.98 991.381 344.773 997.907 342.964C1003 349.973 1009.33 355.985 1016.6 360.699C1030 370.064 1042.27 375.597 1045.96 380.74C1049.65 385.883 1046.28 398.476 1052.27 406.385C1058.27 414.295 1056.28 406.385 1064.58 414.721C1067.88 418.02 1074.33 416.211 1081.32 409.259C1088.31 402.306 1087.46 397.802 1076.82 388.437Z" fill="#FCB787"/>
<path d="M884.1 682.949C886.027 663.111 888.986 643.386 892.966 623.855C871.12 623.855 863.14 619.351 863.14 619.351C862.466 651.061 861.509 682.772 861.509 682.772C866.155 686.532 884.064 687.135 884.1 682.949Z" fill="#F1F1F1"/>
<path d="M892.966 623.855H888.249C883.568 647.692 880.34 675.075 880.305 678.338C880.27 681.601 868.531 681.885 861.615 679.934V682.914C866.261 686.674 884.171 687.277 884.206 683.091C886.133 663.253 889.092 643.528 893.072 623.997L892.966 623.855Z" fill="#E5E6E7"/>
<path d="M1042.77 604.772C1072.21 614.704 1103.56 625.629 1105.15 626.054C1107.92 626.977 1117.81 609.241 1111.75 606.51C1099.19 600.87 1080.82 587.711 1060.89 575.048C1060.89 575.19 1057.1 601.686 1042.77 604.772Z" fill="#F1F1F1"/>
<path d="M1111.75 606.83C1099.19 601.19 1080.82 588.03 1060.89 575.367C1060.89 575.367 1060.72 576.431 1060.36 578.134C1078.62 589.91 1095.29 601.615 1106.93 606.83C1111.96 609.1 1106 621.656 1102.24 625.345L1105.15 626.374C1107.92 627.119 1117.81 609.383 1111.75 606.83Z" fill="#E5E6E7"/>
<path d="M992.48 452.604C987.402 457.918 981.18 462.006 974.287 464.557C967.383 466.33 960.369 467.645 953.292 468.494C942.043 469.982 930.888 472.114 919.884 474.879C900.342 480.306 885.518 474.205 883.674 472.786C881.83 471.368 885.164 457.499 872.786 433.237C866.078 419.951 860.272 406.228 855.408 392.162C854.344 389.643 842.003 403.725 839.024 407.201L838.35 407.946L837.711 407.521C833.656 404.793 829.962 401.563 826.717 397.908L826.185 397.234C826.008 397.021 825.831 396.773 825.618 396.56L824.448 395.106C821.368 391.365 819.206 386.956 818.135 382.23C826.111 371.395 834.808 361.109 844.166 351.442C851.425 342.458 861.367 336.032 872.538 333.103C877.68 331.933 883.177 331.507 888.107 330.159C893.722 328.132 899.041 325.365 903.924 321.93C909.315 318.844 915.947 318.986 921.834 316.964C923.598 316.212 925.443 315.665 927.331 315.333C929.886 315.35 932.435 315.564 934.956 315.971C940.418 316.255 945.596 313.985 951.093 313.204C959.25 312.034 967.726 314.269 975.918 312.389C977.762 311.928 980.174 311.466 981.203 313.027C982.231 314.588 981.203 316.042 981.203 317.532C981.476 319.093 981.855 320.634 982.337 322.143C983.117 325.649 983.65 329.204 983.933 332.784C983.933 334.239 984.146 335.657 984.217 337.112C984.43 341.794 984.43 346.511 984.217 351.3C984.295 352.429 983.995 353.552 983.366 354.492C982.507 355.309 981.417 355.841 980.245 356.017C973.152 357.72 956.271 357.72 954.817 366.871C954.514 369.395 954.658 371.953 955.242 374.427C957.91 387.268 962.501 399.633 968.861 411.103C970.421 414.012 972.088 416.92 973.79 419.829C975.493 422.737 995.495 449.589 992.48 452.604Z" fill="#FFB142"/>
<path d="M898.747 280.5C897.541 288.481 905.84 317.212 909.386 326.896C909.386 326.896 887.752 345.695 876.226 343.744C876.226 343.744 875.694 343.39 876.226 339.417C876.758 335.444 877.113 325.513 873.779 322.781C870.446 320.05 893.462 290.042 893.462 290.042L898.747 280.5Z" fill="#FCB787"/>
<path opacity="0.3" d="M896.796 309.835L897.506 304.23C898.125 300.936 898.931 297.68 899.917 294.476L896.371 300.009C896.371 300.009 872.538 318.632 875.092 320.76C876.718 322.938 877.476 325.644 877.22 328.35C877.22 328.35 887.717 330.372 896.796 309.835Z" fill="#FCB787"/>
<path d="M902.79 288.02V288.446L902.116 292.56C901.971 294.134 901.408 295.64 900.485 296.923C899.563 297.987 898.144 298.484 897.151 299.477C895.361 301.885 893.771 304.435 892.399 307.103C890.611 309.625 888.54 311.933 886.228 313.985C882.469 317.354 878.567 322.462 873.673 324.271C871.581 325.016 869.382 325.796 867.254 326.47C861.544 328.35 860.941 323.633 858.813 319.873C856.159 315.24 853.996 310.342 852.359 305.259C849.172 295.18 848.24 284.524 849.628 274.045C849.817 272.309 850.185 270.597 850.727 268.937C851.98 265.821 853.834 262.982 856.184 260.582C858.534 258.182 861.333 256.269 864.422 254.952C867.511 253.634 870.83 252.938 874.188 252.903C877.546 252.868 880.878 253.496 883.994 254.749L885.767 255.565C894.314 260.424 898.144 270.853 898.641 280.394C899.099 280.199 899.607 280.149 900.095 280.251C900.583 280.352 901.028 280.6 901.371 280.962C902.16 281.936 902.701 283.087 902.948 284.317C903.195 285.546 903.141 286.817 902.79 288.02Z" fill="#FCB787"/>
<path d="M683.156 246.839C679.753 259.423 674.785 271.531 668.367 282.877C668.305 283.042 668.222 283.197 668.118 283.338C667.551 284.574 666.64 285.621 665.494 286.353C662.586 287.701 659.5 284.686 656.309 284.19C650.989 283.409 647.478 289.51 646.024 294.831C639.534 318.702 643.754 344.028 643.789 368.822C643.789 372.759 643.258 377.477 639.782 379.251C637.886 380.027 635.817 380.284 633.788 379.995C624.545 379.612 615.296 380.592 606.338 382.904C604.884 383.259 603.43 383.684 601.941 384.146C594.612 386.722 587.095 388.727 579.456 390.14C563.639 392.233 547.715 386.983 533.352 379.995C535.976 368.952 538.34 357.874 540.445 346.76C541.396 342.872 541.837 338.878 541.757 334.877C541.757 331.33 540.657 328.138 540.409 324.732C539.842 315.758 543.956 306.075 539.735 298.165C538.281 299.276 536.885 300.46 535.551 301.712C535.338 301.712 518.421 275.038 520.159 271.03C521.435 267.98 529.982 263.546 532.536 260.389C534.931 257.243 537.01 253.869 538.742 250.315C542.481 243.61 548.137 238.175 554.985 234.708C558.067 233.008 561.311 231.618 564.667 230.558C565.944 230.168 567.256 230.168 568.568 229.813L573.569 228.324C572.15 230.446 571.262 232.88 570.98 235.418C570.718 237.399 571.13 239.41 572.15 241.128C573.001 242.37 573.959 242.299 575.413 242.192C578.706 241.944 581.921 241.065 584.882 239.603C590.904 236.663 595.636 231.614 598.182 225.415C598.394 224.847 598.607 224.28 598.784 223.712C598.962 223.145 599.104 222.755 599.565 222.613C599.875 222.507 600.212 222.507 600.522 222.613C614.495 226.515 627.866 231.906 641.945 235.489C645.563 236.162 683.617 245.03 683.156 246.839Z" fill="#FFB142"/>
<path d="M372.624 643.258C372.624 647.727 353.58 651.381 330.066 651.381C306.553 651.381 287.509 647.834 287.509 643.258C287.509 638.682 306.553 635.1 330.066 635.1C353.58 635.1 372.624 638.753 372.624 643.258Z" fill="url(#paint3_linear_3150_25332)"/>
<path d="M363.971 644.889C355.737 644.917 347.68 642.501 340.821 637.946C333.961 633.392 328.607 626.903 325.436 619.303C322.266 611.703 321.422 603.333 323.011 595.253C324.6 587.172 328.551 579.746 334.363 573.912C340.175 568.079 347.587 564.103 355.661 562.486C363.735 560.869 372.106 561.684 379.716 564.829C387.326 567.974 393.831 573.307 398.409 580.152C402.986 586.997 405.429 595.047 405.43 603.282C405.439 608.737 404.374 614.14 402.295 619.183C400.217 624.226 397.166 628.81 393.316 632.674C389.466 636.537 384.893 639.605 379.858 641.701C374.823 643.797 369.425 644.88 363.971 644.889Z" fill="#F1F1F1"/>
<path d="M330.315 586.115V579.411C326.977 584.122 324.68 589.491 323.576 595.16L330.031 586.859L341.664 585.76V585.086L330.315 586.115Z" fill="#403D3D"/>
<path d="M391.527 572.246L390.676 583.312L374.079 583.135H373.653L358.793 574.09V573.771L360.531 564.761H359.857L358.084 573.984L341.628 585.547L347.87 601.331V601.686L339.855 620.769L328.932 619.244L329.251 619.067L323.08 606.616C323.116 607.282 323.187 607.945 323.293 608.603L328.613 619.244H328.932V624.848C333.299 632.057 339.738 637.781 347.409 641.271H348.189L350.991 635.135L372.27 634.815V634.106L350.991 634.461H350.672L340.351 621.266V621.017L348.331 602.005H366.666L367.198 602.289L378.654 619.705L372.164 634.638L381.562 640.704L382.59 640.526C389.253 637.123 394.867 631.974 398.833 625.629L396.954 617.648H397.202L399.472 596.365L404.72 597.678C403.475 587.905 398.799 578.892 391.527 572.246ZM399.011 595.975L396.741 616.832L395.57 617.258L379.505 619.138L379.257 618.96L367.801 601.509L374.15 583.986H390.57L391.208 584.376L399.152 595.762L399.011 595.975Z" fill="#403D3D"/>
<path d="M363.971 561.711C361.653 561.716 359.339 561.918 357.055 562.314L359.893 564.761L366.383 561.817C365.709 561.782 364.929 561.711 363.971 561.711Z" fill="#403D3D"/>
<path d="M369.787 634.957C360.978 634.902 352.471 631.739 345.765 626.027C339.058 620.315 334.582 612.419 333.124 603.73C331.666 595.04 333.32 586.116 337.795 578.527C342.27 570.938 349.279 565.171 357.587 562.243C349.994 563.391 342.867 566.621 336.998 571.574C331.129 576.528 326.746 583.01 324.336 590.303C321.927 597.596 321.585 605.414 323.348 612.89C325.111 620.366 328.91 627.207 334.324 632.654C339.738 638.102 346.555 641.942 354.019 643.75C361.483 645.558 369.301 645.263 376.607 642.896C383.914 640.53 390.421 636.186 395.409 630.345C400.396 624.505 403.668 617.396 404.862 609.809C402.351 617.124 397.624 623.476 391.339 627.983C385.053 632.49 377.521 634.927 369.787 634.957Z" fill="#E5E6E7"/>
<path d="M534.451 155.68C534.483 151.877 535.37 148.13 537.046 144.716C538.722 141.302 541.144 138.309 544.133 135.958C550.193 131.296 557.558 128.642 565.199 128.368L564.419 129.609C567.882 127.977 571.697 127.234 575.519 127.445C583.952 127.419 592.334 128.748 600.345 131.383C596.927 132.737 593.639 134.399 590.521 136.349C592.781 138.102 595.324 139.458 598.04 140.357C600.843 141.264 603.216 143.171 604.707 145.713L601.87 145.926C604.279 150.115 608.242 153.186 612.899 154.474C611.074 156.592 608.69 158.153 606.019 158.979C607.067 160.292 608.401 161.348 609.92 162.065C608.644 163.519 606.551 164.051 605.168 165.612C604.18 166.721 603.464 168.044 603.076 169.478L595.628 190.015C595.847 185.984 595.231 181.951 593.819 178.168C593.039 175.614 591.798 172.635 589.138 172.245C588.282 172.197 587.428 172.375 586.663 172.761C585.897 173.147 585.246 173.727 584.776 174.444C583.875 175.915 583.25 177.537 582.931 179.232C582.798 175.54 581.9 171.916 580.295 168.588C578.689 165.261 576.411 162.303 573.604 159.901C572.398 158.77 570.939 157.943 569.348 157.489C568.174 157.295 566.976 157.295 565.802 157.489C561.605 157.852 557.574 159.294 554.098 161.675C551.51 163.484 548.921 165.896 545.764 165.612C542.608 165.328 540.728 163.2 538.139 163.838C535.55 164.477 535.267 164.548 534.806 162.278C534.49 160.093 534.371 157.885 534.451 155.68Z" fill="#505365"/>
<path d="M835.265 248.116C833.633 251.202 832.002 255.21 833.881 258.048C835.761 260.885 840.407 261.134 844.131 260.708C842.18 262.375 844.131 265.532 846.365 266.844C849.42 268.673 852.913 269.638 856.473 269.638C860.032 269.638 863.526 268.673 866.58 266.844C869.169 269.859 873.992 268.121 877.964 268.405C879.975 268.653 881.905 269.349 883.611 270.442C885.317 271.535 886.757 272.996 887.824 274.719C889.891 278.172 891.433 281.914 892.399 285.821C893.847 285.548 895.147 284.756 896.054 283.594C896.961 282.432 897.414 280.979 897.328 279.507C899.536 280.93 902.114 281.67 904.74 281.636L909.244 261.063C909.822 259.048 910.015 256.942 909.812 254.855C909.032 250.173 904.598 247.123 900.555 244.64C901.214 243.666 901.566 242.517 901.566 241.341C901.566 240.165 901.214 239.016 900.555 238.042C899.162 236.153 897.474 234.5 895.555 233.147C892.105 229.631 888.027 226.791 883.532 224.776C881.255 223.926 878.738 223.977 876.497 224.92C874.256 225.863 872.46 227.626 871.474 229.849C855.905 223.393 842.216 234.885 835.265 248.116Z" fill="#505365"/>
<path d="M476.537 511.378C483.913 513.151 488.985 512.123 496.574 512.726C502.103 513.506 507.736 513.045 513.065 511.378C513.81 516.506 513.81 521.715 513.065 526.843C511.718 533.937 507.888 594.734 504.483 597.784C501.438 599.806 497.83 600.809 494.178 600.65C490.526 600.491 487.019 599.177 484.162 596.897L476.537 511.378Z" fill="white"/>
<path d="M634.817 498.148C634.817 498.148 636.519 524.112 627.724 530.851L727.025 545.394C727.025 545.394 736.495 533.512 728.16 525.566C719.826 517.621 715.96 518.898 715.96 518.898C715.96 518.898 678.226 503.965 672.516 500.737C659.429 493.111 634.817 498.148 634.817 498.148Z" fill="white"/>
<path d="M668.366 282.877C668.305 283.042 668.222 283.197 668.118 283.338C667.55 284.574 666.639 285.621 665.494 286.353C662.586 287.701 659.5 284.686 656.308 284.19C650.989 283.409 647.478 289.51 646.024 294.831C639.533 318.703 643.754 344.028 643.789 368.822C643.789 372.76 643.257 377.477 639.782 379.251C637.886 380.027 635.817 380.285 633.788 379.996C624.545 379.612 615.296 380.592 606.338 382.904C604.884 383.259 603.43 383.685 601.941 384.146C594.019 384.188 586.219 386.095 579.172 389.715C583.497 381.91 589.566 375.209 596.905 370.135C602.863 366.02 609.991 362.686 613.36 356.266C616.907 349.172 615.275 340.872 615.949 332.997C616.623 325.123 620.17 316.716 621.198 308.168C621.589 306.044 621.48 303.858 620.879 301.783C619.883 299.372 618.298 297.25 616.268 295.611C609.424 289.333 600.877 283.729 598.536 274.79C603.203 278.244 608.668 280.462 614.422 281.237C620.176 282.012 626.033 281.32 631.447 279.224C642.087 274.896 654.322 273.229 664.926 279.933C666.236 280.707 667.4 281.703 668.366 282.877Z" fill="url(#paint4_linear_3150_25332)"/>
<path d="M992.481 452.604C987.402 457.918 981.18 462.006 974.287 464.557C967.383 466.33 960.369 467.645 953.292 468.494C948.861 467.931 944.369 468.099 939.992 468.991C946.447 466.047 952.902 463.032 959.285 459.946C960.551 459.518 961.621 458.65 962.3 457.499C962.535 456.837 962.667 456.143 962.69 455.441C963.009 450.192 963.293 444.8 963.612 439.728C963.894 438.284 963.615 436.788 962.832 435.542C962.198 434.913 961.436 434.429 960.598 434.124L951.27 430.186C953.11 424.293 954.078 418.163 954.143 411.99C954.368 409.027 953.779 406.059 952.441 403.406C951.377 401.597 949.71 400.178 948.575 398.405C946.745 394.807 945.614 390.896 945.241 386.877C942.723 374.817 934.176 363.856 935.346 351.406L944.638 353.712C947.542 354.667 950.637 354.886 953.646 354.35C956.161 353.315 958.543 351.981 960.739 350.378C964.924 347.93 969.818 347.079 974.216 344.986C976.246 344.029 978.056 342.665 979.536 340.978C980.6 339.737 981.345 337.183 983.082 336.899C983.447 336.756 983.852 336.756 984.217 336.899C984.43 341.581 984.43 346.299 984.217 351.087C984.295 352.216 983.996 353.339 983.366 354.279C982.507 355.096 981.417 355.628 980.245 355.805C973.152 357.507 956.271 357.507 954.817 366.659C954.515 369.182 954.659 371.74 955.242 374.214C957.91 387.055 962.501 399.42 968.861 410.89C970.421 413.799 972.088 416.708 973.791 419.616C975.493 422.525 995.495 449.589 992.481 452.604Z" fill="url(#paint5_linear_3150_25332)"/>
<path d="M855.373 392.126C854.309 389.608 841.967 403.69 838.988 407.166H838.811L837.676 407.449C833.621 404.721 829.927 401.492 826.682 397.837L826.15 397.163C825.973 396.95 825.795 396.702 825.583 396.489L824.412 395.035C824.03 394.588 823.742 394.069 823.565 393.508C823.388 392.947 823.327 392.357 823.384 391.771C827.303 391.962 831.221 391.371 834.91 390.033C836.082 389.636 837.193 389.075 838.208 388.366C843.315 384.429 842.322 375.136 848.032 372.156C848.883 372.539 849.64 373.102 850.253 373.807C850.865 374.511 851.317 375.34 851.578 376.235C852.076 378.022 852.478 379.833 852.784 381.662C853.387 385.138 856.224 388.508 855.373 392.126Z" fill="url(#paint6_linear_3150_25332)"/>
<path d="M229.204 501.837C231.568 504.913 234.826 507.181 238.531 508.328L241.794 500.702C241.156 502.227 245.695 501.766 246.369 501.092C247.894 499.531 248.001 493.749 248.639 491.586C249.824 494.299 251.509 496.766 253.604 498.857L259.243 491.018C259.598 490.557 260.094 490.025 260.662 490.202C260.81 490.273 260.942 490.372 261.052 490.493C261.161 490.615 261.246 490.757 261.3 490.912L265.485 498.503L268.783 496.765L269.882 502.156C271.079 501.155 272.388 500.298 273.784 499.602C274.383 501.311 275.206 502.933 276.231 504.426L280.061 500.205C281.768 502.338 283.923 504.069 286.374 505.277C286.778 503.456 287.537 501.733 288.608 500.205C289.563 501.342 290.78 502.231 292.154 502.794L294.211 498.573C294.745 499.122 295.442 499.482 296.197 499.602C297.439 498.999 296.481 496.694 297.652 496.055C298.029 495.914 298.445 495.914 298.822 496.055C307.658 496.837 316.559 496.407 325.279 494.778C319.84 496.083 314.299 496.914 308.717 497.261C306.726 497.298 304.772 497.796 303.007 498.715C302.129 499.186 301.437 499.941 301.044 500.856C300.652 501.77 300.581 502.792 300.843 503.752C299.862 502.703 298.647 501.901 297.297 501.411L295.914 504.958C294.672 503.61 292.367 504.958 291.126 506.058L284.813 511.698C283.856 510.066 284.175 507.512 282.473 506.661C281.905 506.437 281.279 506.41 280.694 506.583C280.109 506.757 279.599 507.121 279.245 507.618C278.534 508.684 278.073 509.897 277.898 511.166C276.829 509.489 275.212 508.235 273.323 507.618C270.379 506.98 267.826 509.924 264.35 509.357C263.641 509.357 254.845 505.809 257.257 504.142L252.221 508.221C252.035 507.7 251.654 507.271 251.157 507.025C250.661 506.78 250.088 506.739 249.561 506.909H249.206C249.474 507.11 249.697 507.363 249.863 507.654C250.028 507.944 250.132 508.266 250.169 508.598C250.205 508.931 250.174 509.267 250.075 509.586C249.977 509.906 249.814 510.202 249.597 510.456C249.222 510.896 248.709 511.196 248.142 511.307C243.059 513.437 237.531 514.29 232.041 513.79C232.096 515.35 231.662 516.888 230.8 518.189C229.204 515.422 225.055 516.202 222.076 517.373C216.827 519.501 211.436 521.558 206.223 523.545C215.95 518.87 223.982 511.283 229.204 501.837Z" fill="url(#paint7_linear_3150_25332)"/>
<path d="M362.659 491.55C365.022 494.626 368.281 496.894 371.986 498.041L375.249 490.415C374.611 491.94 379.15 491.479 379.824 490.805C381.349 489.245 381.455 483.463 382.094 481.299C383.287 483.956 384.971 486.363 387.059 488.393L392.698 480.554C393.052 480.093 393.549 479.561 394.116 479.739C394.264 479.809 394.397 479.908 394.506 480.029C394.616 480.151 394.7 480.293 394.755 480.448L398.939 488.039L402.238 486.301L403.337 491.728C404.504 490.687 405.818 489.827 407.238 489.174C407.839 490.871 408.662 492.481 409.685 493.962L413.622 489.777C415.307 491.932 417.467 493.668 419.935 494.849C420.316 493.031 421.077 491.315 422.169 489.812C423.144 490.92 424.356 491.793 425.716 492.366L427.772 488.145C428.278 488.73 428.989 489.098 429.759 489.174C431 488.571 430.042 486.265 431.213 485.627C431.59 485.485 432.006 485.485 432.383 485.627C441.219 486.409 450.12 485.979 458.84 484.35C453.401 485.655 447.86 486.485 442.278 486.833C440.288 486.869 438.333 487.367 436.568 488.287C435.69 488.758 434.999 489.512 434.606 490.427C434.213 491.342 434.142 492.363 434.404 493.324C433.413 492.287 432.201 491.486 430.858 490.983L429.475 494.53C428.234 493.182 425.928 494.53 424.687 495.629L418.374 501.269C417.417 499.638 417.736 497.084 416.034 496.232C415.461 496.006 414.829 495.977 414.238 496.151C413.647 496.324 413.13 496.69 412.771 497.19C412.071 498.258 411.622 499.471 411.459 500.737C410.39 499.061 408.773 497.807 406.884 497.19C403.94 496.552 401.387 499.496 397.911 498.964C397.202 498.964 388.406 495.417 390.818 493.749L385.782 497.829C385.597 497.298 385.21 496.863 384.705 496.617C384.2 496.371 383.618 496.335 383.087 496.516H382.767C383.035 496.717 383.258 496.971 383.424 497.261C383.589 497.552 383.693 497.873 383.73 498.205C383.766 498.538 383.735 498.874 383.636 499.194C383.538 499.513 383.375 499.809 383.158 500.063C382.783 500.503 382.271 500.803 381.704 500.914C376.62 503.044 371.092 503.897 365.602 503.397C365.657 504.957 365.223 506.495 364.361 507.796C362.765 505.029 358.616 505.809 355.637 506.98C350.364 509.108 345.08 511.165 339.784 513.152C349.462 508.495 357.455 500.946 362.659 491.55Z" fill="url(#paint8_linear_3150_25332)"/>
<path d="M109.936 568.592C112.299 571.668 115.558 573.936 119.263 575.083L122.526 567.457C121.887 568.982 126.427 568.521 127.101 567.847C128.626 566.322 128.732 560.54 129.37 558.341C130.563 560.998 132.248 563.405 134.335 565.435L139.974 557.596C140.329 557.135 140.826 556.603 141.393 556.781C141.541 556.851 141.673 556.95 141.783 557.071C141.893 557.193 141.977 557.335 142.031 557.49L146.216 565.081L149.514 563.343L150.614 568.77C151.78 567.729 153.095 566.869 154.515 566.216C155.115 567.913 155.938 569.523 156.962 571.004L160.792 566.783C162.477 568.938 164.638 570.674 167.105 571.856C167.508 570.045 168.268 568.333 169.339 566.819C170.314 567.926 171.526 568.8 172.886 569.373L174.943 565.152C175.448 565.737 176.159 566.105 176.929 566.18C178.17 565.577 177.213 563.272 178.383 562.633C178.76 562.492 179.176 562.492 179.553 562.633C188.388 563.409 197.287 562.992 206.01 561.392C200.567 562.668 195.027 563.486 189.448 563.839C187.458 563.876 185.503 564.374 183.738 565.293C182.861 565.764 182.169 566.519 181.776 567.434C181.383 568.349 181.312 569.37 181.575 570.33C180.584 569.293 179.371 568.493 178.028 567.989L176.645 571.536C175.404 570.224 173.099 571.536 171.857 572.636L165.616 578.453C164.658 576.786 164.977 574.232 163.275 573.381C162.702 573.154 162.07 573.126 161.479 573.299C160.888 573.473 160.372 573.838 160.012 574.338C159.312 575.406 158.863 576.619 158.7 577.886C157.632 576.209 156.015 574.955 154.125 574.338C151.181 573.7 148.628 576.644 145.152 576.112C144.443 576.112 135.648 572.565 138.059 570.898L132.846 574.906C132.661 574.376 132.273 573.94 131.769 573.694C131.264 573.449 130.682 573.412 130.151 573.594H129.831C130.099 573.794 130.322 574.048 130.488 574.338C130.653 574.629 130.757 574.95 130.794 575.283C130.83 575.615 130.799 575.951 130.7 576.271C130.602 576.591 130.439 576.887 130.222 577.141C129.847 577.581 129.334 577.881 128.767 577.992C123.684 580.122 118.156 580.974 112.666 580.475C112.721 582.035 112.287 583.572 111.425 584.873C109.829 582.107 105.68 582.887 102.701 584.057C97.4519 586.186 92.0612 588.243 86.8479 590.229C96.6044 585.591 104.674 578.028 109.936 568.592Z" fill="url(#paint9_linear_3150_25332)"/>
<path d="M684.787 464.025C687.142 467.11 690.404 469.38 694.114 470.516L697.377 462.89C696.738 464.415 701.278 463.954 701.952 463.28C703.477 461.72 703.583 455.938 704.222 453.774C705.407 456.487 707.091 458.954 709.187 461.046L714.826 453.207C715.18 452.746 715.677 452.214 716.209 452.391C716.741 452.568 716.705 452.817 716.883 453.1L721.067 460.691L724.366 458.953L725.465 464.344C726.641 463.316 727.954 462.457 729.366 461.791C729.968 463.492 730.779 465.112 731.778 466.615L735.644 462.394C737.328 464.549 739.489 466.285 741.956 467.466C742.337 465.648 743.099 463.931 744.191 462.429C745.165 463.537 746.378 464.41 747.737 464.983L749.794 460.762C750.3 461.347 751.011 461.715 751.78 461.791C752.986 461.188 752.064 458.882 753.199 458.244C753.588 458.103 754.015 458.103 754.404 458.244C763.24 459.025 772.142 458.596 780.861 456.967C775.411 458.271 769.857 459.102 764.264 459.45C762.284 459.481 760.34 459.98 758.589 460.904C757.714 461.378 757.023 462.132 756.624 463.044C756.226 463.957 756.144 464.976 756.39 465.941C755.409 464.892 754.194 464.09 752.844 463.6L751.461 467.147C750.22 465.799 747.914 467.147 746.673 468.246L740.36 473.886C739.403 472.254 739.722 469.701 738.02 468.849C737.447 468.623 736.815 468.594 736.224 468.767C735.633 468.941 735.117 469.307 734.757 469.807C734.057 470.875 733.608 472.088 733.445 473.354C732.376 471.677 730.759 470.424 728.87 469.807C725.926 469.168 723.337 472.112 719.862 471.58C719.188 471.58 710.393 468.033 712.769 466.331L707.733 470.41C707.638 470.146 707.491 469.904 707.303 469.697C707.114 469.491 706.886 469.323 706.632 469.204C706.379 469.086 706.104 469.018 705.824 469.006C705.544 468.994 705.265 469.037 705.002 469.133H704.683C704.95 469.334 705.173 469.587 705.339 469.878C705.504 470.168 705.609 470.49 705.645 470.822C705.682 471.154 705.65 471.491 705.551 471.81C705.453 472.13 705.29 472.426 705.073 472.68C704.698 473.12 704.186 473.42 703.619 473.531C698.556 475.692 693.032 476.546 687.553 476.014C687.608 477.574 687.174 479.112 686.312 480.413C684.716 477.646 680.566 478.426 677.587 479.597C672.291 481.725 667.007 483.782 661.735 485.769C671.488 481.088 679.544 473.49 684.787 464.025Z" fill="url(#paint10_linear_3150_25332)"/>
<path d="M684.787 662.057C687.125 665.16 690.393 667.434 694.114 668.548L697.377 660.958C696.738 662.447 701.278 661.986 701.952 661.348C703.477 659.787 703.583 654.005 704.222 651.806C705.398 654.535 707.083 657.015 709.187 659.113L714.826 651.274C715.18 650.778 715.677 650.246 716.209 650.458C716.741 650.671 716.705 650.884 716.883 651.168L721.067 658.758L724.366 656.985L725.465 662.412C726.62 661.456 727.896 660.657 729.26 660.035C729.862 661.725 730.672 663.334 731.671 664.824L735.537 660.638C737.237 662.77 739.394 664.491 741.85 665.675C742.231 663.857 742.992 662.141 744.084 660.638C745.032 661.776 746.252 662.654 747.631 663.192L749.688 659.007C750.197 659.581 750.908 659.937 751.674 660C752.88 659.432 751.957 657.127 753.092 656.453C753.482 656.312 753.908 656.312 754.298 656.453C763.134 657.235 772.035 656.805 780.755 655.176C775.3 656.452 769.748 657.27 764.157 657.623C762.183 657.694 760.248 658.19 758.483 659.078C757.616 659.561 756.932 660.316 756.535 661.225C756.138 662.135 756.05 663.15 756.284 664.114C755.283 663.089 754.074 662.291 752.738 661.773L751.354 665.32C750.113 663.973 747.808 665.32 746.567 666.385L740.254 672.06C739.296 670.393 739.616 667.839 737.913 666.988C737.335 666.777 736.705 666.76 736.116 666.939C735.528 667.118 735.013 667.484 734.651 667.981C733.987 669.002 733.541 670.149 733.338 671.35C732.251 669.691 730.641 668.443 728.763 667.803C725.82 667.165 723.231 670.109 719.755 669.577C719.081 669.577 710.286 666.03 712.662 664.363L707.626 668.442C707.531 668.178 707.385 667.936 707.196 667.729C707.007 667.523 706.78 667.355 706.526 667.236C706.272 667.118 705.998 667.05 705.718 667.038C705.438 667.026 705.159 667.069 704.895 667.165H704.576C704.823 667.356 705.03 667.594 705.185 667.865C705.34 668.135 705.44 668.434 705.48 668.744C705.519 669.053 705.497 669.368 705.415 669.669C705.333 669.97 705.193 670.252 705.002 670.499C704.632 670.969 704.102 671.285 703.512 671.386C698.448 673.543 692.928 674.409 687.447 673.904C687.506 675.454 687.071 676.981 686.205 678.267C684.609 675.501 680.46 676.316 677.481 677.487C672.185 679.591 666.901 681.649 661.628 683.659C671.412 679.052 679.51 671.498 684.787 662.057Z" fill="url(#paint11_linear_3150_25332)"/>
<path d="M1041.74 490.628C1044.09 493.72 1047.35 495.991 1051.07 497.119L1054.33 489.528C1053.69 491.018 1058.27 490.557 1058.91 489.919C1060.43 488.358 1060.54 482.576 1061.18 480.377C1062.36 483.099 1064.05 485.576 1066.14 487.684L1071.78 479.845C1072.13 479.348 1072.63 478.816 1073.2 479.029C1073.77 479.242 1073.7 479.455 1073.87 479.739L1078.02 487.329L1081.32 485.556L1082.45 490.983C1083.62 489.963 1084.92 489.104 1086.32 488.429C1086.96 490.11 1087.78 491.716 1088.77 493.217L1092.63 489.032C1094.31 491.17 1096.46 492.893 1098.91 494.069C1099.31 492.258 1100.07 490.546 1101.14 489.032C1102.09 490.169 1103.31 491.048 1104.69 491.586L1106.71 487.4C1107.24 487.969 1107.96 488.322 1108.73 488.393C1109.94 487.826 1108.98 485.52 1110.15 484.846C1110.53 484.705 1110.95 484.705 1111.32 484.846C1120.16 485.628 1129.06 485.199 1137.78 483.569C1132.34 484.845 1126.8 485.664 1121.22 486.017C1119.23 486.083 1117.28 486.592 1115.51 487.507C1114.65 487.985 1113.97 488.735 1113.58 489.639C1113.19 490.544 1113.1 491.552 1113.34 492.508C1112.34 491.483 1111.13 490.684 1109.8 490.167L1108.42 493.714C1107.17 492.366 1104.87 493.714 1103.63 494.778L1097.35 500.453C1096.39 498.786 1096.71 496.232 1094.97 495.381C1094.4 495.173 1093.78 495.158 1093.19 495.337C1092.61 495.516 1092.1 495.88 1091.75 496.374C1091.03 497.434 1090.58 498.651 1090.43 499.921C1089.33 498.26 1087.71 497.012 1085.82 496.374C1082.92 495.736 1080.33 498.68 1076.85 498.148C1076.14 498.148 1067.35 494.601 1069.58 492.934L1064.69 496.871C1064.59 496.607 1064.45 496.365 1064.26 496.158C1064.07 495.951 1063.84 495.784 1063.59 495.665C1063.33 495.547 1063.06 495.479 1062.78 495.467C1062.5 495.455 1062.22 495.498 1061.96 495.594H1061.64C1061.9 495.795 1062.13 496.048 1062.29 496.339C1062.46 496.629 1062.56 496.951 1062.6 497.283C1062.64 497.615 1062.6 497.952 1062.51 498.271C1062.41 498.591 1062.24 498.887 1062.03 499.141C1061.65 499.581 1061.14 499.881 1060.57 499.992C1055.5 502.119 1049.99 502.971 1044.51 502.475C1044.54 504.026 1044.09 505.548 1043.23 506.838C1041.63 504.071 1037.49 504.887 1034.51 506.058C1029.26 508.162 1023.97 510.22 1018.65 512.23C1028.42 507.616 1036.49 500.063 1041.74 490.628Z" fill="url(#paint12_linear_3150_25332)"/>
<path d="M212.961 881.194C215.191 883.039 217.004 885.336 218.281 887.933C220.444 891.941 220.267 896.659 223.601 900.029C228.389 904.853 236.652 900.632 240.908 906.804C243.638 910.812 241.936 916.203 239.95 920.602C238.875 923.31 237.405 925.844 235.588 928.121C230.623 933.832 222.395 935.393 214.805 935.215C211.861 935.284 208.925 934.864 206.117 933.974C204.372 933.302 202.687 932.484 201.081 931.527L193.172 927.164C187.104 924.333 181.647 920.345 177.106 915.423C169.268 905.562 174.411 892.757 181.007 883.499C187.107 874.987 196.115 874.313 205.585 877.505C208.238 878.3 210.734 879.548 212.961 881.194Z" fill="#505365"/>
<path d="M126.604 570.259C118.093 579.623 108.872 593.847 121.355 612.115C133.839 630.382 151.181 666.491 198.634 714.66C191.299 738.003 187.989 762.424 188.845 786.878C190.548 818.624 185.618 872.397 184.589 877.398C183.561 882.4 205.159 886.266 211.649 882.967C211.649 882.967 235.411 753.394 241.404 733.636C250.661 703.061 250.661 703.061 232.503 678.976C214.344 654.892 189.625 607.752 189.625 607.752L126.604 570.259Z" fill="#FCB787"/>
<path d="M243.39 688.411C242.968 689.19 242.456 689.916 241.865 690.575C237.113 695.931 227.679 700.33 221.544 703.593C214.177 707.425 206.442 710.502 198.456 712.78C196.186 713.454 175.652 719.023 174.765 717.036C174.765 717.036 150.898 664.433 140.4 652.09C129.193 638.93 116.426 625.168 112.808 607.645C111.682 602.718 111.608 597.609 112.592 592.652C113.576 587.695 115.595 583.001 118.518 578.879C126.675 567.28 142.102 566.499 155.047 562.917C158.414 561.874 161.868 561.138 165.367 560.718C171.303 560.504 177.244 560.896 183.1 561.888C190.583 562.668 199.414 563.413 205.123 568.982C211.862 575.544 212.961 587.853 215.373 596.436C222.418 621.637 230.872 646.423 240.695 670.676C243.39 676.352 246.405 682.807 243.39 688.411Z" fill="#505365"/>
<path d="M401.138 464.947C399.755 468.175 395.322 468.494 391.846 467.891C388.371 467.288 384.292 466.543 381.703 468.92C379.966 470.445 379.292 473.105 377.235 474.063C375.178 475.021 372.376 473.566 370.142 472.538C362.375 468.991 352.8 471.687 346.132 476.475C338.531 481.839 330.647 486.788 322.512 491.302C318.177 494.065 313.472 496.202 308.539 497.651C297.9 500.276 286.941 496.658 277.401 491.55C268.606 486.797 260.413 480.732 251.37 476.546C250.625 476.156 249.916 475.837 249.136 475.517C241.794 472.431 222.856 467.217 219.593 477.575C218.568 481.601 217.997 485.729 217.891 489.883C217.755 492.013 217.495 494.133 217.111 496.232C215.87 502.689 214.272 509.072 212.323 515.351C211.436 518.295 210.656 521.061 210.018 523.722V524.502C208.343 531.374 207.369 538.397 207.11 545.465V545.997C206.967 550.807 207.181 555.62 207.748 560.398C208.067 561.907 208.067 563.465 207.748 564.974C207.784 565.065 207.784 565.166 207.748 565.258L207.251 565.648L206.719 566.109L205.549 566.889L204.379 567.812L203.173 568.486L202.641 568.769L200.265 569.904C195.733 571.967 190.97 573.48 186.079 574.409L184.518 574.693C179.438 575.573 174.278 575.906 169.127 575.686L165.19 575.402H164.658C163.133 575.402 161.608 575.119 160.083 575.012H155.544L151.181 574.551C147.848 574.551 144.479 574.374 141.109 574.374H101.53C99.7958 574.342 98.0656 574.188 96.3526 573.913C93.3556 573.453 90.4101 572.705 87.5573 571.678C85.0358 570.766 82.5825 569.675 80.216 568.415C79.1521 567.883 78.1591 567.28 77.2725 566.783L76.5986 566.357C74.7899 565.258 73.4068 564.3 72.5556 563.697L71.9527 563.271C69.9667 561.888 83.266 526.595 93.9764 509.108C95.6221 506.364 96.9658 503.451 97.984 500.418C106.141 477.646 110.397 433.946 111.744 430.186C111.071 432.137 82.4148 431.392 79.8259 431.498C73.0521 431.747 66.2783 431.995 59.5045 432.137H55.958C51.4185 432.137 37.3035 431.286 47.9784 436.003C50.1772 436.996 52.1633 439.905 50.4609 441.678C49.6165 442.38 48.5435 442.746 47.4464 442.707L33.686 444.09C30.4233 430.257 26.5931 416.282 22.55 402.306C34.0052 400.107 45.886 399.149 57.1993 398.05H57.6603C75.8184 396.276 94.7921 395.602 112.596 391.346C126.898 388.298 141.761 389.218 155.579 394.006C160.027 395.604 164.892 395.604 169.339 394.006C192.995 394.68 200.584 389.927 226.828 410.748C238.005 419.723 248.662 429.327 258.747 439.515C262.053 442.747 265.611 445.712 269.386 448.382C271.691 450.049 273.996 451.646 276.479 453.206C280.025 455.618 283.572 457.995 287.118 460.62C288.366 461.674 289.78 462.514 291.303 463.103C293.34 463.634 295.465 463.743 297.545 463.422C309.91 462.252 322.146 459.985 334.109 456.647C343.801 453.974 353.283 450.595 362.481 446.538C367.643 443.704 373.376 442.067 379.256 441.749C388.052 442.104 395.286 448.843 399.649 456.612C399.861 456.931 400.039 457.285 400.252 457.64C400.937 458.714 401.372 459.928 401.525 461.193C401.679 462.457 401.546 463.74 401.138 464.947Z" fill="#FCB787"/>
<path d="M184.589 877.398C187.39 853.174 188.917 828.82 189.164 804.436C215.302 810.004 226.012 806.741 226.012 806.741C218.636 844.801 211.826 882.967 211.826 882.967C205.159 886.266 183.525 882.4 184.589 877.398Z" fill="#F1F1F1"/>
<path d="M125.186 620.45C125.186 620.45 108.978 671.102 104.651 701.003C103.8 706.821 103.126 711.645 102.346 715.192C99.1897 731.26 94.7921 733.601 72.0236 745.554C63.6184 749.953 36.5586 767.865 9.17972 785.991L1.59022 791.276C1.31738 791.42 1.05647 791.587 0.809988 791.773C0.809988 789.999 0.632672 788.225 0.597207 786.416V778.755V769.639C0.54416 767.069 0.650761 764.498 0.916392 761.942C0.951755 761.576 0.951755 761.208 0.916392 760.842C0.916392 758.643 1.2001 756.444 1.37743 754.245V752.258C1.43545 750.834 1.56566 749.413 1.76754 748.002C2.0158 745.306 2.33498 742.61 2.65417 739.915C18.2637 724.723 36.0497 711.944 55.426 701.997V699.549C56.6318 633.503 69.8248 596.365 74.0096 574.906C74.5365 572.072 75.3935 569.31 76.5631 566.677C82.9113 552.488 96.6717 549.722 107.453 549.225L113.057 571.891L113.766 574.764L115.22 580.51L125.186 620.45Z" fill="#FCB787"/>
<path d="M105.786 715.83C105.786 715.83 65.9591 712.283 37.197 686.638C37.197 686.638 57.8376 632.723 59.2562 616.584C60.6748 600.445 61.2068 545.146 107.595 549.19L149.337 603.495L105.786 715.83Z" fill="#505365"/>
<path d="M9.32154 786.169L1.59018 791.276L0.809949 791.737C0.809949 789.964 0.632633 788.19 0.597168 786.381V778.72L2.61867 780.742C4.61393 782.827 6.86628 784.651 9.32154 786.169Z" fill="#F1F1F1"/>
<path d="M279.813 440.118C277.713 452.424 273.193 464.191 266.513 474.737C265.095 476.936 263.605 479.065 262.045 481.086C255.475 477.785 248.405 475.592 241.121 474.595C237.466 474.141 233.756 474.592 230.318 475.909C226.879 477.227 223.817 479.37 221.402 482.15C218.753 486.365 217.07 491.113 216.472 496.055C213.281 512.691 207.358 528.936 206.861 545.997C206.861 549.296 209.734 562.988 207.358 565.506C203.66 568.383 199.482 570.581 195.016 571.997C185.121 575.453 174.582 576.664 164.162 575.544C150.319 574.516 136.429 574.303 122.561 574.906C117.596 574.906 112.915 575.154 108.801 575.154C104.666 575.237 100.531 575.036 96.4236 574.551C87.5847 572.914 79.2381 569.274 72.0237 563.91C67.7325 560.93 86.2097 524.609 87.6283 520.494C89.0469 516.38 90.4655 512.832 91.7422 509.002C97.0332 493.846 99.9986 477.976 100.538 461.932C100.728 458.834 100.38 455.725 99.509 452.745C95.9625 442.104 75.6411 445.651 66.5621 444.942C65.1118 444.965 63.6931 444.517 62.5191 443.665C61.5972 442.692 61.0128 441.449 60.8523 440.118C59.7528 434.478 58.7598 428.803 58.0505 423.092V421.851C58.0505 420.538 57.7313 419.261 57.6249 417.913C57.2351 413.455 57.1285 408.977 57.3058 404.506C57.578 402.591 57.7084 400.658 57.6959 398.724C57.5186 396.879 56.029 395.177 56.8447 393.297C57.6604 391.417 60.7104 391.24 63.0511 391.417C73.0877 392.055 82.8405 387.551 92.9126 387.302C99.6154 387.054 106.46 388.757 112.95 387.302C116.023 386.249 119.179 385.454 122.384 384.926C124.771 384.932 127.151 385.205 129.477 385.742C136.96 386.983 144.94 385.422 152.104 388.012C158.593 390.95 165.436 393.036 172.46 394.219C178.809 394.787 185.405 394.219 191.86 394.538C208.351 395.46 220.232 404.044 232.68 413.621C246.653 424.192 264.456 431.534 279.813 440.118Z" fill="white"/>
<path d="M147.812 384.961C150.293 386.08 152.667 387.422 154.905 388.969C157.388 390.672 159.799 392.516 162.388 394.077C165.761 395.681 169.343 396.803 173.028 397.411C174.515 398.001 176.138 398.153 177.709 397.852C179.279 397.55 180.731 396.807 181.894 395.709C183.323 391.115 184.052 386.332 184.057 381.521C179.565 381.728 175.085 380.89 170.971 379.073C166.79 377.901 162.738 376.308 158.877 374.32C156.962 373.185 154.231 369.993 151.997 371.553C149.956 375.795 148.546 380.312 147.812 384.961Z" fill="#FCB787"/>
<path d="M226.473 313.914C226.504 317.563 225.805 321.181 224.416 324.555L213.6 356.904C213.046 358.952 212.133 360.885 210.904 362.615C209.206 364.305 207.299 365.771 205.23 366.978C198.137 371.908 194.2 379.96 190.406 387.692C184.625 388.615 178.418 384.855 172.673 384.145C170.434 383.787 168.14 384.253 166.218 385.458C165.807 382.96 164.451 380.716 162.431 379.191C160.41 377.665 157.881 376.975 155.366 377.264C152.919 377.654 150.117 378.931 148.273 377.441C147.067 376.555 146.677 374.994 145.932 373.717C144.301 370.915 141.003 369.461 139.159 366.623C134.265 359.529 142.705 350.2 142.705 341.439C142.279 337.578 141.361 333.787 139.974 330.159C136.428 315.971 143.521 301.251 150.614 288.269C159.019 286.105 167.07 287.985 175.439 286.85C179.837 286.282 183.774 284.154 188.065 283.303C188.339 283.198 188.625 283.127 188.916 283.09C204.06 280.678 214.238 290.184 221.686 302.173C224.216 305.637 225.859 309.668 226.473 313.914Z" fill="#DD8049"/>
<path d="M195.442 954.192C164.02 966.181 130.328 963.379 98.7288 954.972C68.1818 937.636 43.0865 912.106 26.2739 881.265C77.4144 889.316 151.111 921.595 258.002 926.383C281.621 927.483 217.394 945.856 195.442 954.192Z" fill="url(#paint13_linear_3150_25332)"/>
<path d="M266.513 474.56C265.095 476.759 263.605 478.887 262.045 480.909C255.475 477.608 248.405 475.415 241.12 474.418C237.466 473.963 233.756 474.414 230.318 475.732C226.879 477.049 223.817 479.193 221.402 481.973C218.753 486.187 217.07 490.936 216.472 495.877C213.28 512.513 207.358 528.759 206.861 545.82C206.861 549.119 209.734 562.81 207.358 565.329C203.66 568.206 199.482 570.404 195.016 571.82C192.334 571.797 189.723 570.956 187.533 569.408C187.132 569.143 186.783 568.806 186.504 568.415C185.37 566.641 187.036 564.477 188.384 562.846C191.612 558.276 193.847 553.08 194.945 547.593C197.782 537.201 200.584 526.879 203.386 516.557C204.811 512.445 205.437 508.099 205.23 503.752C204.804 500.205 203.315 496.835 202.818 493.111C202.438 491.353 202.57 489.523 203.199 487.838C203.828 486.153 204.926 484.684 206.365 483.605C208.883 482.115 212.287 482.541 214.628 480.802C215.801 479.748 216.604 478.344 216.917 476.798C217.23 475.252 217.037 473.646 216.366 472.219C214.914 469.452 212.882 467.032 210.408 465.124C215.593 463.854 220.87 462.988 226.19 462.535C232.187 463.356 238.114 464.625 243.922 466.33C250.199 467.785 260.803 469.31 266.513 474.56Z" fill="url(#paint14_linear_3150_25332)"/>
<path d="M98.9062 427.384C98.451 429.889 97.5501 432.291 96.2463 434.478C95.5623 435.521 94.6153 436.366 93.5007 436.926C92.3861 437.487 91.1435 437.743 89.8981 437.67C88.6805 437.35 87.4937 436.923 86.3516 436.393C78.6203 433.378 68.8674 438.451 61.9517 433.875C61.5262 433.556 60.9942 433.201 60.4622 433.414C60.2374 433.537 60.0537 433.724 59.9339 433.951C59.8142 434.178 59.7636 434.435 59.7884 434.691C59.7828 436.997 60.3951 439.263 61.5616 441.253C61.9118 442.229 62.5109 443.097 63.2994 443.771C64.9308 444.942 67.1651 444.232 69.1157 443.771C75.1092 441.998 89.0115 444.729 94.6859 447.318C99.3318 449.482 100.396 457.427 100.325 450.333C100.325 447.07 101.105 441.856 100.892 438.734C100.679 435.613 98.2678 429.938 98.9062 427.384Z" fill="url(#paint15_linear_3150_25332)"/>
<path d="M159.693 317.745C159.195 317.178 158.777 316.545 158.452 315.865L159.516 315.155C159.587 315.971 159.622 316.893 159.693 317.745Z" fill="url(#paint16_linear_3150_25332)"/>
<path d="M161.466 299.513C159.308 301.575 157.854 304.265 157.313 307.201C156.772 310.137 157.17 313.168 158.452 315.865C156.964 317.418 155.886 319.318 155.316 321.393C154.747 323.468 154.703 325.652 155.189 327.747C156.463 332.292 157.037 337.005 156.891 341.723C155.685 348.817 148.663 355.521 151.181 362.367L165.367 360.806C164.878 361.43 164.644 362.217 164.714 363.008C164.784 363.798 165.152 364.532 165.744 365.06C166.336 365.589 167.106 365.872 167.899 365.853C168.692 365.833 169.448 365.513 170.013 364.956C168.488 371.27 172.602 378.718 172.744 384.252C170.505 383.893 168.211 384.359 166.29 385.564C165.878 383.066 164.522 380.822 162.502 379.297C160.481 377.772 157.952 377.082 155.437 377.371C152.99 377.761 150.188 379.038 148.344 377.548C147.138 376.661 146.748 375.1 146.004 373.824C144.372 371.021 141.074 369.567 139.23 366.729C134.336 359.635 142.776 350.307 142.776 341.545C142.35 337.684 141.433 333.894 140.045 330.266C136.499 316.078 143.592 301.357 150.685 288.375C159.09 286.211 167.141 288.091 175.51 286.956C179.908 286.389 183.845 284.26 188.136 283.409C183.738 287.251 178.818 290.451 173.524 292.915C169.158 294.409 165.079 296.641 161.466 299.513Z" fill="url(#paint17_linear_3150_25332)"/>
</g>
<defs>
<linearGradient id="paint0_linear_3150_25332" x1="917.579" y1="383.897" x2="1000.2" y2="805.956" gradientUnits="userSpaceOnUse">
<stop offset="0.01"/>
<stop offset="0.08" stop-opacity="0.69"/>
<stop offset="0.21" stop-opacity="0.32"/>
<stop offset="1" stop-opacity="0"/>
</linearGradient>
<linearGradient id="paint1_linear_3150_25332" x1="543.388" y1="295.753" x2="626.011" y2="717.812" gradientUnits="userSpaceOnUse">
<stop offset="0.01"/>
<stop offset="0.08" stop-opacity="0.69"/>
<stop offset="0.21" stop-opacity="0.32"/>
<stop offset="1" stop-opacity="0"/>
</linearGradient>
<linearGradient id="paint2_linear_3150_25332" x1="969.322" y1="471.9" x2="957.367" y2="593.137" gradientUnits="userSpaceOnUse">
<stop offset="0.01"/>
<stop offset="0.08" stop-opacity="0.69"/>
<stop offset="0.21" stop-opacity="0.32"/>
<stop offset="1" stop-opacity="0"/>
</linearGradient>
<linearGradient id="paint3_linear_3150_25332" x1="372.305" y1="540.677" x2="309.444" y2="693.3" gradientUnits="userSpaceOnUse">
<stop offset="0.01"/>
<stop offset="0.08" stop-opacity="0.69"/>
<stop offset="0.21" stop-opacity="0.32"/>
<stop offset="1" stop-opacity="0"/>
</linearGradient>
<linearGradient id="paint4_linear_3150_25332" x1="719.401" y1="399.965" x2="560.147" y2="293.435" gradientUnits="userSpaceOnUse">
<stop offset="0.01"/>
<stop offset="0.08" stop-opacity="0.69"/>
<stop offset="0.21" stop-opacity="0.32"/>
<stop offset="1" stop-opacity="0"/>
</linearGradient>
<linearGradient id="paint5_linear_3150_25332" x1="1111.61" y1="403.619" x2="858.388" y2="402.413" gradientUnits="userSpaceOnUse">
<stop offset="0.01"/>
<stop offset="0.08" stop-opacity="0.69"/>
<stop offset="0.21" stop-opacity="0.32"/>
<stop offset="1" stop-opacity="0"/>
</linearGradient>
<linearGradient id="paint6_linear_3150_25332" x1="866.899" y1="409.649" x2="825.719" y2="375.745" gradientUnits="userSpaceOnUse">
<stop offset="0.01"/>
<stop offset="0.08" stop-opacity="0.69"/>
<stop offset="0.21" stop-opacity="0.32"/>
<stop offset="1" stop-opacity="0"/>
</linearGradient>
<linearGradient id="paint7_linear_3150_25332" x1="263.782" y1="405.038" x2="266.159" y2="530.745" gradientUnits="userSpaceOnUse">
<stop offset="0.01"/>
<stop offset="0.08" stop-opacity="0.69"/>
<stop offset="0.21" stop-opacity="0.32"/>
<stop offset="1" stop-opacity="0"/>
</linearGradient>
<linearGradient id="paint8_linear_3150_25332" x1="397.273" y1="394.751" x2="399.65" y2="520.494" gradientUnits="userSpaceOnUse">
<stop offset="0.01"/>
<stop offset="0.08" stop-opacity="0.69"/>
<stop offset="0.21" stop-opacity="0.32"/>
<stop offset="1" stop-opacity="0"/>
</linearGradient>
<linearGradient id="paint9_linear_3150_25332" x1="144.478" y1="471.793" x2="146.855" y2="597.536" gradientUnits="userSpaceOnUse">
<stop offset="0.01"/>
<stop offset="0.08" stop-opacity="0.69"/>
<stop offset="0.21" stop-opacity="0.32"/>
<stop offset="1" stop-opacity="0"/>
</linearGradient>
<linearGradient id="paint10_linear_3150_25332" x1="719.294" y1="367.226" x2="721.707" y2="492.969" gradientUnits="userSpaceOnUse">
<stop offset="0.01"/>
<stop offset="0.08" stop-opacity="0.69"/>
<stop offset="0.21" stop-opacity="0.32"/>
<stop offset="1" stop-opacity="0"/>
</linearGradient>
<linearGradient id="paint11_linear_3150_25332" x1="719.188" y1="565.294" x2="721.6" y2="691.001" gradientUnits="userSpaceOnUse">
<stop offset="0.01"/>
<stop offset="0.08" stop-opacity="0.69"/>
<stop offset="0.21" stop-opacity="0.32"/>
<stop offset="1" stop-opacity="0"/>
</linearGradient>
<linearGradient id="paint12_linear_3150_25332" x1="1076.25" y1="393.864" x2="1078.63" y2="519.572" gradientUnits="userSpaceOnUse">
<stop offset="0.01"/>
<stop offset="0.08" stop-opacity="0.69"/>
<stop offset="0.21" stop-opacity="0.32"/>
<stop offset="1" stop-opacity="0"/>
</linearGradient>
<linearGradient id="paint13_linear_3150_25332" x1="171.751" y1="786.736" x2="128.648" y2="974.727" gradientUnits="userSpaceOnUse">
<stop offset="0.01"/>
<stop offset="0.08" stop-opacity="0.69"/>
<stop offset="0.21" stop-opacity="0.32"/>
<stop offset="1" stop-opacity="0"/>
</linearGradient>
<linearGradient id="paint14_linear_3150_25332" x1="117.702" y1="413.728" x2="244.616" y2="539.415" gradientUnits="userSpaceOnUse">
<stop offset="0.01"/>
<stop offset="0.08" stop-opacity="0.69"/>
<stop offset="0.21" stop-opacity="0.32"/>
<stop offset="1" stop-opacity="0"/>
</linearGradient>
<linearGradient id="paint15_linear_3150_25332" x1="100.289" y1="272.236" x2="75.1369" y2="485.058" gradientUnits="userSpaceOnUse">
<stop offset="0.01"/>
<stop offset="0.08" stop-opacity="0.69"/>
<stop offset="0.21" stop-opacity="0.32"/>
<stop offset="1" stop-opacity="0"/>
</linearGradient>
<linearGradient id="paint16_linear_3150_25332" x1="158.452" y1="316.468" x2="159.693" y2="316.468" gradientUnits="userSpaceOnUse">
<stop offset="0.01"/>
<stop offset="0.08" stop-opacity="0.69"/>
<stop offset="0.21" stop-opacity="0.32"/>
<stop offset="1" stop-opacity="0"/>
</linearGradient>
<linearGradient id="paint17_linear_3150_25332" x1="25.9193" y1="315.475" x2="247.683" y2="343.31" gradientUnits="userSpaceOnUse">
<stop offset="0.01"/>
<stop offset="0.08" stop-opacity="0.69"/>
<stop offset="0.21" stop-opacity="0.32"/>
<stop offset="1" stop-opacity="0"/>
</linearGradient>
<clipPath id="clip0_3150_25332">
<rect width="1162" height="977" fill="white"/>
</clipPath>
</defs>
</svg>
