<svg width="56" height="56" viewBox="0 0 56 56" fill="none" xmlns="http://www.w3.org/2000/svg">
<g clip-path="url(#clip0_674_14218)">
<path d="M47.8061 8.47772C45.2133 5.9098 42.1279 3.87281 38.7284 2.48469C35.3289 1.09658 31.6829 0.384911 28.0016 0.390907C24.3195 0.385246 20.6728 1.09704 17.2724 2.48512C13.872 3.8732 10.7855 5.91001 8.19143 8.47772C-2.73048 19.2069 -2.73048 36.6715 8.19143 47.4034C10.7856 49.9718 13.8725 52.0091 17.2734 53.3972C20.6743 54.7853 24.3217 55.4967 28.0044 55.4902C31.6855 55.4966 35.3314 54.7854 38.7308 53.3977C42.1303 52.0101 45.2159 49.9736 47.8089 47.4062C58.7308 36.677 58.7308 19.2124 47.8061 8.47772V8.47772ZM28.5058 5.92066H27.5002C27.671 5.9179 27.8335 5.89588 28.0044 5.89588C28.1752 5.89588 28.3349 5.9179 28.5058 5.92066ZM45.4867 41.703H39.2036L35.6797 48.6283C33.2214 49.5207 30.6222 49.98 28.0016 49.9853C25.3761 49.9805 22.772 49.5202 20.3095 48.6255L16.7939 41.7305H10.5332C8.22347 38.9089 6.66144 35.5687 5.98688 32.0087L11.1915 25.1881L7.78526 18.4913C8.87215 16.2193 10.3495 14.1485 12.1523 12.3697C14.6756 9.88165 17.7685 8.02331 21.1722 6.95009L27.9988 11.4256L34.8281 6.95284C38.2309 8.02683 41.3233 9.884 43.848 12.3697C45.6489 14.1464 47.1252 16.2143 48.2123 18.483L44.806 25.1881L50.0107 32.0087C49.3392 35.5573 47.7851 38.8875 45.4867 41.703Z" fill="#FFB142"/>
<path d="M17.8182 24.6651L22.1818 35.4537H33.8182L38.1818 24.6651L28 17.9221L17.8182 24.6651Z" fill="white"/>
</g>
<defs>
<clipPath id="clip0_674_14218">
<rect width="56" height="55.0994" fill="white" transform="translate(0 0.390869)"/>
</clipPath>
</defs>
</svg>
