<svg width="168" height="150" viewBox="0 0 168 150" fill="none" xmlns="http://www.w3.org/2000/svg">
<g clip-path="url(#clip0_70_282)">
<path d="M165.632 57.363C165.572 57.3631 165.514 57.3447 165.465 57.3105L84.3903 0.847829C84.1436 0.676802 83.8504 0.585403 83.5502 0.585915C83.25 0.586427 82.9571 0.678825 82.711 0.850692L2.22037 57.3099C2.15671 57.3546 2.07791 57.3721 2.00132 57.3587C1.92473 57.3452 1.85661 57.3019 1.81195 57.2382C1.7673 57.1746 1.74976 57.0958 1.7632 57.0192C1.77665 56.9426 1.81997 56.8745 1.88363 56.8298L82.3743 0.370593C82.7189 0.130016 83.1289 0.000693494 83.5492 2.78133e-06C83.9695 -0.000687931 84.38 0.127285 84.7254 0.366728L165.8 56.8292C165.851 56.8649 165.89 56.916 165.91 56.9751C165.93 57.0342 165.931 57.0982 165.912 57.1577C165.893 57.2173 165.856 57.2693 165.806 57.3062C165.755 57.3432 165.695 57.3631 165.632 57.363L165.632 57.363Z" fill="#3F3D56"/>
<path d="M6.82031 59.3645L83.6304 2.43878L161.023 63.415L87.588 106.949L47.7189 97.8607L6.82031 59.3645Z" fill="#E6E6E6"/>
<path d="M51.0835 133.837H13.1374C12.9044 133.838 12.6736 133.792 12.4583 133.703C12.2429 133.614 12.0472 133.483 11.8824 133.319C11.7175 133.154 11.5867 132.959 11.4975 132.743C11.4082 132.528 11.3623 132.297 11.3623 132.064C11.3623 131.831 11.4082 131.601 11.4975 131.385C11.5867 131.17 11.7175 130.975 11.8824 130.81C12.0472 130.645 12.2429 130.515 12.4583 130.426C12.6736 130.337 12.9044 130.291 13.1374 130.292H51.0835C51.3165 130.291 51.5472 130.337 51.7626 130.426C51.9779 130.515 52.1736 130.645 52.3385 130.81C52.5034 130.975 52.6342 131.17 52.7234 131.385C52.8126 131.601 52.8586 131.831 52.8586 132.064C52.8586 132.297 52.8126 132.528 52.7234 132.743C52.6342 132.959 52.5034 133.154 52.3385 133.319C52.1736 133.483 51.9779 133.614 51.7626 133.703C51.5472 133.792 51.3165 133.838 51.0835 133.837V133.837Z" fill="#8854D0"/>
<path d="M26.7516 126.215H13.1374C12.9044 126.216 12.6736 126.17 12.4583 126.081C12.2429 125.992 12.0472 125.861 11.8824 125.697C11.7175 125.532 11.5867 125.337 11.4975 125.121C11.4082 124.906 11.3623 124.675 11.3623 124.442C11.3623 124.209 11.4082 123.979 11.4975 123.763C11.5867 123.548 11.7175 123.353 11.8824 123.188C12.0472 123.023 12.2429 122.893 12.4583 122.804C12.6736 122.715 12.9044 122.669 13.1374 122.67H26.7516C26.9846 122.669 27.2154 122.715 27.4307 122.804C27.6461 122.893 27.8418 123.023 28.0066 123.188C28.1715 123.353 28.3023 123.548 28.3915 123.763C28.4808 123.979 28.5267 124.209 28.5267 124.442C28.5267 124.675 28.4808 124.906 28.3915 125.121C28.3023 125.337 28.1715 125.532 28.0066 125.697C27.8418 125.861 27.6461 125.992 27.4307 126.081C27.2154 126.17 26.9846 126.216 26.7516 126.215Z" fill="#8854D0"/>
<path d="M84.7103 91.0714C84.4219 91.0717 84.1362 91.0157 83.8692 90.9066L36.498 71.2509V9.7253C36.4987 9.18125 36.7151 8.65966 37.0998 8.27496C37.4845 7.89026 38.0061 7.67385 38.5501 7.67322H129.428C129.972 7.67385 130.494 7.89026 130.878 8.27496C131.263 8.65966 131.48 9.18125 131.48 9.7253V71.2938L131.391 71.3319L85.5769 90.897C85.3025 91.0123 85.0079 91.0716 84.7103 91.0714Z" fill="white"/>
<path d="M84.7104 91.2178C84.4028 91.2181 84.0982 91.1585 83.8134 91.0423L36.3516 71.3488V9.72527C36.3522 9.14235 36.5841 8.5835 36.9963 8.17131C37.4085 7.75913 37.9673 7.52727 38.5502 7.52661H129.428C130.011 7.52727 130.57 7.75913 130.982 8.17131C131.394 8.5835 131.626 9.14235 131.627 9.72527V71.3906L85.6345 91.0317C85.342 91.1548 85.0277 91.218 84.7104 91.2178ZM36.9379 70.9572L84.037 90.5002C84.4763 90.6784 84.9683 90.6755 85.4055 90.492L131.041 71.0035V9.72527C131.04 9.29781 130.87 8.88799 130.568 8.58573C130.266 8.28346 129.856 8.11343 129.428 8.11292H38.5502C38.1228 8.11343 37.713 8.28346 37.4107 8.58573C37.1084 8.88799 36.9384 9.29781 36.9379 9.72527L36.9379 70.9572Z" fill="#3F3D56"/>
<path d="M165.046 56.7767H164.988L131.333 71.1472L85.2876 90.8091C85.1077 90.8848 84.9146 90.9243 84.7194 90.9253C84.5242 90.9263 84.3307 90.8888 84.1501 90.815L36.6444 71.1061L2.16345 56.8002L2.11077 56.7767H2.05208C1.50802 56.7773 0.986416 56.9937 0.601707 57.3784C0.216997 57.7631 0.000603679 58.2848 0 58.8288V147.948C0.000604454 148.492 0.216997 149.014 0.601707 149.398C0.986416 149.783 1.50802 149.999 2.05208 150H165.046C165.59 149.999 166.112 149.783 166.497 149.398C166.881 149.014 167.098 148.492 167.098 147.948V58.8288C167.098 58.2848 166.881 57.7631 166.497 57.3784C166.112 56.9937 165.59 56.7773 165.046 56.7767ZM166.512 147.948C166.512 148.337 166.357 148.709 166.083 148.984C165.808 149.259 165.435 149.414 165.046 149.414H2.05208C1.66338 149.414 1.29065 149.259 1.0158 148.984C0.740946 148.709 0.586465 148.337 0.58631 147.948V58.8288C0.586841 58.4498 0.733872 58.0856 0.996662 57.8124C1.25945 57.5393 1.61766 57.3782 1.9964 57.363L36.6444 71.7394L83.9245 91.3573C84.4363 91.5655 85.0097 91.5624 85.5192 91.3485L131.333 71.7833L165.105 57.363C165.483 57.3794 165.84 57.5408 166.102 57.8138C166.364 58.0868 166.511 58.4504 166.512 58.8288V147.948Z" fill="#3F3D56"/>
<path d="M84.2362 73.625C82.4874 73.6283 80.785 73.0628 79.3857 72.0138L79.299 71.9487L61.0322 57.963C60.1862 57.3148 59.4762 56.5063 58.9427 55.5837C58.4092 54.6611 58.0626 53.6425 57.9227 52.586C57.7829 51.5294 57.8525 50.4557 58.1276 49.4261C58.4027 48.3965 58.8779 47.4311 59.5261 46.5851C60.1743 45.7392 60.9827 45.0291 61.9053 44.4956C62.8279 43.9621 63.8465 43.6155 64.9031 43.4757C65.9596 43.3358 67.0333 43.4054 68.063 43.6805C69.0926 43.9556 70.0579 44.4308 70.9039 45.079L82.7357 54.1515L110.696 17.6869C111.345 16.8412 112.153 16.1314 113.076 15.5982C113.999 15.065 115.018 14.7188 116.074 14.5793C117.131 14.4398 118.205 14.5099 119.234 14.7853C120.264 15.0608 121.229 15.5364 122.075 16.1849L121.901 16.421L122.079 16.1884C123.785 17.4995 124.901 19.4339 125.183 21.567C125.464 23.7001 124.888 25.8578 123.581 27.5667L90.6928 70.4578C89.9321 71.4462 88.954 72.246 87.8343 72.7953C86.7146 73.3446 85.4834 73.6285 84.2362 73.625V73.625Z" fill="#8854D0"/>
</g>
<defs>
<clipPath id="clip0_70_282">
<rect width="167.098" height="150" fill="white"/>
</clipPath>
</defs>
</svg>
