<svg width="637" height="707" viewBox="0 0 637 707" fill="none" xmlns="http://www.w3.org/2000/svg">
<g clip-path="url(#clip0_486_8273)">
<path d="M74.3999 513.4C111.8 535.3 144.1 569.8 178.4 641.7C178.4 641.7 255.7 772.1 457.7 664.2C524.5 628.5 588 575.1 637.5 513.4H74.3999Z" fill="#CCE9FF"/>
<path d="M166.1 466.7C166.1 466.7 207.8 531.2 171.8 565C135.8 598.7 132 560.7 132 560.7C132 560.7 112.9 561.8 151.2 518.7C169.3 498.4 166.1 466.7 166.1 466.7Z" fill="#0E538C"/>
<path d="M78.1999 353.2C78.1999 353.2 35.7 403.2 92.5 472.3C149.3 541.5 140.5 578.1 140.5 578.1C140.5 578.1 219.7 457.8 78.1999 353.2Z" fill="#2A94F4"/>
<path d="M132.1 574.9C158.5 580.2 137.1 503.3 97.5001 479.9C57.8001 456.5 22.4001 454.2 0.100098 431.6C0.200098 431.6 1.9001 548.6 132.1 574.9Z" fill="#FFBE55"/>
<path d="M569.3 466.9H261.8C258.3 466.9 255.4 464 255.4 460.5V6.60001C255.4 3.10001 258.3 0.200012 261.8 0.200012H569.3C572.8 0.200012 575.7 3.10001 575.7 6.60001V460.5C575.7 464.1 572.8 466.9 569.3 466.9Z" fill="#0E538C"/>
<path d="M569.3 466.9H261.8L575.7 6.59998V460.5C575.7 464.1 572.8 466.9 569.3 466.9Z" fill="#0E538C"/>
<path d="M541.6 302.4H525V428.7H541.6V302.4Z" fill="#CCE9FF"/>
<path d="M508.9 316.5H492.3V428.6H508.9V316.5Z" fill="#FFBE55"/>
<path d="M473.2 334.9H456.6V428.6H473.2V334.9Z" fill="#CCE9FF"/>
<path d="M436.7 358.1H420.1V428.6H436.7V358.1Z" fill="#FFBE55"/>
<path d="M345 367.2L341.4 365.9L372.7 278.1L440.6 260.2L465 163.8L517.3 140.7L529.1 65.8L532.8 66.4L520.8 143.4L468.2 166.6L443.7 263.3L375.7 281.3L345 367.2Z" fill="#FFBE55"/>
<path d="M450.1 255.3C453.7 259.7 453 266.1 448.7 269.6C444.3 273.2 437.9 272.5 434.4 268.2C430.8 263.9 431.5 257.4 435.8 253.9C440.1 250.3 446.5 250.9 450.1 255.3Z" fill="white"/>
<path d="M449.8 271.1C444.6 275.3 437 274.6 432.8 269.4C428.6 264.2 429.3 256.6 434.5 252.4C439.7 248.2 447.3 248.9 451.5 254.1C455.8 259.2 455 266.9 449.8 271.1ZM436.9 255.3C433.4 258.2 432.8 263.4 435.7 266.9C438.6 270.4 443.8 271 447.3 268.1C450.8 265.2 451.4 260 448.5 256.5C445.7 253 440.5 252.4 436.9 255.3Z" fill="#FFBE55"/>
<path d="M474.8 159.3C478.4 163.7 477.7 170.1 473.4 173.6C469 177.2 462.6 176.5 459.1 172.2C455.5 167.8 456.2 161.4 460.5 157.9C464.8 154.3 471.2 155 474.8 159.3Z" fill="white"/>
<path d="M474.5 175.1C469.3 179.3 461.7 178.6 457.5 173.4C453.3 168.2 454 160.6 459.2 156.4C464.4 152.2 472 152.9 476.2 158.1C480.5 163.3 479.7 170.9 474.5 175.1ZM461.6 159.4C458.1 162.3 457.5 167.5 460.4 171C463.3 174.5 468.5 175.1 472 172.2C475.5 169.3 476.1 164.1 473.2 160.6C470.4 157 465.2 156.5 461.6 159.4Z" fill="#FFBE55"/>
<path d="M526.3 135.6C529.9 140 529.2 146.4 524.9 149.9C520.5 153.5 514.1 152.8 510.6 148.5C507 144.1 507.7 137.7 512 134.2C516.3 130.6 522.8 131.2 526.3 135.6Z" fill="white"/>
<path d="M526.1 151.4C520.9 155.6 513.3 154.9 509.1 149.7C504.9 144.5 505.6 136.9 510.8 132.7C516 128.5 523.6 129.2 527.8 134.4C532 139.5 531.3 147.2 526.1 151.4ZM513.2 135.6C509.7 138.5 509.1 143.7 512 147.2C514.9 150.7 520.1 151.3 523.6 148.4C527.1 145.5 527.7 140.3 524.8 136.8C522 133.2 516.7 132.7 513.2 135.6Z" fill="#FFBE55"/>
<path d="M382.5 274.1C386.1 278.5 385.4 284.9 381.1 288.4C376.7 292 370.3 291.3 366.8 287C363.3 282.7 363.9 276.2 368.2 272.7C372.5 269.1 378.9 269.8 382.5 274.1Z" fill="white"/>
<path d="M382.2 289.9C377 294.1 369.4 293.4 365.2 288.2C361 283 361.7 275.4 366.9 271.2C372.1 267 379.7 267.7 383.9 272.9C388.2 278.1 387.4 285.7 382.2 289.9ZM369.3 274.2C365.8 277.1 365.2 282.3 368.1 285.8C371 289.3 376.2 289.9 379.7 287C383.2 284.1 383.8 278.9 380.9 275.4C378.1 271.8 372.9 271.3 369.3 274.2Z" fill="#FFBE55"/>
<path d="M390 154.6H290.8C290 154.6 289.4 154 289.4 153.2V134.8C289.4 134 290 133.4 290.8 133.4H390C390.8 133.4 391.4 134 391.4 134.8V153.2C391.4 153.9 390.8 154.6 390 154.6Z" fill="#CCE9FF"/>
<path d="M390 117.6H290.8C290 117.6 289.4 117 289.4 116.2V97.8C289.4 97 290 96.4 290.8 96.4H390C390.8 96.4 391.4 97 391.4 97.8V116.2C391.4 117 390.8 117.6 390 117.6Z" fill="#2A94F4"/>
<path d="M271 170.7C271 170.7 268 199.9 273.4 207.2C273.4 207.2 259.1 204.1 255.8 199.2C252.6 194.2 271 170.7 271 170.7Z" fill="#FFBE55"/>
<path d="M360.1 263.8C360.1 263.8 365.3 260.3 366.1 259.8C366.9 259.3 369.6 259.4 372.6 259.7C375.6 260.1 379.6 261.9 379.8 262.4C380 262.9 380.5 263.2 380.3 264.6C380.1 265.9 379.2 267 379.2 267C379.2 267 379.7 268.8 378.5 269.9C378.5 269.9 378.9 271.6 377.3 272.7C377.3 272.7 377.7 274.4 376.5 275.1C376.5 275.1 373.8 275 372.8 275.3C371.8 275.6 366.3 275 361.1 273.7C361.1 273.6 355.3 272.4 360.1 263.8Z" fill="#FFE3CA"/>
<path d="M357 264.3C357 264.3 360.3 263.9 362.3 263C364.3 262.1 361.9 273.1 361.9 273.1C361.9 273.1 357 269.7 353.8 269.6C350.7 269.6 357 264.3 357 264.3Z" fill="#FFE3CA"/>
<path d="M222.2 558.9C222.2 558.9 232.4 573.8 235.9 576.9C235.9 576.9 243 580.6 243.2 583.5C243.6 589.1 243.9 592.3 234.6 592.6C225.3 592.9 219.4 592.6 217.7 586.9C216 581.2 213 576.8 213 576.8L212.3 591.5H210.2C210.2 591.5 209.3 576.7 209.1 574.6C209 572.5 207.6 564.4 212 560.8C216.5 557.4 222.2 558.9 222.2 558.9Z" fill="#0B4870"/>
<path d="M237.2 577.7C237.2 577.7 232.2 579.1 226.1 577.6C220.1 576.1 214.3 561.7 212.6 560.5L211 554.7H222.7C222.7 554.7 222.8 559 224.7 562.7C226.7 566.3 237.2 577.7 237.2 577.7Z" fill="#FFE3CA"/>
<path d="M288.2 553.3C288.2 553.3 289.7 556.9 292.6 560.7C294.7 563.5 301.3 574.8 304.2 575.6C307.1 576.4 316 578 316.8 583C317.6 588 318 591.5 309.2 591.9C300.4 592.3 294.6 592.8 290.4 586.6C286.2 580.4 279.5 575.9 279.5 575.9V592H276C276 592 274.4 575.2 273.5 574C272.6 572.8 270.2 559.9 278.4 553.2C286.6 546.6 288.2 553.3 288.2 553.3Z" fill="#0B4870"/>
<path d="M304.2 575.6C304.2 575.6 296.3 577.6 293.3 575.6C290.3 573.6 280 556.2 276.6 555.2C276.6 555.2 279.9 548.5 288.2 553.4C288.2 553.3 301.9 572.7 304.2 575.6Z" fill="#FFE3CA"/>
<path d="M217.7 311.8C217.7 311.8 206.6 326.3 203.6 343.4C200.6 360.6 205.4 418.2 205.3 426.6C205.2 435.1 197.8 461.5 199.4 477.5C201 493.5 209.2 560.2 209.2 560.2L228.5 559.8C228.5 559.8 224.6 487.8 225.6 481.1C226.6 474.4 229.7 445.9 230.1 443.1C230.5 440.3 252.1 367.3 252.1 354.9C252.1 342.5 244.5 291.6 217.7 311.8Z" fill="#FFBE55"/>
<path d="M273.6 317.5C273.6 317.5 291.9 387.3 294 396.9C296.2 406.6 300.5 419.2 300.3 421C300.1 422.8 298 452.6 298 452.6L292.8 554H273.5C273.5 554 267.3 489.5 266.3 476.5C265.3 463.5 273.4 443.4 271.4 437.8C269.4 432.3 239.6 368.6 239.6 368.6C239.6 368.6 217.2 297.2 273.6 317.5Z" fill="#FFBE55"/>
<path d="M267.9 213C267.9 213 275.2 213.7 280.7 219.6C286.2 225.5 291.4 235 292.9 238.1C294.3 241.3 314.6 270.5 315.7 271.2C316.8 271.9 325.6 269.5 332.7 268.9C344.3 267.9 361.6 262 361.6 262L364.2 275.1C364.2 275.1 321.6 288.9 311.7 286.4C299.7 283.4 272 247.9 272 247.9C272 247.9 251.3 223.8 267.9 213Z" fill="#2A94F4"/>
<path d="M255.2 207.9C255.2 207.9 264.7 212.4 268 213C271.3 213.7 284 230.2 286.3 236.3C288.5 242.3 286.3 251.4 281.7 262.1C277.1 272.8 281.4 276.3 279.3 287C277.2 297.6 277.2 326.7 277.6 332.6C278 338.5 216.7 349.7 204.5 338.9C204.5 338.9 212.8 311.6 222.6 301.4C224.7 299.2 224.5 284.4 223 280.7C221.6 277 205.2 249.5 205.2 249.5C205.2 249.5 204 221.6 211.1 216.1C217.3 211.3 234.1 209.6 237.2 208.5C240.2 207.5 249 207 255.2 207.9Z" fill="#2A94F4"/>
<path d="M258.2 229L264 222.3L259 204.6C258.9 204.5 257.3 214.4 258.2 229Z" fill="#0E538C"/>
<path d="M222.1 213C222.1 213 210.2 209.6 203.3 222.7C196.5 235.9 198.2 242.9 196.6 248.9C195 254.8 188.7 294.4 188.3 296.1C187.9 297.8 181.9 317.9 182.6 324.1C183.4 330.3 189 377.1 188.8 378.7C188.5 380.3 199.7 377.2 199.7 377.2C199.7 377.2 199.2 329.4 199.6 325.4C200 321.5 200.4 300.7 203.3 295.4C206.3 290.1 213.6 257.5 215.1 254.2C216.9 250.9 232.2 217.3 222.1 213Z" fill="#EEA886"/>
<path d="M259.7 197C259.7 197 257.8 214.4 258.2 220C258.2 220 248.4 229.9 237.2 208.5C237.2 208.5 241.9 199.7 238.4 187.7C234.8 175.7 259.7 197 259.7 197Z" fill="#FFE3CA"/>
<path d="M258.2 220V229L247.6 219.6L258.2 220Z" fill="#FFE3CA"/>
<path d="M258.2 229L253.5 223.2L237.6 207.4L231.7 210.1L258.2 229Z" fill="#0E538C"/>
<path d="M263.9 222.3L271.2 224.3L258.9 204.5L263.9 222.3Z" fill="#0E538C"/>
<path d="M253.5 223.2L246.9 233.8L231.5 209.7L238.1 206.3L253.5 223.2Z" fill="#0E538C"/>
<path d="M287.2 266C287.2 266 289.6 250.2 287.1 240.7C287.1 240.7 285.7 248.4 282.3 260.5L287.2 266ZM213.7 263.9C213.7 263.9 220.2 242.2 220.6 241.1C220.6 241.1 220.2 261 217.6 270.9C217.6 270.8 215.2 266.6 213.7 263.9Z" fill="#0E538C"/>
<path d="M251.7 137.9C251.7 137.9 269.1 137.4 272.3 158.1C275.5 178.7 268.1 196.9 265.2 199.8C262.3 202.7 244.9 200.5 240.8 189.8C236.7 179.1 230.7 171.3 231.6 162C232.5 152.7 230.3 137.5 251.7 137.9Z" fill="#FFE3CA"/>
<path d="M273.1 165.9C273.1 165.9 277.8 140.2 254.6 135.5C231.5 130.9 223.3 146.7 221.1 156.1C218.9 165.5 221.5 192.1 221.5 192.1C221.5 192.1 236.9 205.6 246.1 209.1C246.1 209.1 238.4 180.8 241.3 160.6C241.3 160.6 260.1 163.6 272.6 160.5C272.7 160.5 273 164.8 273.1 165.9Z" fill="#FFBE55"/>
<path d="M259.3 200.9C259.3 200.9 253.2 200.9 245 195.5C245 195.5 250.8 202.8 258.9 205.4C258.9 205.4 259.3 201.8 259.3 200.9Z" fill="#FCD2B1"/>
<path d="M224.887 333.704L157.581 344.706L165.728 394.545L233.034 383.542L224.887 333.704Z" fill="#0B4870"/>
<path d="M186.5 393.7C186.5 393.7 185.4 392 185.3 391C185.3 391 185.3 389.2 185.2 387.9C185.2 387.5 185.1 387.1 185.1 386.9C184.9 386 184.2 384 184.3 381.6C184.4 379.2 187.7 369.1 187.7 369.1L193.7 369.3L199.3 368.7C199.3 368.7 206.1 381.6 206.2 383.9C206.2 384.1 206.2 384.3 206.2 384.5C206.1 386.4 205.3 387.8 205.1 388.8C205 389.2 204.2 392.7 203.2 393.2C201.8 393.9 200.6 393.8 199.7 393.3C199.7 393.3 197 394.5 195 394C195 394 192.5 395.2 190.3 393.9C190.4 393.9 187.7 394.9 186.5 393.7Z" fill="#FFE3CA"/>
<path d="M222.1 213C222.1 213 210.2 209.6 203.3 222.7C196.5 235.9 196.5 241.5 195.6 247.9C194.7 254 186.4 290 186 291.7C185.6 293.4 182.9 315.9 182.7 324.1C182.6 330.3 184 371.2 183.8 372.8C183.5 374.4 202.7 370 202.7 370C202.7 370 200.6 332.3 201 328.4C201.4 324.5 202.2 304.8 204.2 299C206.5 292.2 215.4 258 217 254.6C218.4 251.3 232.2 217.3 222.1 213Z" fill="#2A94F4"/>
<path d="M419.3 210.3L423.8 233.1L428.3 255.9C428.3 255.9 402.4 247.8 373 253.6L371 243.5L369 233.4C398.5 227.6 419.3 210.3 419.3 210.3Z" fill="#FFBE55"/>
<path d="M377.2 278.5L379.8 277.3L368 252.4L361.4 255.5L371.4 276.6C372.5 279 374.8 279.6 377.2 278.5Z" fill="#2A94F4"/>
<path d="M361.7 252.4H361.4V279.7H361.7V252.4Z" fill="#2A94F4"/>
<path d="M362 252.4H361.7V279.7H362V252.4Z" fill="#2A94F4"/>
<path d="M362.3 252.4H362V279.7H362.3V252.4Z" fill="#2A94F4"/>
<path d="M362.6 252.4H362.3V279.7H362.6V252.4Z" fill="#2A94F4"/>
<path d="M362.9 252.4H362.6V279.7H362.9V252.4Z" fill="#2A94F4"/>
<path d="M363.2 252.4H362.9V279.7H363.2V252.4Z" fill="#2A94F4"/>
<path d="M363.4 252.4H363.1V279.7H363.4V252.4Z" fill="#2A94F4"/>
<path d="M363.7 252.4H363.4V279.7H363.7V252.4Z" fill="#2A94F4"/>
<path d="M364 252.4H363.7V279.7H364V252.4Z" fill="#2A94F4"/>
<path d="M364.3 252.4H364V279.7H364.3V252.4Z" fill="#2A94F4"/>
<path d="M364.6 252.4H364.3V279.7H364.6V252.4Z" fill="#2A94F4"/>
<path d="M364.8 252.4H364.5V279.7H364.8V252.4Z" fill="#2A94F4"/>
<path d="M365.1 252.4H364.8V279.7H365.1V252.4Z" fill="#2A94F4"/>
<path d="M365.4 252.4H365.1V279.7H365.4V252.4Z" fill="#2A94F4"/>
<path d="M365.7 252.4H365.4V279.7H365.7V252.4Z" fill="#2A94F4"/>
<path d="M366 252.4H365.7V279.7H366V252.4Z" fill="#2A94F4"/>
<path d="M366.3 252.4H366V279.7H366.3V252.4Z" fill="#2A94F4"/>
<path d="M366.5 252.4H366.2V279.7H366.5V252.4Z" fill="#2A94F4"/>
<path d="M366.8 252.4H366.5V279.7H366.8V252.4Z" fill="#2A94F4"/>
<path d="M367.1 252.4H366.8V279.7H367.1V252.4Z" fill="#2A94F4"/>
<path d="M367.4 252.4H367.1V279.7H367.4V252.4Z" fill="#2A94F4"/>
<path d="M367.7 252.4H367.4V279.7H367.7V252.4Z" fill="#2A94F4"/>
<path d="M367.9 252.4H367.6V279.7H367.9V252.4Z" fill="#2A94F4"/>
<path d="M368.2 252.4H367.9V279.7H368.2V252.4Z" fill="#2A94F4"/>
<path d="M368.5 252.4H368.2V279.7H368.5V252.4Z" fill="#2A94F4"/>
<path d="M368.8 252.4H368.5V279.7H368.8V252.4Z" fill="#2A94F4"/>
<path d="M369.1 252.4H368.8V279.7H369.1V252.4Z" fill="#2A94F4"/>
<path d="M369.4 252.4H369.1V279.7H369.4V252.4Z" fill="#2A94F4"/>
<path d="M369.6 252.4H369.3V279.7H369.6V252.4Z" fill="#2A94F4"/>
<path d="M369.9 252.4H369.6V279.7H369.9V252.4Z" fill="#2A94F4"/>
<path d="M370.2 252.4H369.9V279.7H370.2V252.4Z" fill="#2A94F4"/>
<path d="M370.5 252.4H370.2V279.7H370.5V252.4Z" fill="#2A94F4"/>
<path d="M370.8 252.4H370.5V279.7H370.8V252.4Z" fill="#2A94F4"/>
<path d="M371.1 252.4H370.8V279.7H371.1V252.4Z" fill="#2A94F4"/>
<path d="M371.3 252.4H371V279.7H371.3V252.4Z" fill="#2A94F4"/>
<path d="M371.6 252.4H371.3V279.7H371.6V252.4Z" fill="#2A94F4"/>
<path d="M371.9 252.4H371.6V279.7H371.9V252.4Z" fill="#2A94F4"/>
<path d="M372.2 252.4H371.9V279.7H372.2V252.4Z" fill="#2A94F4"/>
<path d="M372.5 252.4H372.2V279.7H372.5V252.4Z" fill="#2A94F4"/>
<path d="M372.7 252.4H372.4V279.7H372.7V252.4Z" fill="#2A94F4"/>
<path d="M373 252.4H372.7V279.7H373V252.4Z" fill="#2A94F4"/>
<path d="M373.3 252.4H373V279.7H373.3V252.4Z" fill="#2A94F4"/>
<path d="M373.6 252.4H373.3V279.7H373.6V252.4Z" fill="#2A94F4"/>
<path d="M373.9 252.4H373.6V279.7H373.9V252.4Z" fill="#2A94F4"/>
<path d="M374.2 252.4H373.9V279.7H374.2V252.4Z" fill="#2A94F4"/>
<path d="M374.4 252.4H374.1V279.7H374.4V252.4Z" fill="#2A94F4"/>
<path d="M374.7 252.4H374.4V279.7H374.7V252.4Z" fill="#2A94F4"/>
<path d="M375 252.4H374.7V279.7H375V252.4Z" fill="#2A94F4"/>
<path d="M375.3 252.4H375V279.7H375.3V252.4Z" fill="#2A94F4"/>
<path d="M375.6 252.4H375.3V279.7H375.6V252.4Z" fill="#2A94F4"/>
<path d="M375.8 252.4H375.5V279.7H375.8V252.4Z" fill="#2A94F4"/>
<path d="M376.1 252.4H375.8V279.7H376.1V252.4Z" fill="#2A94F4"/>
<path d="M376.4 252.4H376.1V279.7H376.4V252.4Z" fill="#2A94F4"/>
<path d="M376.7 252.4H376.4V279.7H376.7V252.4Z" fill="#2A94F4"/>
<path d="M377 252.4H376.7V279.7H377V252.4Z" fill="#2A94F4"/>
<path d="M377.3 252.4H377V279.7H377.3V252.4Z" fill="#2A94F4"/>
<path d="M377.5 252.4H377.2V279.7H377.5V252.4Z" fill="#2A94F4"/>
<path d="M377.8 252.4H377.5V279.7H377.8V252.4Z" fill="#2A94F4"/>
<path d="M378.1 252.4H377.8V279.7H378.1V252.4Z" fill="#2A94F4"/>
<path d="M378.4 252.4H378.1V279.7H378.4V252.4Z" fill="#2A94F4"/>
<path d="M378.7 252.4H378.4V279.7H378.7V252.4Z" fill="#2A94F4"/>
<path d="M378.9 252.4H378.6V279.7H378.9V252.4Z" fill="#2A94F4"/>
<path d="M379.2 252.4H378.9V279.7H379.2V252.4Z" fill="#2A94F4"/>
<path d="M379.5 252.4H379.2V279.7H379.5V252.4Z" fill="#2A94F4"/>
<path d="M379.8 252.4H379.5V279.7H379.8V252.4Z" fill="#2A94F4"/>
<path d="M352.8 257.8L378.7 253L374.5 231.7L348.8 237.6L352.8 257.8Z" fill="#2A94F4"/>
<path d="M349.3 231.7H348.8V257.8H349.3V231.7Z" fill="#2A94F4"/>
<path d="M349.7 231.7H349.2V257.8H349.7V231.7Z" fill="#2A94F4"/>
<path d="M350.2 231.7H349.7V257.8H350.2V231.7Z" fill="#2A94F4"/>
<path d="M350.6 231.7H350.1V257.8H350.6V231.7Z" fill="#2A94F4"/>
<path d="M351.1 231.7H350.6V257.8H351.1V231.7Z" fill="#2A94F4"/>
<path d="M351.6 231.7H351.1V257.8H351.6V231.7Z" fill="#2A94F4"/>
<path d="M352 231.7H351.5V257.8H352V231.7Z" fill="#2A94F4"/>
<path d="M352.5 231.7H352V257.8H352.5V231.7Z" fill="#2A94F4"/>
<path d="M352.9 231.7H352.4V257.8H352.9V231.7Z" fill="#2A94F4"/>
<path d="M353.4 231.7H352.9V257.8H353.4V231.7Z" fill="#2A94F4"/>
<path d="M353.9 231.7H353.4V257.8H353.9V231.7Z" fill="#2A94F4"/>
<path d="M354.3 231.7H353.8V257.8H354.3V231.7Z" fill="#2A94F4"/>
<path d="M354.8 231.7H354.3V257.8H354.8V231.7Z" fill="#2A94F4"/>
<path d="M355.2 231.7H354.7V257.8H355.2V231.7Z" fill="#2A94F4"/>
<path d="M355.7 231.7H355.2V257.8H355.7V231.7Z" fill="#2A94F4"/>
<path d="M356.2 231.7H355.7V257.8H356.2V231.7Z" fill="#2A94F4"/>
<path d="M356.6 231.7H356.1V257.8H356.6V231.7Z" fill="#2A94F4"/>
<path d="M357.1 231.7H356.6V257.8H357.1V231.7Z" fill="#2A94F4"/>
<path d="M357.5 231.7H357V257.8H357.5V231.7Z" fill="#2A94F4"/>
<path d="M358 231.7H357.5V257.8H358V231.7Z" fill="#2A94F4"/>
<path d="M358.5 231.7H358V257.8H358.5V231.7Z" fill="#2A94F4"/>
<path d="M358.9 231.7H358.4V257.8H358.9V231.7Z" fill="#2A94F4"/>
<path d="M359.4 231.7H358.9V257.8H359.4V231.7Z" fill="#2A94F4"/>
<path d="M359.8 231.7H359.3V257.8H359.8V231.7Z" fill="#2A94F4"/>
<path d="M360.3 231.7H359.8V257.8H360.3V231.7Z" fill="#2A94F4"/>
<path d="M360.8 231.7H360.3V257.8H360.8V231.7Z" fill="#2A94F4"/>
<path d="M361.2 231.7H360.7V257.8H361.2V231.7Z" fill="#2A94F4"/>
<path d="M361.7 231.7H361.2V257.8H361.7V231.7Z" fill="#2A94F4"/>
<path d="M362.1 231.7H361.6V257.8H362.1V231.7Z" fill="#2A94F4"/>
<path d="M362.6 231.7H362.1V257.8H362.6V231.7Z" fill="#2A94F4"/>
<path d="M363.1 231.7H362.6V257.8H363.1V231.7Z" fill="#2A94F4"/>
<path d="M363.5 231.7H363V257.8H363.5V231.7Z" fill="#2A94F4"/>
<path d="M364 231.7H363.5V257.8H364V231.7Z" fill="#2A94F4"/>
<path d="M364.5 231.7H364V257.8H364.5V231.7Z" fill="#2A94F4"/>
<path d="M364.9 231.7H364.4V257.8H364.9V231.7Z" fill="#2A94F4"/>
<path d="M365.4 231.7H364.9V257.8H365.4V231.7Z" fill="#2A94F4"/>
<path d="M365.8 231.7H365.3V257.8H365.8V231.7Z" fill="#2A94F4"/>
<path d="M366.3 231.7H365.8V257.8H366.3V231.7Z" fill="#2A94F4"/>
<path d="M366.8 231.7H366.3V257.8H366.8V231.7Z" fill="#2A94F4"/>
<path d="M367.2 231.7H366.7V257.8H367.2V231.7Z" fill="#2A94F4"/>
<path d="M367.7 231.7H367.2V257.8H367.7V231.7Z" fill="#2A94F4"/>
<path d="M368.1 231.7H367.6V257.8H368.1V231.7Z" fill="#2A94F4"/>
<path d="M368.6 231.7H368.1V257.8H368.6V231.7Z" fill="#2A94F4"/>
<path d="M369.1 231.7H368.6V257.8H369.1V231.7Z" fill="#2A94F4"/>
<path d="M369.5 231.7H369V257.8H369.5V231.7Z" fill="#2A94F4"/>
<path d="M370 231.7H369.5V257.8H370V231.7Z" fill="#2A94F4"/>
<path d="M370.4 231.7H369.9V257.8H370.4V231.7Z" fill="#2A94F4"/>
<path d="M370.9 231.7H370.4V257.8H370.9V231.7Z" fill="#2A94F4"/>
<path d="M371.4 231.7H370.9V257.8H371.4V231.7Z" fill="#2A94F4"/>
<path d="M371.8 231.7H371.3V257.8H371.8V231.7Z" fill="#2A94F4"/>
<path d="M372.3 231.7H371.8V257.8H372.3V231.7Z" fill="#2A94F4"/>
<path d="M372.7 231.7H372.2V257.8H372.7V231.7Z" fill="#2A94F4"/>
<path d="M373.2 231.7H372.7V257.8H373.2V231.7Z" fill="#2A94F4"/>
<path d="M373.7 231.7H373.2V257.8H373.7V231.7Z" fill="#2A94F4"/>
<path d="M374.1 231.7H373.6V257.8H374.1V231.7Z" fill="#2A94F4"/>
<path d="M374.6 231.7H374.1V257.8H374.6V231.7Z" fill="#2A94F4"/>
<path d="M375 231.7H374.5V257.8H375V231.7Z" fill="#2A94F4"/>
<path d="M375.5 231.7H375V257.8H375.5V231.7Z" fill="#2A94F4"/>
<path d="M376 231.7H375.5V257.8H376V231.7Z" fill="#2A94F4"/>
<path d="M376.4 231.7H375.9V257.8H376.4V231.7Z" fill="#2A94F4"/>
<path d="M376.9 231.7H376.4V257.8H376.9V231.7Z" fill="#2A94F4"/>
<path d="M377.3 231.7H376.8V257.8H377.3V231.7Z" fill="#2A94F4"/>
<path d="M377.8 231.7H377.3V257.8H377.8V231.7Z" fill="#2A94F4"/>
<path d="M378.3 231.7H377.8V257.8H378.3V231.7Z" fill="#2A94F4"/>
<path d="M378.7 231.7H378.2V257.8H378.7V231.7Z" fill="#2A94F4"/>
<path d="M379 262.3C379 262.3 371.3 261.6 371 262.8C370.7 264 371.4 264.6 371.4 264.6L368.1 265.7C368.1 265.7 366.3 267.7 369 269C369 269 367.2 270.7 369.9 271.7C369.9 271.7 369.2 273.4 370.4 274C371.6 274.7 376.6 274.9 376.6 274.9C376.6 274.9 377.7 274.5 377.4 272.5C377.4 272.5 379 271.5 378.6 269.7C378.6 269.7 379.7 268.7 379.3 266.8C379.3 266.8 381.7 264.4 379.9 262.2C379.8 262.4 379.3 262.3 379 262.3Z" fill="#FFE3CA"/>
</g>
<defs>
<clipPath id="clip0_486_8273">
<rect width="637" height="707" fill="white"/>
</clipPath>
</defs>
</svg>
