<svg width="56" height="56" viewBox="0 0 56 56" fill="none" xmlns="http://www.w3.org/2000/svg">
<g clip-path="url(#clip0_674_14182)">
<path d="M28.9333 55.1861C39.7385 55.1861 48.5333 46.5327 48.5333 35.9013C48.5333 25.2699 39.7385 16.6165 28.9333 16.6165C18.1253 16.6165 9.33331 25.2699 9.33331 35.9013C9.33331 46.5327 18.1253 55.1861 28.9333 55.1861ZM28.9333 22.1264C36.6529 22.1264 42.9333 28.3058 42.9333 35.9013C42.9333 43.4967 36.6529 49.6761 28.9333 49.6761C21.2137 49.6761 14.9333 43.4967 14.9333 35.9013C14.9333 28.3058 21.2137 22.1264 28.9333 22.1264ZM26.1333 0.0866699H14.9333V15.2886C18.284 13.0825 22.1259 11.7037 26.1333 11.2691V0.0866699ZM42.9333 0.0866699H31.7333V11.2691C35.7407 11.7037 39.5826 13.0825 42.9333 15.2886V0.0866699Z" fill="#FFB142"/>
<path d="M23.3865 38.135L22.0761 45.6451L28.9333 42.0994L35.7906 45.6451L34.4802 38.135L40.0298 32.8124L32.3634 31.7159L28.9333 24.8809L25.5033 31.7159L17.8369 32.8124L23.3865 38.135Z" fill="white"/>
</g>
<defs>
<clipPath id="clip0_674_14182">
<rect width="56" height="55.0994" fill="white" transform="translate(0 0.0866699)"/>
</clipPath>
</defs>
</svg>
