<svg width="791" height="586" viewBox="0 0 791 586" fill="none" xmlns="http://www.w3.org/2000/svg">
<g clip-path="url(#clip0_579_10456)">
<path d="M671.7 532.5C773.3 433.7 778.5 282.2 595.1 112.3C568.5 87.6 555.5 53.2 529.1 34.7C449.1 -21.4 336.8 -9.99997 266.1 73.3C227.4 118.9 211.8 181.5 171.6 226.2C126.5 276.4 72.4999 325.2 51.9999 393.6C38.3999 438.9 40.6999 488.3 56.1999 532.6C279 572.2 489.6 584.4 671.7 532.5Z" fill="#CCE9FF"/>
<path d="M590.7 437C590.7 437 577.5 517.6 627.1 536.5C676.7 555.4 664.2 516.2 664.2 516.2C664.2 516.2 683.3 509.6 627.4 482.4C601.1 469.6 590.7 437 590.7 437Z" fill="#2A94F4"/>
<path d="M655.1 541.6C655.1 541.6 725.1 542.1 740.4 448.1C755.6 354.1 791.1 336.3 791.1 336.3C791.1 336.3 638.9 354.1 655.1 541.6Z" fill="#0E538C"/>
<path d="M653 539.1C669.3 563.3 710 489.4 697 441.7C684 393.9 658.5 365.2 658.2 331.4C658.2 331.3 572.7 420.1 653 539.1Z" fill="#FFBE55"/>
<path d="M-0.0996094 457.2C-0.0996094 457.2 17.6004 536.9 70.7004 536C123.8 535.1 97.6004 503.3 97.6004 503.3C97.6004 503.3 112.9 490 50.9004 485.6C21.7004 483.6 -0.0996094 457.2 -0.0996094 457.2Z" fill="#2A94F4"/>
<path d="M94.0001 531.8C94.0001 531.8 147.7 515 131.1 455.5C114.6 396 136.3 376.8 136.3 376.8C136.3 376.8 25.4001 424.5 94.0001 531.8Z" fill="#FFBE55"/>
<path d="M88.5999 529.8C112.7 546.2 123.1 462.5 93.1999 423C63.3999 383.5 28.9999 366.3 16.1999 335C16.1999 335 -30.2001 449.3 88.5999 529.8Z" fill="#0E538C"/>
<path d="M361.1 532.4L373.7 548.6C373.7 548.6 356.8 567.4 362.4 565.7C368.1 563.9 399.2 538.9 399.2 538.9C399.2 538.9 384.2 518.7 384.4 518.6C384.7 518.5 361.1 532.4 361.1 532.4Z" fill="#0B4870"/>
<path d="M342.6 410.9L395.9 523.2L362 542.3L306.6 441.7L310.1 408.6L342.6 410.9Z" fill="#0B4870"/>
<path d="M480.7 443.6L520.6 579.5L525.2 579.4L494.5 442.8L480.7 443.6Z" fill="#D3D3D3"/>
<path d="M408.6 445.8L378.2 580.3L383.6 580.2L424.3 445.4L408.6 445.8Z" fill="#D3D3D3"/>
<path d="M444.1 442L448.8 578.7L455.2 578.6L458 442.2L444.1 442Z" fill="#D3D3D3"/>
<path d="M407.2 500L498.3 495.2L498.9 504.6L400.3 510.5L407.2 500Z" fill="#D3D3D3"/>
<path opacity="0.15" d="M408.5 445.8L407.1 452.7L422.2 452.4L424.1 445.5L408.5 445.8Z" fill="#D3D3D3"/>
<path opacity="0.15" d="M444.2 445.3L444.4 451.9L457.8 451.6L458 443.7L444.2 445.3Z" fill="#D3D3D3"/>
<path opacity="0.5" d="M446 497.5L446.3 507.3L440.5 507.4L438.3 497.9L447.5 497.4" fill="#D3D3D3"/>
<path opacity="0.5" d="M457.8 497.4V507.1L462.2 506.8L463.4 497.1L457.8 497.4Z" fill="#D3D3D3"/>
<path d="M377.2 436C390.1 429.7 442.4 433.1 442.4 433.1C442.4 433.1 427.6 249.8 446.7 248.3C465.8 246.8 509 233.1 516.8 260.8C525 289.9 513.9 445.7 503 444.2C478.1 440.8 401.1 449.7 377.9 444.2C372 442.8 377.2 436 377.2 436Z" fill="#FFBE55"/>
<path d="M500.4 264C500.5 264 500.8 264.5 501.5 265.5C501.8 266 502.2 266.6 502.6 267.4C503 268.2 503.4 269.1 503.9 270.1C505.7 274.2 507.6 280.6 508.4 288.6C509.3 296.6 509.3 306.2 509.2 316.8C509 327.4 508.4 339 507.4 351.2C506.4 363.4 505.3 375 504.2 385.5C503.1 396 502 405.5 500.6 413.4C499.2 421.3 497.3 427.6 495.8 431.8C494.3 436 493.1 438.2 493 438.2C492.8 438.1 493.6 435.8 494.8 431.5C496 427.2 497.5 421 498.7 413.1C499.9 405.2 500.8 395.8 501.7 385.3C502.7 374.8 503.8 363.2 504.7 351.1C505.6 339 506.4 327.4 506.7 316.8C507 306.3 507.2 296.8 506.5 288.9C505.9 281 504.4 274.7 502.9 270.6C501.4 266.3 500.2 264.1 500.4 264Z" fill="#EAA43F"/>
<path d="M306.7 329.9L301.9 327.4C301.9 327.4 298.8 326.3 293.8 323.3C292.5 322.5 291.3 321.5 290.4 320.4C289.2 319 287.7 317.1 287.1 315.8C286.4 314.2 284.3 314.1 283.9 315.5C283.6 316.9 285.3 321.3 289.3 325.2C293.3 329.1 284.9 327.9 281.8 327.6C278.7 327.2 269.2 326.5 268.4 327.4C267.3 328.6 268.5 330.2 271.6 330.5C274.7 330.8 283.9 332.4 283.8 334C283.7 335.6 268 333.5 268 333.5C268 333.5 264.7 332.5 264.5 334.4C264.1 337.7 280.8 338.8 282.4 338.8C283.5 338.8 283.4 340.6 282.2 340.5C281 340.4 266.6 338 266.2 341.4C265.9 344 279.9 342.4 282.8 344.5C285.7 346.6 271.9 344.6 271.7 347.1C271.6 348 271.7 348.7 279.6 348.8C287.7 348.8 309.5 345.3 309.5 345.3L306.4 329.9" fill="#FFBA98"/>
<path d="M413.8 264.6C413.8 264.6 372.9 319.6 363.5 322C354.1 324.5 300.4 327.7 300.4 327.7L295.6 350.9C295.6 350.9 364.3 354.5 379.4 343.4C403.2 325.9 428.1 285.5 428.1 285.5C428.9 272.2 423.8 265.6 413.8 264.6Z" fill="#F7F7F7"/>
<path d="M302.6 552.6L305.2 573C305.2 573 281 580.6 286.8 582C292.6 583.4 332.1 577.7 332.1 577.7C332.1 577.7 329.4 552.7 329.7 552.7C330 552.6 302.6 552.6 302.6 552.6ZM468.6 367.4C468.6 367.4 491.4 416.1 446.4 432.9L422.4 380.8L468.6 367.4Z" fill="#0E538C"/>
<path d="M437.3 380.4C437.3 380.4 307.5 344.7 292.9 374.7C278.3 404.6 295.7 560.5 295.7 560.5L336.3 556.2C336.3 556.2 329.5 419.3 336.3 414.5C343.1 409.7 436.6 433.3 446.4 432.9C470.3 431.9 487.2 387.3 437.3 380.4Z" fill="#0E538C"/>
<path d="M440.1 249.9C423.1 250.3 409.2 263.8 408.4 280.8C407.7 295 409.1 314.4 405.3 331.5C403.3 340.3 391.8 375.7 391.8 375.7L403.3 377.6C421.1 380.6 439.4 379.7 456.8 375L469.9 371.5C469.9 371.5 477.5 332.1 481.7 295.1C485.3 264.2 479.4 252.2 460.6 249.5L440.1 249.9Z" fill="#F7F7F7"/>
<path d="M431.1 252.1C431.7 249.1 430.7 236.5 430.7 236.5C430.7 236.5 419.2 235 418.8 223.6C418.3 212.2 419.6 185.9 419.6 185.9L440.8 176.1L463.5 194L465.6 206.6L460.3 221.6L457.9 250.2L431.1 252.1Z" fill="#B97A59"/>
<path d="M430.7 236.5C430.7 236.5 438.4 236.7 445.9 231.7C445.9 231.7 442.3 240 430.9 239.3L430.7 236.5Z" fill="#A0654B"/>
<path d="M405.6 368.8L400.2 368.5C400.2 368.5 396.9 368.8 391.1 368.1C389.6 367.9 388.1 367.5 386.7 366.9C385 366.1 382.8 365 381.8 364.1C380.5 362.9 378.5 363.7 378.8 365.2C379.1 366.7 382.5 369.9 387.8 371.8C393.1 373.7 384.9 376.2 382 377.1C379.1 378 370.1 381.4 369.8 382.5C369.3 384.1 371.1 385 374 384C377 383 385.9 380.5 386.5 382C387 383.5 372 388.1 372 388.1C372 388.1 368.6 388.6 369.2 390.4C370.3 393.6 385.8 387.5 387.3 386.9C388.3 386.5 389 388.1 387.9 388.5C386.7 388.9 372.7 392.8 373.8 396C374.6 398.5 386.7 391.1 390.2 391.9C393.7 392.6 380.4 396.6 381.2 398.9C381.5 399.8 381.9 400.4 389.1 397.1C396.5 393.7 414.7 381.4 414.7 381.4L405.4 368.7" fill="#B97A59"/>
<path d="M421.9 379.3C421.9 379.3 447.4 372 463.6 356.9C476.5 344.9 476.3 333.7 476.3 333.7L482.4 286.9L421.9 379.3Z" fill="#D3D3D3"/>
<path d="M457.4 253.5C457.4 253.5 452.5 321.9 445.9 329C439.3 336.1 395.8 367.7 395.8 367.7L404.3 389.9C404.3 389.9 464.1 355.9 470.9 338.4C479 317.2 480.5 284.2 480.7 270.1C480.8 264.1 478.4 258.3 473.7 254.6C468.8 250.7 463.3 250.5 457.4 253.5Z" fill="#F7F7F7"/>
<path d="M490.6 437.9C490.4 438.7 478.6 436.8 463.8 435.6C449.1 434.4 437 434.3 437 433.5C437 432.8 449.1 431.7 464 432.9C479 434.2 490.8 437.2 490.6 437.9ZM486.1 317.7C486 317.8 485.5 317.7 485.3 316.9C485.1 316.2 485.5 315 486.5 314.3C487 313.9 487.8 313.6 488.7 313.7C489.2 313.8 489.6 313.9 490 314.1C490.4 314.3 490.7 314.6 491 314.9C492.2 316.3 492.5 318.2 491.8 320.1C491.1 321.9 489.7 323.2 488 323.6C487.6 323.7 487.1 323.7 486.7 323.7C486.3 323.7 485.8 323.5 485.5 323.3C484.8 322.9 484.3 322.3 484.1 321.7C483.6 320.6 483.7 319.4 484.2 318.8C484.6 318.2 485.1 318.2 485.2 318.3C485.3 318.4 485.2 318.8 485.2 319.2C485.2 319.6 485.3 320.2 485.8 320.7C486 321 486.3 321.2 486.6 321.3C486.8 321.3 486.9 321.4 487 321.3C487.2 321.3 487.4 321.3 487.5 321.2C488.2 321 489.1 320.2 489.4 319.2C489.7 318.3 489.6 317.1 489.2 316.5C488.7 315.8 488.3 315.7 487.6 315.9C487 316.1 486.6 316.6 486.4 316.9C486.2 317.2 486.3 317.6 486.1 317.7Z" fill="#EAA43F"/>
<path d="M455 275.1C455.2 275.1 455.3 276.7 455.3 279.5C455.3 282.3 455.2 286.5 454.9 291.5C454.5 296.6 453.9 302.7 452.4 309.3C450.9 315.9 448.3 323.1 444 329.8C439.6 336.4 434 341.6 428.7 345.8C423.4 350 418.3 353.3 414.1 356.2C405.7 361.9 400.9 365.9 400.7 365.6C400.6 365.5 401.7 364.3 403.8 362.4C405.9 360.5 409.1 357.9 413.2 354.8C417.3 351.7 422.2 348.3 427.4 344.1C432.5 339.9 437.9 334.8 442 328.5C446.1 322.1 448.7 315.2 450.2 308.8C451.8 302.4 452.6 296.4 453.2 291.4C454.3 281.4 454.7 275.1 455 275.1Z" fill="#D3D3D3"/>
<path d="M441.2 253.8L442.1 243.6L458.7 240.6L463.7 251.4L441.2 253.8Z" fill="#D3D3D3"/>
<path d="M430.7 242.4L437.3 243.6V253.8L429 252.1L431 240.6" fill="#D3D3D3"/>
<path d="M410.8 290C410.8 300.7 409.5 311.3 406.9 321.7L410.8 290Z" fill="#D3D3D3"/>
<path d="M573.1 361.9H155V375.6H573.1V361.9Z" fill="#254368"/>
<path d="M187.7 375.6L155 581.2L171.3 581.5L227.5 375.6H187.7Z" fill="#254368"/>
<path d="M542.7 373.3L561.7 585.5H546.4L505.3 382.1L503.2 367L542.7 373.3Z" fill="#254368"/>
<path opacity="0.3" d="M504.4 375.6L505.9 385L543.6 383.6L542.9 375.6H504.4Z" fill="#000C38"/>
<path opacity="0.3" d="M187.7 375.6L186.2 385.3L225.1 384.2L227.5 375.6H187.7Z" fill="#000C38"/>
<path d="M217.6 285.8L243.7 361.9H361.6L360.7 358L313 356.5L291.1 285.8H217.6Z" fill="#D3D3D3"/>
<path d="M269.9 322.6C270.7 325.7 269.3 328.8 266.9 329.4C264.5 330 261.9 328 261.1 324.9C260.3 321.8 261.7 318.7 264.1 318.1C266.5 317.5 269.1 319.5 269.9 322.6Z" fill="#F7F7F7"/>
<path d="M506.1 338.2C502.6 326.3 501 309.6 500.1 297.3C499.9 294.9 499.8 292.3 500.7 290.1C501.6 287.8 503.7 285.8 506.1 285.9C508.1 285.9 510 287.4 511 289.1C512 290.9 512.4 292.9 512.8 294.9C515 306.4 517.3 317.8 519.5 329.3C521.6 325.2 524.5 321.5 527.8 318.4C529.3 317 531.5 315.6 533.3 316.6C534.9 317.5 535.1 319.7 535 321.6C534.8 327.2 534.1 332.8 532.9 338.3" fill="#2A94F4"/>
<path d="M501.301 337C501.301 337 495.401 360.3 519.201 361.4C541.101 362.4 535.901 337 535.901 337H501.301Z" fill="#0E538C"/>
<path d="M445.9 196.5C445.9 196.5 446.1 196.6 446.4 196.8C446.7 197 447.2 197.3 447.8 197.8C448.9 198.7 450.3 200.5 450.7 203.1C450.9 204.4 450.9 205.9 450.4 207.3C449.9 208.8 449.1 210.2 447.7 211.4C447.1 212 446.3 212.5 445.5 212.9C444.7 213.3 443.8 213.6 442.8 213.7C440.9 214 438.9 213.6 437.1 212.7C435.3 211.7 433.9 210.2 433.1 208.5C432.7 207.6 432.4 206.7 432.3 205.8C432.2 204.9 432.2 204 432.3 203.1C432.5 201.4 433.3 199.8 434.3 198.6C435.3 197.4 436.5 196.6 437.7 196C440.1 194.9 442.4 195.2 443.7 195.6C444.4 195.8 444.9 196 445.2 196.2C445.7 196.4 445.9 196.5 445.9 196.5C445.9 196.6 445.2 196.1 443.8 195.8C442.4 195.5 440.3 195.3 438 196.4C436.9 196.9 435.7 197.7 434.8 198.9C433.9 200.1 433.2 201.5 433 203.1C432.9 203.9 432.9 204.8 433 205.6C433.1 206.5 433.4 207.3 433.8 208.1C434.5 209.7 435.9 211.1 437.5 212.1C439.2 213 441.1 213.3 442.9 213.1C443.8 213 444.6 212.7 445.4 212.4C446.2 212 446.9 211.6 447.5 211C448.8 209.9 449.6 208.5 450.1 207.1C450.6 205.7 450.6 204.3 450.4 203.1C450 200.6 448.7 198.8 447.7 197.9C446.6 196.9 445.9 196.6 445.9 196.5Z" fill="#0B4870"/>
<path d="M420.4 194.7C420.4 194.7 420.6 194.7 421 194.7C421.4 194.7 421.9 194.8 422.6 195C424 195.4 426 196.3 427.6 198.4C428.4 199.5 429 200.8 429.2 202.3C429.4 203.8 429.3 205.5 428.7 207.2C428.4 208 427.9 208.8 427.4 209.5C426.8 210.2 426.2 210.9 425.4 211.4C423.8 212.5 421.9 213.1 419.8 213C417.8 212.9 415.9 212.2 414.4 211C413.6 210.4 413 209.7 412.5 209C412 208.2 411.6 207.4 411.3 206.6C410.7 204.9 410.8 203.2 411.1 201.7C411.4 200.2 412.2 198.9 413 197.9C414.7 195.9 416.8 195.1 418.2 194.8C418.9 194.7 419.5 194.6 419.9 194.7C420.2 194.6 420.4 194.7 420.4 194.7C420.4 194.8 419.6 194.7 418.2 195C416.8 195.3 414.8 196.2 413.2 198.1C412.4 199.1 411.7 200.3 411.4 201.8C411.1 203.2 411.1 204.9 411.6 206.4C411.8 207.2 412.2 208 412.7 208.7C413.2 209.4 413.8 210.1 414.5 210.6C415.9 211.7 417.7 212.4 419.6 212.5C421.5 212.5 423.4 212 424.8 211C425.5 210.5 426.2 209.9 426.7 209.2C427.2 208.5 427.7 207.8 428 207C428.6 205.5 428.8 203.9 428.6 202.4C428.4 200.9 427.8 199.7 427.1 198.6C425.6 196.5 423.7 195.5 422.4 195.1C421.2 194.7 420.4 194.7 420.4 194.7Z" fill="#0B4870"/>
<path d="M428.9 204.7C428.9 204.6 429.8 204.5 430.9 204.5C432 204.5 432.8 204.7 432.8 204.8C432.8 204.9 431.9 205 430.8 205C429.7 205 428.8 204.9 428.9 204.7Z" fill="#0B4870"/>
<path d="M450.2 205.5C450.2 205.4 452.3 205.3 454.9 205.4C457.5 205.5 459.6 205.7 459.6 205.8C459.6 205.9 457.5 206 454.9 205.9C452.3 205.8 450.2 205.6 450.2 205.5Z" fill="#0B4870"/>
<path d="M459.5 223.5C465.6 216.8 466.2 207.1 466.3 198C466.4 193.6 466.1 189.1 463.9 185.3C461.7 181.6 457.9 179.2 454 177.5C448 174.9 441.2 173.7 434.8 174.9C428.4 176.1 422.3 179.9 419.1 185.6C419.1 185.6 448.8 185 450.8 186.2C452.8 187.4 458.9 191.7 458.4 197C457.9 202.3 456.4 210.1 456.4 210.1L461.2 209.4C461.2 209.4 460.8 202.2 462.9 202.4C464.9 202.8 459.5 223.5 459.5 223.5Z" fill="#0E538C"/>
<path d="M460.9 211.2C461.1 212 462 212.6 462.9 212.5C463.8 212.5 464.6 212 465.3 211.5C466.7 210.4 467.9 208.8 468.1 207C468.3 205.2 467.5 203.2 466 202.3C464.4 201.4 462.1 201.8 461.2 203.4L460.9 211.2Z" fill="#B97A59"/>
</g>
<defs>
<clipPath id="clip0_579_10456">
<rect width="791" height="586" fill="white"/>
</clipPath>
</defs>
</svg>
