<svg width="1453" height="895" viewBox="0 0 1453 895" fill="none" xmlns="http://www.w3.org/2000/svg">
<path d="M995.455 221.764C1002.6 234.984 992.63 250.847 982.143 261.609C971.66 272.37 959.136 284.615 960.898 299.551C962.526 313.327 975.927 322.836 980.106 336.056C984.559 350.203 977.602 365.51 968.278 377.06C964.145 382.208 959.553 386.94 955.012 391.764C952.786 387.311 951.58 382.533 952.136 377.57C953.25 367.133 961.784 358.088 960.903 347.606C960.026 336.288 948.889 329.052 939.524 322.651C930.15 316.25 920.368 305.952 923.707 295.098C924.867 291.434 927.418 288.326 928.717 284.754C933.448 271.906 921.759 259.336 911.276 250.615C911.276 250.615 905.524 244.029 897.036 246.626C888.177 247.508 885.394 255.764 885.394 255.764C879.085 267.917 873.194 284.012 882.471 294.031C885.111 296.814 888.636 298.716 891.094 301.638C898.423 310.359 893.367 323.625 887.198 333.18C881.029 342.689 873.561 353.682 877.086 364.49C880.379 374.462 891.693 379.518 896.748 388.702C902.18 398.489 899.304 410.92 894.109 420.893C888.961 430.819 881.674 439.725 877.828 450.255C874.025 460.83 874.767 474.282 883.575 481.239C889.698 486.063 898.65 486.991 903.474 493.067C903.985 493.717 904.499 494.413 904.917 495.062H793.084C790.532 485.553 787.796 477.436 785.152 470.756C787.471 469.643 789.419 468.437 790.904 467.092C790.904 467.092 769.613 435.226 766.872 430.68C764.692 427.016 765.712 410.271 767.479 400.53C775.782 379.564 784.219 356.372 786.91 347.513C788.812 341.297 790.992 330.861 792.893 320.378C795.445 306.602 797.578 292.733 798.274 288.28C798.413 287.445 798.506 286.935 798.506 286.842C797.161 282.853 793.965 279.003 787.977 279.003C786.631 279.003 785.101 279.188 783.431 279.699C772.252 274.735 754.58 272.323 747.112 270.746C746.606 270.607 746.091 270.468 745.581 270.375C745.21 270.236 744.839 270.143 744.473 270.097C744.422 270.051 744.38 270.051 744.333 270.051C744.333 270.051 736.448 255.254 742.061 234.984C742.061 234.984 742.246 234.659 742.617 234.056C744.426 235.819 746.56 237.164 749.018 237.906C759.13 241.014 770.494 233.082 774.437 220.187C778.38 207.339 773.37 194.397 763.207 191.336C760.522 190.501 757.734 190.455 755.044 191.058C754.909 178.302 750.173 165.732 735.516 157.707C696.089 136.092 668.954 176.447 676.19 191.475C675.169 202.19 676.514 215.966 682.034 233.546C688.157 252.981 697.016 260.31 706.293 259.892C706.525 262.444 706.804 265.273 707.036 268.149C707.082 269.03 707.175 269.958 707.221 270.839C705.18 271.72 703.974 272.509 703.557 272.88C703.418 272.926 703.371 272.973 703.371 272.973C701.284 273.761 699.057 274.596 696.97 275.385C695.342 275.988 693.77 276.498 692.378 276.962C691.45 277.287 690.569 277.565 689.827 277.75C689.224 277.936 688.667 278.075 688.199 278.168C687.693 278.261 687.09 278.585 686.348 279.096C683.287 278.539 680.318 277.194 676.7 276.405C677.21 277.89 677.86 279.374 678.551 280.719C675.355 281.554 671.69 283.27 667.697 286.239C667.697 286.239 654.292 299.876 643.628 351.177C638.433 376.132 628.599 412.034 626.048 416.44C625.12 418.064 622.152 420.568 617.977 424.047L590.796 318.29H395.146L389.348 323.718L421.914 450.347H484.25V486.063H460.038C457.533 486.063 455.302 487.084 453.683 488.707C452.06 490.331 451.085 492.557 451.085 495.062H291.008V515.146H304.232V684.775H291.008V704.906H304.232V874.529H299.125C260.255 866.412 224.724 854.125 194.991 835.571C133.026 796.886 165.264 691.083 122.358 634.308C86.3124 586.574 37.2839 555.223 13.2149 495.428C-27.7891 393.8 30.6555 261.465 132.98 225.378C196.893 202.835 264.619 192.491 327.842 167.722C393.105 142.117 418.292 103.804 468.058 58.3933C558.09 -23.6145 711.303 -7.89015 821.647 40.0251C839.413 47.7249 856.065 56.2597 871.14 65.3974C917.153 93.089 955.328 131.866 998.697 162.527C987.75 176.396 977.128 194.857 986.266 209.653C988.915 213.972 992.992 217.311 995.455 221.764Z" fill="#CCE9FF"/>
<path d="M955.698 738.771H923.8V882.326H955.698V738.771Z" fill="#CCE9FF"/>
<path d="M663.945 466.025C661.301 467.927 659.677 469.087 659.677 469.087V469.458C656.291 469.597 652.395 469.875 648.823 470.339C640.799 471.452 622.055 481.796 618.39 486.063H573.907C582.535 480.868 596.358 472.89 611.015 464.958C631.002 454.151 645.432 443.436 649.19 437.777C653.086 431.84 662.451 409.111 670.8 387.357C670.383 392.598 669.965 398.165 671.496 405.864C674.469 421.079 667.052 450.44 663.945 466.025ZM558.188 468.159C558.188 468.669 558.188 469.179 558.276 469.643C555.817 469.782 553.266 470.014 550.854 470.339C542.83 471.452 524.044 481.796 520.38 486.063H514.767V450.347H582.952C570.016 459.717 558.188 468.159 558.188 468.159ZM1447.61 466.907C1434.25 523.681 1387.03 562.273 1362.91 613.667C1337.17 668.401 1339.9 736.586 1298.94 784.038C1280.95 804.864 1256.14 818.64 1230.62 829.077C1183.73 848.234 1135.21 861.871 1085.77 871.426L1112.53 579.157H1134.89V547.569H1108.82C1110.26 546.734 1111.75 545.807 1113.23 544.786C1134.2 530.5 1120.55 508.884 1133.18 493.067C1138 486.991 1146.99 486.063 1153.07 481.239C1161.88 474.282 1162.63 460.83 1158.82 450.254C1155.02 439.725 1147.74 430.819 1142.54 420.893C1137.35 410.92 1134.47 398.489 1139.9 388.702C1144.96 379.518 1156.32 374.462 1159.56 364.49C1163.09 353.682 1155.67 342.689 1149.5 333.18C1143.28 323.625 1138.27 310.359 1145.56 301.638C1148.01 298.716 1151.54 296.814 1154.18 294.031C1163.51 284.012 1157.56 267.917 1151.26 255.764C1151.26 255.764 1148.47 247.508 1139.66 246.626C1131.17 244.029 1125.42 250.615 1125.42 250.615C1114.89 259.336 1103.21 271.906 1107.93 284.754C1109.28 288.326 1111.83 291.434 1112.94 295.098C1116.33 305.952 1106.54 316.25 1097.13 322.651C1087.76 329.052 1076.62 336.288 1075.75 347.605C1074.91 358.088 1083.4 367.133 1084.51 377.57C1085.12 382.997 1083.68 388.238 1080.99 393.016C1076.12 387.775 1071.06 382.672 1066.56 377.06C1057.24 365.51 1050.28 350.203 1054.73 336.056C1058.9 322.836 1072.31 313.327 1073.94 299.551C1075.7 284.615 1063.18 272.37 1052.69 261.609C1042.21 250.847 1032.19 234.984 1039.43 221.764C1041.84 217.311 1045.92 213.972 1048.57 209.658C1051.95 204.138 1052.65 198.155 1051.59 192.032C1093.05 208.591 1139.21 213.972 1183.04 217.914C1280.72 226.681 1484.4 310.869 1447.61 466.907Z" fill="#CCE9FF"/>
<path d="M1153.07 481.239C1146.99 486.063 1137.99 486.991 1133.17 493.067C1120.55 508.885 1134.19 530.5 1113.23 544.786C1111.74 545.807 1110.25 546.734 1108.82 547.569C1091.42 557.867 1075.61 557.356 1060.95 547.569C1060.44 547.291 1059.98 546.966 1059.51 546.595C1055.56 543.812 1051.71 540.333 1047.96 536.251C1040.72 528.32 1034.14 516.445 1038.18 505.916C1042.02 495.897 1054.04 489.218 1050.43 476.415C1048.29 468.947 1040.36 464.634 1036.6 457.815C1031.18 447.982 1035.72 435.319 1043.28 427.062C1050.89 418.806 1061.05 413.425 1069.67 406.236C1074.08 402.571 1078.2 398.072 1080.99 393.016C1083.68 388.238 1085.12 382.997 1084.52 377.57C1083.4 367.133 1074.92 358.088 1075.75 347.606C1076.63 336.288 1087.76 329.052 1097.13 322.651C1106.55 316.25 1116.34 305.952 1112.95 295.098C1111.83 291.434 1109.28 288.326 1107.94 284.755C1103.21 271.906 1114.9 259.336 1125.43 250.615C1125.43 250.615 1131.18 244.029 1139.66 246.626C1148.48 247.508 1151.26 255.764 1151.26 255.764C1157.57 267.917 1163.51 284.012 1154.18 294.031C1151.54 296.814 1148.02 298.716 1145.56 301.638C1138.28 310.359 1143.29 323.625 1149.5 333.18C1155.67 342.689 1163.1 353.682 1159.57 364.49C1156.32 374.462 1144.96 379.518 1139.91 388.702C1134.47 398.489 1137.35 410.92 1142.55 420.893C1147.74 430.819 1155.02 439.725 1158.83 450.255C1162.62 460.83 1161.88 474.282 1153.07 481.239Z" fill="#0B4870"/>
<path d="M1135.61 268.543C1131.54 280.186 1128.13 292.023 1125.47 304.041C1124.11 310.053 1122.79 316.041 1122.47 322.062C1122.16 328.003 1122.88 334.168 1123.48 340.263C1124.87 352.485 1125.45 365.315 1122.79 377.769C1121.48 383.99 1119.41 390.177 1115.95 395.804C1115.08 397.214 1114.13 398.568 1113.07 399.867C1112.07 401.11 1110.68 402.474 1109.86 403.443C1107.92 405.438 1106.37 407.929 1104.89 410.401C1099.42 420.666 1096.75 432.791 1097.39 444.285C1097.62 447.133 1097.95 449.99 1098.74 452.653C1099.05 454.016 1099.54 455.283 1100.07 456.516L1100.94 458.632C1101.26 459.42 1101.6 460.199 1101.87 460.983C1104 467.324 1105.05 473.897 1104.87 480.502C1104.6 487.07 1103.35 493.763 1100.16 499.793C1098.66 502.836 1096.48 505.573 1094.08 508.003C1092.75 509.102 1091.54 510.327 1090.02 511.157L1086.25 513.523C1081.9 516.505 1079.75 522.211 1079.22 528.065C1078.58 533.951 1079.24 540.12 1080.51 546.103V546.117C1080.56 546.326 1080.43 546.516 1080.23 546.553C1080.05 546.6 1079.89 546.502 1079.82 546.335C1077.43 540.551 1076.1 534.359 1075.88 527.911C1075.81 524.702 1076.31 521.404 1077.32 518.175C1078.31 514.919 1080.42 511.913 1083.03 509.539L1086.83 506.602C1087.98 505.846 1088.88 504.793 1089.89 503.87C1091.66 501.783 1093.26 499.538 1094.32 496.94C1096.66 491.903 1097.54 486.124 1097.5 480.404C1097.58 474.671 1096.53 468.882 1094.67 463.562L1093.05 459.434C1092.39 457.815 1091.83 456.192 1091.48 454.536C1090.61 451.242 1090.3 447.921 1090.09 444.633C1089.91 431.473 1093.27 418.718 1099.79 407.446C1101.55 404.691 1103.37 401.936 1105.8 399.556C1107.04 398.234 1107.9 397.464 1108.87 396.346C1109.81 395.284 1110.67 394.148 1111.44 392.942C1114.62 388.136 1116.71 382.514 1118.12 376.726C1119.5 370.909 1120.24 364.898 1120.43 358.854C1120.67 352.824 1120.24 346.729 1119.81 340.564C1119.46 334.391 1118.94 328.212 1119.52 321.83C1120.14 315.531 1121.72 309.468 1123.33 303.512C1126.48 291.545 1130.38 279.773 1134.92 268.283C1134.99 268.102 1135.2 268.005 1135.4 268.079C1135.59 268.153 1135.67 268.358 1135.61 268.543Z" fill="#0E538C"/>
<path opacity="0.7" d="M937.892 515.146H845.818V684.775H937.892V515.146Z" fill="#FFBE55"/>
<path d="M986.271 476.415C982.606 489.217 994.666 495.897 998.47 505.916C1002.51 516.445 995.919 528.32 988.683 536.251C984.462 540.843 980.148 544.647 975.695 547.569C974.535 548.404 973.33 549.1 972.119 549.796C961.404 555.733 950.04 556.8 937.887 552.393V515.146H953.379C953.379 514.914 953.431 514.729 953.477 514.497C953.709 513.105 954.034 511.714 954.497 510.369C954.822 509.256 955.24 508.142 955.703 507.029V495.062H904.917C904.499 494.413 903.989 493.717 903.474 493.067C898.65 486.991 889.698 486.063 883.575 481.239C874.767 474.282 874.025 460.83 877.828 450.254C881.674 439.725 888.956 430.819 894.109 420.893C899.304 410.92 902.18 398.489 896.749 388.702C891.693 379.518 880.379 374.462 877.086 364.49C873.556 353.682 881.029 342.689 887.198 333.18C893.367 323.625 898.423 310.359 891.094 301.638C888.636 298.716 885.111 296.814 882.471 294.031C873.194 284.012 879.085 267.917 885.394 255.764C885.394 255.764 888.177 247.508 897.036 246.626C905.525 244.029 911.276 250.615 911.276 250.615C921.759 259.336 933.443 271.906 928.717 284.754C927.418 288.326 924.867 291.434 923.707 295.098C920.368 305.952 930.155 316.25 939.524 322.651C948.894 329.052 960.026 336.288 960.903 347.605C961.789 358.088 953.254 367.133 952.136 377.57C951.58 382.533 952.786 387.311 955.012 391.764C957.795 397.283 962.202 402.247 966.979 406.236C975.602 413.425 985.765 418.806 993.368 427.062C1000.98 435.319 1005.52 447.982 1000.05 457.815C996.285 464.634 988.353 468.947 986.271 476.415Z" fill="#0B4870"/>
<path d="M939.144 411.709C944.154 421.914 946.751 433.092 946.566 444.642C946.334 447.935 946.06 451.229 945.174 454.522C944.942 455.542 944.664 456.563 944.293 457.537C944.107 458.186 943.829 458.789 943.602 459.439L941.974 463.567C940.123 468.901 939.052 474.653 939.149 480.404C939.103 485.414 939.798 490.516 941.515 495.062H934.418C932.753 490.377 931.964 485.414 931.778 480.497C931.639 473.911 932.655 467.324 934.789 460.969C935.072 460.181 935.392 459.439 935.716 458.65L936.598 456.516C937.15 455.264 937.618 454.012 937.943 452.666C938.036 452.342 938.129 451.971 938.221 451.646C938.824 449.28 939.103 446.776 939.288 444.271C939.752 435.922 938.449 427.248 935.573 419.177C934.552 416.115 933.253 413.193 931.774 410.41C930.29 407.952 928.759 405.447 926.811 403.452C925.976 402.478 924.584 401.133 923.61 399.881C922.548 398.582 921.574 397.237 920.739 395.799C917.26 390.187 915.173 384.017 913.874 377.755C911.23 365.324 911.787 352.476 913.178 340.277C913.786 334.154 914.523 327.985 914.203 322.048C913.879 316.064 912.575 310.034 911.188 304.05C908.544 292.037 905.112 280.162 901.076 268.52C900.979 268.334 901.077 268.149 901.262 268.102C901.448 268.01 901.679 268.102 901.726 268.288C906.272 279.791 910.168 291.527 913.322 303.494C914.95 309.477 916.523 315.507 917.126 321.816C917.729 328.217 917.172 334.386 916.843 340.555C916.425 346.724 916.008 352.801 916.24 358.877C916.425 364.907 917.167 370.891 918.512 376.735C919.95 382.533 922.038 388.146 925.192 392.923C925.98 394.129 926.857 395.289 927.789 396.356C928.763 397.469 929.598 398.257 930.851 399.556C933.263 401.922 935.118 404.705 936.881 407.442C937.66 408.833 938.449 410.271 939.144 411.709Z" fill="#0E538C"/>
<path d="M960.759 527.902C960.662 531.01 960.291 534.025 959.692 536.994C959.043 540.194 958.069 543.348 956.816 546.317C956.77 546.502 956.584 546.595 956.399 546.549C956.213 546.502 956.074 546.317 956.121 546.131V546.085C956.997 542.003 957.559 537.828 957.6 533.747C957.693 531.845 957.6 529.943 957.415 528.088C957.044 523.681 955.75 519.414 953.287 516.26C952.962 515.889 952.637 515.518 952.266 515.146H953.375C953.375 514.915 953.426 514.729 953.472 514.497C953.704 513.106 954.029 511.714 954.493 510.369C954.91 510.786 955.332 511.25 955.699 511.714C957.368 513.616 958.625 515.842 959.317 518.161C960.337 521.408 960.852 524.702 960.759 527.902Z" fill="#F2F2F2"/>
<path d="M1098.06 449.605C1097.45 450.626 1096.71 451.646 1095.92 452.574C1094.76 453.965 1093.42 455.218 1091.98 456.377C1085.44 461.851 1077.04 465.515 1073.19 473.076C1060.99 496.825 1084.24 521.269 1060.81 545.296C1060.39 545.76 1059.93 546.178 1059.51 546.595C1059.19 546.92 1058.86 547.291 1058.49 547.569C1031.87 573.359 1003.8 572.895 974.021 551.187C973.371 550.723 972.768 550.26 972.119 549.796C971.242 549.054 970.31 548.311 969.433 547.569C965.861 544.461 962.475 540.89 959.688 536.994C958.946 535.927 958.25 534.86 957.6 533.747C954.446 528.32 952.642 522.382 953.287 516.26C953.287 515.889 953.333 515.518 953.379 515.146C953.379 514.915 953.43 514.729 953.477 514.497C953.709 513.106 954.033 511.714 954.497 510.369C954.822 509.256 955.239 508.142 955.703 507.029C960.11 496.082 968.185 485.878 961.641 473.076C958.023 466.072 950.601 462.407 944.293 457.537C942.344 456.053 940.494 454.429 938.917 452.574C938.68 452.295 938.406 451.971 938.221 451.646C931.217 442.694 931.449 430.124 935.577 419.177C936.551 416.579 937.762 414.075 939.149 411.709C939.241 411.431 939.427 411.152 939.566 410.92C943.833 403.87 949.353 397.794 955.012 391.764C959.553 386.94 964.15 382.208 968.278 377.06C977.601 365.51 984.559 350.203 980.106 336.056C975.932 322.836 962.526 313.327 960.898 299.551C959.136 284.615 971.66 272.37 982.142 261.609C992.63 250.847 1002.6 234.984 995.455 221.764C992.996 217.311 988.915 213.972 986.275 209.658C977.133 194.861 987.755 176.4 998.706 162.531C999.124 161.975 999.588 161.418 1000.01 160.908C1000.01 160.908 1005.75 150.889 1017.45 152.048C1029.09 150.889 1034.84 160.908 1034.84 160.908C1042.12 169.906 1049.63 181.131 1051.58 192.032C1052.65 198.155 1051.95 204.138 1048.57 209.658C1045.93 213.972 1041.84 217.311 1039.43 221.764C1032.19 234.984 1042.22 250.847 1052.69 261.609C1063.18 272.37 1075.7 284.615 1073.94 299.551C1072.31 313.327 1058.91 322.836 1054.73 336.056C1050.28 350.203 1057.24 365.51 1066.56 377.06C1071.06 382.672 1076.12 387.775 1080.99 393.016C1086.28 398.629 1091.33 404.38 1095.32 410.92C1095.83 411.755 1096.3 412.59 1096.76 413.472C1098.16 416.116 1099.31 418.899 1100.19 421.821C1103.11 431.283 1103.07 441.581 1098.06 449.605Z" fill="#2A94F4"/>
<path d="M1134.89 547.569H937.892V579.157H1134.89V547.569Z" fill="#0E538C"/>
<path d="M1112.53 579.157L1085.76 871.426L1084.75 882.326H955.699V874.534H949.395L937.892 749.203V704.906H955.699V684.775H937.892V579.157H1112.53Z" fill="#0E538C"/>
<path d="M1010.01 541.437C1005.42 534.554 1010.01 541.437 1008.05 533.144C1007.13 528.988 1006.91 524.59 1007.39 520.151C1007.81 515.68 1009.76 511.222 1012.54 507.47L1016.69 502.669C1018 501.403 1018.88 499.789 1019.93 498.332C1021.69 495.173 1023.18 491.838 1023.88 488.211C1025.6 481.063 1025.23 473.335 1023.7 465.942C1022.31 458.488 1019.44 451.266 1015.63 444.86L1012.46 439.929C1011.18 438.009 1010.05 436.042 1009.15 433.992C1007.16 429.947 1005.91 425.726 1004.78 421.515C1001.12 404.524 1002.15 387.116 1007.66 370.807C1009.23 366.781 1010.86 362.741 1013.39 359.03C1014.66 356.994 1015.55 355.765 1016.53 354.062C1017.46 352.439 1018.29 350.741 1018.99 348.979C1021.85 341.923 1023.1 334.094 1023.41 326.218C1023.67 318.328 1023.07 310.34 1021.76 302.459C1020.48 294.588 1018.33 286.8 1016.18 278.929C1014.13 271.011 1011.86 263.13 1010.93 254.72C1010.08 246.385 1010.57 238.124 1011.09 229.993C1012.05 213.666 1014.04 197.394 1016.94 181.331C1016.99 181.057 1017.23 180.886 1017.5 180.937C1017.75 180.988 1017.93 181.229 1017.89 181.479C1015.64 197.626 1014.32 213.851 1014 230.118C1013.8 238.254 1013.67 246.376 1014.78 254.252C1015.94 262.031 1018.5 269.833 1020.85 277.579C1025.84 293.057 1029.93 309.533 1029.72 326.361C1029.63 334.771 1028.58 343.329 1025.56 351.53C1024.82 353.575 1023.92 355.574 1022.89 357.532C1021.91 359.41 1020.47 361.53 1019.65 363.001C1017.65 366.099 1016.32 369.736 1015.02 373.312C1010.6 388.048 1010.3 404.459 1014.12 419.177C1015.19 422.813 1016.34 426.427 1018.05 429.669C1018.82 431.353 1019.77 432.879 1020.78 434.349L1022.47 436.854C1023.1 437.777 1023.73 438.695 1024.29 439.656C1028.68 447.318 1031.78 455.556 1033.26 464.165C1034.63 472.76 1034.74 481.75 1032.18 490.391C1031.04 494.728 1028.93 498.833 1026.45 502.599C1025.02 504.381 1023.77 506.282 1022.01 507.762L1017.73 511.811C1012.89 516.816 1011.6 524.757 1012.44 532.476C1013.12 540.282 1015.22 529.015 1018.42 536.437L1010.01 541.437Z" fill="#0E538C"/>
<path d="M579.339 481.007L564.403 482.353L556.1 483.095C555.034 482.77 544.365 484.069 538.474 486.063C537.82 486.295 537.264 486.527 536.758 486.759C533.465 488.243 527.156 489.31 523.214 489.078C521.126 488.939 519.735 488.429 519.735 487.409C519.735 487.269 519.735 487.13 519.781 486.991C519.874 486.713 520.06 486.434 520.384 486.063C524.049 481.796 542.834 471.452 550.859 470.339C553.271 470.014 555.817 469.782 558.28 469.643C564.733 469.226 570.345 469.272 570.345 469.272L579.339 481.007Z" fill="#F1B99E"/>
<path d="M697.017 285.914C697.017 285.96 696.924 286.471 696.785 287.352C696.553 289.068 696.089 292.13 695.44 296.026C694.786 300.108 693.956 305.117 693.023 310.452C692.518 313.374 691.961 316.435 691.4 319.45C691.4 319.589 691.353 319.682 691.353 319.821C690.426 324.923 689.405 330.026 688.431 334.618C687.406 339.303 686.39 343.477 685.458 346.585C683.236 353.728 677.341 370.195 670.8 387.311C670.8 387.357 670.8 387.357 670.8 387.357C662.451 409.111 653.086 431.84 649.19 437.777C645.428 443.436 631.002 454.151 611.015 464.958C596.358 472.89 582.535 480.868 573.907 486.063C572.33 487.037 570.893 487.872 569.687 488.615C569.687 488.615 568.759 487.64 567.414 486.063C566.491 485.043 565.466 483.791 564.403 482.353C561.667 478.642 558.791 473.911 558.281 469.643C558.192 469.179 558.192 468.669 558.192 468.159C558.192 468.159 570.02 459.717 582.962 450.347C583.379 450.023 583.838 449.698 584.261 449.373C594.975 441.627 606.242 433.417 612.04 428.918C613.154 428.083 614.039 427.387 614.684 426.83C615.844 425.856 616.957 424.929 617.978 424.047C622.152 420.568 625.121 418.064 626.048 416.44C628.6 412.034 638.433 376.132 643.628 351.177C644.278 347.977 644.973 344.915 645.664 341.993C645.989 340.555 646.36 339.117 646.69 337.726C648.401 330.768 650.168 324.692 651.88 319.404C652.673 316.945 653.462 314.719 654.25 312.585C654.524 311.75 654.807 310.962 655.127 310.22C655.684 308.735 656.24 307.344 656.755 305.999C657.776 303.54 658.75 301.36 659.677 299.458C660.28 298.252 660.837 297.093 661.342 296.072C662.085 294.727 662.739 293.568 663.342 292.547C663.991 291.434 664.594 290.46 665.151 289.625C665.383 289.254 665.661 288.883 665.893 288.558C666.078 288.28 666.218 288.048 666.403 287.862C666.538 287.677 666.681 287.491 666.774 287.352C667.006 287.027 667.192 286.795 667.377 286.61C667.423 286.517 667.512 286.471 667.563 286.424C667.655 286.285 667.697 286.239 667.697 286.239C671.686 283.27 675.351 281.554 678.551 280.719C680.504 280.209 682.313 279.977 683.932 279.977C684.4 279.977 684.859 279.977 685.277 280.023C692.935 280.58 697.017 285.914 697.017 285.914Z" fill="#F7F7F7"/>
<path d="M774.432 220.187C770.485 233.082 759.121 241.014 749.014 237.906C746.555 237.164 744.422 235.819 742.613 234.056C742.515 234.01 742.427 233.917 742.33 233.778C741.963 233.407 741.592 232.989 741.221 232.572C741.221 232.525 741.221 232.525 741.221 232.525C740.525 231.737 739.922 230.856 739.458 229.882C739.036 229.279 738.716 228.629 738.433 227.933C738.341 227.748 738.248 227.516 738.155 227.284C737.784 226.356 737.459 225.336 737.227 224.315C736.068 219.677 736.161 214.343 737.784 209.009C738.48 206.736 739.407 204.648 740.567 202.747C742.937 198.526 746.231 195.186 749.895 193.099C751.56 192.171 753.276 191.475 755.039 191.058C757.729 190.455 760.517 190.501 763.203 191.336C773.365 194.397 778.375 207.339 774.432 220.187Z" fill="#0B4870"/>
<path d="M790.157 495.062H661.811C662.831 490.377 663.759 486.017 664.594 482.167C664.64 481.982 664.691 481.796 664.691 481.61C665.062 479.848 665.433 478.224 665.753 476.74C666.407 473.632 666.959 471.081 667.33 469.272C667.655 467.834 667.841 466.907 667.938 466.489C667.938 466.396 667.984 466.35 667.984 466.304C667.984 466.257 668.031 466.211 668.077 466.164C668.123 466.025 668.216 465.84 668.309 465.701C668.546 465.329 668.866 464.773 669.283 464.077V464.031C669.793 463.149 670.443 462.083 671.236 460.83C679.488 447.425 702.824 413.982 729.124 413.379C738.169 413.147 747.585 416.765 756.815 426.413C761.551 431.283 766.232 437.731 770.731 445.987C774.766 453.177 778.663 461.804 782.466 471.962C783.023 473.447 783.579 474.931 784.136 476.508C786.492 483.141 788.482 489.31 790.157 495.062Z" fill="#EEBEA7"/>
<path d="M793.079 495.062H660.512C661.532 490.377 662.506 486.063 663.434 482.26C663.573 481.61 663.717 481.007 663.902 480.404C664.222 478.966 664.594 477.621 664.923 476.369C665.619 473.586 666.314 471.22 666.917 469.272C667.242 468.205 667.613 467.278 667.943 466.489C667.943 466.396 667.989 466.35 667.989 466.304C667.989 466.257 668.035 466.211 668.082 466.164C668.128 466.025 668.221 465.84 668.314 465.701C668.55 465.144 668.87 464.587 669.288 464.077V464.031C677.962 452.435 715.069 448.26 742.394 446.776C742.441 446.776 742.441 446.776 742.441 446.776C755.521 446.08 766.282 445.987 770.735 445.987C772.132 445.987 772.869 445.987 772.869 445.987C772.869 445.987 778.667 454.104 785.161 470.756C787.791 477.436 790.528 485.553 793.079 495.062Z" fill="#0E538C"/>
<path d="M766.867 430.68C769.608 435.226 790.899 467.092 790.899 467.092C789.415 468.437 787.466 469.643 785.147 470.756C784.312 471.174 783.431 471.591 782.457 471.962C768.541 477.668 744.514 480.544 721.647 481.239C708.891 481.61 696.557 481.332 686.441 480.497C682.591 480.173 679.066 479.755 676.004 479.245C671.551 478.595 668.072 477.714 665.753 476.74C665.475 476.647 665.197 476.508 664.918 476.369C663.434 475.627 662.645 474.792 662.687 473.864C662.785 472.705 662.97 471.174 663.341 469.319C663.476 468.344 663.712 467.231 663.944 466.025C667.052 450.44 674.473 421.079 671.505 405.865C669.974 398.165 670.392 392.599 670.809 387.357C670.809 387.357 670.809 387.357 670.809 387.311C671.417 380.121 672.02 373.535 667.381 362.82C659.399 344.405 655.549 328.681 659.398 318.198C661.161 313.374 666.263 304.746 671.69 296.768C674.798 292.222 678.045 287.909 680.87 284.569C682.498 282.667 683.982 281.09 685.277 280.023C685.648 279.652 686.019 279.328 686.343 279.096C687.085 278.585 687.688 278.261 688.194 278.168C688.663 278.075 689.219 277.936 689.822 277.75C690.564 277.565 691.446 277.287 692.373 276.962C693.765 276.498 695.342 275.988 696.965 275.385C699.053 274.596 701.279 273.761 703.366 272.973C703.366 272.973 703.413 272.926 703.552 272.88C704.851 272.37 706.145 271.86 707.263 271.396C710.695 270.051 713.154 269.03 713.154 269.03C721.317 267.824 732.171 268.01 739.129 268.984C739.825 269.077 740.474 269.216 741.165 269.308C742.422 269.54 743.485 269.772 744.324 270.051C744.37 270.051 744.417 270.051 744.463 270.097C744.83 270.143 745.201 270.236 745.572 270.375C746.082 270.468 746.597 270.607 747.103 270.746C754.57 272.323 772.243 274.735 783.422 279.699C785.741 280.765 787.782 281.879 789.405 283.131C801.744 292.733 788.06 334.34 788.06 334.34C788.06 334.34 771.408 388.563 768.903 394.918C768.393 396.17 767.929 398.118 767.465 400.53C765.707 410.271 764.692 427.016 766.867 430.68Z" fill="#FFBE55"/>
<path d="M744.329 270.051C724.936 307.065 707.912 289.996 707.912 289.996C708.195 286.007 707.824 278.678 707.263 271.396C707.263 271.21 707.263 271.025 707.217 270.839C707.17 269.958 707.078 269.03 707.031 268.149C706.799 265.273 706.521 262.444 706.289 259.892C705.732 254.233 705.315 250.105 705.315 250.105C705.315 250.105 728.461 230.345 738.434 227.933C738.485 227.933 738.526 227.933 738.573 227.887C739.315 227.702 739.964 227.655 740.521 227.748C742.655 227.841 743.536 229.603 742.33 233.778C742.33 233.824 742.33 233.917 742.284 234.01C742.191 234.335 742.098 234.659 742.052 234.938V234.984C736.444 255.254 744.329 270.051 744.329 270.051Z" fill="#EEBEA7"/>
<path d="M749.895 193.099C749.659 204.092 746.045 216.569 740.521 227.748C740.243 228.397 739.918 229 739.644 229.557C739.551 229.696 739.505 229.789 739.459 229.882C737.371 233.871 735.052 237.628 732.594 241.06C732.176 241.617 731.759 242.174 731.341 242.684C725.822 250.059 719.462 255.764 713.066 258.315C712.834 258.408 712.556 258.547 712.324 258.64C711.818 258.872 711.303 259.011 710.844 259.15C709.36 259.568 707.829 259.846 706.386 259.892C706.34 259.892 706.294 259.892 706.294 259.892C697.017 260.31 688.157 252.981 682.035 233.546C676.519 215.966 675.174 202.19 676.19 191.475C678.978 162.114 699.522 155.666 699.522 155.666C699.522 155.666 744.004 145.601 749.478 185.77C749.802 188.089 749.942 190.548 749.895 193.099Z" fill="#EEBEA7"/>
<path d="M755.044 191.058C755.276 210.215 745.076 229.65 742.613 234.056C742.242 234.659 742.056 234.984 742.056 234.984V234.937C741.917 234.242 741.639 233.453 741.221 232.572C741.221 232.525 741.221 232.525 741.221 232.525C740.804 231.598 740.247 230.577 739.644 229.557C739.273 229 738.949 228.444 738.577 227.887C738.438 227.655 738.299 227.47 738.16 227.284C737.65 226.542 737.14 225.753 736.629 225.011C733.475 220.512 729.95 216.291 729.115 215.27C728.929 215.131 728.883 215.039 728.883 215.039C697.156 212.719 678.138 194.119 678.138 194.119C677.303 193.377 676.7 192.449 676.19 191.475C668.954 176.447 696.089 136.092 735.516 157.707C750.174 165.732 754.905 178.302 755.044 191.058Z" fill="#0B4870"/>
<path d="M729.124 214.667C729.384 209.881 732.334 198.962 739.454 202.009C746.588 205.071 739.022 227.303 734.282 225.934C734.277 225.939 728.553 226.022 729.124 214.667Z" fill="#EEBEA7"/>
<path d="M732.593 241.06C732.547 241.292 731.666 245.328 728.048 250.708C724.43 256.089 718.075 262.722 707.036 268.149C706.804 265.273 706.525 262.444 706.293 259.892C706.293 259.892 706.34 259.892 706.386 259.892C706.757 259.939 708.339 259.985 710.844 259.15C711.308 259.011 711.818 258.872 712.323 258.64C712.555 258.547 712.834 258.408 713.066 258.315C717.426 256.367 723.734 252.053 731.341 242.684C731.759 242.173 732.176 241.617 732.593 241.06Z" fill="#A77860"/>
<path d="M747.112 270.746L705.319 323.671L703.371 272.973C703.371 272.973 703.417 272.926 703.557 272.88C703.974 272.509 705.18 271.72 707.221 270.839C712.323 268.659 722.616 265.922 739.134 268.984C739.829 269.076 740.479 269.216 741.17 269.308C742.195 269.54 743.257 269.772 744.329 270.051C744.375 270.051 744.421 270.051 744.468 270.097C744.834 270.143 745.205 270.236 745.576 270.375C746.091 270.468 746.601 270.607 747.112 270.746Z" fill="#F7F7F7"/>
<path opacity="0.9" d="M955.699 495.062V507.029C955.235 508.142 954.822 509.256 954.493 510.369C954.029 511.714 953.704 513.106 953.472 514.497C953.426 514.729 953.375 514.914 953.375 515.146H845.814V495.062H955.699Z" fill="#FFBE55"/>
<path d="M955.699 507.029V515.146H953.38C953.38 514.915 953.431 514.729 953.477 514.497C953.709 513.106 954.034 511.714 954.498 510.369C954.823 509.256 955.24 508.142 955.699 507.029Z" fill="#0E538C"/>
<path d="M845.814 495.062H291.008V515.146H845.814V495.062Z" fill="#FFBE55"/>
<path d="M623.358 444.92L617.56 450.347L584.256 449.373L514.772 447.425L506.979 447.193L505.866 447.147L484.251 446.544L427.754 444.92L389.348 323.718L395.146 318.291H590.791L617.977 424.047L623.358 444.92Z" fill="#F2F2F2"/>
<path d="M617.56 450.347H421.91L404.608 383.09L389.348 323.718H584.951L612.04 428.918L617.56 450.347Z" fill="#D3D3D3"/>
<path d="M514.772 417.461H505.866V486.063H514.772V417.461Z" fill="#F2F2F2"/>
<path d="M547.936 495.062H519.734V486.063H538.979C543.947 486.063 547.936 490.099 547.936 495.062Z" fill="#F7F7F7"/>
<path d="M506.979 417.461H484.25V486.063H506.979V417.461Z" fill="#F7F7F7"/>
<path d="M523.214 486.063V495.062H451.085C451.085 492.557 452.06 490.331 453.683 488.707C455.306 487.084 457.533 486.063 460.038 486.063H523.214Z" fill="#D3D3D3"/>
<path opacity="0.5" d="M304.232 515.146V684.775H845.818V515.146H304.232ZM771.418 633.798H362.352V562.923H771.418V633.798Z" fill="#FFBE55"/>
<path opacity="0.9" d="M955.699 684.775H845.818V704.905H955.699V684.775Z" fill="#FFBE55"/>
<path d="M845.814 684.775H291.008V704.905H845.814V684.775Z" fill="#FFBE55"/>
<path opacity="0.5" d="M845.818 704.906H304.232V874.529H845.818V704.906Z" fill="#FFBE55"/>
<path opacity="0.9" d="M955.699 874.534H845.818V894.669H955.699V874.534Z" fill="#FFBE55"/>
<path opacity="0.7" d="M937.892 704.906H845.818V874.529H937.892V704.906Z" fill="#FFBE55"/>
<path d="M845.814 874.534H291.008V894.669H845.814V874.534Z" fill="#FFBE55"/>
<path d="M677.349 481.007L665.062 482.121L664.594 482.167L663.434 482.26L654.064 483.095C652.998 482.77 642.329 484.069 636.438 486.063C635.784 486.295 635.228 486.527 634.722 486.759C629.527 489.125 616.632 490.47 617.792 486.991C617.884 486.713 618.075 486.434 618.395 486.063C622.059 481.796 640.798 471.452 648.828 470.339C652.399 469.875 656.291 469.597 659.682 469.458C660.98 469.411 662.233 469.365 663.346 469.319C664.826 469.272 666.036 469.272 666.918 469.272H667.335C667.989 469.272 668.309 469.272 668.309 469.272L676.009 479.245L677.349 481.007Z" fill="#F1B99E"/>
<path d="M798.506 286.842C798.506 286.935 798.413 287.445 798.274 288.28C797.578 292.733 795.444 306.602 792.893 320.378C790.992 330.861 788.811 341.297 786.91 347.513C784.219 356.372 775.782 379.564 767.479 400.53C763.717 410.178 759.965 419.316 756.806 426.413C754.213 432.211 752.075 436.571 750.637 438.751C749.292 440.838 746.467 443.622 742.427 446.776C742.427 446.776 742.427 446.776 742.38 446.776C741.638 447.379 740.896 447.982 740.061 448.585C733.238 453.78 723.776 459.81 712.504 465.886C703.088 470.988 693.997 476.091 686.436 480.497C682.911 482.538 679.71 484.394 676.974 486.063C674.705 487.409 672.753 488.568 671.129 489.589C671.129 489.589 669.784 488.197 668.068 486.063C667.094 484.95 666.073 483.605 665.057 482.121C664.918 481.982 664.821 481.796 664.686 481.61C664.403 481.239 664.13 480.822 663.898 480.404C661.671 476.926 659.723 472.937 659.677 469.458V469.087C659.677 469.087 661.3 467.927 663.944 466.025C665.892 464.634 668.397 462.871 671.227 460.83C685.977 450.255 710.282 432.675 716.169 427.758C722.064 422.795 726.373 419.362 727.533 417.368C727.904 416.718 728.461 415.327 729.11 413.379C731.8 405.633 736.439 388.841 740.52 372.143C742.19 365.232 743.814 358.32 745.113 352.105C755.781 300.804 769.181 287.166 769.181 287.166C774.887 283.038 779.572 280.673 783.422 279.699C785.091 279.188 786.622 279.003 787.967 279.003C793.96 279.003 797.161 282.853 798.506 286.842Z" fill="#F7F7F7"/>
<path fill-rule="evenodd" clip-rule="evenodd" d="M705.366 324.367L698.454 296.675C697.48 296.583 696.46 296.351 695.444 296.026C690.481 294.402 684.961 290.367 680.875 284.569C680.04 283.363 679.251 282.064 678.555 280.719C677.864 279.374 677.215 277.89 676.705 276.405C680.323 277.194 683.291 278.539 686.353 279.096C690.852 279.977 695.676 279.281 703.376 272.973L705.324 323.671V323.717L705.366 324.367Z" fill="#0E538C"/>
<path fill-rule="evenodd" clip-rule="evenodd" d="M705.319 323.708L747.13 270.756C750.85 291.146 759.381 281.721 768.546 286.225C756.982 295.372 738.053 304.649 730.831 299.959L705.319 323.708Z" fill="#0E538C"/>
<path d="M662.26 316.563L660.566 331.496L692.004 335.062L693.698 320.129L662.26 316.563Z" fill="#F7F7F7"/>
<path d="M771.413 562.922H362.347V633.798H771.413V562.922Z" fill="#FFBE55"/>
<path d="M706.294 486.063H538.984V495.062H706.294V486.063Z" fill="#F7F7F7"/>
</svg>
