<svg width="149" height="150" viewBox="0 0 149 150" fill="none" xmlns="http://www.w3.org/2000/svg">
<g clip-path="url(#clip0_74_389)">
<path d="M74.3786 150C115.457 150 148.757 148.044 148.757 145.631C148.757 143.218 115.457 141.262 74.3786 141.262C33.3005 141.262 0 143.218 0 145.631C0 148.044 33.3005 150 74.3786 150Z" fill="#E6E6E6"/>
<path d="M84.3178 34.6076H83.5176V12.687C83.5176 9.32217 82.181 6.09519 79.8017 3.71593C77.4224 1.33666 74.1955 0 70.8307 0H24.3891C21.0243 0 17.7973 1.33666 15.4181 3.71593C13.0388 6.09519 11.7021 9.32217 11.7021 12.687V132.944C11.7021 136.309 13.0388 139.536 15.4181 141.915C17.7973 144.295 21.0243 145.631 24.3891 145.631H70.8307C74.1955 145.631 77.4224 144.295 79.8017 141.915C82.181 139.536 83.5176 136.309 83.5176 132.944V50.2109H84.3178V34.6076Z" fill="#3F3D56"/>
<path d="M80.8169 12.7757V132.856C80.8168 135.369 79.8186 137.779 78.0417 139.556C76.2649 141.332 73.8549 142.331 71.3421 142.331H24.6777C22.1649 142.331 19.7551 141.332 17.9783 139.556C16.2015 137.779 15.2032 135.369 15.2031 132.856V12.7757C15.2032 10.2628 16.2014 7.85287 17.9783 6.07601C19.7552 4.29916 22.1651 3.3009 24.6779 3.30084H30.339C30.0608 3.98438 29.9549 4.72582 30.0305 5.45992C30.1061 6.19402 30.3609 6.8983 30.7726 7.5108C31.1843 8.12329 31.7401 8.62523 32.3913 8.97246C33.0425 9.3197 33.7691 9.50158 34.5071 9.50212H61.113C61.851 9.50162 62.5776 9.31976 63.2288 8.97254C63.88 8.62532 64.4359 8.12339 64.8476 7.51089C65.2593 6.89839 65.5142 6.1941 65.5898 5.45998C65.6654 4.72586 65.5595 3.9844 65.2812 3.30084H71.3421C73.8549 3.3009 76.2649 4.29916 78.0417 6.07601C79.8186 7.85287 80.8168 10.2628 80.8169 12.7757Z" fill="white"/>
<path d="M36.7607 103.692H35.7793L36.107 84.5223H36.4346L36.7607 103.692Z" fill="#E6E6E6"/>
<path d="M37.5777 72.4536L39.1618 70.0055C38.692 68.7078 38.1494 67.4377 37.5366 66.2012L36.5123 67.0286L37.3234 65.7752C36.5504 64.2538 35.9422 63.295 35.9422 63.295C35.9422 63.295 32.7657 68.301 31.7038 73.6021L33.7366 76.7437L31.4867 74.9261C31.4066 75.5435 31.3653 76.1654 31.3633 76.788C31.3633 83.0658 33.4136 88.1548 35.9427 88.1548C38.4718 88.1548 40.522 83.0651 40.522 76.788C40.522 74.842 40.0817 72.8059 39.4735 70.9223L37.5777 72.4536Z" fill="#CCCCCC"/>
<path d="M62.3086 103.692H61.3271L61.6548 84.5223H61.9825L62.3086 103.692Z" fill="#E6E6E6"/>
<path d="M63.1264 72.4536L64.7105 70.0055C64.2407 68.7078 63.6981 67.4377 63.0853 66.2012L62.0611 67.0286L62.8721 65.7752C62.0991 64.2538 61.4909 63.295 61.4909 63.295C61.4909 63.295 58.314 68.3015 57.2532 73.6021L59.2845 76.7433L57.0346 74.9256C56.9544 75.5431 56.9132 76.165 56.9111 76.7876C56.9111 83.0653 58.9614 88.1543 61.4905 88.1543C64.0196 88.1543 66.0699 83.0647 66.0699 76.7876C66.0699 74.8415 65.6295 72.8055 65.0214 70.9219L63.1264 72.4536Z" fill="#CCCCCC"/>
<path d="M36.0133 40.1487C40.9933 40.1487 45.0305 36.1116 45.0305 31.1316C45.0305 26.1515 40.9933 22.1144 36.0133 22.1144C31.0332 22.1144 26.9961 26.1515 26.9961 31.1316C26.9961 36.1116 31.0332 40.1487 36.0133 40.1487Z" fill="#E6E6E6"/>
<path d="M48.5029 100.901H46.4795L47.154 61.3752H47.8284L48.5029 100.901Z" fill="#E6E6E6"/>
<path d="M50.1887 36.4905L53.455 31.4432C52.4863 28.7675 51.3675 26.1486 50.1039 23.5989L47.9918 25.3047L49.6642 22.7201C48.0696 19.5829 46.8164 17.6062 46.8164 17.6062C46.8164 17.6062 40.2658 27.9288 38.0773 38.8582L42.2676 45.336L37.6275 41.5882C37.4623 42.8614 37.3773 44.1437 37.373 45.4275C37.373 58.3716 41.6005 68.8648 46.8153 68.8648C52.0301 68.8648 56.2576 58.3716 56.2576 45.4275C56.2576 41.4148 55.3497 37.2166 54.0974 33.333L50.1887 36.4905Z" fill="#CCCCCC"/>
<path d="M80.8173 106.598V133.468C80.8173 138.918 76.5754 143.336 71.3425 143.336H24.6782C19.4454 143.336 15.2033 138.918 15.2031 133.468V109.218C23.2937 99.3262 34.9913 93.4146 47.4583 92.9167C59.9253 92.4189 72.0234 97.3805 80.8173 106.598Z" fill="#E6E6E6"/>
<path opacity="0.2" d="M48.061 133.103C55.6865 133.103 61.8681 126.922 61.8681 119.296C61.8681 111.671 55.6865 105.489 48.061 105.489C40.4356 105.489 34.2539 111.671 34.2539 119.296C34.2539 126.922 40.4356 133.103 48.061 133.103Z" fill="#8854D0"/>
<path d="M48.0608 130.414C54.2009 130.414 59.1783 125.436 59.1783 119.296C59.1783 113.156 54.2009 108.179 48.0608 108.179C41.9208 108.179 36.9434 113.156 36.9434 119.296C36.9434 125.436 41.9208 130.414 48.0608 130.414Z" fill="#8854D0"/>
<path d="M46.7648 124.05L42.8467 119.012L45.1252 117.24L46.9802 119.625L53.247 113.01L55.3427 114.995L46.7648 124.05Z" fill="white"/>
<path d="M107.141 102.004C111.122 102.004 114.35 98.7771 114.35 94.796C114.35 90.8148 111.122 87.5875 107.141 87.5875C103.16 87.5875 99.9326 90.8148 99.9326 94.796C99.9326 98.7771 103.16 102.004 107.141 102.004Z" fill="#2F2E41"/>
<path d="M110.062 135.263L110.618 137.883L120.987 136.988L120.168 133.121L110.062 135.263Z" fill="#FFB8B8"/>
<path d="M109.255 143.451L107.51 135.217L110.691 134.543L111.762 139.595C111.851 140.013 111.856 140.444 111.778 140.864C111.7 141.284 111.54 141.684 111.307 142.042C111.074 142.4 110.773 142.709 110.421 142.951C110.069 143.192 109.673 143.362 109.255 143.451Z" fill="#2F2E41"/>
<path d="M103.567 135.124L102.399 137.534L92.5479 134.179L94.2705 130.622L103.567 135.124Z" fill="#FFB8B8"/>
<path d="M100.878 138.924L103.129 134.276L106.056 135.693L102.388 143.268C101.612 142.892 101.016 142.224 100.733 141.409C100.45 140.594 100.502 139.701 100.878 138.924Z" fill="#2F2E41"/>
<path d="M84.1554 130.363C84.4926 130.426 84.8396 130.414 85.1717 130.328C85.5039 130.242 85.8132 130.085 86.0779 129.867C86.3426 129.648 86.5562 129.375 86.7037 129.065C86.8512 128.755 86.9289 128.417 86.9315 128.074L103.178 113.095L99.1432 109.971L84.4341 125.685C83.8573 125.719 83.3129 125.963 82.9041 126.371C82.4952 126.78 82.2504 127.324 82.2161 127.9C82.1817 128.477 82.3602 129.046 82.7177 129.5C83.0752 129.954 83.5869 130.261 84.1556 130.363L84.1554 130.363Z" fill="#FFB8B8"/>
<path d="M106.236 102.33C109.199 102.33 111.601 99.9279 111.601 96.9648C111.601 94.0018 109.199 91.5997 106.236 91.5997C103.273 91.5997 100.871 94.0018 100.871 96.9648C100.871 99.9279 103.273 102.33 106.236 102.33Z" fill="#FFB8B8"/>
<path d="M111.052 128.502C107.288 128.502 102.756 127.709 99.9595 124.466L99.8965 124.393L99.9621 124.321C99.9839 124.298 102.04 121.947 99.9863 117.755L97.1619 118.623L94.3506 114.912L95.9081 110.24L102.281 105.107C103.195 104.375 104.306 103.934 105.473 103.842C107.584 103.637 109.64 103.052 111.542 102.113C112.412 101.69 113.371 101.481 114.338 101.501L114.463 101.505C114.758 101.513 115.047 101.581 115.314 101.705C115.581 101.828 115.821 102.005 116.018 102.223C116.214 102.442 116.365 102.698 116.46 102.977C116.555 103.256 116.592 103.551 116.569 103.844C116.137 109.443 115.374 122.967 117.616 127.624L117.674 127.744L117.545 127.777C115.414 128.256 113.236 128.499 111.052 128.502L111.052 128.502Z" fill="#8854D0"/>
<path d="M100.698 124.395C100.698 124.395 86.499 123.084 84.9699 127.234C83.4408 131.385 85.1883 133.351 87.8096 134.224C90.4309 135.098 96.7656 136.19 96.7656 136.19L99.6053 132.695L107.032 133.132C107.032 133.132 115.308 137.932 117.596 143.065C118.087 144.176 118.87 145.133 119.861 145.835C120.853 146.536 122.016 146.956 123.227 147.049C125.062 147.176 126.692 146.484 126.692 143.617C126.692 137.064 117.517 127.671 117.517 127.671L100.698 124.395Z" fill="#2F2E41"/>
<path d="M89.8848 130.838C89.8848 130.838 93.5982 129.746 99.4961 132.586L89.8848 130.838Z" fill="#2F2E41"/>
<path d="M100.885 93.5432C102.98 94.8223 105.342 95.6006 107.787 95.8176L107.06 94.9458C107.59 95.1416 108.147 95.2522 108.711 95.2735C108.994 95.2817 109.275 95.2235 109.531 95.1037C109.787 94.9839 110.011 94.8057 110.186 94.5834C110.329 94.3527 110.413 94.0908 110.433 93.8202C110.453 93.5495 110.407 93.2782 110.299 93.0292C110.077 92.5327 109.732 92.1011 109.296 91.7756C108.524 91.1647 107.613 90.7544 106.643 90.5812C105.674 90.408 104.677 90.4772 103.741 90.7828C103.099 90.9745 102.523 91.3433 102.081 91.847C101.864 92.1007 101.713 92.4043 101.642 92.7307C101.571 93.0571 101.582 93.3961 101.674 93.7171" fill="#2F2E41"/>
<path d="M107.103 89.255C108.056 87.0414 109.483 85.0637 111.283 83.4611C112.439 82.4345 113.789 81.5513 115.312 81.2848C116.835 81.0183 118.552 81.4749 119.487 82.7071C120.251 83.7148 120.394 85.0647 120.31 86.3264C120.226 87.5881 119.943 88.8385 119.97 90.1019C119.998 91.3919 120.347 92.6546 120.987 93.7754C121.626 94.8961 122.535 95.8395 123.631 96.5198C124.728 97.2 125.977 97.5957 127.265 97.6709C128.553 97.7461 129.839 97.4984 131.007 96.9502C129.692 97.6774 128.667 98.8288 127.447 99.7043C126.227 100.58 124.615 101.181 123.228 100.602C121.761 99.9905 121.088 98.3262 120.562 96.8253L118.218 90.1323C117.819 88.9944 117.401 87.823 116.588 86.9332C115.775 86.0435 114.455 85.5009 113.335 85.9483C112.487 86.2873 111.935 87.0969 111.45 87.8706C110.966 88.6443 110.455 89.4696 109.637 89.8756C108.82 90.2817 107.606 90.0318 107.339 89.1581" fill="#2F2E41"/>
<path d="M108.943 128.521C108.851 128.521 108.758 128.515 108.666 128.505C108.056 128.437 107.495 128.137 107.099 127.667C106.702 127.198 106.501 126.594 106.536 125.981C106.571 125.367 106.84 124.791 107.287 124.369C107.734 123.948 108.325 123.714 108.94 123.715C109.047 123.715 109.154 123.723 109.26 123.739L116.595 115.93L115.829 113.378L119.674 111.654L120.751 114.288C121.113 115.181 121.177 116.166 120.934 117.098C120.691 118.029 120.154 118.858 119.403 119.46L111.329 125.882C111.338 125.96 111.342 126.039 111.343 126.118C111.342 126.456 111.271 126.79 111.133 127.099C110.995 127.407 110.794 127.683 110.542 127.909C110.104 128.305 109.534 128.523 108.943 128.521Z" fill="#FFB8B8"/>
<path d="M114.678 102.551C114.932 102.438 115.207 102.377 115.485 102.373C115.763 102.369 116.039 102.421 116.297 102.526C116.555 102.631 116.788 102.787 116.984 102.985C117.18 103.183 117.334 103.418 117.436 103.677L121.231 113.254L115.333 117.186L114.678 102.551Z" fill="#8854D0"/>
</g>
<defs>
<clipPath id="clip0_74_389">
<rect width="148.757" height="150" fill="white"/>
</clipPath>
</defs>
</svg>
