<svg width="465" height="387" viewBox="0 0 465 387" fill="none" xmlns="http://www.w3.org/2000/svg">
<g clip-path="url(#clip0_932_6080)">
<path d="M228.147 387.137C358.253 387.137 463.725 333.641 463.725 267.649C463.725 201.657 358.253 148.161 228.147 148.161C98.0414 148.161 -7.43042 201.657 -7.43042 267.649C-7.43042 333.641 98.0414 387.137 228.147 387.137Z" fill="#FAFAFA"/>
<path d="M50.3775 309.875L11.6791 290.25C9.49598 289.141 9.49598 287.352 11.6791 286.243L236.782 172.069C238.008 171.529 239.361 171.248 240.732 171.248C242.104 171.248 243.456 171.529 244.682 172.069L283.39 191.703C285.574 192.804 285.574 194.601 283.39 195.71L58.2875 309.875C57.0621 310.422 55.707 310.707 54.3325 310.707C52.958 310.707 51.6029 310.422 50.3775 309.875Z" fill="#E0E0E0"/>
<path d="M76.3593 19.5566L67.6367 23.9942C67.6367 23.6502 67.7053 23.3148 67.7053 22.9794V20.752C67.7053 16.7874 64.5432 15.1792 60.6273 17.1658C58.9491 18.0729 57.5133 19.2873 56.4178 20.7262C55.7717 15.7382 51.3272 13.8462 45.9135 16.624C40.0397 19.591 35.3309 26.7978 35.3309 32.7318V36.06C35.2883 37.39 35.5931 38.7109 36.2218 39.9214L28.9481 43.6108C27.8087 44.2666 26.8608 45.1483 26.1806 46.1851C25.5004 47.2218 25.107 48.3844 25.0322 49.5792C25.0322 51.7808 26.7944 52.6752 28.9481 51.5744L76.3593 27.5202C77.4992 26.8649 78.4476 25.9832 79.1278 24.9464C79.8081 23.9096 80.2011 22.7467 80.2751 21.5518C80.2751 19.3502 78.5522 18.4558 76.3593 19.5566Z" fill="#EBEBEB"/>
<path d="M121.705 37.9777L115.097 41.3317C115.136 41.075 115.155 40.8165 115.156 40.5577V38.8377C115.156 35.8449 112.767 34.6323 109.82 36.1287C108.55 36.8092 107.464 37.7249 106.639 38.8119C106.149 35.0537 102.791 33.6519 98.709 35.7245C94.3037 37.9605 90.7207 43.4043 90.7207 47.8763V50.3961C90.6927 51.3974 90.9236 52.3913 91.3961 53.3029L85.9139 56.0893C85.0566 56.5856 84.344 57.252 83.8339 58.0348C83.3237 58.8176 83.0302 59.6948 82.9771 60.5957C82.9771 62.2555 84.3084 62.9263 85.9139 62.1007L121.705 43.9461C122.562 43.4492 123.274 42.7827 123.784 42C124.294 41.2173 124.588 40.3403 124.642 39.4397C124.671 37.8401 123.35 37.1521 121.705 37.9777Z" fill="#EBEBEB"/>
<path d="M189.488 274.899L222.773 258C226.209 256.28 227.923 253.975 227.923 251.696C227.923 249.417 227.923 247.637 227.923 247.637L193.404 230.532C192.441 229.979 191.639 229.235 191.064 228.359C190.489 227.484 190.157 226.501 190.095 225.492V189.458L131.984 218.956V254.99C132.048 255.999 132.38 256.981 132.955 257.856C133.53 258.732 134.331 259.476 135.293 260.03L164.662 274.899C171.505 278.373 182.626 278.373 189.488 274.899Z" fill="#8854D0"/>
<path d="M145.924 261.371V265.422L135.273 260.029C134.312 259.476 133.512 258.731 132.939 257.856C132.366 256.98 132.035 255.998 131.974 254.99V218.964L143.036 213.349C143.271 215.817 143.516 218.371 143.751 220.856L135.988 224.804V252.96C136.046 253.97 136.376 254.954 136.952 255.83C137.527 256.706 138.331 257.45 139.297 258L145.924 261.371Z" fill="black"/>
<path d="M135.988 252.969C136.05 253.978 136.382 254.96 136.957 255.836C137.532 256.712 138.333 257.456 139.297 258.008L164.642 270.831C171.495 274.314 182.626 274.314 189.488 270.831L222.773 253.941C229.626 250.501 229.626 244.825 222.773 241.342L197.408 228.502C196.443 227.951 195.64 227.207 195.065 226.331C194.49 225.455 194.159 224.472 194.099 223.462V195.314L135.998 224.812L135.988 252.969Z" fill="#37474F"/>
<path d="M204.153 231.933L197.408 228.493C196.443 227.942 195.64 227.198 195.065 226.322C194.49 225.447 194.159 224.463 194.099 223.454V195.314L135.988 224.812V252.969C136.05 253.978 136.382 254.96 136.957 255.836C137.532 256.712 138.333 257.456 139.297 258.008L145.925 261.362L204.153 231.933Z" fill="#263238"/>
<path d="M227.913 247.68V251.748C227.913 254.027 226.19 256.297 222.763 258.043L189.479 274.934C185.831 276.643 181.757 277.53 177.623 277.514V273.463C181.758 273.483 185.833 272.596 189.479 270.883L222.763 253.975C226.19 252.204 227.913 249.925 227.913 247.68Z" fill="#455A64"/>
<path d="M42.6829 287.962C43.9371 288.495 45.3164 288.761 46.7092 288.738C48.1021 288.716 49.4694 288.406 50.7006 287.833L275.431 173.849C276.638 173.161 277.643 172.232 278.362 171.138C279.082 170.044 279.497 168.816 279.572 167.554V7.32722C279.516 6.1016 279.132 4.9048 278.452 3.83361C277.772 2.76241 276.814 1.84687 275.657 1.16102C274.402 0.628489 273.023 0.362687 271.63 0.385097C270.237 0.407507 268.87 0.717499 267.639 1.29002L42.9374 115.24C41.7323 115.929 40.7292 116.859 40.0097 117.952C39.2902 119.046 38.8745 120.274 38.7964 121.535V281.796C38.8493 283.02 39.2286 284.215 39.9037 285.286C40.5787 286.357 41.5307 287.274 42.6829 287.962Z" fill="#455A64"/>
<path d="M50.7006 287.825L275.431 173.849C276.637 173.16 277.64 172.231 278.359 171.137C279.079 170.043 279.494 168.815 279.572 167.554V7.32742C279.572 5.00541 277.722 4.06802 275.431 5.22902L50.7104 119.205C49.5052 119.894 48.5021 120.823 47.7826 121.917C47.0631 123.011 46.6474 124.239 46.5693 125.5V285.727C46.5693 288.049 48.4196 288.96 50.7006 287.825Z" fill="#8854D0"/>
<path d="M50.7006 287.825L275.431 173.849C276.637 173.16 277.64 172.231 278.359 171.137C279.079 170.043 279.494 168.815 279.572 167.554V7.32742C279.572 5.00541 277.722 4.06802 275.431 5.22902L50.7104 119.205C49.5052 119.894 48.5021 120.823 47.7826 121.917C47.0631 123.011 46.6474 124.239 46.5693 125.5V285.727C46.5693 288.049 48.4196 288.96 50.7006 287.825Z" fill="#37474F"/>
<path d="M50.0937 291.979C48.9178 292.424 47.6467 292.642 46.3664 292.618C45.0862 292.595 43.8266 292.33 42.6732 291.841C41.5143 291.154 40.5558 290.237 39.8755 289.165C39.1951 288.092 38.8121 286.893 38.7573 285.666V271.124L46.5205 275.071V289.614C46.5597 291.729 48.0868 292.684 50.0937 291.979Z" fill="#263238"/>
<path d="M46.5596 275.071V289.605C46.5596 291.927 48.4098 292.865 50.6908 291.704L275.431 177.728C276.638 177.038 277.642 176.107 278.361 175.012C279.081 173.916 279.496 172.687 279.572 171.424V156.864L46.5596 275.071Z" fill="#37474F"/>
<path opacity="0.2" d="M46.5693 275.037V289.605C46.5693 291.927 48.4196 292.865 50.7006 291.704L275.431 177.728C276.638 177.038 277.642 176.107 278.361 175.012C279.081 173.916 279.496 172.687 279.572 171.424V156.864L46.5693 275.037Z" fill="black"/>
<path d="M54.3325 256.822V127.77C54.3796 127.012 54.6293 126.275 55.0613 125.617C55.4933 124.96 56.0955 124.401 56.8191 123.986L269.313 16.2111C270.693 15.5145 271.8 16.0821 271.8 17.4667V146.527C271.752 147.285 271.503 148.022 271.071 148.68C270.639 149.337 270.037 149.896 269.313 150.311L56.7799 258.086C55.4387 258.783 54.3325 258.215 54.3325 256.822Z" fill="#BA68C8"/>
<path opacity="0.3" d="M54.3325 256.822V127.77C54.3796 127.012 54.6293 126.275 55.0613 125.617C55.4933 124.96 56.0955 124.401 56.8191 123.986L269.313 16.2111C270.693 15.5145 271.8 16.0821 271.8 17.4667V146.527C271.752 147.285 271.503 148.022 271.071 148.68C270.639 149.337 270.037 149.896 269.313 150.311L56.7799 258.086C55.4387 258.783 54.3325 258.215 54.3325 256.822Z" fill="black"/>
<path d="M163.066 220.59C161.931 221.235 160.984 222.106 160.304 223.132C159.623 224.159 159.228 225.312 159.15 226.498C159.15 228.674 160.893 229.56 163.066 228.468C164.203 227.824 165.15 226.953 165.831 225.926C166.512 224.899 166.906 223.746 166.982 222.559C166.953 220.384 165.21 219.498 163.066 220.59Z" fill="#455A64"/>
<path d="M47.7833 121.905C47.0459 122.997 46.6257 124.231 46.5596 125.5V275.071L38.7964 271.123V121.569C38.8531 120.3 39.274 119.063 40.0201 117.975L47.7833 121.905Z" fill="#263238"/>
<path d="M310.87 6.57037C310.536 6.42265 310.162 6.35818 309.789 6.38396C309.416 6.40974 309.059 6.52477 308.755 6.71657L84.7781 120.348C83.9273 120.828 83.2177 121.478 82.7073 122.245C82.1969 123.012 81.9001 123.873 81.8412 124.76V257.415C81.8066 257.845 81.9015 258.276 82.1163 258.664C82.331 259.052 82.6582 259.384 83.0649 259.625C83.5348 259.849 86.0018 261.122 86.7654 261.474C87.0293 261.593 87.3246 261.648 87.6206 261.633C87.9166 261.618 88.2027 261.533 88.4492 261.388L312.456 147.714C313.307 147.234 314.017 146.584 314.527 145.818C315.038 145.051 315.334 144.189 315.393 143.302V10.0018C315.442 9.66968 315.383 9.33212 315.224 9.02787C315.065 8.72362 314.811 8.46502 314.492 8.28177C313.944 8.11837 311.398 6.87997 310.87 6.57037Z" fill="#BA68C8"/>
<path d="M88.4884 122.197L312.456 8.60002C314.061 7.79162 315.393 8.45382 315.393 10.0792V143.379C315.334 144.266 315.038 145.128 314.528 145.895C314.017 146.662 313.307 147.312 312.456 147.791L88.4884 261.388C86.8829 262.197 85.5515 260.881 85.5515 259.256V126.609C85.6097 125.722 85.9061 124.86 86.4166 124.093C86.9271 123.327 87.6371 122.677 88.4884 122.197Z" fill="#FAFAFA"/>
<path d="M313.758 9.07311C314.296 9.07311 314.384 9.67511 314.384 10.0363V143.336C314.332 144.07 314.086 144.782 313.666 145.418C313.246 146.054 312.665 146.595 311.966 147L87.9989 260.64C87.8602 260.724 87.6973 260.772 87.529 260.778C87.02 260.778 86.5501 260.064 86.5501 259.256V126.609C86.6028 125.875 86.8486 125.161 87.2681 124.524C87.6877 123.887 88.2695 123.344 88.9681 122.937L312.945 9.30531C313.19 9.16921 313.469 9.08935 313.758 9.07311ZM313.758 8.21311C313.297 8.22841 312.849 8.34682 312.456 8.55711L88.4884 122.198C87.6371 122.677 86.9271 123.327 86.4166 124.093C85.9061 124.86 85.6097 125.722 85.5515 126.609V259.256C85.5515 260.546 86.3641 261.638 87.5094 261.638C87.8556 261.635 88.1943 261.549 88.4884 261.389L312.456 147.714C313.307 147.234 314.017 146.585 314.528 145.818C315.038 145.051 315.334 144.189 315.393 143.302V10.0019C315.393 8.84091 314.737 8.17871 313.787 8.17871L313.758 8.21311Z" fill="#E0E0E0"/>
<path d="M83.0942 259.626C83.4075 259.772 85.6689 260.907 86.6577 261.397C86.3005 261.139 86.0177 260.811 85.8322 260.439C85.6468 260.067 85.564 259.661 85.5906 259.256V134.943L81.8705 133.034V257.415C81.8399 257.845 81.9365 258.275 82.151 258.662C82.3654 259.05 82.6904 259.381 83.0942 259.626Z" fill="#F0F0F0"/>
<path d="M315.363 10.0107C315.363 8.40247 314.051 7.74888 312.426 8.55728L88.4884 122.198C87.6371 122.677 86.9271 123.327 86.4166 124.094C85.9061 124.86 85.6097 125.723 85.5515 126.609V134.943L315.363 18.3785V10.0107Z" fill="#8854D0"/>
<g opacity="0.4">
<path opacity="0.4" d="M312.456 8.60015L88.4884 122.198C87.6331 122.664 86.9286 123.315 86.4424 124.09L82.7615 122.215C83.2404 121.451 83.9348 120.808 84.7781 120.349L308.755 6.71675C309.057 6.52609 309.413 6.411 309.783 6.38374C310.154 6.35648 310.526 6.41807 310.86 6.56195C311.379 6.84575 313.797 8.04974 314.404 8.33354C314.079 8.23709 313.732 8.21095 313.393 8.25736C313.053 8.30378 312.732 8.42136 312.456 8.60015Z" fill="white"/>
</g>
<path opacity="0.15" d="M81.8706 133.042V124.76C81.9071 123.847 82.2141 122.957 82.7615 122.18L86.4522 124.046C85.9203 124.809 85.6235 125.681 85.5907 126.575V134.908L81.8706 133.042Z" fill="black"/>
<path d="M85.5906 134.943L85.5808 149.958L315.353 33.4112V18.3784L85.5906 134.943Z" fill="#EBEBEB"/>
<path d="M95.155 133.833L110.016 126.334V133.807L95.1453 141.35L95.155 133.833Z" fill="#E0E0E0"/>
<path d="M113.687 124.433V127.392L121.098 123.625V120.675L113.687 124.433Z" fill="#8854D0"/>
<path d="M113.687 129V131.958L121.098 128.191V125.242L113.687 129Z" fill="#E0E0E0"/>
<path d="M124.808 118.792V121.75L132.219 117.992V115.034L124.808 118.792Z" fill="#8854D0"/>
<path d="M124.808 123.359V126.317L132.219 122.559V119.601L124.808 123.359Z" fill="#8854D0"/>
<path d="M135.919 113.15V116.109L143.33 112.35V109.392L135.919 113.15Z" fill="#8854D0"/>
<path d="M135.919 117.717V120.675L143.33 116.917V113.958L135.919 117.717Z" fill="#E0E0E0"/>
<path d="M169.272 96.2343V99.1927L176.683 95.4345V92.4761L169.272 96.2343Z" fill="#E0E0E0"/>
<path d="M169.272 100.809V103.759L176.683 100.001V97.0425L169.272 100.809Z" fill="#E0E0E0"/>
<path d="M180.393 90.6013V93.5511L187.804 89.7929V86.8345L180.393 90.6013Z" fill="#8854D0"/>
<path d="M180.393 95.1677V98.1175L187.804 94.3593V91.4009L180.393 95.1677Z" fill="#E0E0E0"/>
<path d="M191.505 84.9594L191.514 87.9178L198.925 84.1596V81.2012L191.505 84.9594Z" fill="#E0E0E0"/>
<path d="M191.505 89.5263L191.514 92.4847L198.925 88.7179V85.7681L191.505 89.5263Z" fill="#E0E0E0"/>
<path d="M147.04 107.517L165.572 98.1177V105.634L147.04 115.034V107.517Z" fill="#E0E0E0"/>
<path d="M202.636 79.3181L217.496 71.8188V79.3008L202.626 86.843L202.636 79.3181Z" fill="#8854D0"/>
<path d="M221.157 69.9184L221.167 72.8768L228.578 69.1186V66.1602L221.157 69.9184Z" fill="#E0E0E0"/>
<path d="M221.157 74.4848L221.167 77.4432L228.578 73.685V70.7266L221.157 74.4848Z" fill="#8854D0"/>
<path d="M232.278 64.2854V67.2438L239.689 63.477V60.5186L232.278 64.2854Z" fill="#8854D0"/>
<path d="M232.278 68.8518V71.8102L239.689 68.0434V65.085L232.278 68.8518Z" fill="#8854D0"/>
<path d="M243.4 58.6438V61.6021L250.81 57.8354V54.877L243.4 58.6438Z" fill="#E0E0E0"/>
<path d="M243.4 63.2104V66.1688L250.81 62.402V59.4521L243.4 63.2104Z" fill="#E0E0E0"/>
<path d="M276.753 41.7272V44.6856L284.164 40.9189V37.9604L276.753 41.7272Z" fill="#E0E0E0"/>
<path d="M276.753 46.2938V49.2522L284.164 45.4854V42.5356L276.753 46.2938Z" fill="#8854D0"/>
<path d="M287.874 36.0858V39.0442L295.285 35.286V32.3276L287.874 36.0858Z" fill="#E0E0E0"/>
<path d="M287.874 40.6522V43.6106L295.285 39.8524V36.894L287.874 40.6522Z" fill="#E0E0E0"/>
<path d="M298.985 30.4442V33.4026L306.406 29.6444V26.686L298.985 30.4442Z" fill="#E0E0E0"/>
<path d="M298.985 35.0106V37.969L306.406 34.2108V31.2524L298.985 35.0106Z" fill="#E0E0E0"/>
<path d="M254.521 53.0019L273.052 43.6021V51.1271L254.521 60.5183V53.0019Z" fill="#8854D0"/>
<path d="M85.5907 134.943L81.8706 133.034V148.075L85.5809 149.958L85.5907 134.943Z" fill="#E0E0E0"/>
<path d="M256.067 42.5356V43.0946C256.067 43.9546 256.772 44.333 257.644 43.8944L302.676 21.0614C303.135 20.7966 303.517 20.4407 303.791 20.0224C304.064 19.6041 304.222 19.1352 304.252 18.6534V18.103C304.252 17.243 303.547 16.856 302.676 17.3032L257.644 40.1362C257.184 40.3986 256.802 40.7528 256.528 41.1698C256.254 41.5868 256.096 42.0548 256.067 42.5356Z" fill="#8854D0"/>
<path d="M304.242 18.6534V18.103C304.242 17.243 303.537 16.856 302.666 17.3032L296.792 20.2616V24.0198L302.666 21.0614C303.125 20.7966 303.507 20.4407 303.781 20.0224C304.055 19.6041 304.213 19.1352 304.242 18.6534Z" fill="#8854D0"/>
<path d="M89.291 151.824L311.663 39.061V46.5602L107.813 149.958V247.697L89.291 257.088V151.824Z" fill="#8854D0"/>
<path d="M107.813 149.958L126.335 140.567V148.066L107.813 157.474V149.958Z" fill="#BA68C8"/>
<path d="M107.813 210.098L126.335 200.707V208.206L107.813 217.615V210.098Z" fill="#BA68C8"/>
<path d="M107.813 217.614L126.335 208.223V215.722L107.813 225.131V217.614Z" fill="#BA68C8"/>
<path opacity="0.8" d="M107.813 217.614L126.335 208.223V215.722L107.813 225.131V217.614Z" fill="#8854D0"/>
<path d="M218.984 153.708L237.506 144.316V151.816L218.984 161.224V153.708Z" fill="#BA68C8"/>
<path opacity="0.3" d="M218.984 153.708L237.506 144.316V151.816L218.984 161.224V153.708Z" fill="black"/>
<path d="M218.984 161.224L237.506 151.833V159.332L218.984 168.741V161.224Z" fill="#BA68C8"/>
<path opacity="0.4" d="M218.984 161.224L237.506 151.833V159.332L218.984 168.741V161.224Z" fill="black"/>
<path d="M218.984 168.749L237.506 159.358V166.857L218.984 176.266V168.749Z" fill="#8854D0"/>
<path opacity="0.5" d="M218.984 168.749L237.506 159.358V166.857L218.984 176.266V168.749Z" fill="black"/>
<path d="M218.984 176.266L237.506 166.875V174.374L218.984 183.782V176.266Z" fill="#8854D0"/>
<path opacity="0.3" d="M218.984 176.266L237.506 166.875V174.374L218.984 183.782V176.266Z" fill="#8854D0"/>
<path d="M200.472 102.959L218.984 93.5679V131.158L200.472 140.567V102.959Z" fill="#8854D0"/>
<path d="M200.472 148.075L218.984 138.684V191.307L200.472 200.715V148.075Z" fill="#BA68C8"/>
<path d="M126.335 185.665L144.847 176.274V183.773L126.335 193.182V185.665Z" fill="#BA68C8"/>
<path opacity="0.3" d="M126.335 185.665L144.847 176.274V183.773L126.335 193.182V185.665Z" fill="black"/>
<path d="M163.408 129.275L181.93 119.884V127.383L163.408 136.791V129.275Z" fill="#8854D0"/>
<path opacity="0.6" d="M163.408 129.275L181.93 119.884V127.383L163.408 136.791V129.275Z" fill="white"/>
<path d="M256.067 127.392L274.58 118V125.5L256.067 134.908V127.392Z" fill="#BA68C8"/>
<path opacity="0.8" d="M256.067 127.392L274.58 118V125.5L256.067 134.908V127.392Z" fill="white"/>
<path d="M256.067 142.433L274.58 133.042V140.541L256.067 149.95V142.433Z" fill="#BA68C8"/>
<path d="M89.0855 151.489L88.8604 151.601V257.794L311.878 144.661L312.113 144.549V38.356L89.0855 151.489ZM311.222 136.585L293.601 145.521V138.924L311.222 129.998V136.585ZM89.7512 159.582L107.373 150.646V157.242L89.7512 166.178V159.582ZM200.022 148.78V155.376L182.4 164.312V157.715L200.022 148.78ZM182.4 156.787V150.19L200.022 141.255V147.851L182.4 156.787ZM200.932 148.316L218.553 139.38V145.976L200.932 154.912V148.316ZM200.932 147.387V140.799L218.553 131.855V138.46L200.932 147.387ZM200.932 139.87V133.3L218.553 124.365V130.961L200.932 139.87ZM200.932 132.345V125.758L218.553 116.814V123.41L200.932 132.345ZM200.022 132.81L182.4 141.745V135.149L200.022 126.214V132.81ZM200.022 133.739V140.335L182.4 149.27V142.674L200.022 133.739ZM181.49 149.735L163.869 158.67V152.074L181.49 143.138V149.735ZM181.49 150.655V157.251L163.869 166.186V159.59L181.49 150.655ZM181.49 158.18V164.776L163.869 173.711V167.115L181.49 158.18ZM181.49 165.696V172.292L163.869 181.228V174.632L181.49 165.696ZM182.4 165.232L200.022 156.296V162.893L182.4 171.828V165.232ZM200.022 163.821V170.418L182.4 179.353V172.757L200.022 163.821ZM200.932 163.357L218.553 154.422V161.018L200.932 169.953V163.357ZM200.932 162.428V155.832L218.553 146.897V153.493L200.932 162.428ZM219.464 146.441L237.085 137.505V144.102L219.464 153.037V146.441ZM219.464 145.512V138.916L237.085 129.98V136.577L219.464 145.512ZM219.464 137.996V131.399L237.085 122.464V129.06L219.464 137.996ZM219.464 130.471V123.84L237.085 114.905V121.501L219.464 130.471ZM219.464 122.954V116.358L237.085 107.423V114.01L219.464 122.954ZM219.464 115.429V108.833L237.085 99.8976V106.494L219.464 115.429ZM218.553 115.894L200.932 124.829V118.233L218.553 109.297V115.894ZM200.022 125.293L182.4 134.229V127.633L200.022 118.697V125.293ZM181.49 134.693L163.869 143.629V137.032L181.49 128.097V134.693ZM181.49 135.613V142.21L163.869 151.145V144.549L181.49 135.613ZM162.958 151.609L145.337 160.545V153.94L162.958 145.005V151.609ZM162.958 152.538V159.1L145.337 168.044V161.448L162.958 152.538ZM162.958 160.055V166.651L145.337 175.586V168.99L162.958 160.055ZM162.958 167.58V174.167L145.337 183.111V176.515L162.958 167.58ZM162.958 175.096V181.692L145.337 190.628V184.04L162.958 175.096ZM162.958 182.621V189.2L145.337 198.144V191.548L162.958 182.621ZM163.869 182.157L181.49 173.221V179.817L163.869 188.753V182.157ZM181.49 180.738V187.334L163.869 196.269V189.673L181.49 180.738ZM182.4 180.273L200.022 171.338V177.934L182.4 186.869V180.273ZM200.932 170.873L218.553 161.938V168.56L200.932 177.495V170.873ZM219.464 161.482L237.085 152.547V159.143L219.464 168.078V161.482ZM219.464 160.553V153.94L237.085 145.005V151.601L219.464 160.553ZM237.996 144.557L255.617 135.622V142.218L237.996 151.154V144.557ZM237.996 143.637V137.041L255.617 128.106V134.702L237.996 143.637ZM237.996 136.112V129.516L255.617 120.581V127.177L237.996 136.112ZM237.996 128.596V122L255.617 113.064V119.66L237.996 128.596ZM237.996 121.071V114.475L255.617 105.539V112.135L237.996 121.071ZM237.996 113.554V106.958L255.617 98.0228V104.619L237.996 113.554ZM237.996 106.029V99.4332L255.617 90.4978V97.094L237.996 106.029ZM237.996 98.513V91.9168L255.617 82.9814V89.5776L237.996 98.513ZM237.085 98.9688L219.464 107.913V101.317L237.085 92.3812V98.9688ZM218.553 108.36L200.932 117.295V110.708L218.553 101.764V108.36ZM200.022 117.76L182.4 126.695V120.099L200.022 111.164V117.76ZM181.49 127.16L163.869 136.095V129.499L181.49 120.563V127.16ZM162.958 136.568L145.337 145.503V138.907L162.958 129.972V136.568ZM162.958 137.497V144.084L145.337 153.028V146.432L162.958 137.497ZM144.426 153.484L126.805 162.42V155.832L144.426 146.888V153.484ZM144.426 154.413V161.009L126.805 169.945V163.348L144.426 154.413ZM144.426 161.929V168.56L126.805 177.495V170.899L144.426 161.929ZM144.426 169.454V176.051L126.805 184.986V178.39L144.426 169.454ZM144.426 176.971V183.567L126.805 192.502V185.915L144.426 176.971ZM144.426 184.496V191.092L126.805 200.027V193.431L144.426 184.496ZM144.426 192.012V198.608L126.805 207.544V200.956L144.426 192.012ZM144.426 199.537V206.133L126.805 215.069V208.473L144.426 199.537ZM145.337 199.073L162.958 190.137V196.734L145.337 205.669V199.073ZM162.958 197.662V204.259L145.337 213.194V206.598L162.958 197.662ZM163.869 197.198L181.49 188.263V194.859L163.869 203.794V197.198ZM182.4 187.798L200.022 178.863V185.459L182.4 194.394V187.798ZM200.932 178.398L218.553 169.463V176.059L200.932 184.995V178.398ZM219.464 168.999L237.085 160.063V166.659L219.464 175.595V168.999ZM237.996 159.599L255.617 150.663V157.26L237.996 166.195V159.599ZM237.996 158.679V152.082L255.617 143.147V149.743L237.996 158.679ZM256.488 142.683L274.11 133.747V140.343L256.488 149.279V142.683ZM256.488 141.754V135.158L274.11 126.222V132.818L256.488 141.754ZM256.488 134.237V127.641L274.11 118.68V125.276L256.488 134.237ZM256.488 126.712V120.116L274.11 111.181V117.82L256.488 126.712ZM256.488 119.196V112.6L274.11 103.664V110.261L256.488 119.196ZM256.488 111.671V105.075L274.11 96.1394V102.736L256.488 111.671ZM256.488 104.155V97.5584L274.11 88.623V95.2192L256.488 104.155ZM256.488 96.6296V90.0334L274.11 81.098V87.72L256.488 96.6296ZM256.488 89.1132V82.56L274.11 73.6246V80.2208L256.488 89.1132ZM256.488 81.5882V74.992L274.11 66.0566V72.6528L256.488 81.5882ZM255.578 82.0526L237.957 90.988V84.3918L255.578 75.4564V82.0526ZM237.046 91.4524L219.425 100.388V93.7916L237.046 84.8562V91.4524ZM218.514 100.852L200.893 109.788V103.2L218.514 94.2646V100.852ZM200.022 110.252L182.4 119.187V112.591L200.022 103.656V110.252ZM181.49 119.652L163.869 128.587V121.991L181.49 113.056V119.652ZM162.958 129.043L145.337 137.987V131.391L162.958 122.455V129.043ZM144.426 138.46L126.805 147.395V140.808L144.426 131.864V138.46ZM144.426 139.389V145.985L126.805 154.92V148.324L144.426 139.389ZM125.895 155.385L108.273 164.32V157.724L125.895 148.789V155.385ZM125.895 156.305V162.901L108.273 171.837V165.24L125.895 156.305ZM125.895 163.83V170.426L108.273 179.362V172.765L125.895 163.83ZM125.895 171.346V177.943L108.273 186.878V180.282L125.895 171.346ZM125.895 178.871V185.468L108.273 194.36V187.764L125.895 178.871ZM125.895 186.388V192.984L108.273 201.919V195.306L125.895 186.388ZM125.895 193.913V200.509L108.273 209.444V202.848L125.895 193.913ZM125.895 201.429V208.025L108.273 216.961V210.365L125.895 201.429ZM125.895 208.954V215.55L108.273 224.46V217.864L125.895 208.954ZM125.895 216.471V223.067L108.273 232.002V225.406L125.895 216.471ZM126.805 216.015L144.426 207.071V213.667L126.805 222.602V216.015ZM144.426 214.596V221.192L126.805 230.127V223.514L144.426 214.596ZM145.337 214.131L162.958 205.196V211.792L145.337 220.728V214.131ZM163.869 204.68L181.49 195.745V202.341L163.869 211.276V204.68ZM182.4 195.28L200.022 186.345V192.941L182.4 201.876V195.28ZM200.932 185.889L218.553 176.945V183.541L200.932 192.477V185.889ZM219.464 176.489L237.085 167.554V174.15L219.464 183.085V176.489ZM237.996 167.089L255.617 158.154V164.75L237.996 173.686V167.089ZM256.488 157.724L274.11 148.78V155.376L256.488 164.312V157.724ZM256.488 156.795V150.199L274.11 141.264V147.86L256.488 156.795ZM275.089 140.808L292.71 131.864V138.46L275.089 147.395V140.808ZM275.089 139.879V133.3L292.71 124.365V130.961L275.089 139.879ZM275.089 132.354V125.766L292.71 116.822V123.419L275.089 132.354ZM275.089 124.838V118.241L292.71 109.306V115.902L275.089 124.838ZM275.089 117.313V110.725L292.71 101.781V108.36L275.089 117.313ZM275.089 109.796V103.2L292.71 94.2646V100.861L275.089 109.796ZM275.089 102.271V95.6836L292.71 86.7396V93.3358L275.089 102.271ZM275.089 94.7548V88.1586L292.71 79.2232V85.8194L275.089 94.7548ZM275.089 87.2298V80.6422L292.71 71.6982V78.26L275.089 87.2298ZM275.089 79.7134V73.1L292.71 64.1646V70.7608L275.089 79.7134ZM275.089 72.1884V65.6008L292.71 56.6568V63.253L275.089 72.1884ZM275.089 64.672V58.0758L292.71 49.1404V55.7366L275.089 64.672ZM274.168 65.1364L256.547 74.0718V67.4756L274.168 58.5402V65.1364ZM255.646 74.5362L238.025 83.4716V76.8754L255.646 67.94V74.5362ZM237.115 83.9274L219.493 92.8714V86.2752L237.115 77.3398V83.9274ZM218.583 93.3272L200.961 102.263V95.675L218.583 86.7396V93.3272ZM200.051 102.727L182.43 111.662V105.075L200.051 96.1394V102.727ZM181.519 112.127L163.898 121.062V114.475L181.519 105.539V112.127ZM162.987 121.527L145.366 130.462V123.84L162.987 114.905V121.527ZM144.456 130.926L126.834 139.862V133.3L144.456 124.356V130.926ZM125.895 140.326L108.273 149.262V142.665L125.895 133.73V140.326ZM125.895 141.246V147.843L108.273 156.778V150.182L125.895 141.246ZM89.7512 167.107L107.373 158.171V164.767L89.7512 173.703V167.107ZM89.7512 174.623L107.373 165.688V172.284L89.7512 181.219V174.623ZM89.7512 182.148L107.373 173.213V179.809L89.7512 188.744V182.148ZM89.7512 189.664L107.373 180.729V187.325L89.7512 196.261V189.664ZM89.7512 197.189L107.373 188.254V194.85L89.7512 203.786V197.189ZM89.7512 204.706L107.373 195.77V202.367L89.7512 211.302V204.706ZM89.7512 212.231L107.373 203.295V209.892L89.7512 218.827V212.231ZM89.7512 219.747L107.373 210.812V217.408L89.7512 226.343V219.747ZM89.7512 227.272L107.373 218.337V224.933L89.7512 233.868V227.272ZM89.7512 234.789L107.373 225.853V232.449L89.7512 241.385V234.789ZM89.7512 242.314L107.373 233.378V239.94L89.7512 248.875V242.314ZM108.273 232.914L125.895 223.978V230.575L108.273 239.51V232.914ZM125.895 231.495V238.065L108.273 247.009V240.43L125.895 231.495ZM126.805 231.03L144.426 222.095V228.674L126.805 237.609V231.03ZM145.337 221.639L162.958 212.704V219.3L145.337 228.235V221.639ZM163.869 212.239L181.49 203.304V209.84L163.869 218.775V212.239ZM182.4 202.84L200.022 193.904V200.475L182.4 209.41V202.84ZM200.932 193.44L218.553 184.504V191.075L200.932 200.01V193.44ZM219.464 184.04L237.085 175.105V181.675L219.464 190.61V184.04ZM237.996 174.64L255.617 165.705V172.275L237.996 181.211V174.64ZM256.488 165.24L274.11 156.305V162.875L256.488 171.811V165.24ZM275.089 155.849L292.71 146.905V153.476L275.089 162.411V155.849ZM275.089 154.92V148.324L292.71 139.389V145.985L275.089 154.92ZM311.232 129.069L293.611 138.004V131.408L311.232 122.473V129.069ZM311.232 121.544L293.611 130.479V123.883L311.232 114.956V121.544ZM311.232 114.027L293.591 122.98V116.384L311.212 107.448L311.232 114.027ZM311.232 106.502L293.611 115.438V108.842L311.232 99.9062V106.502ZM311.232 98.986L293.611 107.921V101.325L311.232 92.3898V98.986ZM311.232 91.461L293.611 100.396V93.8002L311.232 84.8648V91.461ZM311.232 83.9446L293.591 92.88V86.2838L311.212 77.3484L311.232 83.9446ZM311.232 76.4196L293.611 85.355V78.7588L311.232 69.8234V76.4196ZM311.232 68.9032L293.611 77.8386V71.2424L311.232 62.307V68.9032ZM311.232 61.3782L293.611 70.3136V63.7174L311.232 54.782V61.3782ZM311.232 53.8618L293.591 62.78V56.201L311.212 47.2656L311.232 53.8618ZM311.232 46.3368L293.611 55.2722V48.6846L311.232 39.7492V46.3368ZM107.363 143.13V149.726L89.7414 158.653V152.065L107.363 143.13ZM89.7414 249.83L107.363 240.895V247.465L89.7414 256.4V249.83ZM293.591 153.02V146.449L311.212 137.514V144.084L293.591 153.02Z" fill="#8854D0"/>
<path d="M237.506 84.1509L311.663 46.5688V84.1767L237.506 121.741V84.1509Z" fill="#FAFAFA"/>
<path d="M237.007 122.49V83.9018L237.252 83.7814L312.142 45.8296V84.4264L237.007 122.49ZM237.986 84.4006V121.002L311.163 83.9276V47.3002L237.986 84.4006Z" fill="#8854D0"/>
<path d="M241.246 112.66H241.128C241.036 112.629 240.961 112.568 240.919 112.489C240.877 112.411 240.871 112.321 240.903 112.239L250.928 88.1587C250.947 88.1154 250.977 88.0762 251.016 88.044C251.054 88.0117 251.1 87.987 251.15 87.9715C251.2 87.956 251.253 87.9501 251.306 87.9542C251.359 87.9583 251.41 87.9723 251.456 87.9953L262.294 93.7401L273.229 83.9533C273.295 83.9058 273.378 83.8799 273.464 83.8799C273.549 83.8799 273.632 83.9058 273.698 83.9533L284.467 90.1711L295.402 66.5039C295.422 66.4629 295.451 66.4259 295.488 66.3952C295.525 66.3645 295.569 66.3408 295.616 66.3255C295.664 66.3102 295.715 66.3036 295.766 66.3062C295.816 66.3088 295.866 66.3204 295.911 66.3405L307.022 71.3457C307.065 71.3649 307.102 71.3912 307.133 71.4232C307.164 71.4552 307.188 71.4922 307.202 71.5322C307.217 71.5721 307.222 71.6142 307.218 71.6559C307.214 71.6977 307.201 71.7384 307.179 71.7757C307.157 71.8129 307.127 71.8461 307.091 71.8731C307.054 71.9002 307.012 71.9208 306.967 71.9335C306.921 71.9463 306.873 71.9511 306.826 71.9476C306.778 71.9441 306.732 71.9325 306.69 71.9133L295.921 67.0715L284.957 90.7817C284.936 90.8256 284.904 90.8648 284.863 90.8961C284.822 90.9274 284.774 90.9501 284.722 90.9623C284.675 90.9834 284.623 90.9944 284.57 90.9944C284.517 90.9944 284.465 90.9834 284.418 90.9623L273.552 84.6757L262.626 94.4539C262.568 94.505 262.493 94.5377 262.411 94.547C262.33 94.5564 262.247 94.5418 262.176 94.5055L251.476 88.8811L241.608 112.557C241.563 112.6 241.506 112.633 241.443 112.651C241.379 112.669 241.311 112.672 241.246 112.66Z" fill="#8854D0"/>
<path d="M251.271 87.1867C250.942 87.3749 250.67 87.6291 250.476 87.9282C250.282 88.2273 250.172 88.5627 250.155 88.9067C250.155 89.5345 250.654 89.7666 251.271 89.4742C251.598 89.2855 251.87 89.0312 252.064 88.7322C252.258 88.4332 252.369 88.0981 252.387 87.7542C252.387 87.1264 251.887 86.8599 251.271 87.1867Z" fill="#8854D0"/>
<path d="M262.362 93.0003C262.036 93.1901 261.764 93.4446 261.571 93.7434C261.377 94.0422 261.266 94.3768 261.246 94.7203C261.246 95.3481 261.745 95.5803 262.362 95.2879C262.689 95.0982 262.96 94.8436 263.154 94.5449C263.348 94.2461 263.459 93.9114 263.478 93.5679C263.498 92.9487 262.998 92.6907 262.362 93.0003Z" fill="#BA68C8"/>
<path d="M273.493 83.033C273.166 83.2228 272.895 83.4773 272.701 83.7761C272.508 84.0749 272.396 84.4096 272.377 84.753C272.377 85.3808 272.876 85.6131 273.493 85.3207C273.821 85.1319 274.093 84.8776 274.287 84.5786C274.481 84.2796 274.591 83.9444 274.609 83.6006C274.609 82.9814 274.11 82.7234 273.493 83.033Z" fill="#BA68C8"/>
<path d="M284.604 89.4399C284.276 89.6282 284.003 89.8823 283.809 90.1814C283.615 90.4806 283.505 90.816 283.488 91.1599C283.488 91.7877 283.987 92.0199 284.604 91.7275C284.932 91.5393 285.205 91.2852 285.399 90.986C285.593 90.6869 285.703 90.3515 285.72 90.0075C285.72 89.44 285.221 89.1561 284.604 89.4399Z" fill="#BA68C8"/>
<path d="M295.715 65.4375C295.387 65.6257 295.115 65.8799 294.921 66.179C294.727 66.4781 294.616 66.8135 294.599 67.1575C294.599 67.7853 295.099 68.0175 295.715 67.7251C296.043 67.5364 296.315 67.2821 296.509 66.9831C296.703 66.6841 296.813 66.3489 296.831 66.0051C296.831 65.3601 296.332 65.1193 295.715 65.4375Z" fill="#8854D0"/>
<path d="M306.827 70.4426C306.499 70.6309 306.226 70.885 306.032 71.1842C305.838 71.4833 305.728 71.8187 305.711 72.1626C305.711 72.7904 306.21 73.0226 306.827 72.7302C307.155 72.542 307.427 72.2878 307.621 71.9887C307.815 71.6896 307.926 71.3542 307.943 71.0102C307.943 70.3824 307.443 70.1244 306.827 70.4426Z" fill="#BA68C8"/>
<path d="M342.51 185.063L322.794 195.065L342.51 205.067L362.226 195.065L342.51 185.063Z" fill="#455A64"/>
<path d="M362.226 195.048V234.823L342.51 244.825V205.075L362.226 195.048Z" fill="#37474F"/>
<path d="M342.51 205.075V244.825L322.794 234.823V195.048L342.51 205.075Z" fill="#263238"/>
<path d="M316.567 215.473L296.851 225.475L316.567 235.477L336.284 225.475L316.567 215.473Z" fill="#8854D0"/>
<path opacity="0.3" d="M316.567 215.473L296.851 225.475L316.567 235.477L336.284 225.475L316.567 215.473Z" fill="white"/>
<path d="M336.284 225.449V247.981L316.567 257.983V235.477L336.284 225.449Z" fill="#8854D0"/>
<path d="M316.567 235.477V257.983L296.851 247.981V225.458L316.567 235.477Z" fill="#8854D0"/>
<path opacity="0.1" d="M316.567 235.477V257.983L296.851 247.981V225.458L316.567 235.477Z" fill="#8854D0"/>
<path d="M290.625 219.274L270.909 229.276L290.625 239.278L310.341 229.276L290.625 219.274Z" fill="#BA68C8"/>
<path opacity="0.88" d="M290.625 219.274L270.909 229.276L290.625 239.278L310.341 229.276L290.625 219.274Z" fill="white"/>
<path d="M310.341 229.259V261.139L290.625 271.141V239.278L310.341 229.259Z" fill="#BA68C8"/>
<path opacity="0.75" d="M310.341 229.259V261.139L290.625 271.141V239.278L310.341 229.259Z" fill="#8854D0"/>
<path d="M290.625 239.278V271.141L270.909 261.139V229.259L290.625 239.278Z" fill="#BA68C8"/>
<path opacity="0.6" d="M290.625 239.278V271.141L270.909 261.139V229.259L290.625 239.278Z" fill="white"/>
<path d="M264.682 253.055L244.966 263.057L264.682 273.059L284.399 263.057L264.682 253.055Z" fill="#BA68C8"/>
<path opacity="0.3" d="M264.682 253.055L244.966 263.057L264.682 273.059L284.399 263.057L264.682 253.055Z" fill="black"/>
<path d="M284.399 263.031V274.297L264.682 284.299V273.059L284.399 263.031Z" fill="#8854D0"/>
<path opacity="0.4" d="M284.399 263.031V274.297L264.682 284.299V273.059L284.399 263.031Z" fill="black"/>
<path d="M264.682 273.059V284.299L244.966 274.297V263.031L264.682 273.059Z" fill="#8854D0"/>
<path opacity="0.55" d="M264.682 273.059V284.299L244.966 274.297V263.031L264.682 273.059Z" fill="#8854D0"/>
<path d="M157.271 323.016V329.578L149.899 311.974V305.429L157.271 323.016Z" fill="#8854D0"/>
<path d="M157.28 323.025V329.578L187.687 320.307V313.754L157.28 323.025Z" fill="#37474F"/>
<path d="M149.899 305.421L157.281 323.025L187.687 313.754C179.337 307.356 164.819 304.156 149.899 305.421Z" fill="#455A64"/>
<path d="M118.132 324.22C118.127 324.286 118.127 324.352 118.132 324.418V324.22Z" fill="#BA68C8"/>
<path d="M154.246 331.289L149.782 349.951C131.348 348.369 118.024 340.182 118.181 330.816V324.435C118.181 333.723 131.465 341.833 149.791 343.398L152.885 330.575L154.246 331.289Z" fill="#8854D0"/>
<path opacity="0.4" d="M154.246 331.289L149.782 349.951C131.348 348.369 118.024 340.182 118.181 330.816V324.435C118.181 333.723 131.465 341.833 149.791 343.398L152.885 330.575L154.246 331.289Z" fill="black"/>
<path d="M153.188 343.613V350.166C160.798 350.543 168.418 349.617 175.626 347.44C184.319 344.791 190.457 340.56 192.915 335.598C193.635 334.154 194.021 332.599 194.05 331.023C194.05 330.395 194.05 324.246 194.05 324.246C194.05 324.246 191.945 324.1 189.478 321.795L183.781 323.515L157.711 331.461L153.188 343.613Z" fill="#BA68C8"/>
<path opacity="0.6" d="M153.188 343.613V350.166C160.798 350.543 168.418 349.617 175.626 347.44C184.319 344.791 190.457 340.56 192.915 335.598C193.635 334.154 194.021 332.599 194.05 331.023C194.05 330.395 194.05 324.246 194.05 324.246C194.05 324.246 191.945 324.1 189.478 321.795L183.781 323.515L157.711 331.461L153.188 343.613Z" fill="white"/>
<path d="M130.496 316.747L153.149 328.236V321.683L130.496 310.193V316.747Z" fill="#BA68C8"/>
<path opacity="0.1" d="M130.496 316.747L153.149 328.236V321.683L130.496 310.193V316.747Z" fill="#8854D0"/>
<path d="M118.455 322.07C115.978 332.313 129.918 341.695 149.781 343.398L154.294 324.736L128.078 311.44C122.556 314.459 119.434 317.942 118.455 322.07Z" fill="#BA68C8"/>
<path opacity="0.3" d="M118.455 322.07C115.978 332.313 129.918 341.695 149.781 343.398L154.294 324.736L128.078 311.44C122.556 314.459 119.434 317.942 118.455 322.07Z" fill="#8854D0"/>
<path d="M153.316 343.072L153.188 343.613C160.795 344.001 168.416 343.087 175.626 340.922C184.319 338.273 190.457 334.042 192.915 329.079C195.225 324.375 194.001 319.508 189.478 315.319L183.781 317.039L157.711 324.986L153.316 343.072Z" fill="#8854D0"/>
<path opacity="0.75" d="M153.316 343.072L153.188 343.613C160.795 344.001 168.416 343.087 175.626 340.922C184.319 338.273 190.457 334.042 192.915 329.079C195.225 324.375 194.001 319.508 189.478 315.319L183.781 317.039L157.711 324.986L153.316 343.072Z" fill="#8854D0"/>
<path d="M130.496 310.194L153.149 321.683L146.492 305.791C140.9 306.393 135.479 307.885 130.496 310.194Z" fill="#BA68C8"/>
<path d="M154.245 331.29V324.736L149.723 343.398V349.952L154.245 331.29Z" fill="#BA68C8"/>
<path opacity="0.55" d="M154.245 331.29V324.736L149.723 343.398V349.952L154.245 331.29Z" fill="black"/>
<path d="M183.145 295.591L178.211 298.093L183.145 300.596L188.079 298.093L183.145 295.591Z" fill="#8854D0"/>
<path opacity="0.3" d="M183.145 295.591L178.211 298.093L183.145 300.596L188.079 298.093L183.145 295.591Z" fill="black"/>
<path d="M188.079 298.093V300.604L183.145 303.107V300.596L188.079 298.093Z" fill="#BA68C8"/>
<path opacity="0.4" d="M188.079 298.093V300.604L183.145 303.107V300.596L188.079 298.093Z" fill="black"/>
<path d="M183.145 300.596V303.107L178.211 300.604V298.093L183.145 300.596Z" fill="#BA68C8"/>
<path opacity="0.55" d="M183.145 300.596V303.107L178.211 300.604V298.093L183.145 300.596Z" fill="#8854D0"/>
<path d="M190.683 293.647L208.97 284.376C209.557 284.103 210.21 283.954 210.875 283.944C211.541 283.933 212.199 284.061 212.797 284.316C213.776 284.832 213.776 285.701 212.67 286.26L194.383 295.531C193.795 295.802 193.142 295.949 192.477 295.96C191.813 295.97 191.155 295.844 190.555 295.591C189.537 295.075 189.586 294.206 190.683 293.647Z" fill="#E0E0E0"/>
<path d="M194.266 301.232L189.332 303.735L194.266 306.238L199.2 303.735L194.266 301.232Z" fill="#8854D0"/>
<path opacity="0.88" d="M194.266 301.232L189.332 303.735L194.266 306.238L199.2 303.735L194.266 301.232Z" fill="#8854D0"/>
<path d="M199.2 303.727V306.238L194.266 308.74V306.238L199.2 303.727Z" fill="#8854D0"/>
<path opacity="0.75" d="M199.2 303.727V306.238L194.266 308.74V306.238L199.2 303.727Z" fill="white"/>
<path d="M194.266 306.238V308.74L189.332 306.238V303.727L194.266 306.238Z" fill="#BA68C8"/>
<path opacity="0.6" d="M194.266 306.238V308.74L189.332 306.238V303.727L194.266 306.238Z" fill="white"/>
<path d="M201.804 299.28L220.081 290.009C220.668 289.734 221.32 289.585 221.985 289.573C222.65 289.561 223.309 289.687 223.909 289.94C224.936 290.465 224.888 291.334 223.791 291.884L205.504 301.172C204.916 301.444 204.263 301.591 203.598 301.601C202.934 301.612 202.275 301.485 201.676 301.232C200.688 300.708 200.688 299.839 201.804 299.28Z" fill="#8854D0"/>
<path d="M205.377 306.874L200.443 309.377L205.387 311.879L210.321 309.377L205.377 306.874Z" fill="#BA68C8"/>
<path opacity="0.3" d="M205.377 306.874L200.443 309.377L205.387 311.879L210.321 309.377L205.377 306.874Z" fill="white"/>
<path d="M210.321 309.368V311.879L205.387 314.382V311.879L210.321 309.368Z" fill="#BA68C8"/>
<path d="M205.387 311.879V314.382L200.443 311.879V309.368L205.387 311.879Z" fill="#BA68C8"/>
<path opacity="0.1" d="M205.387 311.879V314.382L200.443 311.879V309.368L205.387 311.879Z" fill="#8854D0"/>
<path d="M212.915 304.93L231.202 295.651C231.79 295.379 232.443 295.232 233.108 295.222C233.772 295.211 234.431 295.338 235.03 295.591C236.058 296.115 236.009 296.984 234.912 297.534L216.625 306.805C216.038 307.08 215.386 307.23 214.721 307.242C214.056 307.254 213.397 307.128 212.797 306.874C211.769 306.349 211.828 305.481 212.915 304.93Z" fill="#8854D0"/>
<path d="M216.498 312.507L211.564 315.009L216.498 317.512L221.432 315.009L216.498 312.507Z" fill="#455A64"/>
<path d="M221.432 315.01V317.521L216.498 320.024V317.512L221.432 315.01Z" fill="#8854D0"/>
<path d="M216.498 317.512V320.024L211.564 317.521V315.01L216.498 317.512Z" fill="#8854D0"/>
<path d="M224.036 310.572L242.323 301.293C242.911 301.021 243.564 300.874 244.229 300.863C244.893 300.853 245.552 300.979 246.151 301.232C247.179 301.748 247.13 302.617 246.023 303.176L227.746 312.447C227.159 312.721 226.506 312.869 225.841 312.879C225.175 312.89 224.517 312.762 223.918 312.507C222.891 311.991 222.949 311.122 224.036 310.572Z" fill="#8854D0"/>
</g>
<defs>
<clipPath id="clip0_932_6080">
<rect width="464.029" height="387" fill="white"/>
</clipPath>
</defs>
</svg>
