<svg width="965" height="1070" viewBox="0 0 965 1070" fill="none" xmlns="http://www.w3.org/2000/svg">
<g clip-path="url(#clip0_586_11036)">
<path opacity="0.1" d="M55.8049 940.952C177.412 1046.74 603.049 1116.92 854.002 874.935C1104.95 632.946 912.867 -28.151 471.198 35.179C29.5289 98.509 118.891 279.206 81.2029 420.303C43.5149 561.4 -65.8021 835.164 55.8049 940.952Z" fill="#2A94F4"/>
<path opacity="0.1" d="M671.631 1039.24C752.313 1039.24 817.718 1030.7 817.718 1020.16C817.718 1009.63 752.313 1001.08 671.631 1001.08C590.949 1001.08 525.544 1009.63 525.544 1020.16C525.544 1030.7 590.949 1039.24 671.631 1039.24Z" fill="#2A94F4"/>
<path opacity="0.1" d="M258.03 1034.83C348.658 1034.83 422.127 1025.31 422.127 1013.57C422.127 1001.83 348.658 992.309 258.03 992.309C167.402 992.309 93.9331 1001.83 93.9331 1013.57C93.9331 1025.31 167.402 1034.83 258.03 1034.83Z" fill="#2A94F4"/>
<path opacity="0.1" d="M476.652 1070C567.28 1070 640.749 1063.41 640.749 1055.28C640.749 1047.15 567.28 1040.56 476.652 1040.56C386.024 1040.56 312.555 1047.15 312.555 1055.28C312.555 1063.41 386.024 1070 476.652 1070Z" fill="#2A94F4"/>
<path d="M562.645 137.715C562.645 137.715 556.166 116.832 556.735 114.096C557.084 112.413 561.12 102.057 562.476 98.661C562.98 97.397 563.491 96.111 563.613 94.751C563.738 93.36 563.45 91.962 563.108 90.603C562.161 86.831 560.788 83.175 559.42 79.53C559.056 78.561 558.688 77.585 558.143 76.704C557.482 75.637 556.581 74.74 555.684 73.86C550.56 68.83 545.28 63.96 539.852 59.257C539.565 59.009 539.253 58.749 538.876 58.709C537.977 58.612 534.915 64.64 534.828 66.033C534.47 71.846 535.732 77.768 538.437 82.972C538.975 84.008 539.577 85.034 539.833 86.17C540.512 89.184 538.659 92.076 537.73 95.004C536.891 97.65 536.024 100.479 535.667 103.235C535.012 108.287 539.427 111.72 540.083 112.65C540.447 113.165 540.557 113.808 540.666 114.425C541.38 118.452 542.702 133.516 542.702 133.516" fill="#FCD2B1"/>
<path d="M647.238 178.06C641.461 182.006 640.802 191.364 640.493 197.718C640.119 205.372 641.194 213.028 642.713 220.513C643.77 225.722 645.152 231.116 648.674 235.098C650.473 237.131 652.737 238.685 654.979 240.217C656.249 241.086 657.547 241.968 659.026 242.391C660.506 242.813 662.223 242.705 663.414 241.731C665.151 240.308 665.18 237.71 665.067 235.468C664.33 220.852 663.887 205.974 667.607 191.819" fill="#0B4870"/>
<path d="M608.419 978.066C608.419 978.066 608.295 991.854 609.27 996.746C610.246 1001.64 626.016 1000.06 627.529 997.276C629.041 994.491 627.156 971.704 627.156 971.704" fill="#FCD2B1"/>
<path d="M632.093 1001.98C632.524 1007.15 632.495 1016.91 632.495 1016.91L616.326 1020.81L614.269 1018.06C614.269 1018.06 609.751 1021.92 604.768 1023.24C601.069 1024.22 593.337 1024.97 589.519 1024.71C576.161 1023.82 566.946 1019.66 566.488 1017.7C564.573 1009.54 582.326 1010.56 585.938 1010.26C596.311 1009.39 603.3 1001.95 605.323 996.648C606.791 992.802 605.927 991.93 608.131 992.444C608.131 992.444 610.097 992.686 611.577 994.868C613.848 998.217 617.795 1000.26 621.809 999.226C624.105 998.636 626.368 997.58 627.914 995.731C627.914 995.731 631.662 996.813 632.093 1001.98Z" fill="#0B4870"/>
<path d="M639.294 808.843C637.761 784.618 657.328 752.198 657.328 752.198C657.328 752.198 604.496 723.173 603.701 714.144C603.701 714.144 596.468 763.991 593.872 781.58C589.364 812.128 604.606 986.385 604.606 986.385C604.606 986.385 615.663 989.453 630.348 986.742C630.348 986.742 633.093 919.433 644.099 873.84C649.316 852.22 641.117 814.834 639.294 808.843Z" fill="#0E538C"/>
<path d="M643.536 529.552C623.702 573.813 602.162 716.635 596.998 765.937C594.809 786.843 612.22 811.344 632.495 792.44C656.698 769.875 690.747 666.496 702.913 648.248C715.078 630 760.599 613.271 729.51 520.68" fill="#0E538C"/>
<path d="M732.596 978.931C732.596 978.931 734.382 998.371 735.084 1003.31C735.785 1008.25 751.619 1007.55 753.285 1004.86C754.951 1002.16 754.338 979.303 754.338 979.303" fill="#FCD2B1"/>
<path d="M757.757 1008.96C758.106 1014.13 757.231 1022.66 757.231 1022.66L739.012 1023.88L737.91 1020.9C737.91 1020.9 732.209 1024.34 727.567 1024.65L712.189 1025.68C700.933 1026.44 694.445 1025.44 694.026 1023.47C692.281 1015.28 705.754 1014.75 709.256 1014.51C719.31 1013.84 729.88 1008.4 731.909 1003.14C733.381 999.317 732.557 998.431 734.684 998.984C734.684 998.984 736.584 999.262 737.987 1001.47C740.141 1004.86 743.936 1006.97 747.836 1006.01C750.066 1005.47 752.273 1004.45 753.794 1002.63C753.795 1002.63 757.41 1003.78 757.757 1008.96Z" fill="#0B4870"/>
<path d="M692.992 805.984C696.35 823.208 741.344 816.774 740.373 801.52C738.992 779.834 754.189 751.806 760.016 648.582C760.682 636.789 772.498 635.058 777.149 602.987C781.74 570.858 762.712 535.297 762.712 535.297L693.482 525.388C693.482 525.388 666.877 585.419 672.379 645.277C677.881 705.135 689.013 785.702 692.992 805.984Z" fill="#0E538C"/>
<path d="M740.253 797.899C740.253 797.899 755.992 829.078 757.839 851.615C760.542 884.592 757.201 993.125 757.201 993.125C757.201 993.125 740.174 996.823 731.085 994.143C731.085 994.143 691.122 801.579 689.656 780.872C688.19 760.167 740.253 797.899 740.253 797.899Z" fill="#0E538C"/>
<path d="M616.727 320.836C624.552 311.859 649.391 297.064 682.588 298.112C705.46 298.833 767.75 302.609 774.711 317.91C778.268 325.731 782.089 405.829 776.879 433.447C772.962 454.213 762.941 505.658 762.941 518.074C762.941 530.49 769.61 535.811 766.498 539.417C759.528 547.492 711.866 550.883 689.49 550.883C669.573 550.883 635.674 545.573 633.954 539.192C631.401 529.721 637.84 530.076 638.713 520.147C639.586 510.22 644.278 444.739 638.446 435.222C629.19 420.117 619.997 380.33 619.286 368.946C618.575 357.563 608.902 329.812 616.727 320.836Z" fill="#2A94F4"/>
<path d="M675.319 274.322C675.319 274.322 675.096 301.947 673.982 303.062C673.796 303.248 673.49 303.474 673.108 303.722C669.586 306.014 668.003 310.35 669.001 314.431C670.677 321.284 673.589 330.085 677.318 328.98C681.482 327.746 701.797 317.754 713.909 311.72C717.137 310.112 718.309 306.457 717.466 302.95C717.439 302.839 717.425 302.727 717.425 302.616C717.425 300.388 722.771 256.945 722.771 256.945" fill="#FCD2B1"/>
<path d="M672.747 172.795C667.743 176.106 652.261 177.884 650.239 185.2C648.218 192.515 649.496 208.162 649.315 212.655C648.954 221.599 649.812 230.747 650.349 239.667C651.048 251.292 652.846 272.415 666.255 277.912C670.107 279.49 671.73 279.899 675.676 279.347C680.923 278.612 686.187 278.002 691.433 277.259C699.563 276.107 708.594 274.911 715.402 269.922C724.497 263.257 725.467 247.413 724.95 237.039L721.988 177.62L672.747 172.795Z" fill="#FFE3CA"/>
<path d="M671.932 354.475C673.127 331.356 593.457 240.7 594.427 236.765C595.397 232.831 558.682 117.382 558.682 117.382L537.817 118.998C537.817 118.998 544.639 216.625 553.955 249.258C560.513 272.23 611.632 339.902 611.632 339.902C611.632 339.902 670.738 377.593 671.932 354.475Z" fill="#2A94F4"/>
<path d="M726.386 507.414L846.551 530.098C849.827 530.716 851.878 533.999 850.996 537.214L834.898 620.33C834.111 623.196 831.257 624.978 828.337 624.427L708.172 601.744C704.896 601.126 702.846 597.843 703.728 594.628L719.825 511.512C720.611 508.645 723.466 506.863 726.386 507.414Z" fill="#0B4870"/>
<path d="M727.804 513.796L842.856 535.514L826.919 618.045L711.867 596.327L727.804 513.796Z" fill="#F7F7F7"/>
<path d="M724.748 592.002L737.317 521.746" stroke="#D3D3D3" stroke-width="0.528" stroke-miterlimit="10" stroke-linecap="round" stroke-linejoin="round"/>
<path d="M735.6 594.106L748.168 523.85" stroke="#D3D3D3" stroke-width="0.528" stroke-miterlimit="10" stroke-linecap="round" stroke-linejoin="round"/>
<path d="M751.214 597.304L763.782 527.048" stroke="#D3D3D3" stroke-width="0.528" stroke-miterlimit="10" stroke-linecap="round" stroke-linejoin="round"/>
<path d="M766.827 600.501L779.396 530.246" stroke="#D3D3D3" stroke-width="0.528" stroke-miterlimit="10" stroke-linecap="round" stroke-linejoin="round"/>
<path d="M782.44 603.699L796.532 533.443" stroke="#D3D3D3" stroke-width="0.528" stroke-miterlimit="10" stroke-linecap="round" stroke-linejoin="round"/>
<path d="M798.054 606.897L812.146 536.641" stroke="#D3D3D3" stroke-width="0.528" stroke-miterlimit="10" stroke-linecap="round" stroke-linejoin="round"/>
<path d="M813.668 610.094L828.336 539.839" stroke="#D3D3D3" stroke-width="0.528" stroke-miterlimit="10" stroke-linecap="round" stroke-linejoin="round"/>
<path d="M790.093 567.834C790.093 567.834 785.34 577.527 782.795 582.451C781.135 585.663 768.512 596.412 763.451 604.977C761.009 609.11 758.858 613.778 759.481 618.539C760.104 623.3 764.578 627.81 769.272 626.803C770.609 626.516 772.139 625.862 773.219 626.7C773.767 627.125 774.008 627.823 774.345 628.429C775.383 630.291 777.62 631.407 779.731 631.116C781.843 630.826 783.695 629.149 784.192 627.076C787.419 630.092 793.035 630.03 796.194 626.944C794.315 625.394 792.912 623 793.297 620.594C793.667 618.274 795.535 616.541 796.968 614.679C799.493 611.4 800.846 607.238 800.735 603.1C800.656 600.15 799.861 597.267 799.536 594.334C798.869 588.316 800.253 582.09 803.405 576.921" fill="#FCD2B1"/>
<path d="M753.896 373.681C757.528 386.627 812.838 471.768 812.838 471.768L783.229 579.69L800.109 590.254C800.109 590.254 852.753 502.78 852.916 478.08C853.078 453.379 814.405 362.822 786.133 325.795C777.133 314.009 759.095 308.06 759.095 308.06" fill="#2A94F4"/>
<path d="M727.462 225.738C723.34 224.856 719.987 223.595 718.829 227.648C718.214 229.797 718.29 232.46 716.454 233.735C714.624 235.004 711.925 233.874 710.748 231.984C709.571 230.094 709.498 227.744 709.459 225.518C709.375 220.592 709.29 215.666 709.206 210.74C709.123 205.916 708.886 200.664 705.752 196.996C704.169 195.144 701.987 193.896 699.733 192.969C692.39 189.945 684.144 190.024 676.257 190.949C668.37 191.874 660.55 193.596 652.61 193.703C649.273 193.747 645.868 193.49 642.776 192.236C637.782 190.211 634.046 185.669 632.303 180.569C630.56 175.469 630.665 169.87 631.838 164.61C632.96 166.189 634.263 167.64 635.713 168.925C635.838 166.277 636.505 163.656 637.662 161.27C643.77 172.561 692.981 151.896 706.529 153.297C715.92 154.267 723.48 154.434 727.602 167.777C728.123 168.562 729.04 168.97 729.898 169.359C739.345 173.633 745.156 180.7 750.033 192.431C755.999 206.783 752.68 225.546 748.278 240.451C747.172 244.197 746.71 246.75 744.498 249.97C742.286 253.189 737.503 255.988 733.629 256.492C729.756 256.997 722.68 259.677 721.388 255.99C720.464 253.352 724.576 246.746 725.442 244.09" fill="#0B4870"/>
<path d="M718.815 244.005C718.815 244.005 719.034 246.669 721.215 248.103C723.128 249.361 725.792 248.21 727.475 246.979C732.271 243.472 734.249 237.02 733.479 231.285C732.571 224.526 727.053 219.286 721.772 222.862C718.682 224.955 717.828 229.523 719.032 233.055" fill="#FFE3CA"/>
<path d="M706.76 569.952L717.161 572.415L724.67 533.529L714.241 531.325L706.76 569.952Z" fill="#0B4870"/>
<path d="M699.825 557.987C702.277 558.45 711.742 560.239 711.742 560.239L715.257 541.642L703.34 539.39C698.205 538.419 693.255 541.795 692.284 546.931C691.313 552.066 694.688 557.016 699.825 557.987ZM700.716 553.927C697.834 553.383 695.94 550.606 696.484 547.724C697.029 544.843 699.806 542.949 702.687 543.493C705.569 544.037 707.463 546.815 706.918 549.696C706.373 552.578 703.597 554.472 700.716 553.927Z" fill="#0B4870"/>
<path d="M491.616 76.7669C492.499 69.3409 475.404 64.3159 473.689 70.4549C473.505 71.1129 472.026 72.9209 471.625 75.6829C471.283 78.0379 470.253 80.7829 469.954 83.1519C469.683 85.3039 470.197 95.3749 465.172 96.4509C457.471 98.1009 462.352 84.7019 456.922 81.6959C455.218 80.7529 453.408 91.1409 453.279 97.0169C453.151 102.891 453.119 105.835 453.671 109.294C454.152 112.755 456.066 117.65 455.797 119.746C455.365 123.12 451.424 130.051 451.424 130.051L470.878 134.479C470.878 134.479 475.476 123.787 477.826 121.3C483.733 115.408 487.43 108.645 489.604 100.465C490.966 95.3409 491.432 89.9919 491.824 84.7199C491.825 84.7189 491.525 77.5329 491.616 76.7669Z" fill="#FCD2B1"/>
<path d="M308.697 239.384C308.697 239.384 370.39 238.839 403.882 201.302C430.604 163.862 456.417 122.441 458.344 118.597C463.602 120.607 474.902 125.777 474.902 125.777C474.902 125.777 439.602 204.761 425.852 222.801C412.101 240.84 385.052 270.386 327.88 285.053C300.493 253.611 308.697 239.384 308.697 239.384ZM348.902 975.838C348.902 975.838 352.451 983.935 352.273 989.371C352.094 994.806 334.851 995.918 332.728 993.191C330.606 990.464 328.577 965.618 328.577 965.618" fill="#FCD2B1"/>
<path d="M328.364 998.159C328.597 1003.81 330.548 1012.95 330.548 1012.95L350.438 1012.13L351.281 1008.77C351.281 1008.77 357.866 1011.82 362.933 1011.61L379.722 1010.92C392.012 1010.42 398.925 1008.56 399.147 1006.39C400.073 997.297 385.408 998.313 381.586 998.47C370.608 998.922 358.512 994.272 355.693 988.807C353.646 984.841 354.436 983.783 352.196 984.634C352.196 984.634 350.169 985.158 348.908 987.716C346.973 991.644 343.109 994.381 338.769 993.801C336.288 993.469 333.777 992.63 331.914 990.836C331.913 990.836 328.132 992.509 328.364 998.159Z" fill="#0B4870"/>
<path d="M154.613 965.047C154.613 965.047 151.533 979.76 149.353 984.743C147.175 989.726 130.745 984.372 129.784 981.053C128.821 977.734 136.14 953.904 136.14 953.904" fill="#FCD2B1"/>
<path d="M123.89 984.052C122.014 989.386 119.332 999.684 119.332 999.684L134.779 1008.05L137.645 1005.7C137.645 1005.7 141.192 1010.96 145.919 1013.66C149.429 1015.67 157.125 1018.49 161.099 1019.23C175.003 1021.81 185.58 1019.85 186.591 1017.91C190.819 1009.81 172.385 1006.21 168.775 1004.94C158.411 1001.3 153.334 991.607 152.738 985.486C152.306 981.045 153.431 980.354 151.035 980.314C151.035 980.314 148.958 980.051 146.839 981.961C143.587 984.892 138.983 986.003 135.167 983.857C132.985 982.63 130.963 980.921 129.897 978.564C129.899 978.564 125.766 978.717 123.89 984.052Z" fill="#0B4870"/>
<path d="M208.532 574.223C208.532 574.223 178.841 510.615 224.05 461.686C224.05 461.686 265.018 478.037 297.319 478.884C322.754 479.551 335.526 476.393 335.526 476.393C335.526 476.393 343.175 523.261 343.083 597.243L208.532 574.223ZM326.923 982.997C327.741 983.022 328.557 982.989 329.314 982.957C346.096 982.441 355.568 980.068 355.568 980.068L355.369 975.233C351.386 901.182 355.37 779.717 355.542 741.377C355.548 738.693 355.389 736.25 355.008 734.048C350.942 706.151 322.144 711.012 311.031 737.259C308.424 743.376 306.425 750.109 304.973 757.345C303.173 766.055 302.103 775.492 301.639 785.489C298.62 849.677 320.006 935.439 326.923 982.997Z" fill="#FFBE55"/>
<path d="M260.941 601.977C261.088 602.729 261.297 603.538 261.505 604.346C269.3 637.807 293.848 728.107 304.968 757.288L304.971 757.346C306.598 761.422 311.692 764.712 318.111 766.14C332.836 769.502 354.339 763.19 355.006 734.049C355.106 730.835 354.905 727.343 354.458 723.569C351.565 700.058 341.013 569.915 339.447 557.378C337.939 544.837 334.912 526.583 328.176 524.527C294.561 514.417 250.32 555.155 260.941 601.977ZM200.483 739.919C222.052 717.888 253.673 726.594 240.444 759.95C226.295 795.615 182.095 894.836 158.817 965.223L157.199 969.805C157.199 969.805 146.624 968.423 129.48 962.071C140.063 916.568 145.915 838.658 169.536 783.562C177.131 765.849 189.304 751.338 200.483 739.919Z" fill="#FFBE55"/>
<path d="M318.34 527.341C320.552 475.055 257.03 512.334 226.59 530.823C213.777 538.603 209.575 553.291 208.378 567.002C207.171 580.714 196.123 721.823 193.799 747.581C188.556 805.649 237.703 771.99 241.812 755.79C252.175 714.892 317.135 555.832 318.34 527.341Z" fill="#FFBE55"/>
<path d="M309.69 197.628C309.824 201.565 309.975 216.957 301.799 220.632C293.621 224.364 288.376 225.93 288.612 227.193C288.704 227.766 289.512 230.475 290.379 233.13C292.259 239.072 295.109 240.548 295.109 240.548L296.292 260.253L281.598 274.905L276.799 279.679L269.587 273.077L246.075 251.662C246.075 251.662 255.764 239.725 249.074 226.932C248.117 225.129 237.403 213.264 228.858 201.312C223.885 194.283 219.651 187.283 218.533 182.282C215.467 168.602 212.885 154.201 220.736 145.611C228.53 137.02 282.366 101.702 293.143 143.143C293.144 143.144 309.555 193.691 309.69 197.628Z" fill="#FFE3CA"/>
<path d="M246.006 185.672C246.006 185.672 258.937 190.339 257.608 172.79C257.536 171.831 258.221 170.973 259.235 170.672C263.02 169.553 271.368 165.128 267.117 148.185C266.762 146.771 267.797 145.38 269.389 145.164C274.88 144.42 286.221 142.955 288.739 143.181C288.739 143.181 289.984 143.058 291.848 143.368C292.455 143.469 292.981 143.812 293.257 144.308C294.133 145.877 299.147 161.87 299.147 161.87C299.147 161.87 305.124 157.364 304.484 154.324C303.844 151.284 301.026 144.837 301.349 143.219C301.672 141.6 306.27 139.696 306.304 136.055C306.379 127.822 303.166 96.307 278.169 115.684C274.9 118.218 271.999 121.266 269.102 122.331C265.322 123.72 261.051 121.041 252.823 121.621C241.327 122.43 191.922 133.985 207.74 177.92C223.556 221.855 249.586 228.123 249.586 228.123C249.586 228.123 241.051 191.259 246.006 185.672Z" fill="#0B4870"/>
<path d="M246.006 185.672C246.006 185.672 243.56 178.12 237.244 180.296C228.765 183.218 229.529 204.512 247.997 201.707C247.997 201.708 245.526 193.002 246.006 185.672Z" fill="#FFE3CA"/>
<path d="M363.772 520.679C363.772 520.679 270.497 537.331 186.529 521.747C190.601 495.805 206.53 422.502 207.608 392.912L207.724 389.896C208.391 371.003 208.737 357.511 209.157 356.958C210 355.794 207.011 295.504 211.962 271.874C212.869 267.521 214.071 264.433 215.6 263.181C225.43 255.01 236.984 246.449 249.879 240.049C249.879 240.049 279.925 272.371 295.256 236.602C312.125 235.083 320.713 238.489 325.593 255.373C352.599 349.177 363.772 520.679 363.772 520.679Z" fill="#2A94F4"/>
<path d="M307.843 236.826C307.843 236.826 335.784 237.301 364.286 224.668C380.19 243.369 389.805 277.453 389.805 277.453C389.805 277.453 351.354 301.892 323.247 304.242C317.218 263.275 307.843 236.826 307.843 236.826Z" fill="#2A94F4"/>
<path d="M357.385 296.661L360.719 303.262L354.261 299.658L304.218 247.501L307.342 244.503L357.385 296.661Z" fill="#0B4870"/>
<path d="M197.145 356.754C197.145 356.754 210.076 401.368 243.705 422.373C253.501 428.492 265.796 425.071 273.495 416.459C296.516 390.712 319.531 332.711 326.894 310.811C313.397 303.646 309.083 304.762 309.083 304.762C309.083 304.762 276.433 350.09 257.701 380.422L243.71 356.023" fill="#FCD2B1"/>
<path d="M308.122 306.453C308.122 306.453 314.125 296.753 314.406 289.404C314.688 282.055 311.205 269.351 318.345 262.739C321.002 260.278 330.3 256.51 340.769 258.242C356.341 260.819 344.027 287.822 343.318 293.955C342.253 303.174 329.401 307.074 326.606 311.669C324.617 314.936 308.122 306.453 308.122 306.453Z" fill="#FCD2B1"/>
<path d="M223.3 257.016C223.3 257.016 188.647 279.716 187.166 318.361C186.021 348.242 205.778 391.841 205.778 391.841C205.778 391.841 240.063 395.622 258.058 367.601C252.728 353.989 248.064 341.899 237.823 325.831" fill="#2A94F4"/>
<path d="M453.211 20.21L464.094 135.312C464.39 138.45 467.303 140.666 470.406 140.116L549.87 126.026C552.637 125.536 554.563 123.004 554.299 120.207L543.416 5.10497C543.119 1.96697 540.207 -0.249027 537.104 0.300973L457.64 14.39C454.873 14.881 452.946 17.412 453.211 20.21Z" fill="#FFBE55"/>
<path d="M459.094 22.101L469.515 132.305L548.415 118.314L537.995 8.11096L459.094 22.101Z" fill="#F7F7F7"/>
<path d="M532.501 18.291L465.451 30.18" stroke="#D3D3D3" stroke-width="0.528" stroke-miterlimit="10" stroke-linecap="round" stroke-linejoin="round"/>
<path d="M533.536 28.6909L466.487 40.5799" stroke="#D3D3D3" stroke-width="0.528" stroke-miterlimit="10" stroke-linecap="round" stroke-linejoin="round"/>
<path d="M509.527 45.5L467.627 52.93" stroke="#D3D3D3" stroke-width="0.528" stroke-miterlimit="10" stroke-linecap="round" stroke-linejoin="round"/>
<path d="M509.427 54.766L467.526 62.196" stroke="#D3D3D3" stroke-width="0.528" stroke-miterlimit="10" stroke-linecap="round" stroke-linejoin="round"/>
<path d="M509.325 64.031L467.424 71.461" stroke="#D3D3D3" stroke-width="0.528" stroke-miterlimit="10" stroke-linecap="round" stroke-linejoin="round"/>
<path d="M539.154 105.228L497.253 112.658" stroke="#D3D3D3" stroke-width="0.528" stroke-miterlimit="10" stroke-linecap="round" stroke-linejoin="round"/>
<path d="M506.005 478.686C511.024 476.322 514.753 471.947 518.321 467.7C521.841 463.509 525.361 459.319 528.881 455.127C530.27 453.474 531.724 451.666 531.881 449.513C525.98 449.033 522.178 456.699 516.275 457.153C519.025 447.435 522.972 438.057 528 429.298C529.227 427.161 530.561 424.668 529.691 422.363C523.312 424.799 517.941 429.335 513.294 434.337C510.029 437.852 507.053 441.637 504.409 445.64C496.62 457.428 491.794 470.957 488.509 484.699L506.005 478.686ZM480.609 579.399L417.345 526.024C417.345 526.024 387.903 565.956 398.994 604.48C404.448 623.424 411.295 632.817 414.268 641.806C417.045 650.203 436.087 769.071 434.666 777.762C433.245 786.453 423.021 810.769 419.119 836.341C414.426 867.096 415.223 967.303 411.583 993.872C407.944 1020.44 432.479 1024.94 433.829 1015.95C445.361 939.12 475.82 819.398 480.082 780.989C484.343 742.578 482.613 672.244 480.609 579.399Z" fill="#FCD2B1"/>
<path d="M438.089 991.273C438.089 991.273 432.199 1019.15 433.784 1022.7C435.369 1026.26 441.068 1036.58 446.904 1040.31C453.029 1044.23 466.592 1048.89 467.678 1050.58C468.763 1052.28 465.449 1050.19 463.514 1051.71C458.518 1055.63 449.02 1055.73 443.348 1054.79C424.958 1051.76 427.266 1050.01 416.552 1048.71C414.702 1048.48 411.275 1051.22 406.159 1048.6C401.041 1045.98 398.556 1041.25 398.996 1036.8C399.754 1029.12 404.067 1022.79 407.137 1017.11C410.207 1011.44 412.369 985.447 412.369 985.447" fill="#FCD2B1"/>
<path d="M468.766 1051.01C468.866 1048.92 460.884 1045.76 457.318 1044.12C453.751 1042.48 448.094 1041.03 450.087 1042.11C452.079 1043.18 448.397 1047.37 445.073 1047C396.396 1041.63 405.031 1023.44 404.615 1021.62C402.823 1022.76 398.654 1031.77 397.809 1034.6C397.046 1037.16 396.61 1041.75 396.404 1044.51C395.533 1056.18 467.891 1069.36 468.766 1051.01Z" fill="#0B4870"/>
<path d="M566.994 1056.46C565.634 1054.96 550.98 1052.58 544.106 1049.7C537.557 1046.97 529.623 1038.17 528.08 1034.44C526.537 1030.71 526.89 1011.79 527.088 1003.85C528.459 949.143 538.567 815.459 540.031 783.444C542.575 727.798 535.351 670.362 513.942 581.032L434.219 519.85C434.219 519.85 411.893 561.356 419.367 601.041C423.703 624.065 442.802 627.607 446.03 636.555C449.259 645.502 497.492 789.78 497.492 789.78C497.492 789.78 488.108 820.969 487.563 855.142C487.097 884.311 500.326 972.304 502.78 1005.83C503.069 1012.38 504.196 1028.06 502.267 1033.05C499.901 1039.17 493.873 1046.35 494.176 1054.07C494.351 1058.54 494.833 1057.46 500.483 1059.21C506.132 1060.96 512.033 1063.05 513.973 1062.97C525.213 1062.5 528.412 1062.64 547.816 1062.63C553.8 1062.63 562.39 1066.92 566.992 1062.22C568.775 1060.4 568.353 1057.96 566.994 1056.46Z" fill="#FCD2B1"/>
<path d="M568.663 1063.31C569.274 1060.68 569.583 1057.34 568.177 1056.7C566.227 1055.82 559.303 1052.8 555.39 1051.76C551.477 1050.72 545.437 1050.22 547.645 1050.96C549.853 1051.7 546.654 1056.62 543.163 1056.62C499.366 1056.62 500.482 1039.87 499.796 1038.14C498.108 1039.56 493.114 1049.15 492.642 1052.08C492.216 1054.74 492.163 1059.38 492.592 1062.11C493.357 1066.98 566.838 1071.19 568.663 1063.31Z" fill="#0B4870"/>
<path d="M419.012 519.309C413.602 525.251 394.32 557.38 394.114 583.532C393.91 609.683 403.213 626.453 404.048 631.912C410.164 671.861 416.077 720.041 416.077 722.656C416.077 725.271 438.754 740.397 469.251 738.477C525.599 734.93 547.508 720.171 547.508 720.171C547.508 720.171 544.84 623.401 536.153 575.685C531.799 551.771 512.844 513.287 512.844 513.287" fill="#0E538C"/>
<path d="M367.602 414.818C367.602 414.818 376.677 459.91 379.058 467.936C381.44 475.962 393.214 526.911 404.373 526.024C415.533 525.137 476.652 474.111 476.652 474.111L467.996 456.799L414.196 482.446C414.196 482.446 409.335 424.203 405.073 410.331" fill="#FFBE9D"/>
<path d="M404.048 352.318C404.048 352.318 386.208 354.219 377.162 361.14C354.095 378.789 371.946 442.852 371.946 442.852C371.946 442.852 370.809 446.272 386.294 445.403C401.78 444.534 414.196 440.128 414.196 440.128L409.721 387.635" fill="#FFBE55"/>
<path d="M489.313 234.12C500.062 248.059 497.934 267.661 495.283 285.062C493.943 293.86 492.603 302.659 491.262 311.457C490.625 315.637 489.777 320.204 486.521 322.901C483.236 325.62 478.543 325.574 474.282 325.391C474.325 332.672 474.369 339.953 474.412 347.235C461.956 347.537 449.493 347.587 437.034 347.384C437.027 342.286 435.917 337.192 433.802 332.553C427.707 332.434 423.635 326.322 421.249 320.713C418.497 314.243 416.493 307.485 414.557 300.726C411.988 291.757 409.51 282.647 409.275 273.32C409.04 263.993 411.259 254.298 417.182 247.09C421.221 242.175 426.727 238.688 432.368 235.744C440.095 231.712 449.376 228.529 457.345 232.06" fill="#FFE3CA"/>
<path d="M476.421 300.518C474.949 293.197 475.053 289.068 477.45 284.193C478.244 282.577 479.293 281.054 480.724 280.049C482.661 278.69 485.236 278.423 487.382 279.359C488.783 279.97 489.936 281.109 490.728 282.478C493.268 272.645 493.801 262.166 493.067 251.955C491.904 235.761 482.142 223.243 467.889 217.389C441.499 206.548 403.586 217.258 392.868 243.162C384.773 262.727 388.877 290.965 404.373 307.366C418.092 321.886 437.826 324.019 456.037 321.028C465.355 319.498 479.737 320.415 484.559 307.743C484.931 306.764 484.094 305.79 483.104 305.866C479.322 306.156 476.693 301.872 476.421 300.518Z" fill="#0B4870"/>
<path d="M478.447 266.073C479.427 267.61 479.197 269.676 480.117 271.249C481.664 273.891 483.72 274.846 486.496 276.134C490.975 278.21 489.926 284.731 489.798 287.647C493.176 285.401 493.725 279.286 494.541 276.179C495.458 272.691 496.043 269.112 497.059 265.652C498.048 262.286 499.759 259.114 500.076 255.573C501.17 243.337 493.493 228.955 484.215 222.087C477.462 217.087 467.153 217.294 459.522 222.379C456.309 224.521 453.893 227.756 452.471 231.345C451.861 232.887 451.439 234.682 452.197 236.156" fill="#0B4870"/>
<path d="M534.507 335.998L508.843 448.729C508.143 451.802 510.216 454.818 513.336 455.267L593.22 466.738C596.001 467.138 598.623 465.335 599.247 462.596L624.911 349.865C625.611 346.792 623.538 343.776 620.418 343.328L540.534 331.857C537.753 331.457 535.131 333.259 534.507 335.998Z" fill="#0B4870"/>
<path d="M539.504 339.635L514.932 447.569L594.25 458.958L618.822 351.025L539.504 339.635Z" fill="#F7F7F7"/>
<path d="M610.42 358.976L543.015 349.297" stroke="#D3D3D3" stroke-width="0.528" stroke-miterlimit="10" stroke-linecap="round" stroke-linejoin="round"/>
<path d="M608.15 369.178L540.746 359.499" stroke="#D3D3D3" stroke-width="0.528" stroke-miterlimit="10" stroke-linecap="round" stroke-linejoin="round"/>
<path d="M580.088 377.635L537.966 371.586" stroke="#D3D3D3" stroke-width="0.528" stroke-miterlimit="10" stroke-linecap="round" stroke-linejoin="round"/>
<path d="M577.094 386.404L534.972 380.355" stroke="#D3D3D3" stroke-width="0.528" stroke-miterlimit="10" stroke-linecap="round" stroke-linejoin="round"/>
<path d="M574.1 395.173L531.978 389.124" stroke="#D3D3D3" stroke-width="0.528" stroke-miterlimit="10" stroke-linecap="round" stroke-linejoin="round"/>
<path d="M589.547 443.632L547.424 437.584" stroke="#D3D3D3" stroke-width="0.528" stroke-miterlimit="10" stroke-linecap="round" stroke-linejoin="round"/>
<path d="M503.062 425.06C503.062 425.06 539.57 513.288 555.41 513.288C566.932 513.288 595.185 431.843 595.185 431.843L577.334 423.393L557.427 457.502L537.27 393.884" fill="#FFE3CA"/>
<path d="M573.79 429.462C573.79 429.462 579.709 420.144 579.275 413.535C579.11 411.014 577.613 399.02 578.864 396.662C580.115 394.304 583.116 386.587 584.831 385.086C586.546 383.586 592.888 381.173 594.439 382.245C595.99 383.317 598.179 380.021 600.491 378.815C615.462 371.01 625.922 402.746 610.111 415.323C607.259 417.592 604.854 422.562 600.154 425.406C597.834 426.81 596.563 429.262 594.347 433.424" fill="#FFE3CA"/>
<path d="M521.437 508.831C519.737 506.317 515.814 503.311 514.407 500.545C511.03 493.907 508.077 465.957 509.239 458.816C510.484 451.162 517.257 447.045 520.314 430.009C524.252 408.064 515.253 391.009 510.223 383.703C503.113 373.372 507.328 373.432 504.896 360.776C504.457 358.496 503.943 356.063 502.385 354.474C500.848 352.906 490.249 348.062 488.167 347.741C468.402 344.679 456.787 347.069 436.807 347.944C426.923 348.376 417.054 349.53 407.349 351.671C396.609 354.04 387.253 356.888 385.044 371.463C381.628 394.005 384.5 416.794 391.353 438.174C395.896 452.345 423.016 501.37 416.296 510.858C414.76 513.027 410.916 517.145 410.451 519.85C408.75 529.759 431.137 533.243 440.719 534.03C455.317 535.229 472.068 534.424 486.701 533.741C497.787 533.223 522.036 529.353 523.759 515.654C524.097 512.964 522.767 510.796 521.437 508.831Z" fill="#FFBE55"/>
<path d="M469.484 346.38C478.991 346.874 506.671 342.018 522.052 358.106C534.938 371.585 542.322 406.92 547.508 421.251C534.6 434.41 522.163 445.022 502.603 440.75C501.866 440.201 492.161 409.659 485.096 406.942" fill="#FFBE55"/>
<path d="M483.104 305.866C483.104 305.866 515.889 347.506 497.431 393.884C474.85 450.619 472.842 453.626 497.431 487.069C522.02 520.512 500.205 561.57 464.915 572.213C429.625 582.856 339.001 577.723 344.48 498.272C346.721 465.783 368.567 460.741 359.604 428.252C350.641 395.763 348.705 375.597 365.358 340.867C382.011 306.137 364.637 210.378 453.707 213.725C453.707 213.724 437.435 316.238 483.104 305.866Z" fill="#0B4870"/>
</g>
<defs>
<clipPath id="clip0_586_11036">
<rect width="965" height="1070" fill="white"/>
</clipPath>
</defs>
</svg>
