<svg width="794" height="729" viewBox="0 0 794 729" fill="none" xmlns="http://www.w3.org/2000/svg">
<path d="M263.8 35.9C350.9 -21.5 473.3 -9.80002 550.3 75.4C592.4 122 609.5 186.1 653.201 231.7C702.401 283 761.201 332.9 783.5 402.9C807.201 477.3 786.401 562.6 733.401 619.5C668.901 688.7 574.1 667.9 484.5 666.8C117.6 662.2 -155.1 417.3 191.9 115.4C220.9 90 235 54.8 263.8 35.9Z" fill="#CCE9FF"/>
<path d="M589 250H472C465.4 250 460 244.6 460 238V162C460 155.4 465.4 150 472 150H589C595.6 150 601 155.4 601 162V238C601 244.6 595.6 250 589 250Z" fill="white"/>
<path d="M453.6 164.1V239.2C453.6 249.6 462 258 472.4 258H585C595.4 258 603.8 249.6 603.8 239.2V164.1C603.8 153.7 595.4 145.3 585 145.3H472.4C462 145.3 453.6 153.7 453.6 164.1ZM463.4 241.1C463.3 240.5 463 239.9 463 239.3V164.2C463 163.2 463.3 162.3 463.6 161.5L503.3 195.6L463.4 241.1ZM585 154.7C585.6 154.7 586.2 154.9 586.8 155.1L528.7 204.9L470.6 155.1C471.2 155 471.7 154.7 472.4 154.7H585ZM554.1 195.4L593.8 161.3C594.1 162.2 594.4 163.1 594.4 164V239.1C594.4 239.8 594.2 240.3 594 240.9L554.1 195.4ZM472.4 248.6C471.4 248.6 470.6 248.3 469.7 248.1L510.4 201.6L525.6 214.7C526.5 215.5 527.6 215.8 528.7 215.8C529.8 215.8 530.9 215.4 531.8 214.7L547 201.6L587.7 248.1C586.8 248.4 586 248.6 585 248.6H472.4Z" fill="#FFBE55"/>
<path d="M646 465H558C551.4 465 546 459.6 546 453V397.6C546 391 551.4 385.6 558 385.6H646C652.6 385.6 658 391 658 397.6V453C658 459.6 652.6 465 646 465Z" fill="white"/>
<path d="M542.8 396.3V455.7C542.8 463.9 549.4 470.6 557.7 470.6H646.8C655 470.6 661.7 464 661.7 455.7V396.3C661.7 388.1 655.1 381.4 646.8 381.4H557.7C549.5 381.5 542.8 388.1 542.8 396.3ZM550.5 457.2C550.4 456.7 550.2 456.3 550.2 455.7V396.3C550.2 395.5 550.4 394.8 550.6 394.1L582 421L550.5 457.2ZM646.8 388.9C647.3 388.9 647.7 389.1 648.2 389.2L602.3 428.6L556.4 389.2C556.9 389.1 557.3 388.9 557.8 388.9H646.8ZM622.3 421.1L653.7 394.2C653.9 394.9 654.1 395.6 654.1 396.4V455.8C654.1 456.3 653.9 456.8 653.8 457.3L622.3 421.1ZM557.7 463.1C556.9 463.1 556.3 462.9 555.6 462.7L587.8 425.9L599.9 436.2C600.6 436.8 601.5 437.1 602.3 437.1C603.2 437.1 604 436.8 604.7 436.2L616.8 425.9L649 462.7C648.3 462.9 647.6 463.1 646.9 463.1H557.7Z" fill="#2A94F4"/>
<path d="M689.4 151.4V191.6C689.4 197.2 693.9 201.7 699.5 201.7H759.8C765.4 201.7 769.9 197.2 769.9 191.6V151.4C769.9 145.8 765.4 141.3 759.8 141.3H699.5C693.9 141.3 689.4 145.8 689.4 151.4ZM694.7 192.6C694.6 192.3 694.5 192 694.5 191.6V151.4C694.5 150.9 694.6 150.4 694.8 149.9L716.1 168.1L694.7 192.6ZM759.8 146.4C760.1 146.4 760.4 146.5 760.7 146.6L729.6 173.3L698.5 146.6C698.8 146.5 699.1 146.4 699.4 146.4H759.8ZM743.3 168.2L764.6 150C764.7 150.5 764.9 150.9 764.9 151.5V191.7C764.9 192 764.8 192.4 764.7 192.7L743.3 168.2ZM699.5 196.6C699 196.6 698.5 196.5 698.1 196.3L719.9 171.4L728.1 178.4C728.6 178.8 729.2 179 729.7 179C730.3 179 730.9 178.8 731.3 178.4L739.5 171.4L761.3 196.3C760.8 196.4 760.4 196.6 759.9 196.6H699.5Z" fill="#CCE9FF"/>
<path d="M706 359H670C663.4 359 658 353.6 658 347V325.6C658 319 663.4 313.6 670 313.6H706C712.6 313.6 718 319 718 325.6V347C718 353.6 712.6 359 706 359Z" fill="white"/>
<path d="M656.5 320.6V351.8C656.5 356.1 660 359.6 664.3 359.6H711.1C715.4 359.6 718.9 356.1 718.9 351.8V320.6C718.9 316.3 715.4 312.8 711.1 312.8H664.3C660 312.9 656.5 316.3 656.5 320.6ZM660.6 352.6C660.5 352.3 660.4 352.1 660.4 351.8V320.6C660.4 320.2 660.5 319.8 660.6 319.5L677.1 333.6L660.6 352.6ZM711.1 316.8C711.4 316.8 711.6 316.9 711.8 316.9L687.7 337.6L663.6 316.9C663.8 316.9 664.1 316.8 664.3 316.8H711.1ZM698.2 333.6L714.7 319.5C714.8 319.9 714.9 320.2 714.9 320.6V351.8C714.9 352.1 714.8 352.3 714.7 352.6L698.2 333.6ZM664.3 355.7C663.9 355.7 663.5 355.6 663.2 355.5L680.1 336.2L686.4 341.6C686.8 341.9 687.2 342.1 687.7 342.1C688.2 342.1 688.6 341.9 689 341.6L695.3 336.2L712.2 355.5C711.8 355.6 711.5 355.7 711.1 355.7H664.3Z" fill="#FFBE55"/>
<path d="M585.4 63.6V96C585.4 100.5 589 104.1 593.5 104.1H642C646.5 104.1 650.1 100.5 650.1 96V63.6C650.1 59.1 646.5 55.5 642 55.5H593.5C589.1 55.5 585.4 59.1 585.4 63.6ZM589.7 96.8C589.6 96.5 589.5 96.3 589.5 96V63.6C589.5 63.2 589.6 62.8 589.7 62.4L606.8 77.1L589.7 96.8ZM642.1 59.6C642.4 59.6 642.6 59.7 642.9 59.8L617.9 81.3L592.9 59.8C593.2 59.7 593.4 59.6 593.7 59.6H642.1ZM628.8 77.1L645.9 62.4C646 62.8 646.1 63.2 646.1 63.6V96C646.1 96.3 646 96.5 645.9 96.8L628.8 77.1ZM593.5 100C593.1 100 592.7 99.9 592.3 99.8L609.8 79.8L616.4 85.4C616.8 85.7 617.2 85.9 617.7 85.9C618.2 85.9 618.6 85.7 619 85.4L625.6 79.8L643.1 99.8C642.7 99.9 642.4 100 641.9 100H593.5Z" fill="#2A94F4"/>
<path d="M504.2 267.3C505.857 267.3 507.2 265.957 507.2 264.3C507.2 262.643 505.857 261.3 504.2 261.3C502.543 261.3 501.2 262.643 501.2 264.3C501.2 265.957 502.543 267.3 504.2 267.3Z" fill="#6B6B6B"/>
<path d="M494.7 272.4C496.357 272.4 497.7 271.057 497.7 269.4C497.7 267.743 496.357 266.4 494.7 266.4C493.043 266.4 491.7 267.743 491.7 269.4C491.7 271.057 493.043 272.4 494.7 272.4Z" fill="#6B6B6B"/>
<path d="M485.4 277.8C487.057 277.8 488.4 276.457 488.4 274.8C488.4 273.143 487.057 271.8 485.4 271.8C483.744 271.8 482.4 273.143 482.4 274.8C482.4 276.457 483.744 277.8 485.4 277.8Z" fill="#6B6B6B"/>
<path d="M477.9 285.5C479.557 285.5 480.9 284.157 480.9 282.5C480.9 280.843 479.557 279.5 477.9 279.5C476.244 279.5 474.9 280.843 474.9 282.5C474.9 284.157 476.244 285.5 477.9 285.5Z" fill="#6B6B6B"/>
<path d="M471.5 294.1C473.157 294.1 474.5 292.757 474.5 291.1C474.5 289.443 473.157 288.1 471.5 288.1C469.843 288.1 468.5 289.443 468.5 291.1C468.5 292.757 469.843 294.1 471.5 294.1Z" fill="#6B6B6B"/>
<path d="M466.6 303.7C468.256 303.7 469.6 302.357 469.6 300.7C469.6 299.043 468.256 297.7 466.6 297.7C464.943 297.7 463.6 299.043 463.6 300.7C463.6 302.357 464.943 303.7 466.6 303.7Z" fill="#6B6B6B"/>
<path d="M463.5 314C465.157 314 466.5 312.657 466.5 311C466.5 309.343 465.157 308 463.5 308C461.843 308 460.5 309.343 460.5 311C460.5 312.657 461.843 314 463.5 314Z" fill="#6B6B6B"/>
<path d="M520.7 356.5C522.357 356.5 523.7 355.157 523.7 353.5C523.7 351.843 522.357 350.5 520.7 350.5C519.043 350.5 517.7 351.843 517.7 353.5C517.7 355.157 519.043 356.5 520.7 356.5Z" fill="#6B6B6B"/>
<path d="M509.9 356.5C511.557 356.5 512.9 355.157 512.9 353.5C512.9 351.843 511.557 350.5 509.9 350.5C508.244 350.5 506.9 351.843 506.9 353.5C506.9 355.157 508.244 356.5 509.9 356.5Z" fill="#6B6B6B"/>
<path d="M499.1 356.5C500.756 356.5 502.1 355.157 502.1 353.5C502.1 351.843 500.756 350.5 499.1 350.5C497.443 350.5 496.1 351.843 496.1 353.5C496.1 355.157 497.443 356.5 499.1 356.5Z" fill="#6B6B6B"/>
<path d="M488.3 356.5C489.957 356.5 491.3 355.157 491.3 353.5C491.3 351.843 489.957 350.5 488.3 350.5C486.643 350.5 485.3 351.843 485.3 353.5C485.3 355.157 486.643 356.5 488.3 356.5Z" fill="#6B6B6B"/>
<path d="M477.5 356.5C479.157 356.5 480.5 355.157 480.5 353.5C480.5 351.843 479.157 350.5 477.5 350.5C475.843 350.5 474.5 351.843 474.5 353.5C474.5 355.157 475.843 356.5 477.5 356.5Z" fill="#6B6B6B"/>
<path d="M645.699 339.1C647.356 339.1 648.699 337.757 648.699 336.1C648.699 334.443 647.356 333.1 645.699 333.1C644.042 333.1 642.699 334.443 642.699 336.1C642.699 337.757 644.042 339.1 645.699 339.1Z" fill="#6B6B6B"/>
<path d="M634.899 338.8C636.556 338.8 637.899 337.457 637.899 335.8C637.899 334.143 636.556 332.8 634.899 332.8C633.243 332.8 631.899 334.143 631.899 335.8C631.899 337.457 633.243 338.8 634.899 338.8Z" fill="#6B6B6B"/>
<path d="M624.1 338.5C625.756 338.5 627.1 337.157 627.1 335.5C627.1 333.843 625.756 332.5 624.1 332.5C622.443 332.5 621.1 333.843 621.1 335.5C621.1 337.157 622.443 338.5 624.1 338.5Z" fill="#6B6B6B"/>
<path d="M613.6 341.1C615.256 341.1 616.6 339.757 616.6 338.1C616.6 336.443 615.256 335.1 613.6 335.1C611.943 335.1 610.6 336.443 610.6 338.1C610.6 339.757 611.943 341.1 613.6 341.1Z" fill="#6B6B6B"/>
<path d="M603.199 344C604.856 344 606.199 342.657 606.199 341C606.199 339.343 604.856 338 603.199 338C601.542 338 600.199 339.343 600.199 341C600.199 342.657 601.542 344 603.199 344Z" fill="#6B6B6B"/>
<path d="M594.3 350C595.957 350 597.3 348.657 597.3 347C597.3 345.343 595.957 344 594.3 344C592.643 344 591.3 345.343 591.3 347C591.3 348.657 592.643 350 594.3 350Z" fill="#6B6B6B"/>
<path d="M586.199 357C587.856 357 589.199 355.657 589.199 354C589.199 352.343 587.856 351 586.199 351C584.542 351 583.199 352.343 583.199 354C583.199 355.657 584.542 357 586.199 357Z" fill="#6B6B6B"/>
<path d="M579.699 365.6C581.356 365.6 582.699 364.257 582.699 362.6C582.699 360.943 581.356 359.6 579.699 359.6C578.042 359.6 576.699 360.943 576.699 362.6C576.699 364.257 578.042 365.6 579.699 365.6Z" fill="#6B6B6B"/>
<path d="M575.1 375.3C576.756 375.3 578.1 373.957 578.1 372.3C578.1 370.643 576.756 369.3 575.1 369.3C573.443 369.3 572.1 370.643 572.1 372.3C572.1 373.957 573.443 375.3 575.1 375.3Z" fill="#6B6B6B"/>
<path d="M696 214.1C697.657 214.1 699 212.757 699 211.1C699 209.443 697.657 208.1 696 208.1C694.343 208.1 693 209.443 693 211.1C693 212.757 694.343 214.1 696 214.1Z" fill="#6B6B6B"/>
<path d="M687.1 220.3C688.756 220.3 690.1 218.957 690.1 217.3C690.1 215.643 688.756 214.3 687.1 214.3C685.443 214.3 684.1 215.643 684.1 217.3C684.1 218.957 685.443 220.3 687.1 220.3Z" fill="#6B6B6B"/>
<path d="M677.199 224.4C678.856 224.4 680.199 223.057 680.199 221.4C680.199 219.743 678.856 218.4 677.199 218.4C675.542 218.4 674.199 219.743 674.199 221.4C674.199 223.057 675.542 224.4 677.199 224.4Z" fill="#6B6B6B"/>
<path d="M667.1 228.3C668.756 228.3 670.1 226.957 670.1 225.3C670.1 223.643 668.756 222.3 667.1 222.3C665.443 222.3 664.1 223.643 664.1 225.3C664.1 226.957 665.443 228.3 667.1 228.3Z" fill="#6B6B6B"/>
<path d="M656.6 230.6C658.256 230.6 659.6 229.257 659.6 227.6C659.6 225.943 658.256 224.6 656.6 224.6C654.943 224.6 653.6 225.943 653.6 227.6C653.6 229.257 654.943 230.6 656.6 230.6Z" fill="#6B6B6B"/>
<path d="M646 232.7C647.657 232.7 649 231.357 649 229.7C649 228.043 647.657 226.7 646 226.7C644.343 226.7 643 228.043 643 229.7C643 231.357 644.343 232.7 646 232.7Z" fill="#6B6B6B"/>
<path d="M635.199 233.6C636.856 233.6 638.199 232.257 638.199 230.6C638.199 228.943 636.856 227.6 635.199 227.6C633.542 227.6 632.199 228.943 632.199 230.6C632.199 232.257 633.542 233.6 635.199 233.6Z" fill="#6B6B6B"/>
<path d="M624.399 234C626.056 234 627.399 232.657 627.399 231C627.399 229.343 626.056 228 624.399 228C622.743 228 621.399 229.343 621.399 231C621.399 232.657 622.743 234 624.399 234Z" fill="#6B6B6B"/>
<path d="M613.6 233.7C615.256 233.7 616.6 232.357 616.6 230.7C616.6 229.043 615.256 227.7 613.6 227.7C611.943 227.7 610.6 229.043 610.6 230.7C610.6 232.357 611.943 233.7 613.6 233.7Z" fill="#6B6B6B"/>
<path d="M572.801 87.5C574.458 87.5 575.801 86.1569 575.801 84.5C575.801 82.8431 574.458 81.5 572.801 81.5C571.144 81.5 569.801 82.8431 569.801 84.5C569.801 86.1569 571.144 87.5 572.801 87.5Z" fill="#6B6B6B"/>
<path d="M562.4 90.3C564.057 90.3 565.4 88.9569 565.4 87.3C565.4 85.6431 564.057 84.3 562.4 84.3C560.744 84.3 559.4 85.6431 559.4 87.3C559.4 88.9569 560.744 90.3 562.4 90.3Z" fill="#6B6B6B"/>
<path d="M553.801 96.6C555.458 96.6 556.801 95.2568 556.801 93.6C556.801 91.9431 555.458 90.6 553.801 90.6C552.144 90.6 550.801 91.9431 550.801 93.6C550.801 95.2568 552.144 96.6 553.801 96.6Z" fill="#6B6B6B"/>
<path d="M547.4 104.9C549.057 104.9 550.4 103.557 550.4 101.9C550.4 100.243 549.057 98.9 547.4 98.9C545.744 98.9 544.4 100.243 544.4 101.9C544.4 103.557 545.744 104.9 547.4 104.9Z" fill="#6B6B6B"/>
<path d="M543.601 115C545.257 115 546.601 113.657 546.601 112C546.601 110.343 545.257 109 543.601 109C541.944 109 540.601 110.343 540.601 112C540.601 113.657 541.944 115 543.601 115Z" fill="#6B6B6B"/>
<path d="M542.4 125.7C544.057 125.7 545.4 124.357 545.4 122.7C545.4 121.043 544.057 119.7 542.4 119.7C540.744 119.7 539.4 121.043 539.4 122.7C539.4 124.357 540.744 125.7 542.4 125.7Z" fill="#6B6B6B"/>
<path d="M543.2 136.5C544.857 136.5 546.2 135.157 546.2 133.5C546.2 131.843 544.857 130.5 543.2 130.5C541.543 130.5 540.2 131.843 540.2 133.5C540.2 135.157 541.543 136.5 543.2 136.5Z" fill="#6B6B6B"/>
<path d="M368.8 671C369.6 670.7 370.3 670.5 371.1 670.2C371.1 670.2 370.8 669.6 370.3 668.4C362.1 651.4 293.9 517 162.4 491.2C161.4 491 160.3 490.8 159.3 490.6C142.6 487.6 125 486.3 106.4 487.2C106.4 487.2 80.2998 487.7 48.1998 510.3C47.4998 510.8 46.7998 511.3 45.9998 511.8C31.5998 522.3 16.0998 537.4 1.19981 558.8C0.899806 559.2 0.599805 559.6 0.299805 560C0.299805 560 0.499805 560.6 0.999805 561.7C5.59981 572.3 32.3998 628.8 95.7998 665.9C96.5998 666.4 97.4998 666.9 98.2998 667.3C155.8 700.2 242.5 716.8 368.8 671Z" fill="#0B4870"/>
<path d="M370.8 671.6L371.1 670.2L371.4 668.8L370.3 668.5L1.19981 559C0.899806 559.4 0.599805 559.8 0.299805 560.2C0.299805 560.2 0.499805 560.8 0.999805 561.9L368.8 671L370.8 671.6Z" fill="white"/>
<path d="M98.3994 667.6L153.499 605.8L151.699 603.6L95.8994 666.2C96.6994 666.7 97.4994 667.1 98.3994 667.6ZM220.899 625.7L223.999 626.1L162.399 491.3C161.399 491.1 160.299 490.9 159.299 490.7L220.899 625.7ZM82.6994 585.7L84.8994 584.3L48.0994 510.4C47.3994 510.9 46.6994 511.4 45.8994 511.9L82.6994 585.7Z" fill="white"/>
<path d="M363.6 665.1C364 665.4 364.4 665.7 364.8 666C364.8 666 365 665.6 365.5 665C371.9 654.9 420.9 572.7 390.201 493.4C390.001 492.8 389.7 492.1 389.5 491.5C385.5 481.5 380.2 471.6 373.4 461.9C373.4 461.9 364.3 448.1 341.3 438.5C340.8 438.3 340.3 438.1 339.701 437.9C329.201 433.7 315.8 430.5 299.3 429.8C299 429.8 298.7 429.8 298.3 429.8C298.3 429.8 298.1 430.1 297.6 430.8C293.5 436.8 272.2 470.3 273.8 517C273.8 517.6 273.8 518.2 273.9 518.8C275.8 560.7 296.3 612.8 363.6 665.1Z" fill="#2A94F4"/>
<path d="M364.001 666.4L364.901 666.1L365.801 665.8L365.601 665.1L299.301 430C299.001 430 298.701 430 298.301 430C298.301 430 298.101 430.3 297.601 431L363.601 665.3L364.001 666.4Z" fill="white"/>
<path d="M273.9 518.8L325.7 527.5L326.2 525.8L273.7 517C273.8 517.6 273.8 518.2 273.9 518.8ZM337.9 570.4L338.7 572.2L390.2 493.5C390 492.9 389.7 492.2 389.5 491.6L337.9 570.4ZM312.5 482.7L314 483.4L341.2 438.6C340.7 438.4 340.2 438.2 339.6 438L312.5 482.7Z" fill="white"/>
<path d="M364.4 670.5C365.1 670.6 365.8 670.6 366.4 670.7C366.4 670.7 366.4 670.2 366.4 669.2C366.4 654.4 363.3 536.3 272.5 473.1C271.8 472.6 271.1 472.1 270.3 471.6C258.7 463.8 245.7 456.8 231.2 451.1C231.2 451.1 211.1 442.5 178.5 447.5C177.8 447.6 177 447.7 176.3 447.8C161.5 450.3 144.2 455.6 125.1 465.6C124.7 465.8 124.4 466 124 466.2C124 466.2 124 466.7 123.9 467.7C123.5 476.7 123.4 525.7 158.3 573.6C158.8 574.2 159.2 574.8 159.7 575.5C191.5 618.1 251.6 659.5 364.4 670.5Z" fill="#FFBE55"/>
<path d="M365.699 671.6L366.399 670.7L367.099 669.8L366.399 669.2L125.099 465.6C124.699 465.8 124.399 466 123.999 466.2C123.999 466.2 123.999 466.7 123.899 467.7L364.299 670.5L365.699 671.6Z" fill="white"/>
<path d="M159.7 575.4L224.1 550.7L223.5 548.5L158.3 573.5C158.8 574.2 159.2 574.8 159.7 575.4ZM268.3 587.8L270.5 589.2L272.6 473C271.9 472.5 271.2 472 270.4 471.5L268.3 587.8ZM177.5 512.3L179.7 512.1L178.5 447.4C177.8 447.5 177 447.6 176.3 447.7L177.5 512.3Z" fill="white"/>
<path d="M422.7 676.3L419 705.3L406.5 709.8L409.8 675L422.7 676.3Z" fill="#DBA17B"/>
<path d="M365.7 676.3L362 705.3L349.5 709.8L352.8 675L365.7 676.3Z" fill="#DBA17B"/>
<path d="M381.9 317.5L362.2 342.6L381 352.8L402.1 326.7L381.9 317.5Z" fill="#CC9271"/>
<path d="M432.4 319.3C431.8 315.5 431.4 311.6 431.1 307.7C430.9 304.6 431 301.5 431.1 298.4C431.4 295.3 431.4 292.2 431.2 289.3C431.2 289.4 431.1 289.5 431.1 289.6C430.9 287 430.5 284.4 429.8 281.9C427.8 275.6 423.7 269.7 417.3 267.5C404.5 263.2 388.9 275.2 382.4 294.4C375.9 313.6 381 332.7 393.8 337C402.9 340.1 413.4 334.9 421 324.8C424 324.7 427 324.5 429.9 323.7C430.9 323.4 431.9 323 432.4 322.1C432.7 321.2 432.6 320.2 432.4 319.3Z" fill="#DBA17B"/>
<path d="M443 287.7C447.1 286.3 450.6 282.8 451.4 278.6C452.2 274.3 449.8 269.5 445.7 268.1C442.6 267 438.9 267.9 436.1 266.3C434.4 265.3 433.3 263.6 432.1 262.1C425.5 253.7 414.6 248.9 404 249.7C393.4 250.5 383.3 256.8 378 266C373.5 273.8 372.4 283.1 373.2 292C374 300.9 376.7 309.6 379.3 318.1C383.7 309.4 388.1 300.7 392.5 292.1C393.5 290.2 394.5 288.2 396.3 287.1C398.1 286 400.9 286.1 401.9 287.9C402.6 289.1 402.4 290.6 402.4 291.9C402.4 293.3 402.6 294.9 403.8 295.5C405.1 296.2 406.8 295.4 408 294.5C410.6 292.6 412.9 290.3 415 287.8C416.3 286.2 417.6 284.2 419.5 283.4C421.6 282.5 423.4 283.5 425.3 284.6C427.9 286.1 430.6 287.5 433.6 288.1C436.7 288.7 440 288.7 443 287.7ZM429.8 469.6C433.7 494.6 437.4 538.1 441.3 563.1C447 599.8 428.9 654.7 422.2 691.2C417.3 690.6 413 689.1 408.1 688.5C409.7 626.6 406.9 547.7 402.9 485.9C411.6 487 421.1 468.5 429.8 469.6Z" fill="#0B4870"/>
<path d="M369.101 487C374.201 487.3 379.201 482.7 384.301 483.1C390.501 483.5 397.201 484.7 403.101 486.5C409.001 488.3 415.901 482.8 421.701 480.8C422.901 490.8 420.801 508.6 418.901 518.5C414.501 541.7 409.401 564.7 403.501 587.5C400.301 600.1 390.801 612.2 385.801 624.2C383.701 629.3 381.701 634.6 379.801 639.8C375.801 650.6 368.901 681 364.901 691.8C360.001 691.4 355.001 691.3 350.101 690.9C350.601 680 354.901 648.6 355.301 637.7C356.101 619.5 365.201 600.4 372.401 583.6C368.801 566.2 368.701 547.3 368.801 529.5C368.901 513.8 369.001 502.6 369.101 487Z" fill="#0E538C"/>
<path d="M438.2 419.8C440 420.1 442.1 420 443.5 418.8C444.2 418.2 444.7 417.3 445.2 416.6C446.9 414.6 449.8 413.6 452.3 414.2C457.5 415.5 460 422.1 465.2 423.2C466 423.4 466.8 423.4 467.6 423.7C468.4 424 469.1 424.5 469.2 425.3C469.4 426.3 468.7 427.1 468 427.9C467.1 428.9 466.1 429.9 465.2 430.9C464.8 431.3 464.3 431.8 463.8 432C462.7 432.5 461.3 432 460.4 432.7C459.6 433.3 459.4 434.5 458.5 435.1C457.2 435.9 455.4 434.7 453.9 435.3C453.1 435.6 452.6 436.3 452 436.7C450.9 437.4 449.4 437.3 448.1 436.9C446.8 436.4 445.7 435.6 444.6 435C443.1 434.2 441.5 433.6 439.9 433.1C435.5 432 430.8 432.3 426.2 432.7C426 429.1 425.9 425.5 425.7 421.9C425.7 421.3 425.7 420.6 426 420C426.6 418.9 428.2 418.9 429.5 419.2C431.1 419.6 431.9 419.5 433.4 419.2C434.9 418.9 436.7 419.6 438.2 419.8Z" fill="#DBA17B"/>
<path d="M450 433.6C449.5 432.8 449.7 431.7 450.5 431.2L479.3 412.2C480.1 411.7 481.2 411.9 481.7 412.7C482.2 413.5 482 414.6 481.2 415.1L452.4 434.1C451.6 434.6 450.5 434.4 450 433.6Z" fill="#0B4870"/>
<path d="M427 690.3C427.4 689.4 428.5 689.1 429.2 689.7C432.3 692.3 440.6 698.2 457.1 702C457.1 702 461.1 702.8 464 707.5H402.8V696.7C402.8 695.5 404.2 694.9 405.1 695.6L407.5 697.6C408.6 698.6 410.1 699.1 411.5 699.1L420.3 699.2C422.2 699.2 423.9 698.1 424.6 696.3L427 690.3Z" fill="#CCE9FF"/>
<path d="M402.87 713.828H464.07V707.528H402.87V713.828Z" fill="#0E538C"/>
<path d="M367.201 693.7C367.801 693 369.001 693.1 369.501 693.9C371.501 697.4 377.401 705.7 391.501 715C391.501 715 395.001 717.2 396.201 722.5L338.601 701.8L342.301 691.6C342.701 690.5 344.201 690.3 344.801 691.4L346.301 694.1C347.001 695.4 348.201 696.4 349.601 696.9L357.801 699.9C359.601 700.6 361.601 700 362.801 698.6L367.201 693.7Z" fill="#CCE9FF"/>
<path d="M336.371 707.734L393.954 728.462L396.088 722.534L338.505 701.807L336.371 707.734Z" fill="#0E538C"/>
<path d="M427.9 414.7C432.3 429.4 435.6 452.5 437.7 467.7C438.2 471.3 437.9 484.9 435.4 487.5C433.9 489.1 395.2 493.4 379.1 498.7C376.9 499.4 366.4 503.5 364.3 502.6C361.3 501.3 359.7 488.1 360.4 485C369.7 444.9 369.7 474.4 356.1 395.5C353.4 379.7 348.2 365.1 353.6 350C355.4 345 369 330.4 369 330.4C369 330.4 373.6 335.3 378.3 338.1C382.2 340.4 387.3 344.5 390.6 345.3C405.7 348.8 422.6 397 427.9 414.7Z" fill="#2A94F4"/>
<path d="M409.2 521.7C410.5 524.5 411.1 527.6 411.4 530.6C411.8 535.9 411.2 541.2 409.7 546.2C407.5 545.7 405.7 543.7 405.4 541.4C406.4 543 405.5 545.4 403.7 545.9C401.9 546.4 399.9 544.7 400 542.8C399.5 544.4 397.7 545.6 396.1 545.3C394.4 545 393.1 543.4 393.2 541.7C393.9 542.2 393.7 543.4 393.1 543.9C392.4 544.4 391.4 544.3 390.7 543.9C390 543.5 389.5 542.7 389.2 541.9C388.7 540.5 388.5 539 388.4 537.5C387.9 531.1 387.5 524.6 387 518.2C386.9 517.3 386.9 516.4 387.3 515.6C388.1 514.1 390.2 513.9 392 514C394.3 514.1 396.6 514.2 398.9 514.3C400.4 514.4 402 514.3 403.4 514.8C405.9 516 408 519.3 409.2 521.7Z" fill="#DBA17B"/>
<path d="M384.2 371.5C383.4 385 382.6 398.6 381.7 412.1C381.2 419.6 380.8 427.2 381.9 434.6C382.8 440.8 384.7 446.8 386.6 452.7C393.5 474.1 400.4 495.5 407.4 516.9C400 516.4 392.5 515.9 385.1 515.4C379.2 492.5 367.8 451.6 366.8 447.9C358.6 422.2 355.7 394.9 358.3 368.1L384.2 371.5Z" fill="#2A94F4"/>
<path d="M350 240C350 213.5 320.9 192 285 192C249.1 192 220 213.5 220 240C220 266.5 249.1 288 285 288C291.8 288 298.4 287.2 304.5 285.8L328 305V276C341.5 267.2 350 254.3 350 240Z" fill="#FFBE55"/>
<path d="M312.5 193.5C312.5 172 288.9 154.5 259.7 154.5C230.5 154.5 206.9 171.9 206.9 193.5C206.9 215 230.5 232.5 259.7 232.5C265.2 232.5 270.6 231.9 275.6 230.7L294.6 246.3V222.8C305.6 215.5 312.5 205.1 312.5 193.5Z" fill="white"/>
<path d="M287 179.5H230C229.2 179.5 228.5 178.8 228.5 178C228.5 177.2 229.2 176.5 230 176.5H287C287.8 176.5 288.5 177.2 288.5 178C288.5 178.8 287.8 179.5 287 179.5ZM287 190.3H230C229.2 190.3 228.5 189.6 228.5 188.8C228.5 188 229.2 187.3 230 187.3H287C287.8 187.3 288.5 188 288.5 188.8C288.5 189.6 287.8 190.3 287 190.3ZM287 201.2H230C229.2 201.2 228.5 200.5 228.5 199.7C228.5 198.9 229.2 198.2 230 198.2H287C287.8 198.2 288.5 198.9 288.5 199.7C288.5 200.5 287.8 201.2 287 201.2ZM287 212H230C229.2 212 228.5 211.3 228.5 210.5C228.5 209.7 229.2 209 230 209H287C287.8 209 288.5 209.7 288.5 210.5C288.5 211.3 287.8 212 287 212Z" fill="#FFBE55"/>
</svg>
