<svg width="24" height="18" viewBox="0 0 24 18" fill="currentColor" xmlns="http://www.w3.org/2000/svg">
<path d="M8.26053 13.268L21.0078 0.520789C21.355 0.173597 21.7669 0 22.2435 0C22.7201 0 23.132 0.173597 23.4792 0.520789C23.8264 0.867981 24 1.27989 24 1.75653C24 2.23314 23.8264 2.64504 23.4792 2.99223L9.48176 16.9897C9.13456 17.3369 8.72749 17.5105 8.26053 17.5105C7.79357 17.5105 7.38649 17.3369 7.0393 16.9897L0.506707 10.4571C0.159514 10.1099 -0.00925714 9.698 0.000391322 9.22139C0.0100652 8.74476 0.188498 8.33284 0.53569 7.98565C0.882882 7.63846 1.2948 7.46486 1.77143 7.46486C2.24804 7.46486 2.65994 7.63846 3.00713 7.98565L8.26053 13.268Z" />
</svg>
