<svg width="14" height="14" viewBox="0 0 14 14" fill="currentColor" xmlns="http://www.w3.org/2000/svg">
<path d="M10.7626 7.00622C10.7626 7.15378 10.7385 7.28992 10.6902 7.41463C10.6419 7.53936 10.558 7.66144 10.4386 7.78087L4.4257 13.7937C4.29747 13.922 4.14026 13.9905 3.95406 13.9993C3.76785 14.008 3.60185 13.9395 3.45604 13.7937C3.31026 13.6479 3.23737 13.4863 3.23737 13.3089C3.23737 13.1315 3.31026 12.9699 3.45604 12.8241L9.2739 7.00622L3.45604 1.18836C3.32782 1.06014 3.25931 0.902929 3.25052 0.716726C3.24175 0.530523 3.31026 0.364518 3.45604 0.218712C3.60185 0.0729049 3.76346 4.76837e-07 3.94087 4.76837e-07C4.1183 4.76837e-07 4.27991 0.0729049 4.4257 0.218712L10.4386 6.23157C10.558 6.351 10.6419 6.47308 10.6902 6.59781C10.7385 6.72252 10.7626 6.85865 10.7626 7.00622Z" />
</svg>
