<svg width="24" height="24" viewBox="0 0 24 24" fill="currentColor" xmlns="http://www.w3.org/2000/svg">
<path d="M5.55069 11.9893C5.55069 11.7364 5.59209 11.503 5.67488 11.2892C5.75772 11.0754 5.9015 10.8661 6.10624 10.6614L16.414 0.35361C16.6338 0.133799 16.9033 0.0163573 17.2225 0.00128565C17.5417 -0.013786 17.8263 0.103655 18.0763 0.35361C18.3262 0.603564 18.4511 0.880607 18.4511 1.18474C18.4511 1.48887 18.3262 1.76592 18.0763 2.01587L8.10281 11.9893L18.0763 21.9628C18.2961 22.1826 18.4135 22.4521 18.4286 22.7713C18.4436 23.0905 18.3262 23.3751 18.0763 23.6251C17.8263 23.875 17.5493 24 17.2451 24C16.941 24 16.6639 23.875 16.414 23.6251L6.10624 13.3173C5.9015 13.1126 5.75772 12.9033 5.67488 12.6895C5.59209 12.4757 5.55069 12.2423 5.55069 11.9893Z" />
</svg>
