<svg width="16" height="16" viewBox="0 0 16 16" fill="currentColor" xmlns="http://www.w3.org/2000/svg">
<g clip-path="url(#clip0_5219_4627)">
<path fill-rule="evenodd" clip-rule="evenodd" d="M5.81814 0.727234C5.43237 0.727234 5.0624 0.88048 4.78962 1.15326C4.51684 1.42604 4.3636 1.79601 4.3636 2.18178V3.63632H5.81814V2.18178H13.8181V10.1818H12.3636V11.6363H13.8181C14.2039 11.6363 14.5739 11.4831 14.8467 11.2103C15.1194 10.9375 15.2727 10.5675 15.2727 10.1818V2.18178C15.2727 1.79601 15.1194 1.42604 14.8467 1.15326C14.5739 0.88048 14.2039 0.727234 13.8181 0.727234H5.81814ZM2.18178 4.3636C1.79601 4.3636 1.42604 4.51684 1.15326 4.78962C0.88048 5.0624 0.727234 5.43237 0.727234 5.81814V13.8181C0.727234 14.2039 0.88048 14.5739 1.15326 14.8467C1.42604 15.1194 1.79601 15.2727 2.18178 15.2727H10.1818C10.5675 15.2727 10.9375 15.1194 11.2103 14.8467C11.4831 14.5739 11.6363 14.2039 11.6363 13.8181V5.81814C11.6363 5.43237 11.4831 5.0624 11.2103 4.78962C10.9375 4.51684 10.5675 4.3636 10.1818 4.3636H2.18178Z" />
</g>
</svg>
