<svg width="16" height="16" viewBox="0 0 16 16" fill="currentColor" xmlns="http://www.w3.org/2000/svg">
<path d="M11.898 12.5098H15.4372V14H10.4078L11.898 12.5098ZM2.58427 14L1.00093 12.4166C0.715311 12.131 0.569396 11.7771 0.563186 11.3549C0.556977 10.9327 0.696683 10.5725 0.982304 10.2745L9.17838 1.78037C9.464 1.48233 9.81482 1.33331 10.2308 1.33331C10.6468 1.33331 10.9977 1.47612 11.2833 1.76174L14.9901 5.46861C15.2758 5.75423 15.4186 6.10815 15.4186 6.53037C15.4186 6.95259 15.2758 7.30652 14.9901 7.59214L8.73133 14H2.58427ZM8.09799 12.5098L13.947 6.51174L10.2588 2.82351L2.02544 11.3176L3.2176 12.5098H8.09799Z" />
</svg>
