<svg width="128" height="64" viewBox="0 0 128 64" fill="none" xmlns="http://www.w3.org/2000/svg">
<path opacity="0.3" d="M124.661 43.2384C124.702 43.0209 124.734 42.8035 124.758 42.5896C126.02 41.7305 127.073 39.8055 127.258 37.9268C127.542 35.0322 126.632 32.43 124.889 31.029C124.52 30.7331 124.146 30.4622 123.768 30.202C124.183 29.4676 124.477 28.5622 124.583 27.4856C124.71 26.1916 124.561 24.78 124.176 23.5359C124.006 22.3987 123.627 21.3186 123.093 20.4559C123.401 20.2349 123.707 20.0103 124.013 19.7679C125.307 18.7448 125.955 16.0855 125.843 14.0607C125.719 11.8149 124.78 9.85426 123.414 8.85969C118.868 5.56227 114.053 3.96882 109.017 3.58026C108.604 3.54818 108.202 3.65512 107.821 3.86544C107.231 2.92434 106.457 2.25416 105.551 2.07593C92.2664 -0.50497 78.8286 -0.483585 65.5023 1.34871C59.1404 0.777872 52.765 0.597103 46.3928 0.806867C45.8297 0.75696 45.2667 0.714183 44.7012 0.667841C40.6021 0.347012 36.5031 0.122427 32.3991 0.0404376C28.5355 -0.0379874 24.6718 -0.00233859 20.8082 0.147382C16.794 0.300667 12.8357 0.667837 8.96236 2.36823C8.34107 2.63916 7.77559 3.21309 7.31448 3.95456C5.82192 5.12024 4.76378 7.59419 4.97735 10.1002C5.08171 11.3265 5.39478 12.4316 5.85832 13.3442C5.21276 13.4226 4.5672 13.5082 3.92407 13.6008C0.252136 14.1356 -1.42972 21.1617 1.47773 24.7443C1.81445 25.1582 2.17225 25.5336 2.548 25.8672C2.74701 27.5106 3.29307 28.8616 4.07454 29.7992C4.07696 29.9631 4.08425 30.1271 4.09881 30.2875C4.21773 31.6778 4.57206 32.8506 5.09627 33.7703C5.21519 34.4013 5.39478 35.018 5.62534 35.5955C5.07686 36.7612 4.7832 38.1764 4.90697 39.6094C4.9725 40.3758 5.12054 41.0888 5.32926 41.7376L5.24917 41.8659C4.77106 42.693 4.40217 43.8515 4.26869 45.01C3.21298 46.3183 2.548 48.3324 2.72274 50.3643C2.94359 52.9345 3.91193 54.6563 5.28557 55.5226C5.27101 56.0502 5.29771 56.567 5.37051 57.0625C5.83891 60.2138 7.72705 62.1317 9.89429 62.0354C11.6247 61.957 13.3551 61.8821 15.0855 61.8037C15.9446 63.2581 17.2454 64.0887 18.6628 63.9925C25.9241 63.5077 33.1782 62.8018 40.4201 61.8821C40.7987 61.9998 41.1967 62.0532 41.6093 62.0211C61.9445 60.5275 82.3185 60.4206 102.661 61.6682C108.435 62.0247 114.228 62.3741 119.972 61.2191C122.011 60.8091 123.613 58.6952 123.863 55.6972C123.933 55.7008 124.001 55.7079 124.071 55.7115C126.204 55.8684 127.891 52.521 127.993 49.7334C128.112 46.4431 126.675 44.2115 124.659 43.2348L124.661 43.2384Z" fill="#F7B6B6"/>
<path d="M67.5379 9.93768L89.8444 48.5724C90.1846 49.1615 90.3636 49.8298 90.3636 50.5101C90.3636 51.1903 90.1846 51.8586 89.8445 52.4477C89.5043 53.0368 89.0151 53.5261 88.426 53.8662C87.8369 54.2063 87.1686 54.3854 86.4884 54.3854H41.8753C41.195 54.3854 40.5267 54.2063 39.9376 53.8662C39.3485 53.5261 38.8593 53.0368 38.5192 52.4477C38.1791 51.8586 38 51.1903 38 50.5101C38 49.8298 38.1791 49.1615 38.5192 48.5724L60.8258 9.93768C62.3165 7.35411 66.0446 7.35411 67.5379 9.93768ZM64.1818 40.5582C63.4966 40.5582 62.8395 40.8304 62.355 41.3149C61.8704 41.7994 61.5982 42.4565 61.5982 43.1417C61.5982 43.827 61.8704 44.4841 62.355 44.9686C62.8395 45.4531 63.4966 45.7253 64.1818 45.7253C64.867 45.7253 65.5242 45.4531 66.0087 44.9686C66.4932 44.4841 66.7654 43.827 66.7654 43.1417C66.7654 42.4565 66.4932 41.7994 66.0087 41.3149C65.5242 40.8304 64.867 40.5582 64.1818 40.5582ZM64.1818 22.4732C63.549 22.4733 62.9382 22.7056 62.4654 23.1261C61.9925 23.5466 61.6904 24.126 61.6163 24.7545L61.5982 25.0567V35.391C61.599 36.0495 61.8511 36.6829 62.3032 37.1617C62.7552 37.6406 63.373 37.9287 64.0304 37.9673C64.6878 38.0059 65.3351 37.792 65.84 37.3694C66.345 36.9467 66.6695 36.3472 66.7473 35.6933L66.7654 35.391V25.0567C66.7654 24.3715 66.4932 23.7144 66.0087 23.2299C65.5242 22.7454 64.867 22.4732 64.1818 22.4732Z" fill="#E73737"/>
</svg>
