<svg width="56" height="56" viewBox="0 0 56 56" fill="none" xmlns="http://www.w3.org/2000/svg">
<path d="M4.97647 42.2536C5.84424 42.255 6.6954 42.4729 7.43963 42.8842C8.18385 43.2954 8.79336 43.8847 9.20347 44.5895C9.61357 45.2943 9.80897 46.0882 9.76892 46.8871C9.72888 47.6859 9.45487 48.4599 8.976 49.1268C9.45487 49.7937 9.72888 50.5677 9.76892 51.3665C9.80897 52.1654 9.61357 52.9593 9.20347 53.6641C8.79336 54.3689 8.18385 54.9582 7.43963 55.3694C6.6954 55.7807 5.84424 55.9986 4.97647 56C2.84557 56 1.1638 55.1601 0.298326 53.2779C0.179001 53.0392 0.112895 52.7808 0.103925 52.5181C0.0949549 52.2554 0.143304 51.9937 0.246107 51.7485C0.34891 51.5033 0.504074 51.2797 0.702403 51.0908C0.900733 50.9019 1.13819 50.7516 1.40071 50.6488C1.66322 50.5461 1.94544 50.4929 2.23066 50.4926C2.51587 50.4922 2.79826 50.5446 3.0611 50.6466C3.32394 50.7487 3.56187 50.8983 3.7608 51.0867C3.95973 51.275 4.1156 51.4983 4.21918 51.7432C4.26427 51.8409 4.33961 51.9243 4.43581 51.9829C4.53201 52.0415 4.6448 52.0726 4.7601 52.0725C5.11743 52.0725 5.51411 51.9818 5.51411 51.5679C5.51411 51.2658 5.27479 51.1359 5.00269 51.1027L4.8355 51.0906C4.29717 51.0912 3.77852 50.9041 3.38378 50.5668C2.98904 50.2295 2.74747 49.767 2.70761 49.2722C2.66775 48.7775 2.83256 48.2871 3.16892 47.8998C3.50527 47.5125 3.98825 47.2568 4.52078 47.1842L4.8355 47.163C5.16989 47.163 5.51411 47.0513 5.51411 46.6857C5.51411 46.2718 5.12071 46.1812 4.7601 46.1812C4.64499 46.1818 4.53265 46.2137 4.43705 46.2728C4.34145 46.3319 4.26683 46.4156 4.22246 46.5135C4.00118 46.993 3.58225 47.372 3.05782 47.5669C2.5334 47.7618 1.94644 47.7567 1.42606 47.5528C0.905692 47.3489 0.494534 46.9628 0.283042 46.4795C0.0715505 45.9962 0.0770481 45.4553 0.298326 44.9757C1.1638 43.0965 2.84557 42.2566 4.97647 42.2566V42.2536ZM52.7217 46.1207C53.5912 46.1207 54.425 46.439 55.0398 47.0056C55.6546 47.5722 56 48.3406 56 49.1419C56 49.9432 55.6546 50.7116 55.0398 51.2782C54.425 51.8448 53.5912 52.1631 52.7217 52.1631H16.6603C15.7909 52.1631 14.957 51.8448 14.3422 51.2782C13.7274 50.7116 13.382 49.9432 13.382 49.1419C13.382 48.3406 13.7274 47.5722 14.3422 47.0056C14.957 46.439 15.7909 46.1207 16.6603 46.1207H52.7217ZM7.0877 21.7851C7.79002 22.1148 8.39962 22.5904 8.86842 23.1743C9.33721 23.7583 9.65238 24.4346 9.78907 25.15C9.92576 25.8654 9.88022 26.6002 9.65606 27.2966C9.4319 27.993 9.03524 28.6319 8.49737 29.1628L6.68119 30.9544H8.22199C8.78714 30.9544 9.32914 31.1613 9.72876 31.5296C10.1284 31.8978 10.3529 32.3973 10.3529 32.9182C10.3529 33.439 10.1284 33.9385 9.72876 34.3068C9.32914 34.675 8.78714 34.8819 8.22199 34.8819H2.14729C1.57836 34.8819 1.03269 34.6739 0.630084 34.3034C0.227484 33.9329 0.000869186 33.4304 5.91996e-07 32.9061C5.91996e-07 32.2807 0.0950708 31.7006 0.58026 31.2233L5.3797 26.483C5.74031 26.1296 5.64852 25.5132 5.183 25.2987C4.73715 25.0933 4.3667 25.329 4.28147 25.7277L4.2618 25.906C4.2618 26.1639 4.20668 26.4192 4.09959 26.6575C3.9925 26.8958 3.83554 27.1122 3.63767 27.2946C3.4398 27.4769 3.20489 27.6216 2.94636 27.7203C2.68783 27.819 2.41073 27.8698 2.1309 27.8698C0.852359 27.8698 5.91996e-07 26.8818 5.91996e-07 25.764C-0.000411082 24.9954 0.213893 24.2396 0.622281 23.5694C1.03067 22.8993 1.61939 22.3372 2.33177 21.9375C3.04414 21.5378 3.85618 21.3138 4.68972 21.2871C5.52325 21.2604 6.34693 21.4319 7.0877 21.7851ZM52.7217 24.9725C53.5573 24.9733 54.361 25.2682 54.9685 25.7968C55.5761 26.3254 55.9418 27.0479 55.9907 27.8166C56.0397 28.5853 55.7683 29.3422 55.232 29.9327C54.6957 30.5232 53.935 30.9027 53.1053 30.9937L52.7217 31.0148H16.6603C15.8248 31.014 15.0211 30.7191 14.4135 30.1905C13.8059 29.6619 13.4403 28.9394 13.3913 28.1707C13.3423 27.402 13.6137 26.645 14.15 26.0545C14.6863 25.464 15.4471 25.0845 16.2768 24.9936L16.6603 24.9725H52.7217ZM7.31718 1.98126V11.7699C7.31718 12.2907 7.09267 12.7902 6.69305 13.1585C6.29343 13.5268 5.75143 13.7337 5.18628 13.7337C4.62113 13.7337 4.07913 13.5268 3.67951 13.1585C3.27989 12.7902 3.05538 12.2907 3.05538 11.7699V5.40123C2.5759 5.46939 2.08554 5.38473 1.66535 5.16124C1.24516 4.93775 0.920307 4.58881 0.744485 4.17211C0.568663 3.7554 0.552402 3.29588 0.698388 2.8695C0.844373 2.44313 1.14387 2.07542 1.54736 1.82718L3.97986 0.331691C4.30324 0.133277 4.67896 0.0194271 5.067 0.00227315C5.45505 -0.0148808 5.84087 0.0653037 6.18337 0.234282C6.52586 0.403261 6.8122 0.654703 7.01187 0.961818C7.21153 1.26893 7.31705 1.62021 7.31718 1.97823V1.98126ZM52.7217 3.82418C53.5573 3.82503 54.361 4.11989 54.9685 4.6485C55.5761 5.17711 55.9418 5.89959 55.9907 6.6683C56.0397 7.43702 55.7683 8.19395 55.232 8.78445C54.6957 9.37495 53.935 9.75445 53.1053 9.84539L52.7217 9.86654H16.6603C15.8248 9.86569 15.0211 9.57083 14.4135 9.04222C13.8059 8.5136 13.4403 7.79113 13.3913 7.02242C13.3423 6.2537 13.6137 5.49677 14.15 4.90627C14.6863 4.31577 15.4471 3.93627 16.2768 3.84533L16.6603 3.82418H52.7217Z" fill="#002A52"/>
</svg>
