<svg width="14" height="15" viewBox="0 0 14 15" fill="currentColor" xmlns="http://www.w3.org/2000/svg">
<path fill-rule="evenodd" clip-rule="evenodd" d="M11.0526 8.60526C11.2481 8.60526 11.4355 8.68289 11.5737 8.82108C11.7118 8.95926 11.7895 9.14668 11.7895 9.3421V10.8158H13.2632C13.4586 10.8158 13.646 10.8934 13.7842 11.0316C13.9224 11.1698 14 11.3572 14 11.5526C14 11.7481 13.9224 11.9355 13.7842 12.0737C13.646 12.2118 13.4586 12.2895 13.2632 12.2895H11.7895V13.7632C11.7895 13.9586 11.7118 14.146 11.5737 14.2842C11.4355 14.4224 11.2481 14.5 11.0526 14.5C10.8572 14.5 10.6698 14.4224 10.5316 14.2842C10.3934 14.146 10.3158 13.9586 10.3158 13.7632V12.2895H8.8421C8.64668 12.2895 8.45926 12.2118 8.32108 12.0737C8.18289 11.9355 8.10526 11.7481 8.10526 11.5526C8.10526 11.3572 8.18289 11.1698 8.32108 11.0316C8.45926 10.8934 8.64668 10.8158 8.8421 10.8158H10.3158V9.3421C10.3158 9.14668 10.3934 8.95926 10.5316 8.82108C10.6698 8.68289 10.8572 8.60526 11.0526 8.60526ZM9.57895 0.5C9.77437 0.5 9.96179 0.577631 10.1 0.715816C10.2382 0.854001 10.3158 1.04142 10.3158 1.23684V1.97368H11.7895C12.1803 1.97368 12.5552 2.12895 12.8315 2.40532C13.1079 2.68169 13.2632 3.05652 13.2632 3.44737V6.39474C13.2632 6.59016 13.1855 6.77758 13.0473 6.91576C12.9092 7.05395 12.7217 7.13158 12.5263 7.13158H1.47368V12.2895H5.89474C6.09016 12.2895 6.27758 12.3671 6.41576 12.5053C6.55395 12.6435 6.63158 12.8309 6.63158 13.0263C6.63158 13.2217 6.55395 13.4092 6.41576 13.5473C6.27758 13.6855 6.09016 13.7632 5.89474 13.7632H1.47368C1.08284 13.7632 0.708001 13.6079 0.431632 13.3315C0.155263 13.0552 0 12.6803 0 12.2895V3.44737C0 3.05652 0.155263 2.68169 0.431632 2.40532C0.708001 2.12895 1.08284 1.97368 1.47368 1.97368H2.94737V1.23684C2.94737 1.04142 3.025 0.854001 3.16318 0.715816C3.30137 0.577631 3.48879 0.5 3.68421 0.5C3.87963 0.5 4.06705 0.577631 4.20524 0.715816C4.34342 0.854001 4.42105 1.04142 4.42105 1.23684V1.97368H8.8421V1.23684C8.8421 1.04142 8.91974 0.854001 9.05792 0.715816C9.19611 0.577631 9.38352 0.5 9.57895 0.5ZM11.7895 3.44737H1.47368V5.65789H11.7895V3.44737Z" />
</svg>
