<svg width="24" height="24" viewBox="0 0 24 24" fill="currentColor" xmlns="http://www.w3.org/2000/svg">
<path d="M11.9893 18.9005C11.7364 18.9005 11.503 18.8591 11.2892 18.7763C11.0754 18.6934 10.8661 18.5496 10.6614 18.3449L0.35361 8.03713C0.133799 7.81732 0.0163573 7.54782 0.00128565 7.22861C-0.013786 6.90941 0.103655 6.62483 0.35361 6.37487C0.603564 6.12496 0.880607 6 1.18474 6C1.48887 6 1.76592 6.12496 2.01587 6.37487L11.9893 16.3483L21.9628 6.37487C22.1826 6.15506 22.4521 6.03762 22.7713 6.02255C23.0905 6.00751 23.3751 6.12496 23.6251 6.37487C23.875 6.62483 24 6.90187 24 7.206C24 7.51018 23.875 7.78722 23.6251 8.03713L13.3173 18.3449C13.1126 18.5496 12.9033 18.6934 12.6895 18.7763C12.4757 18.8591 12.2423 18.9005 11.9893 18.9005Z" />
</svg>
