<svg width="64" height="40" viewBox="0 0 64 40" fill="currentColor" xmlns="http://www.w3.org/2000/svg">
<path d="M1.79717 39.3995C1.28797 39.3995 0.861144 39.2271 0.516686 38.8821C0.172229 38.5372 0 38.1098 0 37.5999C0 37.09 0.172229 36.6634 0.516686 36.3201C0.861144 35.9768 1.28797 35.8052 1.79717 35.8052H32.5564C33.0656 35.8052 33.4924 35.9776 33.8369 36.3225C34.1814 36.6674 34.3536 37.0949 34.3536 37.6048C34.3536 38.1146 34.1814 38.5412 33.8369 38.8846C33.4924 39.2279 33.0656 39.3995 32.5564 39.3995H1.79717ZM1.79717 22.1881C1.28797 22.1881 0.861144 22.0157 0.516686 21.6707C0.172229 21.3258 0 20.8984 0 20.3885C0 19.8787 0.172229 19.4521 0.516686 19.1088C0.861144 18.7654 1.28797 18.5938 1.79717 18.5938H14.2391C14.7483 18.5938 15.1751 18.7663 15.5195 19.1112C15.864 19.4561 16.0362 19.8835 16.0362 20.3934C16.0362 20.9033 15.864 21.3299 15.5195 21.6731C15.1751 22.0165 14.7483 22.1881 14.2391 22.1881H1.79717ZM1.79717 4.97681C1.28797 4.97681 0.861144 4.80435 0.516686 4.45941C0.172229 4.11447 0 3.68707 0 3.17721C0 2.6673 0.172229 2.24068 0.516686 1.89736C0.861144 1.5541 1.28797 1.38247 1.79717 1.38247H14.2391C14.7483 1.38247 15.1751 1.55491 15.5195 1.89979C15.864 2.24473 16.0362 2.67215 16.0362 3.18207C16.0362 3.69192 15.864 4.11851 15.5195 4.46183C15.1751 4.80515 14.7483 4.97681 14.2391 4.97681H1.79717ZM39.2612 28.8238C35.2261 28.8238 31.7865 27.4287 28.9425 24.6385C26.0985 21.8483 24.6765 18.4394 24.6765 14.412C24.6765 10.3844 26.1001 6.97557 28.9473 4.18534C31.7945 1.39512 35.238 0 39.2776 0C43.3173 0 46.7553 1.39512 49.5916 4.18534C52.4278 6.97557 53.846 10.3729 53.846 14.3774C53.846 15.9764 53.5799 17.5373 53.0476 19.0603C52.5154 20.5834 51.7401 21.9716 50.7217 23.225L63.4263 35.7222C63.8088 36.0432 64 36.4518 64 36.948C64 37.4441 63.8088 37.8834 63.4263 38.2659C63.1052 38.6023 62.6966 38.7705 62.2005 38.7705C61.7044 38.7705 61.265 38.6023 60.8825 38.2659L48.178 25.7686C46.8785 26.741 45.4673 27.4933 43.9443 28.0255C42.4213 28.5577 40.8602 28.8238 39.2612 28.8238ZM39.2612 25.2295C42.3141 25.2295 44.9091 24.1811 47.0461 22.0844C49.1831 19.9877 50.2517 17.4302 50.2517 14.412C50.2517 11.3936 49.1831 8.83608 47.0461 6.73939C44.9091 4.64269 42.3141 3.59434 39.2612 3.59434C36.2084 3.59434 33.6134 4.64269 31.4763 6.73939C29.3393 8.83608 28.2708 11.3936 28.2708 14.412C28.2708 17.4302 29.3393 19.9877 31.4763 22.0844C33.6134 24.1811 36.2084 25.2295 39.2612 25.2295Z" />
</svg>
