<svg width="24" height="24" viewBox="0 0 24 24" fill="currentColor" xmlns="http://www.w3.org/2000/svg">
<path fill-rule="evenodd" clip-rule="evenodd" d="M10.6762 2.51113C8.5109 2.51113 6.43433 3.37128 4.90325 4.90235C3.37218 6.43342 2.51204 8.50999 2.51204 10.6753C2.51204 12.8405 3.37218 14.9171 4.90325 16.4482C6.43433 17.9792 8.5109 18.8394 10.6762 18.8394C12.8414 18.8394 14.918 17.9792 16.4491 16.4482C17.9801 14.9171 18.8403 12.8405 18.8403 10.6753C18.8403 8.50999 17.9801 6.43342 16.4491 4.90235C14.918 3.37128 12.8414 2.51113 10.6762 2.51113ZM2.40763e-08 10.6753C0.00014506 8.97284 0.407408 7.29514 1.18781 5.78213C1.96821 4.26912 3.09912 2.96467 4.48619 1.97762C5.87326 0.990567 7.47626 0.349534 9.16146 0.107999C10.8467 -0.133535 12.5652 0.0314335 14.1737 0.589142C15.7821 1.14685 17.2339 2.08113 18.4079 3.31402C19.5818 4.54692 20.4439 6.04269 20.9223 7.67653C21.4006 9.31037 21.4813 11.0349 21.1575 12.7063C20.8338 14.3776 20.1151 15.9473 19.0613 17.2844L23.6483 21.8714C23.8771 22.1083 24.0037 22.4256 24.0009 22.7549C23.998 23.0842 23.8659 23.3992 23.633 23.6321C23.4002 23.865 23.0851 23.9971 22.7558 24C22.4265 24.0028 22.1092 23.8762 21.8723 23.6474L17.2853 19.0604C15.7111 20.3014 13.8192 21.074 11.8263 21.29C9.83344 21.506 7.82 21.1565 6.01645 20.2816C4.2129 19.4067 2.6921 18.0417 1.62809 16.3428C0.564086 14.6439 -0.000134574 12.6798 2.40763e-08 10.6753ZM9.42014 6.27919C9.42014 5.94607 9.55247 5.6266 9.78802 5.39105C10.0236 5.1555 10.343 5.02317 10.6762 5.02317C12.1752 5.02317 13.6128 5.61865 14.6728 6.67863C15.7328 7.7386 16.3283 9.17623 16.3283 10.6753C16.3283 11.0084 16.1959 11.3278 15.9604 11.5634C15.7248 11.7989 15.4053 11.9313 15.0722 11.9313C14.7391 11.9313 14.4196 11.7989 14.1841 11.5634C13.9485 11.3278 13.8162 11.0084 13.8162 10.6753C13.8162 9.84246 13.4854 9.04378 12.8965 8.45491C12.3076 7.86603 11.509 7.53521 10.6762 7.53521C10.343 7.53521 10.0236 7.40288 9.78802 7.16733C9.55247 6.93178 9.42014 6.61231 9.42014 6.27919Z" />
</svg>
