<svg width="25" height="23" viewBox="0 0 25 23" fill="currentColor" xmlns="http://www.w3.org/2000/svg">
<path d="M10.8193 0.723918C10.9477 0.503652 11.1316 0.320891 11.3526 0.193869C11.5736 0.0668455 11.8241 0 12.079 0C12.334 0 12.5845 0.0668455 12.8055 0.193869C13.0265 0.320891 13.2104 0.503652 13.3388 0.723918L16.5989 6.32037L22.9302 7.69208C23.1792 7.74619 23.4098 7.86465 23.5987 8.03562C23.7877 8.2066 23.9286 8.42413 24.0073 8.66652C24.086 8.90892 24.0998 9.16772 24.0474 9.41711C23.9949 9.6665 23.8779 9.89778 23.7082 10.0879L19.3925 14.918L20.0457 21.3625C20.0714 21.6162 20.0302 21.8723 19.926 22.1051C19.8219 22.338 19.6585 22.5394 19.4521 22.6893C19.2458 22.8392 19.0037 22.9324 18.7501 22.9595C18.4964 22.9866 18.2401 22.9467 18.0068 22.8438L12.079 20.231L6.15133 22.8438C5.91796 22.9467 5.66166 22.9866 5.40804 22.9595C5.15442 22.9324 4.91235 22.8392 4.706 22.6893C4.49964 22.5394 4.33623 22.338 4.23208 22.1051C4.12792 21.8723 4.08667 21.6162 4.11244 21.3625L4.76563 14.918L0.449901 10.0891C0.27987 9.89896 0.162677 9.66759 0.110024 9.41804C0.0573697 9.16849 0.0710964 8.9095 0.149833 8.66691C0.22857 8.42433 0.369562 8.20664 0.558734 8.03558C0.747906 7.86452 0.978639 7.74608 1.2279 7.69208L7.5592 6.32037L10.8193 0.723918Z" />
</svg>
