<svg width="16" height="16" viewBox="0 0 16 16" fill="currentColor" xmlns="http://www.w3.org/2000/svg">
<g clip-path="url(#clip0_4862_852)">
<path fill-rule="evenodd" clip-rule="evenodd" d="M14.4261 0.976854C13.9524 0.503243 13.3099 0.237183 12.64 0.237183C11.9701 0.237183 11.3277 0.503243 10.8539 0.976854L10.2586 1.57306L14.427 5.74149L15.0215 5.14612C15.2561 4.91152 15.4423 4.633 15.5693 4.32647C15.6962 4.01993 15.7616 3.69139 15.7616 3.35959C15.7616 3.02779 15.6962 2.69925 15.5693 2.39271C15.4423 2.08618 15.2561 1.80766 15.0215 1.57306L14.4261 0.976854ZM13.2354 6.93222L9.06698 2.7638L1.41225 10.4194C1.24474 10.5869 1.12772 10.7982 1.07456 11.0291L0.208034 14.7806C0.175747 14.9199 0.179451 15.0651 0.218796 15.2026C0.258141 15.34 0.331832 15.4652 0.432926 15.5663C0.53402 15.6674 0.659188 15.7411 0.796636 15.7804C0.934084 15.8198 1.07929 15.8235 1.21856 15.7912L4.97098 14.9255C5.20156 14.8722 5.41252 14.7552 5.57982 14.5878L13.2354 6.93222Z"/>
</g>
<defs>
<clipPath id="clip0_4862_852">
<rect width="16" height="16" fill="white"/>
</clipPath>
</defs>
</svg>
