<svg width="14" height="15" viewBox="0 0 14 15" fill="currentColor" xmlns="http://www.w3.org/2000/svg">
<g clip-path="url(#clip0_4906_10684)">
<path d="M9.10544 2.55022L13.5053 6.95011C13.6511 7.09597 13.7331 7.29376 13.7331 7.5C13.7331 7.70624 13.6511 7.90403 13.5053 8.04989L9.10544 12.4498C8.95875 12.5915 8.76229 12.6699 8.55836 12.6681C8.35442 12.6663 8.15935 12.5845 8.01514 12.4403C7.87093 12.2961 7.78914 12.101 7.78736 11.8971C7.78559 11.6932 7.86399 11.4967 8.00567 11.35L11.0779 8.27778H0.777778C0.571498 8.27778 0.373667 8.19583 0.227806 8.04997C0.0819442 7.90411 0 7.70628 0 7.5C0 7.29372 0.0819442 7.09589 0.227806 6.95003C0.373667 6.80417 0.571498 6.72222 0.777778 6.72222H11.0779L8.00567 3.65C7.93138 3.57825 7.87213 3.49243 7.83137 3.39754C7.7906 3.30264 7.76915 3.20058 7.76825 3.09731C7.76735 2.99404 7.78703 2.89162 7.82614 2.79603C7.86525 2.70045 7.923 2.61361 7.99603 2.54058C8.06905 2.46755 8.15589 2.4098 8.25148 2.37069C8.34707 2.33159 8.44948 2.31191 8.55276 2.3128C8.65603 2.3137 8.75809 2.33516 8.85298 2.37592C8.94787 2.41668 9.0337 2.47594 9.10544 2.55022Z" />
</g>
<defs>
</defs>
</svg>
