<svg width="16" height="16" viewBox="0 0 16 16" fill="currentColor" xmlns="http://www.w3.org/2000/svg">
<path d="M0.419129 12.7809C0.200582 12.5623 0.0913086 12.302 0.0913086 12C0.0913086 11.698 0.200582 11.4377 0.419129 11.2191L4.49825 7.14001C4.91043 6.72784 5.41102 6.52175 6.00001 6.52175C6.589 6.52175 7.08958 6.72784 7.50177 7.14001L9.17741 8.81565L14.1165 3.23913C14.3159 3.01304 14.5662 2.89623 14.8674 2.88869C15.1686 2.88116 15.4293 2.98377 15.6496 3.19653C15.849 3.38841 15.9558 3.62537 15.97 3.90741C15.9842 4.18944 15.8954 4.43683 15.7035 4.64959L10.7157 10.2861C10.311 10.7533 9.80291 10.9951 9.19131 11.0113C8.57971 11.0276 8.05825 10.82 7.62695 10.3887L6.00001 8.76177L1.98089 12.7809C1.76233 12.9994 1.50204 13.1087 1.20001 13.1087C0.897982 13.1087 0.637689 12.9994 0.419129 12.7809Z"/>
</svg>
