<svg width="16" height="16" viewBox="0 0 16 16" fill="currentColor" xmlns="http://www.w3.org/2000/svg">
<path fill-rule="evenodd" clip-rule="evenodd" d="M7.16047 0.504302C7.24605 0.350858 7.36862 0.223542 7.51598 0.135054C7.66334 0.0465665 7.83033 0 8.00029 0C8.17025 0 8.33724 0.0465665 8.4846 0.135054C8.63196 0.223542 8.75454 0.350858 8.84011 0.504302L11.0135 4.40295L15.2344 5.35852C15.4004 5.39622 15.5541 5.47874 15.6801 5.59784C15.8061 5.71695 15.9 5.86849 15.9525 6.03735C16.005 6.20621 16.0142 6.38649 15.9792 6.56023C15.9442 6.73396 15.8662 6.89508 15.7531 7.02751L12.8759 10.3923L13.3114 14.8817C13.3285 15.0585 13.301 15.2369 13.2316 15.3991C13.1622 15.5613 13.0532 15.7016 12.9157 15.806C12.7781 15.9105 12.6167 15.9754 12.4476 15.9942C12.2786 16.0131 12.1077 15.9853 11.9521 15.9136L8.00029 14.0935L4.04848 15.9136C3.8929 15.9853 3.72203 16.0131 3.55295 15.9942C3.38387 15.9754 3.22249 15.9105 3.08492 15.806C2.94735 15.7016 2.83841 15.5613 2.76898 15.3991C2.69954 15.2369 2.67204 15.0585 2.68922 14.8817L3.12468 10.3923L0.247525 7.02832C0.134171 6.8959 0.0560428 6.73472 0.0209402 6.56088C-0.0141624 6.38703 -0.00501128 6.20661 0.0474799 6.03762C0.0999711 5.86863 0.193966 5.71698 0.320081 5.59782C0.446195 5.47865 0.600017 5.39614 0.76619 5.35852L4.98705 4.40295L7.16047 0.504302ZM8.00029 2.22611L6.20168 5.45359C6.13367 5.57541 6.04213 5.68109 5.93288 5.76391C5.82364 5.84673 5.69908 5.90487 5.56715 5.93462L2.07413 6.72524L4.45517 9.50987C4.63713 9.72276 4.725 10.0055 4.69778 10.2891L4.33775 14.0049L7.60838 12.4985C7.73187 12.4416 7.86534 12.4122 8.00029 12.4122C8.13524 12.4122 8.26871 12.4416 8.39221 12.4985L11.6628 14.0049L11.3028 10.2891C11.2891 10.1488 11.3036 10.007 11.3452 9.87289C11.3868 9.73873 11.4548 9.6151 11.5446 9.50987L13.9265 6.72524L10.4334 5.93462C10.3015 5.90487 10.1769 5.84673 10.0677 5.76391C9.95845 5.68109 9.86691 5.57541 9.7989 5.45359L8.00029 2.22611Z"/>
</svg>
