<svg width="24" height="23" viewBox="0 0 24 23" fill="currentColor" xmlns="http://www.w3.org/2000/svg">
<path d="M12.4 23C17.0308 23 20.8 19.3878 20.8 14.95C20.8 10.5121 17.0308 6.9 12.4 6.9C7.768 6.9 4 10.5121 4 14.95C4 19.3878 7.768 23 12.4 23ZM12.4 9.2C15.7084 9.2 18.4 11.7794 18.4 14.95C18.4 18.1206 15.7084 20.7 12.4 20.7C9.0916 20.7 6.4 18.1206 6.4 14.95C6.4 11.7794 9.0916 9.2 12.4 9.2ZM11.2 0H6.4V6.3457C7.83602 5.42481 9.48253 4.84926 11.2 4.66785V0ZM18.4 0H13.6V4.66785C15.3175 4.84926 16.964 5.42481 18.4 6.3457V0Z" />
<path d="M10.0228 15.8824L9.46121 19.0173L12.4 17.5373L15.3388 19.0173L14.7772 15.8824L17.1556 13.6606L13.87 13.2029L12.4 10.3498L10.93 13.2029L7.64441 13.6606L10.0228 15.8824Z" />
</svg>
