<svg width="25" height="24" viewBox="0 0 25 24" fill="currentColor" xmlns="http://www.w3.org/2000/svg">
<path d="M12.5 23C9.28946 23 6.57022 21.8862 4.34228 19.6585C2.11409 17.4308 1 14.7121 1 11.5023C1 8.29252 2.11409 5.57303 4.34228 3.34382C6.57022 1.1146 9.28946 0 12.5 0C14.2927 0 15.9892 0.398539 17.5895 1.19562C19.1896 1.99295 20.5204 3.1179 21.5819 4.57048V1.15C21.5819 0.824167 21.6922 0.551106 21.9128 0.330817C22.1333 0.110272 22.4065 0 22.7323 0C23.0584 0 23.3315 0.110272 23.5515 0.330817C23.7718 0.551106 23.8819 0.824167 23.8819 1.15V7.99097C23.8819 8.38376 23.7492 8.71291 23.4837 8.97843C23.2179 9.24395 22.8887 9.37672 22.4962 9.37672H15.6552C15.3294 9.37672 15.0562 9.26657 14.8357 9.04628C14.6154 8.82574 14.5052 8.55242 14.5052 8.22633C14.5052 7.9005 14.6154 7.62744 14.8357 7.40715C15.0562 7.18712 15.3294 7.0771 15.6552 7.0771H20.5619C19.7538 5.59667 18.6332 4.43044 17.2001 3.57842C15.7672 2.72614 14.2005 2.3 12.5 2.3C9.94444 2.3 7.77222 3.19444 5.98333 4.98333C4.19445 6.77222 3.3 8.94444 3.3 11.5C3.3 14.0556 4.19445 16.2278 5.98333 18.0167C7.77222 19.8056 9.94444 20.7 12.5 20.7C14.282 20.7 15.9133 20.2321 17.394 19.2962C18.8747 18.3606 19.9965 17.1124 20.7593 15.5515C20.9047 15.2724 21.1185 15.0773 21.4006 14.9661C21.6828 14.8552 21.9703 14.8488 22.2631 14.9469C22.5757 15.0453 22.7944 15.2498 22.9194 15.5603C23.0441 15.871 23.0337 16.1659 22.8883 16.445C21.9387 18.4304 20.537 20.0192 18.6832 21.2114C16.8294 22.4038 14.7683 23 12.5 23Z" />
</svg>
