<svg width="64" height="64" viewBox="0 0 64 64" fill="currentColor" xmlns="http://www.w3.org/2000/svg">
<path d="M35.7647 39.5294H39.5294V28.2353H50.8235V24.4706H39.5294V13.1765H35.7647V24.4706H24.4706V28.2353H35.7647V39.5294ZM17.3755 52.7059C15.6428 52.7059 14.1961 52.1255 13.0353 50.9647C11.8745 49.8039 11.2941 48.3572 11.2941 46.6245V6.08141C11.2941 4.34871 11.8745 2.90196 13.0353 1.74118C14.1961 0.580392 15.6428 0 17.3755 0H57.9186C59.6513 0 61.098 0.580392 62.2588 1.74118C63.4196 2.90196 64 4.34871 64 6.08141V46.6245C64 48.3572 63.4196 49.8039 62.2588 50.9647C61.098 52.1255 59.6513 52.7059 57.9186 52.7059H17.3755ZM17.3755 48.9412H57.9186C58.4978 48.9412 59.0287 48.6999 59.5113 48.2172C59.994 47.7345 60.2353 47.2036 60.2353 46.6245V6.08141C60.2353 5.50227 59.994 4.97136 59.5113 4.48866C59.0287 4.00603 58.4978 3.76471 57.9186 3.76471H17.3755C16.7964 3.76471 16.2655 4.00603 15.7828 4.48866C15.3001 4.97136 15.0588 5.50227 15.0588 6.08141V46.6245C15.0588 47.2036 15.3001 47.7345 15.7828 48.2172C16.2655 48.6999 16.7964 48.9412 17.3755 48.9412ZM6.08141 64C4.34871 64 2.90196 63.4196 1.74118 62.2588C0.580392 61.098 0 59.6513 0 57.9186V13.6108H3.76471V57.9186C3.76471 58.4978 4.00602 59.0287 4.48866 59.5113C4.97129 59.994 5.50221 60.2353 6.08141 60.2353H50.3892V64H6.08141Z" />
</svg>
