<svg width="16" height="17" viewBox="0 0 16 17" fill="none" xmlns="http://www.w3.org/2000/svg">
<mask id="mask0_4151_10111" style="mask-type:luminance" maskUnits="userSpaceOnUse" x="0" y="0" width="16" height="17">
<path d="M15.814 6.7972H8.18605V10.007H12.5767C12.1674 12.0462 10.4558 13.2168 8.18605 13.2168C5.50698 13.2168 3.34884 11.0266 3.34884 8.30769C3.34884 5.58881 5.50698 3.3986 8.18605 3.3986C9.33953 3.3986 10.3814 3.814 11.2 4.49372L13.5814 2.07692C12.1302 0.793007 10.2698 0 8.18605 0C3.64651 0 0 3.7007 0 8.30769C0 12.9147 3.64651 16.6154 8.18605 16.6154C12.2791 16.6154 16 13.5944 16 8.30769C16 7.81678 15.9256 7.28811 15.814 6.7972Z" fill="white"/>
</mask>
<g mask="url(#mask0_4151_10111)">
<path d="M-0.744171 13.2168V3.39862L5.58141 8.30771L-0.744171 13.2168Z" fill="#FBBC05"/>
</g>
<mask id="mask1_4151_10111" style="mask-type:luminance" maskUnits="userSpaceOnUse" x="0" y="0" width="16" height="17">
<path d="M15.814 6.7972H8.18605V10.007H12.5767C12.1674 12.0462 10.4558 13.2168 8.18605 13.2168C5.50698 13.2168 3.34884 11.0266 3.34884 8.30769C3.34884 5.58881 5.50698 3.3986 8.18605 3.3986C9.33953 3.3986 10.3814 3.814 11.2 4.49372L13.5814 2.07692C12.1302 0.793007 10.2698 0 8.18605 0C3.64651 0 0 3.7007 0 8.30769C0 12.9147 3.64651 16.6154 8.18605 16.6154C12.2791 16.6154 16 13.5944 16 8.30769C16 7.81678 15.9256 7.28811 15.814 6.7972Z" fill="white"/>
</mask>
<g mask="url(#mask1_4151_10111)">
<path d="M-0.744171 3.3986L5.58141 8.30769L8.18606 6.0042L17.1163 4.53146V-0.755249H-0.744171V3.3986Z" fill="#EA4335"/>
</g>
<mask id="mask2_4151_10111" style="mask-type:luminance" maskUnits="userSpaceOnUse" x="0" y="0" width="16" height="17">
<path d="M15.814 6.7972H8.18605V10.007H12.5767C12.1674 12.0462 10.4558 13.2168 8.18605 13.2168C5.50698 13.2168 3.34884 11.0266 3.34884 8.30769C3.34884 5.58881 5.50698 3.3986 8.18605 3.3986C9.33953 3.3986 10.3814 3.814 11.2 4.49372L13.5814 2.07692C12.1302 0.793007 10.2698 0 8.18605 0C3.64651 0 0 3.7007 0 8.30769C0 12.9147 3.64651 16.6154 8.18605 16.6154C12.2791 16.6154 16 13.5944 16 8.30769C16 7.81678 15.9256 7.28811 15.814 6.7972Z" fill="white"/>
</mask>
<g mask="url(#mask2_4151_10111)">
<path d="M-0.744171 13.2168L10.4186 4.53146L13.3582 4.90909L17.1163 -0.755249V17.3706H-0.744171V13.2168Z" fill="#34A853"/>
</g>
<mask id="mask3_4151_10111" style="mask-type:luminance" maskUnits="userSpaceOnUse" x="0" y="0" width="16" height="17">
<path d="M15.814 6.7972H8.18605V10.007H12.5767C12.1674 12.0462 10.4558 13.2168 8.18605 13.2168C5.50698 13.2168 3.34884 11.0266 3.34884 8.30769C3.34884 5.58881 5.50698 3.3986 8.18605 3.3986C9.33953 3.3986 10.3814 3.814 11.2 4.49372L13.5814 2.07692C12.1302 0.793007 10.2698 0 8.18605 0C3.64651 0 0 3.7007 0 8.30769C0 12.9147 3.64651 16.6154 8.18605 16.6154C12.2791 16.6154 16 13.5944 16 8.30769C16 7.81678 15.9256 7.28811 15.814 6.7972Z" fill="white"/>
</mask>
<g mask="url(#mask3_4151_10111)">
<path d="M17.1163 17.3706L5.58139 8.30771L4.09302 7.17484L17.1163 3.39862V17.3706Z" fill="#4285F4"/>
</g>
</svg>
