<svg width="24" height="23" viewBox="0 0 24 23" fill="currentColor" xmlns="http://www.w3.org/2000/svg">
<path d="M16 11.3602C16 11.7664 15.6424 12.0962 15.2 12.0962H12.8V18.7202C12.8 19.1264 12.4424 19.4562 12 19.4562H8.8C8.3576 19.4562 8 19.1264 8 18.7202C8 18.3139 8.3576 17.9842 8.8 17.9842H11.2V4.73616H8.8C8.3576 4.73616 8 4.40643 8 4.00016C8 3.59389 8.3576 3.26416 8.8 3.26416H12C12.4424 3.26416 12.8 3.59389 12.8 4.00016V10.6242H15.2C15.6424 10.6242 16 10.9539 16 11.3602Z" />
<path d="M8.8 6.20799H0.8C0.3576 6.20799 0 5.87826 0 5.47199V2.52799C0 2.12172 0.3576 1.79199 0.8 1.79199H8.8C9.2424 1.79199 9.6 2.12172 9.6 2.52799V5.47199C9.6 5.87826 9.2424 6.20799 8.8 6.20799ZM1.6 4.73599H8V3.26399H1.6V4.73599Z" />
<path d="M23.2 13.5679H15.2C14.7576 13.5679 14.4 13.2381 14.4 12.8319V9.88786C14.4 9.48158 14.7576 9.15186 15.2 9.15186H23.2C23.6424 9.15186 24 9.48158 24 9.88786V12.8319C24 13.2381 23.6424 13.5679 23.2 13.5679ZM16 12.0959H22.4V10.6239H16V12.0959Z" />
<path d="M8.8 20.9282H0.8C0.3576 20.9282 0 20.5985 0 20.1922V17.2482C0 16.8419 0.3576 16.5122 0.8 16.5122H8.8C9.2424 16.5122 9.6 16.8419 9.6 17.2482V20.1922C9.6 20.5985 9.2424 20.9282 8.8 20.9282ZM1.6 19.4562H8V17.9842H1.6V19.4562Z" />
</svg>
