<svg width="20" height="20" viewBox="0 0 20 20" fill="currentColor" xmlns="http://www.w3.org/2000/svg">
<circle cx="10" cy="10" r="10" fill="currentColor"/>
<path d="M8.44189 11.7783L13.7532 6.467C13.8979 6.32233 14.0695 6.25 14.2681 6.25C14.4667 6.25 14.6383 6.32233 14.783 6.467C14.9277 6.61166 15 6.78329 15 6.98189C15 7.18047 14.9277 7.3521 14.783 7.49676L8.95073 13.329C8.80607 13.4737 8.63645 13.546 8.44189 13.546C8.24732 13.546 8.0777 13.4737 7.93304 13.329L5.21113 10.6071C5.06646 10.4625 4.99614 10.2908 5.00016 10.0922C5.00419 9.89365 5.07854 9.72202 5.2232 9.57735C5.36787 9.43269 5.5395 9.36036 5.7381 9.36036C5.93668 9.36036 6.10831 9.43269 6.25297 9.57735L8.44189 11.7783Z" fill="white"/>
</svg>
