<svg width="20" height="20" viewBox="0 0 20 20" fill="currentColor" xmlns="http://www.w3.org/2000/svg">
<path d="M12.2809 5.80189e-08C12.7007 0.00010886 13.1098 0.132286 13.4502 0.377808C13.7907 0.62333 14.0453 0.96975 14.1779 1.368L14.7209 3H18.0009C18.2661 3 18.5205 3.10536 18.708 3.29289C18.8956 3.48043 19.0009 3.73478 19.0009 4C19.0009 4.26522 18.8956 4.51957 18.708 4.70711C18.5205 4.89464 18.2661 5 18.0009 5L17.9979 5.071L17.1309 17.214C17.0768 17.9706 16.7381 18.6786 16.1829 19.1956C15.6278 19.7125 14.8975 19.9999 14.1389 20H5.86292C5.10437 19.9999 4.37402 19.7125 3.81888 19.1956C3.26374 18.6786 2.92502 17.9706 2.87092 17.214L2.00392 5.07C2.00211 5.04671 2.00111 5.02336 2.00092 5C1.7357 5 1.48135 4.89464 1.29381 4.70711C1.10627 4.51957 1.00092 4.26522 1.00092 4C1.00092 3.73478 1.10627 3.48043 1.29381 3.29289C1.48135 3.10536 1.7357 3 2.00092 3H5.28092L5.82392 1.368C5.95661 0.969588 6.21135 0.623052 6.55201 0.377515C6.89268 0.131978 7.30199 -0.000101061 7.72192 5.80189e-08H12.2809ZM15.9979 5H4.00392L4.86592 17.071C4.88387 17.3232 4.99669 17.5592 5.18167 17.7316C5.36666 17.904 5.61007 17.9999 5.86292 18H14.1389C14.3918 17.9999 14.6352 17.904 14.8202 17.7316C15.0051 17.5592 15.118 17.3232 15.1359 17.071L15.9979 5ZM8.00092 8C8.24585 8.00003 8.48225 8.08996 8.66529 8.25272C8.84832 8.41547 8.96526 8.63975 8.99392 8.883L9.00092 9V14C9.00063 14.2549 8.90304 14.5 8.72807 14.6854C8.5531 14.8707 8.31396 14.9822 8.05952 14.9972C7.80508 15.0121 7.55454 14.9293 7.35908 14.7657C7.16363 14.6021 7.03802 14.3701 7.00792 14.117L7.00092 14V9C7.00092 8.73478 7.10627 8.48043 7.29381 8.29289C7.48135 8.10536 7.7357 8 8.00092 8ZM12.0009 8C12.2661 8 12.5205 8.10536 12.708 8.29289C12.8956 8.48043 13.0009 8.73478 13.0009 9V14C13.0009 14.2652 12.8956 14.5196 12.708 14.7071C12.5205 14.8946 12.2661 15 12.0009 15C11.7357 15 11.4813 14.8946 11.2938 14.7071C11.1063 14.5196 11.0009 14.2652 11.0009 14V9C11.0009 8.73478 11.1063 8.48043 11.2938 8.29289C11.4813 8.10536 11.7357 8 12.0009 8ZM12.2809 2H7.72092L7.38792 3H12.6139L12.2809 2Z" />
</svg>
