<svg width="24" height="24" viewBox="0 0 24 24" fill="currentColor" xmlns="http://www.w3.org/2000/svg">
<path d="M12 0C18.6276 0 24 5.3724 24 12C24 18.6276 18.6276 24 12 24C5.3724 24 0 18.6276 0 12C0 5.3724 5.3724 0 12 0ZM16.242 7.6572L10.302 13.5972L7.758 11.052C7.64659 10.9405 7.5143 10.8521 7.36871 10.7917C7.22311 10.7313 7.06704 10.7002 6.90942 10.7002C6.5911 10.7 6.28577 10.8264 6.0606 11.0514C5.83543 11.2764 5.70887 11.5817 5.70876 11.9C5.70864 12.2183 5.83499 12.5236 6.06 12.7488L9.3696 16.0584C9.49218 16.181 9.63773 16.2783 9.79792 16.3447C9.95811 16.4111 10.1298 16.4452 10.3032 16.4452C10.4766 16.4452 10.6483 16.4111 10.8085 16.3447C10.9687 16.2783 11.1142 16.181 11.2368 16.0584L17.94 9.3552C18.1652 9.13003 18.2917 8.82464 18.2917 8.5062C18.2917 8.18776 18.1652 7.88237 17.94 7.6572C17.7148 7.43203 17.4094 7.30553 17.091 7.30553C16.7726 7.30553 16.4672 7.43203 16.242 7.6572Z" />
</svg>
