<svg width="14" height="15" viewBox="0 0 14 15" fill="currentColor" xmlns="http://www.w3.org/2000/svg">
<path d="M1.24412 11.0634C1.46106 11.0638 1.67385 11.1182 1.85991 11.221C2.04596 11.3239 2.19834 11.4712 2.30087 11.6474C2.40339 11.8236 2.45224 12.0221 2.44223 12.2218C2.43222 12.4215 2.36372 12.615 2.244 12.7817C2.36372 12.9484 2.43222 13.1419 2.44223 13.3416C2.45224 13.5413 2.40339 13.7398 2.30087 13.916C2.19834 14.0922 2.04596 14.2395 1.85991 14.3424C1.67385 14.4452 1.46106 14.4997 1.24412 14.5C0.711392 14.5 0.29095 14.29 0.0745814 13.8195C0.0447502 13.7598 0.0282237 13.6952 0.0259812 13.6295C0.0237387 13.5638 0.0358261 13.4984 0.0615268 13.4371C0.0872275 13.3758 0.126019 13.3199 0.175601 13.2727C0.225183 13.2255 0.284548 13.1879 0.350176 13.1622C0.415805 13.1365 0.486361 13.1232 0.557664 13.1231C0.628967 13.123 0.699565 13.1361 0.765275 13.1617C0.830985 13.1872 0.890468 13.2246 0.9402 13.2717C0.989932 13.3188 1.0289 13.3746 1.05479 13.4358C1.06607 13.4602 1.0849 13.4811 1.10895 13.4957C1.133 13.5104 1.1612 13.5182 1.19002 13.5181C1.27936 13.5181 1.37853 13.4955 1.37853 13.392C1.37853 13.3165 1.3187 13.284 1.25067 13.2757L1.20888 13.2726C1.07429 13.2728 0.94463 13.226 0.845945 13.1417C0.74726 13.0574 0.686867 12.9417 0.676902 12.8181C0.666937 12.6944 0.70814 12.5718 0.792229 12.475C0.876319 12.3781 0.997063 12.3142 1.1302 12.296L1.20888 12.2908C1.29247 12.2908 1.37853 12.2628 1.37853 12.1714C1.37853 12.0679 1.28018 12.0453 1.19002 12.0453C1.16125 12.0455 1.13316 12.0534 1.10926 12.0682C1.08536 12.083 1.06671 12.1039 1.05561 12.1284C1.00029 12.2483 0.895562 12.343 0.764455 12.3917C0.633349 12.4404 0.486609 12.4392 0.356516 12.3882C0.226423 12.3372 0.123633 12.2407 0.0707605 12.1199C0.0178876 11.999 0.019262 11.8638 0.0745814 11.7439C0.29095 11.2741 0.711392 11.0642 1.24412 11.0642V11.0634ZM13.1804 12.0302C13.3978 12.0302 13.6063 12.1098 13.76 12.2514C13.9137 12.393 14 12.5852 14 12.7855C14 12.9858 13.9137 13.1779 13.76 13.3196C13.6063 13.4612 13.3978 13.5408 13.1804 13.5408H4.16509C3.94772 13.5408 3.73926 13.4612 3.58556 13.3196C3.43186 13.1779 3.34551 12.9858 3.34551 12.7855C3.34551 12.5852 3.43186 12.393 3.58556 12.2514C3.73926 12.1098 3.94772 12.0302 4.16509 12.0302H13.1804ZM1.77192 5.94628C1.94751 6.0287 2.09991 6.1476 2.2171 6.29358C2.3343 6.43957 2.41309 6.60865 2.44727 6.7875C2.48144 6.96634 2.47006 7.15006 2.41402 7.32415C2.35798 7.49825 2.25881 7.65797 2.12434 7.79071L1.6703 8.2386H2.0555C2.19678 8.2386 2.33229 8.29032 2.43219 8.38239C2.5321 8.47446 2.58822 8.59933 2.58822 8.72954C2.58822 8.85975 2.5321 8.98462 2.43219 9.07669C2.33229 9.16876 2.19678 9.22048 2.0555 9.22048H0.536822C0.39459 9.22048 0.258171 9.16846 0.157521 9.07585C0.0568709 8.98324 0.000217296 8.8576 1.47999e-07 8.72652C1.47999e-07 8.57017 0.0237677 8.42516 0.145065 8.30582L1.34492 7.12076C1.43508 7.03239 1.41213 6.87831 1.29575 6.82469C1.18429 6.77332 1.09168 6.83224 1.07037 6.93194L1.06545 6.9765C1.06545 7.04097 1.05167 7.10481 1.0249 7.16437C0.998126 7.22394 0.958886 7.27806 0.909418 7.32365C0.85995 7.36924 0.801223 7.4054 0.73659 7.43007C0.671956 7.45474 0.602683 7.46744 0.532724 7.46744C0.21309 7.46744 1.47999e-07 7.22046 1.47999e-07 6.941C-0.000102771 6.74885 0.0534731 6.5599 0.15557 6.39236C0.257667 6.22481 0.404847 6.08431 0.582941 5.98438C0.761035 5.88445 0.964046 5.82845 1.17243 5.82178C1.38081 5.8151 1.58673 5.85798 1.77192 5.94628ZM13.1804 6.74311C13.3893 6.74333 13.5902 6.81704 13.7421 6.94919C13.894 7.08135 13.9854 7.26197 13.9977 7.45414C14.0099 7.64632 13.9421 7.83556 13.808 7.98318C13.6739 8.13081 13.4837 8.22568 13.2763 8.24842L13.1804 8.2537H4.16509C3.95619 8.25349 3.75527 8.17978 3.60337 8.04762C3.45148 7.91547 3.36007 7.73485 3.34783 7.54267C3.33559 7.35049 3.40343 7.16126 3.53751 7.01364C3.67158 6.86601 3.86176 6.77114 4.0692 6.7484L4.16509 6.74311H13.1804ZM1.82929 0.995314V3.44247C1.82929 3.57268 1.77317 3.69755 1.67326 3.78962C1.57336 3.88169 1.43786 3.93341 1.29657 3.93341C1.15528 3.93341 1.01978 3.88169 0.919876 3.78962C0.819971 3.69755 0.763845 3.57268 0.763845 3.44247V1.85031C0.643975 1.86735 0.521385 1.84618 0.416338 1.79031C0.311291 1.73444 0.230077 1.6472 0.186121 1.54303C0.142166 1.43885 0.1381 1.32397 0.174597 1.21738C0.211093 1.11078 0.285967 1.01886 0.38684 0.956794L0.994966 0.582923C1.07581 0.533319 1.16974 0.504857 1.26675 0.500568C1.36376 0.49628 1.46022 0.516326 1.54584 0.558571C1.63147 0.600815 1.70305 0.663676 1.75297 0.740455C1.80288 0.817233 1.82926 0.905054 1.82929 0.994559V0.995314ZM13.1804 1.45604C13.3893 1.45626 13.5902 1.52997 13.7421 1.66213C13.894 1.79428 13.9854 1.9749 13.9977 2.16708C14.0099 2.35925 13.9421 2.54849 13.808 2.69611C13.6739 2.84374 13.4837 2.93861 13.2763 2.96135L13.1804 2.96664H4.16509C3.95619 2.96642 3.75527 2.89271 3.60337 2.76055C3.45148 2.6284 3.36007 2.44778 3.34783 2.2556C3.33559 2.06343 3.40343 1.87419 3.53751 1.72657C3.67158 1.57894 3.86176 1.48407 4.0692 1.46133L4.16509 1.45604H13.1804Z" />
</svg>
