<svg width="16" height="16" viewBox="0 0 16 16" fill="currentColor" xmlns="http://www.w3.org/2000/svg">
<path fill-rule="evenodd" clip-rule="evenodd" d="M3.30654 2.06208C3.14055 1.90176 2.91824 1.81305 2.68748 1.81506C2.45672 1.81706 2.23598 1.90962 2.0728 2.0728C1.90962 2.23598 1.81706 2.45672 1.81506 2.68748C1.81305 2.91824 1.90176 3.14055 2.06208 3.30654L3.92878 5.175C4.09392 5.34003 4.31785 5.43269 4.55132 5.43261C4.78478 5.43253 5.00865 5.3397 5.17368 5.17456C5.33871 5.00942 5.43137 4.78548 5.43129 4.55202C5.4312 4.31855 5.33838 4.09468 5.17324 3.92966L3.30742 2.06384L3.30654 2.06208ZM7.66305 6.41858C7.49706 6.25827 7.27474 6.16956 7.04398 6.17156C6.81322 6.17357 6.59248 6.26613 6.4293 6.4293C6.26613 6.59248 6.17357 6.81322 6.17156 7.04398C6.16956 7.27474 6.25827 7.49706 6.41858 7.66305L14.5085 15.7529C14.6745 15.9133 14.8968 16.002 15.1275 16C15.3583 15.998 15.579 15.9054 15.7422 15.7422C15.9054 15.579 15.998 15.3583 16 15.1275C16.002 14.8968 15.9133 14.6745 15.7529 14.5085L7.66305 6.41858ZM12.0196 2.06208C12.1845 2.22712 12.2772 2.45094 12.2772 2.68431C12.2772 2.91768 12.1845 3.1415 12.0196 3.30654L10.152 5.175C10.0702 5.25671 9.97314 5.32152 9.86632 5.36572C9.75951 5.40992 9.64503 5.43265 9.52943 5.43261C9.41383 5.43257 9.29937 5.40976 9.19259 5.36548C9.0858 5.32121 8.98878 5.25633 8.90707 5.17456C8.74205 5.00942 8.64938 4.78548 8.64946 4.55202C8.64955 4.31855 8.74237 4.09468 8.90751 3.92966L10.7742 2.06384C10.8559 1.98201 10.953 1.91709 11.0599 1.8728C11.1667 1.82851 11.2812 1.80572 11.3969 1.80572C11.5125 1.80572 11.6271 1.82851 11.7339 1.8728C11.8407 1.91709 11.9378 1.98201 12.0196 2.06384V2.06208ZM5.17324 10.1529C5.33838 9.98783 5.4312 9.76396 5.43129 9.53049C5.43137 9.29703 5.33871 9.07309 5.17368 8.90795C5.00865 8.74281 4.78478 8.64999 4.55132 8.6499C4.31785 8.64982 4.09392 8.74249 3.92878 8.90751L2.06208 10.7751C1.97802 10.8563 1.91097 10.9534 1.86485 11.0608C1.81872 11.1681 1.79444 11.2836 1.79343 11.4005C1.79241 11.5173 1.81468 11.6332 1.85893 11.7414C1.90318 11.8496 1.96853 11.9478 2.05117 12.0305C2.13381 12.1131 2.23207 12.1784 2.34023 12.2227C2.44839 12.267 2.56428 12.2892 2.68114 12.2882C2.798 12.2872 2.91349 12.2629 3.02087 12.2168C3.12824 12.1707 3.22536 12.1036 3.30654 12.0196L5.17324 10.1529ZM14.0816 7.04082C14.0816 7.27423 13.9889 7.49809 13.8239 7.66314C13.6588 7.82819 13.4349 7.92092 13.2015 7.92092H10.5612C10.3278 7.92092 10.1039 7.82819 9.9389 7.66314C9.77385 7.49809 9.68112 7.27423 9.68112 7.04082C9.68112 6.8074 9.77385 6.58354 9.9389 6.41849C10.1039 6.25344 10.3278 6.16071 10.5612 6.16071H13.2015C13.4349 6.16071 13.6588 6.25344 13.8239 6.41849C13.9889 6.58354 14.0816 6.8074 14.0816 7.04082ZM3.52041 7.92092C3.75383 7.92092 3.97768 7.82819 4.14273 7.66314C4.30778 7.49809 4.40051 7.27423 4.40051 7.04082C4.40051 6.8074 4.30778 6.58354 4.14273 6.41849C3.97768 6.25344 3.75383 6.16071 3.52041 6.16071H0.880102C0.646684 6.16071 0.422827 6.25344 0.257776 6.41849C0.0927247 6.58354 0 6.8074 0 7.04082C0 7.27423 0.0927247 7.49809 0.257776 7.66314C0.422827 7.82819 0.646684 7.92092 0.880102 7.92092H3.52041ZM7.04082 14.0816C6.8074 14.0816 6.58354 13.9889 6.41849 13.8239C6.25344 13.6588 6.16071 13.4349 6.16071 13.2015V10.5612C6.16071 10.3278 6.25344 10.1039 6.41849 9.9389C6.58354 9.77385 6.8074 9.68112 7.04082 9.68112C7.27423 9.68112 7.49809 9.77385 7.66314 9.9389C7.82819 10.1039 7.92092 10.3278 7.92092 10.5612V13.2015C7.92092 13.4349 7.82819 13.6588 7.66314 13.8239C7.49809 13.9889 7.27423 14.0816 7.04082 14.0816ZM6.16071 3.52041C6.16071 3.75383 6.25344 3.97768 6.41849 4.14273C6.58354 4.30778 6.8074 4.40051 7.04082 4.40051C7.27423 4.40051 7.49809 4.30778 7.66314 4.14273C7.82819 3.97768 7.92092 3.75383 7.92092 3.52041V0.880102C7.92092 0.646684 7.82819 0.422827 7.66314 0.257776C7.49809 0.0927247 7.27423 0 7.04082 0C6.8074 0 6.58354 0.0927247 6.41849 0.257776C6.25344 0.422827 6.16071 0.646684 6.16071 0.880102V3.52041Z" />
</svg>
