<svg width="20" height="20" viewBox="0 0 20 20" fill="currentColor" xmlns="http://www.w3.org/2000/svg">
<g clip-path="url(#clip0_4422_2413)">
<path fill-rule="evenodd" clip-rule="evenodd" d="M13.0001 17C13.0003 17.5046 12.8097 17.9906 12.4666 18.3605C12.1235 18.7305 11.6532 18.9572 11.1501 18.995L11.0001 19H9.00009C8.49552 19.0002 8.00953 18.8096 7.63954 18.4665C7.26956 18.1234 7.04294 17.6532 7.00509 17.15L7.00009 17H13.0001ZM10.0001 9.54067e-10C11.8151 -2.9945e-05 13.5591 0.704894 14.8643 1.96607C16.1695 3.22726 16.9339 4.94609 16.9961 6.76L17.0001 7V10.764L18.8221 14.408C18.9016 14.567 18.9414 14.7429 18.9381 14.9206C18.9347 15.0984 18.8884 15.2727 18.8029 15.4286C18.7175 15.5845 18.5956 15.7174 18.4476 15.8158C18.2996 15.9143 18.1299 15.9754 17.9531 15.994L17.8381 16H2.16209C1.98426 16.0001 1.80906 15.957 1.65151 15.8745C1.49397 15.792 1.35877 15.6725 1.25751 15.5264C1.15625 15.3802 1.09194 15.2116 1.0701 15.0351C1.04825 14.8586 1.06953 14.6795 1.13209 14.513L1.17809 14.408L3.00009 10.764V7C3.00009 5.14348 3.73759 3.36301 5.05035 2.05025C6.3631 0.737498 8.14358 9.54069e-10 10.0001 9.54067e-10ZM10.0001 2C8.71163 2.00007 7.47293 2.49754 6.54232 3.38866C5.6117 4.27978 5.06101 5.49575 5.00509 6.783L5.00009 7V10.764C5.0001 11.012 4.95399 11.2579 4.86409 11.489L4.78909 11.659L3.61909 14H16.3821L15.2121 11.658C15.1011 11.4363 15.0323 11.1959 15.0091 10.949L15.0001 10.764V7C15.0001 5.67392 14.4733 4.40215 13.5356 3.46447C12.5979 2.52678 11.3262 2 10.0001 2Z" />
</g>
</svg>
