<svg width="56" height="56" viewBox="0 0 56 56" fill="none" xmlns="http://www.w3.org/2000/svg">
<path d="M36.75 24.5C36.75 25.466 35.9678 26.25 35 26.25H29.75V42C29.75 42.966 28.9677 43.75 28 43.75H21C20.0323 43.75 19.25 42.966 19.25 42C19.25 41.034 20.0323 40.25 21 40.25H26.25V8.75H21C20.0323 8.75 19.25 7.966 19.25 7C19.25 6.034 20.0323 5.25 21 5.25H28C28.9677 5.25 29.75 6.034 29.75 7V22.75H35C35.9678 22.75 36.75 23.534 36.75 24.5Z" fill="#001529"/>
<path d="M21 12.25H3.5C2.53225 12.25 1.75 11.466 1.75 10.5V3.5C1.75 2.534 2.53225 1.75 3.5 1.75H21C21.9678 1.75 22.75 2.534 22.75 3.5V10.5C22.75 11.466 21.9678 12.25 21 12.25ZM5.25 8.75H19.25V5.25H5.25V8.75Z" fill="#001529"/>
<path d="M52.5 29.75H35C34.0323 29.75 33.25 28.966 33.25 28V21C33.25 20.034 34.0323 19.25 35 19.25H52.5C53.4678 19.25 54.25 20.034 54.25 21V28C54.25 28.966 53.4678 29.75 52.5 29.75ZM36.75 26.25H50.75V22.75H36.75V26.25Z" fill="#001529"/>
<path d="M21 47.25H3.5C2.53225 47.25 1.75 46.466 1.75 45.5V38.5C1.75 37.534 2.53225 36.75 3.5 36.75H21C21.9678 36.75 22.75 37.534 22.75 38.5V45.5C22.75 46.466 21.9678 47.25 21 47.25ZM5.25 43.75H19.25V40.25H5.25V43.75Z" fill="#001529"/>
<path d="M52.5 54.25H38.5C37.5322 54.25 36.75 53.466 36.75 52.5C36.75 51.534 37.5322 50.75 38.5 50.75H52.5C53.4678 50.75 54.25 51.534 54.25 52.5C54.25 53.466 53.4678 54.25 52.5 54.25ZM35 52.5C35 51.534 34.2178 50.75 33.25 50.75H29.75C28.7822 50.75 28 51.534 28 52.5C28 53.466 28.7822 54.25 29.75 54.25H33.25C34.2178 54.25 35 53.466 35 52.5ZM26.25 52.5C26.25 51.534 25.4678 50.75 24.5 50.75H3.5C2.53225 50.75 1.75 51.534 1.75 52.5C1.75 53.466 2.53225 54.25 3.5 54.25H24.5C25.4678 54.25 26.25 53.466 26.25 52.5Z" fill="#004E98"/>
</svg>
