<svg width="20" height="24" viewBox="0 0 24 24" fill="currentColor" xmlns="http://www.w3.org/2000/svg">
<path d="M10.6676 22.6667C10.6676 23.0203 10.8081 23.3594 11.0581 23.6095C11.3082 23.8595 11.6473 24 12.0009 24C12.3545 24 12.6937 23.8595 12.9437 23.6095C13.1938 23.3594 13.3342 23.0203 13.3342 22.6667V13.3333H22.6676C23.0212 13.3333 23.3603 13.1929 23.6104 12.9428C23.8604 12.6928 24.0009 12.3536 24.0009 12C24.0009 11.6464 23.8604 11.3072 23.6104 11.0572C23.3603 10.8071 23.0212 10.6667 22.6676 10.6667H13.3342V1.33333C13.3342 0.979711 13.1938 0.640573 12.9437 0.390524C12.6937 0.140476 12.3545 0 12.0009 0C11.6473 0 11.3082 0.140476 11.0581 0.390524C10.8081 0.640573 10.6676 0.979711 10.6676 1.33333V10.6667H1.33425C0.980627 10.6667 0.641488 10.8071 0.39144 11.0572C0.141391 11.3072 0.000915527 11.6464 0.000915527 12C0.000915527 12.3536 0.141391 12.6928 0.39144 12.9428C0.641488 13.1929 0.980627 13.3333 1.33425 13.3333H10.6676V22.6667Z" />
</svg>
