<svg width="14" height="15" viewBox="0 0 14 15" fill="currentColor" xmlns="http://www.w3.org/2000/svg">
<path d="M13.2222 5.16647C13.4127 5.16649 13.5966 5.23643 13.739 5.36302C13.8813 5.48961 13.9723 5.66405 13.9946 5.85324L14 5.94424V9.83313C14 10.6313 13.6932 11.399 13.1431 11.9773C12.593 12.5557 11.8416 12.9004 11.0444 12.9404L10.8889 12.9442H3.97211L3.95656 13.267L3.93011 13.6707C3.90911 13.9398 3.65633 14.1039 3.43933 13.9896L3.20133 13.862L2.92133 13.7041L2.76733 13.6131L2.43289 13.4086C2.37327 13.3709 2.3139 13.3327 2.25478 13.2942L1.89467 13.0531L1.73133 12.9388L1.43811 12.7265L1.19311 12.5398C1.15849 12.513 1.12401 12.4861 1.08967 12.4589C0.906111 12.3127 0.914667 12.0187 1.10756 11.8662L1.32533 11.6975L1.58978 11.5015L1.90089 11.2821L2.25556 11.0449L2.61489 10.8186L2.93844 10.6249L3.22233 10.4655L3.46111 10.3371C3.675 10.2259 3.90522 10.3651 3.92622 10.6171L3.94567 10.887L3.96433 11.2098L3.97211 11.3887H10.8889C11.2813 11.3888 11.6593 11.2406 11.9471 10.9737C12.2349 10.7069 12.4111 10.3411 12.4406 9.9498L12.4444 9.83313V5.94424C12.4444 5.73796 12.5264 5.54013 12.6722 5.39427C12.8181 5.24841 13.0159 5.16647 13.2222 5.16647ZM10.5607 1.00924L10.7987 1.13758L11.0787 1.29547L11.2327 1.38647L11.5671 1.59102L11.7452 1.70535L12.1053 1.94647L12.2687 2.0608L12.5619 2.27313L12.8069 2.4598L12.9103 2.54069C13.0939 2.68691 13.0853 2.98091 12.8924 3.13335L12.6747 3.30213L12.4102 3.49813L12.0991 3.71747L11.7444 3.95469L11.3851 4.18102L11.0616 4.37469L10.7777 4.53413L10.5389 4.66247C10.325 4.77369 10.094 4.63447 10.0738 4.38247L10.0543 4.11258L10.0357 3.7898C10.0328 3.73018 10.0302 3.67055 10.0279 3.61091H3.11111C2.69855 3.61091 2.30289 3.7748 2.01117 4.06652C1.71944 4.35825 1.55556 4.75391 1.55556 5.16647V9.05535C1.55556 9.26163 1.47361 9.45947 1.32775 9.60533C1.18189 9.75119 0.984057 9.83313 0.777778 9.83313C0.571498 9.83313 0.373667 9.75119 0.227806 9.60533C0.0819442 9.45947 0 9.26163 0 9.05535V5.16647C0 4.34135 0.327777 3.55002 0.911223 2.96658C1.49467 2.38313 2.28599 2.05535 3.11111 2.05535H10.0279L10.0434 1.73258L10.0606 1.45258L10.0699 1.32891C10.0909 1.0598 10.3437 0.89491 10.5607 1.00924Z" />
</svg>
