<svg width="128" height="64" viewBox="0 0 128 64" fill="none" xmlns="http://www.w3.org/2000/svg">
<path opacity="0.3" d="M124.661 43.2384C124.702 43.0209 124.734 42.8035 124.758 42.5896C126.02 41.7305 127.073 39.8055 127.258 37.9268C127.542 35.0322 126.632 32.43 124.889 31.029C124.52 30.7331 124.146 30.4622 123.768 30.202C124.183 29.4676 124.477 28.5622 124.583 27.4856C124.71 26.1916 124.561 24.78 124.176 23.5359C124.006 22.3987 123.627 21.3186 123.093 20.4559C123.401 20.2349 123.707 20.0103 124.013 19.7679C125.307 18.7448 125.955 16.0855 125.843 14.0607C125.719 11.8149 124.78 9.85426 123.414 8.85969C118.868 5.56227 114.053 3.96882 109.017 3.58026C108.604 3.54818 108.202 3.65512 107.821 3.86544C107.231 2.92434 106.457 2.25416 105.551 2.07593C92.2664 -0.50497 78.8286 -0.483585 65.5023 1.34871C59.1404 0.777872 52.765 0.597103 46.3928 0.806867C45.8297 0.75696 45.2667 0.714183 44.7012 0.667841C40.6021 0.347012 36.5031 0.122427 32.3991 0.0404376C28.5355 -0.0379874 24.6718 -0.00233859 20.8082 0.147382C16.794 0.300667 12.8357 0.667837 8.96236 2.36823C8.34107 2.63916 7.77559 3.21309 7.31448 3.95456C5.82192 5.12024 4.76378 7.59419 4.97735 10.1002C5.08171 11.3265 5.39478 12.4316 5.85832 13.3442C5.21276 13.4226 4.5672 13.5082 3.92407 13.6008C0.252136 14.1356 -1.42972 21.1617 1.47773 24.7443C1.81445 25.1582 2.17225 25.5336 2.548 25.8672C2.74701 27.5106 3.29307 28.8616 4.07454 29.7992C4.07696 29.9631 4.08425 30.1271 4.09881 30.2875C4.21773 31.6778 4.57206 32.8506 5.09627 33.7703C5.21519 34.4013 5.39478 35.018 5.62534 35.5955C5.07686 36.7612 4.7832 38.1764 4.90697 39.6094C4.9725 40.3758 5.12054 41.0888 5.32926 41.7376L5.24917 41.8659C4.77106 42.693 4.40217 43.8515 4.26869 45.01C3.21298 46.3183 2.548 48.3324 2.72274 50.3643C2.94359 52.9345 3.91193 54.6563 5.28557 55.5226C5.27101 56.0502 5.29771 56.567 5.37051 57.0625C5.83891 60.2138 7.72705 62.1317 9.89429 62.0354C11.6247 61.957 13.3551 61.8821 15.0855 61.8037C15.9446 63.2581 17.2454 64.0887 18.6628 63.9925C25.9241 63.5077 33.1782 62.8018 40.4201 61.8821C40.7987 61.9998 41.1967 62.0532 41.6093 62.0211C61.9445 60.5275 82.3185 60.4206 102.661 61.6682C108.435 62.0247 114.228 62.3741 119.972 61.2191C122.011 60.8091 123.613 58.6952 123.863 55.6972C123.933 55.7008 124.001 55.7079 124.071 55.7115C126.204 55.8684 127.891 52.521 127.993 49.7334C128.112 46.4431 126.675 44.2115 124.659 43.2348L124.661 43.2384Z" fill="#C2E1FF"/>
<path d="M37.3516 28.2943C37.3516 34.3778 39.7608 40.2122 44.0493 44.5139C48.3377 48.8156 54.1541 51.2322 60.2189 51.2322C66.2837 51.2322 72.1001 48.8156 76.3886 44.5139C80.677 40.2122 83.0863 34.3778 83.0863 28.2943C83.0863 22.2108 80.677 16.3765 76.3886 12.0748C72.1001 7.77308 66.2837 5.35641 60.2189 5.35641C54.1541 5.35641 48.3377 7.77308 44.0493 12.0748C39.7608 16.3765 37.3516 22.2108 37.3516 28.2943Z" fill="#E1F0FF"/>
<path d="M60.2196 52.5887C53.7474 52.5887 47.6668 50.0629 43.0971 45.4697C38.5273 40.8765 36 34.7772 36 28.2943C36 21.8021 38.518 15.7028 43.0971 11.119C47.6761 6.53514 53.7567 4 60.2196 4C66.6919 4 72.7724 6.52579 77.3421 11.119C81.9119 15.7122 84.4392 21.8115 84.4392 28.2943C84.4392 34.7866 81.9212 40.8859 77.3421 45.4697C72.7631 50.0536 66.6919 52.5887 60.2196 52.5887ZM60.2196 6.71288C54.4748 6.71288 49.0657 8.95803 45.0089 13.0367C40.9428 17.1154 38.7045 22.5318 38.7045 28.2943C38.7045 34.0569 40.9428 39.4827 45.0089 43.552C49.0657 47.6307 54.4748 49.8758 60.2196 49.8758C65.9644 49.8758 71.3735 47.6307 75.4303 43.552C79.4965 39.4733 81.7347 34.0569 81.7347 28.2943C81.7347 22.5318 79.4965 17.106 75.4303 13.0367C71.3735 8.95803 65.9644 6.71288 60.2196 6.71288Z" fill="#446EB1"/>
<path d="M77.062 44.319C77.8733 43.5052 79.1883 43.5052 79.9996 44.319L92.1141 56.4709C92.9162 57.3034 92.8882 58.6225 92.0675 59.4176C91.2655 60.1941 89.9878 60.1941 89.1764 59.4176L77.062 47.2658C76.2786 46.4613 76.3066 45.1516 77.062 44.319Z" fill="#446EB1"/>
</svg>
