<svg width="14" height="15" viewBox="0 0 14 15" fill="currentColor" xmlns="http://www.w3.org/2000/svg">
<g clip-path="url(#clip0_5134_1727)">
<path d="M6.95458 14.5L6.64483 14.3617C6.42083 14.2602 1.16675 11.875 1.16675 7.49999V3.7229C1.16678 3.35556 1.28241 2.99755 1.49724 2.69959C1.71208 2.40162 2.01523 2.17882 2.36375 2.06274L7.00008 0.517487L11.637 2.06332C11.9856 2.179 12.2889 2.40165 12.5036 2.69959C12.7184 2.99753 12.8338 3.35561 12.8334 3.7229V7.49999C12.8334 12.4811 7.5035 14.3145 7.27658 14.3903L6.95458 14.5ZM7.00008 2.36199L2.91675 3.7229V7.49999C2.91675 10.2242 6.03408 12.0774 7.045 12.6059C8.06116 12.1818 11.0834 10.6547 11.0834 7.49999V3.7229L7.00008 2.36199Z" />
</g>
</svg>
