<svg width="16" height="16" viewBox="0 0 16 16" fill="currentColor" xmlns="http://www.w3.org/2000/svg">
<g clip-path="url(#clip0_5219_4332)">
<path d="M12.9582 0.582205C12.7093 0.452428 12.4213 0.639983 12.3973 0.947539C12.3796 1.17154 12.3618 1.45154 12.3493 1.77776H11.976C11.1505 1.77762 10.3412 2.00741 9.63896 2.44136C8.9367 2.87531 8.36917 3.49627 8 4.23465L7.11111 6.01243L6.22222 4.23465C5.85312 3.49641 5.28573 2.87553 4.58364 2.44159C3.88154 2.00765 3.07248 1.77779 2.24711 1.77776H0.888889C0.653141 1.77776 0.427048 1.87141 0.260349 2.03811C0.0936505 2.20481 0 2.4309 0 2.66665C0 2.9024 0.0936505 3.12849 0.260349 3.29519C0.427048 3.46189 0.653141 3.55554 0.888889 3.55554H2.24711C2.74212 3.55572 3.2273 3.69368 3.64835 3.95397C4.06939 4.21426 4.40968 4.5866 4.63111 5.02932L6.11733 7.99998L4.63289 10.9706C4.41125 11.4138 4.07055 11.7864 3.64899 12.0467C3.22743 12.307 2.74168 12.4447 2.24622 12.4444H0.888889C0.653141 12.4444 0.427048 12.5381 0.260349 12.7048C0.0936505 12.8715 0 13.0976 0 13.3333C0 13.5691 0.0936505 13.7952 0.260349 13.9619C0.427048 14.1286 0.653141 14.2222 0.888889 14.2222H2.24711C3.07248 14.2222 3.88154 13.9923 4.58364 13.5584C5.28573 13.1244 5.85312 12.5036 6.22222 11.7653L7.11111 9.98754L8 11.7653C8.36911 12.5036 8.93649 13.1244 9.63859 13.5584C10.3407 13.9923 11.1497 14.2222 11.9751 14.2222H12.3493C12.3636 14.5742 12.3831 14.8729 12.4027 15.104C12.4258 15.392 12.6889 15.5511 12.9333 15.424C13.2604 15.2533 13.7387 14.9866 14.3111 14.6151C14.7627 14.3227 15.2006 14.0095 15.6231 13.6764C15.8436 13.5022 15.8533 13.1662 15.6436 12.9991C15.3476 12.7635 14.8942 12.4222 14.312 12.0444C13.8734 11.7583 13.4216 11.4928 12.9582 11.2489C12.7093 11.1191 12.4213 11.3066 12.3973 11.6142C12.3796 11.8382 12.3618 12.1182 12.3493 12.4444H11.976C11.4807 12.4446 10.9951 12.3068 10.5737 12.0465C10.1524 11.7862 9.81179 11.4136 9.59022 10.9706L8.10489 7.99998L9.58933 5.02932C9.81097 4.58619 10.1517 4.21358 10.5732 3.95327C10.9948 3.69295 11.4805 3.55523 11.976 3.55554H12.3502C12.3644 3.90754 12.384 4.20621 12.4036 4.43732C12.4267 4.72532 12.6898 4.88443 12.9342 4.75732C13.2613 4.58665 13.7396 4.31998 14.312 3.94843C14.7636 3.65602 15.2014 3.34279 15.624 3.00976C15.8444 2.83554 15.8542 2.49954 15.6444 2.33243C15.216 1.99321 14.7717 1.67463 14.3129 1.37776C13.8743 1.09163 13.4225 0.826154 12.9591 0.582205H12.9582Z" />
</g>
</svg>
