<svg width="100" height="100" viewBox="0 0 100 100" fill="none" xmlns="http://www.w3.org/2000/svg">
<path d="M-0.000244141 50C-0.000244141 59.8333 2.83782 69 7.67922 76.6667H92.3203C97.1617 69 99.9998 59.8333 99.9998 50C99.9998 40.1667 97.1617 31 92.3203 23.3333H7.67922C2.83782 31 -0.000244141 40.1667 -0.000244141 50Z" fill="#F9F9F9"/>
<path d="M92.4872 23.3333C83.6392 9.33333 67.9463 0 50.0832 0C32.2201 0 16.5273 9.33333 7.67922 23.3333H92.4872Z" fill="#B4D7EE"/>
<path d="M7.67922 76.6667C16.5273 90.6667 32.2201 100 50.0832 100C67.9463 100 83.6392 90.6667 92.4872 76.6667H7.67922Z" fill="#B4D7EE"/>
<path d="M72.9547 49.6667L59.2652 49.1667V49C61.4355 48.6667 63.1049 47.3333 65.4422 47.5C68.2802 47.8333 69.9497 46.1667 70.9513 45.8333C72.12 45.5 72.7877 46.1667 72.7877 45.8333C72.9547 45.5 72.12 44.8333 70.4505 45C68.948 45.1667 68.4472 46.5 64.9413 46.1667C61.9363 46 60.9346 47.1667 58.7644 47.1667V47L71.1183 41.3333C71.1183 41.3333 71.4522 41.1667 71.4522 40.8333C71.2852 40.5 70.9513 40.6667 70.9513 40.6667L58.4305 45.6667V45.5C60.2669 44.3333 61.2685 42.5 63.6058 41.8333C66.2769 41 67.2786 39 68.1133 38.1667C68.948 37.3333 69.9497 37.8333 69.9497 37.5C69.9497 37.1667 68.948 36.8333 67.6124 37.6667C66.2769 38.5 66.2769 39.8333 62.938 40.8333C60.0999 41.6667 59.5991 43.1667 57.5958 44.1667L57.4288 44L66.7777 34C66.7777 34 67.1116 33.6667 66.9447 33.5C66.7777 33.3333 66.4438 33.6667 66.4438 33.6667L56.4271 43L56.2602 42.8333C57.5958 41 57.7627 39 59.5991 37.5C61.7694 35.6667 61.7694 33.5 62.2702 32.5C62.771 31.5 63.7727 31.5 63.6058 31.1667C63.4388 30.8333 62.4372 31 61.4355 32.1667C60.4338 33.5 60.9346 34.6667 58.4305 36.8333C56.2602 38.6667 56.2602 40.3333 54.9246 41.8333C54.9246 41.8333 54.7577 41.8333 54.7577 41.6667L59.4321 28.8333C59.4321 28.8333 59.5991 28.5 59.2652 28.3333C58.9313 28.1667 58.7644 28.6667 58.7644 28.6667L53.0882 41H52.9213C53.4221 38.8333 52.9213 36.8333 53.923 34.8333C55.2585 32.3333 54.4238 30.1667 54.4238 29.1667C54.5907 28 55.4255 27.6667 55.2585 27.5C55.0916 27.1667 54.0899 27.8333 53.5891 29.3333C53.2552 30.8333 54.0899 31.8333 52.5874 34.8333C51.2518 37.5 51.9196 38.8333 51.2518 40.8333H51.0849L50.5841 27.1667C50.5841 27.1667 50.5841 26.6667 50.2502 26.6667C49.9163 26.6667 49.9163 27.1667 49.9163 27.1667L49.4155 40.8333H49.2485C48.9146 38.6667 47.5791 37 47.746 34.6667C48.0799 31.8333 46.4104 30.1667 46.0766 29.1667C45.7427 28.1667 46.4104 27.3333 46.0766 27.3333C45.7427 27.1667 45.0749 28 45.2418 29.6667C45.4088 31.1667 46.7443 31.6667 46.4104 35.1667C46.2435 38.1667 47.4121 39.1667 47.4121 41.3333H47.2452L41.569 29C41.569 29 41.4021 28.6667 41.0682 28.6667C40.7343 28.8333 40.9013 29.1667 40.9013 29.1667L45.5757 42H45.4088C44.2402 40.1667 42.4038 39.1667 41.736 36.8333C40.9013 34.1667 38.8979 33.1667 38.0632 32.3333C37.2285 31.5 37.7293 30.5 37.3954 30.5C37.0615 30.5 36.7276 31.5 37.5624 32.8333C38.3971 34.1667 39.7326 34.1667 40.7343 37.5C41.569 40.3333 43.0715 40.8333 44.0732 42.8333L43.9063 43L33.8896 33.6667C33.8896 33.6667 33.5557 33.3333 33.3887 33.5C33.2218 33.6667 33.5557 34 33.5557 34L42.9046 44L42.7377 44.1667C40.9013 42.8333 38.8979 42.6667 37.3954 40.8333C35.559 38.6667 33.3887 38.6667 32.3871 38.1667C31.3854 37.6667 31.3854 36.6667 31.0515 36.8333C30.7176 37 30.8846 38 32.0532 39C33.3887 40 34.5574 39.5 36.7276 42C38.564 44.1667 40.2335 44.1667 41.736 45.5C41.736 45.5 41.736 45.6667 41.569 45.6667L28.7143 41C28.7143 41 28.3804 40.8333 28.2134 41.1667C28.0465 41.5 28.5473 41.6667 28.5473 41.6667L40.9013 47.3333V47.5C38.731 47 36.7276 47.5 34.7243 46.5C32.2201 45.1667 30.0498 46 29.0482 46C27.8796 45.8333 27.5457 45 27.3787 45.1667C27.0448 45.3333 27.7126 46.3333 29.2151 46.8333C30.7176 47.1667 31.7193 46.3333 34.7243 47.8333C37.3954 49.1667 38.731 48.5 40.7343 49.1667V49.3333L27.0448 49.8333C27.0448 49.8333 26.544 49.8333 26.544 50.1667C26.544 50.5 27.0448 50.5 27.0448 50.5L40.7343 51V51.1667C38.564 51.5 36.8946 52.8333 34.5574 52.6667C31.7193 52.3333 30.0498 54 29.0482 54.3333C27.8796 54.6667 27.2118 54 27.2118 54.3333C27.0448 54.6667 27.8796 55.3333 29.549 55.1667C31.2185 55 31.5523 53.8333 35.0582 54C38.0632 54.1667 39.0649 53 41.2352 53V53.1667L28.8812 58.8333C28.8812 58.8333 28.5473 59 28.5473 59.3333C28.5473 59.6667 29.0482 59.5 29.0482 59.5L41.9029 54.8333V55C40.0665 56.1667 39.0649 58 36.7276 58.6667C34.0565 59.5 33.0548 61.5 32.2201 62.3333C31.3854 63.1667 30.3837 62.6667 30.3837 63C30.3837 63.3333 31.3854 63.6667 32.721 62.8333C34.0565 62 34.0565 60.6667 37.3954 59.6667C40.2335 58.8333 40.7343 57.3333 42.7377 56.3333L42.9046 56.5L33.5557 66.5C33.5557 66.5 33.2218 66.8333 33.3887 67C33.5557 67.1667 33.8896 66.8333 33.8896 66.8333L43.9063 57.5L44.0732 57.6667C42.7377 59.5 42.5707 61.5 40.7343 63C38.564 64.8333 38.564 67 38.0632 68C37.5624 69 36.5607 69 36.7276 69.3333C36.8946 69.6667 37.8963 69.5 38.8979 68.3333C39.8996 67.1667 39.3988 65.8333 41.9029 63.6667C44.0732 61.8333 44.0732 60.1667 45.4088 58.6667C45.4088 58.6667 45.5757 58.6667 45.5757 58.8333L40.9013 71.6667C40.9013 71.6667 40.7343 72 41.0682 72.1667C41.4021 72.3333 41.569 71.8333 41.569 71.8333L47.2452 59.5H47.4121C46.9113 61.6667 47.4121 63.6667 46.4104 65.6667C45.0749 68.1667 45.9096 70.3333 45.7427 71.3333C45.5757 72.5 44.741 72.8333 44.9079 73C45.0749 73.3333 46.0766 72.6667 46.5774 71.1667C46.9113 69.6667 46.0766 68.8333 47.5791 65.6667C48.9146 63 48.2468 61.6667 48.9146 59.6667H49.0816L49.5824 73.3333C49.5824 73.3333 49.5824 73.8333 49.9163 73.8333C50.2502 73.8333 50.2502 73.3333 50.2502 73.3333L50.751 59.6667H50.918C51.2518 61.8333 52.5874 63.5 52.4205 65.8333C52.0866 68.6667 53.756 70.3333 54.0899 71.3333C54.4238 72.5 53.756 73.1667 54.0899 73.1667C54.4238 73.3333 55.0916 72.5 54.9246 70.8333C54.7577 69.3333 53.4221 68.8333 53.756 65.3333C53.923 62.3333 52.7543 61.3333 52.7543 59.1667H52.9213L58.5974 71.5C58.5974 71.5 58.7644 71.8333 59.0983 71.8333C59.4321 71.6667 59.2652 71.3333 59.2652 71.3333L54.4238 58.3333H54.5907C55.7594 60.1667 57.5958 61.1667 58.2635 63.5C59.0983 66.1667 61.1016 67.1667 61.9363 68C62.771 68.8333 62.2702 69.8333 62.6041 69.8333C62.938 69.8333 63.2719 68.8333 62.4372 67.5C61.6024 66.1667 60.2669 66.1667 59.2652 62.8333C58.4305 60 56.928 59.5 55.9263 57.5L56.0932 57.3333L66.1099 66.6667C66.1099 66.6667 66.4438 67 66.6108 66.8333C66.7777 66.6667 66.4438 66.3333 66.4438 66.3333L57.0949 56.3333L57.2619 56.1667C59.0983 57.5 61.1016 57.6667 62.6041 59.5C64.4405 61.6667 66.6108 61.6667 67.6124 62.1667C68.6141 62.6667 68.6141 63.6667 68.948 63.5C69.2819 63.3333 69.1149 62.3333 67.9463 61.3333C66.6108 60.3333 65.4422 60.8333 63.2719 58.3333C61.4355 56.1667 59.766 56.1667 58.2635 54.6667C58.2635 54.6667 58.2635 54.5 58.4305 54.5L71.2852 59.1667C71.2852 59.1667 71.6191 59.3333 71.7861 59C71.953 58.6667 71.4522 58.5 71.4522 58.5L59.0983 52.8333V52.6667C61.2685 53.1667 63.2719 52.6667 65.2752 53.6667C67.7794 55 69.9497 54.1667 70.9513 54.1667C72.12 54.3333 72.4538 55.1667 72.6208 55C72.9547 54.8333 72.2869 53.8333 70.7844 53.3333C69.2819 53 68.2802 53.8333 65.2752 52.3333C62.6041 51 61.2685 51.6667 59.2652 51V50.8333L72.9547 50.3333C72.9547 50.3333 73.4555 50.3333 73.4555 50C73.4555 49.6667 72.9547 49.6667 72.9547 49.6667Z" fill="#F6B40E"/>
<path d="M55.0916 48.8333C54.5907 48.3333 53.923 48 53.2552 48C52.5874 48 52.0866 48.3333 51.5857 48.8333C52.4205 49.5 53.923 49.5 55.0916 48.8333ZM54.5907 48.6667C54.2569 49 53.923 49.1667 53.5891 49.1667C53.756 49 53.923 48.8333 53.923 48.6667C53.923 48.5 53.756 48.3333 53.5891 48.1667C54.0899 48.3333 54.4238 48.5 54.5907 48.6667ZM52.7543 48.1667C52.5874 48.3333 52.5874 48.5 52.5874 48.6667C52.5874 48.8333 52.7544 49.1667 52.9213 49.1667C52.5874 49.1667 52.2535 49 51.9196 48.6667C52.2535 48.5 52.4205 48.3333 52.7543 48.1667Z" fill="#85340A"/>
<path d="M53.4221 47.5C52.4205 47.5 52.2535 47.6667 51.9196 48C51.4188 48.3333 51.2518 48.3333 51.2518 48.3333C51.2518 48.3333 51.2518 48.6667 51.4188 48.5C51.5857 48.5 51.9196 48.3333 52.2535 48C52.7543 47.6667 53.0882 47.6667 53.5891 47.6667C54.9246 47.6667 55.5924 48.6667 55.7594 48.6667C55.9263 48.6667 54.7577 47.5 53.4221 47.5Z" fill="#85340A"/>
<path d="M50.5841 47.3333C50.4171 47.6667 50.4171 47.8333 50.4171 48.1667C50.2502 49.1667 50.4171 50.3333 51.0849 51.5C51.0849 51.5 51.2518 51.3333 51.4188 51.3333C50.751 50.5 50.5841 49.5 50.5841 48.6667C50.5841 48.1667 50.918 47.8333 51.0849 47.5C52.2535 46.5 54.2569 46.6667 55.9263 48C54.4238 45.8333 52.2535 46 50.5841 47.3333Z" fill="#85340A"/>
<path d="M52.2535 49.5C51.7527 49.1667 51.5857 49 51.4188 49C51.2518 49 51.2518 49.1667 51.9196 49.5C52.5874 49.8333 53.923 50 55.0916 49C53.756 49.6667 52.7543 49.6667 52.2535 49.5Z" fill="#85340A"/>
<path d="M51.4188 52.1667C51.2518 52.1667 51.0849 52 50.918 51.8333C50.918 52 50.5841 52.3333 50.0832 52.3333C49.5824 52.3333 49.2485 51.8333 49.2485 51.8333C49.2485 52 49.0816 52.1667 48.7477 52.1667C48.5807 52.1667 48.2468 52 48.2468 51.6667C48.2468 51.5 48.4138 51.3333 48.5807 51.3333C48.2468 51.3333 48.0799 51.6667 48.0799 52C48.0799 52.3333 48.4138 52.6667 48.7477 52.6667C48.9146 52.6667 49.0816 52.5 49.2485 52.3333C49.4154 52.5 49.9163 52.5 50.0832 52.5H50.2502C50.4171 52.5 50.751 52.5 51.0849 52.3333C51.2518 52.5 51.4188 52.6667 51.5857 52.6667C51.9196 52.6667 52.2535 52.3333 52.2535 52C52.2535 51.6667 52.0866 51.5 51.7527 51.3333C51.9196 51.3333 52.0866 51.5 52.0866 51.6667C51.9196 52 51.7527 52.1667 51.4188 52.1667Z" fill="#85340A"/>
<path d="M50.0832 53.6667C50.4171 53.6667 50.751 53.3333 51.2518 53.6667C51.7527 54 52.0866 54.1667 52.4205 54.3333C51.7527 53.8333 51.4188 53.3333 50.751 53.3333C50.5841 53.3333 50.2502 53.3333 50.0832 53.5C49.7493 53.3333 49.5824 53.3333 49.4155 53.3333C48.7477 53.3333 48.4138 54 47.746 54.3333C48.0799 54.1667 48.4138 53.8333 48.9146 53.6667C49.4154 53.5 49.7493 53.6667 50.0832 53.6667Z" fill="#85340A"/>
<path d="M50.0832 54.1667C49.7493 54.1667 49.5824 54 49.0816 54.1667C48.7477 54.1667 48.4138 54.1667 47.9129 54.3333H47.746C49.2485 54.5 48.5807 55.3333 50.0832 55.3333C51.5857 55.3333 50.918 54.5 52.4205 54.3333H52.0866C50.751 53.8333 50.5841 54.1667 50.0832 54.1667ZM50.0832 55C48.9146 55 49.2485 54.1667 47.9129 54.1667C49.2485 53.8333 49.4155 54.3333 50.0832 54.3333C50.5841 54.3333 50.918 54 52.2535 54.1667C50.918 54.3333 51.2518 55 50.0832 55Z" fill="#85340A"/>
<path d="M50.0832 55.3333C49.4154 55.3333 48.7477 55.8333 48.7477 56.6667C48.9146 56 49.4154 55.6667 50.0832 55.6667C50.751 55.6667 51.2518 56.1667 51.4188 56.6667C51.4188 55.8333 50.751 55.3333 50.0832 55.3333Z" fill="#85340A"/>
<path d="M49.0816 47.5C49.4154 47.8333 49.5824 48.3333 49.5824 48.6667C49.7493 49.5 49.4155 50.3333 48.7477 51.3333C48.7477 51.3333 48.9146 51.3333 49.0816 51.5C49.5824 50.3333 49.9163 49.3333 49.7493 48.1667C49.7493 47.8333 49.5824 47.6667 49.5824 47.3333C48.0799 46 45.9096 45.8333 44.2402 48C45.9096 46.5 48.0799 46.3333 49.0816 47.5Z" fill="#85340A"/>
<path d="M48.0799 48.1667C48.5807 48.5 48.7477 48.6667 48.9146 48.6667C49.0816 48.6667 49.0816 48.5 49.0816 48.5C49.0816 48.5 48.7477 48.5 48.4138 48.1667C47.9129 47.8333 47.746 47.6667 46.9113 47.6667C45.4088 47.6667 44.574 48.8333 44.741 48.8333C44.9079 48.8333 45.5757 47.8333 46.9113 47.8333C47.2452 47.8333 47.746 47.8333 48.0799 48.1667Z" fill="#85340A"/>
<path d="M45.2418 48.8333C45.5757 49.1667 46.2435 49.3333 46.9113 49.3333C47.4121 49.3333 48.0799 49.1667 48.5807 48.8333C48.0799 48.3333 47.4121 48 46.7443 48C46.2435 48 45.5757 48.3333 45.2418 48.8333ZM45.5757 48.8333C45.9096 48.5 46.2435 48.1667 46.5774 48.1667C46.4104 48.3333 46.2435 48.5 46.2435 48.6667C46.2435 49 46.4104 49.1667 46.5774 49.1667C46.2435 49.3333 45.7427 49.1667 45.5757 48.8333ZM48.0799 48.6667C47.9129 48.8333 47.5791 49 47.2452 49.1667C47.4121 49 47.4121 48.8333 47.4121 48.6667C47.4121 48.5 47.2452 48.3333 47.2452 48.1667C47.746 48.3333 48.0799 48.5 48.0799 48.6667Z" fill="#85340A"/>
<path d="M48.9146 49C48.7477 49 48.5807 49.1667 48.0799 49.5C47.5791 49.8333 46.5774 49.8333 45.2418 49.1667C46.4104 50.1667 47.746 50 48.4138 49.6667C49.0816 49.1667 49.0816 49 48.9146 49Z" fill="#85340A"/>
</svg>
