<svg width="100" height="100" viewBox="0 0 100 100" fill="none" xmlns="http://www.w3.org/2000/svg">
<path d="M50 0V16.6667H16.6667V50H0C0 77.6667 22.3333 100 50 100C77.6667 100 100 77.6667 100 50C100 22.3333 77.6667 0 50 0Z" fill="#2A5F9E"/>
<path d="M50 0C42.1667 0 34.8333 1.83333 28.1667 5V15H15V28.1667H5C1.83333 34.8333 0 42.1667 0 50H20V25L40 50H50V37.5L36 20H50V0Z" fill="white"/>
<path d="M22.3333 20L46.6667 50H50V41.8333L32.3333 20H22.3333Z" fill="#ED4C5C"/>
<path d="M50 5H28.1667C18.1667 9.83333 9.83333 18.1667 5 28.1667V50H15V15H50V5Z" fill="#ED4C5C"/>
<path d="M10 56.1667L13.6667 51.6667L12.5 57.5L18.3333 57.6667L13.1667 60.3333L16.6667 65L11.5 62.6667L10 68.3333L8.5 62.6667L3.33334 65L6.83334 60.3333L1.66667 57.6667L7.5 57.5L6.33334 51.6667L10 56.1667Z" fill="white"/>
<path d="M83.3333 30.3333L86.3333 26.6667L85.3333 31.3333L90 31.5L85.8333 33.6667L88.6667 37.3333L84.5 35.3333L83.3333 40L82.1667 35.3333L78 37.3333L80.8333 33.6667L76.6667 31.5L81.3333 31.3333L80.3333 26.6667L83.3333 30.3333Z" fill="white"/>
<path d="M83.3333 63.6667L86.3333 60L85.3333 64.6667L90 64.8333L85.8333 67L88.6667 70.6667L84.5 68.6667L83.3333 73.3333L82.1667 68.6667L78 70.6667L80.8333 67L76.6667 64.8333L81.3333 64.6667L80.3333 60L83.3333 63.6667Z" fill="white"/>
<path d="M66.6667 40.3333L69.6667 36.6667L68.6667 41.3333L73.3333 41.5L69.1667 43.6667L72 47.3333L67.8333 45.3333L66.6667 50L65.5 45.3333L61.3333 47.3333L64.1667 43.6667L60 41.5L64.6667 41.3333L63.6667 36.6667L66.6667 40.3333Z" fill="white"/>
</svg>
