<svg width="100" height="100" viewBox="0 0 100 100" fill="none" xmlns="http://www.w3.org/2000/svg">
<path d="M96.89 67.3912C98.9 61.9748 100 56.116 100 50C100 43.884 98.9 38.0256 96.89 32.6088L50 28.2609L3.10996 32.6088C1.1002 38.0256 0 43.884 0 50C0 56.116 1.1002 61.9748 3.10996 67.3912L50 71.7391L96.89 67.3912Z" fill="#F0F0F0"/>
<path d="M50 100C71.498 100 89.8254 86.4312 96.8898 67.3912H3.10976C10.1746 86.4312 28.5016 100 50 100Z" fill="#D80027"/>
<path d="M50 0C28.5016 0 10.1746 13.5687 3.10976 32.6088H96.89C89.8254 13.5687 71.498 0 50 0Z" fill="#D80027"/>
</svg>
