<svg width="100" height="100" viewBox="0 0 100 100" fill="none" xmlns="http://www.w3.org/2000/svg">
<path d="M67.3912 3.10996C61.9746 1.1002 56.116 0 50 0C43.884 0 38.0254 1.1002 32.6088 3.10996L28.2609 50L32.6088 96.89C38.0254 98.9 43.884 100 50 100C56.116 100 61.9746 98.9 67.3912 96.89L71.7391 50L67.3912 3.10996Z" fill="#FFDA44"/>
<path d="M100 50C100 28.502 86.4312 10.1746 67.3912 3.11015V96.8904C86.4312 89.8254 100 71.4984 100 50Z" fill="#D80027"/>
<path d="M0 50C0 71.4984 13.5687 89.8254 32.6088 96.8902V3.11015C13.5687 10.1746 0 28.502 0 50Z" fill="black"/>
</svg>
