<svg width="100" height="100" viewBox="0 0 100 100" fill="none" xmlns="http://www.w3.org/2000/svg">
<path d="M99.1667 41.3333C95.1667 17.8333 74.6667 0 50 0C25.3333 0 4.83334 17.8333 0.833344 41.3333L50 16.6667L99.1667 41.3333Z" fill="#699635"/>
<path d="M0.833344 58.6667C4.83334 82.1667 25.3333 100 50 100C74.6667 100 95.1667 82.1667 99.1667 58.6667L50 83.3333L0.833344 58.6667Z" fill="#699635"/>
<path d="M50 16.6667L0.833333 41.3333C0.333333 44.1667 0 47 0 50C0 53 0.333333 55.8333 0.833333 58.6667L50 83.3333L99.1667 58.6667C99.6667 55.8333 100 53 100 50C100 47 99.6667 44.1667 99.1667 41.3333L50 16.6667Z" fill="#FFE62E"/>
<path d="M40 44C34.6667 44 29.6667 45.1667 25.1667 47.1667C25 48.1667 25 49 25 50C25 63.8333 36.1667 75 50 75C59.3333 75 67.5 69.8333 71.8333 62.3333C65.6667 51.5 53.6667 44 40 44Z" fill="#428BC1"/>
<path d="M74.6667 54C74.8333 52.6667 75 51.3333 75 50C75 36.1667 63.8333 25 50 25C40.1667 25 31.6667 30.6667 27.5 39C31.5 37.8333 35.6667 37.1667 40 37.1667C54.1667 37.1667 66.6667 43.8333 74.6667 54Z" fill="#428BC1"/>
<path d="M40 37.1667C35.6667 37.1667 31.5 37.8333 27.5 39C26.3333 41.5 25.5 44.1667 25.1667 47.1667C29.6667 45.1667 34.6667 44 40 44C53.6667 44 65.6667 51.3333 71.8333 62.1667C73.3333 59.6667 74.1667 56.8333 74.6667 54C66.6667 43.8333 54.1667 37.1667 40 37.1667Z" fill="white"/>
<path d="M33.3333 51.6667C34.2538 51.6667 35 50.9205 35 50C35 49.0795 34.2538 48.3333 33.3333 48.3333C32.4128 48.3333 31.6667 49.0795 31.6667 50C31.6667 50.9205 32.4128 51.6667 33.3333 51.6667Z" fill="white"/>
<path d="M40 61.6667C40.9205 61.6667 41.6667 60.9205 41.6667 60C41.6667 59.0795 40.9205 58.3333 40 58.3333C39.0795 58.3333 38.3333 59.0795 38.3333 60C38.3333 60.9205 39.0795 61.6667 40 61.6667Z" fill="white"/>
<path d="M50 61.6667C50.9205 61.6667 51.6667 60.9205 51.6667 60C51.6667 59.0795 50.9205 58.3333 50 58.3333C49.0795 58.3333 48.3333 59.0795 48.3333 60C48.3333 60.9205 49.0795 61.6667 50 61.6667Z" fill="white"/>
<path d="M50 68.3333C50.9205 68.3333 51.6667 67.5871 51.6667 66.6667C51.6667 65.7462 50.9205 65 50 65C49.0795 65 48.3333 65.7462 48.3333 66.6667C48.3333 67.5871 49.0795 68.3333 50 68.3333Z" fill="white"/>
<path d="M63.3333 61.6667C64.2538 61.6667 65 60.9205 65 60C65 59.0795 64.2538 58.3333 63.3333 58.3333C62.4128 58.3333 61.6667 59.0795 61.6667 60C61.6667 60.9205 62.4128 61.6667 63.3333 61.6667Z" fill="white"/>
<path d="M63.3333 68.3333C64.2538 68.3333 65 67.5871 65 66.6667C65 65.7462 64.2538 65 63.3333 65C62.4128 65 61.6667 65.7462 61.6667 66.6667C61.6667 67.5871 62.4128 68.3333 63.3333 68.3333Z" fill="white"/>
<path d="M56.6667 65C57.5871 65 58.3333 64.2538 58.3333 63.3333C58.3333 62.4128 57.5871 61.6667 56.6667 61.6667C55.7462 61.6667 55 62.4128 55 63.3333C55 64.2538 55.7462 65 56.6667 65Z" fill="white"/>
<path d="M33.3333 58.3333C34.2538 58.3333 35 57.5871 35 56.6667C35 55.7462 34.2538 55 33.3333 55C32.4128 55 31.6667 55.7462 31.6667 56.6667C31.6667 57.5871 32.4128 58.3333 33.3333 58.3333Z" fill="white"/>
</svg>
