<svg width="100" height="100" viewBox="0 0 100 100" fill="none" xmlns="http://www.w3.org/2000/svg">
<path d="M50 100C77.6142 100 100 77.6142 100 50C100 22.3858 77.6142 0 50 0C22.3858 0 0 22.3858 0 50C0 77.6142 22.3858 100 50 100Z" fill="#F0F0F0"/>
<path d="M100 50C100 30.177 88.4639 13.0488 71.7391 4.96133V95.0385C88.4639 86.9512 100 69.8231 100 50Z" fill="#D80027"/>
<path d="M0 50C0 69.8231 11.5361 86.9512 28.2609 95.0387V4.96133C11.5361 13.0488 0 30.177 0 50Z" fill="#D80027"/>
<path d="M58.6957 56.5217L67.3912 52.1738L63.0436 50V45.6522L54.3479 50L58.6957 41.3043H54.3479L50 34.7826L45.6522 41.3043H41.3043L45.6522 50L36.9565 45.6522V50L32.6088 52.1738L41.3043 56.5217L39.1305 60.8695H47.8262V67.3912H52.1738V60.8695H60.8695L58.6957 56.5217Z" fill="#D80027"/>
</svg>
