<svg width="100" height="100" viewBox="0 0 100 100" fill="none" xmlns="http://www.w3.org/2000/svg">
<path d="M50 100C77.6142 100 100 77.6142 100 50C100 22.3858 77.6142 0 50 0C22.3858 0 0 22.3858 0 50C0 77.6142 22.3858 100 50 100Z" fill="#DE2910"/>
<path d="M33.3333 44L46.6667 53.3333L41.6667 38L55 28.3333H38.5L33.3333 13.3333L28.3333 28.3333H11.6667L25 38L20 53.3333L33.3333 44Z" fill="#FFDE02"/>
<path d="M55.5 55.5L51.6667 56.3333L55.3333 57.8333V61.6667L57.8333 58.8333L61.5 60.1667L59.3333 57L61.6667 54L57.8333 54.8333L55.5 51.6667V55.5Z" fill="#FFDE02"/>
<path d="M61.1667 44.1667L58.3333 46.6667L62.1667 46.3333L63.8333 50L64.5 46.1667L68.3333 45.8333L65 43.8333L65.8333 40L63 42.5L59.6667 40.5L61.1667 44.1667Z" fill="#FFDE02"/>
<path d="M62.1667 31.1667L63.3333 35L64.5 31.3333H68.3333L65.3333 29L66.5 25.1667L63.3333 27.5L60.3333 25L61.5 28.8333L58.3333 31L62.1667 31.1667Z" fill="#FFDE02"/>
<path d="M55.5 17.8333V21.6667L57.8333 18.5L61.6667 19.3333L59.3333 16.3333L61.5 13.1667L57.8333 14.6667L55.3333 11.6667V15.5L51.6667 17L55.5 17.8333Z" fill="#FFDE02"/>
</svg>
