<svg width="100" height="100" viewBox="0 0 100 100" fill="none" xmlns="http://www.w3.org/2000/svg">
<path d="M50 0C28.1667 0 9.66667 14 2.83333 33.3333H97.1667C90.3333 14 71.8333 0 50 0Z" fill="#141414"/>
<path d="M50 100C71.8333 100 90.3333 86.1667 97.1667 66.6667H2.83333C9.66667 86.1667 28.1667 100 50 100Z" fill="#FFCD05"/>
<path d="M2.83333 33.3333C1 38.5 0 44.1667 0 50C0 55.8333 1 61.5 2.83333 66.6667H97.1667C99 61.5 100 55.8333 100 50C100 44.1667 99 38.5 97.1667 33.3333H2.83333Z" fill="#ED1F24"/>
</svg>
