<svg width="100" height="100" viewBox="0 0 100 100" fill="none" xmlns="http://www.w3.org/2000/svg">
<path d="M98.6667 38.3333C93.3333 16.3333 73.6667 0 50 0H48.3333V38.3333H98.6667Z" fill="#D91023"/>
<path d="M25 6.66667C13.3333 13.5 4.66666 24.8333 1.33333 38.3333H25V6.66667Z" fill="#D91023"/>
<path d="M1.33333 61.6667C4.66666 75.1667 13.3333 86.5 25 93.3333V61.6667H1.33333Z" fill="#D91023"/>
<path d="M48.3333 100H50C73.6667 100 93.3333 83.6667 98.6667 61.6667H48.3333V100Z" fill="#D91023"/>
<path d="M98.6667 38.3333H48.3333V0C39.8333 0.333333 31.8333 2.66667 25 6.66667V38.3333H1.33333C0.5 42 0 46 0 50C0 54 0.5 58 1.33333 61.6667H25V93.3333C31.8333 97.3333 39.8333 99.6667 48.3333 100V61.6667H98.6667C99.5 58 100 54 100 50C100 46 99.5 42 98.6667 38.3333Z" fill="#F0F0F0"/>
</svg>
