<svg width="100" height="100" viewBox="0 0 100 100" fill="none" xmlns="http://www.w3.org/2000/svg">
<path d="M100 50H0C0 59.1667 2.5 67.6667 6.66667 75H93.3333C97.5 67.6667 100 59.1667 100 50Z" fill="#2A5F9E"/>
<path d="M50 0C22.3333 0 0 22.3333 0 50H100C100 22.3333 77.6667 0 50 0Z" fill="#FFE62E"/>
<path d="M50 100C68.5 100 84.6667 90 93.3333 75H6.66667C15.3333 90 31.5 100 50 100Z" fill="#ED4C5C"/>
<path d="M38.9717 45.9217L40.3083 47.2883L40.8817 45.7267L41.0733 44.75C40.8817 42.0167 41.0733 39.2833 41.0733 39.2833L41.4567 39.675L39.9267 38.1133L38.9717 37.1383V45.9217Z" fill="#034EA2"/>
<path d="M41.0733 44.75L42.41 40.65L41.0733 39.2833V44.75Z" fill="#ED1C24"/>
<path d="M38.9717 37.1383L39.9267 38.1133L35.3417 33.43C35.15 33.2333 35.15 37.5283 35.15 42.2133L38.9717 46.1167V37.1383Z" fill="#FFDD00"/>
<path d="M40.3083 62.5133C37.0617 60.5617 36.6783 54.51 36.6783 53.5333V42.9933L37.635 43.97L33.0483 39.285C32.6667 38.895 33.0483 51.9717 33.0483 57.6333C33.0483 60.3667 34.7683 69.93 44.3217 65.05C44.3217 65.05 49.0983 63.2933 50.6267 61.1467H49.6717C49.48 61.3417 49.2883 61.3417 49.0983 61.3417C43.5567 65.245 40.3083 62.5133 40.3083 62.5133Z" fill="#FFDD00"/>
<path d="M36.6783 53.5334C36.6783 54.315 37.0617 60.3667 40.1183 62.3167C40.1183 62.3167 43.3667 65.05 49.0983 61.3417C47.3783 62.1234 46.0417 62.1234 45.085 61.9267C42.41 61.1467 39.545 58.0234 39.1633 54.705C38.78 51.3884 38.78 45.14 38.78 45.14L39.1633 45.5317L37.635 43.97L36.6783 43.1884V53.5334Z" fill="#034EA2"/>
<path d="M40.6917 49.435V46.8967C40.1183 46.3133 40.8817 47.0933 39.3533 45.53L38.9717 45.14V45.3367C38.9717 46.1167 38.9717 51.7767 39.355 54.705C39.7367 58.0234 42.6017 61.1467 45.2767 61.9267C46.2317 62.1233 47.57 62.1233 49.2883 61.3433C49.48 61.3433 49.48 61.1467 49.6717 61.1467C44.5117 60.5617 41.265 55.8767 40.6917 49.435Z" fill="#ED1C24"/>
<path d="M59.7967 62.7083C62.855 60.7567 63.4283 54.705 63.2367 53.925V43.3833L62.2817 44.36L66.8667 39.6767C67.25 39.285 66.8667 52.3633 66.8667 58.0233C66.8667 60.7567 65.1467 70.32 55.5933 65.44C55.5933 65.44 50.8167 63.685 49.2883 61.5367H50.245C50.435 61.5367 50.6267 61.7317 50.6267 61.7317C56.55 65.4417 59.7967 62.7083 59.7967 62.7083Z" fill="#FFDD00"/>
<path d="M63.2367 53.73C63.2367 54.51 62.8533 60.5617 59.7967 62.5134C59.7967 62.5134 56.55 65.2467 50.8167 61.5367C52.5367 62.3184 53.875 62.3184 54.83 62.1234C57.505 61.3417 60.37 58.2184 60.7533 54.9C61.135 51.5834 61.135 45.3367 61.135 45.3367L60.7517 45.7267L62.2817 44.165L63.2367 43.1884V53.73Z" fill="#034EA2"/>
<path d="M59.4167 49.63V47.0933L60.7533 45.7267L61.135 45.3367V45.5317C61.135 46.3117 61.135 51.9717 60.7517 54.9C60.37 58.2183 57.695 61.3417 54.83 62.3167C53.875 62.5133 52.5367 62.5133 50.8167 61.7333C50.6267 61.7333 50.6267 61.5367 50.435 61.5367C55.4017 60.7567 58.8417 56.0717 59.415 49.63" fill="#ED1C24"/>
<path d="M40.5 48.3333C40.5 55.1667 44.8333 60.6667 50 60.6667C55.1667 60.6667 59.5 55.1667 59.5 48.3333C59.5 41.5 55.1667 36 50 36C44.8333 36 40.5 41.6667 40.5 48.3333Z" fill="#8CDDEA"/>
<path d="M40.5 48.8333C40.5 55.6667 44.8333 61.1667 50 61.1667C55.3333 61.1667 59.5 55.6667 59.5 48.8333H40.5Z" fill="#6DD337"/>
<path d="M40.8333 49.1667L58.8333 49.5L59 48.1667C59 48 59.3333 47.8333 58.8333 47.8333C56.8333 47.6667 57.6667 47.5 56.5 47.5C56.1667 47.5 48.5 45.6667 47.8333 45.6667C47.1667 45.5 41.1667 46.5 41.1667 46.5L40.8333 49.1667Z" fill="#557176"/>
<path d="M40.6667 46L43.5 47.1667C43.5 47.1667 47.1667 46.5 47.5 46.6667C47.8333 46.8333 51 47.3333 51.1667 47.3333H56H55.8333C55.5 47.1667 51.8333 46.1667 51.5 46C51.3333 45.8333 48.5 44.8333 48.3333 44.5C48 44.1667 46 43 45.6667 43C45.3333 42.8333 40.6667 46 40.6667 46Z" fill="white"/>
<path d="M54 36.3333C54 36.3333 52.1667 35.1667 49.8333 35.1667C48 35.1667 46.1667 36.1667 46.1667 36.1667C44.1667 37.3333 42.5 39.5 41.5 42.1667C40.8333 44 40.3333 46.1667 40.3333 48.3333C40.3333 54.8333 43.8333 59.8333 48.3333 61.1667C48.3333 61.1667 49 61.5 49.8333 61.5C50.6667 61.5 51.5 61.3333 51.5 61.3333C56 60.1667 59.6667 55 59.6667 48.5C59.6667 40 53.1667 35.6667 54 36.3333ZM51.6667 60.5C51.6667 60.5 50.8333 60.6667 50 60.6667C49.1667 60.6667 48.3333 60.5 48.3333 60.5C44.3333 59.3333 41.1667 54.5 41.1667 48.6667C41.1667 46.6667 41.6667 44.5 42.3333 42.8333C43.3333 40.5 44.8333 38.5 46.6667 37.5C46.6667 37.5 48.5 36.3333 50 36.3333C52.1667 36.3333 53.8333 37.5 53.8333 37.5C56.8333 39.3333 59 43.6667 59 48.5C58.8333 54.5 55.6667 59.5 51.6667 60.5Z" fill="#B1BABF"/>
<path d="M44.3333 48.6667L47.1667 52.5L42.8333 55C42.8333 55 43.1667 56 44 57.1667C44.8333 58.1667 46.8333 60.3333 48.6667 60.5C50.6667 60.6667 52 60.6667 53.1667 60C54.1667 59.3333 55.6667 58.5 56.6667 56.8333C57.6667 55.3333 57.6667 55 57.6667 55C57.6667 55 51.3333 53.6667 51.1667 53.6667C51 53.5 45 48.8333 44.8333 48.6667C44.6667 48.5 46.1667 46.6667 46.1667 46.6667L44.3333 48.6667Z" fill="#034EA2"/>
<path d="M48.5 63H51.6667V71.1667H48.5V63Z" fill="#ED1C24"/>
<path d="M46 63.6667H49.1667V71.8333H46V63.6667Z" fill="#034EA2"/>
<path d="M50.8333 63.6667H54V71.8333H50.8333V63.6667Z" fill="#034EA2"/>
<path d="M45.3333 63.6667H47.3333V74H45.3333V63.6667Z" fill="#FFDD00"/>
<path d="M52.6667 63.6667H54.6667V74H52.6667V63.6667Z" fill="#FFDD00"/>
<path d="M42.5 60.1667H57.5V64.1667H42.5V60.1667Z" fill="white"/>
<path d="M59.3333 27.5C56.3333 27.5 53.1667 30.8333 50 30.8333C46.8333 30.8333 43.6667 27.5 40.6667 27.5C37.8333 27.5 26.6667 30.8333 26.6667 30.8333C42.1667 30.8333 50 39.1667 50 39.1667C50 39.1667 57.8333 30.8333 73.3333 30.8333C73.3333 30.8333 62.1667 27.5 59.3333 27.5Z" fill="#594640"/>
<path d="M50 31.5C51.1046 31.5 52 30.6046 52 29.5C52 28.3954 51.1046 27.5 50 27.5C48.8954 27.5 48 28.3954 48 29.5C48 30.6046 48.8954 31.5 50 31.5Z" fill="#F9F9F9"/>
</svg>
