<svg width="100" height="100" viewBox="0 0 100 100" fill="none" xmlns="http://www.w3.org/2000/svg">
<path d="M50 0C28.1667 0 9.66668 14 2.83334 33.3333H97.1667C90.3333 14 71.8333 0 50 0Z" fill="#CE1225"/>
<path d="M50 100C71.8333 100 90.3333 86.1667 97.1667 66.6667H2.83334C9.66668 86.1667 28.1667 100 50 100Z" fill="#141414"/>
<path d="M2.83333 33.3333C1 38.5 0 44.1667 0 50C0 55.8333 1 61.5 2.83333 66.6667H97.1667C99 61.5 100 55.8333 100 50C100 44.1667 99 38.5 97.1667 33.3333H2.83333Z" fill="#F9F9F9"/>
<path d="M47.6667 38.5C48.1667 38.1667 48.5 38.5 48.8333 38.8333C49 39.1667 49 40.1667 48.6667 41.3333C48.5 42 48 42.6667 47.6667 43.1667C48.3333 43.1667 49.1667 43 50 42.6667C50.8333 43 51.5 43.1667 52.3333 43.1667C52 42.5 51.6667 41.1667 51.8333 40.1667C51.8333 38.6667 51.6667 38.1667 51.3333 37.8333C51 37.5 50.1667 37.3333 49.6667 37.3333C49.3333 37.3333 49.3333 37.5 49.3333 37.5C48.6667 37.3333 48.1667 37.3333 47.8333 37.5C47.5 37.8333 47.5 38.6667 47.6667 38.5Z" fill="#F0F0F0"/>
<path d="M58.8333 43.5C58.5 41.6667 56.6667 42.1667 55.1667 43C54.5 43.3333 53.8333 43.6667 53.1667 43.6667H52.6667C51.8333 43.6667 50.8333 43.5 50 43.1667C49.1667 43.5 48.1667 43.6667 47.3333 43.6667H47C46.1667 43.6667 45.5 43.3333 44.8333 42.8333C43.5 42.1667 41.6667 41.6667 41.1667 43.3333C41.5 43.1667 41.8333 42.8333 42 42.8333L41.3333 58.8333L41.6667 58.5L42.3333 43C42.5 43.1667 43.1667 43.8333 43.3333 43.8333L42.8333 57.3333L43.3333 56.8333L43.8333 44C44 44.1667 44.5 44.5 44.6667 44.6667L44.1667 55.8333L45.5 54.6667L46.8333 50.1667C45.6667 47.6667 45.8333 45.5 45.8333 45.5H46.1667C47 45.5 48.8333 45 49.6667 44.5C49.8333 44.5 49.8333 44.3333 50 44.3333C50 44.5 50.1667 44.5 50.3333 44.6667C51.1667 45.1667 53 45.6667 53.8333 45.6667H54.1667C54.1667 45.6667 54.3333 47.8333 53.1667 50.3333L54.3333 54.6667L55.6667 55.8333L55.1667 44.8333C55.3333 44.6667 55.6667 44.3333 56 44.1667L56.5 56.6667L57 57.1667L56.5 43.8333C56.6667 43.6667 57.3333 43.1667 57.5 43L58.1667 58.3333L58.5 58.6667L57.8333 42.8333C58 43 58.5 43.3333 58.8333 43.5Z" fill="#F0F0F0"/>
<path d="M48.5 46.1667V52.6667C48.5 52.6667 48.5 52.8333 48.6667 52.8333C48.8333 53.1667 49.1667 53.3333 49.3333 53.6667L49.8333 54.1667L50.3333 53.6667L51.1667 52.8333V46.5C50.6667 46.3333 50.1667 46.1667 49.8333 45.8333C49.6667 45.6667 49.1667 45.8333 48.5 46.1667Z" fill="#F0F0F0"/>
<path d="M57.1667 59.8333C57.1667 59 56.3333 59 55.6667 59.1667C55.5 59.1667 55.5 59.1667 55.3333 59.3333L54.3333 55.6667L59.8333 61L59.1667 43.6667C59 41 56.8333 41.6667 55.3333 42.6667C54.5 43.1667 53.8333 43.5 53 43.5C51.8333 41.5 52.5 38.8333 51.6667 38.1667C51.3333 37.8333 50.1667 37.3333 49.3333 37.3333C48.8333 37.3333 49 37.6667 49 37.6667C48.1667 37.5 47.5 37.5 47.1667 37.8333C46.8333 38 47.1667 39.6667 47.3333 39.3333C47.8333 38.8333 48 39 48.3333 39.5C48.6667 40 48 42 47.1667 43.5C46.1667 43.5 45.3333 43.1667 44.5 42.6667C42.8333 41.6667 40.6667 41.1667 40.6667 43.6667L40 60.8333L45.5 55.6667L44.5 59.1667C44.3333 59.1667 44.3333 59.1667 44.1667 59C43.5 58.8333 42.6667 58.8333 42.6667 59.6667C41.6667 59.5 41.3333 61 42.3333 61.3333C42.3333 61.8333 42.3333 62.1667 43 62.1667C44.5 62.6667 47.1667 62.8333 49.8333 62.8333C52.5 62.8333 55.1667 62.6667 56.6667 62.1667C57.3333 62 57.3333 61.6667 57.3333 61.3333C58.6667 61 58.1667 59.5 57.1667 59.8333ZM48.6667 52.6667C48.6667 52.5 48.6667 52.5 48.6667 52.6667L48.5 52.5V46.1667C49.1667 46 49.6667 45.8333 50 45.5C50.3333 45.8333 50.8333 46 51.3333 46.1667V52.5C51 52.8333 50.8333 53.1667 50.5 53.3333L50 53.8333L49.5 53.3333C49.1667 53.1667 49 52.8333 48.6667 52.6667ZM48.6667 41.5C49 40.3333 49 39.3333 48.8333 39C48.5 38.6667 48.1667 38.3333 47.6667 38.6667C47.5 38.8333 47.5 38 47.8333 37.8333C48.1667 37.6667 48.6667 37.6667 49.3333 37.8333C49.3333 37.8333 49.3333 37.5 49.6667 37.6667C50.1667 37.6667 51.1667 38 51.3333 38.1667C51.5 38.3333 51.8333 39 51.8333 40.5C51.8333 41.5 52 42.8333 52.3333 43.5C51.6667 43.5 50.8333 43.3333 50 43C49.1667 43.3333 48.5 43.5 47.6667 43.5C48 42.8333 48.5 42.1667 48.6667 41.5ZM44.3333 56.3333L44.8333 45.1667C44.6667 45 44.3333 44.6667 44 44.5L43.3333 57.1667L42.8333 57.6667L43.3333 44.1667C43.1667 44 42.5 43.5 42.3333 43.3333L41.6667 58.8333L41.3333 59.1667L42 43.1667C41.8333 43.1667 41.3333 43.3333 41.1667 43.6667C41.6667 42 43.5 42.5 44.8333 43.3333C45.5 43.8333 46.3333 44 47 44.1667H47.3333C48.1667 44.1667 49 44 50 43.6667C51 44 51.8333 44.1667 52.6667 44.1667H53.1667C53.8333 44 54.5 43.8333 55.1667 43.5C56.6667 42.6667 58.5 42.1667 58.8333 44C58.5 43.8333 58 43.5 57.8333 43.5L58.5 59.3333L58.1667 59L57.5 43.3333C57.3333 43.5 56.6667 44.1667 56.5 44.1667L57 57.5L56.5 57L56 44.5C55.8333 44.6667 55.3333 45 55.1667 45.1667L55.6667 56.1667L54.3333 55L53.1667 50.6667C54.3333 48.1667 54.1667 46 54.1667 46H53.8333C53 46 51.1667 45.6667 50.3333 45C50.1667 45 50.1667 44.8333 50 44.6667C50 44.6667 49.8333 44.8333 49.6667 44.8333C48.8333 45.3333 47 45.8333 46.1667 45.8333H45.8333C45.8333 45.8333 45.6667 48 46.8333 50.5L45.5 55L44.3333 56.3333ZM50 59.6667H48.1667L49.3333 54C49.5 54.1667 49.6667 54.3333 50 54.5C50.1667 54.3333 50.5 54.1667 50.6667 54L52 59.6667H50Z" fill="#C09300"/>
</svg>
