<svg width="100" height="100" viewBox="0 0 100 100" fill="none" xmlns="http://www.w3.org/2000/svg">
<path d="M50 100C77.6142 100 100 77.6142 100 50C100 22.3858 77.6142 0 50 0C22.3858 0 0 22.3858 0 50C0 77.6142 22.3858 100 50 100Z" fill="#F0F0F0"/>
<path d="M99.5768 43.4783H56.5221H56.5219V0.423242C54.3869 0.145313 52.2104 0 50 0C47.7896 0 45.6131 0.145313 43.4783 0.423242V43.4779V43.4781H0.423242C0.145313 45.6131 0 47.7893 0 50C0 52.2107 0.145313 54.3869 0.423242 56.5217H43.4779H43.4781V99.5768C45.6131 99.8547 47.7896 100 50 100C52.2104 100 54.3869 99.8549 56.5217 99.5768V56.5221V56.5219H99.5768C99.8547 54.3869 100 52.2107 100 50C100 47.7893 99.8547 45.6131 99.5768 43.4783Z" fill="#D80027"/>
</svg>
