<svg width="100" height="100" viewBox="0 0 100 100" fill="none" xmlns="http://www.w3.org/2000/svg">
<path d="M0 50C0 59.8333 2.83806 69 7.67947 76.6667H92.3205C97.1619 69 100 59.8333 100 50C100 40.1667 97.1619 31 92.3205 23.3333H7.67947C2.83806 31 0 40.1667 0 50Z" fill="#FFCE31"/>
<path d="M92.4875 23.3333C83.6394 9.33333 67.9466 0 50.0835 0C32.2204 0 16.5275 9.33333 7.67946 23.3333H92.4875Z" fill="#C60A1D"/>
<path d="M7.67946 76.6667C16.5275 90.6667 32.2204 100 50.0835 100C67.9466 100 83.6394 90.6667 92.4875 76.6667H7.67946Z" fill="#C60A1D"/>
<path d="M12.02 44.5H17.3623V47.5H12.02V44.5Z" fill="#FFC400"/>
<path d="M12.02 66.5H17.5292V69.3333H12.02V66.5Z" fill="#FFC400"/>
<path d="M11.5192 61.8333C11.0184 62.1667 10.6845 62.5 10.6845 62.6667C10.6845 62.8333 10.8514 63 11.1853 63.1667C11.5192 63.3333 11.8531 63.6667 11.6861 64C12.02 63.6667 12.187 63.3333 12.187 63C12.187 62.5 11.8531 62 11.5192 61.8333Z" fill="#C60A1D"/>
<path d="M12.8548 47.5H16.6945V66.5H12.8548V47.5Z" fill="white"/>
<path d="M20.7012 54.5C19.8664 54.1667 18.3639 53.8333 16.6945 53.8333C16.1936 53.8333 15.5259 53.8333 14.8581 54C12.5209 54.3333 10.6845 55.3333 10.8514 56L10.0167 54.1667C9.84974 53.3333 11.8531 52.3333 14.3573 51.8333C15.192 51.6667 16.0267 51.6667 16.6945 51.6667C18.3639 51.6667 19.8664 51.8333 20.7012 52.1667V54.5Z" fill="#C60A1D"/>
<path d="M12.8548 57C11.8531 57 11.0184 56.6667 11.0184 56.1667C11.0184 55.8333 11.3523 55.3333 12.02 55H13.0217L12.8548 57Z" fill="#C60A1D"/>
<path d="M16.6945 55.5C17.3623 55.6667 17.8631 55.8333 18.197 56C18.3639 56.1667 17.6962 56.8333 16.6945 57.3333V55.5Z" fill="#C60A1D"/>
<path d="M10.3506 60.6667C10.1836 60.3333 11.3522 59.6667 12.8547 59.1667C13.5225 59 14.0234 58.6667 14.8581 58.3333C16.8614 57.5 18.5309 56.3333 18.197 56L18.5309 58C18.6978 58.3333 17.3623 59.3333 15.3589 60.3333C14.6911 60.6667 13.5225 61.1667 12.8547 61.3333C11.6861 61.6667 10.6845 62.3333 10.6845 62.5L10.3506 60.6667Z" fill="#C60A1D"/>
<path d="M47.9132 44.5H53.2554V47.5H47.9132V44.5Z" fill="#FFC400"/>
<path d="M47.7462 66.5H53.2554V69.3333H47.7462V66.5Z" fill="#FFC400"/>
<path d="M53.7563 61.8333C54.2571 62.1667 54.591 62.5 54.591 62.6667C54.591 62.8333 54.424 63 54.0902 63.1667C53.7563 63.5 53.4224 64 53.5893 64.1667C53.2554 63.8333 53.0885 63.5 53.0885 63.1667C53.0885 62.5 53.4224 62 53.7563 61.8333Z" fill="#C60A1D"/>
<path d="M48.581 47.5H52.4207V66.5H48.581V47.5Z" fill="white"/>
<path d="M44.5743 54.5C45.409 54.1667 46.9115 53.8333 48.581 53.8333C49.0818 53.8333 49.7496 53.8333 50.4174 54C52.7546 54.3333 54.591 55.3333 54.424 56L55.2588 54C55.4257 53.1667 53.4224 52.1667 50.9182 51.6667H48.581C46.9115 51.6667 45.409 51.8333 44.5743 52.1667V54.5Z" fill="#C60A1D"/>
<path d="M52.4207 57C53.4224 57 54.2571 56.6667 54.2571 56.1667C54.2571 55.8333 53.9232 55.3333 53.2554 55H52.2538L52.4207 57Z" fill="#C60A1D"/>
<path d="M48.581 55.5C47.9132 55.6667 47.4124 55.8333 47.0785 56C46.9115 56.1667 47.5793 56.8333 48.581 57.3333V55.5Z" fill="#C60A1D"/>
<path d="M54.9249 60.6667C55.0918 60.3333 53.9232 59.6667 52.4207 59.1667C51.7529 59 51.2521 58.6667 50.4174 58.3333C48.414 57.5 46.7446 56.3333 47.0785 56L46.7446 58C46.5776 58.3333 47.9132 59.3333 49.9165 60.3333C50.5843 60.6667 51.7529 61.1667 52.4207 61.3333C53.5893 61.6667 54.591 62.5 54.424 62.6667L54.9249 60.6667Z" fill="#C60A1D"/>
<path d="M32.5543 33.8333C35.7262 33.8333 42.2371 34.5 44.5743 36.8333C42.0701 42.8333 38.0634 40.3333 32.5543 40.3333C27.212 40.3333 23.0384 42.8333 20.5342 36.8333C22.8715 34.5 29.2154 33.8333 32.5543 33.8333Z" fill="#C60A1D"/>
<path d="M40.7346 40.5C38.7312 39.3333 35.7262 39.1667 32.5543 39.1667C29.3823 39.1667 26.3773 39.5 24.374 40.5L25.0417 43.3333C26.8781 43.8333 29.5493 44.1667 32.5543 44.1667C35.5593 44.1667 38.0634 43.8333 40.0668 43.3333L40.7346 40.5Z" fill="#FFC400"/>
<path d="M43.5726 33.3333C42.9048 32.8333 41.5693 32.3333 40.4007 32.3333C39.8998 32.3333 39.399 32.3333 38.8982 32.5C38.8982 32.5 37.8965 31.1667 35.5593 31.1667C34.7245 31.1667 34.0568 31.3333 33.389 31.6667V31.5C33.222 31.1667 32.8881 30.8333 32.5542 30.8333C32.2204 30.8333 31.7195 31.3333 31.7195 31.6667V31.8333C31.0517 31.5 30.384 31.3333 29.5492 31.3333C27.212 31.3333 26.2103 32.8333 26.2103 32.6667C25.7095 32.5 25.2087 32.5 24.7078 32.5C17.0284 32.5 20.8681 37.6667 20.8681 37.6667L21.7028 36.6667C19.8664 34.3333 21.5359 33 24.8748 33C25.3756 33 25.7095 33 26.0434 33.1667C24.8748 34.8333 27.0451 36.3333 27.0451 36.3333L27.5459 35.5C26.3773 34.6667 26.2103 31.8333 29.5492 31.8333C30.384 31.8333 31.0517 32 31.7195 32.5C31.7195 32.6667 31.5526 35 31.3856 35.3333L32.7212 36.5L34.0568 35.3333C33.8898 34.8333 33.7229 32.6667 33.7229 32.5C34.2237 32.1667 35.0584 31.8333 35.8931 31.8333C39.399 31.8333 39.399 34.6667 37.8965 35.5L38.3973 36.3333C38.3973 36.3333 40.2337 34.8333 39.399 33.1667C39.7329 33.1667 40.2337 33 40.5676 33C44.5743 33 44.7412 36 43.7396 36.6667L44.4073 37.6667C44.0734 37.6667 45.9098 35.3333 43.5726 33.3333Z" fill="#FFC400"/>
<path d="M31.5526 30.1667C31.5526 29.6667 32.0534 29.1667 32.5543 29.1667C33.222 29.1667 33.5559 29.6667 33.5559 30.1667C33.5559 30.6667 33.0551 31.1667 32.5543 31.1667C32.0534 31.1667 31.5526 30.6667 31.5526 30.1667Z" fill="#005BBF"/>
<path d="M32.2204 27.3333V27.8333H31.7195V28.3333H32.2204V30H31.5526V30.5H33.5559L33.7229 30.1667L33.5559 30H32.8881V28.3333H33.389V27.8333H32.8881V27.3333H32.2204Z" fill="#FFC400"/>
<path d="M32.5543 43.8333C29.8831 43.8333 27.5459 43.5 25.7095 43C27.5459 42.5 29.8831 42.1667 32.5543 42.1667C35.2254 42.1667 37.5626 42.5 39.399 43C37.7296 43.5 35.2254 43.8333 32.5543 43.8333Z" fill="#C60A1D"/>
<path d="M32.7212 72.6667C29.5493 72.6667 26.5442 71.8333 23.8731 70.6667C21.8698 69.6667 20.7012 67.8333 20.7012 65.6667V57.6667H44.7412V65.6667C44.7412 67.8333 43.4057 69.8333 41.5693 70.6667C38.8982 72 35.8932 72.6667 32.7212 72.6667Z" fill="white"/>
<path d="M32.5543 44.3333H44.5743V57.6667H32.5543V44.3333Z" fill="white"/>
<path d="M32.7212 65.6667C32.7212 68.8333 30.0501 71.3333 26.7112 71.3333C23.3723 71.3333 20.7012 68.8333 20.7012 65.6667V57.6667H32.7212V65.6667Z" fill="#C60A1D"/>
<path d="M23.2053 70.3333C23.5392 70.5 24.0401 70.8333 24.7078 71V57.3333H23.3723L23.2053 70.3333Z" fill="#FFC400"/>
<path d="M20.5342 65.5C20.5342 67.1667 21.202 68.5 21.8698 69.1667V57.3333H20.5342V65.5Z" fill="#FFC400"/>
<path d="M25.8765 71.3333H27.212V57.3333H25.8765V71.3333Z" fill="#C7B500"/>
<path d="M28.5476 71C29.0484 70.8333 29.7162 70.5 30.0501 70.3333V57.3333H28.7145L28.5476 71Z" fill="#FFC400"/>
<path d="M20.5342 44.3333H32.5543V57.6667H20.5342V44.3333Z" fill="#C60A1D"/>
<path d="M31.3857 69.1667C32.0534 68.6667 32.5543 67.5 32.7212 66.1667V57.5H31.3857V69.1667Z" fill="#FFC400"/>
<path d="M44.7412 57.6667V65.6667C44.7412 68.8333 42.0701 71.3333 38.7312 71.3333C35.3923 71.3333 32.7212 68.8333 32.7212 65.6667V57.6667H44.7412Z" fill="#C60A1D"/>
<path d="M40.4007 46.6667C40.9015 47.6667 40.9015 50.1667 39.399 49.6667C39.7329 49.8333 39.8998 51 40.4007 51.6667C41.2354 52.6667 42.2371 51.8333 42.0701 50.6667C41.7362 48.8333 41.9032 47.6667 42.2371 45.8333C42.2371 46 43.0718 46 43.4057 45.6667C43.2387 46.1667 43.0718 46.8333 43.4057 46.8333C43.0718 47.3333 42.2371 48.1667 42.0701 48.6667C41.9032 49.8333 43.7396 52 41.7362 52.5C40.4007 52.8333 41.2354 53.8333 41.7362 54.3333C41.7362 54.3333 41.0685 56.5 41.4023 56.3333C40.0668 56.8333 40.4007 55.6667 40.4007 55.6667C41.0685 53.6667 39.2321 53.5 39.399 53.1667C37.7296 53 39.566 54.6667 38.0634 54.6667C37.7296 54.6667 37.0618 55 37.0618 55C35.2254 54.8333 36.2271 53.1667 36.8948 53.3333C37.3957 53.5 37.8965 54.3333 37.8965 53.1667C37.8965 53.1667 37.0618 51.8333 39.2321 51.8333C38.3973 51.8333 37.8965 51.1667 37.5626 50.3333C37.2287 50.5 36.7279 51.3333 34.8915 51.5C34.8915 51.5 34.3907 49.6667 34.8915 50C35.5593 50.3333 35.8932 50.3333 36.5609 49.6667C36.2271 49.1667 34.2237 48.5 34.5576 47.3333C34.5576 47 35.5593 46.5 35.5593 46.5C35.3923 47.3333 35.8932 48.1667 36.8948 48.1667C38.2304 48.3333 37.7296 47.8333 37.8965 47.5C38.0634 47.1667 39.0651 47.6667 38.7312 46.8333C38.7312 46.6667 37.5626 46.5 37.8965 46C38.5643 45.1667 39.566 45.8333 40.4007 46.6667Z" fill="#C60A1D"/>
<path d="M32.7212 71L32.3873 70.1667L32.7212 69.1667L33.0551 70.1667L32.7212 71Z" fill="#C60A1D"/>
<path d="M24.207 47.1667V48H24.5409V48.6667H23.7062V50.3333H24.207V54H23.2053V55.8333H30.0501V54H29.2154V50.3333H29.5492V48.6667H28.7145V48H29.2154V47.1667H27.5459V48H27.8798V48.6667H27.0451V46.6667H27.5459V45.8333H25.7095V46.6667H26.2103V48.6667H25.3756V48H25.7095V47.1667H24.207Z" fill="#FFC400"/>
<path d="M43.0718 67.6667V59.3333H34.3907V67.6667L38.3973 69.5H38.8982L43.0718 67.6667ZM38.3973 60V62.8333L35.5593 60H38.3973ZM34.8915 60.1667L38.2304 63.5L34.8915 66.8333V60.1667ZM35.2254 67.5L38.3973 64.3333V69L35.2254 67.5ZM38.8982 68.8333V64.1667L42.0701 67.3333L38.8982 68.8333ZM42.404 66.8333L39.0651 63.5L42.404 60.1667V66.8333ZM38.8982 60H41.7362L38.8982 62.8333V60Z" fill="#FFC400"/>
<path d="M28.7145 57.5C28.7145 55 30.384 53.1667 32.5542 53.1667C34.7245 53.1667 36.394 55.1667 36.394 57.5C36.394 59.8333 34.7245 61.8333 32.5542 61.8333C30.384 61.8333 28.7145 60 28.7145 57.5Z" fill="#C60A1D"/>
<path d="M29.8831 57.5C29.8831 55.6667 31.0517 54.3333 32.5543 54.3333C34.0568 54.3333 35.2254 55.8333 35.2254 57.5C35.2254 59.3333 34.0568 60.6667 32.5543 60.6667C31.2187 60.8333 29.8831 59.3333 29.8831 57.5Z" fill="#005BBF"/>
<path d="M31.3856 55.3333L30.7179 57.1667L31.2187 57.3333L30.8848 58H31.8865L31.5526 57.3333L32.0534 57.1667L31.3856 55.3333Z" fill="#FFC400"/>
<path d="M33.8898 55.3333L33.222 57.1667L33.7229 57.3333L33.389 58H34.3906L34.2237 57.3333L34.7245 57.1667L33.8898 55.3333Z" fill="#FFC400"/>
<path d="M32.7212 57.5L31.8865 59.3333L32.3873 59.5L32.2204 60.1667H33.0551L32.8881 59.5L33.389 59.3333L32.7212 57.5Z" fill="#FFC400"/>
</svg>
