<svg width="100" height="100" viewBox="0 0 100 100" fill="none" xmlns="http://www.w3.org/2000/svg">
<path d="M0 50C0 71.8333 14 90.3333 33.3333 97.1667V2.83333C14 9.66667 0 28.1667 0 50Z" fill="#002495"/>
<path d="M100 50C100 28.1667 86.1667 9.66667 66.6667 2.83333V97.1667C86.1667 90.3333 100 71.8333 100 50Z" fill="#ED2939"/>
<path d="M33.3333 97.1667C38.5 99 44.1667 100 50 100C55.8333 100 61.5 99 66.6667 97.1667V2.83333C61.5 1 56 0 50 0C44 0 38.5 1 33.3333 2.83333V97.1667Z" fill="#F0F0F0"/>
</svg>
