<svg width="100" height="100" viewBox="0 0 100 100" fill="none" xmlns="http://www.w3.org/2000/svg">
<path d="M8.80595 21.6688C5.58162 26.3488 3.13123 31.6036 1.64542 37.2515H24.3895L8.80595 21.6688Z" fill="#29337A"/>
<path d="M35.9971 2.00135C30.2362 3.67907 24.901 6.35619 20.2029 9.848L35.9971 25.6422V2.00135Z" fill="#29337A"/>
<path d="M21.3775 90.9859C25.7843 94.0696 30.7077 96.4569 35.9971 97.9972V76.3687L21.3775 90.9859Z" fill="#29337A"/>
<path d="M2.21922 64.7633C3.87245 70.1184 6.4058 75.0866 9.64343 79.506L24.3861 64.7633H2.21922Z" fill="#29337A"/>
<path d="M9.63077 20.5084C9.35125 20.8905 9.07575 21.2781 8.80574 21.6697L24.3893 37.2524H1.64521C1.2766 38.6552 0.975767 40.0851 0.727921 41.5346H30.6587L9.63077 20.5084Z" fill="white"/>
<path d="M20.2177 90.1609C20.5981 90.4444 20.9891 90.7142 21.3773 90.9859L35.9969 76.368V97.9965C37.4014 98.4072 38.8279 98.7616 40.2791 99.0466V70.1001L20.2177 90.1609Z" fill="white"/>
<path d="M1.10835 60.4811C1.41869 61.9321 1.78497 63.3611 2.21838 64.7633H24.3855L9.64281 79.506C11.2462 81.6967 13.0242 83.7525 14.9561 85.6536L40.1284 60.4811H1.10835Z" fill="white"/>
<path d="M35.9971 2.00135V25.6422L20.2027 9.84884C18.0252 11.4681 15.9899 13.2657 14.104 15.2117L40.2785 41.3862V0.951275C38.8281 1.23797 37.4016 1.59327 35.9971 2.00135Z" fill="white"/>
<path d="M35.9971 64.6124L35.847 64.7633H35.9971V64.6124Z" fill="#D32030"/>
<path d="M40.1292 60.4811H40.2791V60.3304L40.1292 60.4811Z" fill="#D32030"/>
<path d="M59.3711 41.5337H59.2267V41.679L59.3711 41.5337Z" fill="#D32030"/>
<path d="M36.1447 37.2524L35.9971 37.104V37.2524H36.1447Z" fill="#D32030"/>
<path d="M40.2791 41.386V41.5337H40.4269L40.2791 41.386Z" fill="#D32030"/>
<path d="M63.5081 86.9287V98.1369C68.8663 96.637 73.8621 94.2725 78.3305 91.1919L66.186 79.0475C65.2156 82.4571 64.8605 84.2199 63.5081 86.9287Z" fill="#252F6C"/>
<path d="M66.2498 22.8996L79.5075 9.64195C74.7446 6.15394 69.3413 3.49582 63.5079 1.8616V13.3753C65.0671 16.4976 65.1982 18.8701 66.2498 22.8996Z" fill="#252F6C"/>
<path d="M90.1514 79.7973C93.4901 75.3059 96.0923 70.236 97.7825 64.7633H75.1174L90.1514 79.7973Z" fill="#252F6C"/>
<path d="M98.3548 37.2524C96.8373 31.4852 94.3135 26.1318 90.9874 21.3784L75.1117 37.2524H98.3548Z" fill="#252F6C"/>
<path d="M69.1686 61.3283L72.6045 64.7642L89.0508 81.2105C89.4243 80.7431 89.7952 80.2774 90.1522 79.7982L75.1182 64.7642H97.7833C98.2153 63.3628 98.5822 61.9332 98.8917 60.482H69.49C69.4418 61.0891 69.2263 60.7252 69.1686 61.3283Z" fill="#E7E7E7"/>
<path d="M65.7304 25.407L80.6365 10.4993C80.263 10.2096 79.8889 9.92147 79.5075 9.64195L66.2498 22.8996C66.3872 23.4238 65.6025 24.8702 65.7304 25.407Z" fill="#E7E7E7"/>
<path d="M63.5081 12.454V1.86075C62.1052 1.46766 60.677 1.13452 59.2258 0.86282V6.03002C60.8191 7.75735 62.2473 9.92696 63.5081 12.454Z" fill="#E7E7E7"/>
<path d="M68.8315 41.5337H99.2729C99.0257 40.0842 98.7243 38.6552 98.3556 37.2515H75.1125L90.9882 21.3775C89.4275 19.148 87.693 17.0512 85.7982 15.1083L67.9165 32.9883C68.3981 36.2316 68.6136 38.1152 68.8315 41.5337Z" fill="#E7E7E7"/>
<path d="M65.4636 78.3234L78.3314 91.1926C80.4716 89.7186 82.4871 88.078 84.3677 86.2971L67.4422 69.3707C66.9019 72.5011 66.261 75.5246 65.4636 78.3234Z" fill="#E7E7E7"/>
<path d="M59.2267 93.3755V99.1347C60.6777 98.8646 62.1052 98.5298 63.5089 98.1367V86.9285C62.2473 89.4566 60.8191 91.6505 59.2267 93.3755Z" fill="#E7E7E7"/>
<path d="M67.9165 32.9883L85.7965 15.1083C84.1868 13.4551 82.4609 11.9165 80.6357 10.4993L66.5861 24.5512C67.2106 27.1612 67.4941 30.1486 67.9165 32.9883Z" fill="#D71F28"/>
<path d="M47.5044 0.061645C48.3375 0.0213224 49.168 0 49.9991 0C49.1631 0 48.3311 0.0213224 47.5044 0.061645Z" fill="#D32030"/>
<path d="M49.9991 100C49.1678 100 48.3373 99.9772 47.5059 99.9369C48.3326 99.9787 49.1631 100 49.9991 100Z" fill="#D32030"/>
<path d="M49.9991 100C53.1538 100 56.2344 99.6945 59.2265 99.1347V93.3755C56.6 96.2223 53.5275 100 49.9991 100Z" fill="#D32030"/>
<path d="M99.2721 41.5337H69.2263C69.6242 47.8046 69.5761 54.2531 69.0825 60.4811H98.8917C99.6133 57.0997 100 53.5961 100 50.0008C100 47.1128 99.7427 44.2881 99.2721 41.5337Z" fill="#D71F28"/>
<path d="M69.1686 61.3283C68.8908 64.2826 67.9229 66.5846 67.4413 69.3715L84.3669 86.2971C86.0414 84.7101 87.6068 83.0128 89.05 81.2105L72.6043 64.7633L69.1686 61.3283Z" fill="#D71F28"/>
<path d="M59.2267 6.40179V0.863663C56.2354 0.305481 53.1549 0 49.9992 0C53.5275 0 56.6 3.55578 59.2267 6.40179Z" fill="#D32030"/>
<path d="M63.5081 89.0912C64.8605 86.3817 66.0201 83.2625 66.9912 79.8535L63.5081 76.3703V89.0912Z" fill="#29337A"/>
<path d="M67.4246 21.7248C66.3714 17.6953 65.0674 14.032 63.5081 10.9097V25.6397L67.4246 21.7248Z" fill="#29337A"/>
<path d="M70.1389 62.2978C70.1957 61.6946 70.247 61.0891 70.296 60.4811H68.3223L70.1389 62.2978Z" fill="white"/>
<path d="M63.5081 25.6399V10.9091C62.2465 8.38203 60.8191 6.21094 59.2258 4.4851V31.9099L67.8255 23.3103C67.6961 22.7734 67.5602 22.2475 67.4244 21.7233L63.5081 25.6399Z" fill="white"/>
<path d="M59.3711 41.5337H70.4395C70.2225 38.1154 69.8767 34.7522 69.3958 31.5097L59.3711 41.5337Z" fill="white"/>
<path d="M59.2267 95.5143C60.82 93.787 62.2473 91.6173 63.5089 89.0903V76.3695L66.9921 79.8526C67.7909 77.0524 68.4612 74.061 69.0029 70.9308L59.2269 61.1554L59.2267 95.5143Z" fill="white"/>
<path d="M59.2267 95.5143V61.1554L69.0021 70.9314C69.4828 68.1437 69.8611 65.2527 70.1381 62.2978L68.3214 60.4811H70.2951C70.7885 54.2529 70.8366 47.8044 70.4389 41.5337H59.3705L69.3945 31.5097C68.9721 28.6691 68.4496 25.9217 67.8251 23.3109L59.2269 31.9106V4.48573C56.6 1.63887 53.5275 0 49.9992 0C49.1678 0 48.3373 0.0213224 47.5044 0.061645C45.0452 0.184724 42.6334 0.487249 40.2791 0.951486V41.3862L14.104 15.2117C12.4958 16.8713 10.9998 18.6396 9.63076 20.5084L26.3748 37.2524L30.6585 41.5346H0.727918C0.259036 44.2881 0 47.1128 0 50.0008C0 53.5969 0.388448 57.0997 1.10834 60.4811H40.1292L14.9567 85.6536C16.6051 87.2728 18.3601 88.7808 20.2179 90.1607L40.2785 70.1001V99.047C42.6326 99.5113 45.046 99.8136 47.5053 99.9369C48.3366 99.9772 49.1672 100 49.9985 100C53.5275 100 56.6 98.3611 59.2267 95.5143Z" fill="#E51D35"/>
</svg>
