<svg width="100" height="100" viewBox="0 0 100 100" fill="none" xmlns="http://www.w3.org/2000/svg">
<path d="M50.0021 100C77.6152 100 100 77.6152 100 50.0021C100 22.389 77.6152 0.00421143 50.0021 0.00421143C22.389 0.00421143 0.00422668 22.389 0.00422668 50.0021C0.00422668 77.6152 22.389 100 50.0021 100Z" fill="white"/>
<path d="M97.1425 33.3294H66.3358C67.674 44.0102 67.6818 55.779 66.3618 66.4731H97.2081C99.0089 61.3139 99.9988 55.7735 99.9988 50.0008C99.9997 44.1523 98.9867 38.5439 97.1425 33.3294Z" fill="#EFEFEF"/>
<path d="M66.3355 33.3293H97.1415C97.1369 33.3134 97.132 33.3001 97.1257 33.2858C90.7271 15.2426 74.2664 1.96757 54.4893 0.205414C62.1434 4.40065 64.3791 17.6923 66.3355 33.3293Z" fill="#E97E24"/>
<path d="M54.4913 99.7933C74.3038 98.028 90.7873 84.7072 97.1614 66.6156C97.1781 66.5675 97.1922 66.52 97.2095 66.4735H66.3626C64.4212 82.1951 62.176 95.5805 54.4913 99.7933Z" fill="#258F44"/>
<path d="M0 50.0004C0 55.7739 0.991598 61.3135 2.7907 66.4727H68.9351C70.2567 55.7777 70.2472 44.0099 68.9107 33.329H2.8572C1.01292 38.5437 0 44.1522 0 50.0004Z" fill="#EFEFEF"/>
<path d="M2.87283 33.286C2.86818 33.3001 2.86333 33.3136 2.85699 33.3295H68.9107C66.9528 17.6923 62.1432 4.40087 54.4902 0.205629C53.0098 0.0745279 51.5131 0.000427248 49.9989 0.000427248C28.2482 0.000216136 9.75152 13.8917 2.87283 33.286Z" fill="#E97E24"/>
<path d="M68.9352 66.4733H2.79071C2.80739 66.52 2.82301 66.5673 2.83884 66.6154C9.69009 86.0593 28.2134 100 49.999 100C51.5133 100 53.0101 99.9257 54.4902 99.7931C62.1757 95.5805 66.9938 82.1951 68.9352 66.4733Z" fill="#258F44"/>
</svg>
