<svg width="36" height="36" viewBox="0 0 36 36" fill="none" xmlns="http://www.w3.org/2000/svg">
<path d="M6.59531 8.05781C6.26484 8.13516 6.47578 8.12109 6.20156 8.15625C5.02734 8.40938 5.89922 8.63437 6.59531 8.05781ZM27.2461 8.52891C27.3305 8.47266 27.6258 8.18437 26.7047 7.90313C26.7609 8.19141 26.5148 8.16328 26.5148 8.325C27.1969 8.94375 27.4781 10.0195 28.35 10.2445C28.5188 9.47109 27.5766 9.09141 27.2461 8.52891ZM5.96953 7.83281C6.075 8.45859 6.54609 7.17188 6.55312 6.71484C6.37031 6.82031 6.1875 6.92578 5.99766 7.01016C6.44063 7.23516 6.05391 7.47422 5.57578 7.83281C4.60547 9.04219 6.48281 6.89062 5.96953 7.83281ZM18 0C8.05781 0 0 8.05781 0 18C0 27.9352 8.05781 36 18 36C27.9422 36 36 27.9352 36 18C36 8.05781 27.9422 0 18 0ZM18.4781 6.03281L18.5625 6.06094C18.225 6.49687 20.3203 7.76953 18.8156 7.875C17.4094 8.27578 19.4062 7.50937 18.3164 7.64297C18.893 6.84141 17.8594 6.82734 18.4781 6.03281ZM9.94219 7.18594C9.43594 6.76406 7.84688 7.7625 8.40234 7.52344C9.78047 6.98203 8.49375 7.57969 8.81719 8.22656C8.52188 8.83828 8.71875 7.62187 7.9875 8.34609C7.46016 8.46562 6.16641 9.66094 6.32812 9.29531C6.28594 9.86484 4.78828 10.5398 4.58437 11.4891C4.09219 12.8039 4.46484 11.4398 4.37344 10.9266C3.67031 10.0336 2.39062 12.4383 2.77031 13.3875C3.41016 12.2625 3.36094 13.268 2.89688 13.7672C3.36797 14.632 2.46797 15.757 3.36094 16.3969C3.75469 16.4883 4.54219 15.075 4.19766 16.5445C4.43672 15.2719 4.85859 16.8469 5.54063 16.4953C5.58281 17.1633 5.99766 16.8539 6.08906 17.6625C7.22813 17.5781 8.26875 19.5047 6.91172 19.8703C7.11563 19.8141 7.51641 20.1727 7.98047 19.8984C8.76797 20.5242 10.8422 20.6016 10.8984 22.1484C9.47109 22.8305 10.5469 24.7008 9.30937 25.3687C7.88906 25.1578 8.82422 27.1195 8.22656 26.8945C8.46562 28.3078 6.79219 26.7117 7.43906 27.4922C8.62734 28.2234 6.91875 28.0758 7.45312 28.6102C6.85547 28.4836 7.82578 29.7211 7.9875 30.1781C8.84531 31.5703 7.24922 29.8688 6.77813 29.4047C6.32812 28.5047 5.26641 26.782 4.97109 25.3687C4.80234 23.3156 3.21328 21.9375 2.84766 19.9336C2.48203 18.8156 3.85312 17.0227 3.11484 16.3969C2.475 15.8977 2.73516 14.1891 2.35547 13.2891C3.30469 9.17578 6.32109 5.70937 9.94219 3.65625C9.56953 3.93047 12.0727 2.94609 11.7844 3.18516C11.707 3.36094 13.2469 2.51719 14.175 2.39062C14.0766 2.40469 11.7633 3.23438 12.4031 3.12188C11.4117 3.60703 12.3047 3.33281 12.7969 3.08672C11.8125 3.81094 11.0531 3.60703 9.93516 4.24688C8.81016 4.54219 9.04219 5.70937 8.24062 6.29297C8.71172 6.37734 9.89297 5.07656 10.582 4.61953C12.1641 3.85312 9.78047 6.01172 11.2852 5.08359C10.7789 5.55469 10.8844 6.30703 10.575 6.51797C10.4203 6.47578 11.1867 6.88359 9.94219 7.18594ZM12.4031 3.95156C12.2414 4.16953 12.0164 4.64062 11.8828 4.35234C11.7 4.44375 11.6297 4.8375 11.2852 4.52109C11.4891 4.37344 11.7 4.02187 11.2992 4.23984C11.482 4.04297 13.1133 3.4875 13.0219 3.27656C13.3102 3.09375 13.282 3.00234 12.9516 3.11484C12.7828 3.05859 13.3523 2.58047 14.1117 2.51719C14.2172 2.51719 14.2594 2.5875 14.0695 2.56641C12.9234 2.91797 13.4156 2.81953 14.1891 2.56641C13.8938 2.73516 13.6898 2.78437 13.6406 2.86172C14.4141 2.58047 13.5984 3.06562 13.7742 3.03047C13.5562 3.14297 13.8094 3.17812 13.3875 3.33984C13.4648 3.27656 12.6984 3.79688 13.1555 3.64219C12.7125 4.06406 12.5156 4.07109 12.4031 3.95156ZM13.0781 4.95703C13.0922 4.28203 14.0625 3.85312 13.943 3.81797C15.1383 3.25547 13.5281 3.83906 14.4703 3.33281C14.8219 3.29766 15.5672 2.17266 16.6008 2.10234C17.7398 1.75781 17.2125 2.12344 18.0562 1.8L17.8875 1.94063C17.7398 1.96172 17.9227 2.22187 17.3883 2.61563C17.332 3.22734 16.3687 2.94609 16.8469 3.6C16.5375 3.15703 16.0734 3.58594 16.657 3.62812C16.0312 4.10625 14.5758 4.19063 13.8797 4.98516C13.4297 5.63203 13.0148 5.42812 13.0781 4.95703ZM18.0773 7.20703C17.5992 8.36016 17.1352 7.03828 17.9789 6.82734C18.1898 6.93984 18.2742 6.975 18.0773 7.20703ZM16.2773 4.90078C16.1367 4.38047 16.2492 4.65469 17.0859 4.40859C17.6625 4.82344 16.5727 5.09766 16.2773 4.90078ZM29.3695 25.5375C28.7086 24.3984 30.1711 23.3438 30.6633 22.3875C30.6 23.5055 30.4594 24.6094 29.3695 25.5375ZM31.8586 12.5227C31.1414 12.5789 30.4945 12.7477 29.8477 12.3398C28.357 10.7086 30.1219 14.182 30.6141 12.7617C32.3859 13.4367 30.5859 16.3477 29.468 16.0453C28.8422 14.6953 28.0687 13.2117 26.7047 12.5508C27.7523 13.7109 28.2727 15.1383 29.3977 16.1859C29.475 17.6484 30.9586 15.6516 30.8672 16.7836C31.0078 18.7313 28.6664 19.8984 29.0742 21.8531C29.9461 23.632 27.3938 23.9555 27.682 25.5516C26.6555 26.6977 25.5586 28.2445 23.7164 27.9984C23.7164 27.0281 23.2242 26.2055 23.1117 25.207C22.1133 23.9414 24.1664 22.5844 22.8938 21.2625C21.4242 20.932 23.1961 18.907 21.6844 19.0969C20.7773 18.1898 19.4484 19.0687 18.1477 19.0758C16.5164 19.2305 14.8359 17.0719 15.5602 15.5461C14.9836 13.957 17.3883 13.493 17.4516 12.0938C18.6047 11.1305 20.243 11.25 21.8039 11.025C21.6914 12.143 22.8727 12.15 23.7656 12.5227C24.2648 11.3133 25.8187 12.7195 26.8805 11.9531C27.2461 10.1672 25.8469 11.243 25.0453 10.6734C24.075 9.25313 27.1195 9.94219 26.8031 9.19688C25.6219 9.18984 26.2898 7.74141 25.4531 8.55C26.2055 8.68359 25.3195 9.27422 25.3406 8.59922C24.2016 8.26875 25.2984 9.89297 24.7219 10.0477C23.843 9.68203 24.2578 10.4625 24.3492 10.582C23.9695 11.4047 23.5055 9.37266 22.4297 9.42891C21.3609 8.45156 22.0078 9.87187 22.9359 10.1039C22.7391 10.1602 23.0484 10.9688 22.8023 10.6242C22.0359 9.56953 20.5805 8.86641 19.7156 10.1602C19.6242 11.3695 17.1633 11.7141 17.557 10.3008C16.9805 8.83828 19.343 10.2586 19.125 9.09141C17.6063 8.08594 19.5398 8.40938 20.0531 7.46719C21.2203 7.50234 20.1023 6.51094 20.6508 6.22266C20.5945 7.29844 21.5438 7.09453 22.2961 6.89062C22.1133 6.27187 22.7461 6.29297 22.3594 5.77969C24.1031 5.08359 21.0305 6.10313 21.6492 4.57734C20.8969 4.05703 21.3328 5.72344 21.6492 5.89922C21.6703 6.4125 21.2344 7.04531 20.6367 5.96953C19.7648 6.53906 19.8563 5.39297 19.8 5.5125C19.7016 5.06953 20.4609 5.04844 20.468 4.275C20.4047 3.78281 20.4187 3.52266 20.7703 3.49453C20.7984 3.56484 22.2117 3.58594 22.7109 4.16953C21.3469 3.89531 22.507 4.39453 23.1187 4.67578C22.4648 4.1625 23.3789 4.67578 22.8445 4.09219C23.0555 4.13438 22.2609 3.29062 23.0766 4.02891C22.6336 3.50156 23.9414 3.65625 23.168 3.2625C24.3 3.57891 23.632 3.29063 22.9641 3.00234C21.1219 1.90547 26.2195 4.48594 24.1383 3.33984C25.4672 3.62812 21.2977 2.31328 23.1961 2.88984C22.4719 2.57344 23.175 2.74922 23.8289 2.95312C22.6547 2.5875 20.8969 1.90547 20.9672 1.87734C21.375 1.90547 21.7758 1.99688 22.1625 2.10938C23.3648 2.46797 21.818 2.025 22.1484 2.03203C26.2828 3.09375 29.9039 5.86406 32.1047 9.48516C32.618 10.0266 34.0172 13.6055 33.2859 12.0164C33.6164 13.282 33.6656 14.6461 33.8414 15.9398C33.4758 15.532 33.068 14.0273 32.7164 13.1906C32.5687 13.5141 32.4 12.7336 31.8586 12.5227Z" fill="#2C2C2C"/>
</svg>
