<svg width="100" height="100" viewBox="0 0 100 100" fill="none" xmlns="http://www.w3.org/2000/svg">
<path d="M50 100C77.6142 100 100 77.6142 100 50C100 22.3858 77.6142 0 50 0C22.3858 0 0 22.3858 0 50C0 77.6142 22.3858 100 50 100Z" fill="#EEEEEE"/>
<path d="M35.6666 52.8333C40.3333 56 46.8333 54.6667 50 50C53.1666 45.3333 59.5 44 64.3333 47.1667C68.8333 50.1667 70.1666 56 67.6666 60.5C73.1666 51.1667 70.6666 39 61.3333 32.8333C51.8333 26.5 39 29 32.6666 38.5C32.5 38.8333 32.3333 39.1667 32.1666 39.3333C29.8333 44.1667 31.3333 49.8333 35.6666 52.8333Z" fill="#C60C30"/>
<path d="M64.3333 47.1667C59.6667 44 53.1667 45.3333 50 50C46.8333 54.6667 40.5 56 35.6667 52.8333C31.1667 49.8333 29.8333 44 32.3333 39.5C26.6667 48.8333 29.3333 61 38.6667 67.1667C48.1667 73.5 61 71 67.3333 61.5C67.5 61.1667 67.6667 60.8333 67.8333 60.6667C70.1667 55.8333 68.6667 50.1667 64.3333 47.1667Z" fill="#003478"/>
<path d="M9.66668 35.5L21.1667 18.3333L20 17.5L18.8333 16.8333L7.33334 34L8.50001 34.6667L9.66668 35.5Z" fill="#292F33"/>
<path d="M12.8333 37.6667L14 38.3333L25.3333 21.1667L24.3333 20.5L23.1667 19.6667L11.6667 36.8333L12.8333 37.6667Z" fill="#292F33"/>
<path d="M27.3333 22.5L16 39.6667L17.1667 40.5L18.3333 41.1667L29.6667 24L28.5 23.3333L27.3333 22.5Z" fill="#292F33"/>
<path d="M77.5 67.5L78.6667 68.3333L84 60.3333L82.8333 59.5L81.6667 58.8333L76.3333 66.8333L77.5 67.5Z" fill="#292F33"/>
<path d="M90.3333 64.5L85 72.5L86.1667 73.3333L87.3333 74L92.6667 66L91.5 65.3333L90.3333 64.5Z" fill="#292F33"/>
<path d="M83 71.1667L88.3333 63.1667L87.1667 62.3333L86 61.6667L80.6667 69.6667L81.8333 70.3333L83 71.1667Z" fill="#292F33"/>
<path d="M76.8333 68.6667L75.6667 68L70.3333 76L71.5 76.6667L72.6667 77.5L78 69.5L76.8333 68.6667Z" fill="#292F33"/>
<path d="M81 71.5L80 70.8333L74.6667 78.8333L75.6667 79.5L76.8333 80.3333L82.1667 72.3333L81 71.5Z" fill="#292F33"/>
<path d="M84.1667 73.6667L78.8333 81.6667L80 82.5L81.1667 83.1667L86.5 75.1667L85.3333 74.3333L84.1667 73.6667Z" fill="#292F33"/>
<path d="M8.50001 65.3333L7.33334 66L18.8333 83.1667L20 82.5L21.1667 81.6667L9.66668 64.5L8.50001 65.3333Z" fill="#292F33"/>
<path d="M19 71.5L17.8333 72.3333L23.1667 80.3333L24.3333 79.5L25.3333 78.8333L20 70.8333L19 71.5Z" fill="#292F33"/>
<path d="M17.1667 59.5L16 60.3333L27.3333 77.5L28.5 76.6667L29.6667 76L18.3333 58.8333L17.1667 59.5Z" fill="#292F33"/>
<path d="M11.6667 63.1667L17 71.1667L18.1667 70.3333L19.3333 69.6667L14 61.6667L12.8333 62.3333L11.6667 63.1667Z" fill="#292F33"/>
<path d="M85.3333 25.6667L86.5 24.8333L81.1667 16.8333L80 17.5L78.8333 18.3333L84.1667 26.3333L85.3333 25.6667Z" fill="#292F33"/>
<path d="M76.8333 31.3333L78 30.5L72.6667 22.5L71.5 23.3333L70.3333 24L75.6667 32L76.8333 31.3333Z" fill="#292F33"/>
<path d="M85 27.5L90.3333 35.5L91.5 34.6667L92.6667 34L87.3333 26L86.1667 26.6667L85 27.5Z" fill="#292F33"/>
<path d="M87.1667 37.6667L88.3333 36.8333L76.8333 19.6667L75.6667 20.5L74.6667 21.1667L86 38.3333L87.1667 37.6667Z" fill="#292F33"/>
<path d="M82.8333 40.5L84 39.6667L78.6667 31.6667L77.5 32.5L76.3333 33.1667L81.6667 41.1667L82.8333 40.5Z" fill="#292F33"/>
</svg>
