<svg width="100" height="100" viewBox="0 0 100 100" fill="none" xmlns="http://www.w3.org/2000/svg">
<path d="M99.9998 50C99.9998 28.1667 86.1664 9.66666 66.6664 2.83333V97.1667C86.1664 90.3333 99.9998 71.8333 99.9998 50Z" fill="#CE1126"/>
<path d="M-0.000244141 50C-0.000244141 71.8333 13.9998 90.3333 33.3331 97.1667V2.83333C13.9998 9.66666 -0.000244141 28.1667 -0.000244141 50Z" fill="#006847"/>
<path d="M66.6664 2.83333C61.4998 1 55.8331 0 49.9998 0C44.1664 0 38.4998 1 33.3331 2.83333V97.1667C38.4998 99 44.1664 100 49.9998 100C55.8331 100 61.4998 99 66.6664 97.1667V2.83333Z" fill="white"/>
<path d="M64.4998 49.5C64.3331 49 64.1664 49.6667 64.1664 49.8333C64.1664 49.3333 63.9998 49 63.6664 48.5C63.1664 49 62.9998 49.6667 62.9998 50.3333C62.8331 49.8333 62.6664 49.3333 62.1664 49.1667C62.4998 49.6667 62.3331 50 62.3331 50.5C62.3331 51.1667 62.8331 51.6667 62.8331 52.3333C62.8331 53 62.4998 53.5 61.9998 54V53.5C60.3331 54.1667 60.6664 55 60.6664 56.5C60.6664 58 59.8331 57.6667 58.8331 58.5C58.9998 58.1667 58.9998 57.6667 58.8331 57.3333C58.8331 58.3333 57.4998 58.3333 57.3331 59.1667C57.1664 59.5 57.3331 60.1667 56.8331 60.3333C56.4997 60.5 55.9997 60.8333 55.9997 61.1667C55.6664 61 55.3331 61 54.8331 61C54.9998 60.8333 55.1664 60.8333 55.3331 60.6667C53.6664 59.8333 53.1664 61.6667 51.6664 61.8333C51.1664 61.8333 49.9998 61.1667 49.9998 61.8333C51.4998 61.8333 52.1664 63.1667 53.3331 63.1667C54.3331 63.1667 55.1664 62.3333 56.1664 62.3333C55.9998 62.3333 55.4998 62 54.9998 62C55.8331 61.5 56.3331 60.5 57.3331 60.5C58.9998 60.5 59.8331 60.1667 60.3331 58.5C60.1664 58.5 59.9998 58.5 59.8331 58.6667C59.8331 58 60.4998 57.1667 61.1664 56.8333C62.8331 56.5 62.6664 55.1667 63.6664 54C63.3331 54 62.9998 54.1667 62.6664 54.5C62.6664 53.5 62.4998 52.5 63.3331 51.8333C64.9998 51 64.8331 50.6667 64.4998 49.5Z" fill="#5C913B"/>
<path d="M35.4998 49.5C35.1664 50.8333 34.9998 51.1667 36.3331 52C37.3331 52.6667 36.9998 53.6667 36.9998 54.6667C36.6664 54.3333 36.4998 54.1667 35.9998 54.1667C36.9998 55.1667 36.8331 56.6667 38.4998 57C38.9998 57.3333 39.8331 58.1667 39.8331 58.8333C39.6664 58.8333 39.4998 58.6667 39.3331 58.6667C39.8331 60.3333 40.6664 60.6667 42.3331 60.6667C43.3331 60.6667 43.8331 61.6667 44.6664 62.1667C44.1664 62.1667 43.6664 62.3333 43.4998 62.5C44.4998 62.5 45.3331 63.5 46.3331 63.3333C47.4998 63.3333 48.3331 62 49.6664 62C49.6664 61.3333 48.4998 62 47.9998 62C46.6664 61.6667 46.1664 60 44.3331 60.6667C44.4998 60.8333 44.6664 61 44.8331 61C44.4998 61 43.9998 60.8333 43.6664 61.1667C43.4998 60.8333 43.1664 60.5 42.8331 60.3333C42.4998 60 42.4998 59.5 42.3331 59.1667C41.9998 58.3333 40.8331 58.1667 40.8331 57.3333C40.6664 57.6667 40.6664 58.1667 40.8331 58.5C39.8331 57.6667 38.9998 58 38.9998 56.5C38.9998 55.1667 39.3331 54.1667 37.6664 53.5V54C37.1664 53.5 36.8331 53.1667 36.8331 52.3333C36.8331 51.6667 37.4998 51.1667 37.3331 50.5C37.3331 50 37.1664 49.6667 37.4998 49.1667C36.9998 49.3333 36.8331 49.8333 36.6664 50.3333C36.6664 49.6667 36.4998 49 35.9998 48.5C35.8331 48.8333 35.6664 49.3333 35.4998 49.8333C35.6664 49.5 35.4998 49 35.4998 49.5Z" fill="#5C913B"/>
<path d="M54.4998 59.5C54.1664 59.5 53.9998 59.1667 53.8331 59C53.8331 58.6667 55.1664 58.3333 55.3331 58.3333V58C53.1664 58.6667 46.6664 59.1667 45.3331 56.8333C44.6664 57.8333 43.4998 57.1667 42.3331 56.3333C42.4998 56.6667 43.1664 58.3333 43.1664 58.1667C43.4998 58.3333 45.6664 58.8333 45.6664 59.3333L45.1664 59.8333C48.6664 61 50.8331 61.3333 54.4998 59.5Z" fill="#428BC1"/>
<path d="M52.3331 59.5C52.4998 59.3333 52.4998 59.1667 52.4998 58.8333L52.3331 58.3333C52.6664 58 52.3331 57.1667 51.8331 57.3333C51.4998 57.5 51.6664 57.5 51.3331 57.3333C51.1664 57.3333 51.1664 57.1667 50.9998 57.1667H47.9998C47.6664 57.1667 47.6664 57 47.3331 57C46.9998 56.8333 46.8331 57.1667 46.6664 57.3333C46.6664 57.6667 46.8331 57.6667 46.8331 57.8333C46.8331 58 46.6664 58.1667 46.6664 58.5C46.6664 58.8333 46.8331 59 46.9998 59.1667C46.3331 59.6667 46.9998 60.5 47.6664 60C47.8331 60.3333 48.3331 60.3333 48.8331 60.3333H50.6664C50.9998 60.3333 51.6664 60.5 51.8331 60C52.3331 60.8333 52.9998 59.8333 52.3331 59.5Z" fill="#ED4C5C"/>
<path d="M57.6664 55.1667C56.3331 53.5 55.6664 56 54.1664 55.8333C54.4998 53.8333 51.4998 54.5 50.6664 55C50.8331 54.8333 50.9998 54.5 51.1664 54.1667C50.4998 54.1667 49.6664 54.5 49.1664 54C48.1664 53.3333 46.8331 53 45.9998 54.1667C45.3331 53.1667 43.4998 52.1667 42.4998 53.1667C42.4998 52.1667 41.4998 50.6667 40.3331 50.8333C38.9998 51 39.4998 52.6667 40.1664 53.3333C40.6664 53.8333 41.3331 54 41.9998 54C41.9998 54.3333 42.1664 54.5 42.3331 54.6667C43.1664 55.3333 44.8331 55.5 45.6664 54.8333C45.6664 56.5 48.9998 56.5 49.8331 55.6667C49.4998 56.5 49.1664 58.1667 50.3331 58.1667C51.3331 58.1667 50.9998 57.1667 51.8331 56.8333C52.4998 56.5 53.3331 56.3333 53.9998 56.6667C55.1664 57.3333 58.8331 57.1667 57.6664 55.1667Z" fill="#428BC1"/>
<path d="M43.9998 51C43.8331 50.6667 43.4998 50.3333 43.4998 50.3333C42.8331 50.5 42.8331 50 42.6664 49.5C42.4998 48.6667 41.3331 48.3333 41.3331 47.6667C41.3331 47 41.9998 46.3333 41.4998 45.6667C40.9998 45 40.1664 44.6667 40.1664 45C39.9998 45.3333 40.8331 45.3333 40.8331 46.1667C40.8331 47.1667 39.8331 48 40.9998 48.8333C41.6664 49.8333 41.6664 51.6667 42.8331 51.6667C43.3331 51.6667 43.8331 51.5 43.9998 51Z" fill="#5C913B"/>
<path d="M46.4998 50.1667C46.1664 49.5 46.4998 48.5 45.8331 48C44.9998 47.3333 43.3331 48.6667 43.1664 47C43.1664 46.6667 44.9998 44.6667 45.3331 44.5C45.8331 43.8333 45.6664 42.6667 45.1664 42.3333C44.4998 42 44.3331 42.3333 43.8331 43C43.9998 43.1667 44.6664 43.5 44.6664 43.6667C44.1664 44.8333 42.6664 45 42.3331 46.1667C41.9998 47 42.1664 48.3333 42.9998 48.8333C43.4998 49.1667 43.8331 49.1667 44.3331 49.1667C45.8331 49 44.9998 49.3333 45.1664 49.6667C45.1664 50 45.6664 51.1667 46.4998 50.1667Z" fill="#5C913B"/>
<path d="M41.4998 42C41.4998 43 42.4998 42.8333 43.1664 42.6667C43.1664 42.3333 43.1664 42 43.3331 41.6667C42.9998 41.8333 42.4998 41.8333 42.3331 41.6667C41.8331 41.3333 43.4998 40.6667 43.3331 40.6667C43.3331 40.6667 41.6664 41.5 42.3331 40.5C42.4998 40.1667 42.8331 39.8333 42.9998 39.5C43.1664 39.1667 42.4998 39.5 42.4998 39.5C42.3331 39.5 42.1664 39.5 41.9998 39.6667C40.9998 40.5 41.3331 41 41.4998 42Z" fill="#5C913B"/>
<path d="M59.1664 42C58.3331 40.8333 55.1664 37 50.6664 36.6667C50.1664 36.6667 48.8331 37.1667 48.3331 37.3333C46.8331 38.3333 49.9998 39.1667 50.1664 39.8333C50.1664 40.1667 50.3331 40.3333 50.3331 40.6667C49.8331 39.8333 49.3331 39.3333 49.1664 39C48.3331 39.3333 46.9998 38.8333 46.8331 38C46.6664 38.3333 46.6664 38.5 46.3331 38.8333C46.3331 38.3333 46.1664 38.3333 45.9998 38C45.9998 38.5 45.9998 39.1667 45.4998 39.3333C45.6664 39 45.4998 38.6667 45.3331 38.3333C45.3331 38.8333 45.3331 39.1667 44.9998 39.5C45.1664 39.1667 44.8331 39 44.8331 38.6667C44.6664 40 42.8331 40.5 44.6664 41C45.3331 41.1667 45.6664 41 46.3331 41.3333C46.4998 41.5 46.8331 41.8333 46.8331 41.6667C46.8331 41.8333 46.1664 42.5 46.6664 42.6667C46.4998 42.8333 45.9998 43.8333 45.9998 43.8333C46.4998 43.8333 46.1664 44.1667 45.8331 44.5C45.3331 45.3333 45.8331 46.1667 45.9998 47.1667C45.9998 46.8333 46.4998 47.3333 46.4998 47.8333C46.4998 48.5 47.1664 48.8333 47.3331 49.3333C46.4998 48.5 46.3331 49.3333 47.3331 49.8333C46.4998 49.8333 46.3331 50.3333 47.1664 50.6667C45.1664 50.6667 46.8331 51.5 47.1664 51.6667C48.4998 52 49.4998 51 49.4998 50.8333C49.4998 50.8333 52.1664 53.5 52.3331 53.5C52.4998 53.5 53.8331 52.8333 54.1664 53.1667C54.4998 53.6667 54.8331 53.1667 55.1664 53.3333C55.4998 53.6667 56.8331 53.3333 57.1664 53.1667C57.3331 53.1667 58.9998 52.8333 58.6664 52.5C57.8331 51.8333 56.8331 51.1667 55.9998 50.5C55.1664 49.8333 54.3331 49.3333 53.6664 48.6667C53.3331 48.3333 53.3331 47.6667 53.1664 47.1667C54.6664 48.6667 56.1664 49.5 55.9998 46.6667C56.9998 47.5 58.9998 52.1667 59.1664 52.1667C59.6664 52.1667 59.1664 47.1667 59.1664 46.6667C59.8331 47.3333 59.8331 52.8333 59.9998 52.8333C60.8331 53 61.9998 45.6667 59.1664 42Z" fill="#89664C"/>
<path d="M47.1664 50.5C46.9998 50.5 46.1664 49.3333 46.1664 49.1667C46.6664 51.1667 44.6664 50 45.1664 49.1667C44.4998 49 42.8331 50 43.4998 51C43.1664 51.6667 45.8331 51.1667 45.9998 50.8333C46.6664 52.3333 48.3331 50.6667 47.1664 50.5Z" fill="#FFCE31"/>
<path d="M54.9998 55.5C55.8331 54.3333 52.3331 54 52.6664 52.6667C52.1664 53 51.4998 54.1667 50.8331 53.8333C50.4998 53.6667 49.1664 54.5 49.8331 55C49.8331 54.3333 50.1664 54.8333 50.6664 54.6667C50.4998 55.1667 49.9998 55.6667 50.8331 56C50.4998 55 51.8331 55.5 51.6664 55C51.3331 54.6667 52.8331 54.6667 52.9998 54.6667C53.4998 54.6667 55.1664 55.1667 54.4998 55.6667C54.4998 55.6667 54.8331 55.6667 54.9998 55.5Z" fill="#FFCE31"/>
<path d="M43.8331 41.1667C43.6664 41.5 42.9998 42 42.9998 42.5C42.9998 42.8333 43.8331 43.6667 44.1664 43.1667C43.1664 42.5 44.3331 42 44.8331 42C44.9998 42 44.9998 42.3333 44.9998 42.3333C45.1664 42.5 46.4998 42 46.3331 41.6667C46.4998 41 44.3331 41 43.8331 41.1667Z" fill="#FFCE31"/>
</svg>
