<svg width="100" height="100" viewBox="0 0 100 100" fill="none" xmlns="http://www.w3.org/2000/svg">
<path d="M50.0021 100C77.6152 100 100 77.6152 100 50.0021C100 22.389 77.6152 0.00421906 50.0021 0.00421906C22.389 0.00421906 0.00422668 22.389 0.00422668 50.0021C0.00422668 77.6152 22.389 100 50.0021 100Z" fill="white"/>
<path d="M97.1415 33.3299H66.3357C67.6731 44.0107 67.6818 55.7794 66.361 66.4736H97.208C99.008 61.3135 99.9987 55.7739 99.9987 50.0004C99.9996 44.1528 98.9858 38.5444 97.1415 33.3299Z" fill="#EFECEC"/>
<path d="M66.3357 33.3299H97.1417C97.1362 33.3141 97.1314 33.3008 97.1259 33.2864C90.7264 15.2432 74.2666 1.96821 54.4893 0.206047C62.1428 4.40128 64.3776 17.693 66.3357 33.3299Z" fill="#E63026"/>
<path d="M54.4902 99.7933C74.3027 98.028 90.7862 84.7072 97.1603 66.6157C97.177 66.5675 97.1912 66.5202 97.2085 66.4736H66.3606C64.4197 82.1952 62.1749 95.5806 54.4902 99.7933Z" fill="#2B479D"/>
<path d="M0.000213623 50.0004C0.000213623 55.7739 0.990967 61.3135 2.79092 66.4736H68.9354C70.2561 55.7786 70.2474 44.0107 68.91 33.3299H2.85721C1.01292 38.5444 0.000213623 44.1528 0.000213623 50.0004Z" fill="#EFEFEF"/>
<path d="M2.87197 33.2866C2.86648 33.3008 2.86163 33.3143 2.85614 33.3301H68.9098C66.9519 17.693 62.1424 4.40149 54.4902 0.206257C53.01 0.0749451 51.513 0 49.9989 0C28.2484 0 9.75025 13.8923 2.87197 33.2866Z" fill="#E63026"/>
<path d="M68.9353 66.4736H2.79091C2.80759 66.5202 2.82258 66.5675 2.83904 66.6157C9.69008 86.0596 28.2125 100 49.9989 100C51.5133 100 53.01 99.9257 54.4902 99.7931C62.1749 95.5806 66.994 82.1952 68.9353 66.4736Z" fill="#2B479D"/>
</svg>
