<svg width="100" height="100" viewBox="0 0 100 100" fill="none" xmlns="http://www.w3.org/2000/svg">
<path d="M99.3345 43.2612C99.1681 41.5973 98.8353 39.9334 98.5025 38.2696H1.33112C0.998344 39.9334 0.665565 41.5973 0.499176 43.2612H99.3345Z" fill="#F0F0F0"/>
<path d="M0.499176 56.5724C0.665565 58.2363 0.998344 59.9002 1.33112 61.5641H98.3361C98.6689 59.9002 99.0017 58.2363 99.1681 56.5724H0.499176Z" fill="#F0F0F0"/>
<path d="M29.9501 4.15974C28.2862 4.82529 26.6223 5.82363 24.9584 6.65558V93.178C26.6223 94.1764 28.2862 95.0083 29.9501 95.6739V4.15974Z" fill="#F0F0F0"/>
<path d="M43.2612 0.499168V99.5008L48.2529 100V0C46.589 0 44.9251 0.166389 43.2612 0.499168Z" fill="#F0F0F0"/>
<path d="M0 49.9168C0 52.2463 0.166389 54.4093 0.499168 56.5724H99.5008C99.8336 54.4093 100 52.2463 100 49.9168C100 47.5874 99.8336 45.4243 99.5008 43.2612H0.499168C0.166389 45.4243 0 47.5874 0 49.9168Z" fill="#002868"/>
<path d="M29.9501 95.6739C34.1098 97.5042 38.6023 98.8353 43.2612 99.3344V0.499168C38.6023 1.16473 34.1098 2.32945 29.9501 4.15973V95.6739Z" fill="#002868"/>
<path d="M24.9584 38.2695V6.65557C13.3111 13.4775 4.6589 24.792 1.33112 38.2695H24.9584Z" fill="#EF2B2D"/>
<path d="M24.9584 61.5641V93.178C13.3111 86.3561 4.6589 75.0416 1.33112 61.5641H24.9584Z" fill="#EF2B2D"/>
<path d="M49.9168 0H48.2529V38.2695H98.5025C93.178 16.3062 73.5441 0 49.9168 0Z" fill="#EF2B2D"/>
<path d="M48.2529 61.5641V99.8336H49.9168C73.5441 99.8336 93.178 83.5275 98.5025 61.5641H48.2529Z" fill="#EF2B2D"/>
</svg>
