<svg width="100" height="100" viewBox="0 0 100 100" fill="none" xmlns="http://www.w3.org/2000/svg">
<path d="M25 93.3333V6.66667C10 15.3333 0 31.5 0 50C0 68.5 10 84.6667 25 93.3333Z" fill="#006600"/>
<path d="M50 0C40.8333 0 32.3333 2.5 25 6.66667V93.3333C32.3333 97.6667 40.8333 100 50 100C77.6667 100 100 77.6667 100 50C100 22.3333 77.6667 0 50 0Z" fill="#D52B1E"/>
<path d="M25 30C14 30 5 39 5 50C5 61 14 70 25 70C36 70 45 61 45 50C45 39 36 30 25 30ZM25 67.5C15.3333 67.5 7.5 59.6667 7.5 50C7.5 40.3333 15.3333 32.5 25 32.5C34.6667 32.5 42.5 40.3333 42.5 50C42.5 59.6667 34.6667 67.5 25 67.5Z" fill="#FFCC4D"/>
<path d="M31.8333 69.5C31.5 69.8333 31 69.8333 30.6667 69.5L7.83334 39.3333C7.50001 39 7.50001 38.5 7.83334 38.1667L8.33334 37.6667C8.66668 37.3333 9.16668 37.3333 9.50001 37.6667L32.3333 67.8333C32.6667 68.1667 32.6667 68.6667 32.3333 69L31.8333 69.5Z" fill="#FFCC4D"/>
<path d="M25.3333 29.1667C25.8333 29.1667 26.1667 29.5 26.1667 30V70C26.1667 70.5 25.8333 70.8333 25.3333 70.8333H24.5C24 70.8333 23.6667 70.5 23.6667 70V30C23.6667 29.5 24 29.1667 24.5 29.1667H25.3333Z" fill="#FFCC4D"/>
<path d="M44.8333 52.1667L25 48.6667V51.1667L44.5 54.6667C45 54.6667 45.3333 54.5 45.5 54L45.6667 53.1667C45.6667 52.8333 45.3333 52.3333 44.8333 52.1667Z" fill="#FFCC4D"/>
<path d="M25 48.5L9.33332 37.5C8.99998 37.1667 8.49998 37.3333 8.16665 37.6667L7.66665 38.3333C7.33332 38.6667 7.49998 39.1667 7.83332 39.5L25 51.5V48.5Z" fill="#FFCC4D"/>
<path d="M24.3333 46.6667L8.66666 62.3333C8.33332 62.6667 8.33332 63.1667 8.66666 63.5L9.33332 64.1667C9.66666 64.5 10.1667 64.5 10.5 64.1667L24.3333 50.3333V46.6667Z" fill="#FFCC4D"/>
<path d="M25 39.1667L4.16666 49C3.83332 49.1667 3.49999 49.6667 3.83332 50.1667L4.16666 51C4.33332 51.3333 4.83332 51.6667 5.33332 51.3333L25 42V39.1667Z" fill="#FFCC4D"/>
<path d="M43.5 42L23.6667 38.5V41L43.1667 44.5C43.6667 44.5 44 44.3333 44.1667 43.8333L44.3333 43C44.1667 42.5 43.8333 42 43.5 42Z" fill="#FFCC4D"/>
<path d="M24.8333 61.5C24.5 61.6667 24.1666 62.1667 24.5 62.6667L24.8333 63.5C25 63.8333 25.5 64.1667 26 63.8333L42.6666 56.1667L43.5 53L24.8333 61.5Z" fill="#FFCC4D"/>
<path d="M24.8333 55.8333L6.16666 49V51.6667L24.8333 58.5V55.8333Z" fill="#FFCC4D"/>
<path d="M11.8333 61.3333V63.8333L36.5 65.5C37.5 64.8333 38.3333 64 39.1667 63.1667L11.8333 61.3333Z" fill="#FFCC4D"/>
<path d="M16.6667 41.6667V53.3333C16.6667 58 20.3333 61.6667 25 61.6667C29.6667 61.6667 33.3333 58 33.3333 53.3333V41.6667H16.6667Z" fill="white"/>
<path d="M25 65C18.5 65 13.3333 59.8333 13.3333 53.3333V38.3333H36.6667V53.3333C36.6667 59.8333 31.5 65 25 65ZM20 45V53.3333C20 56.1667 22.1667 58.3333 25 58.3333C27.8333 58.3333 30 56.1667 30 53.3333V45H20Z" fill="#D52B1E"/>
<path d="M23.5 45.6667V48.3333C23.5 48.8333 23.8333 49.1667 24.3333 49.1667H25.6667C26.1667 49.1667 26.5 48.8333 26.5 48.3333V45.5H23.5V45.6667Z" fill="#0071BC"/>
<path d="M23.5 49.8333V52.6667C23.5 53.1667 23.8333 53.5 24.3333 53.5H25.6667C26.1667 53.5 26.5 53.1667 26.5 52.6667V49.8333H23.5Z" fill="#0071BC"/>
<path d="M20.1667 49.8333V52.6667C20.1667 53.1667 20.5 53.5 21 53.5H22.3333C22.8333 53.5 23.1667 53.1667 23.1667 52.6667V49.8333H20.1667Z" fill="#0071BC"/>
<path d="M26.8333 49.8333V52.6667C26.8333 53.1667 27.1667 53.5 27.6667 53.5H29C29.5 53.5 29.8333 53.1667 29.8333 52.6667V49.8333H26.8333Z" fill="#0071BC"/>
<path d="M23.5 53.8333V56.6667C23.5 57.1667 23.8333 57.5 24.3333 57.5H25.6667C26.1667 57.5 26.5 57.1667 26.5 56.6667V53.8333H23.5Z" fill="#0071BC"/>
<path d="M25 51.8333C25.1841 51.8333 25.3333 51.6841 25.3333 51.5C25.3333 51.3159 25.1841 51.1667 25 51.1667C24.8159 51.1667 24.6667 51.3159 24.6667 51.5C24.6667 51.6841 24.8159 51.8333 25 51.8333Z" fill="white"/>
<path d="M24.3333 52.6667C24.5174 52.6667 24.6667 52.5174 24.6667 52.3333C24.6667 52.1492 24.5174 52 24.3333 52C24.1492 52 24 52.1492 24 52.3333C24 52.5174 24.1492 52.6667 24.3333 52.6667Z" fill="white"/>
<path d="M25.6667 52.6667C25.8508 52.6667 26 52.5174 26 52.3333C26 52.1492 25.8508 52 25.6667 52C25.4826 52 25.3333 52.1492 25.3333 52.3333C25.3333 52.5174 25.4826 52.6667 25.6667 52.6667Z" fill="white"/>
<path d="M24.3333 51C24.5174 51 24.6667 50.8508 24.6667 50.6667C24.6667 50.4826 24.5174 50.3333 24.3333 50.3333C24.1492 50.3333 24 50.4826 24 50.6667C24 50.8508 24.1492 51 24.3333 51Z" fill="white"/>
<path d="M25.6667 51C25.8508 51 26 50.8508 26 50.6667C26 50.4826 25.8508 50.3333 25.6667 50.3333C25.4826 50.3333 25.3333 50.4826 25.3333 50.6667C25.3333 50.8508 25.4826 51 25.6667 51Z" fill="white"/>
<path d="M25 47.6667C25.1841 47.6667 25.3333 47.5174 25.3333 47.3333C25.3333 47.1492 25.1841 47 25 47C24.8159 47 24.6667 47.1492 24.6667 47.3333C24.6667 47.5174 24.8159 47.6667 25 47.6667Z" fill="white"/>
<path d="M24.3333 48.5C24.5174 48.5 24.6667 48.3508 24.6667 48.1667C24.6667 47.9826 24.5174 47.8333 24.3333 47.8333C24.1492 47.8333 24 47.9826 24 48.1667C24 48.3508 24.1492 48.5 24.3333 48.5Z" fill="white"/>
<path d="M25.6667 48.5C25.8508 48.5 26 48.3508 26 48.1667C26 47.9826 25.8508 47.8333 25.6667 47.8333C25.4826 47.8333 25.3333 47.9826 25.3333 48.1667C25.3333 48.3508 25.4826 48.5 25.6667 48.5Z" fill="white"/>
<path d="M24.3333 46.8333C24.5174 46.8333 24.6667 46.6841 24.6667 46.5C24.6667 46.3159 24.5174 46.1667 24.3333 46.1667C24.1492 46.1667 24 46.3159 24 46.5C24 46.6841 24.1492 46.8333 24.3333 46.8333Z" fill="white"/>
<path d="M25.6667 46.8333C25.8508 46.8333 26 46.6841 26 46.5C26 46.3159 25.8508 46.1667 25.6667 46.1667C25.4826 46.1667 25.3333 46.3159 25.3333 46.5C25.3333 46.6841 25.4826 46.8333 25.6667 46.8333Z" fill="white"/>
<path d="M28.3333 51.8333C28.5174 51.8333 28.6667 51.6841 28.6667 51.5C28.6667 51.3159 28.5174 51.1667 28.3333 51.1667C28.1492 51.1667 28 51.3159 28 51.5C28 51.6841 28.1492 51.8333 28.3333 51.8333Z" fill="white"/>
<path d="M27.6667 52.6667C27.8508 52.6667 28 52.5174 28 52.3333C28 52.1492 27.8508 52 27.6667 52C27.4826 52 27.3333 52.1492 27.3333 52.3333C27.3333 52.5174 27.4826 52.6667 27.6667 52.6667Z" fill="white"/>
<path d="M29 52.6667C29.1841 52.6667 29.3333 52.5174 29.3333 52.3333C29.3333 52.1492 29.1841 52 29 52C28.8159 52 28.6667 52.1492 28.6667 52.3333C28.6667 52.5174 28.8159 52.6667 29 52.6667Z" fill="white"/>
<path d="M27.6667 51C27.8508 51 28 50.8508 28 50.6667C28 50.4826 27.8508 50.3333 27.6667 50.3333C27.4826 50.3333 27.3333 50.4826 27.3333 50.6667C27.3333 50.8508 27.4826 51 27.6667 51Z" fill="white"/>
<path d="M29 51C29.1841 51 29.3333 50.8508 29.3333 50.6667C29.3333 50.4826 29.1841 50.3333 29 50.3333C28.8159 50.3333 28.6667 50.4826 28.6667 50.6667C28.6667 50.8508 28.8159 51 29 51Z" fill="white"/>
<path d="M21.6667 51.8333C21.8508 51.8333 22 51.6841 22 51.5C22 51.3159 21.8508 51.1667 21.6667 51.1667C21.4826 51.1667 21.3333 51.3159 21.3333 51.5C21.3333 51.6841 21.4826 51.8333 21.6667 51.8333Z" fill="white"/>
<path d="M21 52.6667C21.1841 52.6667 21.3333 52.5174 21.3333 52.3333C21.3333 52.1492 21.1841 52 21 52C20.8159 52 20.6667 52.1492 20.6667 52.3333C20.6667 52.5174 20.8159 52.6667 21 52.6667Z" fill="white"/>
<path d="M22.3333 52.6667C22.5174 52.6667 22.6667 52.5174 22.6667 52.3333C22.6667 52.1492 22.5174 52 22.3333 52C22.1492 52 22 52.1492 22 52.3333C22 52.5174 22.1492 52.6667 22.3333 52.6667Z" fill="white"/>
<path d="M21 51C21.1841 51 21.3333 50.8508 21.3333 50.6667C21.3333 50.4826 21.1841 50.3333 21 50.3333C20.8159 50.3333 20.6667 50.4826 20.6667 50.6667C20.6667 50.8508 20.8159 51 21 51Z" fill="white"/>
<path d="M22.3333 51C22.5174 51 22.6667 50.8508 22.6667 50.6667C22.6667 50.4826 22.5174 50.3333 22.3333 50.3333C22.1492 50.3333 22 50.4826 22 50.6667C22 50.8508 22.1492 51 22.3333 51Z" fill="white"/>
<path d="M25 56C25.1841 56 25.3333 55.8508 25.3333 55.6667C25.3333 55.4826 25.1841 55.3333 25 55.3333C24.8159 55.3333 24.6667 55.4826 24.6667 55.6667C24.6667 55.8508 24.8159 56 25 56Z" fill="white"/>
<path d="M24.3333 56.8333C24.5174 56.8333 24.6667 56.6841 24.6667 56.5C24.6667 56.3159 24.5174 56.1667 24.3333 56.1667C24.1492 56.1667 24 56.3159 24 56.5C24 56.6841 24.1492 56.8333 24.3333 56.8333Z" fill="white"/>
<path d="M25.6667 56.8333C25.8508 56.8333 26 56.6841 26 56.5C26 56.3159 25.8508 56.1667 25.6667 56.1667C25.4826 56.1667 25.3333 56.3159 25.3333 56.5C25.3333 56.6841 25.4826 56.8333 25.6667 56.8333Z" fill="white"/>
<path d="M24.3333 55.1667C24.5174 55.1667 24.6667 55.0174 24.6667 54.8333C24.6667 54.6492 24.5174 54.5 24.3333 54.5C24.1492 54.5 24 54.6492 24 54.8333C24 55.0174 24.1492 55.1667 24.3333 55.1667Z" fill="white"/>
<path d="M25.6667 55.1667C25.8508 55.1667 26 55.0174 26 54.8333C26 54.6492 25.8508 54.5 25.6667 54.5C25.4826 54.5 25.3333 54.6492 25.3333 54.8333C25.3333 55.0174 25.4826 55.1667 25.6667 55.1667Z" fill="white"/>
<path d="M23.3333 43.3333H26.6667L26.3333 41.6667V40H26.6667V39.1667H26.1667V39.6667H26V39.1667H25.5V39.6667H25.1667V39.1667H24.8333V39.6667H24.5V39.1667H24V39.6667H23.6667V39.1667H23.3333V40H23.6667V41.6667L23.3333 43.3333Z" fill="#FFCC4D"/>
<path d="M25.5 43.3333H25.3333V42.6667C25.3333 42.5 25.1667 42.3333 25 42.3333C24.8333 42.3333 24.6667 42.5 24.6667 42.6667V43.3333H24.5V42.6667C24.5 42.3333 24.6667 42.1667 25 42.1667C25.3333 42.1667 25.5 42.3333 25.5 42.6667V43.3333Z" fill="#3E4347"/>
<path d="M25 41.5H24V40.6667C24 40.3333 24.1667 40.1667 24.5 40.1667C24.8333 40.1667 25 40.3333 25 40.6667V41.5ZM24.1667 41.3333H24.8333V40.6667C24.8333 40.5 24.6667 40.3333 24.5 40.3333C24.3333 40.3333 24.1667 40.5 24.1667 40.6667V41.3333Z" fill="#3E4347"/>
<path d="M26 41.5H25V40.6667C25 40.3333 25.1667 40.1667 25.5 40.1667C25.8333 40.1667 26 40.3333 26 40.6667V41.5ZM25.1667 41.3333H25.8333V40.6667C25.8333 40.5 25.6667 40.3333 25.5 40.3333C25.3333 40.3333 25.1667 40.5 25.1667 40.6667V41.3333Z" fill="#3E4347"/>
<path d="M15 43.3333H18.3333L18 41.6667V40H18.3333V39.1667H17.8333V39.6667H17.6667V39.1667H17.1667V39.6667H16.8333V39.1667H16.5V39.6667H16.1667V39.1667H15.6667V39.6667H15.3333V39.1667H15V40H15.3333V41.6667L15 43.3333Z" fill="#FFCC4D"/>
<path d="M17.1667 43.3333H17V42.6667C17 42.5 16.8333 42.3333 16.6667 42.3333C16.5 42.3333 16.3333 42.5 16.3333 42.6667V43.3333H16.1667V42.6667C16.1667 42.3333 16.3333 42.1667 16.6667 42.1667C17 42.1667 17.1667 42.3333 17.1667 42.6667V43.3333Z" fill="#3E4347"/>
<path d="M16.6667 41.5H15.6667V40.6667C15.6667 40.3333 15.8333 40.1667 16.1667 40.1667C16.5 40.1667 16.6667 40.3333 16.6667 40.6667V41.5ZM15.8333 41.3333H16.5V40.6667C16.5 40.5 16.3333 40.3333 16.1667 40.3333C16 40.3333 15.8333 40.5 15.8333 40.6667V41.3333Z" fill="#3E4347"/>
<path d="M17.6667 41.5H16.6667V40.6667C16.6667 40.3333 16.8333 40.1667 17.1667 40.1667C17.5 40.1667 17.6667 40.3333 17.6667 40.6667V41.5ZM16.8333 41.3333H17.5V40.6667C17.5 40.5 17.3333 40.3333 17.1667 40.3333C17 40.3333 16.8333 40.5 16.8333 40.6667V41.3333Z" fill="#3E4347"/>
<path d="M15 53.1667H18.3333L18 51.5V49.8333H18.3333V49H18V49.5H17.6667V49H17.3333V49.5H16.8333V49H16.5V49.5H16.1667V49H15.8333V49.5H15.5V49H15V49.8333H15.5V51.5L15 53.1667Z" fill="#FFCC4D"/>
<path d="M17.1667 53.1667H17V52.5C17 52.3333 16.8333 52.1667 16.6667 52.1667C16.5 52.1667 16.3333 52.3333 16.3333 52.5V53.1667H16.1667V52.5C16.1667 52.1667 16.3333 52 16.6667 52C17 52 17.1667 52.1667 17.1667 52.5V53.1667Z" fill="#3E4347"/>
<path d="M16.6667 51.3333H15.6667V50.5C15.6667 50.1667 15.8333 50 16.1667 50C16.5 50 16.6667 50.1667 16.6667 50.5V51.3333ZM15.8333 51.1667H16.5V50.5C16.5 50.3333 16.3333 50.1667 16.1667 50.1667C16 50.1667 15.8333 50.3333 15.8333 50.5V51.1667Z" fill="#3E4347"/>
<path d="M17.8333 51.3333H16.8333V50.5C16.8333 50.1667 17 50 17.3333 50C17.6667 50 17.8333 50.1667 17.8333 50.5V51.3333ZM17 51.1667H17.6667V50.5C17.6667 50.3333 17.5 50.1667 17.3333 50.1667C17.1667 50.1667 17 50.3333 17 50.5V51.1667Z" fill="#3E4347"/>
<path d="M31.6667 53.3333H35L34.6667 51.6667V50H35V49.3333H34.5V49.6667H34.3333V49.3333H33.8333V49.6667H33.5V49.3333H33.1667V49.6667H32.8333V49.3333H32.3333V49.6667H32V49.3333H31.6667V50H32V51.6667L31.6667 53.3333Z" fill="#FFCC4D"/>
<path d="M33.8333 53.3333H33.6667V52.6667C33.6667 52.5 33.5 52.3333 33.3333 52.3333C33.1667 52.3333 33 52.5 33 52.6667V53.3333H32.8333V52.6667C32.8333 52.3333 33 52.1667 33.3333 52.1667C33.6667 52.1667 33.8333 52.3333 33.8333 52.6667V53.3333Z" fill="#3E4347"/>
<path d="M33.3333 51.5H32.3333V50.6667C32.3333 50.3333 32.5 50.1667 32.8333 50.1667C33.1667 50.1667 33.3333 50.3333 33.3333 50.6667V51.5ZM32.5 51.3333H33.1667V50.6667C33.1667 50.5 33 50.3333 32.8333 50.3333C32.6667 50.3333 32.5 50.5 32.5 50.6667V51.3333Z" fill="#3E4347"/>
<path d="M34.3333 51.5H33.3333V50.6667C33.3333 50.3333 33.5 50.1667 33.8333 50.1667C34.1667 50.1667 34.3333 50.3333 34.3333 50.6667V51.5ZM33.5 51.3333H34.1667V50.6667C34.1667 50.5 34 50.3333 33.8333 50.3333C33.6667 50.3333 33.5 50.5 33.5 50.6667V51.3333Z" fill="#3E4347"/>
<path d="M31.6667 43.3333H35L34.6667 41.6667V40H35V39.1667H34.5V39.6667H34.3333V39.1667H33.8333V39.6667H33.5V39.1667H33.1667V39.6667H32.8333V39.1667H32.3333V39.6667H32V39.1667H31.6667V40H32V41.6667L31.6667 43.3333Z" fill="#FFCC4D"/>
<path d="M33.8333 43.3333H33.6667V42.6667C33.6667 42.5 33.5 42.3333 33.3333 42.3333C33.1667 42.3333 33 42.5 33 42.6667V43.3333H32.8333V42.6667C32.8333 42.3333 33 42.1667 33.3333 42.1667C33.6667 42.1667 33.8333 42.3333 33.8333 42.6667V43.3333Z" fill="#3E4347"/>
<path d="M33.3333 41.5H32.3333V40.6667C32.3333 40.3333 32.5 40.1667 32.8333 40.1667C33.1667 40.1667 33.3333 40.3333 33.3333 40.6667V41.5ZM32.5 41.3333H33.1667V40.6667C33.1667 40.5 33 40.3333 32.8333 40.3333C32.6667 40.3333 32.5 40.5 32.5 40.6667V41.3333Z" fill="#3E4347"/>
<path d="M34.3333 41.5H33.3333V40.6667C33.3333 40.3333 33.5 40.1667 33.8333 40.1667C34.1667 40.1667 34.3333 40.3333 34.3333 40.6667V41.5ZM33.5 41.3333H34.1667V40.6667C34.1667 40.5 34 40.3333 33.8333 40.3333C33.6667 40.3333 33.5 40.5 33.5 40.6667V41.3333Z" fill="#3E4347"/>
<path d="M20.3333 62.6667L22.6667 60.1667L21.1667 59.3333L20 58.1667L20.3333 57.8333L19.8333 57.3333L19.5 57.6667L19.8333 58L19.6667 58.1667L19.3333 57.8333L19 58.1667L19.3333 58.3333L19 58.6667L18.8333 58.3333L18.5 58.6667L18.8333 59L18.5 59.1667L18.3333 58.8333L18 59.1667L18.1667 59.5L18 59.6667L17.8333 59.3333L17.5 59.6667L18 60.1667H18.1667L18.3333 60L19.5 61.1667L20.3333 62.6667Z" fill="#FFCC4D"/>
<path d="M21.1667 60.6667C21 60.5 20.8333 60.5 20.6667 60.6667C20.5 60.8333 20.5 61 20.6667 61.1667L21.1667 61.6667L21 61.8333L20.5 61.3333C20.3333 61.1667 20.3333 60.8333 20.5 60.6667C20.6667 60.5 21 60.5 21.1667 60.6667Z" fill="#3E4347"/>
<path d="M20.1667 60.1667L19.5 60.8333L19 60.3333C18.8333 60.1667 18.8333 59.8333 19 59.6667C19.1667 59.5 19.5 59.5 19.6667 59.6667L20.1667 60.1667ZM19.5 60.6667L20 60.1667L19.5 59.6667C19.3333 59.5 19.1667 59.5 19 59.6667C18.8333 59.8333 18.8333 60 19 60.1667L19.5 60.6667Z" fill="#3E4347"/>
<path d="M21 59.3333L20.3333 60L19.8333 59.5C19.6667 59.3333 19.6667 59 19.8333 58.8333C20 58.6667 20.3333 58.6667 20.5 58.8333L21 59.3333ZM20.3333 59.8333L20.8333 59.3333L20.3333 58.8333C20.1667 58.6667 20 58.6667 19.8333 58.8333C19.6667 59 19.6667 59.1667 19.8333 59.3333L20.3333 59.8333Z" fill="#3E4347"/>
<path d="M29.6667 62.6667L27.3333 60.1667L28.6667 59.3333L29.8333 58.1667L29.6667 57.8333L30.1667 57.3333L30.5 57.6667L30.1667 58L30.3333 58.1667L30.6667 57.8333L31 58.1667L30.6667 58.3333L31 58.6667L31.1667 58.3333L31.5 58.6667L31.1667 59L31.5 59.1667L31.6667 58.8333L32 59.1667L31.6667 59.5L32 59.6667L32.1667 59.3333L32.5 59.6667L32 60.1667H31.8333L31.6667 60L30.5 61.1667L29.6667 62.6667Z" fill="#FFCC4D"/>
<path d="M28.1667 61L28.8333 60.6667C29 60.5 29.1667 60.5 29.3333 60.6667C29.5 60.8333 29.5 61 29.3333 61.1667L28.6667 61.6667L28.8333 61.8333L29.3333 61.3333C29.5 61.1667 29.5 60.8333 29.3333 60.6667C29.1667 60.5 28.8333 60.5 28.6667 60.6667L28.1667 61Z" fill="#3E4347"/>
<path d="M30.3333 59.6667C30.5 59.5 30.8333 59.5 31 59.6667C31.1667 59.8333 31.1667 60.1667 31 60.3333L30.5 60.8333L29.8333 60.1667L30.3333 59.6667ZM30.8333 60.1667C31 60 31 59.8333 30.8333 59.6667C30.6667 59.5 30.5 59.5 30.3333 59.6667L30 60.1667L30.5 60.6667L30.8333 60.1667Z" fill="#3E4347"/>
<path d="M29.5 58.8333C29.6667 58.6667 30 58.6667 30.1667 58.8333C30.3333 59 30.3333 59.3333 30.1667 59.5L29.6667 60L29 59.3333L29.5 58.8333ZM30.1667 59.3333C30.3333 59.1667 30.3333 59 30.1667 58.8333C30 58.6667 29.8333 58.6667 29.6667 58.8333L29.1667 59.3333L29.6667 59.8333L30.1667 59.3333Z" fill="#3E4347"/>
</svg>
