<svg width="100" height="100" viewBox="0 0 100 100" fill="none" xmlns="http://www.w3.org/2000/svg">
<path d="M50 100C71.8333 100 90.3333 86.1667 97.1667 66.6667H2.83334C9.66668 86.1667 28.1667 100 50 100Z" fill="#0038A8"/>
<path d="M50 0C28.1667 0 9.66668 14 2.83334 33.3333H97.1667C90.3333 14 71.8333 0 50 0Z" fill="#D52B1E"/>
<path d="M97.1667 66.6667C99 61.5 100 55.8333 100 50C100 44.1667 99 38.5 97.1667 33.3333H2.83333C1 38.5 0 44.1667 0 50C0 55.8333 1 61.5 2.83333 66.6667H97.1667Z" fill="#F9F9F9"/>
<path d="M50 65C41.6667 65 35 58.3333 35 50C35 41.6667 41.6667 35 50 35C58.3333 35 65 41.6667 65 50C65 58.3333 58.3333 65 50 65ZM50 35.5C42 35.5 35.5 42 35.5 50C35.5 58 42 64.5 50 64.5C58 64.5 64.5 58 64.5 50C64.5 42 58 35.5 50 35.5Z" fill="#3E4347"/>
<path d="M50 37.3333C43 37.3333 37.3333 43 37.3333 50C37.3333 57 43 62.6667 50 62.6667C57 62.6667 62.6667 57 62.6667 50C62.6667 43 57 37.3333 50 37.3333ZM50 59.5C44.8333 59.5 40.5 55.1667 40.5 50C40.5 44.8333 44.8333 40.5 50 40.5C55.1667 40.5 59.5 44.8333 59.5 50C59.5 55.1667 55.1667 59.5 50 59.5Z" fill="#D52B1E"/>
<path d="M40 50C40 44.5 44.5 40 50 40C55.5 40 60 44.5 60 50H62.1667C62.1667 43.3333 56.6667 37.8333 50 37.8333C43.3333 37.8333 37.8333 43.3333 37.8333 50H40Z" fill="#FFAC33"/>
<path d="M54.8333 49.5C54.8333 52.1667 52.6667 54.3333 50 54.3333C47.3333 54.3333 45.1667 52.1667 45.1667 49.5C45.1667 46.8333 47.3333 44.6667 50 44.6667C52.6667 44.6667 54.8333 46.8333 54.8333 49.5Z" fill="#0038A8"/>
<path d="M52.6667 52.6667L50 50.8333L47.3333 52.6667L48.3333 49.8333L46 48H48.8333L49.8333 45.1667L50.8333 48H53.6667L51.6667 49.8333L52.6667 52.6667Z" fill="#FFAC33"/>
<path d="M45.6667 45.8333C45.6667 45.8333 45 45.6667 44.6667 45.6667C45 45.1667 45.1667 44 45.1667 44C45.1667 44 44.1667 44.5 43.8333 45.1667C43.6667 44.8333 43.3333 44.3333 43.3333 44.3333C43.3333 44.3333 42.8333 44.8333 43 45.3333C43 45.8333 43.6667 46.5 43.6667 46.5C43.6667 46.5 44.5 46.8333 45 46.6667C45.3333 46.3333 45.6667 45.8333 45.6667 45.8333Z" fill="#699635"/>
<path d="M44.8333 47.1667C44.8333 47.1667 44.1666 47.1667 43.8333 47.3333C44 46.6667 43.8333 45.6667 43.8333 45.6667C43.8333 45.6667 43 46.5 42.8333 47C42.5 46.6667 42 46.3333 42 46.3333C42 46.3333 41.6667 47 41.8333 47.3333C42 47.6667 42.8333 48.3333 42.8333 48.3333C42.8333 48.3333 43.8333 48.3333 44.1667 48.1667C44.5 48 44.8333 47.1667 44.8333 47.1667Z" fill="#83BF4F"/>
<path d="M44.3333 48.6667C44.3333 48.6667 43.6667 48.8333 43.3333 49C43.3333 48.3333 43 47.3333 43 47.3333C43 47.3333 42.5 48.3333 42.5 49C42.1667 48.6667 41.6667 48.5 41.6667 48.5C41.6667 48.5 41.5 49.1667 41.8333 49.5C42.1667 49.8333 43 50.1667 43 50.1667C43 50.1667 43.8333 50 44.1667 49.6667C44.5 49.3333 44.3333 48.6667 44.3333 48.6667Z" fill="#699635"/>
<path d="M44.3333 50.3333C44.3333 50.3333 43.8333 50.6667 43.5 51C43.3333 50.3333 42.6667 49.5 42.6667 49.5C42.6667 49.5 42.3333 50.5 42.5 51.1667C42 51 41.5 51 41.5 51C41.5 51 41.5 51.6667 42 52C42.3333 52.3333 43.3333 52.3333 43.3333 52.3333C43.3333 52.3333 44.1667 51.8333 44.3333 51.5C44.5 51.1667 44.3333 50.3333 44.3333 50.3333Z" fill="#83BF4F"/>
<path d="M44.6667 51.8333C44.6667 51.8333 44.1667 52.3333 44 52.6667C43.6667 52 42.8333 51.5 42.8333 51.5C42.8333 51.5 42.8333 52.5 43.1667 53.1667H42.1667C42.1667 53.1667 42.3333 53.8333 42.8333 54C43.3333 54.1667 44.1667 54 44.1667 54C44.1667 54 44.8333 53.3333 45 52.8333C45.1667 52.3333 44.6667 51.8333 44.6667 51.8333Z" fill="#699635"/>
<path d="M45.5 53.3333C45.5 53.3333 45.1667 53.8333 45 54.3333C44.5 53.8333 43.5 53.5 43.5 53.5C43.5 53.5 43.8333 54.5 44.1667 55C43.6667 55 43.1667 55.3333 43.1667 55.3333C43.1667 55.3333 43.5 55.8333 44 56C44.5 56 45.3333 55.6667 45.3333 55.6667C45.3333 55.6667 45.8333 54.8333 45.8333 54.3333C46 53.6667 45.5 53.3333 45.5 53.3333Z" fill="#83BF4F"/>
<path d="M46.5 54.5C46.5 54.5 46.3333 55.1667 46.3333 55.5C45.8333 55.1667 44.6667 55 44.6667 55C44.6667 55 45.1667 55.8333 45.8333 56.3333C45.5 56.5 45 56.8333 45 56.8333C45 56.8333 45.5 57.3333 46 57.1667C46.5 57.1667 47.1667 56.5 47.1667 56.5C47.1667 56.5 47.5 55.6667 47.3333 55.1667C47.1667 54.8333 46.5 54.5 46.5 54.5Z" fill="#699635"/>
<path d="M48 55.3333C48 55.3333 48 56 48.1667 56.3333C47.5 56.1667 46.5 56.3333 46.5 56.3333C46.5 56.3333 47.3333 57 47.8333 57.3333L47.1667 58C47.1667 58 47.8333 58.3333 48.1667 58.1667C48.6667 58 49.1667 57.1667 49.1667 57.1667C49.1667 57.1667 49.1667 56.1667 49 55.8333C48.5 55.5 48 55.3333 48 55.3333Z" fill="#83BF4F"/>
<path d="M54.3333 45.8333C54.3333 45.8333 55 45.6667 55.3333 45.6667C55 45.1667 54.8333 44 54.8333 44C54.8333 44 55.8333 44.5 56.1667 45.1667C56.3333 44.8333 56.6667 44.3333 56.6667 44.3333C56.6667 44.3333 57.1667 44.8333 57 45.3333C57 45.8333 56.3333 46.5 56.3333 46.5C56.3333 46.5 55.5 46.6667 55 46.5C54.6667 46.3333 54.3333 45.8333 54.3333 45.8333Z" fill="#699635"/>
<path d="M55.1667 47.1667C55.1667 47.1667 55.8333 47.1667 56.1667 47.3333C56 46.6667 56.1667 45.6667 56.1667 45.6667C56.1667 45.6667 57 46.5 57.1667 47C57.5 46.6667 58 46.3333 58 46.3333C58 46.3333 58.3333 47 58.1667 47.3333C58 47.6667 57 48.3333 57 48.3333C57 48.3333 56 48.3333 55.6667 48.1667C55.3333 48 55.1667 47.1667 55.1667 47.1667Z" fill="#83BF4F"/>
<path d="M55.6667 48.6667C55.6667 48.6667 56.3333 48.8333 56.6667 49C56.6667 48.3333 57 47.3333 57 47.3333C57 47.3333 57.5 48.3333 57.5 49C57.8333 48.6667 58.3333 48.5 58.3333 48.5C58.3333 48.5 58.5 49.1667 58.1667 49.5C57.8333 49.8333 57 50.1667 57 50.1667C57 50.1667 56.1667 50 55.8333 49.6667C55.5 49.3333 55.6667 48.6667 55.6667 48.6667Z" fill="#699635"/>
<path d="M55.6667 50.3333C55.6667 50.3333 56.1667 50.6667 56.5 51C56.6667 50.3333 57.3333 49.5 57.3333 49.5C57.3333 49.5 57.6667 50.5 57.5 51.1667C58 51 58.5 51 58.5 51C58.5 51 58.5 51.6667 58 52C57.6667 52.3333 56.6667 52.3333 56.6667 52.3333C56.6667 52.3333 55.8333 51.8333 55.6667 51.5C55.5 51 55.6667 50.3333 55.6667 50.3333Z" fill="#83BF4F"/>
<path d="M55.3333 51.8333C55.3333 51.8333 55.8333 52.3333 56 52.6667C56.3333 52 57.1667 51.5 57.1667 51.5C57.1667 51.5 57.1667 52.5 56.8333 53.1667H57.8333C57.8333 53.1667 57.6667 53.8333 57.1667 54C56.6667 54.1667 55.8333 54 55.8333 54C55.8333 54 55.1667 53.3333 55 52.8333C54.8333 52.3333 55.3333 51.8333 55.3333 51.8333Z" fill="#699635"/>
<path d="M54.5 53.3333C54.5 53.3333 54.8333 53.8333 55 54.3333C55.5 53.8333 56.5 53.5 56.5 53.5C56.5 53.5 56.1667 54.5 55.8333 55C56.3333 55 56.8333 55.3333 56.8333 55.3333C56.8333 55.3333 56.5 55.8333 56 56C55.5 56 54.6667 55.6667 54.6667 55.6667C54.6667 55.6667 54.1667 54.8333 54.1667 54.3333C54 53.6667 54.5 53.3333 54.5 53.3333Z" fill="#83BF4F"/>
<path d="M53.5 54.5C53.5 54.5 53.6667 55.1667 53.6667 55.5C54.1667 55.1667 55.3333 55 55.3333 55C55.3333 55 54.8333 55.8333 54.1667 56.3333C54.5 56.5 55 56.8333 55 56.8333C55 56.8333 54.5 57.3333 54 57.1667C53.5 57.1667 52.8333 56.5 52.8333 56.5C52.8333 56.5 52.5 55.6667 52.6667 55.1667C52.8333 54.8333 53.5 54.5 53.5 54.5Z" fill="#699635"/>
<path d="M52 55.3333C52 55.3333 52 56 51.8333 56.3333C52.5 56.1667 53.5 56.3333 53.5 56.3333C53.5 56.3333 52.6667 57 52.1667 57.3333L52.8333 58C52.8333 58 52.1667 58.3333 51.8333 58.1667C51.3333 58 50.8333 57.1667 50.8333 57.1667C50.8333 57.1667 50.8333 56.1667 51 55.8333C51.5 55.5 52 55.3333 52 55.3333Z" fill="#83BF4F"/>
</svg>
