<svg width="100" height="100" viewBox="0 0 100 100" fill="none" xmlns="http://www.w3.org/2000/svg">
<path d="M49.8333 0C28.1667 0 9.66668 14 2.83334 33.3333H97.1667C90.1667 14 71.6667 0 49.8333 0Z" fill="#F0F0F0"/>
<path d="M49.8333 100C71.6667 100 90.1667 86 97 66.6667H2.83334C9.66668 86.1667 28.1667 100 49.8333 100Z" fill="#CE2028"/>
<path d="M2.83333 33.3333C1 38.5 0 44.1667 0 50C0 55.8333 1 61.5 2.83333 66.6667H97.1667C99 61.5 100 55.8333 100 50C100 44.1667 99 38.5 97.1667 33.3333H2.83333Z" fill="#22408C"/>
</svg>
