<svg width="100" height="100" viewBox="0 0 100 100" fill="none" xmlns="http://www.w3.org/2000/svg">
<path d="M50 100C77.6142 100 100 77.6142 100 50C100 22.3858 77.6142 0 50 0C22.3858 0 0 22.3858 0 50C0 77.6142 22.3858 100 50 100Z" fill="#006C35"/>
<path d="M49.5 41.1667C49.3333 39.6667 50.1667 38.1667 51.6667 38.5C52.8333 38.6667 54.1667 39.8333 53.5 41C52.5 42.8333 49.8333 42.8333 48.1667 43.8333C48.3333 44.8333 53.1667 43.6667 54 43.6667C54.8333 43.6667 55.6667 44 55.1667 45C54.6667 46 53 46 52 46.1667C51 46.3333 49.3333 46.3333 48.8333 47.1667C47.8333 48.5 49.8333 48.6667 50.5 49C52.1667 49.8333 49.5 50.6667 48.8333 50.5C46.3333 50 45.8333 48.6667 44.3333 47C42.8333 49 38.1667 53.5 37.1667 48.8333C35.5 49.5 33.8333 50.3333 32 50.5C32.8333 49.3333 34.5 48.8333 35.8333 48.1667C37.5 47.3333 37.5 45.8333 38.5 44.5C38.8333 45 38.5 45.6667 38.6667 46.3333C40 45.6667 41.6667 44.3333 41 42.6667C41 42.5 39 38.5 40.6667 39.1667C42.1667 39.8333 41.6667 41.3333 42 42.5C42.5 44.6667 41.5 45.8333 39.8333 47.1667C39.1667 47.6667 37.3333 49.6667 39.5 49.6667C41 49.6667 42.3333 48 43.1667 47C44.1667 45.6667 43.8333 44.3333 43.1667 42.8333C42.6667 41.6667 41.5 39.1667 43 38.3333C44.1667 40.1667 44.6667 42.3333 45.1667 44.5C45.5 46.3333 45.8333 48.1667 47.8333 48.6667C47.6667 47.3333 48.5 46.3333 49.6667 45.8333C48.8333 45.1667 44.1667 46 46 43.5C46.1667 42.3333 49.5 41.8333 49.5 41.1667Z" fill="white"/>
<path d="M24 47.3333C24.8333 49.6667 27.6667 48.8333 29.3333 48.1667C32 46.8333 32 44.8333 32 42.1667C31 42.6667 31.1667 44.5 30.8333 45.3333C30.1667 46.6667 28 47.8333 26.5 47.6667C24.3333 47.3333 23.3333 43.6667 25 42.3333C25.3333 43.5 24.5 46 26.5 46.1667C28 46.3333 31 44.5 30.5 42.8333C28.5 43.5 27.3333 42.8333 28 40.6667C28.5 38.6667 30.5 40.1667 31.3333 41.1667C34.5 39.3333 28.8333 32.3333 32.1667 30.5C32.8333 31.6667 33.8333 33.1667 33 34.3333C32 35.6667 33 38.5 33.1667 40C34.8333 38.5 33.5 41.1667 34.8333 41.3333C35.6667 41.5 36 39.3333 36.5 39.3333C36.6667 39.8333 36.6667 41.3333 37.5 41.1667C38.5 40.8333 37.3333 39.5 38.3333 39.1667C38.6667 40 38.5 42.5 37.3333 42.3333C36.3333 42.1667 36.5 41.5 35.3333 42.1667C34.3333 42.6667 34 42.1667 33.3333 41.6667C33.1667 43.6667 33.8333 45.8333 32.6667 47.6667C31.6667 49.1667 29.6667 50 28 50.3333C23.6667 51.1667 22.5 46.8333 24 43.3333C24.3333 44.3333 23.6667 46.1667 24 47.3333Z" fill="white"/>
<path d="M64.6667 48.1667C65.5 50.3333 67.1667 45.8333 67.6667 45.1667C69 43.1667 71 48.3333 71.8333 45C72.3333 42.8333 71.6667 40.6667 71.5 38.5C71.3333 37 70.8333 35.6667 69.8333 34.5C68.8333 33.1667 67.8333 32 68.3333 30.3333C70 31 70 32.3333 70.8333 33.6667C71 32.6667 70.3333 31.3333 71 30.5C71.8333 29.3333 72.5 32.5 72.5 32.8333C72.6667 33.6667 71.8333 34 72.3333 35.3333C72.6667 36.3333 73.3333 37.3333 74 38.1667C73.8333 37.1667 72.3333 30.3333 74 30.3333C74.5 30.3333 75 32.3333 75 32.6667C75.3333 33.6667 74.6667 34.5 74.6667 35.6667C74.5 37.6667 74.8333 40 76.1667 41.5C76.8333 42.3333 79.3333 45.3333 78 46.3333C77 45.1667 76.3333 43.8333 75.5 42.6667C75.5 44 75.8333 45.5 75.1667 46.5C74.5 46.1667 74.8333 44 74.8333 43.5C74.8333 41.6667 73.6667 40.1667 72.6667 38.6667C72.3333 41.1667 74.3333 45.8333 72 47.6667C70.5 49 68.5 46 68 47.1667C67.5 48 66.3333 51 65 50.6667C63.3333 50.3333 62.1667 45.6667 64 45.1667C64.1667 46 64.1667 47.1667 64.6667 48.1667Z" fill="white"/>
<path d="M29 36.8334C30.1667 37 29 33 29 32.3334C29.1667 31.6667 29.6667 31.3334 30 32C30.5 33 30.5 34.1667 30.6667 35.1667C30.6667 36 30.8333 37 30.1667 37.6667C29.1667 38.6667 27.8333 38.1667 27.3333 36.8334C25 38.8334 28 42.3334 26 44.3334C25.6667 42.5 26 40.5 25.3333 38.8334C25 38 23.5 38.3334 23.3333 36.8334C23.3333 36.1667 23.8333 34.3334 23.1667 33.8334C22.8333 34.5 22.5 39.6667 20.8333 38.1667C19.5 37.1667 19.8333 33.8334 20.3333 32.5C21.3333 33 20.1667 36.6667 21.5 36.8334C22.1667 37 22.3333 34.1667 22.5 33.6667C23 32.8334 24.6667 30.5 24.3333 32.8334C24.1667 33.8334 23.3333 37 25.3333 36.8334C25.1667 35.1667 25 33.5 24.6667 31.8334C24.5 31 25 29.3334 25.6667 30.8334C26.1667 31.8334 25.8333 32.3334 25.6667 33.3334C25.5 34.5 26 35.6667 26.1667 36.6667C27.1667 35.8334 25.8333 32.6667 26.6667 31.3334C28.6667 32.5 26.5 36.5 29 36.8334Z" fill="white"/>
<path d="M50.5 37.1667C49.6667 38.3333 48.1667 37.3333 47.5 36.5C46.6667 37.5 45 39.1667 43.6667 37.8333C42.6667 36.8333 43.8333 35 43 34.1667C42.5 35 41.6667 39 40.1667 37.1667C39.3333 36.1667 38.1667 32.6667 40 31.8333C39.8333 33.1667 39.5 34.6667 40.3333 35.8333C41.1667 37 42 34 42.3333 33.3333C42.8333 32.1667 44.5 30.1667 44.1667 32.6667C44 33.6667 43.6667 36 44.6667 36.6667C45.3333 37.1667 46.1667 36.3333 46.5 35.8333C47.1667 35 46.8333 33.6667 46.6667 32.6667C46.5 31.8333 46.1667 30.8333 46.6667 30C47.3333 29 47.8333 31.3333 47.8333 31.8333C47.8333 32.3333 48.5 37.5 49.6667 35.8333C50.8333 34.3333 47.6667 31 49.8333 30.1667C50.6667 29.8333 52.1667 33.1667 50.5 32.1667C51 33.6667 51.6667 35.8333 50.5 37.1667Z" fill="white"/>
<path d="M56.8333 39.1667C57 41.3334 58.8333 47.3334 56.3333 48.6667C56 48 56.3333 47 56.5 46.1667C56.6667 44.6667 56.3333 43.1667 56.1667 41.8334C55.8333 38.6667 55.5 36.3334 53.3333 33.8334C52.8333 33.1667 52 32.6667 51.8333 31.6667C51.8333 31.3334 51.6667 29.8334 52.3333 30.1667C52.8333 30.3334 55.6667 32.8334 54.1667 32.8334C54.3333 33.1667 55 34.5 55.3333 34.5C55.3333 33.6667 54.3333 31.1667 55.3333 30.6667C56.1667 30.1667 57.1667 33.3334 56.8333 34C56.5 34.8334 56.5 35.3334 56.8333 36.5C57.1667 37.8334 58 39 58.6667 40.1667C59.6667 41.8334 61.6667 44.1667 61.1667 46.3334C60.1667 45.8334 59.5 43.5 59 42.5C58.6667 41.6667 58.3333 40.8334 57.8333 40.1667C57.6667 40 56.6667 38.6667 56.8333 39.5V39.1667Z" fill="white"/>
<path d="M80 42.3333C80.1667 45.8333 79 50.3333 74.6667 50.3333C74.6667 49.3333 76.8333 48.3333 77.5 47.8333C79.1667 46.5 79 44 78.8333 42.1667C78.6667 39.6667 78.5 37.1667 78 34.6667C77.8333 33.1667 77 31 78.3333 30C79.1667 30.6667 80.3333 32.5 79.8333 33.1667C79 34.1667 79.8333 41.6667 80 42.3333Z" fill="white"/>
<path d="M58.6667 49.8333C63 47.3333 61.6667 42 61.3333 37.8333C61.1667 36.6667 61.1667 35.5 61 34.3333C61 33.5 60.3333 32.3333 60.6667 31.5C61.5 29.3333 62.1667 31.3333 62.3333 32.6667C62.5 33.5 61.8333 33.6667 62 34.3333C62.1667 35.6667 62.1667 37 62.3333 38.3333C62.5 40.5 62.8333 42.6667 62.6667 44.6667C62.3333 47.8333 60.6667 51.3333 56.8333 50.6667C57 50.3333 58.1667 50.1667 58.6667 49.8333Z" fill="white"/>
<path d="M65.6667 41.5C65.8333 43.1667 66.5 46.1667 65.6667 47.6667C65 48.6667 65 47 64.8333 46.8333C64.6667 45.5 64.6667 44.1667 64.6667 42.6667C64.3333 39 63.1667 35.3333 63.1667 31.8333C63.1667 27.3333 67 34.3333 64.8333 34C65 36.5 65.3333 39 65.6667 41.5Z" fill="white"/>
<path d="M38.5 33C38.8333 33.8333 34.6667 36 34.1667 36C34 35.1667 36 34 36.5 33.6667C37 33.1667 37.3333 33.1667 37.1667 32.5C36.8333 31.8333 37 30.6667 37.8333 30.3333C39.5 29.8333 38.3333 32.3333 38.5 33Z" fill="white"/>
<path d="M21.3333 47.8333C21.3333 49.1667 21.8333 48.5 22.5 48.1667C22.8333 48.8333 22 50.6667 21.1667 49.8333C20 48.6667 21 46 21.5 44.8333C21.8333 45.6667 21.1667 47 21.3333 47.8333Z" fill="white"/>
<path d="M68.3333 37.5C68.5 36.8333 68 36.1667 68.5 35.5C69.1667 34.6667 69.8333 35.6667 69.5 36C69.1667 36.3334 68.6667 35.6667 68.6667 36.6667C68.6667 37.1667 69 38.1667 68.5 38.6667C68.1667 38.5 66.6667 36.3334 66.8333 36C67.5 35.3334 68.1667 37.3333 68.3333 37.5Z" fill="white"/>
<path d="M24.8333 40.3333C24.5 41 20.6667 43.1667 20.5 42.6667C20.5 42.1667 25.3333 39.3333 24.8333 40.3333Z" fill="white"/>
<path d="M53.1667 48.8334C52.6667 50.3334 54.8334 49 55.3334 48.8334C54.6667 50 52.3333 51 52.6667 48.8334C52.5 48.8334 52.1667 49 52 49C51.6667 48.6667 53.6667 47.3334 53.1667 48.8334Z" fill="white"/>
<path d="M71.3333 48.3333C71.8333 48.3333 72.6667 49.8333 72.1667 50.1667C71.8333 50.5 70.3333 50.6667 71.1667 50C72.1667 49 71.3333 48.3333 71.3333 48.3333Z" fill="white"/>
<path d="M47.8334 39.8333C48 39.5 48 39 48.1667 38.6667C49.8334 40 45.5 42.1667 46.3334 39C46.6667 39.3333 46.6667 39.8333 47 40C47 39.6667 47.1667 39.1667 47.1667 38.8333C47.5 39.1667 47.5 39.6667 47.8334 39.8333Z" fill="white"/>
<path d="M67.3333 42C66.8333 41.3333 69.8333 39.5 70.3333 39.1667C70.6667 39.6667 68.3333 41.5 67.3333 42Z" fill="white"/>
<path d="M76.6667 35.3333C76.3333 34.3333 75.3333 32.3333 76.3333 31.5C77 32 77.3333 34.5 76.6667 35.3333Z" fill="white"/>
<path d="M58.5 32C58.3333 31.6667 57.8333 31.3333 57.8333 30.8333C58 30.1667 58.3333 30.3333 58.6667 30.6667C59.1667 31.3333 59.5 33.1667 58.6667 33.6667C58.6667 33.1667 58.8333 32.5 58.5 32Z" fill="white"/>
<path d="M38.1667 36.5C38.1667 37.5 36.5 38.5 36.3333 37.1667C36.1667 36.6667 37 34.8333 37.3333 35.3333C36.6667 36.8333 36.6667 37.3333 38.1667 36.5Z" fill="white"/>
<path d="M59 34.6667C59.6667 36.3333 59.3333 34.8333 60 34.5C61.1667 36.6667 57.5 36.1667 58.3333 34.8333C58.5 35 58.6667 35.3333 58.6667 35.5C58.8333 35.3333 58.8333 35 59 34.6667Z" fill="white"/>
<path d="M69.6667 42.3334C68.8333 41.6667 69.8333 40.8334 70.3333 41.6667C70.6667 42.1667 70.6667 43.5 70 43.8334C70 43.3334 70.1667 42.6667 69.6667 42.3334Z" fill="white"/>
<path d="M35.5 46C35.5 45.6667 35.3333 43.1667 35.8333 43.5C36.5 43.8334 36.3333 45.6667 35.5 46Z" fill="white"/>
<path d="M28.5 30.3333C28.6667 30.8333 28.8333 31.5 29.1667 30.6667C30.5 32.1667 25.8333 31.6667 27.5 30.1667C27.5 30.3333 27.8333 31.3333 28.5 30.3333Z" fill="white"/>
<path d="M45.5 34C45.5 33.3333 44.5 30.5 45.3333 30.5C46.3333 30.6667 46.1667 33.1667 45.5 34Z" fill="white"/>
<path d="M22.1667 32.5C21.6667 32.3333 22.5 31.5 22.1667 30.8333C21.8333 31 21.5 30.5 21.8333 30.1667C23.1667 29.1667 22.6667 32.5 22.1667 32.5Z" fill="white"/>
<path d="M65.3333 66.3333L64.6667 64.3333L64 66.3333H27.5C27.5 66.3333 27.8333 69.3333 31.5 69.3333H63.8333V71.6667H72.6667V66.3333H65.3333ZM71 70.3333H65V68.6667H71V70.3333Z" fill="white"/>
</svg>
