<svg width="100" height="100" viewBox="0 0 100 100" fill="none" xmlns="http://www.w3.org/2000/svg">
<path d="M50 100C77.6142 100 100 77.6142 100 50C100 22.3858 77.6142 0 50 0C22.3858 0 0 22.3858 0 50C0 77.6142 22.3858 100 50 100Z" fill="#F0F0F0"/>
<path d="M80.4406 10.3359C72.0096 3.85527 61.4559 0 50 0C38.5441 0 27.9902 3.85547 19.5592 10.3359L50 40.7766L80.4406 10.3359Z" fill="#0052B4"/>
<path d="M10.3357 19.5594C3.85547 27.9904 0 38.5441 0 50C0 61.4559 3.85547 72.0098 10.3359 80.441L40.7768 50L10.3357 19.5594Z" fill="#0052B4"/>
<path d="M19.5592 89.6641C27.9904 96.1447 38.5441 100 50 100C61.4559 100 72.0096 96.1445 80.4408 89.6641L50 59.2234L19.5592 89.6641Z" fill="#0052B4"/>
<path d="M89.6641 80.4406C96.1447 72.0096 100 61.4559 100 50C100 38.5441 96.1447 27.9904 89.6641 19.5594L59.2234 50L89.6641 80.4406Z" fill="#0052B4"/>
</svg>
