<svg width="100" height="100" viewBox="0 0 100 100" fill="none" xmlns="http://www.w3.org/2000/svg">
<path d="M50.0032 99.9998C77.6157 99.9998 100 77.6155 100 50.003C100 22.3905 77.6157 0.00613403 50.0032 0.00613403C22.3907 0.00613403 0.0063324 22.3905 0.0063324 50.003C0.0063324 77.6155 22.3907 99.9998 50.0032 99.9998Z" fill="white"/>
<path d="M97.1416 33.3285C97.1369 33.3127 97.1321 33.2994 97.1258 33.2851C90.7273 15.242 74.2669 1.96711 54.4909 0.204987C62.1432 4.40014 62.1755 95.579 54.4909 99.7916C74.3032 98.0263 90.7864 84.7058 97.1606 66.6161C97.1771 66.5663 97.1914 66.519 97.2087 66.4724C99.0095 61.3133 99.9996 55.7728 99.9996 50.0002C99.9987 44.1515 98.9858 38.5429 97.1416 33.3285Z" fill="#DB2727"/>
<path d="M68.9105 33.3285C66.9527 17.6917 62.1432 4.40035 54.4901 0.205197C53.0683 0.0804323 51.6298 0.0109776 50.1773 0.00464439C50.1174 0.00464439 50.0589 0 49.9981 0C28.2476 0 9.75132 13.8914 2.87277 33.2853C2.86812 33.2994 2.86327 33.3129 2.85693 33.3288C1.0129 38.5429 0 44.1515 0 49.9996C0 55.773 0.991577 61.3125 2.79064 66.4717C2.80732 66.5184 2.82294 66.5657 2.83878 66.6155C9.68988 86.0575 28.213 99.9979 49.9981 99.9979C50.0581 99.9979 50.1165 99.9947 50.1773 99.9932C51.63 99.9886 53.0683 99.9189 54.4901 99.7912C62.1746 95.5788 66.9936 82.1934 68.9348 66.472C70.2565 55.777 70.2478 44.0092 68.9105 33.3285Z" fill="#DB2727"/>
<path d="M23.4905 26.868C23.4905 20.0897 28.9858 14.5942 35.7658 14.5942C38.0466 14.5942 40.1805 15.2171 42.0104 16.301C39.3261 13.6492 35.6379 12.0096 31.5658 12.0096C23.3594 12.0096 16.7082 18.6616 16.7082 26.8672C16.7082 35.0727 23.3602 41.7248 31.5658 41.7248C35.6379 41.7248 39.3261 40.0842 42.0104 37.4317C40.1805 38.5155 38.0464 39.14 35.7658 39.14C28.9858 39.1412 23.4905 33.6461 23.4905 26.868Z" fill="#F3F4F5"/>
<path d="M49.7629 18.8402L52.8158 23.8147L58.4904 22.4474L54.7033 26.8895L57.7561 31.8616L52.3642 29.6337L48.5757 34.0746L49.0278 28.2554L43.6359 26.0276L49.3097 24.6611L49.7629 18.8402Z" fill="#F3F4F5"/>
</svg>
