<svg width="100" height="100" viewBox="0 0 100 100" fill="none" xmlns="http://www.w3.org/2000/svg">
<path d="M50 100C77.6142 100 100 77.6142 100 50C100 22.3858 77.6142 0 50 0C22.3858 0 0 22.3858 0 50C0 77.6142 22.3858 100 50 100Z" fill="#F0F0F0"/>
<path d="M50 36.9565H98.2775C97.0238 32.3053 95.1184 27.9223 92.6613 23.9129H50V36.9565Z" fill="#338AF3"/>
<path d="M18.8756 89.1305H81.1242C85.6873 85.4961 89.6006 81.0816 92.6611 76.0869H7.33867C10.3994 81.0814 14.3127 85.4961 18.8756 89.1305Z" fill="#338AF3"/>
<path d="M50 0C50 4.34785 50 10.8695 50 10.8695H81.1244C72.5834 4.06719 61.7674 0 50 0Z" fill="#338AF3"/>
<path d="M50 36.9565H98.2775C97.0238 32.3053 95.1184 27.9223 92.6613 23.9129H50V36.9565Z" fill="#338AF3"/>
<path d="M0 50C0 54.5131 0.601563 58.8846 1.72246 63.0436H98.2777C99.3984 58.8846 100 54.5131 100 50H0Z" fill="#338AF3"/>
<path d="M43.4783 29.2619L37.3717 32.1344L40.6234 38.0484L33.9926 36.7801L33.1523 43.4783L28.534 38.5518L23.9152 43.4783L23.0752 36.7801L16.4443 38.048L19.6959 32.1342L13.5896 29.2619L19.6961 26.3898L16.4443 20.4758L23.075 21.7441L23.9154 15.0459L28.534 19.9725L33.1525 15.0459L33.9926 21.7441L40.6236 20.4758L37.3719 26.39L43.4783 29.2619Z" fill="#FFDA44"/>
</svg>
