<svg width="100" height="100" viewBox="0 0 100 100" fill="none" xmlns="http://www.w3.org/2000/svg">
<path d="M99.7781 54.6765H0.225037V54.678H99.7781V54.6765Z" fill="#C42126"/>
<path d="M94.5891 27.3815H5.41022V27.383H94.5891V27.3815Z" fill="#C42126"/>
<path d="M98.1321 36.4784H1.86392V36.4799H98.1321V36.4784Z" fill="#C42126"/>
<path d="M21.4895 91.0663H78.5104L78.5134 91.0631H21.4864L21.4895 91.0663Z" fill="#C42126"/>
<path d="M49.9997 0C49.0176 0 48.0433 0.0354672 47.0761 0.0907792H52.9238C51.9558 0.0354672 50.9818 0 49.9997 0Z" fill="#C42126"/>
<path d="M99.7908 45.5775H0.206039V45.5789H99.7908V45.5775Z" fill="#C42126"/>
<path d="M64.778 18.2844H88.6533C85.8174 14.832 82.5215 11.776 78.8701 9.18875H60.9418C62.4253 11.7988 63.7011 14.8785 64.778 18.2844Z" fill="#E7E7E7"/>
<path d="M60.9417 9.18875H78.87C71.4584 3.93643 62.5601 0.647272 52.9238 0.0907745H51.3844C55.92 0.661628 58.0032 4.01835 60.9417 9.18875Z" fill="#DC3027"/>
<path d="M98.1358 36.4793C97.2468 33.3088 96.0546 30.2668 94.5895 27.3836H67.1218C67.6783 30.304 68.1174 33.3544 68.4426 36.4793H98.1358Z" fill="#E7E7E7"/>
<path d="M65.5769 27.3822H94.5886C92.9354 24.1304 90.9492 21.0789 88.6533 18.285H63.3103C64.204 21.1138 64.9627 24.1652 65.5769 27.3822Z" fill="#DC3027"/>
<path d="M69.4944 54.6744H99.7747C99.9185 53.1358 99.9998 51.5765 99.9998 50.0007C99.9998 48.5094 99.9216 47.0371 99.7937 45.5781H69.5015C69.6001 48.6034 69.5984 51.6508 69.4944 54.6744Z" fill="#E7E7E7"/>
<path d="M99.7945 45.5766C99.5205 42.4526 98.9577 39.4131 98.1358 36.481H67.167C67.478 39.4596 67.6834 42.507 67.7837 45.5766H99.7945Z" fill="#DC3027"/>
<path d="M66.5993 72.8695H94.4584C95.9442 69.9895 97.1552 66.9452 98.0632 63.7724H67.9462C67.6146 66.9019 67.1645 69.9517 66.5993 72.8695Z" fill="#E7E7E7"/>
<path d="M98.064 63.7717C98.9032 60.8404 99.4859 57.801 99.7755 54.6761H68.5509C68.4442 57.748 68.2327 60.7946 67.9154 63.7717H98.064Z" fill="#DC3027"/>
<path d="M78.5139 91.0631C82.2181 88.4862 85.5607 85.427 88.4416 81.9674H64.9823C63.8858 85.3875 62.5839 88.4624 61.0735 91.0631H78.5139Z" fill="#E7E7E7"/>
<path d="M64.0996 81.9668H88.4415C90.7641 79.1761 92.7805 76.1247 94.458 72.8697H66.3946C65.7718 76.089 65.0052 79.1419 64.0996 81.9668Z" fill="#DC3027"/>
<path d="M48.1877 99.9645C48.0865 99.9614 47.9856 99.9567 47.8845 99.9536C47.9856 99.9565 48.0868 99.9614 48.1877 99.9645Z" fill="#DC3027"/>
<path d="M49.9997 100C60.5999 100 70.4218 96.6912 78.5109 91.0663H60.4152C57.2035 96.5996 55.0846 100 49.9997 100Z" fill="#DC3027"/>
<path d="M49.9996 100C49.3925 100 48.7893 99.9859 48.1879 99.9645C48.7957 99.985 49.3995 100 49.9996 100Z" fill="#C42126"/>
<path d="M62.5969 9.18875H21.1304C17.4784 11.776 14.1831 14.8318 11.3463 18.2844H66.4322C65.3553 14.8785 64.0804 11.7988 62.5969 9.18875Z" fill="#F3F4F5"/>
<path d="M21.1304 9.18875H62.5969C59.6577 4.01835 55.9195 0.661628 51.384 0.0907745H47.0757C37.4394 0.647272 28.5412 3.93643 21.1304 9.18875Z" fill="#E73625"/>
<path d="M1.86476 36.4793H70.0188C69.6935 33.3537 69.2546 30.304 68.6981 27.3836H5.41106C3.94572 30.267 2.75376 33.3088 1.86476 36.4793Z" fill="#F3F4F5"/>
<path d="M11.3463 18.2844C9.05216 21.0783 7.0643 24.1295 5.41191 27.3815H68.6981C68.0846 24.1652 67.326 21.114 66.4322 18.2844H11.3463Z" fill="#E73625"/>
<path d="M0 50.0007C0 51.5765 0.0821235 53.1358 0.225048 54.6744H70.6298C70.7341 51.6506 70.7355 48.604 70.6369 45.5787H0.206048C0.0781123 47.0371 0 48.5094 0 50.0007Z" fill="#F3F4F5"/>
<path d="M0.206039 45.5766H70.6361C70.5358 42.5064 70.3298 39.4598 70.0194 36.481H1.86392C1.04205 39.4138 0.479221 42.4526 0.206039 45.5766Z" fill="#E73625"/>
<path d="M69.9943 63.7717H1.93655C2.84456 66.9454 4.05635 69.9888 5.54133 72.8689H68.6474C69.2128 69.9517 69.6618 66.9019 69.9943 63.7717Z" fill="#F3F4F5"/>
<path d="M1.93654 63.7717H69.9943C70.311 60.7946 70.5231 57.7472 70.6298 54.6761H0.225037C0.514685 57.8016 1.09821 60.8404 1.93654 63.7717Z" fill="#E73625"/>
<path d="M21.4864 91.0631H62.4444C63.9548 88.4617 65.2573 85.3875 66.3532 81.9674H11.5587C14.4396 85.427 17.7813 88.4862 21.4864 91.0631Z" fill="#F3F4F5"/>
<path d="M5.54218 72.8695C7.2199 76.1244 9.23604 79.1759 11.5587 81.9666H66.3532C67.2581 79.1419 68.0246 76.089 68.6474 72.8695H5.54218Z" fill="#E73625"/>
<path d="M47.8841 99.9533C47.9852 99.9565 48.0861 99.9612 48.1873 99.9643C48.7889 99.9856 49.3921 99.9998 49.999 99.9998C55.0842 99.9998 59.2304 96.5996 62.4428 91.0661H21.4895C29.0362 96.3148 38.0947 99.5453 47.8841 99.9533Z" fill="#E73625"/>
<path d="M48.9656 0.0259705C23.3433 0.547212 2.45989 20.3305 0.212372 45.4951H48.9665V0.0259705H48.9656Z" fill="#283991"/>
<path d="M10.0042 28.3286L10.7659 30.674H13.2338L11.2373 32.1244L11.9999 34.4716L10.0042 33.0204L8.00918 34.4716L8.77024 32.1244L6.77437 30.674H9.24229L10.0042 28.3286Z" fill="#EFEFEF"/>
<path d="M10.0043 36.6153L10.766 38.9622H13.2339L11.2374 40.4126L11.9999 42.7597L10.0043 41.3085L8.00924 42.7597L8.7703 40.4126L6.77443 38.9622H9.24236L10.0043 36.6153Z" fill="#EFEFEF"/>
<path d="M18.2922 15.8961L19.0541 18.2424H21.5212L19.5253 19.6936L20.2872 22.0391L18.2922 20.5896L16.2963 22.0391L17.0582 19.6936L15.0615 18.2424H17.5295L18.2922 15.8961Z" fill="#EFEFEF"/>
<path d="M18.2922 24.184L19.0541 26.5303H21.5212L19.5253 27.9798L20.2872 30.327L18.2922 28.8775L16.2963 30.327L17.0582 27.9798L15.0615 26.5303H17.5295L18.2922 24.184Z" fill="#EFEFEF"/>
<path d="M18.2922 32.4719L19.0541 34.8191H21.5212L19.5253 36.2678L20.2872 38.6149L18.2922 37.1639L16.2963 38.6149L17.0582 36.2678L15.0615 34.8191H17.5295L18.2922 32.4719Z" fill="#EFEFEF"/>
<path d="M3.71201 38.6149L2.94947 36.2678L4.94534 34.8182H2.47889L2.42358 34.647C2.15272 35.4847 1.90804 36.3326 1.68236 37.1899L1.71719 37.1639L3.71201 38.6149Z" fill="#EFEFEF"/>
<path d="M8.00924 26.1839L10.0043 24.7329L12.0002 26.1839L11.2376 23.8367L13.2335 22.3857H10.7656L10.0036 20.0403L9.24173 22.3857H8.33225C8.16336 22.6416 7.99996 22.899 7.83571 23.1586L8.77052 23.8367L8.00924 26.1839Z" fill="#EFEFEF"/>
<path d="M18.2922 12.3016L20.2872 13.7512L19.5253 11.4057L21.5203 9.95468H20.0953C18.885 10.8595 17.7173 11.8171 16.5955 12.8275L16.2946 13.7512L18.2922 12.3016Z" fill="#EFEFEF"/>
<path d="M24.5843 9.60804L26.5801 8.15705L28.5752 9.60804L27.8133 7.26087L29.8083 5.81136H27.3412L27.2378 5.49553C26.4017 5.92261 25.5744 6.36701 24.7658 6.8399L25.3453 7.26066L24.5843 9.60804Z" fill="#EFEFEF"/>
<path d="M26.5801 11.753L27.342 14.0978H29.8091L27.8132 15.5488L28.5752 17.896L26.5801 16.4448L24.5843 17.896L25.3462 15.5488L23.3497 14.0978H25.8174L26.5801 11.753Z" fill="#EFEFEF"/>
<path d="M26.5801 20.0409L27.342 22.3857H29.8091L27.8132 23.8367L28.5752 26.1839L26.5801 24.7327L24.5843 26.1839L25.3462 23.8367L23.3497 22.3857H25.8174L26.5801 20.0409Z" fill="#EFEFEF"/>
<path d="M26.5799 28.3286L27.3418 30.674H29.8089L27.813 32.1244L28.575 34.4716L26.5799 33.0204L24.5841 34.4716L25.346 32.1244L23.3495 30.674H25.8172L26.5799 28.3286Z" fill="#EFEFEF"/>
<path d="M26.5801 36.6153L27.342 38.9622H29.8091L27.8132 40.4126L28.5752 42.7597L26.5801 41.3085L24.5843 42.7597L25.3462 40.4126L23.3497 38.9622H25.8174L26.5801 36.6153Z" fill="#EFEFEF"/>
<path d="M34.8683 7.60814L35.6302 9.95446H38.0973L36.1023 11.4057L36.8633 13.7511L34.8683 12.3016L32.8718 13.7511L33.6344 11.4057L31.6378 9.95446H34.1056L34.8683 7.60814Z" fill="#EFEFEF"/>
<path d="M34.8683 15.8961L35.6302 18.2424H38.0973L36.1023 19.6936L36.8633 22.0391L34.8683 20.5896L32.8718 22.0391L33.6344 19.6936L31.6378 18.2424H34.1056L34.8683 15.8961Z" fill="#EFEFEF"/>
<path d="M34.8683 24.184L35.6302 26.5303H38.0973L36.1023 27.9798L36.8633 30.327L34.8683 28.8775L32.8718 30.327L33.6344 27.9798L31.6378 26.5303H34.1056L34.8683 24.184Z" fill="#EFEFEF"/>
<path d="M34.8683 32.4719L35.6302 34.8191H38.0973L36.1023 36.2678L36.8633 38.6149L34.8683 37.1639L32.8718 38.6149L33.6344 36.2678L31.6378 34.8191H34.1056L34.8683 32.4719Z" fill="#EFEFEF"/>
<path d="M43.1563 3.46503L43.9182 5.81135H46.3853L44.3894 7.26086L45.1513 9.60803L43.1563 8.15683L41.1598 9.60803L41.9224 7.26086L39.9258 5.81135H42.3929L43.1563 3.46503Z" fill="#EFEFEF"/>
<path d="M43.1563 11.753L43.9182 14.0978H46.3853L44.3894 15.5488L45.1513 17.896L43.1563 16.4448L41.1598 17.896L41.9224 15.5488L39.9258 14.0978H42.3929L43.1563 11.753Z" fill="#EFEFEF"/>
<path d="M43.1563 20.0409L43.9182 22.3857H46.3853L44.3894 23.8367L45.1513 26.1839L43.1563 24.7327L41.1598 26.1839L41.9224 23.8367L39.9258 22.3857H42.3929L43.1563 20.0409Z" fill="#EFEFEF"/>
<path d="M43.1563 28.3288L43.9182 30.6743H46.3853L44.3894 32.1246L45.1513 34.4718L43.1563 33.0206L41.1598 34.4718L41.9224 32.1246L39.9258 30.6743H42.3929L43.1563 28.3288Z" fill="#EFEFEF"/>
<path d="M43.1563 36.6153L43.9182 38.9622H46.3853L44.3894 40.4126L45.1513 42.7597L43.1563 41.3085L41.1598 42.7597L41.9224 40.4126L39.9258 38.9622H42.3929L43.1563 36.6153Z" fill="#EFEFEF"/>
</svg>
