<svg width="100" height="100" viewBox="0 0 100 100" fill="none" xmlns="http://www.w3.org/2000/svg">
<path d="M50 0C28.1667 0 9.66668 14 2.83334 33.3333H97.1667C90.3333 14 71.8333 0 50 0Z" fill="#FFE62E"/>
<path d="M50 100C71.8333 100 90.3333 86.1667 97.1667 66.6667H2.83334C9.66668 86.1667 28.1667 100 50 100Z" fill="#ED4C5C"/>
<path d="M2.83333 33.3333C1 38.5 0 44.1667 0 50C0 55.8333 1 61.5 2.83333 66.6667H97.1667C99 61.5 100 55.8333 100 50C100 44.1667 99 38.5 97.1667 33.3333H2.83333Z" fill="#2A5F9E"/>
<path d="M54.3333 41.8333L56 43.6667L55.6667 41.1667L57.8333 40.1667L55.5 39.6667L55.1667 37.3333L54 39.5L51.5 39L53.1667 40.8333L52 43L54.3333 41.8333Z" fill="white"/>
<path d="M45.3333 42L47.5 43L46.3333 40.8333L48 39L45.5 39.5L44.3333 37.3333L44 39.8333L41.5 40.1667L43.8333 41.3333L43.6667 43.6667L45.3333 42Z" fill="white"/>
<path d="M37 45L39.5 45.3333L37.5 43.6667L38.3333 41.5L36.1667 42.6667L34.1667 41L35 43.5L32.8333 44.6667L35.3333 44.8333L36 47.3333L37 45Z" fill="white"/>
<path d="M30.3333 50.8333L32.8333 50.1667L30.3333 49.3333V46.8333L28.8333 48.8333L26.3333 48L27.8333 50L26.5 51.8333L28.8333 51.1667L30.5 53.1667L30.3333 50.8333Z" fill="white"/>
<path d="M26.5 58.3333L28.5 56.8333L25.8333 57L25 54.6667L24.3333 57H21.6667L23.8333 58.3333L23.1667 60.6667L25.1667 59.1667L27.5 60.5L26.5 58.3333Z" fill="white"/>
<path d="M73.5 58L72.6667 60.3333L74.8333 58.8333L76.8333 60.3333L76.1667 58L78.3333 56.6667H75.6667L75 54.5L74.1667 56.6667H71.5L73.5 58Z" fill="white"/>
<path d="M69.3333 50.5L69.5 52.8333L71 51L73.3333 51.5L71.8333 49.6667L73.3333 47.6667L71 48.5L69.3333 46.6667V49L67 49.8333L69.3333 50.5Z" fill="white"/>
<path d="M62.6667 44.8333L63.6667 47.1667L64.3333 44.6667L66.8333 44.5L64.6667 43.3333L65.3333 40.8333L63.3333 42.5L61.1667 41.3333L62.1667 43.5L60.1667 45.1667L62.6667 44.8333Z" fill="white"/>
</svg>
