<svg width="274" height="256" viewBox="0 0 274 256" fill="none" xmlns="http://www.w3.org/2000/svg">
<path d="M256.06 15.3374H209.121C203.768 15.3374 199.429 19.6765 199.429 25.0298C199.429 30.3777 203.768 34.7163 209.121 34.7163H254.627V101.486H228.659C225.903 101.486 223.218 101.817 220.648 102.451C218.89 102.876 217.186 103.444 215.549 104.138C203.431 109.26 194.907 121.273 194.907 135.238C194.907 138.194 196.23 140.84 198.326 142.615C200.012 144.054 202.207 144.925 204.599 144.925C209.947 144.925 214.286 140.586 214.286 135.238C214.286 130.276 216.811 125.893 220.648 123.308C222.936 121.765 225.692 120.865 228.659 120.865H256.059C258.27 120.865 260.387 120.463 262.344 119.73C269.147 117.177 274.005 110.606 274.005 102.92V33.2832C274.006 23.3869 265.956 15.3374 256.06 15.3374Z" fill="#FFCE8B"/>
<path d="M262.345 101.256V119.73C260.388 120.463 258.271 120.866 256.06 120.866H228.66C225.694 120.866 222.937 121.764 220.649 123.308V102.452C223.218 101.817 225.903 101.487 228.66 101.487H254.627V88.6079C259.208 90.9734 262.345 95.7529 262.345 101.256Z" fill="#FFB54E"/>
<path d="M216.464 15.3374V34.7164H209.121C203.768 34.7164 199.428 30.3772 199.428 25.0298C199.428 19.6765 203.768 15.3374 209.121 15.3374H216.464Z" fill="#FFB54E"/>
<path d="M215.549 104.138C213.355 118.489 207.274 131.732 198.326 142.615C196.231 140.839 194.908 138.193 194.908 135.238C194.908 121.273 203.431 109.26 215.549 104.138Z" fill="#FFB54E"/>
<path d="M248.554 186.95L241.496 182.271L234.437 186.95C231.838 188.673 228.366 186.809 228.366 183.69V101.257C228.366 97.6607 231.282 94.7451 234.878 94.7451H248.114C251.711 94.7451 254.626 97.6607 254.626 101.257V183.69C254.626 186.81 251.153 188.674 248.554 186.95Z" fill="#2EA8FC"/>
<path d="M58.4563 104.138C56.8187 103.444 55.1153 102.876 53.3567 102.451C50.7874 101.817 48.1024 101.486 45.3458 101.486H19.3789V34.7163H64.8848C70.238 34.7163 74.5772 30.3772 74.5772 25.0298C74.5772 19.6765 70.238 15.3374 64.8848 15.3374H17.9452C8.04945 15.3374 0 23.3869 0 33.2832V102.92C0 110.606 4.85718 117.177 11.6602 119.73C13.6173 120.463 15.7345 120.865 17.9452 120.865H45.3458C48.3117 120.865 51.0683 121.764 53.3567 123.308C57.1939 125.894 59.7188 130.276 59.7188 135.238C59.7188 140.586 64.0574 144.925 69.4053 144.925C71.798 144.925 73.9922 144.054 75.6791 142.615C77.7743 140.84 79.0972 138.194 79.0972 135.238C79.0977 121.273 70.5741 109.26 58.4563 104.138Z" fill="#FFCE8B"/>
<path d="M53.3566 102.452V123.308C51.0688 121.765 48.3122 120.866 45.3457 120.866H17.9452C15.7344 120.866 13.6173 120.463 11.6602 119.73V101.255C11.6602 95.7534 14.7973 90.9733 19.3789 88.6084V101.487H45.3457C48.1024 101.487 50.7873 101.817 53.3566 102.452Z" fill="#FFB54E"/>
<path d="M79.0977 135.239C79.0977 138.194 77.7748 140.84 75.6796 142.616C66.7316 131.732 60.6505 118.49 58.4563 104.139C70.5741 109.261 79.0977 121.274 79.0977 135.239Z" fill="#FFB54E"/>
<path d="M64.8848 34.7164H57.5413V15.3374H64.8848C70.2381 15.3374 74.5772 19.6765 74.5772 25.0298C74.5772 30.3777 70.2381 34.7164 64.8848 34.7164Z" fill="#FFB54E"/>
<path d="M25.4514 186.95L32.5097 182.271L39.568 186.95C42.1679 188.673 45.6395 186.809 45.6395 183.69V101.257C45.6395 97.6607 42.7239 94.7451 39.1276 94.7451H25.8913C22.295 94.7451 19.3794 97.6607 19.3794 101.257V183.69C19.3799 186.81 22.8521 188.674 25.4514 186.95Z" fill="#2EA8FC"/>
<path d="M208.746 5.53524V92.1697C208.746 126.881 184.085 155.836 151.331 162.48V204.341H122.674V162.48C89.9198 155.836 65.2593 126.881 65.2593 92.1697V5.53524C65.2593 2.48104 67.7403 0 70.7999 0H203.205C206.265 0 208.746 2.4805 208.746 5.53524Z" fill="#FFDBAA"/>
<path d="M208.746 5.54059V92.1692C208.746 126.88 184.085 155.835 151.331 162.479V204.341H139.131V159.018C139.131 156.248 141.009 153.857 143.682 153.13C174.142 144.839 196.545 116.983 196.545 83.8993V5.53524C196.545 2.48104 194.064 0 191.004 0H203.205C206.265 0 208.746 2.4805 208.746 5.54059Z" fill="#FFC26D"/>
<path d="M151.332 185.039H122.674V204.341H151.332V185.039Z" fill="#FFC26D"/>
<path d="M202.601 198.286V240.086H71.4048V198.286C71.4048 195.23 73.8799 192.755 76.9309 192.755H197.075C200.126 192.755 202.601 195.23 202.601 198.286Z" fill="#EFE2DD"/>
<path d="M202.602 198.286V240.089H189.883V198.286C189.883 195.233 187.405 192.755 184.352 192.755H197.072C200.125 192.755 202.602 195.233 202.602 198.286Z" fill="#CDBFBB"/>
<path d="M225.111 255.999H48.8944C45.8402 255.999 43.364 253.524 43.364 250.469V236.451C43.364 233.397 45.8402 230.921 48.8944 230.921H225.111C228.165 230.921 230.641 233.397 230.641 236.451V250.469C230.641 253.524 228.165 255.999 225.111 255.999Z" fill="#FFF5F5"/>
<path d="M230.641 236.45V250.47C230.641 253.522 228.163 256 225.11 256H212.899C215.952 256 218.43 253.523 218.43 250.47V236.45C218.43 233.398 215.952 230.92 212.899 230.92H225.11C228.163 230.92 230.641 233.398 230.641 236.45Z" fill="#EFE2DD"/>
<path d="M165.488 216.805H108.518C106.234 216.805 104.383 214.954 104.383 212.67C104.383 210.387 106.234 208.536 108.518 208.536H165.488C167.772 208.536 169.623 210.387 169.623 212.67C169.623 214.954 167.772 216.805 165.488 216.805Z" fill="#FFC26D"/>
<path d="M137.003 84.367C150.884 84.367 162.138 73.1138 162.138 59.2323C162.138 45.3508 150.884 34.0977 137.003 34.0977C123.121 34.0977 111.868 45.3508 111.868 59.2323C111.868 73.1138 123.121 84.367 137.003 84.367Z" fill="#DAEDFF"/>
<path d="M162.137 59.2333C162.137 73.1155 150.885 84.368 137.003 84.368C134.748 84.368 132.559 84.0704 130.481 83.5133C141.199 80.6352 149.088 70.855 149.088 59.2333C149.088 47.6116 141.199 37.8309 130.481 34.9533C132.559 34.3967 134.748 34.0986 137.003 34.0986C150.885 34.0986 162.137 45.3511 162.137 59.2333Z" fill="#B6DCFF"/>
<path d="M254.627 101.255V183.689C254.627 186.809 251.154 188.673 248.557 186.953L243.601 183.667V101.255C243.601 97.6608 240.684 94.7446 237.09 94.7446H248.116C251.711 94.7441 254.627 97.6608 254.627 101.255Z" fill="#0097FA"/>
<path d="M45.638 101.255V183.689C45.638 186.809 42.1701 188.673 39.5681 186.953L34.6119 183.667V101.255C34.6119 97.6608 31.6953 94.7446 28.1011 94.7446H39.1277C42.7218 94.7441 45.638 97.6608 45.638 101.255Z" fill="#0097FA"/>
</svg>
