<svg width="286" height="256" viewBox="0 0 286 256" fill="none" xmlns="http://www.w3.org/2000/svg">
<g clip-path="url(#clip0_3155_30970)">
<path d="M215.576 129.949C236.729 126.883 253.589 118.606 265.545 104.81C289.457 76.9134 285.165 37.98 285.165 36.1407L284.552 30.9291H240.407C240.101 20.506 239.181 10.0829 237.342 0.272949H47.58C46.0472 10.0829 45.1275 20.506 44.5144 30.9291H0.676075L0.062952 36.1407C-0.24361 37.6735 -4.22891 76.9134 19.6829 104.81C31.6388 118.606 48.4997 126.883 69.6525 129.949C84.9805 156.926 104.907 177.466 121.461 187.889V213.333H70.8787C63.5212 213.333 57.6965 219.158 57.6965 226.515V254.719H228.145V226.515C228.145 219.158 222.32 213.333 214.963 213.333H163.767V188.195C180.321 177.466 200.248 156.926 215.576 129.949ZM256.349 97.1464C248.071 106.65 236.729 113.088 222.627 116.46C233.05 94.6939 240.101 69.5559 240.714 42.885H273.516C273.823 53.9212 272.29 78.7527 256.349 97.1464ZM28.8797 97.1464C13.2451 78.7527 11.7123 53.9212 11.7123 43.1916H44.5144C45.1275 69.8624 52.1784 95.0005 62.6015 116.766C48.4997 113.088 37.1569 106.65 28.8797 97.1464Z" fill="#FFC54D"/>
<path d="M144.147 49.6294L153.037 67.4099C153.344 68.0231 153.65 68.3296 154.57 68.3296L174.19 71.0887C175.723 71.3952 176.029 72.928 175.11 74.1543L160.701 87.643C160.088 88.2561 160.088 88.5627 160.088 89.1758L163.46 108.796C163.767 110.329 162.234 111.248 161.008 110.635L143.534 101.438C142.921 101.132 142.308 101.132 142.001 101.438L124.527 110.635C123.301 111.248 121.768 110.022 122.074 108.796L125.447 89.1758C125.447 88.5627 125.447 87.9496 124.834 87.643L110.732 73.8477C109.812 72.928 110.119 71.0887 111.651 70.7821L131.271 68.0231C131.884 68.0231 132.191 67.4099 132.804 67.1034L141.694 49.3228C141.694 48.0966 143.534 48.0965 144.147 49.6294Z" fill="#EDB248"/>
<path d="M17.2305 200.764L30.4126 184.517L43.5948 200.764V30.9292H17.2305V200.764Z" fill="#81E2A4"/>
<path d="M241.634 30.9292V200.764L254.816 184.517L267.998 200.764V30.9292H241.634Z" fill="#81E2A4"/>
</g>
<defs>
<clipPath id="clip0_3155_30970">
<rect width="285.228" height="256" fill="white"/>
</clipPath>
</defs>
</svg>
