<svg width="136" height="256" viewBox="0 0 136 256" fill="none" xmlns="http://www.w3.org/2000/svg">
<g clip-path="url(#clip0_3153_30742)">
<path d="M46.7422 0L64.5897 210.413H46.1722C43.7057 210.413 41.5862 208.671 41.1042 206.257L39.4822 198.064L4.64215 22.294C4.22215 20.1745 5.17065 18.0185 7.01565 16.884L33.3462 0.762C33.7402 0.5185 34.1702 0.332 34.6157 0.2075C35.0767 0.0675 35.5537 0 36.0407 0L46.7422 0Z" fill="#B6DCFF"/>
<path d="M135.254 22.294L100.414 198.064L98.7921 206.257C98.3151 208.671 96.1906 210.413 93.7241 210.413H75.3066L93.1591 0H103.855C104.342 0 104.824 0.0675 105.291 0.2075C105.731 0.332 106.156 0.5185 106.555 0.762L132.886 16.884C134.725 18.0185 135.674 20.174 135.254 22.294Z" fill="#B6DCFF"/>
<path d="M100.416 198.061L98.794 206.255C98.3135 208.673 96.19 210.414 93.7255 210.414H46.172C43.7075 210.414 41.584 208.673 41.1035 206.255L39.481 198.061C39.858 198.046 40.2355 198.035 40.6175 198.035H99.279C99.662 198.035 100.039 198.046 100.416 198.061Z" fill="#8ECBFD"/>
<path d="M135.255 22.2939L98.7941 206.255C98.3136 208.673 96.1901 210.414 93.7256 210.414H83.3201C85.8671 210.414 88.0581 208.616 88.5541 206.116L126.224 16.0574C126.472 14.8069 126.26 13.5464 125.681 12.4719L132.884 16.8844C134.728 18.0159 135.673 20.1754 135.255 22.2939Z" fill="#8ECBFD"/>
<path d="M105.288 0.2065L80.153 198.036L79.3055 204.716H60.592L59.7445 198.036L34.6145 0.2065C35.0745 0.067 35.555 0 36.0405 0H103.857C104.343 0 104.824 0.067 105.288 0.2065Z" fill="#DAEDFF"/>
<path d="M80.1531 198.035L79.3056 204.716H60.5921L59.7451 198.035H80.1531Z" fill="#B6DCFF"/>
<path d="M113.433 234.004H26.4651V217.867C26.4651 210.051 32.8016 203.714 40.6181 203.714H99.2796C107.096 203.714 113.433 210.051 113.433 217.867V234.004Z" fill="#DAEDFF"/>
<path d="M113.431 217.866V234.006H102.525V217.866C102.525 210.049 96.19 203.714 88.373 203.714H99.2795C107.097 203.714 113.431 210.049 113.431 217.866Z" fill="#B6DCFF"/>
<path d="M138.815 256H5.18505C2.33155 256 0.0185547 253.687 0.0185547 250.834V237.738C0.0185547 234.884 2.33155 232.571 5.18505 232.571H138.815C141.669 232.571 143.982 234.884 143.982 237.738V250.834C143.982 253.687 141.669 256 138.815 256Z" fill="#FFF5F5"/>
<path d="M143.981 237.736V250.834C143.981 253.686 141.666 256 138.814 256H127.406C130.258 256 132.573 253.686 132.573 250.834V237.736C132.573 234.884 130.258 232.57 127.406 232.57H138.814C141.666 232.57 143.981 234.884 143.981 237.736Z" fill="#EFE2DD"/>
<path d="M80.405 222.922H63.595C61.4485 222.922 59.7085 221.182 59.7085 219.035C59.7085 216.889 61.4485 215.149 63.595 215.149H80.4045C82.5515 215.149 84.291 216.889 84.291 219.035C84.291 221.182 82.5515 222.922 80.405 222.922Z" fill="#FFB54E"/>
</g>
<defs>
<clipPath id="clip0_3153_30742">
<rect width="135.36" height="256" fill="white"/>
</clipPath>
</defs>
</svg>
