<svg width="202" height="256" viewBox="0 0 202 256" fill="none" xmlns="http://www.w3.org/2000/svg">
<g clip-path="url(#clip0_3153_30741)">
<path d="M100.631 4.36035H28.1401C31.9556 17.9866 48.3069 75.7608 48.3069 104.648C48.3069 137.351 82.0994 156.973 100.631 156.973C119.163 156.973 152.955 137.896 152.955 104.648C152.955 75.7614 169.307 17.9866 173.122 4.36035H100.631Z" fill="#F6BA51"/>
<path d="M179.662 0H22.1445V11.4459H179.662V0Z" fill="#EF9F2C"/>
<path d="M39.0415 123.18C36.3164 123.18 32.5009 122.09 28.1408 118.82C26.5056 117.73 26.5056 115.549 27.5955 113.914C28.6855 112.279 30.8658 112.279 32.5009 113.369C39.0415 118.274 40.6766 116.094 41.7665 115.004C43.4016 113.369 43.4016 111.189 42.8564 110.099C42.3112 107.918 41.2213 105.739 39.0409 104.104C17.2396 89.9321 4.15852 79.0314 -0.20166 50.689C-0.20166 43.0585 1.43347 33.7924 7.97399 27.7971C11.2443 24.5269 17.7848 21.2566 26.5056 23.437C27.0508 23.437 34.6813 26.162 37.4063 32.7025C39.0415 36.518 39.0415 40.8782 37.4063 45.2384C36.8611 46.8735 34.6813 47.9634 32.5009 47.4187C30.8658 46.8735 29.7759 44.6937 30.3206 42.5133C31.4105 39.7883 31.4105 37.6079 30.3206 35.4276C28.6855 31.6121 23.7801 29.977 23.7801 29.977C19.9646 29.4318 16.1496 29.977 12.8794 33.2472C8.51869 37.6079 6.88356 44.6937 7.42878 49.0538C11.2442 75.2159 23.7801 84.4815 43.4016 97.5625C47.2171 100.288 49.9421 104.103 50.4874 108.463C51.0326 112.279 49.9422 116.094 47.7623 118.819C46.6719 120.454 43.4016 123.18 39.0415 123.18Z" fill="#F6BA51"/>
<path d="M162.221 123.18C157.86 123.18 155.135 120.455 153.5 118.82C151.319 116.095 150.23 112.279 150.775 108.464C151.32 104.104 154.045 100.288 157.86 97.563C177.482 84.482 190.018 75.2164 193.833 49.0544C194.379 44.149 193.288 37.0632 188.383 33.2483C185.112 30.5232 181.297 29.4328 176.392 31.0679C176.392 31.0679 172.031 32.7031 170.396 36.5185C169.306 38.6989 169.851 40.8787 170.396 43.6043C170.941 45.2394 170.396 47.4197 168.216 48.5097C166.581 49.0549 164.4 48.5097 163.311 46.3293C161.675 41.9691 161.675 37.6085 163.311 33.7935C166.581 27.253 173.667 24.5279 174.211 24.5279C184.022 21.2577 190.017 24.5279 193.288 27.7982C199.828 33.7935 202.008 43.0596 200.918 50.1448C197.103 78.4872 183.477 89.3879 161.675 103.559C159.495 104.649 158.405 106.829 157.859 109.554C157.859 110.644 157.859 112.824 158.949 114.46C160.039 115.549 161.674 118.275 168.215 112.824C169.85 111.735 172.03 111.735 173.12 113.37C174.21 115.005 174.21 117.185 172.575 118.275C168.761 122.089 164.946 123.18 162.221 123.18Z" fill="#F6BA51"/>
<path d="M103.901 141.166H97.3608V189.13H103.901V141.166Z" fill="#F6BA51"/>
<path d="M85.3696 142.256V154.792C85.3696 163.513 92.4554 170.053 100.631 170.053C108.807 170.053 115.892 162.968 115.892 154.792V142.256H85.3696Z" fill="#F6BA51"/>
<path d="M100.631 170.599C91.3658 170.599 70.6538 199.486 70.6538 199.486H100.631H130.609C130.609 199.486 109.897 170.599 100.631 170.599Z" fill="#F6BA51"/>
<path d="M131.699 199.486H69.5636C63.0231 199.486 58.1177 203.846 58.1177 209.297V250.72H142.599V209.297C143.144 203.846 137.694 199.486 131.699 199.486Z" fill="#637888"/>
<path d="M150.775 242.544H51.0317V256.171H150.775V242.544Z" fill="#3A5569"/>
<path d="M100.631 234.369C111.468 234.369 120.252 229 120.252 222.378C120.252 215.755 111.468 210.386 100.631 210.386C89.7942 210.386 81.0093 215.755 81.0093 222.378C81.0093 229 89.7942 234.369 100.631 234.369Z" fill="#3A5569"/>
</g>
<defs>
<clipPath id="clip0_3153_30741">
<rect width="201.325" height="256" fill="white"/>
</clipPath>
</defs>
</svg>
