<svg width="262" height="262" viewBox="0 0 262 262" fill="none" xmlns="http://www.w3.org/2000/svg">
<g clip-path="url(#clip0_3153_30494)">
<path d="M108.825 99.3794C77.3019 99.3794 50.6613 76.8106 45.4801 45.7109L45.3343 44.8466C44.7653 41.4319 45.6562 38.1282 47.8443 35.5471C49.9577 33.0504 53.0525 31.6212 56.3368 31.6212H83.5418V18.0688H56.3368C49.0622 18.0688 42.1985 21.2451 37.5045 26.786C32.7685 32.3796 30.7508 39.7729 31.9682 47.0823L32.114 47.9425C38.3872 85.6029 70.648 112.931 108.824 112.931C108.824 112.931 108.833 112.931 108.835 112.931V99.3789C108.83 99.3794 108.83 99.3794 108.825 99.3794Z" fill="#EBB45F"/>
<path d="M224.496 26.786C219.802 21.2451 212.939 18.0688 205.664 18.0688H178.459V31.6207H205.664C208.948 31.6207 212.043 33.0499 214.156 35.5466C216.344 38.1272 217.235 41.4314 216.666 44.8461L216.52 45.7104C211.339 76.8106 184.699 99.3789 153.175 99.3789C153.171 99.3789 153.171 99.3789 153.166 99.3789V112.931C153.168 112.931 153.175 112.931 153.175 112.931C191.353 112.931 223.614 85.6024 229.887 47.9425L230.033 47.0823C231.25 39.7734 229.232 32.3796 224.496 26.786Z" fill="#FFC36E"/>
<path d="M144.552 212.311H117.449L121.966 117.448H140.035L144.552 212.311Z" fill="#FFC36E"/>
<path d="M121.966 117.448L117.449 212.311H131V117.448H121.966Z" fill="#EBB45F"/>
<path d="M158.104 230.379H103.897V212.311C103.897 209.816 105.92 207.793 108.414 207.793H153.587C156.081 207.793 158.104 209.816 158.104 212.311V230.379H158.104Z" fill="#FFD782"/>
<path d="M131 207.793H108.414C105.919 207.793 103.896 209.816 103.896 212.311V230.379H126.482V212.311C126.483 209.816 128.505 207.793 131 207.793Z" fill="#FFC36E"/>
<path d="M176.173 239.414H85.8276L92.1801 229.885C93.8555 227.372 96.6766 225.862 99.6973 225.862H162.303C165.324 225.862 168.144 227.372 169.82 229.885L176.173 239.414Z" fill="#9B5A50"/>
<path d="M126.801 225.862H99.6973C96.6766 225.862 93.856 227.371 92.1801 229.885L85.8276 239.414H112.931L119.284 229.885C120.96 227.371 123.78 225.862 126.801 225.862Z" fill="#874641"/>
<path d="M176.172 262H85.8275C83.3329 262 81.3101 259.977 81.3101 257.482V239.414C81.3101 236.919 83.3329 234.896 85.8275 234.896H176.172C178.667 234.896 180.69 236.919 180.69 239.414V257.482C180.69 259.977 178.667 262 176.172 262Z" fill="#AA6455"/>
<path d="M112.931 257.482V239.414C112.931 236.919 114.954 234.896 117.449 234.896H85.828C83.3334 234.896 81.3105 236.919 81.3105 239.414V257.482C81.3105 259.977 83.3334 262 85.828 262H117.449C114.954 262 112.931 259.977 112.931 257.482Z" fill="#9B5A50"/>
<path d="M166.994 104.511L146.999 120.062C145.413 121.295 143.462 121.965 141.453 121.965H120.549C118.54 121.965 116.588 121.295 115.002 120.062L95.0078 104.511C83.3708 95.4595 75.9217 82.0591 74.3789 67.3973L67.7588 4.51733H194.241L187.622 67.3973C186.079 82.0591 178.63 95.46 166.994 104.511Z" fill="#FFD782"/>
<path d="M130.348 120.062L121.065 104.511C115.662 95.4595 112.204 82.0591 111.487 67.3963L108.414 4.51733H67.7588L74.3779 67.3973C75.9212 82.0591 83.3698 95.46 95.0068 104.512L115.001 120.063C116.588 121.297 118.539 121.967 120.548 121.967H132.923C131.991 121.965 131.084 121.296 130.348 120.062Z" fill="#FFC36E"/>
<path d="M194.242 9.03442H67.7587C65.264 9.03442 63.2412 7.01159 63.2412 4.51696C63.2412 2.02234 65.264 -0.000488281 67.7587 -0.000488281H194.241C196.736 -0.000488281 198.759 2.02234 198.759 4.51696C198.759 7.01211 196.736 9.03442 194.242 9.03442Z" fill="#FFD782"/>
<path d="M144.552 153.586H117.448C114.953 153.586 112.931 151.563 112.931 149.069V144.551C112.931 142.057 114.953 140.034 117.448 140.034H144.552C147.046 140.034 149.069 142.057 149.069 144.551V149.069C149.069 151.563 147.046 153.586 144.552 153.586Z" fill="#FFD782"/>
<path d="M126.483 149.069V144.551C126.483 142.057 128.506 140.034 131 140.034H117.449C114.954 140.034 112.931 142.057 112.931 144.551V149.069C112.931 151.563 114.954 153.586 117.449 153.586H131C128.505 153.586 126.483 151.563 126.483 149.069Z" fill="#FFC36E"/>
<path d="M192.815 18.0688L193.766 9.03442H68.2341L69.1849 18.0688H192.815Z" fill="#FFC36E"/>
<path d="M108.635 9.03442H68.2341L69.1849 18.0688H109.076L108.635 9.03442Z" fill="#EBB45F"/>
<path d="M103.897 4.51745C103.897 2.02282 105.92 0 108.414 0H67.7592C65.2645 0 63.2417 2.02282 63.2417 4.51745C63.2417 7.01208 65.2645 9.03491 67.7592 9.03491H108.414C105.919 9.03439 103.897 7.01208 103.897 4.51745Z" fill="#FFC36E"/>
<path d="M184.974 22.8523C178.233 21.3151 172.926 16.009 171.389 9.26817C171.274 8.76054 170.602 8.76054 170.486 9.26817C168.949 16.009 163.643 21.3156 156.902 22.8523C156.394 22.9679 156.394 23.6398 156.902 23.756C163.643 25.2932 168.949 30.5992 170.486 37.34C170.601 37.8477 171.273 37.8477 171.389 37.34C172.927 30.5992 178.233 25.2926 184.974 23.756C185.481 23.6403 185.481 22.9679 184.974 22.8523Z" fill="white"/>
<path d="M165.198 43.2728C160.452 42.0437 156.715 38.3066 155.486 33.5609C155.362 33.0845 154.746 33.0845 154.622 33.5609C153.393 38.3066 149.656 42.0437 144.911 43.2728C144.434 43.3967 144.434 44.0133 144.911 44.1366C149.656 45.3658 153.393 49.1023 154.622 53.8485C154.746 54.3249 155.363 54.3249 155.486 53.8485C156.715 49.1018 160.452 45.3658 165.198 44.1366C165.675 44.0138 165.675 43.3967 165.198 43.2728Z" fill="white"/>
</g>
<defs>
<clipPath id="clip0_3153_30494">
<rect width="262" height="262" fill="white"/>
</clipPath>
</defs>
</svg>
