<svg width="256" height="240" viewBox="0 0 256 240" fill="none" xmlns="http://www.w3.org/2000/svg">
<g clip-path="url(#clip0_3153_30745)">
<path d="M239.234 14.7412H195.379C190.378 14.7412 186.324 18.7952 186.324 23.7967C186.324 28.7932 190.378 32.8467 195.379 32.8467H237.895V95.2292H213.634C211.058 95.2292 208.55 95.5382 206.149 96.1307C204.506 96.5272 202.914 97.0577 201.385 97.7067C190.063 102.492 182.1 113.716 182.1 126.763C182.1 129.524 183.336 131.997 185.293 133.655C186.869 135 188.92 135.813 191.155 135.813C196.151 135.813 200.205 131.759 200.205 126.763C200.205 122.127 202.564 118.032 206.149 115.617C208.286 114.175 210.862 113.335 213.633 113.335H239.233C241.299 113.335 243.277 112.959 245.105 112.274C251.461 109.889 255.999 103.749 255.999 96.5687V31.5077C256 22.2617 248.48 14.7412 239.234 14.7412Z" fill="#FFCE8B"/>
<path d="M245.106 95.0133V112.274C243.277 112.959 241.299 113.335 239.234 113.335H213.634C210.863 113.335 208.287 114.174 206.149 115.617V96.1308C208.55 95.5383 211.058 95.2293 213.634 95.2293H237.895V83.1968C242.175 85.4068 245.106 89.8723 245.106 95.0133Z" fill="#FFB54E"/>
<path d="M202.24 14.7412V32.8467H195.379C190.378 32.8467 186.324 28.7927 186.324 23.7967C186.324 18.7952 190.378 14.7412 195.379 14.7412H202.24Z" fill="#FFB54E"/>
<path d="M201.385 97.7068C199.335 111.115 193.654 123.487 185.294 133.655C183.336 131.996 182.1 129.524 182.1 126.763C182.1 113.716 190.063 102.492 201.385 97.7068Z" fill="#FFB54E"/>
<path d="M232.221 175.077L225.626 170.705L219.032 175.077C216.603 176.687 213.359 174.945 213.359 172.031V95.0147C213.359 91.6547 216.083 88.9307 219.443 88.9307H231.81C235.17 88.9307 237.894 91.6547 237.894 95.0147V172.031C237.893 174.946 234.649 176.687 232.221 175.077Z" fill="#2EA8FC"/>
<path d="M54.615 97.7067C53.085 97.0577 51.4935 96.5272 49.8505 96.1307C47.45 95.5382 44.9415 95.2292 42.366 95.2292H18.1055V32.8467H60.621C65.6225 32.8467 69.6765 28.7927 69.6765 23.7967C69.6765 18.7952 65.6225 14.7412 60.621 14.7412H16.766C7.5205 14.7412 0 22.2617 0 31.5077V96.5687C0 103.749 4.538 109.889 10.894 112.274C12.7225 112.959 14.7005 113.335 16.766 113.335H42.366C45.137 113.335 47.7125 114.174 49.8505 115.617C53.4355 118.033 55.7945 122.127 55.7945 126.763C55.7945 131.76 59.848 135.813 64.8445 135.813C67.08 135.813 69.13 134.999 70.706 133.655C72.6635 131.997 73.8995 129.524 73.8995 126.763C73.9 113.716 65.9365 102.492 54.615 97.7067Z" fill="#FFCE8B"/>
<path d="M49.8505 96.1308V115.617C47.713 114.175 45.1375 113.335 42.366 113.335H16.766C14.7005 113.335 12.7225 112.959 10.894 112.274V95.0133C10.894 89.8728 13.825 85.4068 18.1055 83.1973V95.2298H42.366C44.9415 95.2293 47.45 95.5383 49.8505 96.1308Z" fill="#FFB54E"/>
<path d="M73.9002 126.763C73.9002 129.524 72.6642 131.997 70.7067 133.655C62.3467 123.487 56.6652 111.115 54.6152 97.7073C65.9367 102.492 73.9002 113.716 73.9002 126.763Z" fill="#FFB54E"/>
<path d="M60.6208 32.8467H53.7598V14.7412H60.6208C65.6223 14.7412 69.6763 18.7952 69.6763 23.7967C69.6763 28.7932 65.6223 32.8467 60.6208 32.8467Z" fill="#FFB54E"/>
<path d="M23.779 175.077L30.3735 170.705L36.968 175.077C39.397 176.687 42.6405 174.945 42.6405 172.031V95.0147C42.6405 91.6547 39.9165 88.9307 36.5565 88.9307H24.19C20.83 88.9307 18.106 91.6547 18.106 95.0147V172.031C18.1065 174.946 21.3505 176.687 23.779 175.077Z" fill="#2EA8FC"/>
<path d="M195.029 5.58312V86.5246C195.029 118.955 171.989 146.007 141.387 152.214V191.325H114.613V152.214C84.0112 146.007 60.9712 118.955 60.9712 86.5246V5.58312C60.9712 2.72962 63.2892 0.411621 66.1477 0.411621H189.852C192.711 0.411621 195.029 2.72912 195.029 5.58312Z" fill="#FFDBAA"/>
<path d="M195.028 5.58812V86.5241C195.028 118.954 171.988 146.007 141.387 152.214V191.325H129.988V148.98C129.988 146.392 131.743 144.158 134.24 143.479C162.699 135.733 183.629 109.708 183.629 78.7976V5.58312C183.629 2.72962 181.311 0.411621 178.453 0.411621H189.852C192.711 0.411621 195.028 2.72912 195.028 5.58812Z" fill="#FFC26D"/>
<path d="M141.387 173.291H114.613V191.325H141.387V173.291Z" fill="#FFC26D"/>
<path d="M189.288 185.668V224.721H66.7129V185.668C66.7129 182.812 69.0254 180.5 71.8759 180.5H184.125C186.975 180.5 189.288 182.812 189.288 185.668Z" fill="#EFE2DD"/>
<path d="M189.289 185.667V224.724H177.405V185.667C177.405 182.815 175.091 180.5 172.238 180.5H184.122C186.974 180.5 189.289 182.815 189.289 185.667Z" fill="#CDBFBB"/>
<path d="M210.319 239.588H45.6816C42.8281 239.588 40.5146 237.275 40.5146 234.421V221.325C40.5146 218.471 42.8281 216.158 45.6816 216.158H210.318C213.172 216.158 215.485 218.471 215.485 221.325V234.421C215.485 237.275 213.172 239.588 210.319 239.588Z" fill="#FFF5F5"/>
<path d="M215.485 221.324V234.422C215.485 237.274 213.17 239.589 210.318 239.589H198.909C201.761 239.589 204.076 237.274 204.076 234.422V221.324C204.076 218.472 201.762 216.157 198.909 216.157H210.318C213.17 216.157 215.485 218.472 215.485 221.324Z" fill="#EFE2DD"/>
<path d="M154.613 202.97H101.387C99.2529 202.97 97.5239 201.24 97.5239 199.107C97.5239 196.973 99.2534 195.244 101.387 195.244H154.613C156.747 195.244 158.476 196.973 158.476 199.107C158.476 201.24 156.747 202.97 154.613 202.97Z" fill="#FFC26D"/>
<path d="M128 79.2346C140.969 79.2346 151.483 68.7209 151.483 55.7516C151.483 42.7822 140.969 32.2686 128 32.2686C115.031 32.2686 104.517 42.7822 104.517 55.7516C104.517 68.7209 115.031 79.2346 128 79.2346Z" fill="#DAEDFF"/>
<path d="M151.483 55.7525C151.483 68.7225 140.97 79.2355 128 79.2355C125.893 79.2355 123.849 78.9575 121.907 78.437C131.92 75.748 139.291 66.6105 139.291 55.7525C139.291 44.8945 131.92 35.7565 121.907 33.068C123.849 32.548 125.894 32.2695 128 32.2695C140.97 32.2695 151.483 42.7825 151.483 55.7525Z" fill="#B6DCFF"/>
<path d="M237.894 95.0132V172.03C237.894 174.945 234.649 176.686 232.223 175.079L227.593 172.009V95.0132C227.593 91.6547 224.868 88.9302 221.51 88.9302H231.812C235.17 88.9297 237.894 91.6547 237.894 95.0132Z" fill="#0097FA"/>
<path d="M42.6389 95.0132V172.03C42.6389 174.945 39.3989 176.686 36.9679 175.079L32.3374 172.009V95.0132C32.3374 91.6547 29.6124 88.9302 26.2544 88.9302H36.5564C39.9144 88.9297 42.6389 91.6547 42.6389 95.0132Z" fill="#0097FA"/>
</g>
<defs>
<clipPath id="clip0_3153_30745">
<rect width="256" height="240" fill="white"/>
</clipPath>
</defs>
</svg>
